<?xml version="1.0" encoding="utf-8"?>
<!-- Generator: Adobe Illustrator 16.0.0, SVG Export Plug-In . SVG Version: 6.00 Build 0)  -->
<!DOCTYPE svg PUBLIC "-//W3C//DTD SVG 1.1//EN" "http://www.w3.org/Graphics/SVG/1.1/DTD/svg11.dtd">
<svg version="1.1" id="Layer_1" xmlns="http://www.w3.org/2000/svg" xmlns:xlink="http://www.w3.org/1999/xlink" x="0px" y="0px"
	 width="700px" height="700px" viewBox="0 0 700 700" enable-background="new 0 0 700 700" xml:space="preserve">



<g id="Layer_53">
	<g>
		<g>
			<g>
				
					<linearGradient id="SVGID_30_" gradientUnits="userSpaceOnUse" x1="432.0225" y1="-209.231" x2="432.037" y2="-112.7292" gradientTransform="matrix(1 0 0 -1 -292.9805 339.1201)">
					<stop  offset="0" style="stop-color:#374451"/>
					<stop  offset="0.6627" style="stop-color:#2A3541"/>
					<stop  offset="0.8902" style="stop-color:#212C39"/>
					<stop  offset="0.9098" style="stop-color:#495460"/>
					<stop  offset="0.9294" style="stop-color:#353F4B"/>
					<stop  offset="1" style="stop-color:#414F5F"/>
				</linearGradient>
				<path fill="url(#SVGID_30_)" d="M201.5,469.8H198H82.9h-3l-7.1,60.3H200L201.5,469.8z M214.1,452.8l-4.8,9.4l-1.7,77.5H63.8
					l11-78.5h0.1l11.3-8.5h128h0.1L214.1,452.8z"/>
				
					<linearGradient id="SVGID_31_" gradientUnits="userSpaceOnUse" x1="1120.8906" y1="726.2715" x2="1176.3604" y2="726.2715" gradientTransform="matrix(-0.2722 0.9622 0.9698 0.2453 -252.458 -780.8508)">
					<stop  offset="0" style="stop-color:#A2A2A2"/>
					<stop  offset="1" style="stop-color:#FFFFFF"/>
				</linearGradient>
				<polygon fill="url(#SVGID_31_)" points="201.5,469.8 200,530.1 72.8,530.1 79.9,469.8 82.9,469.8 198,469.8 				"/>
				
					<linearGradient id="SVGID_32_" gradientUnits="userSpaceOnUse" x1="486.0303" y1="-192.5796" x2="508.9552" y2="-192.5796" gradientTransform="matrix(1 0 0 -1 -292.9805 339.1201)">
					<stop  offset="0" style="stop-color:#192534"/>
					<stop  offset="1" style="stop-color:#101823"/>
				</linearGradient>
				<polygon fill="url(#SVGID_32_)" points="215.2,542.5 213.5,542.5 213.5,547.6 193,610.6 193,580.8 207.4,542.5 208,542.5 
					207.6,539.7 209.3,462.2 214.1,452.8 216,540.3 				"/>
				
					<linearGradient id="SVGID_33_" gradientUnits="userSpaceOnUse" x1="507.3203" y1="-219.8311" x2="507.2966" y2="-255.2311" gradientTransform="matrix(1 0 0 -1 -292.9805 339.1201)">
					<stop  offset="0" style="stop-color:#0C131B"/>
					<stop  offset="0.5647" style="stop-color:#2C343D"/>
					<stop  offset="0.6039" style="stop-color:#4E545B"/>
					<stop  offset="0.651" style="stop-color:#0F161E"/>
					<stop  offset="1" style="stop-color:#0E151D"/>
				</linearGradient>
				<polygon fill="url(#SVGID_33_)" points="215.2,542.5 213.5,547.6 213.5,542.5 				"/>
				<polygon fill="#09080D" points="207.4,542.5 64.3,542.5 63.8,539.7 207.6,539.7 208,542.5 				"/>
				
					<linearGradient id="SVGID_34_" gradientUnits="userSpaceOnUse" x1="413.7314" y1="-219.7676" x2="413.7077" y2="-255.1683" gradientTransform="matrix(1 0 0 -1 -292.9805 339.1201)">
					<stop  offset="0" style="stop-color:#2D3641"/>
					<stop  offset="0.5647" style="stop-color:#525B67"/>
					<stop  offset="0.6039" style="stop-color:#818A95"/>
					<stop  offset="0.651" style="stop-color:#172230"/>
					<stop  offset="1" style="stop-color:#223246"/>
				</linearGradient>
				<polygon fill="url(#SVGID_34_)" points="64.3,542.5 207.4,542.5 193,580.8 193,610.6 193,611.7 192.6,611.7 181.5,611.7 
					167.5,611.7 149,611.7 115,611.7 34.1,611.7 34.1,611.5 34.1,579.7 34.1,579.7 62.3,545.4 				"/>
			</g>
		</g>
		<g>
			<g>
				
					<linearGradient id="SVGID_35_" gradientUnits="userSpaceOnUse" x1="369.1309" y1="-228.0298" x2="387.1309" y2="-228.0298" gradientTransform="matrix(1 0 0 -1 -292.9805 339.1201)">
					<stop  offset="0" style="stop-color:#000000"/>
					<stop  offset="6.666666e-002" style="stop-color:#060606"/>
					<stop  offset="0.1608" style="stop-color:#444444"/>
					<stop  offset="0.2902" style="stop-color:#1A1A1A"/>
					<stop  offset="0.651" style="stop-color:#3C3C3C"/>
					<stop  offset="0.7451" style="stop-color:#2D2D2D"/>
					<stop  offset="0.8235" style="stop-color:#515151"/>
					<stop  offset="0.8863" style="stop-color:#1C1C1C"/>
					<stop  offset="1" style="stop-color:#000000"/>
				</linearGradient>
				<rect x="76.2" y="560.5" fill="url(#SVGID_35_)" width="17.5" height="13.3"/>
			</g>
			<g>
				<path d="M78.2,563c-1.8-0.8-2.8-1.8-2.8-2.8l0,0c0-1,0.8-1.9,2.4-2.7c5.1-1.5,10-1.5,14.6,0l0.1,0.1c0.3,0.1,0.7,0.3,1,0.5
					c0.8,0.6,1.2,1.2,1.3,1.8v0.6c-0.2,0.9-1,1.8-2.6,2.5l-1.4,0.5c-3.7,0.8-7.4,0.8-11.1,0h-0.1h-0.1C79,563.3,78.6,563.2,78.2,563
					z"/>
			</g>
			<g>
				
					<linearGradient id="SVGID_36_" gradientUnits="userSpaceOnUse" x1="369.0557" y1="-219.751" x2="387.2056" y2="-219.751" gradientTransform="matrix(1 0 0 -1 -292.9805 339.1201)">
					<stop  offset="0" style="stop-color:#666666"/>
					<stop  offset="0.3412" style="stop-color:#1A1A1A"/>
					<stop  offset="0.5098" style="stop-color:#3C3C3C"/>
					<stop  offset="0.6706" style="stop-color:#2D2D2D"/>
					<stop  offset="0.8392" style="stop-color:#706B6B"/>
					<stop  offset="1" style="stop-color:#635E5E"/>
				</linearGradient>
				<path fill="url(#SVGID_36_)" d="M76.1,554.7h0.3c0.1,0.2,0.4,0.5,0.7,0.8c0.4,0.5,1,1,1.7,1.5c0.3,0.3,0.7,0.5,1,0.5
					c0.1,0,0.1,0,0.2,0l0,0c3.5,1.2,7,1.2,10.4,0l1.4-0.8c0.2-0.1,0.4-0.2,0.6-0.3c0.2-0.2,0.4-0.4,0.6-0.6c0.1-0.2,0.3-0.3,0.4-0.4
					c0.3-0.2,0.5-0.5,0.7-0.8h0.1v5c0,1-0.8,1.8-2.4,2.4c-0.1,0-0.4,0.1-1,0.4c-3.6,0.9-7.1,1-10.8,0.2h-0.1
					c-0.4-0.2-0.8-0.3-1.2-0.4c-1.6-0.7-2.5-1.4-2.6-2.3V554.7z"/>
			</g>
			<g>
				<path d="M78.8,552.7c1.8-0.7,3.9-1,6.4-1s4.7,0.3,6.5,1c1.8,0.6,2.6,1.4,2.6,2.3c0,1-0.9,1.8-2.6,2.4c-1.8,0.7-3.9,1.1-6.5,1.1
					c-2.5,0-4.6-0.4-6.4-1.1C77,556.8,76,556,76,555C76,554.1,77,553.3,78.8,552.7z"/>
			</g>
			<g>
				<path d="M77.5,554.7l1.1-15.7h12.7l1.4,15.7c-0.3,0.7-1.8,1.3-4.4,1.8c-2.7,0.5-5.1,0.5-7.3,0C78.8,555.9,77.6,555.3,77.5,554.7
					z"/>
			</g>
			<g>
				<path fill="#1F1F1F" d="M83.7,541.2h2.8v15.3c-0.2,0-0.4,0-0.6,0.1c-0.3,0-0.5,0-0.8,0c-0.2,0-0.4,0-0.6,0
					c-0.4-0.1-0.8-0.1-1.1-0.1L83.7,541.2z"/>
			</g>
			<g>
				<g>
					
						<linearGradient id="SVGID_37_" gradientUnits="userSpaceOnUse" x1="469.3643" y1="1313.3262" x2="474.855" y2="1313.3262" gradientTransform="matrix(-0.9972 -7.432025e-002 -7.432025e-002 0.9972 649.668 -726.7832)">
						<stop  offset="0" style="stop-color:#1F1F1F"/>
						<stop  offset="0.6078" style="stop-color:#666464"/>
						<stop  offset="1" style="stop-color:#000000"/>
					</linearGradient>
					<path fill="url(#SVGID_37_)" d="M78.3,549.5l0.4-10.5c0.9,1.2,1.9,1.8,3.1,1.9c1.3,0.1,2.1,0.2,2.4,0.2l0.4,15.5
						c-2.3-0.1-4.2-0.5-5.8-1.3c-0.4-0.2-0.7-0.3-1-0.5l0.5-4.8V549.5z"/>
					
						<linearGradient id="SVGID_38_" gradientUnits="userSpaceOnUse" x1="379.3203" y1="-209.0068" x2="384.7961" y2="-208.5974" gradientTransform="matrix(1 0 0 -1 -292.9805 339.1201)">
						<stop  offset="0" style="stop-color:#1F1F1F"/>
						<stop  offset="0.651" style="stop-color:#7B6D6D"/>
						<stop  offset="1" style="stop-color:#000000"/>
					</linearGradient>
					<path fill="url(#SVGID_38_)" d="M86.3,541.1c0.7-0.1,1.4-0.2,2-0.2c1.4-0.1,2.4-0.6,3-1.7l0.9,10.3l0.1,0.6l0.5,4.8
						c-0.3,0.1-0.7,0.3-1.1,0.5c-1.6,0.7-3.5,1.1-5.6,1.3L86.3,541.1z"/>
				</g>
			</g>
			<g>
				<path fill="#333333" d="M80,537.5c0.1,0,0.3-0.1,0.6-0.3c2.8-1.1,5.7-1.1,8.6,0l0.5,0.2c1.1,0.4,1.7,0.9,1.7,1.8
					c-0.1,0.6-0.6,1.1-1.7,1.5c-3,0.9-6.1,0.9-9.3,0c-1.1-0.5-1.7-1.1-1.7-1.8c0-0.4,0.2-0.7,0.6-1C79.4,537.7,79.6,537.5,80,537.5z
					"/>
			</g>
			<g>
				<path d="M87.9,537.5c0.8,0.3,1.1,0.6,1.1,1s-0.4,0.7-1.1,1c-0.8,0.4-1.7,0.5-2.8,0.5s-2-0.2-2.8-0.5c-0.8-0.3-1.2-0.6-1.2-1
					s0.4-0.7,1.2-1c0.1,0,0.2-0.1,0.3-0.2c1.7-0.3,3.3-0.3,4.9,0C87.6,537.4,87.7,537.4,87.9,537.5z"/>
			</g>
			<g>
				
					<linearGradient id="SVGID_39_" gradientUnits="userSpaceOnUse" x1="377.8857" y1="-219.8018" x2="377.8621" y2="-255.2004" gradientTransform="matrix(1 0 0 -1 -292.9805 339.1201)">
					<stop  offset="0" style="stop-color:#2D3641;stop-opacity:0"/>
					<stop  offset="0.3569" style="stop-color:#464F5B"/>
					<stop  offset="0.5647" style="stop-color:#525B67"/>
					<stop  offset="0.6039" style="stop-color:#818A95"/>
					<stop  offset="0.651" style="stop-color:#172230"/>
					<stop  offset="1" style="stop-color:#223246"/>
				</linearGradient>
				<rect x="76.1" y="555" fill="url(#SVGID_39_)" width="17.6" height="23.9"/>
			</g>
		</g>
		<g>
			<g>
				
					<linearGradient id="SVGID_40_" gradientUnits="userSpaceOnUse" x1="454.6309" y1="-227.7803" x2="472.2314" y2="-227.7803" gradientTransform="matrix(1 0 0 -1 -292.9805 339.1201)">
					<stop  offset="0" style="stop-color:#7F0B16"/>
					<stop  offset="6.666666e-002" style="stop-color:#C4021C"/>
					<stop  offset="0.1608" style="stop-color:#C01B21"/>
					<stop  offset="0.2902" style="stop-color:#D6353D"/>
					<stop  offset="0.651" style="stop-color:#DE0005"/>
					<stop  offset="0.7451" style="stop-color:#DE6572"/>
					<stop  offset="0.8235" style="stop-color:#CE2C33"/>
					<stop  offset="0.8863" style="stop-color:#AF041A"/>
					<stop  offset="1" style="stop-color:#970718"/>
				</linearGradient>
				<path fill="url(#SVGID_40_)" d="M178.9,573.4h-17.3v-9.3v-3.7h17.6v3.7v3.9C179.2,569.4,179.1,571.2,178.9,573.4z"/>
			</g>
			<g>
				<path fill="#38030A" d="M164.8,563.3c-0.4-0.1-0.8-0.2-1.1-0.3c-1.8-0.9-2.8-1.8-2.8-2.8v-0.1c0-1.1,0.8-1.9,2.3-2.6
					c5-1.5,9.8-1.5,14.3,0c0,0,0,0.1,0.1,0.1c0.4,0.1,0.7,0.3,0.9,0.5c0.8,0.6,1.3,1.2,1.3,1.8v0.6c-0.2,0.9-1,1.7-2.5,2.4l-1.4,0.5
					c-3.6,0.8-7.2,0.8-10.8,0H165C164.9,563.3,164.8,563.3,164.8,563.3z"/>
			</g>
			<g>
				
					<linearGradient id="SVGID_41_" gradientUnits="userSpaceOnUse" x1="454.5801" y1="-219.8438" x2="472.305" y2="-219.8438" gradientTransform="matrix(1 0 0 -1 -292.9805 339.1201)">
					<stop  offset="0" style="stop-color:#7F0B16"/>
					<stop  offset="6.666666e-002" style="stop-color:#C4021C"/>
					<stop  offset="0.1608" style="stop-color:#C01B21"/>
					<stop  offset="0.2902" style="stop-color:#D6353D"/>
					<stop  offset="0.651" style="stop-color:#DE0005"/>
					<stop  offset="0.7451" style="stop-color:#DE6572"/>
					<stop  offset="0.8235" style="stop-color:#CE2C33"/>
					<stop  offset="0.8863" style="stop-color:#AF041A"/>
					<stop  offset="1" style="stop-color:#970718"/>
				</linearGradient>
				<path fill="url(#SVGID_41_)" d="M178.5,555.5c0.3-0.2,0.5-0.5,0.6-0.7h0.2v4.9c0,0.9-0.8,1.8-2.3,2.4c-0.1,0-0.4,0.1-1,0.4
					c-3.5,0.9-7,1-10.6,0.1l0,0c-0.4-0.2-0.9-0.3-1.3-0.4c-1.5-0.6-2.3-1.4-2.5-2.3v-5.2h0.3c0.1,0.2,0.4,0.5,0.7,0.8
					c0.4,0.5,1,1,1.6,1.5c0.4,0.3,0.7,0.5,1.1,0.5h0.1h0.1c3.4,1.2,6.8,1.2,10.1,0l1.4-0.8c0.2-0.1,0.4-0.2,0.6-0.3
					c0.2-0.2,0.4-0.4,0.6-0.6C178.2,555.8,178.3,555.6,178.5,555.5z"/>
			</g>
			<g>
				<path fill="#990917" d="M179.3,555.1c0,0.9-0.9,1.7-2.6,2.3c-1.7,0.7-3.8,1-6.3,1s-4.6-0.4-6.4-1c-1.7-0.6-2.6-1.4-2.6-2.3
					c0-0.9,0.9-1.7,2.6-2.3c1.8-0.6,3.9-0.9,6.4-0.9c2.4,0,4.5,0.3,6.3,0.9C178.4,553.4,179.3,554.2,179.3,555.1z"/>
			</g>
			<g>
				
					<linearGradient id="SVGID_42_" gradientUnits="userSpaceOnUse" x1="484.04" y1="-215.1299" x2="485.5652" y2="-215.1299" gradientTransform="matrix(1 0 2.365592e-002 -1 -306.0031 339.1201)">
					<stop  offset="0" style="stop-color:#0A0A0A"/>
					<stop  offset="0.4902" style="stop-color:#575757"/>
					<stop  offset="1" style="stop-color:#000000"/>
				</linearGradient>
				<polygon fill="url(#SVGID_42_)" points="174.1,554.2 174.2,554.2 174.1,554.3 				"/>
			</g>
			<g>
				<g>
					<path fill="#EA2F42" d="M167.9,537.8c-0.1,0-0.3,0-0.4,0c-0.7,0.3-1.1,0.7-1.1,1.1c0,0.4,0.4,0.7,1.1,0.9
						c0.8,0.3,1.7,0.5,2.8,0.5c1.1,0,2-0.2,2.8-0.5c0.8-0.3,1.2-0.6,1.2-0.9c0-0.4-0.4-0.8-1.2-1.1c-0.1,0-0.3,0-0.3,0
						C171.1,537.4,169.5,537.4,167.9,537.8z M176.5,539.5L176.5,539.5c0,0.2,0,0.3,0,0.3c-0.2,0.5-0.8,0.9-1.7,1.3
						c-2.9,0.9-6,0.9-9,0c-1-0.5-1.6-1-1.7-1.5v-0.1l0,0c0-0.4,0.2-0.7,0.6-1.1c0.2-0.2,0.4-0.3,0.8-0.5c0.1,0,0.3-0.1,0.6-0.3
						c2.7-1,5.5-1,8.3,0c0.3,0.1,0.5,0.2,0.5,0.2C175.8,538.2,176.4,538.7,176.5,539.5z"/>
					<path fill="#640610" d="M167.9,537.8c1.6-0.4,3.2-0.4,4.8,0c0.1,0,0.2,0,0.3,0c0.8,0.3,1.2,0.7,1.2,1.1c0,0.4-0.4,0.7-1.2,0.9
						c-0.8,0.3-1.7,0.5-2.8,0.5c-1.1,0-2-0.2-2.8-0.5c-0.7-0.3-1.1-0.6-1.1-0.9c0-0.4,0.4-0.8,1.1-1.1
						C167.6,537.8,167.8,537.8,167.9,537.8z"/>
					
						<linearGradient id="SVGID_43_" gradientUnits="userSpaceOnUse" x1="455.9307" y1="-209.0952" x2="470.7556" y2="-209.0952" gradientTransform="matrix(1 0 0 -1 -292.9805 339.1201)">
						<stop  offset="0" style="stop-color:#8E010E"/>
						<stop  offset="0.4941" style="stop-color:#CB4807"/>
						<stop  offset="1" style="stop-color:#870310"/>
					</linearGradient>
					<path fill="url(#SVGID_43_)" d="M176.5,539.5l1.3,15.2c-0.4,1.7-3.2,2.5-8.2,2.3c-1.1,0-2.2-0.2-3.3-0.5
						c-2.1-0.6-3.3-1.2-3.4-1.8l1.1-15.3v0.1c0.1,0.6,0.7,1.1,1.7,1.5c3.1,0.9,6.1,0.9,9,0c0.9-0.4,1.5-0.8,1.7-1.3
						C176.5,539.7,176.5,539.6,176.5,539.5L176.5,539.5z"/>
				</g>
			</g>
			<g>
				
					<linearGradient id="SVGID_44_" gradientUnits="userSpaceOnUse" x1="463.3857" y1="-219.8008" x2="463.3621" y2="-255.2007" gradientTransform="matrix(1 0 0 -1 -292.9805 339.1201)">
					<stop  offset="0" style="stop-color:#2D3641;stop-opacity:0"/>
					<stop  offset="0.3569" style="stop-color:#464F5B"/>
					<stop  offset="0.5647" style="stop-color:#525B67"/>
					<stop  offset="0.6039" style="stop-color:#818A95"/>
					<stop  offset="0.651" style="stop-color:#172230"/>
					<stop  offset="1" style="stop-color:#223246"/>
				</linearGradient>
				<rect x="161.6" y="555" fill="url(#SVGID_44_)" width="17.6" height="23.9"/>
			</g>
		</g>
		<g>
			
				<linearGradient id="SVGID_45_" gradientUnits="userSpaceOnUse" x1="-9.1074" y1="75.8145" x2="71.8975" y2="75.8145" gradientTransform="matrix(0.6895 -0.7243 -0.6156 -0.8037 186.0976 558.0806)">
				<stop  offset="0" style="stop-color:#ACB693"/>
				<stop  offset="1" style="stop-color:#727953"/>
			</linearGradient>
			<polygon fill="url(#SVGID_45_)" points="195.1,518.5 195,518.7 82.9,518.7 82.9,476.6 195.1,476.5 			"/>
		</g>
		<g>
			<polygon fill="#161711" fill-opacity="0.502" points="195,514.8 195,518.7 82.8,518.7 82.8,476.8 85.5,476.8 85.5,514.8 			"/>
		</g>
		<g>
			<path fill="#4D5662" d="M142.2,589.9v1.5H136v4.4h5.9v1.5H136v5h6.5v1.5h-8.4v-13.9H142.2z M145.1,590.1c0.5-0.1,1.1-0.2,1.8-0.3
				c0.6,0,1.3,0,1.9,0c1,0,1.9,0.1,2.6,0.3c0.7,0.2,1.3,0.5,1.8,0.9c0.4,0.3,0.7,0.7,0.9,1.1c0.2,0.4,0.3,0.9,0.3,1.5
				c0,0.6-0.2,1.1-0.4,1.6s-0.6,0.9-1,1.2c-0.4,0.3-0.9,0.6-1.5,0.8l0,0c0.6,0.2,1.1,0.5,1.4,1c0.4,0.5,0.6,1.1,0.8,1.8
				c0.2,1,0.4,1.8,0.6,2.5c0.2,0.7,0.4,1.1,0.5,1.4h-2c-0.1-0.2-0.2-0.6-0.4-1.1c-0.2-0.6-0.4-1.3-0.6-2.2c-0.2-0.9-0.5-1.6-1-2
				c-0.5-0.4-1.1-0.6-2-0.7H147v6h-1.9V590.1z M147.8,591.3c-0.3,0-0.6,0.1-0.7,0.1v5.1h2c1.1,0,1.9-0.3,2.5-0.8s0.9-1.1,0.9-1.9
				c0-0.9-0.3-1.6-0.9-2s-1.5-0.6-2.5-0.6C148.5,591.2,148.1,591.2,147.8,591.3z M121.4,591.5V590h11.1v1.5h-4.6v12.4h-2v-12.4
				H121.4z M119.9,591.4h-6.1v4.4h5.8v1.5h-5.8v5h6.5v1.5h-8.5v-13.9h8.1V591.4z M96,591.7L96,591.7c-0.1,0.6-0.1,1.2-0.1,1.9
				c0,0.7-0.1,1.4-0.2,2.1c0,0.7-0.1,1.5-0.1,2.1l-0.4,6h-1.8l1-13.9H97l2.6,6.8c0.3,0.8,0.6,1.6,0.9,2.4c0.2,0.8,0.5,1.5,0.6,2.3
				h0.1c0.2-0.7,0.4-1.4,0.7-2.2c0.3-0.8,0.6-1.6,0.9-2.5l2.6-6.8h2.5l0.9,13.9h-1.9l-0.4-6.1c0-0.6-0.1-1.3-0.1-2s-0.1-1.4-0.1-2.1
				c0-0.7,0-1.3,0-1.9h-0.1c-0.2,0.8-0.5,1.6-0.9,2.5c-0.3,0.9-0.6,1.8-1.1,2.8l-2.6,6.8h-1.4l-2.5-6.7c-0.3-1-0.6-1.9-1-2.8
				C96.5,593.4,96.3,592.5,96,591.7z M66.3,589.9h2.4l5.1,13.9h-2l-1.6-4.4h-5.4l-1.5,4.4h-2L66.3,589.9z M67.5,591.5L67.5,591.5
				c-0.2,0.4-0.3,0.8-0.4,1.3s-0.3,0.8-0.4,1.3l-1.4,4h4.5l-1.5-4c-0.2-0.5-0.3-0.9-0.4-1.3C67.7,592.3,67.5,591.9,67.5,591.5z
				 M78,591.7c0,0.6,0,1.2,0,1.9c0,0.7-0.1,1.4-0.1,2.1s-0.1,1.5-0.1,2.1l-0.4,6h-1.9l1-13.9H79l2.6,6.8c0.3,0.8,0.6,1.6,0.9,2.4
				c0.2,0.8,0.4,1.5,0.6,2.3l0,0c0.2-0.7,0.4-1.4,0.7-2.2c0.3-0.8,0.6-1.6,0.9-2.5l2.6-6.8h2.5l1,13.9H89l-0.4-6.1
				c0-0.6-0.1-1.3-0.1-2s-0.1-1.4-0.1-2.1c0-0.7,0-1.3,0-1.9h-0.1c-0.2,0.8-0.5,1.6-0.9,2.5c-0.3,0.9-0.6,1.8-1,2.8l-2.6,6.8h-1.5
				l-2.5-6.7c-0.3-1-0.6-1.9-0.9-2.8C78.5,593.4,78.3,592.5,78,591.7L78,591.7z"/>
		</g>
		<g>
			<path d="M142,589v1.5h-6.2v4.4h5.9v1.5h-5.9v5h6.5v1.5h-8.4v-14L142,589L142,589z M146.6,589c0.6,0,1.3,0,1.9,0
				c1,0,1.9,0.1,2.6,0.3c0.7,0.2,1.3,0.5,1.8,0.9c0.4,0.3,0.7,0.7,0.9,1.2c0.2,0.4,0.3,0.9,0.3,1.5c0,0.6-0.2,1.1-0.4,1.6
				c-0.2,0.5-0.6,0.9-1,1.2c-0.4,0.3-0.9,0.6-1.5,0.8l0,0c0.6,0.2,1.1,0.5,1.4,1c0.4,0.5,0.6,1.1,0.8,1.8c0.2,1,0.4,1.8,0.6,2.5
				s0.4,1.1,0.5,1.4h-2c-0.1-0.2-0.2-0.6-0.4-1.2c-0.2-0.6-0.4-1.3-0.6-2.2c-0.2-0.9-0.5-1.6-1-2c-0.5-0.4-1.1-0.6-2-0.6h-1.8v6
				h-1.9v-13.8C145.4,589.1,145.9,589,146.6,589z M151.2,590.9c-0.6-0.4-1.5-0.6-2.5-0.6c-0.5,0-0.9,0-1.2,0s-0.6,0.1-0.7,0.1v5.1h2
				c1.1,0,1.9-0.3,2.5-0.8c0.6-0.5,0.9-1.1,0.9-1.9C152.1,592,151.8,591.3,151.2,590.9z M121.1,590.5V589h11.1v1.5h-4.6V603h-2
				v-12.4L121.1,590.5L121.1,590.5z M119.6,589v1.5h-6.1v4.4h5.8v1.5h-5.8v5h6.5v1.5h-8.5v-14L119.6,589L119.6,589z M94.3,589h2.5
				l2.6,6.8c0.3,0.8,0.6,1.7,0.9,2.5c0.2,0.8,0.5,1.5,0.6,2.3h0.1c0.2-0.7,0.4-1.4,0.7-2.2c0.3-0.8,0.6-1.6,0.9-2.5l2.6-6.8h2.5
				l0.9,14h-1.9l-0.4-6.2c0-0.6-0.1-1.3-0.1-2c0-0.7-0.1-1.4-0.1-2.1s0-1.3,0-1.9H106c-0.2,0.8-0.5,1.7-0.9,2.5
				c-0.3,0.9-0.6,1.8-1.1,2.8l-2.6,6.8H100l-2.5-6.6c-0.3-1-0.6-1.9-1-2.8c-0.3-0.9-0.5-1.8-0.8-2.6l0,0c0,0.6,0,1.2,0,1.9
				c0,0.7-0.1,1.4-0.2,2.1c0,0.7-0.1,1.5-0.1,2.2l-0.4,6h-1.8L94.3,589z M77.9,590.8L77.9,590.8c-0.1,0.6-0.1,1.2-0.1,1.9
				s-0.1,1.4-0.1,2.1s-0.1,1.5-0.1,2.2l-0.4,6h-1.9l1-14h2.5l2.6,6.8c0.3,0.8,0.6,1.7,0.9,2.5c0.2,0.8,0.4,1.5,0.6,2.3l0,0
				c0.2-0.7,0.4-1.4,0.7-2.2c0.3-0.8,0.6-1.6,0.9-2.5l2.6-6.8h2.5l1,14h-1.9l-0.4-6.2c0-0.6-0.1-1.3-0.1-2c0-0.7-0.1-1.4-0.1-2.1
				s0-1.3,0-1.9H88c-0.2,0.8-0.5,1.7-0.9,2.5c-0.3,0.9-0.6,1.8-1,2.8l-2.6,6.8H82l-2.5-6.6c-0.3-1-0.6-1.9-0.9-2.8
				C78.3,592.5,78,591.6,77.9,590.8z M66,589h2.4l5.1,14h-2l-1.6-4.4h-5.4L63,603h-2L66,589z M67.1,590.6c-0.1,0.4-0.2,0.8-0.4,1.3
				c-0.1,0.4-0.3,0.9-0.4,1.3l-1.4,4.1h4.5l-1.5-4c-0.2-0.5-0.3-0.9-0.4-1.3C67.4,591.4,67.3,591,67.1,590.6L67.1,590.6z"/>
		</g>
	</g>
</g>
</svg>