<?xml version="1.0" encoding="utf-8"?>
<!-- Generator: Adobe Illustrator 16.0.0, SVG Export Plug-In . SVG Version: 6.00 Build 0)  -->
<!DOCTYPE svg PUBLIC "-//W3C//DTD SVG 1.1//EN" "http://www.w3.org/Graphics/SVG/1.1/DTD/svg11.dtd">
<svg version="1.1" id="Layer_1" xmlns="http://www.w3.org/2000/svg" xmlns:xlink="http://www.w3.org/1999/xlink" x="0px" y="0px"
	 width="700px" height="700px" viewBox="0 0 700 700" enable-background="new 0 0 700 700" xml:space="preserve">



<g id="Layer_54">
	<g>
		<g>
			<g>
				
					<linearGradient id="SVGID_15_" gradientUnits="userSpaceOnUse" x1="649.9805" y1="-135.3428" x2="649.9805" y2="-52.1188" gradientTransform="matrix(1 0 0 -1 -292.9805 339.1201)">
					<stop  offset="0" style="stop-color:#374451"/>
					<stop  offset="0.6627" style="stop-color:#2A3541"/>
					<stop  offset="0.8902" style="stop-color:#212C39"/>
					<stop  offset="0.9098" style="stop-color:#495460"/>
					<stop  offset="0.9294" style="stop-color:#313D49"/>
					<stop  offset="1" style="stop-color:#212C39"/>
				</linearGradient>
				<path fill="url(#SVGID_15_)" d="M429,467H285l11.8-67.3l3.3-7.8h0.1h113.2l4.5,8.1L429,467z M305.4,406.8l-6.6,51.9h116.8
					l-7.6-51.9H305.4z"/>
				<polygon fill="#09080D" points="285,467 429,467 429.4,469.3 429.2,469.3 284.6,469.3 284.7,469 				"/>
				
					<linearGradient id="SVGID_16_" gradientUnits="userSpaceOnUse" x1="649.2061" y1="-144.4146" x2="649.1837" y2="-174.9396" gradientTransform="matrix(1 0 0 -1 -292.9805 339.1201)">
					<stop  offset="0" style="stop-color:#2D3641"/>
					<stop  offset="0.5647" style="stop-color:#525B67"/>
					<stop  offset="0.6039" style="stop-color:#818A95"/>
					<stop  offset="0.651" style="stop-color:#172230"/>
					<stop  offset="1" style="stop-color:#223246"/>
				</linearGradient>
				<polygon fill="url(#SVGID_16_)" points="284.6,469.3 429.2,469.3 429.4,469.3 437.3,502.2 437.3,529 275.1,529 275.1,504.3 
					284,471.9 				"/>
			</g>
			<g>
				
					<linearGradient id="SVGID_17_" gradientUnits="userSpaceOnUse" x1="1011.4658" y1="933.6426" x2="1062.407" y2="933.6426" gradientTransform="matrix(-0.2949 0.9555 0.9765 0.227 -245.8969 -767.7513)">
					<stop  offset="0" style="stop-color:#A2A2A2"/>
					<stop  offset="1" style="stop-color:#FFFFFF"/>
				</linearGradient>
				<polygon fill="url(#SVGID_17_)" points="301.1,405.3 412,405.3 420.3,460.2 294,460.2 				"/>
			</g>
		</g>
		<g>
			
				<linearGradient id="SVGID_18_" gradientUnits="userSpaceOnUse" x1="170.6177" y1="-55.957" x2="243.2276" y2="-55.957" gradientTransform="matrix(0.7354 -0.6776 -0.6575 -0.754 188.4402 509.6338)">
				<stop  offset="0" style="stop-color:#ACB693"/>
				<stop  offset="1" style="stop-color:#727953"/>
			</linearGradient>
			<polygon fill="url(#SVGID_18_)" points="302.6,448.8 302.6,413.5 409.8,413.5 409.8,448.8 			"/>
		</g>
		<g>
			<polygon fill="#161711" fill-opacity="0.502" points="305.4,413.5 305.4,445.3 409.9,445.3 409.9,448.8 302.6,448.8 302.6,413.5 
							"/>
		</g>
		<g>
			<g>
				
					<linearGradient id="SVGID_19_" gradientUnits="userSpaceOnUse" x1="606.9805" y1="-151.0801" x2="621.9805" y2="-151.0801" gradientTransform="matrix(1 0 0 -1 -292.9805 339.1201)">
					<stop  offset="0" style="stop-color:#000000"/>
					<stop  offset="6.666666e-002" style="stop-color:#060606"/>
					<stop  offset="0.1608" style="stop-color:#444444"/>
					<stop  offset="0.2902" style="stop-color:#1A1A1A"/>
					<stop  offset="0.651" style="stop-color:#3C3C3C"/>
					<stop  offset="0.7451" style="stop-color:#2D2D2D"/>
					<stop  offset="0.8235" style="stop-color:#515151"/>
					<stop  offset="0.8863" style="stop-color:#1C1C1C"/>
					<stop  offset="1" style="stop-color:#000000"/>
				</linearGradient>
				<rect x="314" y="484.7" fill="url(#SVGID_19_)" width="14.6" height="11"/>
			</g>
			<g>
				
					<linearGradient id="SVGID_20_" gradientUnits="userSpaceOnUse" x1="614.335" y1="-144.5474" x2="614.3126" y2="-175.0709" gradientTransform="matrix(1 0 0 -1 -292.9805 339.1201)">
					<stop  offset="0" style="stop-color:#2D3641;stop-opacity:0"/>
					<stop  offset="0.2627" style="stop-color:#39424D"/>
					<stop  offset="0.5647" style="stop-color:#525B67"/>
					<stop  offset="0.6039" style="stop-color:#818A95"/>
					<stop  offset="0.651" style="stop-color:#172230"/>
					<stop  offset="1" style="stop-color:#223246"/>
				</linearGradient>
				<rect x="314" y="480.2" fill="url(#SVGID_20_)" width="14.7" height="19.9"/>
			</g>
			<g>
				<path d="M313.4,484.3c0-0.8,0.7-1.6,2-2.2c4.2-1.2,8.3-1.2,12.2,0l0.1,0.1c0.3,0.1,0.6,0.2,0.8,0.4c0.6,0.5,1,1,1,1.5v0.5
					c-0.1,0.8-0.8,1.5-2.1,2l-1.2,0.4c-3,0.7-6.1,0.7-9.3,0h-0.1h-0.1c-0.3-0.1-0.6-0.2-1-0.3C314.2,486,313.4,485.3,313.4,484.3
					L313.4,484.3z"/>
			</g>
			<g>
				
					<linearGradient id="SVGID_21_" gradientUnits="userSpaceOnUse" x1="606.9307" y1="-144.2861" x2="622.0557" y2="-144.2861" gradientTransform="matrix(1 0 0 -1 -292.9805 339.1201)">
					<stop  offset="0" style="stop-color:#666666"/>
					<stop  offset="0.3412" style="stop-color:#1A1A1A"/>
					<stop  offset="0.5098" style="stop-color:#3C3C3C"/>
					<stop  offset="0.6706" style="stop-color:#2D2D2D"/>
					<stop  offset="0.8392" style="stop-color:#706B6B"/>
					<stop  offset="1" style="stop-color:#635E5E"/>
				</linearGradient>
				<path fill="url(#SVGID_21_)" d="M314,479.8h0.2c0.1,0.2,0.3,0.4,0.6,0.7c0.4,0.4,0.8,0.8,1.4,1.2c0.3,0.2,0.6,0.4,0.9,0.5h0.1
					h0.1c2.9,1,5.8,1,8.6,0l1.2-0.6c0.2-0.1,0.3-0.2,0.5-0.3c0.2-0.2,0.4-0.4,0.5-0.5c0.1-0.2,0.2-0.3,0.3-0.3
					c0.2-0.2,0.4-0.4,0.6-0.7h0.1v4.2c0,0.8-0.7,1.5-2,2c-0.1,0-0.3,0.1-0.8,0.4c-3,0.8-6,0.8-9,0.1h-0.1c-0.3-0.1-0.6-0.3-1-0.3
					c-1.3-0.6-2.1-1.2-2.2-1.9V479.8L314,479.8z"/>
			</g>
			<g>
				<path d="M313.9,480.1c0-0.8,0.8-1.4,2.3-1.9c1.5-0.6,3.3-0.9,5.4-0.9c2.1,0,3.9,0.3,5.4,0.9c1.5,0.5,2.2,1.2,2.2,1.9
					c0,0.8-0.7,1.5-2.2,2c-1.5,0.6-3.3,0.9-5.4,0.9c-2.1,0-3.9-0.3-5.4-0.9C314.6,481.6,313.9,480.9,313.9,480.1z"/>
			</g>
			<g>
				<path d="M318.1,481.3c-1.9-0.5-2.9-1-3-1.5l1-13h10.5l1.1,13.1c-0.3,0.5-1.5,1-3.6,1.5C321.9,481.8,319.9,481.8,318.1,481.3z"/>
			</g>
			<g>
				<path fill="#1F1F1F" d="M321.5,481.5c-0.2,0-0.3,0-0.5,0c-0.3-0.1-0.6-0.1-0.9-0.1l0.2-12.8h2.4v12.8c-0.2,0-0.3,0-0.5,0.1
					C322,481.5,321.7,481.5,321.5,481.5z"/>
			</g>
			<g>
				<g>
					
						<linearGradient id="SVGID_22_" gradientUnits="userSpaceOnUse" x1="239.1646" y1="1222.1875" x2="243.7529" y2="1222.1875" gradientTransform="matrix(-0.9973 -7.400639e-002 -7.400639e-002 0.9973 649.5421 -726.9802)">
						<stop  offset="0" style="stop-color:#1F1F1F"/>
						<stop  offset="0.6078" style="stop-color:#666464"/>
						<stop  offset="1" style="stop-color:#000000"/>
					</linearGradient>
					<path fill="url(#SVGID_22_)" d="M318.6,468.4c1.1,0.1,1.7,0.1,2,0.1l0.4,12.9c-1.9-0.1-3.5-0.4-4.9-1c-0.3-0.1-0.6-0.3-0.8-0.4
						l0.4-4v-0.5l0.3-8.8C316.8,467.8,317.6,468.3,318.6,468.4z"/>
					
						<linearGradient id="SVGID_23_" gradientUnits="userSpaceOnUse" x1="615.4805" y1="-135.2231" x2="620.0562" y2="-134.8824" gradientTransform="matrix(1 0 0 -1 -292.9805 339.1201)">
						<stop  offset="0" style="stop-color:#1F1F1F"/>
						<stop  offset="0.651" style="stop-color:#7B6D6D"/>
						<stop  offset="1" style="stop-color:#000000"/>
					</linearGradient>
					<path fill="url(#SVGID_23_)" d="M322.1,481.5l0.3-13c0.6-0.1,1.1-0.2,1.8-0.2c1.2,0,2-0.5,2.5-1.4l0.7,8.6v0.5l0.4,4
						c-0.3,0.1-0.6,0.2-0.9,0.4C325.6,481,324,481.4,322.1,481.5z"/>
				</g>
			</g>
			<g>
				<path fill="#333333" d="M316.1,466.7c0-0.3,0.1-0.6,0.4-0.9c0.1-0.2,0.3-0.3,0.6-0.4c0.1,0,0.3-0.1,0.5-0.2
					c2.4-0.9,4.8-0.9,7.1,0l0.5,0.2c0.9,0.3,1.4,0.8,1.4,1.4c0,0.5-0.5,0.9-1.4,1.3c-2.5,0.8-5.1,0.8-7.8,0
					C316.6,467.8,316.1,467.3,316.1,466.7z"/>
			</g>
			<g>
				<path d="M321.4,467.5c-0.9,0-1.7-0.1-2.4-0.5c-0.6-0.2-0.9-0.5-0.9-0.8s0.3-0.6,0.9-0.8c0.1,0,0.2-0.1,0.3-0.2
					c1.4-0.2,2.7-0.2,4,0c0.1,0.1,0.3,0.1,0.4,0.2c0.6,0.2,1,0.5,1,0.8s-0.3,0.6-1,0.8C323.1,467.4,322.3,467.5,321.4,467.5z"/>
			</g>
		</g>
		<g>
			<g>
				
					<linearGradient id="SVGID_24_" gradientUnits="userSpaceOnUse" x1="695.6943" y1="-144.5552" x2="695.6719" y2="-175.0803" gradientTransform="matrix(1 0 0 -1 -292.9805 339.1201)">
					<stop  offset="0" style="stop-color:#2D3641"/>
					<stop  offset="0.5647" style="stop-color:#525B67"/>
					<stop  offset="0.6039" style="stop-color:#818A95"/>
					<stop  offset="0.651" style="stop-color:#172230"/>
					<stop  offset="1" style="stop-color:#223246"/>
				</linearGradient>
				<polygon fill="url(#SVGID_24_)" points="402.7,502.5 402.7,502.8 402.7,502.8 				"/>
				<g>
					
						<linearGradient id="SVGID_25_" gradientUnits="userSpaceOnUse" x1="679.0303" y1="-151.0796" x2="693.7051" y2="-151.0796" gradientTransform="matrix(1 0 0 -1 -292.9805 339.1201)">
						<stop  offset="0" style="stop-color:#7F0B16"/>
						<stop  offset="6.666666e-002" style="stop-color:#C4021C"/>
						<stop  offset="0.1608" style="stop-color:#C01B21"/>
						<stop  offset="0.2902" style="stop-color:#D6353D"/>
						<stop  offset="0.651" style="stop-color:#DE0005"/>
						<stop  offset="0.7451" style="stop-color:#DE6572"/>
						<stop  offset="0.8235" style="stop-color:#CE2C33"/>
						<stop  offset="0.8863" style="stop-color:#AF041A"/>
						<stop  offset="1" style="stop-color:#970718"/>
					</linearGradient>
					<path fill="url(#SVGID_25_)" d="M400.7,487.8v3.3c0,1.1-0.1,2.6-0.3,4.5H386v-7.7v-3.1h14.6v3H400.7L400.7,487.8z"/>
				</g>
				<g>
					<path fill="#38030A" d="M399.3,482.3c0.3,0.1,0.6,0.2,0.8,0.4c0.7,0.5,1.1,1,1.1,1.5v0.5c-0.2,0.8-0.9,1.4-2.1,2l-1.2,0.4
						c-3,0.7-6,0.7-9.1,0h-0.1h-0.1c-0.3-0.1-0.6-0.2-1-0.3c-1.5-0.7-2.3-1.5-2.3-2.3c0-0.9,0.6-1.6,1.9-2.2
						C391.5,481,395.5,481,399.3,482.3C399.3,482.2,399.3,482.3,399.3,482.3z"/>
				</g>
				<g>
					
						<linearGradient id="SVGID_26_" gradientUnits="userSpaceOnUse" x1="678.9805" y1="-144.1865" x2="693.7554" y2="-144.1865" gradientTransform="matrix(1 0 0 -1 -292.9805 339.1201)">
						<stop  offset="0" style="stop-color:#7F0B16"/>
						<stop  offset="6.666666e-002" style="stop-color:#C4021C"/>
						<stop  offset="0.1608" style="stop-color:#C01B21"/>
						<stop  offset="0.2902" style="stop-color:#D6353D"/>
						<stop  offset="0.651" style="stop-color:#DE0005"/>
						<stop  offset="0.7451" style="stop-color:#DE6572"/>
						<stop  offset="0.8235" style="stop-color:#CE2C33"/>
						<stop  offset="0.8863" style="stop-color:#AF041A"/>
						<stop  offset="1" style="stop-color:#970718"/>
					</linearGradient>
					<path fill="url(#SVGID_26_)" d="M398.8,481.7c0.2-0.1,0.4-0.2,0.5-0.3c0.2-0.2,0.3-0.3,0.5-0.5c0.1-0.1,0.2-0.3,0.3-0.4
						c0.2-0.2,0.4-0.4,0.5-0.6h0.2v4c0,0.8-0.7,1.5-2,2c-0.1,0-0.3,0.1-0.8,0.3c-2.9,0.8-5.8,0.8-8.8,0.1h-0.1
						c-0.3-0.1-0.7-0.2-1-0.3c-1.3-0.5-2-1.2-2.1-1.9v-4.3h0.2c0.1,0.2,0.3,0.4,0.6,0.6c0.4,0.4,0.8,0.8,1.3,1.2
						c0.3,0.2,0.6,0.4,0.9,0.5h0.1h0.1c2.8,1,5.6,1,8.5,0L398.8,481.7z"/>
				</g>
				<g>
					<path fill="#990917" d="M398.6,478.3c1.4,0.5,2.2,1.2,2.2,2s-0.7,1.5-2.2,2c-1.5,0.6-3.2,0.8-5.2,0.8c-2.1,0-3.8-0.3-5.3-0.8
						s-2.2-1.2-2.2-2s0.7-1.4,2.2-2c1.5-0.5,3.2-0.8,5.3-0.8C395.4,477.5,397.1,477.8,398.6,478.3z"/>
				</g>
				<g>
					
						<linearGradient id="SVGID_27_" gradientUnits="userSpaceOnUse" x1="705.5068" y1="-140.3799" x2="705.5068" y2="-140.3799" gradientTransform="matrix(1 0 2.319588e-002 -1 -305.7501 339.1201)">
						<stop  offset="0" style="stop-color:#0A0A0A"/>
						<stop  offset="0.4902" style="stop-color:#575757"/>
						<stop  offset="1" style="stop-color:#000000"/>
					</linearGradient>
					<path fill="url(#SVGID_27_)" d="M396.5,479.5L396.5,479.5L396.5,479.5z"/>
				</g>
				<g>
					<g>
						<path fill="#EA2F42" d="M398.4,467.2L398.4,467.2c0,0.2,0,0.2,0,0.3c-0.2,0.4-0.7,0.8-1.5,1.1c-2.4,0.8-5,0.8-7.5,0
							c-0.8-0.4-1.3-0.8-1.4-1.3v-0.1v-0.1c0-0.3,0.2-0.6,0.5-0.8c0.1-0.1,0.3-0.3,0.6-0.4c0.1,0,0.3-0.1,0.5-0.3
							c2.3-0.8,4.6-0.8,7,0c0.2,0.1,0.4,0.2,0.4,0.2C397.8,466.1,398.3,466.5,398.4,467.2z M390,466.7c0,0.3,0.3,0.6,0.9,0.8
							c0.7,0.3,1.4,0.4,2.3,0.4c0.9,0,1.7-0.1,2.3-0.4c0.6-0.2,1-0.5,1-0.8s-0.3-0.6-1-0.9c-0.1,0-0.2,0-0.3,0c-1.4-0.3-2.7-0.3-4,0
							c-0.1,0-0.2,0-0.3,0C390.3,466.1,390,466.4,390,466.7z"/>
						
							<linearGradient id="SVGID_28_" gradientUnits="userSpaceOnUse" x1="680.1055" y1="-135.4346" x2="692.4554" y2="-135.4346" gradientTransform="matrix(1 0 0 -1 -292.9805 339.1201)">
							<stop  offset="0" style="stop-color:#8E010E"/>
							<stop  offset="0.4941" style="stop-color:#CB4807"/>
							<stop  offset="1" style="stop-color:#870310"/>
						</linearGradient>
						<path fill="url(#SVGID_28_)" d="M398.4,467.2l1.1,12.7c-0.4,1.4-2.7,2.1-6.8,2c-0.9,0-1.8-0.2-2.7-0.4c-1.8-0.5-2.7-1-2.9-1.5
							l1-12.8v0.1c0.1,0.5,0.5,0.9,1.4,1.3c2.6,0.8,5.1,0.8,7.5,0c0.8-0.3,1.3-0.7,1.5-1.1C398.4,467.4,398.4,467.3,398.4,467.2
							L398.4,467.2z"/>
						<path fill="#640610" d="M390,466.7c0-0.3,0.3-0.6,0.9-0.9c0.1,0,0.3,0,0.3,0c1.3-0.3,2.6-0.3,4,0c0.1,0,0.2,0,0.3,0
							c0.6,0.2,1,0.5,1,0.9c0,0.3-0.3,0.6-1,0.8c-0.6,0.3-1.4,0.4-2.3,0.4c-0.9,0-1.6-0.1-2.3-0.4C390.3,467.3,390,467,390,466.7z"
							/>
					</g>
				</g>
			</g>
			<g>
				
					<linearGradient id="SVGID_29_" gradientUnits="userSpaceOnUse" x1="686.335" y1="-144.5483" x2="686.3126" y2="-175.0734" gradientTransform="matrix(1 0 0 -1 -292.9805 339.1201)">
					<stop  offset="0" style="stop-color:#2D3641;stop-opacity:0"/>
					<stop  offset="0.2627" style="stop-color:#39424D"/>
					<stop  offset="0.5647" style="stop-color:#525B67"/>
					<stop  offset="0.6039" style="stop-color:#818A95"/>
					<stop  offset="0.651" style="stop-color:#172230"/>
					<stop  offset="1" style="stop-color:#223246"/>
				</linearGradient>
				<rect x="386" y="480.2" fill="url(#SVGID_29_)" width="14.7" height="19.9"/>
			</g>
		</g>
		<g>
			<g>
				<path fill="#4D5662" d="M334,511.2h1.6v10.9h5.5v1.4H334V511.2z M349.3,512.5h-3.9v10.9h-1.7v-10.9h-3.9v-1.3h9.5V512.5z
					 M351.2,511.2h2.1l2.2,5.9c0.3,0.8,0.5,1.5,0.7,2.2s0.4,1.4,0.5,2h0.1c0.1-0.6,0.3-1.3,0.6-2c0.2-0.7,0.5-1.4,0.8-2.2l2.3-5.9
					h2.1l0.8,12.3h-1.6l-0.3-5.4c0-0.6-0.1-1.2-0.1-1.8c0-0.6,0-1.2,0-1.8s0-1.2,0-1.7h-0.1c-0.2,0.7-0.4,1.5-0.7,2.3
					c-0.3,0.8-0.6,1.6-0.9,2.5l-2.3,6H356l-2-5.9c-0.3-0.9-0.6-1.7-0.8-2.5s-0.5-1.6-0.7-2.3l0,0c0,0.5,0,1.1,0,1.7
					c0,0.6,0,1.2-0.1,1.8c0,0.6-0.1,1.3-0.1,1.9l-0.3,5.3h-1.6L351.2,511.2z M374.1,512.5v-1.3h9.5v1.3h-3.9v10.9H378v-10.9H374.1z
					 M372.8,511.2v1.3h-5.3v3.9h5v1.3h-5v4.4h5.5v1.4h-7.2v-12.3H372.8L372.8,511.2z M397.5,512.3c-0.4,0-0.7,0-1,0
					s-0.5,0.1-0.6,0.1v4.5h1.7c0.9,0,1.6-0.3,2.1-0.7c0.5-0.4,0.8-1,0.8-1.7c0-0.8-0.3-1.3-0.8-1.7
					C399.2,512.5,398.5,512.3,397.5,512.3z M401.2,512.1c0.3,0.3,0.6,0.6,0.8,1c0.2,0.4,0.3,0.8,0.3,1.3c0,0.6-0.1,1-0.3,1.4
					c-0.2,0.4-0.5,0.8-0.9,1.1c-0.3,0.3-0.7,0.5-1.2,0.6l0,0c0.5,0.2,0.9,0.5,1.2,0.9c0.3,0.4,0.5,0.9,0.7,1.6
					c0.2,0.8,0.4,1.6,0.5,2.2c0.1,0.6,0.3,1,0.4,1.2H401c-0.1-0.2-0.2-0.5-0.4-1c-0.2-0.5-0.3-1.2-0.5-2c-0.2-0.8-0.5-1.4-0.8-1.8
					c-0.4-0.4-1-0.5-1.7-0.5H396v5.3h-1.7v-12.1c0.4-0.1,0.9-0.1,1.5-0.2c0.6,0,1.1-0.1,1.7-0.1c0.9,0,1.6,0.1,2.2,0.3
					C400.3,511.5,400.8,511.8,401.2,512.1z M391.8,512.5h-5.3v3.9h5v1.3h-5v4.4h5.6v1.4H385v-12.3h6.9v1.3H391.8L391.8,512.5z
					 M322.4,514.8c-0.3,0.8-0.4,1.6-0.4,2.6c0,0.9,0.2,1.7,0.5,2.4s0.8,1.3,1.3,1.8c0.6,0.5,1.3,0.7,2.2,0.7s1.6-0.2,2.3-0.7
					c0.6-0.5,1.1-1.1,1.4-1.9s0.5-1.6,0.5-2.5c0-0.6-0.1-1.2-0.3-1.8c-0.2-0.6-0.4-1.1-0.8-1.6c-0.3-0.5-0.8-0.8-1.3-1.1
					s-1.1-0.4-1.8-0.4c-0.9,0-1.7,0.2-2.3,0.7C323.1,513.5,322.7,514.1,322.4,514.8z M321,514c0.5-1,1.2-1.7,2.1-2.3
					c0.9-0.5,1.9-0.8,3.1-0.8s2.2,0.3,3,0.8c0.9,0.5,1.5,1.2,2,2.2s0.7,2,0.7,3.3c0,1.4-0.3,2.6-0.8,3.5c-0.5,1-1.3,1.7-2.1,2.2
					c-0.9,0.5-1.9,0.8-2.9,0.8c-1.1,0-2.1-0.3-3-0.8c-0.9-0.5-1.5-1.2-2-2.1c-0.5-0.9-0.8-2-0.8-3.3C320.2,516.1,320.5,515,321,514z
					 M312.8,517.3c0.3,0.8,0.5,1.6,0.8,2.3c0.3,0.7,0.4,1.5,0.6,2.2l0,0c0.2-0.7,0.4-1.4,0.6-2.2c0.3-0.8,0.5-1.5,0.8-2.3l2.1-6h1.8
					l-4.6,12.3h-1.8l-4.2-12.3h1.8L312.8,517.3z"/>
			</g>
			<g>
				<path d="M333.8,510.3h1.6v10.9h5.5v1.3h-7.1V510.3z M349,510.3v1.4h-3.9v10.9h-1.7v-10.9h-3.9v-1.4H349z M352.3,511.8
					L352.3,511.8c0,0.5-0.1,1.1-0.1,1.7s0,1.2-0.1,1.9c0,0.6-0.1,1.3-0.1,1.9l-0.3,5.3H350l0.9-12.3h2.1l2.2,5.9
					c0.3,0.8,0.5,1.5,0.7,2.1c0.2,0.7,0.4,1.4,0.5,2h0.1c0.1-0.6,0.3-1.3,0.6-1.9c0.2-0.7,0.5-1.4,0.8-2.2l2.3-5.9h2.1l0.8,12.3
					h-1.6l-0.3-5.4c0-0.6-0.1-1.2-0.1-1.8c0-0.6,0-1.2,0-1.8c0-0.6,0-1.2,0-1.7H361c-0.2,0.7-0.4,1.5-0.7,2.3s-0.6,1.6-0.9,2.5
					l-2.3,6h-1.3l-2-5.8c-0.3-0.9-0.6-1.7-0.8-2.5C352.6,513.3,352.4,512.6,352.3,511.8z M373.8,511.7v-1.4h9.5v1.4h-3.9v10.9h-1.7
					v-10.9H373.8L373.8,511.7z M372.5,510.3v1.3h-5.3v3.9h5v1.3h-5v4.4h5.5v1.3h-7.2v-12.3L372.5,510.3L372.5,510.3z M396.3,511.5
					c-0.3,0-0.5,0.1-0.6,0.1v4.5h1.7c0.9,0,1.6-0.3,2.1-0.6c0.5-0.4,0.8-1,0.8-1.7c0-0.8-0.3-1.3-0.8-1.7c-0.5-0.4-1.3-0.6-2.2-0.6
					C396.9,511.4,396.6,511.4,396.3,511.5z M400.9,511.2c0.3,0.3,0.6,0.6,0.8,1c0.2,0.4,0.3,0.8,0.3,1.3c0,0.6-0.1,1-0.3,1.5
					c-0.2,0.4-0.5,0.8-0.9,1c-0.3,0.3-0.7,0.5-1.2,0.7l0,0c0.5,0.2,0.9,0.5,1.2,0.9c0.3,0.4,0.5,0.9,0.7,1.6
					c0.2,0.8,0.4,1.5,0.5,2.1c0.1,0.6,0.3,1,0.4,1.2h-1.7c-0.1-0.2-0.2-0.5-0.4-1s-0.3-1.2-0.5-2s-0.5-1.4-0.8-1.8
					c-0.4-0.4-1-0.5-1.7-0.5h-1.5v5.3H394v-12.1c0.4-0.1,0.9-0.1,1.5-0.2c0.6,0,1.1,0,1.7,0c0.9,0,1.6,0.1,2.2,0.3
					C400,510.6,400.5,510.9,400.9,511.2z M391.3,516.8h-5v4.4h5.6v1.3h-7.2v-12.3h6.9v1.3h-5.3v3.9h5V516.8z M320,516.5
					c0-1.3,0.3-2.5,0.8-3.4c0.5-1,1.2-1.7,2.1-2.3c0.9-0.5,1.9-0.8,3.1-0.8s2.2,0.3,3,0.8c0.9,0.5,1.5,1.2,2,2.1
					c0.5,0.9,0.7,2,0.7,3.3c0,1.4-0.3,2.6-0.8,3.5c-0.5,1-1.3,1.7-2.1,2.2c-0.9,0.5-1.9,0.8-2.9,0.8c-1.1,0-2.1-0.3-3-0.8
					c-0.9-0.5-1.5-1.2-2-2.2C320.2,518.9,320,517.8,320,516.5z M321.7,516.5c0,0.9,0.2,1.7,0.5,2.5c0.3,0.7,0.8,1.3,1.3,1.8
					c0.6,0.5,1.3,0.7,2.2,0.7c0.9,0,1.6-0.2,2.3-0.7s1.1-1.1,1.4-1.8c0.3-0.8,0.5-1.6,0.5-2.6c0-0.6-0.1-1.2-0.3-1.8
					c-0.2-0.6-0.4-1.1-0.8-1.6c-0.3-0.5-0.8-0.9-1.3-1.2s-1.1-0.4-1.8-0.4c-0.9,0-1.7,0.2-2.3,0.7c-0.6,0.5-1,1.1-1.4,1.9
					C321.9,514.7,321.7,515.6,321.7,516.5z M312.5,516.3c0.3,0.8,0.5,1.6,0.8,2.4s0.4,1.5,0.6,2.2l0,0c0.2-0.7,0.4-1.4,0.6-2.2
					c0.3-0.8,0.5-1.5,0.8-2.4l2.1-6h1.8l-4.6,12.3h-1.8l-4.2-12.3h1.8L312.5,516.3z"/>
			</g>
		</g>
	</g>
</g>
</svg>