<?xml version="1.0" encoding="utf-8"?>
<!-- Generator: Adobe Illustrator 16.0.0, SVG Export Plug-In . SVG Version: 6.00 Build 0)  -->
<!DOCTYPE svg PUBLIC "-//W3C//DTD SVG 1.1//EN" "http://www.w3.org/Graphics/SVG/1.1/DTD/svg11.dtd">
<svg version="1.1" id="Layer_2" xmlns="http://www.w3.org/2000/svg" xmlns:xlink="http://www.w3.org/1999/xlink" x="0px" y="0px"
	 width="700px" height="700px" viewBox="0 0 700 700" enable-background="new 0 0 700 700" xml:space="preserve">
<g>
	<g>
		<path fill-rule="evenodd" clip-rule="evenodd" fill="#7C91B1" d="M596.7,480.3c0.4,3.2-3.1,5.9-10.6,8.1
			c-7.5,2.2-16.6,3.2-27.5,2.9c-10.9-0.2-20.4-1.6-28.5-4.1c-8-2.5-12.3-5.4-12.8-8.6c-0.5-3.3,3-6,10.5-8.2
			c7.5-2.1,16.6-3,27.5-2.7c10.9,0.2,20.5,1.5,28.6,3.9C591.9,474.1,596.2,477,596.7,480.3z"/>
	</g>
	<g>
		<path fill-rule="evenodd" clip-rule="evenodd" fill="#93A4BF" d="M585,488c-7.1,2-15.8,2.8-26.1,2.5c-10.3-0.3-19.3-1.5-27-3.7
			c-7.6-2.2-11.6-4.7-12-7.5c-0.5-2.9,2.8-5.3,9.9-7.2c7.1-1.8,15.8-2.6,26.1-2.3c10.3,0.2,19.3,1.4,26.9,3.5
			c7.7,2.2,11.7,4.8,12.1,7.6C595.4,483.7,592.1,486.1,585,488z"/>
	</g>
	<g>
		<path fill-rule="evenodd" clip-rule="evenodd" fill="#293445" d="M567,476.9l2.8,9.3l-2.5-0.1l-2.8-9.4l-3.7-0.1l-0.5-1.9l9.9,0.3
			l0.6,1.9L567,476.9z M545.9,474.3l8.5,11.5l-2.8-0.1l-2-2.5l-5-0.2l-0.3,2.5l-2.6,0l1.5-11.2L545.9,474.3z M544.8,481.1l3.5,0.1
			l-3-4.3L544.8,481.1z M556,472.8l1.8,0l0,15.7l-1.8-0.1L556,472.8z"/>
	</g>
</g>
</svg>
