<?xml version="1.0" encoding="utf-8"?>
<!-- Generator: Adobe Illustrator 16.0.0, SVG Export Plug-In . SVG Version: 6.00 Build 0)  -->
<!DOCTYPE svg PUBLIC "-//W3C//DTD SVG 1.1//EN" "http://www.w3.org/Graphics/SVG/1.1/DTD/svg11.dtd">
<svg version="1.1" id="Layer_1" xmlns="http://www.w3.org/2000/svg" xmlns:xlink="http://www.w3.org/1999/xlink" x="0px" y="0px"
	 width="700px" height="700px" viewBox="0 0 700 700" enable-background="new 0 0 700 700" xml:space="preserve">
<g>
	<polygon fill="none" points="237.1,538.3 237.1,538.3 236.7,531.5 236.7,531.5 	"/>
	<polygon fill="none" points="237.1,538.3 237.1,538.3 236.7,531.5 236.7,531.5 	"/>
	<polygon fill="none" points="236.8,526.9 236.8,527 237.7,527 237.7,526.8 	"/>
	<polygon fill="none" points="236.8,526.9 236.8,527 237.7,527 237.7,526.8 	"/>
	<polygon fill="none" points="171,531.9 170.4,532 171,531.9 	"/>
	<polygon fill="none" points="171,531.9 170.4,532 171,531.9 	"/>
	<path fill="#050505" d="M237.1,538.3l-0.4-6.8l0,0l0-0.1l0.1-0.3V531l0.9-4h-0.9v-0.1v-9.6H226h-0.2l-8.5,40.7l-0.2,0.7h-31.5
		v-26.1l0.3-0.8l4.5-14.5h-13.8h-0.2l-1.8,7.6v40.4l1.2,0.5h0.2c1.9,0.9,4,1.6,6.2,2.3c3.5,1,7.5,1.7,11.8,2.2l2.8,0.3
		c12.5,0.6,24-1.3,34.6-5.7l0.1-0.2c0,0,0,0-0.1,0L237.1,538.3z"/>
	<path fill="#050505" d="M237.1,538.3l-0.4-6.8l0,0l0-0.1l0.1-0.3V531l0.9-4h-0.9v-0.1v-9.6H226h-0.2l-8.5,40.7l-0.2,0.7h-31.5
		v-26.1l0.3-0.8l4.5-14.5h-13.8h-0.2l-1.8,7.6v40.4l1.2,0.5h0.2c1.9,0.9,4,1.6,6.2,2.3c3.5,1,7.5,1.7,11.8,2.2l2.8,0.3
		c12.5,0.6,24-1.3,34.6-5.7l0.1-0.2c0,0,0,0-0.1,0L237.1,538.3z"/>
	
		<linearGradient id="SVGID_1_" gradientUnits="userSpaceOnUse" x1="246.5254" y1="-35.2695" x2="249.9253" y2="-35.2695" gradientTransform="matrix(1.884 0 0 1.884 -233.0549 617.9305)">
		<stop  offset="0" style="stop-color:#798480"/>
		<stop  offset="1" style="stop-color:#252724"/>
	</linearGradient>
	<path fill="url(#SVGID_1_)" d="M237.1,538.3L237.1,538.3v0.2l-5.6,26.2c2.3-1.6,4.4-2.3,6.4-2.3l0,0l-0.1,0L237.1,538.3z"/>
	
		<linearGradient id="SVGID_2_" gradientUnits="userSpaceOnUse" x1="246.5254" y1="-35.2695" x2="249.9253" y2="-35.2695" gradientTransform="matrix(1.884 0 0 1.884 -233.0549 617.9305)">
		<stop  offset="0" style="stop-color:#798480"/>
		<stop  offset="1" style="stop-color:#252724"/>
	</linearGradient>
	<path fill="url(#SVGID_2_)" d="M237.1,538.3L237.1,538.3v0.2l-5.6,26.2c2.3-1.6,4.4-2.3,6.4-2.3l0,0l-0.1,0L237.1,538.3z"/>
	
		<linearGradient id="SVGID_3_" gradientUnits="userSpaceOnUse" x1="246.5254" y1="-35.2695" x2="249.9253" y2="-35.2695" gradientTransform="matrix(1.884 0 0 1.884 -233.0549 617.9305)">
		<stop  offset="0" style="stop-color:#798480"/>
		<stop  offset="1" style="stop-color:#252724"/>
	</linearGradient>
	<path fill="url(#SVGID_3_)" d="M237.1,538.3L237.1,538.3v0.2l-5.6,26.2c2.3-1.6,4.4-2.3,6.4-2.3l0,0l-0.1,0L237.1,538.3z"/>
	
		<linearGradient id="SVGID_4_" gradientUnits="userSpaceOnUse" x1="246.5254" y1="-35.2695" x2="249.9253" y2="-35.2695" gradientTransform="matrix(1.884 0 0 1.884 -233.0549 617.9305)">
		<stop  offset="0" style="stop-color:#798480"/>
		<stop  offset="1" style="stop-color:#252724"/>
	</linearGradient>
	<path fill="url(#SVGID_4_)" d="M237.1,538.3L237.1,538.3v0.2l-5.6,26.2c2.3-1.6,4.4-2.3,6.4-2.3l0,0l-0.1,0L237.1,538.3z"/>
	<path fill="#050505" d="M237.1,538.3l-5.7,26.4c0,0,0,0,0.1,0l5.6-26.2L237.1,538.3z"/>
	<path fill="#050505" d="M237.1,538.3l-5.7,26.4c0,0,0,0,0.1,0l5.6-26.2L237.1,538.3z"/>
	
		<linearGradient id="SVGID_5_" gradientUnits="userSpaceOnUse" x1="246.5254" y1="-35.249" x2="249.9253" y2="-35.249" gradientTransform="matrix(1.884 0 0 1.884 -233.0549 617.9305)">
		<stop  offset="0" style="stop-color:#798480"/>
		<stop  offset="1" style="stop-color:#252724"/>
	</linearGradient>
	<path fill="url(#SVGID_5_)" d="M237.1,538.3l-5.7,26.4c0,0,0,0,0.1,0l5.6-26.2L237.1,538.3z"/>
	
		<linearGradient id="SVGID_6_" gradientUnits="userSpaceOnUse" x1="246.5254" y1="-35.249" x2="249.9253" y2="-35.249" gradientTransform="matrix(1.884 0 0 1.884 -233.0549 617.9305)">
		<stop  offset="0" style="stop-color:#798480"/>
		<stop  offset="1" style="stop-color:#252724"/>
	</linearGradient>
	<path fill="url(#SVGID_6_)" d="M237.1,538.3l-5.7,26.4c0,0,0,0,0.1,0l5.6-26.2L237.1,538.3z"/>
	
		<linearGradient id="SVGID_7_" gradientUnits="userSpaceOnUse" x1="246.5254" y1="-35.249" x2="249.9253" y2="-35.249" gradientTransform="matrix(1.884 0 0 1.884 -233.0549 617.9305)">
		<stop  offset="0" style="stop-color:#798480"/>
		<stop  offset="1" style="stop-color:#252724"/>
	</linearGradient>
	<path fill="url(#SVGID_7_)" d="M237.1,538.3l-5.7,26.4c0,0,0,0,0.1,0l5.6-26.2L237.1,538.3z"/>
	
		<linearGradient id="SVGID_8_" gradientUnits="userSpaceOnUse" x1="246.5254" y1="-35.249" x2="249.9253" y2="-35.249" gradientTransform="matrix(1.884 0 0 1.884 -233.0549 617.9305)">
		<stop  offset="0" style="stop-color:#798480"/>
		<stop  offset="1" style="stop-color:#252724"/>
	</linearGradient>
	<path fill="url(#SVGID_8_)" d="M237.1,538.3l-5.7,26.4c0,0,0,0,0.1,0l5.6-26.2L237.1,538.3z"/>
	<polygon fill="#9EAAB8" points="237.8,562.4 237.9,562.4 237.1,538.3 	"/>
	<polygon fill="#9EAAB8" points="237.8,562.4 237.9,562.4 237.1,538.3 	"/>
	
		<linearGradient id="SVGID_9_" gradientUnits="userSpaceOnUse" x1="246.5254" y1="-35.8711" x2="249.9253" y2="-35.8711" gradientTransform="matrix(1.884 0 0 1.884 -233.0549 617.9305)">
		<stop  offset="0" style="stop-color:#798480"/>
		<stop  offset="1" style="stop-color:#252724"/>
	</linearGradient>
	<polygon fill="url(#SVGID_9_)" points="237.8,562.4 237.9,562.4 237.1,538.3 	"/>
	
		<linearGradient id="SVGID_10_" gradientUnits="userSpaceOnUse" x1="246.5254" y1="-35.8711" x2="249.9253" y2="-35.8711" gradientTransform="matrix(1.884 0 0 1.884 -233.0549 617.9305)">
		<stop  offset="0" style="stop-color:#798480"/>
		<stop  offset="1" style="stop-color:#252724"/>
	</linearGradient>
	<polygon fill="url(#SVGID_10_)" points="237.8,562.4 237.9,562.4 237.1,538.3 	"/>
	
		<linearGradient id="SVGID_11_" gradientUnits="userSpaceOnUse" x1="246.5254" y1="-35.8711" x2="249.9253" y2="-35.8711" gradientTransform="matrix(1.884 0 0 1.884 -233.0549 617.9305)">
		<stop  offset="0" style="stop-color:#798480"/>
		<stop  offset="1" style="stop-color:#252724"/>
	</linearGradient>
	<polygon fill="url(#SVGID_11_)" points="237.8,562.4 237.9,562.4 237.1,538.3 	"/>
	
		<linearGradient id="SVGID_12_" gradientUnits="userSpaceOnUse" x1="246.5254" y1="-35.8711" x2="249.9253" y2="-35.8711" gradientTransform="matrix(1.884 0 0 1.884 -233.0549 617.9305)">
		<stop  offset="0" style="stop-color:#798480"/>
		<stop  offset="1" style="stop-color:#252724"/>
	</linearGradient>
	<polygon fill="url(#SVGID_12_)" points="237.8,562.4 237.9,562.4 237.1,538.3 	"/>
	
		<linearGradient id="SVGID_13_" gradientUnits="userSpaceOnUse" x1="204.1572" y1="-39.1665" x2="228.2566" y2="-63.2661" gradientTransform="matrix(1.884 0 0 1.884 -233.0549 617.9305)">
		<stop  offset="0" style="stop-color:#232323"/>
		<stop  offset="1" style="stop-color:#090909"/>
	</linearGradient>
	<polygon fill="url(#SVGID_13_)" points="176.4,517.3 174.6,517.3 174.6,524.9 	"/>
	
		<linearGradient id="SVGID_14_" gradientUnits="userSpaceOnUse" x1="204.1572" y1="-39.1665" x2="228.2566" y2="-63.2661" gradientTransform="matrix(1.884 0 0 1.884 -233.0549 617.9305)">
		<stop  offset="0" style="stop-color:#232323"/>
		<stop  offset="1" style="stop-color:#090909"/>
	</linearGradient>
	<polygon fill="url(#SVGID_14_)" points="176.4,517.3 174.6,517.3 174.6,524.9 	"/>
	
		<linearGradient id="SVGID_15_" gradientUnits="userSpaceOnUse" x1="204.1572" y1="-39.1665" x2="228.2566" y2="-63.2661" gradientTransform="matrix(1.884 0 0 1.884 -233.0549 617.9305)">
		<stop  offset="0" style="stop-color:#232323"/>
		<stop  offset="1" style="stop-color:#090909"/>
	</linearGradient>
	<polygon fill="url(#SVGID_15_)" points="176.4,517.3 174.6,517.3 174.6,524.9 	"/>
	
		<linearGradient id="SVGID_16_" gradientUnits="userSpaceOnUse" x1="204.1572" y1="-39.1665" x2="228.2566" y2="-63.2661" gradientTransform="matrix(1.884 0 0 1.884 -233.0549 617.9305)">
		<stop  offset="0" style="stop-color:#232323"/>
		<stop  offset="1" style="stop-color:#090909"/>
	</linearGradient>
	<polygon fill="url(#SVGID_16_)" points="176.4,517.3 174.6,517.3 174.6,524.9 	"/>
	<polygon fill="#050505" points="217.3,558 225.8,517.3 221.1,517.3 220.9,517.3 217.3,532 	"/>
	<polygon fill="#050505" points="217.3,558 225.8,517.3 221.1,517.3 220.9,517.3 217.3,532 	"/>
	
		<linearGradient id="SVGID_17_" gradientUnits="userSpaceOnUse" x1="236.1299" y1="-43.7402" x2="241.4064" y2="-42.5769" gradientTransform="matrix(1.884 0 0 1.884 -233.0549 617.9305)">
		<stop  offset="0" style="stop-color:#3F3F3F"/>
		<stop  offset="0.9765" style="stop-color:#090909"/>
	</linearGradient>
	<polygon fill="url(#SVGID_17_)" points="217.3,558 225.8,517.3 221.1,517.3 220.9,517.3 217.3,532 	"/>
	
		<linearGradient id="SVGID_18_" gradientUnits="userSpaceOnUse" x1="236.1299" y1="-43.7402" x2="241.4064" y2="-42.5769" gradientTransform="matrix(1.884 0 0 1.884 -233.0549 617.9305)">
		<stop  offset="0" style="stop-color:#3F3F3F"/>
		<stop  offset="0.9765" style="stop-color:#090909"/>
	</linearGradient>
	<polygon fill="url(#SVGID_18_)" points="217.3,558 225.8,517.3 221.1,517.3 220.9,517.3 217.3,532 	"/>
	
		<linearGradient id="SVGID_19_" gradientUnits="userSpaceOnUse" x1="236.1299" y1="-43.7402" x2="241.4064" y2="-42.5769" gradientTransform="matrix(1.884 0 0 1.884 -233.0549 617.9305)">
		<stop  offset="0" style="stop-color:#3F3F3F"/>
		<stop  offset="0.9765" style="stop-color:#090909"/>
	</linearGradient>
	<polygon fill="url(#SVGID_19_)" points="217.3,558 225.8,517.3 221.1,517.3 220.9,517.3 217.3,532 	"/>
	
		<linearGradient id="SVGID_20_" gradientUnits="userSpaceOnUse" x1="236.1299" y1="-43.7402" x2="241.4064" y2="-42.5769" gradientTransform="matrix(1.884 0 0 1.884 -233.0549 617.9305)">
		<stop  offset="0" style="stop-color:#3F3F3F"/>
		<stop  offset="0.9765" style="stop-color:#090909"/>
	</linearGradient>
	<polygon fill="url(#SVGID_20_)" points="217.3,558 225.8,517.3 221.1,517.3 220.9,517.3 217.3,532 	"/>
	<polygon fill="#252724" points="217.3,531.8 217.3,532 220.9,517.3 217.3,517.3 214.4,528.3 202.9,528.3 202.9,526 200.3,526 
		200.3,528.3 190.3,528.3 193.7,517.3 190.7,517.3 190.4,517.3 185.9,531.8 	"/>
	<polygon fill="#252724" points="217.3,531.8 217.3,532 220.9,517.3 217.3,517.3 214.4,528.3 202.9,528.3 202.9,526 200.3,526 
		200.3,528.3 190.3,528.3 193.7,517.3 190.7,517.3 190.4,517.3 185.9,531.8 	"/>
	<polygon fill="#050505" points="217.3,531.8 185.9,531.8 185.6,532.6 185.6,558.7 217.1,558.7 217.3,558 217.3,532 	"/>
	<polygon fill="#050505" points="217.3,531.8 185.9,531.8 185.6,532.6 185.6,558.7 217.1,558.7 217.3,558 217.3,532 	"/>
	
		<linearGradient id="SVGID_21_" gradientUnits="userSpaceOnUse" x1="230.6284" y1="-46.4468" x2="230.6284" y2="-32.5468" gradientTransform="matrix(1.884 0 0 1.884 -233.0549 617.9305)">
		<stop  offset="0" style="stop-color:#232323"/>
		<stop  offset="1" style="stop-color:#050505"/>
	</linearGradient>
	<polygon fill="url(#SVGID_21_)" points="217.3,531.8 185.9,531.8 185.6,532.6 185.6,558.7 217.1,558.7 217.3,558 217.3,532 	"/>
	
		<linearGradient id="SVGID_22_" gradientUnits="userSpaceOnUse" x1="230.6284" y1="-46.4468" x2="230.6284" y2="-32.5468" gradientTransform="matrix(1.884 0 0 1.884 -233.0549 617.9305)">
		<stop  offset="0" style="stop-color:#232323"/>
		<stop  offset="1" style="stop-color:#050505"/>
	</linearGradient>
	<polygon fill="url(#SVGID_22_)" points="217.3,531.8 185.9,531.8 185.6,532.6 185.6,558.7 217.1,558.7 217.3,558 217.3,532 	"/>
	
		<linearGradient id="SVGID_23_" gradientUnits="userSpaceOnUse" x1="230.6284" y1="-46.4468" x2="230.6284" y2="-32.5468" gradientTransform="matrix(1.884 0 0 1.884 -233.0549 617.9305)">
		<stop  offset="0" style="stop-color:#232323"/>
		<stop  offset="1" style="stop-color:#050505"/>
	</linearGradient>
	<polygon fill="url(#SVGID_23_)" points="217.3,531.8 185.9,531.8 185.6,532.6 185.6,558.7 217.1,558.7 217.3,558 217.3,532 	"/>
	
		<linearGradient id="SVGID_24_" gradientUnits="userSpaceOnUse" x1="230.6284" y1="-46.4468" x2="230.6284" y2="-32.5468" gradientTransform="matrix(1.884 0 0 1.884 -233.0549 617.9305)">
		<stop  offset="0" style="stop-color:#232323"/>
		<stop  offset="1" style="stop-color:#050505"/>
	</linearGradient>
	<polygon fill="url(#SVGID_24_)" points="217.3,531.8 185.9,531.8 185.6,532.6 185.6,558.7 217.1,558.7 217.3,558 217.3,532 	"/>
</g>
</svg>
