<?xml version="1.0" encoding="utf-8"?>
<!-- Generator: Adobe Illustrator 16.0.0, SVG Export Plug-In . SVG Version: 6.00 Build 0)  -->
<!DOCTYPE svg PUBLIC "-//W3C//DTD SVG 1.1//EN" "http://www.w3.org/Graphics/SVG/1.1/DTD/svg11.dtd">
<svg version="1.1" xmlns="http://www.w3.org/2000/svg" xmlns:xlink="http://www.w3.org/1999/xlink" x="0px" y="0px" width="700px"
	 height="700px" viewBox="0 0 700 700" enable-background="new 0 0 700 700" xml:space="preserve">
<g id="Layer_10">
</g>
<g id="Layer_1">
	<g>
		<g>
			<g>
				<path fill-rule="evenodd" clip-rule="evenodd" fill="#C9D1DC" d="M254.7,447.5v-11.4l27.5-0.1c-2.3,18.8-2.4,37.6,0,56.3
					c1.7,13.5,4.6,27,8.7,40.6l-3.2,0.4c0-0.1,0-0.1-0.1-0.1c-5.1-5.4-9.6-10.9-13.3-16.3c-0.1-0.2-0.2-0.3-0.3-0.5
					c-5.6-8.1-9.6-16.1-12.2-24.1c-0.4-1.1-0.7-2.2-1-3.3l7.6-41h-13.7V447.5z"/>
				<path fill-rule="evenodd" clip-rule="evenodd" fill="#C9D1DC" d="M254.7,447.5v-11.4l27.5-0.1c-2.3,18.8-2.4,37.6,0,56.3
					c1.7,13.5,4.6,27,8.7,40.6l-3.2,0.4c0-0.1,0-0.1-0.1-0.1c-5.1-5.4-9.6-10.9-13.3-16.3c-0.1-0.2-0.2-0.3-0.3-0.5
					c-5.6-8.1-9.6-16.1-12.2-24.1c-0.4-1.1-0.7-2.2-1-3.3l7.6-41h-13.7V447.5z"/>
				<path fill-rule="evenodd" clip-rule="evenodd" fill="#F5F9FC" d="M182.2,451.6H182l-26.8,81.3l0.4-0.2l-0.3,0.4l-2.5,0.3
					c0.7-1.8,1.5-4,2.4-6.4l16.7-53.1l8.2-25.9h12.2v-1.8c21.6-8.7,42.2-8.2,61.9,1.3h0.7v0.6h13.7l-7.6,41l-6.8,36.6l-1.1-0.2
					l5.6-33.2l6.9-40.8H182.2z M182.4,450.3l0.1-0.2L182.4,450.3L182.4,450.3z"/>
				<path fill-rule="evenodd" clip-rule="evenodd" fill="#F5F9FC" d="M182.2,451.6H182l-26.8,81.3l0.4-0.2l-0.3,0.4l-2.5,0.3
					c0.7-1.8,1.5-4,2.4-6.4l16.7-53.1l8.2-25.9h12.2v-1.8c21.6-8.7,42.2-8.2,61.9,1.3h0.7v0.6h13.7l-7.6,41l-6.8,36.6l-1.1-0.2
					l5.6-33.2l6.9-40.8H182.2z M182.4,450.3l0.1-0.2L182.4,450.3L182.4,450.3z"/>
				<path fill-rule="evenodd" clip-rule="evenodd" fill="#DFE5F1" d="M192.6,436.2l62.1-0.1v11.4H254c-19.7-9.5-40.3-9.9-61.9-1.3
					v-9.7C192.3,436.5,192.4,436.3,192.6,436.2z M254.9,434l-89.6,0.1v-8.8l97.7,0.3L254.9,434z"/>
				<path fill-rule="evenodd" clip-rule="evenodd" fill="#DFE5F1" d="M192.6,436.2l62.1-0.1v11.4H254c-19.7-9.5-40.3-9.9-61.9-1.3
					v-9.7C192.3,436.5,192.4,436.3,192.6,436.2z M254.9,434l-89.6,0.1v-8.8l97.7,0.3L254.9,434z"/>
				<path fill-rule="evenodd" clip-rule="evenodd" fill="#D9E0EA" d="M263.1,425.6h21.1c-0.5,2.8-1,5.5-1.4,8.3l-27.8,0.1
					L263.1,425.6z M286,425.6c-0.2,0.8-0.3,1.5-0.5,2.3l-0.1,0.7c-0.1,0.4-0.2,0.9-0.3,1.3C285.4,428.4,285.7,427,286,425.6
					L286,425.6z"/>
				<path fill-rule="evenodd" clip-rule="evenodd" fill="#D9E0EA" d="M263.1,425.6h21.1c-0.5,2.8-1,5.5-1.4,8.3l-27.8,0.1
					L263.1,425.6z M286,425.6c-0.2,0.8-0.3,1.5-0.5,2.3l-0.1,0.7c-0.1,0.4-0.2,0.9-0.3,1.3C285.4,428.4,285.7,427,286,425.6
					L286,425.6z"/>
				<path fill-rule="evenodd" clip-rule="evenodd" fill="#DCE2EE" d="M287.8,417.6c-0.1,0.2-0.1,0.4-0.1,0.6
					c-0.3,1.5-0.7,3.1-0.9,4.6h-0.1C286.9,421,287.3,419.3,287.8,417.6L287.8,417.6z M284.8,422.8H165.4l0.2-5.2h120.3
					C285.5,419.3,285.1,421,284.8,422.8z"/>
				<path fill-rule="evenodd" clip-rule="evenodd" fill="#DCE2EE" d="M287.8,417.6c-0.1,0.2-0.1,0.4-0.1,0.6
					c-0.3,1.5-0.7,3.1-0.9,4.6h-0.1C286.9,421,287.3,419.3,287.8,417.6L287.8,417.6z M284.8,422.8H165.4l0.2-5.2h120.3
					C285.5,419.3,285.1,421,284.8,422.8z"/>
				<path fill-rule="evenodd" clip-rule="evenodd" fill="#FBFCFD" d="M254.7,436.1l-62.1,0.1h-27.2v-1.9v-0.3l89.6-0.1l27.8-0.1
					c-0.1,0.7-0.2,1.4-0.3,2.2h-0.3L254.7,436.1z M165.4,425.3v-2.5h119.4c-0.2,0.9-0.4,1.9-0.6,2.8h-21.1L165.4,425.3z
					 M286.7,422.9l-0.7,2.3c0.2-0.8,0.3-1.5,0.5-2.3L286.7,422.9z"/>
				<path fill-rule="evenodd" clip-rule="evenodd" fill="#FBFCFD" d="M254.7,436.1l-62.1,0.1h-27.2v-1.9v-0.3l89.6-0.1l27.8-0.1
					c-0.1,0.7-0.2,1.4-0.3,2.2h-0.3L254.7,436.1z M165.4,425.3v-2.5h119.4c-0.2,0.9-0.4,1.9-0.6,2.8h-21.1L165.4,425.3z
					 M286.7,422.9l-0.7,2.3c0.2-0.8,0.3-1.5,0.5-2.3L286.7,422.9z"/>
				<path fill-rule="evenodd" clip-rule="evenodd" fill="#E4E7F6" d="M253.9,525.7l6.8-36.6c0.3,1.1,0.6,2.2,1,3.3
					c2.6,8,6.6,16.1,12.2,24.1c0.1,0.2,0.2,0.3,0.3,0.5c3.8,5.4,8.2,10.9,13.3,16.3l-2.9,0.1l-30.6,0.5h-0.5l-0.5-0.4v-5.8l0.7-0.9
					L253.9,525.7z"/>
				<path fill-rule="evenodd" clip-rule="evenodd" fill="#E4E7F6" d="M253.9,525.7l6.8-36.6c0.3,1.1,0.6,2.2,1,3.3
					c2.6,8,6.6,16.1,12.2,24.1c0.1,0.2,0.2,0.3,0.3,0.5c3.8,5.4,8.2,10.9,13.3,16.3l-2.9,0.1l-30.6,0.5h-0.5l-0.5-0.4v-5.8l0.7-0.9
					L253.9,525.7z"/>
				
					<linearGradient id="SVGID_1_" gradientUnits="userSpaceOnUse" x1="-1.8999" y1="38.25" x2="-1.8999" y2="70.35" gradientTransform="matrix(1.884 0 0 1.884 227.3495 357.8495)">
					<stop  offset="0" style="stop-color:#232323"/>
					<stop  offset="1" style="stop-color:#090909"/>
				</linearGradient>
				<polygon fill-rule="evenodd" clip-rule="evenodd" fill="url(#SVGID_1_)" points="258.4,492.4 182.2,492.4 182.2,451.6 
					265.3,451.6 				"/>
				
					<linearGradient id="SVGID_2_" gradientUnits="userSpaceOnUse" x1="-1.8999" y1="38.25" x2="-1.8999" y2="70.35" gradientTransform="matrix(1.884 0 0 1.884 227.3495 357.8495)">
					<stop  offset="0" style="stop-color:#232323"/>
					<stop  offset="1" style="stop-color:#090909"/>
				</linearGradient>
				<polygon fill-rule="evenodd" clip-rule="evenodd" fill="url(#SVGID_2_)" points="258.4,492.4 182.2,492.4 182.2,451.6 
					265.3,451.6 				"/>
				<path fill-rule="evenodd" clip-rule="evenodd" fill="#050505" d="M174.6,565.3v-40.4l7.6-32.5h76.2l-5.6,33.2l-2.1-0.1l0.3-7.7
					l-1.8-2.9h-12.4v12.1l0.9,0l-0.9,4.1l-0.1,0.4l0.4,7l-5.7,26.4c-10.6,4.4-22.1,6.3-34.6,5.7l-2.8-0.3c-4.3-0.5-8.3-1.2-11.8-2.2
					c-2.2-0.7-4.3-1.4-6.2-2.3h-0.2L174.6,565.3z M242.3,519.7l-0.6,5.7l-3.1-0.1l3.2-5.6H242.3z"/>
				<path fill-rule="evenodd" clip-rule="evenodd" fill="#050505" d="M174.6,565.3v-40.4l7.6-32.5h76.2l-5.6,33.2l-2.1-0.1l0.3-7.7
					l-1.8-2.9h-12.4v12.1l0.9,0l-0.9,4.1l-0.1,0.4l0.4,7l-5.7,26.4c-10.6,4.4-22.1,6.3-34.6,5.7l-2.8-0.3c-4.3-0.5-8.3-1.2-11.8-2.2
					c-2.2-0.7-4.3-1.4-6.2-2.3h-0.2L174.6,565.3z M242.3,519.7l-0.6,5.7l-3.1-0.1l3.2-5.6H242.3z"/>
				<polygon fill-rule="evenodd" clip-rule="evenodd" fill="#596059" points="238.7,525.2 238,525.2 237.7,526.8 236.8,526.9 
					236.8,514.8 249.2,514.8 251,517.7 250.7,525.4 250.7,525.5 244.9,525.4 244.8,519.8 242.3,519.7 241.9,519.7 				"/>
				<polygon fill-rule="evenodd" clip-rule="evenodd" fill="#596059" points="238.7,525.2 238,525.2 237.7,526.8 236.8,526.9 
					236.8,514.8 249.2,514.8 251,517.7 250.7,525.4 250.7,525.5 244.9,525.4 244.8,519.8 242.3,519.7 241.9,519.7 				"/>
				<polygon fill-rule="evenodd" clip-rule="evenodd" fill="#EFEFF1" points="241.8,525.3 242.3,519.7 244.8,519.8 244.9,525.4 				
					"/>
				<polygon fill-rule="evenodd" clip-rule="evenodd" fill="#EFEFF1" points="241.8,525.3 242.3,519.7 244.8,519.8 244.9,525.4 				
					"/>
				<polygon fill-rule="evenodd" clip-rule="evenodd" fill="#F9FFFF" points="250.7,525.5 252.8,525.5 253.9,525.7 253.7,526.7 
					253.1,527.6 253.1,533.4 251.7,532.1 251.1,531.5 236.8,531 237.7,526.8 238,525.2 238.7,525.2 241.8,525.3 244.9,525.4 				"/>
				<polygon fill-rule="evenodd" clip-rule="evenodd" fill="#F9FFFF" points="250.7,525.5 252.8,525.5 253.9,525.7 253.7,526.7 
					253.1,527.6 253.1,533.4 251.7,532.1 251.1,531.5 236.8,531 237.7,526.8 238,525.2 238.7,525.2 241.8,525.3 244.9,525.4 				"/>
				<polygon fill-rule="evenodd" clip-rule="evenodd" fill="#9EAAB8" points="251.7,532.1 251.7,551.4 247.6,551.4 247.4,559.9 
					237.8,562.4 237.1,538.3 236.7,531.4 236.8,531.1 236.8,531 251.1,531.5 				"/>
				<polygon fill-rule="evenodd" clip-rule="evenodd" fill="#9EAAB8" points="251.7,532.1 251.7,551.4 247.6,551.4 247.4,559.9 
					237.8,562.4 237.1,538.3 236.7,531.4 236.8,531.1 236.8,531 251.1,531.5 				"/>
				<polygon fill-rule="evenodd" clip-rule="evenodd" fill="#40485B" points="254,533.8 253.8,554.4 253.5,557.2 253.6,557.5 
					258.4,559.3 247.4,560.2 248.2,559.7 247.4,559.9 247.6,551.4 251.7,551.4 251.7,532.1 253.1,533.4 253.5,533.8 				"/>
				<polygon fill-rule="evenodd" clip-rule="evenodd" fill="#40485B" points="254,533.8 253.8,554.4 253.5,557.2 253.6,557.5 
					258.4,559.3 247.4,560.2 248.2,559.7 247.4,559.9 247.6,551.4 251.7,551.4 251.7,532.1 253.1,533.4 253.5,533.8 				"/>
				<path fill-rule="evenodd" clip-rule="evenodd" fill="#B4BAC6" d="M259.7,559.3l25-26l2.9-0.1v0.1h0.1l3.2-0.4l1.8,5.3
					c0.2,0.6,0.4,1.2,0.6,1.8l0.5,1.6c-2.7,3.9-9.8,8.2-21.4,13c-3.5,1.5-7.5,3-11.9,4.5c-0.1,0-0.2,0.1-0.3,0.1l-0.3,0.1H259.7z"/>
				<path fill-rule="evenodd" clip-rule="evenodd" fill="#B4BAC6" d="M259.7,559.3l25-26l2.9-0.1v0.1h0.1l3.2-0.4l1.8,5.3
					c0.2,0.6,0.4,1.2,0.6,1.8l0.5,1.6c-2.7,3.9-9.8,8.2-21.4,13c-3.5,1.5-7.5,3-11.9,4.5c-0.1,0-0.2,0.1-0.3,0.1l-0.3,0.1H259.7z"/>
				<path fill-rule="evenodd" clip-rule="evenodd" fill="#F0F4FF" d="M260.1,559.2c0.1,0,0.2-0.1,0.3-0.1c4.4-1.6,8.3-3.1,11.9-4.5
					c11.6-4.8,18.7-9.2,21.4-13c0.2-0.2,0.3-0.5,0.4-0.7c0,0.4-1.2,2.1-3.5,4.9c-2.1,2.5-9.8,6.4-23.1,11.6c-1.6,0.6-3.3,1.3-5,2
					L260.1,559.2z"/>
				<path fill-rule="evenodd" clip-rule="evenodd" fill="#F0F4FF" d="M260.1,559.2c0.1,0,0.2-0.1,0.3-0.1c4.4-1.6,8.3-3.1,11.9-4.5
					c11.6-4.8,18.7-9.2,21.4-13c0.2-0.2,0.3-0.5,0.4-0.7c0,0.4-1.2,2.1-3.5,4.9c-2.1,2.5-9.8,6.4-23.1,11.6c-1.6,0.6-3.3,1.3-5,2
					L260.1,559.2z"/>
				<polygon fill-rule="evenodd" clip-rule="evenodd" fill="#B8C0CD" points="284.6,533.3 259.7,559.3 258.4,559.3 253.6,557.5 
					253.5,557.2 253.8,554.4 254,533.8 				"/>
				<polygon fill-rule="evenodd" clip-rule="evenodd" fill="#B8C0CD" points="284.6,533.3 259.7,559.3 258.4,559.3 253.6,557.5 
					253.5,557.2 253.8,554.4 254,533.8 				"/>
				
					<linearGradient id="SVGID_3_" gradientUnits="userSpaceOnUse" x1="2.1499" y1="102.8003" x2="5.5498" y2="102.8003" gradientTransform="matrix(1.884 0 0 1.884 227.3495 357.8495)">
					<stop  offset="0" style="stop-color:#798480"/>
					<stop  offset="1" style="stop-color:#252724"/>
				</linearGradient>
				<path fill-rule="evenodd" clip-rule="evenodd" fill="url(#SVGID_3_)" d="M231.4,564.7l5.7-26.4l0.8,24.1
					C235.8,562.4,233.7,563.1,231.4,564.7z"/>
				
					<linearGradient id="SVGID_4_" gradientUnits="userSpaceOnUse" x1="2.1499" y1="102.8003" x2="5.5498" y2="102.8003" gradientTransform="matrix(1.884 0 0 1.884 227.3495 357.8495)">
					<stop  offset="0" style="stop-color:#798480"/>
					<stop  offset="1" style="stop-color:#252724"/>
				</linearGradient>
				<path fill-rule="evenodd" clip-rule="evenodd" fill="url(#SVGID_4_)" d="M231.4,564.7l5.7-26.4l0.8,24.1
					C235.8,562.4,233.7,563.1,231.4,564.7z"/>
				<path fill-rule="evenodd" clip-rule="evenodd" fill="#CED4E0" d="M117.9,534.4l-0.6,0.3l0.3,0.2l-0.8,1.6
					c8.8,4,16.6,11.1,23.4,21.1c0.6,0.8,1.1,1.7,1.7,2.6c-3.7-2-7-3.8-10.1-5.5c-0.1,0-0.2-0.1-0.3-0.1c-1-0.4-1.9-0.7-2.7-0.9
					l1.3,0.3l1.1,0.4c-0.3-0.1-0.6-0.3-0.8-0.4c-14.9-6.5-22.1-11-21.5-13.5c4.3-7.4,7.5-12.5,9.5-15.4c2-2.9,4.7-7.6,8.2-14.1
					c3.5-6.5,7.5-14.7,11.9-24.8c4.4-10,8-19.2,10.8-27.7c2.8-8.4,5.2-16.2,7.2-23.4c1.6-5.8,2.9-11.4,4.1-17c0-0.2,0.1-0.4,0.1-0.6
					h4.8v5.2v2.5v8.8v0.3c0,0.3-0.1,0.5-0.1,0.8c0,0.4-0.1,0.8-0.2,1.1c-0.8,5.1-1.9,10.2-3.3,15.3c-0.5,1.9-1,3.7-1.6,5.6
					c-2.7,8.8-6.3,17.8-10.7,26.8c-5.2,10.7-11.6,21.5-19.1,32.5c-0.1,0.2-0.2,0.3-0.3,0.5c-2.6,3.7-5.3,7.5-8.1,11.2
					c-1.3,1.6-2.4,3.5-3.4,5.5v0.1c-0.1,0.1-0.2,0.3-0.3,0.5L117.9,534.4L117.9,534.4z"/>
				<path fill-rule="evenodd" clip-rule="evenodd" fill="#CED4E0" d="M117.9,534.4l-0.6,0.3l0.3,0.2l-0.8,1.6
					c8.8,4,16.6,11.1,23.4,21.1c0.6,0.8,1.1,1.7,1.7,2.6c-3.7-2-7-3.8-10.1-5.5c-0.1,0-0.2-0.1-0.3-0.1c-1-0.4-1.9-0.7-2.7-0.9
					l1.3,0.3l1.1,0.4c-0.3-0.1-0.6-0.3-0.8-0.4c-14.9-6.5-22.1-11-21.5-13.5c4.3-7.4,7.5-12.5,9.5-15.4c2-2.9,4.7-7.6,8.2-14.1
					c3.5-6.5,7.5-14.7,11.9-24.8c4.4-10,8-19.2,10.8-27.7c2.8-8.4,5.2-16.2,7.2-23.4c1.6-5.8,2.9-11.4,4.1-17c0-0.2,0.1-0.4,0.1-0.6
					h4.8v5.2v2.5v8.8v0.3c0,0.3-0.1,0.5-0.1,0.8c0,0.4-0.1,0.8-0.2,1.1c-0.8,5.1-1.9,10.2-3.3,15.3c-0.5,1.9-1,3.7-1.6,5.6
					c-2.7,8.8-6.3,17.8-10.7,26.8c-5.2,10.7-11.6,21.5-19.1,32.5c-0.1,0.2-0.2,0.3-0.3,0.5c-2.6,3.7-5.3,7.5-8.1,11.2
					c-1.3,1.6-2.4,3.5-3.4,5.5v0.1c-0.1,0.1-0.2,0.3-0.3,0.5L117.9,534.4L117.9,534.4z"/>
				<path fill-rule="evenodd" clip-rule="evenodd" fill="#B9C0C8" d="M121.8,528.2c2.8-3.7,5.5-7.5,8.1-11.2
					c0.1-0.2,0.2-0.3,0.3-0.5c7.5-11,13.9-21.8,19.1-32.5c4.4-9.1,8-18,10.7-26.8c0.6-1.9,1.1-3.7,1.6-5.6
					c1.4-5.1,2.5-10.2,3.3-15.3h0.3h27.2c-0.2,0.1-0.3,0.2-0.5,0.4v9.7v1.8H180l-8.2,25.9c-1.7,3.4-3.6,6.7-5.7,10
					c-7.5,11.8-17,22.6-28.7,32.5c-0.2,0.2-0.4,0.3-0.6,0.5C132.2,520.9,127.2,524.6,121.8,528.2z"/>
				<path fill-rule="evenodd" clip-rule="evenodd" fill="#B9C0C8" d="M121.8,528.2c2.8-3.7,5.5-7.5,8.1-11.2
					c0.1-0.2,0.2-0.3,0.3-0.5c7.5-11,13.9-21.8,19.1-32.5c4.4-9.1,8-18,10.7-26.8c0.6-1.9,1.1-3.7,1.6-5.6
					c1.4-5.1,2.5-10.2,3.3-15.3h0.3h27.2c-0.2,0.1-0.3,0.2-0.5,0.4v9.7v1.8H180l-8.2,25.9c-1.7,3.4-3.6,6.7-5.7,10
					c-7.5,11.8-17,22.6-28.7,32.5c-0.2,0.2-0.4,0.3-0.6,0.5C132.2,520.9,127.2,524.6,121.8,528.2z"/>
				<path fill-rule="evenodd" clip-rule="evenodd" fill="#E2E5F4" d="M152.7,533.4l-1.4,0.2l-32.6,0.2l-0.1,0.1l-0.5,0.3
					c0.1-0.2,0.2-0.3,0.3-0.5v-0.1c1-2,2.1-3.8,3.4-5.5c5.3-3.6,10.3-7.3,15-11.2c0.2-0.2,0.4-0.3,0.6-0.5
					c11.7-9.8,21.2-20.7,28.7-32.5c2.1-3.3,4-6.6,5.7-10l-16.7,53.1C154.2,529.5,153.4,531.6,152.7,533.4z M155.7,533.1l-0.4,0
					l0.3-0.4h0.1V533.1z"/>
				<path fill-rule="evenodd" clip-rule="evenodd" fill="#E2E5F4" d="M152.7,533.4l-1.4,0.2l-32.6,0.2l-0.1,0.1l-0.5,0.3
					c0.1-0.2,0.2-0.3,0.3-0.5v-0.1c1-2,2.1-3.8,3.4-5.5c5.3-3.6,10.3-7.3,15-11.2c0.2-0.2,0.4-0.3,0.6-0.5
					c11.7-9.8,21.2-20.7,28.7-32.5c2.1-3.3,4-6.6,5.7-10l-16.7,53.1C154.2,529.5,153.4,531.6,152.7,533.4z M155.7,533.1l-0.4,0
					l0.3-0.4h0.1V533.1z"/>
				<path fill-rule="evenodd" clip-rule="evenodd" fill="#D2DCE6" d="M150.1,560.4L150.1,560.4c-0.4-0.5-0.5-0.8-0.5-0.9
					c-9.7-10.4-20.3-18.6-32-24.6l-0.3-0.2l0.6-0.3l0.3-0.2l0.5-0.3l0.1-0.1c9.8,4.8,21.5,13.6,35.1,26.5v0.6
					C153.2,560.7,151.9,560.6,150.1,560.4z"/>
				<path fill-rule="evenodd" clip-rule="evenodd" fill="#D2DCE6" d="M150.1,560.4L150.1,560.4c-0.4-0.5-0.5-0.8-0.5-0.9
					c-9.7-10.4-20.3-18.6-32-24.6l-0.3-0.2l0.6-0.3l0.3-0.2l0.5-0.3l0.1-0.1c9.8,4.8,21.5,13.6,35.1,26.5v0.6
					C153.2,560.7,151.9,560.6,150.1,560.4z"/>
				<path fill-rule="evenodd" clip-rule="evenodd" fill="#DDE5F0" d="M117.6,534.8c11.7,6,22.4,14.2,32,24.6
					c-0.1,0.1,0.1,0.4,0.4,0.8l0.1,0.1l-3.2-0.4c-0.1-0.1-1-0.1-2.7,0h0c-0.7,0.1-1.5,0.1-2.4,0.2c-0.6-0.9-1.1-1.7-1.7-2.6
					c-6.8-10.1-14.6-17.1-23.4-21.1L117.6,534.8z"/>
				<path fill-rule="evenodd" clip-rule="evenodd" fill="#DDE5F0" d="M117.6,534.8c11.7,6,22.4,14.2,32,24.6
					c-0.1,0.1,0.1,0.4,0.4,0.8l0.1,0.1l-3.2-0.4c-0.1-0.1-1-0.1-2.7,0h0c-0.7,0.1-1.5,0.1-2.4,0.2c-0.6-0.9-1.1-1.7-1.7-2.6
					c-6.8-10.1-14.6-17.1-23.4-21.1L117.6,534.8z"/>
				
					<linearGradient id="SVGID_5_" gradientUnits="userSpaceOnUse" x1="-47.9619" y1="91.1382" x2="-23.8619" y2="67.0382" gradientTransform="matrix(1.884 0 0 1.884 227.3495 357.8495)">
					<stop  offset="0" style="stop-color:#232323"/>
					<stop  offset="1" style="stop-color:#090909"/>
				</linearGradient>
				<polygon fill-rule="evenodd" clip-rule="evenodd" fill="url(#SVGID_5_)" points="157.8,532.9 157.7,532.9 155.7,533.1 
					155.7,532.7 155.6,532.7 155.2,532.9 182,451.6 182.2,451.6 182.2,492.4 174.6,524.9 174.6,514.6 174.7,514.3 165.2,514.4 
					182.1,459.2 182,455.1 				"/>
				
					<linearGradient id="SVGID_6_" gradientUnits="userSpaceOnUse" x1="-47.9619" y1="91.1382" x2="-23.8619" y2="67.0382" gradientTransform="matrix(1.884 0 0 1.884 227.3495 357.8495)">
					<stop  offset="0" style="stop-color:#232323"/>
					<stop  offset="1" style="stop-color:#090909"/>
				</linearGradient>
				<polygon fill-rule="evenodd" clip-rule="evenodd" fill="url(#SVGID_6_)" points="157.8,532.9 157.7,532.9 155.7,533.1 
					155.7,532.7 155.6,532.7 155.2,532.9 182,451.6 182.2,451.6 182.2,492.4 174.6,524.9 174.6,514.6 174.7,514.3 165.2,514.4 
					182.1,459.2 182,455.1 				"/>
				<path fill-rule="evenodd" clip-rule="evenodd" fill="#59625F" d="M158,532.9h-0.2l24.2-77.8l0.1,4.1l-17,55.2l-3.2,10.4
					l-2.4,7.8l-0.9,0v0.3H158z M159.5,532.8L159.5,532.8h-0.2H159.5z"/>
				<path fill-rule="evenodd" clip-rule="evenodd" fill="#59625F" d="M158,532.9h-0.2l24.2-77.8l0.1,4.1l-17,55.2l-3.2,10.4
					l-2.4,7.8l-0.9,0v0.3H158z M159.5,532.8L159.5,532.8h-0.2H159.5z"/>
				<polygon fill-rule="evenodd" clip-rule="evenodd" fill="#EDF0FF" points="174.6,514.6 171.3,525.5 171.2,525.5 162,524.8 
					165.2,514.4 174.7,514.3 				"/>
				<polygon fill-rule="evenodd" clip-rule="evenodd" fill="#EDF0FF" points="174.6,514.6 171.3,525.5 171.2,525.5 162,524.8 
					165.2,514.4 174.7,514.3 				"/>
				<path fill-rule="evenodd" clip-rule="evenodd" fill="#838792" d="M170.4,532l0.7-0.1l0.7,32.5c-1.9-0.5-3.9-1-6-1.5
					c-2.7-0.6-5.6-1.1-8.6-1.5l-1.3-27.9v-0.1l-0.1-0.4l2.1-0.2h0.1l-0.1,0.3l0.2-0.2l0.1-0.1h0.7l0.7,0l0.2,0v0l5.5-0.5L170.4,532z
					"/>
				<path fill-rule="evenodd" clip-rule="evenodd" fill="#838792" d="M170.4,532l0.7-0.1l0.7,32.5c-1.9-0.5-3.9-1-6-1.5
					c-2.7-0.6-5.6-1.1-8.6-1.5l-1.3-27.9v-0.1l-0.1-0.4l2.1-0.2h0.1l-0.1,0.3l0.2-0.2l0.1-0.1h0.7l0.7,0l0.2,0v0l5.5-0.5L170.4,532z
					"/>
				<polygon fill-rule="evenodd" clip-rule="evenodd" fill="#6C7672" points="157.9,533 157.8,532.9 158,532.9 				"/>
				<polygon fill-rule="evenodd" clip-rule="evenodd" fill="#6C7672" points="157.9,533 157.8,532.9 158,532.9 				"/>
				<polygon fill-rule="evenodd" clip-rule="evenodd" fill="#0000FF" points="157.8,532.9 157.9,533 157.7,533.2 				"/>
				<polygon fill-rule="evenodd" clip-rule="evenodd" fill="#0000FF" points="157.8,532.9 157.9,533 157.7,533.2 				"/>
				<path fill-rule="evenodd" clip-rule="evenodd" fill="#546060" d="M153.9,560.3L153.9,560.3c-0.1-0.2-0.1-0.2-0.1-0.3l-0.9-26.4
					l2.9-0.1l1.3,27.9l-2.9-0.5c-0.1,0.1-0.2,0.2-0.3,0.4v-0.5V560.3z"/>
				<path fill-rule="evenodd" clip-rule="evenodd" fill="#546060" d="M153.9,560.3L153.9,560.3c-0.1-0.2-0.1-0.2-0.1-0.3l-0.9-26.4
					l2.9-0.1l1.3,27.9l-2.9-0.5c-0.1,0.1-0.2,0.2-0.3,0.4v-0.5V560.3z"/>
				<path fill-rule="evenodd" clip-rule="evenodd" fill="#AEB8C4" d="M152.8,533.6l0.9,26.4c0,0.1,0,0.1,0.1,0.2v0.1
					c-13.6-12.9-25.3-21.7-35.1-26.5l32.6-0.2H152.8z"/>
				<path fill-rule="evenodd" clip-rule="evenodd" fill="#AEB8C4" d="M152.8,533.6l0.9,26.4c0,0.1,0,0.1,0.1,0.2v0.1
					c-13.6-12.9-25.3-21.7-35.1-26.5l32.6-0.2H152.8z"/>
				<polygon fill-rule="evenodd" clip-rule="evenodd" fill="#DFE2F5" points="162,524.8 171.2,525.5 171.3,525.5 172.2,525.5 
					170.4,532 165,532.3 159.6,532.5 				"/>
				<polygon fill-rule="evenodd" clip-rule="evenodd" fill="#DFE2F5" points="162,524.8 171.2,525.5 171.3,525.5 172.2,525.5 
					170.4,532 165,532.3 159.6,532.5 				"/>
				<polygon fill-rule="evenodd" clip-rule="evenodd" fill="#C5D6DD" points="174.6,524.9 174.6,565.3 171.7,564.4 171,531.9 
					170.4,532 172.2,525.5 171.3,525.5 174.6,514.6 				"/>
				<polygon fill-rule="evenodd" clip-rule="evenodd" fill="#C5D6DD" points="174.6,524.9 174.6,565.3 171.7,564.4 171,531.9 
					170.4,532 172.2,525.5 171.3,525.5 174.6,514.6 				"/>
			</g>
		</g>
		<g>
			<g>
				
					<linearGradient id="SVGID_7_" gradientUnits="userSpaceOnUse" x1="-6.2393" y1="85.1938" x2="-0.9618" y2="86.3575" gradientTransform="matrix(1.884 0 0 1.884 227.3495 357.8495)">
					<stop  offset="0" style="stop-color:#3F3F3F"/>
					<stop  offset="0.9765" style="stop-color:#090909"/>
				</linearGradient>
				<polygon fill-rule="evenodd" clip-rule="evenodd" fill="url(#SVGID_7_)" points="217.3,558 217.3,532 229.4,482.1 229.4,499.9 
									"/>
				
					<linearGradient id="SVGID_8_" gradientUnits="userSpaceOnUse" x1="-6.2393" y1="85.1938" x2="-0.9618" y2="86.3575" gradientTransform="matrix(1.884 0 0 1.884 227.3495 357.8495)">
					<stop  offset="0" style="stop-color:#3F3F3F"/>
					<stop  offset="0.9765" style="stop-color:#090909"/>
				</linearGradient>
				<polygon fill-rule="evenodd" clip-rule="evenodd" fill="url(#SVGID_8_)" points="217.3,558 217.3,532 229.4,482.1 229.4,499.9 
									"/>
				<path fill-rule="evenodd" clip-rule="evenodd" fill="#252724" d="M229.4,482.1L217.3,532v-0.2h-31.4l15.6-50.5h27.9V482.1z
					 M223.5,493.6h-22.5l-2.5,8.1h10v-2h2.6v2h10.3L223.5,493.6z M204.1,483.9l-2.3,7.3h9.9v-2.1h2.6v2.1h9.8l1.9-7.3H204.1z
					 M220.8,504.1h-23l-3.1,10h9.8v-2h2.6v2h11L220.8,504.1z M202.9,528.3h11.5l3.1-11.8h-23.5l-3.7,11.8h10v-2.3h2.6V528.3z"/>
				<path fill-rule="evenodd" clip-rule="evenodd" fill="#252724" d="M229.4,482.1L217.3,532v-0.2h-31.4l15.6-50.5h27.9V482.1z
					 M223.5,493.6h-22.5l-2.5,8.1h10v-2h2.6v2h10.3L223.5,493.6z M204.1,483.9l-2.3,7.3h9.9v-2.1h2.6v2.1h9.8l1.9-7.3H204.1z
					 M220.8,504.1h-23l-3.1,10h9.8v-2h2.6v2h11L220.8,504.1z M202.9,528.3h11.5l3.1-11.8h-23.5l-3.7,11.8h10v-2.3h2.6V528.3z"/>
				
					<linearGradient id="SVGID_9_" gradientUnits="userSpaceOnUse" x1="-13.75" y1="91.6001" x2="-13.75" y2="105.5001" gradientTransform="matrix(1.884 0 0 1.884 227.3495 357.8495)">
					<stop  offset="0" style="stop-color:#232323"/>
					<stop  offset="1" style="stop-color:#050505"/>
				</linearGradient>
				<polygon fill-rule="evenodd" clip-rule="evenodd" fill="url(#SVGID_9_)" points="217.3,532 217.3,558 217.1,558.7 185.6,558.7 
					185.6,532.6 185.9,531.8 217.3,531.8 				"/>
				
					<linearGradient id="SVGID_10_" gradientUnits="userSpaceOnUse" x1="-13.75" y1="91.6001" x2="-13.75" y2="105.5001" gradientTransform="matrix(1.884 0 0 1.884 227.3495 357.8495)">
					<stop  offset="0" style="stop-color:#232323"/>
					<stop  offset="1" style="stop-color:#050505"/>
				</linearGradient>
				<polygon fill-rule="evenodd" clip-rule="evenodd" fill="url(#SVGID_10_)" points="217.3,532 217.3,558 217.1,558.7 185.6,558.7 
					185.6,532.6 185.9,531.8 217.3,531.8 				"/>
			</g>
		</g>
		<g>
			<path fill-rule="evenodd" clip-rule="evenodd" fill="#7C8C9B" d="M243.6,400.7L243.6,400.7c4.8-1.8,7.3-3.8,7.5-6l0.1-8.2h3.8
				l-0.1,8.2c0.3,3.9-3.1,7.1-10,9.6c-5.9,2.3-13.1,3.4-21.7,3.4c-8.4,0-15.6-1.1-21.7-3.4c-6.8-2.5-10.1-5.7-10-9.5v-0.2
				c0-0.4,0-0.8,0.1-1.1v-7h3.9v7.7c-0.1,0.1-0.1,0.3-0.1,0.4v0.1c0.3,2.3,2.8,4.2,7.4,5.9v0.1c5.7,2.1,12.4,3.1,20.3,3.1
				C231.2,403.8,238,402.8,243.6,400.7z"/>
			<path fill-rule="evenodd" clip-rule="evenodd" fill="#7C8C9B" d="M243.6,400.7L243.6,400.7c4.8-1.8,7.3-3.8,7.5-6l0.1-8.2h3.8
				l-0.1,8.2c0.3,3.9-3.1,7.1-10,9.6c-5.9,2.3-13.1,3.4-21.7,3.4c-8.4,0-15.6-1.1-21.7-3.4c-6.8-2.5-10.1-5.7-10-9.5v-0.2
				c0-0.4,0-0.8,0.1-1.1v-7h3.9v7.7c-0.1,0.1-0.1,0.3-0.1,0.4v0.1c0.3,2.3,2.8,4.2,7.4,5.9v0.1c5.7,2.1,12.4,3.1,20.3,3.1
				C231.2,403.8,238,402.8,243.6,400.7z"/>
			<g>
				<g>
					<path fill-rule="evenodd" clip-rule="evenodd" fill="#4B5D6B" d="M148.6,168.7l-2.4-3.4c-0.8-3.4-1.6-6.8-2.4-10.3
						c-0.3-1.1-0.5-2.1-0.5-3c0.1-1.1,0.3-2,0.8-2.8c1.5-2.9,4.9-4.1,10.2-3.5c3.5,0.4,7.5,0.1,11.9-0.8c4.6-0.9,9.1-2.3,13.5-4.2
						c12.1-5.1,21.4-8.7,28-10.6c4.6-1.3,9.7-2.1,15.4-2.4c0.2,0,0.3,0,0.5,0c0.1,0,0.3,0,0.5,0c5.5,0.4,10.6,1.2,15.3,2.4
						c6.5,1.9,15.8,5.4,27.9,10.6c4.3,1.9,8.9,3.4,13.6,4.2c4.7,0.9,8.6,1.2,11.8,0.8c5.1-0.8,8.6,0.3,10.3,3.5
						c0.3,0.7,0.6,1.5,0.8,2.4c0,0.1,0,0.1,0,0.2c0,0.1,0,0.3,0,0.4c-0.1,0.9-0.2,1.9-0.4,2.9c-0.3,1.4-0.6,2.9-0.9,4.2l-2.7,3.7
						c0-0.6,0-1.2,0.1-1.6c0.2-2.1-0.1-3.9-0.8-5.6c-1.5-3.1-4.7-4.3-9.7-3.4c-3,0.4-6.7,0.2-11.1-0.8c-4.5-0.9-8.8-2.3-13-4.1
						c-11.4-5.3-20.3-8.9-26.5-10.8c-4.4-1.3-9.2-2.2-14.5-2.5c-0.2,0-0.3,0-0.5,0c-0.1,0-0.3,0-0.4,0c-5.3,0.4-10.2,1.2-14.6,2.5
						c-6.2,1.9-15,5.5-26.5,10.7c-4.1,1.8-8.4,3.2-12.9,4.1c-4.5,0.9-8.3,1.2-11.3,0.8c-4.8-0.9-8.1,0.3-9.7,3.4
						c-0.8,1.6-1,3.5-0.8,5.6c0.1,0.8,0.2,1.6,0.4,2.4C147.9,165.4,148.3,167,148.6,168.7z"/>
					<path fill-rule="evenodd" clip-rule="evenodd" fill="#4B5D6B" d="M148.6,168.7l-2.4-3.4c-0.8-3.4-1.6-6.8-2.4-10.3
						c-0.3-1.1-0.5-2.1-0.5-3c0.1-1.1,0.3-2,0.8-2.8c1.5-2.9,4.9-4.1,10.2-3.5c3.5,0.4,7.5,0.1,11.9-0.8c4.6-0.9,9.1-2.3,13.5-4.2
						c12.1-5.1,21.4-8.7,28-10.6c4.6-1.3,9.7-2.1,15.4-2.4c0.2,0,0.3,0,0.5,0c0.1,0,0.3,0,0.5,0c5.5,0.4,10.6,1.2,15.3,2.4
						c6.5,1.9,15.8,5.4,27.9,10.6c4.3,1.9,8.9,3.4,13.6,4.2c4.7,0.9,8.6,1.2,11.8,0.8c5.1-0.8,8.6,0.3,10.3,3.5
						c0.3,0.7,0.6,1.5,0.8,2.4c0,0.1,0,0.1,0,0.2c0,0.1,0,0.3,0,0.4c-0.1,0.9-0.2,1.9-0.4,2.9c-0.3,1.4-0.6,2.9-0.9,4.2l-2.7,3.7
						c0-0.6,0-1.2,0.1-1.6c0.2-2.1-0.1-3.9-0.8-5.6c-1.5-3.1-4.7-4.3-9.7-3.4c-3,0.4-6.7,0.2-11.1-0.8c-4.5-0.9-8.8-2.3-13-4.1
						c-11.4-5.3-20.3-8.9-26.5-10.8c-4.4-1.3-9.2-2.2-14.5-2.5c-0.2,0-0.3,0-0.5,0c-0.1,0-0.3,0-0.4,0c-5.3,0.4-10.2,1.2-14.6,2.5
						c-6.2,1.9-15,5.5-26.5,10.7c-4.1,1.8-8.4,3.2-12.9,4.1c-4.5,0.9-8.3,1.2-11.3,0.8c-4.8-0.9-8.1,0.3-9.7,3.4
						c-0.8,1.6-1,3.5-0.8,5.6c0.1,0.8,0.2,1.6,0.4,2.4C147.9,165.4,148.3,167,148.6,168.7z"/>
					
						<linearGradient id="SVGID_11_" gradientUnits="userSpaceOnUse" x1="-2.1919" y1="30.1118" x2="-2.1532" y2="-93.2132" gradientTransform="matrix(1.884 0 0 1.884 227.3495 357.8495)">
						<stop  offset="0" style="stop-color:#03070A"/>
						<stop  offset="1" style="stop-color:#4C5C69"/>
					</linearGradient>
					<path fill-rule="evenodd" clip-rule="evenodd" fill="url(#SVGID_11_)" d="M286,417.2l-125.2-0.1c0-0.4,0-0.7,0-0.8
						c0.2-3.5,0.4-6.8,0.6-10c0.1-0.8,0.1-1.6,0.1-2.3c0-0.3,0-0.4,0.1-0.5c0-0.1,0-0.1,0-0.2v-0.2c2.9-51.7,3.7-91.7,2.4-120
						c-1.5-35.7-6.6-73.8-15.4-114.5c-0.3-1.7-0.7-3.3-1-4.9c-0.2-0.9-0.3-1.7-0.4-2.4c-0.2-2.1,0.1-3.9,0.8-5.6
						c1.6-3.1,4.9-4.3,9.7-3.4c3,0.4,6.8,0.2,11.3-0.8c4.5-0.9,8.8-2.3,12.9-4.1c11.4-5.3,20.3-8.9,26.5-10.7
						c4.4-1.3,9.3-2.2,14.6-2.5c0.1,0,0.3,0,0.4,0c0.1,0,0.3,0,0.5,0c5.3,0.4,10.1,1.2,14.5,2.5c6.2,1.9,15,5.5,26.5,10.8
						c4.2,1.8,8.5,3.2,13,4.1c4.5,0.9,8.2,1.2,11.1,0.8c5-0.9,8.2,0.3,9.7,3.4c0.7,1.6,0.9,3.5,0.8,5.6c-0.1,0.4-0.1,1-0.1,1.6
						c-0.1,0.3-0.1,0.5-0.2,0.8c-0.4,2-0.9,4-1.3,6c-3,13.9-5.6,27.5-7.6,40.8c-4.1,25.2-6.6,49.4-7.5,72.5
						C281.3,314,282.5,358.7,286,417.2z"/>
					
						<linearGradient id="SVGID_12_" gradientUnits="userSpaceOnUse" x1="-2.1919" y1="30.1118" x2="-2.1532" y2="-93.2132" gradientTransform="matrix(1.884 0 0 1.884 227.3495 357.8495)">
						<stop  offset="0" style="stop-color:#03070A"/>
						<stop  offset="1" style="stop-color:#4C5C69"/>
					</linearGradient>
					<path fill-rule="evenodd" clip-rule="evenodd" fill="url(#SVGID_12_)" d="M286,417.2l-125.2-0.1c0-0.4,0-0.7,0-0.8
						c0.2-3.5,0.4-6.8,0.6-10c0.1-0.8,0.1-1.6,0.1-2.3c0-0.3,0-0.4,0.1-0.5c0-0.1,0-0.1,0-0.2v-0.2c2.9-51.7,3.7-91.7,2.4-120
						c-1.5-35.7-6.6-73.8-15.4-114.5c-0.3-1.7-0.7-3.3-1-4.9c-0.2-0.9-0.3-1.7-0.4-2.4c-0.2-2.1,0.1-3.9,0.8-5.6
						c1.6-3.1,4.9-4.3,9.7-3.4c3,0.4,6.8,0.2,11.3-0.8c4.5-0.9,8.8-2.3,12.9-4.1c11.4-5.3,20.3-8.9,26.5-10.7
						c4.4-1.3,9.3-2.2,14.6-2.5c0.1,0,0.3,0,0.4,0c0.1,0,0.3,0,0.5,0c5.3,0.4,10.1,1.2,14.5,2.5c6.2,1.9,15,5.5,26.5,10.8
						c4.2,1.8,8.5,3.2,13,4.1c4.5,0.9,8.2,1.2,11.1,0.8c5-0.9,8.2,0.3,9.7,3.4c0.7,1.6,0.9,3.5,0.8,5.6c-0.1,0.4-0.1,1-0.1,1.6
						c-0.1,0.3-0.1,0.5-0.2,0.8c-0.4,2-0.9,4-1.3,6c-3,13.9-5.6,27.5-7.6,40.8c-4.1,25.2-6.6,49.4-7.5,72.5
						C281.3,314,282.5,358.7,286,417.2z"/>
					<path fill-rule="evenodd" clip-rule="evenodd" fill="#1A2030" d="M143.2,152c0-0.4,0-0.7,0-1c0.1-1.4,0.4-2.6,0.9-3.7
						c0.8-1.6,2-2.6,3.7-3.1c1.5-0.5,3.7-0.6,6.5-0.4c3.6,0.3,7.5,0.1,11.9-0.7c4.6-1,9.1-2.4,13.5-4.2c12.1-5.3,21.4-8.8,27.9-10.5
						c4.6-1.4,9.7-2.3,15.4-2.6c0.2,0,0.3,0,0.5,0c0.1,0,0.3,0,0.5,0c5.5,0.4,10.6,1.3,15.2,2.6c6.5,1.8,15.9,5.3,28,10.6
						c4.3,1.8,8.9,3.2,13.6,4.2c4.6,0.9,8.6,1.1,11.8,0.7c5.1-0.8,8.5,0.3,10.2,3.5c0.4,1,0.7,2.4,0.8,4.2c-0.2-0.9-0.4-1.7-0.8-2.4
						c-1.7-3.1-5.1-4.3-10.3-3.5c-3.1,0.4-7.1,0.2-11.8-0.8c-4.7-0.9-9.2-2.3-13.6-4.2c-12.1-5.2-21.4-8.8-27.9-10.6
						c-4.6-1.3-9.7-2.1-15.3-2.4c-0.2,0-0.3,0-0.5,0c-0.1,0-0.3,0-0.5,0c-5.7,0.4-10.8,1.2-15.4,2.4c-6.6,1.9-15.9,5.4-28,10.6
						c-4.3,1.9-8.8,3.4-13.5,4.2c-4.4,0.9-8.4,1.1-11.9,0.8c-5.3-0.6-8.7,0.6-10.2,3.5C143.6,150,143.3,151,143.2,152z"/>
					<path fill-rule="evenodd" clip-rule="evenodd" fill="#1A2030" d="M143.2,152c0-0.4,0-0.7,0-1c0.1-1.4,0.4-2.6,0.9-3.7
						c0.8-1.6,2-2.6,3.7-3.1c1.5-0.5,3.7-0.6,6.5-0.4c3.6,0.3,7.5,0.1,11.9-0.7c4.6-1,9.1-2.4,13.5-4.2c12.1-5.3,21.4-8.8,27.9-10.5
						c4.6-1.4,9.7-2.3,15.4-2.6c0.2,0,0.3,0,0.5,0c0.1,0,0.3,0,0.5,0c5.5,0.4,10.6,1.3,15.2,2.6c6.5,1.8,15.9,5.3,28,10.6
						c4.3,1.8,8.9,3.2,13.6,4.2c4.6,0.9,8.6,1.1,11.8,0.7c5.1-0.8,8.5,0.3,10.2,3.5c0.4,1,0.7,2.4,0.8,4.2c-0.2-0.9-0.4-1.7-0.8-2.4
						c-1.7-3.1-5.1-4.3-10.3-3.5c-3.1,0.4-7.1,0.2-11.8-0.8c-4.7-0.9-9.2-2.3-13.6-4.2c-12.1-5.2-21.4-8.8-27.9-10.6
						c-4.6-1.3-9.7-2.1-15.3-2.4c-0.2,0-0.3,0-0.5,0c-0.1,0-0.3,0-0.5,0c-5.7,0.4-10.8,1.2-15.4,2.4c-6.6,1.9-15.9,5.4-28,10.6
						c-4.3,1.9-8.8,3.4-13.5,4.2c-4.4,0.9-8.4,1.1-11.9,0.8c-5.3-0.6-8.7,0.6-10.2,3.5C143.6,150,143.3,151,143.2,152z"/>
					
						<linearGradient id="SVGID_13_" gradientUnits="userSpaceOnUse" x1="33.8159" y1="-103.1958" x2="35.505" y2="20.7034" gradientTransform="matrix(1.884 0 0 1.884 227.3495 357.8495)">
						<stop  offset="0" style="stop-color:#4B5D6B"/>
						<stop  offset="0.4471" style="stop-color:#1A2030"/>
						<stop  offset="1" style="stop-color:#1B2131"/>
					</linearGradient>
					<path fill-rule="evenodd" clip-rule="evenodd" fill="url(#SVGID_13_)" d="M302,159.4c-9.4,40.6-14.8,78.7-16.3,114.3
						c-0.3,4.2-0.5,8.9-0.6,13.9c-0.9,30.1-0.7,73.3,0.8,129.6c-3.6-58.5-4.7-103.2-3.4-133.9c0.9-23.1,3.5-47.3,7.5-72.5
						c2.1-13.3,4.6-26.9,7.6-40.8c0.4-2,0.9-4,1.3-6c0.1-0.3,0.1-0.6,0.2-0.8L302,159.4z"/>
					
						<linearGradient id="SVGID_14_" gradientUnits="userSpaceOnUse" x1="33.8159" y1="-103.1958" x2="35.505" y2="20.7034" gradientTransform="matrix(1.884 0 0 1.884 227.3495 357.8495)">
						<stop  offset="0" style="stop-color:#4B5D6B"/>
						<stop  offset="0.4471" style="stop-color:#1A2030"/>
						<stop  offset="1" style="stop-color:#1B2131"/>
					</linearGradient>
					<path fill-rule="evenodd" clip-rule="evenodd" fill="url(#SVGID_14_)" d="M302,159.4c-9.4,40.6-14.8,78.7-16.3,114.3
						c-0.3,4.2-0.5,8.9-0.6,13.9c-0.9,30.1-0.7,73.3,0.8,129.6c-3.6-58.5-4.7-103.2-3.4-133.9c0.9-23.1,3.5-47.3,7.5-72.5
						c2.1-13.3,4.6-26.9,7.6-40.8c0.4-2,0.9-4,1.3-6c0.1-0.3,0.1-0.6,0.2-0.8L302,159.4z"/>
					
						<linearGradient id="SVGID_15_" gradientUnits="userSpaceOnUse" x1="-38.2104" y1="-85.1626" x2="-38.2105" y2="-17.9376" gradientTransform="matrix(1.884 0 0 1.884 227.3495 357.8495)">
						<stop  offset="0" style="stop-color:#4B5D6B"/>
						<stop  offset="0.4471" style="stop-color:#1A2030"/>
						<stop  offset="1" style="stop-color:#1B2131"/>
					</linearGradient>
					<path fill-rule="evenodd" clip-rule="evenodd" fill="url(#SVGID_15_)" d="M148.6,168.7c8.7,40.6,13.8,78.8,15.4,114.5
						c1.3,28.3,0.5,68.3-2.4,120c0.8-49.9,0.7-88.7-0.2-116.6c-0.1-4.6-0.3-9-0.4-13c-1.6-33.8-6.5-69.9-14.9-108.2L148.6,168.7z"/>
					
						<linearGradient id="SVGID_16_" gradientUnits="userSpaceOnUse" x1="-38.2104" y1="-85.1626" x2="-38.2105" y2="-17.9376" gradientTransform="matrix(1.884 0 0 1.884 227.3495 357.8495)">
						<stop  offset="0" style="stop-color:#4B5D6B"/>
						<stop  offset="0.4471" style="stop-color:#1A2030"/>
						<stop  offset="1" style="stop-color:#1B2131"/>
					</linearGradient>
					<path fill-rule="evenodd" clip-rule="evenodd" fill="url(#SVGID_16_)" d="M148.6,168.7c8.7,40.6,13.8,78.8,15.4,114.5
						c1.3,28.3,0.5,68.3-2.4,120c0.8-49.9,0.7-88.7-0.2-116.6c-0.1-4.6-0.3-9-0.4-13c-1.6-33.8-6.5-69.9-14.9-108.2L148.6,168.7z"/>
				</g>
			</g>
			<g>
				
					<linearGradient id="SVGID_17_" gradientUnits="userSpaceOnUse" x1="-34.8003" y1="-102.7998" x2="-34.8003" y2="-23.5998" gradientTransform="matrix(1.884 0 0 1.884 227.3495 357.8495)">
					<stop  offset="0" style="stop-color:#070707;stop-opacity:0"/>
					<stop  offset="1" style="stop-color:#000000"/>
				</linearGradient>
				<path fill-rule="evenodd" clip-rule="evenodd" fill="url(#SVGID_17_)" d="M154.2,208.2c1.4,1.9,3.7,5.1,7.1,9.7
					c3.2,4.3,5.8,7.9,7.8,11l0.4,188.2h-8.6c0-0.4,0-0.7,0-0.8c0.2-3.5,0.4-6.8,0.6-10c0.1-0.8,0.1-1.6,0.1-2.3c0-0.3,0-0.4,0.1-0.5
					c0-0.1,0-0.1,0-0.2v-0.2c0.8-49.9,0.7-88.7-0.2-116.6c-0.1-4.6-0.3-9-0.4-13C160,252.6,157.7,230.8,154.2,208.2z"/>
				
					<linearGradient id="SVGID_18_" gradientUnits="userSpaceOnUse" x1="-34.8003" y1="-102.7998" x2="-34.8003" y2="-23.5998" gradientTransform="matrix(1.884 0 0 1.884 227.3495 357.8495)">
					<stop  offset="0" style="stop-color:#070707;stop-opacity:0"/>
					<stop  offset="1" style="stop-color:#000000"/>
				</linearGradient>
				<path fill-rule="evenodd" clip-rule="evenodd" fill="url(#SVGID_18_)" d="M154.2,208.2c1.4,1.9,3.7,5.1,7.1,9.7
					c3.2,4.3,5.8,7.9,7.8,11l0.4,188.2h-8.6c0-0.4,0-0.7,0-0.8c0.2-3.5,0.4-6.8,0.6-10c0.1-0.8,0.1-1.6,0.1-2.3c0-0.3,0-0.4,0.1-0.5
					c0-0.1,0-0.1,0-0.2v-0.2c0.8-49.9,0.7-88.7-0.2-116.6c-0.1-4.6-0.3-9-0.4-13C160,252.6,157.7,230.8,154.2,208.2z"/>
			</g>
			<g>
				
					<linearGradient id="SVGID_19_" gradientUnits="userSpaceOnUse" x1="5.1001" y1="29.9126" x2="5.1001" y2="-93.4124" gradientTransform="matrix(1.884 0 0 1.884 227.3495 357.8495)">
					<stop  offset="0" style="stop-color:#050507"/>
					<stop  offset="1" style="stop-color:#050507;stop-opacity:0"/>
				</linearGradient>
				<polygon fill-rule="evenodd" clip-rule="evenodd" fill="url(#SVGID_19_)" points="260.5,195 281.6,233.7 281.6,344.4 192.3,329 
					192.3,195.3 				"/>
				
					<linearGradient id="SVGID_20_" gradientUnits="userSpaceOnUse" x1="5.1001" y1="29.9126" x2="5.1001" y2="-93.4124" gradientTransform="matrix(1.884 0 0 1.884 227.3495 357.8495)">
					<stop  offset="0" style="stop-color:#050507"/>
					<stop  offset="1" style="stop-color:#050507;stop-opacity:0"/>
				</linearGradient>
				<polygon fill-rule="evenodd" clip-rule="evenodd" fill="url(#SVGID_20_)" points="260.5,195 281.6,233.7 281.6,344.4 192.3,329 
					192.3,195.3 				"/>
			</g>
			<g>
				
					<linearGradient id="SVGID_21_" gradientUnits="userSpaceOnUse" x1="-2.0747" y1="10.7749" x2="-2.0747" y2="13.9249" gradientTransform="matrix(1.884 0 0 1.884 227.3495 357.8495)">
					<stop  offset="0.2353" style="stop-color:#0F151A"/>
					<stop  offset="0.5529" style="stop-color:#191F25"/>
					<stop  offset="1" style="stop-color:#48606C"/>
				</linearGradient>
				<path fill-rule="evenodd" clip-rule="evenodd" fill="url(#SVGID_21_)" d="M269.3,407.2h-15.8v-13.8h-61.1v13.8h-15.1v9.9h-16.4
					c0.7-12.5,1-25.1,1-37.9l123.2,0.1c0.4,4.8,0.6,11,0.6,18.6c0,8,0.1,14.5,0.4,19.3h-16.8V407.2z"/>
				
					<linearGradient id="SVGID_22_" gradientUnits="userSpaceOnUse" x1="-2.0747" y1="10.7749" x2="-2.0747" y2="13.9249" gradientTransform="matrix(1.884 0 0 1.884 227.3495 357.8495)">
					<stop  offset="0.2353" style="stop-color:#0F151A"/>
					<stop  offset="0.5529" style="stop-color:#191F25"/>
					<stop  offset="1" style="stop-color:#48606C"/>
				</linearGradient>
				<path fill-rule="evenodd" clip-rule="evenodd" fill="url(#SVGID_22_)" d="M269.3,407.2h-15.8v-13.8h-61.1v13.8h-15.1v9.9h-16.4
					c0.7-12.5,1-25.1,1-37.9l123.2,0.1c0.4,4.8,0.6,11,0.6,18.6c0,8,0.1,14.5,0.4,19.3h-16.8V407.2z"/>
			</g>
			<g>
				
					<radialGradient id="SVGID_23_" cx="-2.1499" cy="18" r="43.2375" gradientTransform="matrix(1.884 0 0 1.884 227.3495 357.8495)" gradientUnits="userSpaceOnUse">
					<stop  offset="0" style="stop-color:#B8D6D8"/>
					<stop  offset="0.2667" style="stop-color:#728D9B"/>
					<stop  offset="1" style="stop-color:#48606C"/>
				</radialGradient>
				<path fill-rule="evenodd" clip-rule="evenodd" fill="url(#SVGID_23_)" d="M285.2,405.4c-3.3-2.3-7.9-4.3-13.6-6
					c-13.3-3.9-29.2-5.8-47.9-5.7c-18.6,0.1-34.5,2.1-47.7,6c-6.3,1.9-11.1,4.1-14.3,6.5v-3c3.5-2.2,7.9-4.2,13.5-5.9h0.2
					c13.4-4,29.5-6.1,48.3-6.1c19-0.1,35.2,1.9,48.6,5.8c5,1.5,9.3,3.3,12.9,5.5V405.4z"/>
				
					<radialGradient id="SVGID_24_" cx="-2.1499" cy="18" r="43.2375" gradientTransform="matrix(1.884 0 0 1.884 227.3495 357.8495)" gradientUnits="userSpaceOnUse">
					<stop  offset="0" style="stop-color:#B8D6D8"/>
					<stop  offset="0.2667" style="stop-color:#728D9B"/>
					<stop  offset="1" style="stop-color:#48606C"/>
				</radialGradient>
				<path fill-rule="evenodd" clip-rule="evenodd" fill="url(#SVGID_24_)" d="M285.2,405.4c-3.3-2.3-7.9-4.3-13.6-6
					c-13.3-3.9-29.2-5.8-47.9-5.7c-18.6,0.1-34.5,2.1-47.7,6c-6.3,1.9-11.1,4.1-14.3,6.5v-3c3.5-2.2,7.9-4.2,13.5-5.9h0.2
					c13.4-4,29.5-6.1,48.3-6.1c19-0.1,35.2,1.9,48.6,5.8c5,1.5,9.3,3.3,12.9,5.5V405.4z"/>
			</g>
			<g>
				
					<linearGradient id="SVGID_25_" gradientUnits="userSpaceOnUse" x1="-2.6001" y1="-16.7749" x2="-2.6001" y2="-1.5249" gradientTransform="matrix(1.884 0 0 1.884 227.3495 357.8495)">
					<stop  offset="0" style="stop-color:#050507"/>
					<stop  offset="1" style="stop-color:#050507;stop-opacity:0"/>
				</linearGradient>
				<rect x="185.4" y="313" fill-rule="evenodd" clip-rule="evenodd" fill="url(#SVGID_25_)" width="74" height="47.9"/>
				
					<linearGradient id="SVGID_26_" gradientUnits="userSpaceOnUse" x1="-2.6001" y1="-16.7749" x2="-2.6001" y2="-1.5249" gradientTransform="matrix(1.884 0 0 1.884 227.3495 357.8495)">
					<stop  offset="0" style="stop-color:#050507"/>
					<stop  offset="1" style="stop-color:#050507;stop-opacity:0"/>
				</linearGradient>
				<rect x="185.4" y="313" fill-rule="evenodd" clip-rule="evenodd" fill="url(#SVGID_26_)" width="74" height="47.9"/>
			</g>
			<g>
				
					<linearGradient id="SVGID_27_" gradientUnits="userSpaceOnUse" x1="-2.1499" y1="-106.5" x2="-2.1499" y2="-103.7" gradientTransform="matrix(1.884 0 0 1.884 227.3495 357.8495)">
					<stop  offset="0" style="stop-color:#050507"/>
					<stop  offset="1" style="stop-color:#050507;stop-opacity:0"/>
				</linearGradient>
				<rect x="168" y="157.5" fill-rule="evenodd" clip-rule="evenodd" fill="url(#SVGID_27_)" width="110.6" height="8.8"/>
				
					<linearGradient id="SVGID_28_" gradientUnits="userSpaceOnUse" x1="-2.1499" y1="-106.5" x2="-2.1499" y2="-103.7" gradientTransform="matrix(1.884 0 0 1.884 227.3495 357.8495)">
					<stop  offset="0" style="stop-color:#050507"/>
					<stop  offset="1" style="stop-color:#050507;stop-opacity:0"/>
				</linearGradient>
				<rect x="168" y="157.5" fill-rule="evenodd" clip-rule="evenodd" fill="url(#SVGID_28_)" width="110.6" height="8.8"/>
			</g>
			<g>
				
					<linearGradient id="SVGID_29_" gradientUnits="userSpaceOnUse" x1="-2.1802" y1="1.9883" x2="-2.1767" y2="-12.3867" gradientTransform="matrix(1.884 0 0 1.884 227.3495 357.8495)">
					<stop  offset="0" style="stop-color:#4C5C69"/>
					<stop  offset="1" style="stop-color:#4C5C69;stop-opacity:0"/>
				</linearGradient>
				<polygon fill-rule="evenodd" clip-rule="evenodd" fill="url(#SVGID_29_)" points="274.1,325.4 272.2,373.5 173.6,373.5 
					172.4,325.4 				"/>
				
					<linearGradient id="SVGID_30_" gradientUnits="userSpaceOnUse" x1="-2.1802" y1="1.9883" x2="-2.1767" y2="-12.3867" gradientTransform="matrix(1.884 0 0 1.884 227.3495 357.8495)">
					<stop  offset="0" style="stop-color:#4C5C69"/>
					<stop  offset="1" style="stop-color:#4C5C69;stop-opacity:0"/>
				</linearGradient>
				<polygon fill-rule="evenodd" clip-rule="evenodd" fill="url(#SVGID_30_)" points="274.1,325.4 272.2,373.5 173.6,373.5 
					172.4,325.4 				"/>
			</g>
			<g>
				
					<linearGradient id="SVGID_31_" gradientUnits="userSpaceOnUse" x1="-29.9106" y1="-12.2002" x2="93.4144" y2="-12.2002" gradientTransform="matrix(1.527636e-005 -1.884 1.884 -1.883957e-003 227.3502 357.8502)">
					<stop  offset="0" style="stop-color:#050507"/>
					<stop  offset="1" style="stop-color:#050507;stop-opacity:0"/>
				</linearGradient>
				<path fill-rule="evenodd" clip-rule="evenodd" fill="url(#SVGID_31_)" d="M254.1,329l-63.9,0.2l-23.5,49.9h-0.8l-1.1-34.8
					l3.8-112.4c-0.9-3-5.6-10.8-13.9-23.4c5.3-6.1,15.7-10.6,31.4-13.7l68.1,0.3V329z"/>
				
					<linearGradient id="SVGID_32_" gradientUnits="userSpaceOnUse" x1="-29.9106" y1="-12.2002" x2="93.4144" y2="-12.2002" gradientTransform="matrix(1.527636e-005 -1.884 1.884 -1.883957e-003 227.3502 357.8502)">
					<stop  offset="0" style="stop-color:#050507"/>
					<stop  offset="1" style="stop-color:#050507;stop-opacity:0"/>
				</linearGradient>
				<path fill-rule="evenodd" clip-rule="evenodd" fill="url(#SVGID_32_)" d="M254.1,329l-63.9,0.2l-23.5,49.9h-0.8l-1.1-34.8
					l3.8-112.4c-0.9-3-5.6-10.8-13.9-23.4c5.3-6.1,15.7-10.6,31.4-13.7l68.1,0.3V329z"/>
			</g>
			<g>
				
					<linearGradient id="SVGID_33_" gradientUnits="userSpaceOnUse" x1="-17.0659" y1="-116.0288" x2="0.5861" y2="-108.971" gradientTransform="matrix(1.884 0 0 1.884 227.3495 357.8495)">
					<stop  offset="0" style="stop-color:#060604"/>
					<stop  offset="1" style="stop-color:#2B3A41"/>
				</linearGradient>
				<path fill-rule="evenodd" clip-rule="evenodd" fill="url(#SVGID_33_)" d="M271.4,151.8c6.7,1.6,13.8,0.2,21.6-4.2
					c1.8-0.8,3.7-0.8,5.7-0.1c2,0.8,3.2,1.9,3.6,3.6c-4-3-8.4-2.9-13,0.3c-4.6,3.1-8,4.7-10.2,4.7H176.2c-7.9-0.1-14.9-2-21.3-5.7
					c-6.1-3-9.9-2.5-11.3,1.4c0.4-3.4,3.1-4.6,8.1-3.6c-0.1-0.1-0.2-0.2-0.4-0.3c0.1,0.1,0.3,0.1,0.5,0.2
					c10.6,3.6,17.8,4.5,21.7,2.6l33.7-10.8c13.8-4.5,26.5-3.8,38.1,2.1C253.7,146.3,262.4,149.6,271.4,151.8z"/>
				
					<linearGradient id="SVGID_34_" gradientUnits="userSpaceOnUse" x1="-17.0659" y1="-116.0288" x2="0.5861" y2="-108.971" gradientTransform="matrix(1.884 0 0 1.884 227.3495 357.8495)">
					<stop  offset="0" style="stop-color:#060604"/>
					<stop  offset="1" style="stop-color:#2B3A41"/>
				</linearGradient>
				<path fill-rule="evenodd" clip-rule="evenodd" fill="url(#SVGID_34_)" d="M271.4,151.8c6.7,1.6,13.8,0.2,21.6-4.2
					c1.8-0.8,3.7-0.8,5.7-0.1c2,0.8,3.2,1.9,3.6,3.6c-4-3-8.4-2.9-13,0.3c-4.6,3.1-8,4.7-10.2,4.7H176.2c-7.9-0.1-14.9-2-21.3-5.7
					c-6.1-3-9.9-2.5-11.3,1.4c0.4-3.4,3.1-4.6,8.1-3.6c-0.1-0.1-0.2-0.2-0.4-0.3c0.1,0.1,0.3,0.1,0.5,0.2
					c10.6,3.6,17.8,4.5,21.7,2.6l33.7-10.8c13.8-4.5,26.5-3.8,38.1,2.1C253.7,146.3,262.4,149.6,271.4,151.8z"/>
			</g>
			<g>
				<path fill-rule="evenodd" clip-rule="evenodd" fill="#778997" d="M264.7,147.2c3,1.3,6,2.4,9.1,3.3c0.2,0.1,0.4,0.1,0.7,0.2
					l0.4,0.1c4.5,0.9,9.3-0.2,14.6-3.5c2.2-1.3,4.1-1.9,5.7-2.1c3.7-0.3,6.2,0.6,7.3,2.6c1,1.8,1,4.6,0,8.4c0.4-2.3,0.3-4.1-0.5-5.5
					c-1.3-1.9-3.7-2.8-7.3-2.5c-1.6,0.1-3.5,0.8-5.7,2c-5.1,3.1-9.8,4.4-14,3.7c-0.6-0.1-1.1-0.3-1.6-0.4c-2.9-0.9-5.7-2-8.6-3.3
					c-11.6-5.3-20.4-8.9-26.7-10.7c-4.4-1.3-9.2-2.2-14.5-2.6c-0.1,0-0.1,0-0.2,0s-0.2,0-0.3,0H223c-0.1,0-0.2,0-0.3,0
					c-5.5,0.4-10.4,1.3-14.9,2.6c-6.1,1.8-14.6,5.3-25.6,10.4c-0.3,0.1-0.6,0.3-0.8,0.4c-1.5,0.6-3,1.2-4.4,1.8
					c-5.7,2.3-11,2.3-15.9,0c-1.1-0.5-2.3-1.1-3.5-1.8c-2.2-1.2-4.1-1.9-5.7-2c-3.6-0.3-6.1,0.6-7.3,2.5c-0.8,1.3-0.9,3.2-0.4,5.7
					c-1.1-4-1.1-6.8-0.1-8.6c1.3-2,3.7-2.9,7.3-2.6c1.6,0.1,3.5,0.8,5.7,2.1c1.8,1.1,3.6,1.9,5.3,2.5c3.5,1.7,7.4,1.7,11.9,0
					c2.4-0.8,4.8-1.6,7.2-2.6c11.5-5.3,20.3-8.9,26.6-10.8c4.4-1.3,9.3-2.2,14.8-2.5c0.1,0,0.3,0,0.4,0s0.3,0,0.5,0
					c5.3,0.4,10.1,1.2,14.5,2.5C244.3,138.3,253.2,141.9,264.7,147.2z"/>
				<path fill-rule="evenodd" clip-rule="evenodd" fill="#778997" d="M264.7,147.2c3,1.3,6,2.4,9.1,3.3c0.2,0.1,0.4,0.1,0.7,0.2
					l0.4,0.1c4.5,0.9,9.3-0.2,14.6-3.5c2.2-1.3,4.1-1.9,5.7-2.1c3.7-0.3,6.2,0.6,7.3,2.6c1,1.8,1,4.6,0,8.4c0.4-2.3,0.3-4.1-0.5-5.5
					c-1.3-1.9-3.7-2.8-7.3-2.5c-1.6,0.1-3.5,0.8-5.7,2c-5.1,3.1-9.8,4.4-14,3.7c-0.6-0.1-1.1-0.3-1.6-0.4c-2.9-0.9-5.7-2-8.6-3.3
					c-11.6-5.3-20.4-8.9-26.7-10.7c-4.4-1.3-9.2-2.2-14.5-2.6c-0.1,0-0.1,0-0.2,0s-0.2,0-0.3,0H223c-0.1,0-0.2,0-0.3,0
					c-5.5,0.4-10.4,1.3-14.9,2.6c-6.1,1.8-14.6,5.3-25.6,10.4c-0.3,0.1-0.6,0.3-0.8,0.4c-1.5,0.6-3,1.2-4.4,1.8
					c-5.7,2.3-11,2.3-15.9,0c-1.1-0.5-2.3-1.1-3.5-1.8c-2.2-1.2-4.1-1.9-5.7-2c-3.6-0.3-6.1,0.6-7.3,2.5c-0.8,1.3-0.9,3.2-0.4,5.7
					c-1.1-4-1.1-6.8-0.1-8.6c1.3-2,3.7-2.9,7.3-2.6c1.6,0.1,3.5,0.8,5.7,2.1c1.8,1.1,3.6,1.9,5.3,2.5c3.5,1.7,7.4,1.7,11.9,0
					c2.4-0.8,4.8-1.6,7.2-2.6c11.5-5.3,20.3-8.9,26.6-10.8c4.4-1.3,9.3-2.2,14.8-2.5c0.1,0,0.3,0,0.4,0s0.3,0,0.5,0
					c5.3,0.4,10.1,1.2,14.5,2.5C244.3,138.3,253.2,141.9,264.7,147.2z"/>
			</g>
			<g>
				<g>
					<path fill-rule="evenodd" clip-rule="evenodd" fill="#818996" d="M259.8,328.8h-73.9V195.3h73.9V328.8z M190.9,199.9h-0.5
						v124.2h5.7h59.6V199.9H190.9z"/>
					<path fill-rule="evenodd" clip-rule="evenodd" fill="#818996" d="M259.8,328.8h-73.9V195.3h73.9V328.8z M190.9,199.9h-0.5
						v124.2h5.7h59.6V199.9H190.9z"/>
					
						<linearGradient id="SVGID_35_" gradientUnits="userSpaceOnUse" x1="-14.2749" y1="-50.8745" x2="12.7751" y2="-50.8745" gradientTransform="matrix(1.884 0 0 1.884 227.3495 357.8495)">
						<stop  offset="0" style="stop-color:#0C1719"/>
						<stop  offset="1" style="stop-color:#4A5A67"/>
					</linearGradient>
					<polygon fill-rule="evenodd" clip-rule="evenodd" fill="url(#SVGID_35_)" points="196.1,324.1 196.1,235.6 190.9,199.9 
						255.7,199.9 255.7,324.1 					"/>
					
						<linearGradient id="SVGID_36_" gradientUnits="userSpaceOnUse" x1="-14.2749" y1="-50.8745" x2="12.7751" y2="-50.8745" gradientTransform="matrix(1.884 0 0 1.884 227.3495 357.8495)">
						<stop  offset="0" style="stop-color:#0C1719"/>
						<stop  offset="1" style="stop-color:#4A5A67"/>
					</linearGradient>
					<polygon fill-rule="evenodd" clip-rule="evenodd" fill="url(#SVGID_36_)" points="196.1,324.1 196.1,235.6 190.9,199.9 
						255.7,199.9 255.7,324.1 					"/>
					<polygon fill-rule="evenodd" clip-rule="evenodd" fill="#3C4B52" points="196.1,324.1 190.4,324.1 190.4,199.9 190.9,199.9 
						196.1,235.6 					"/>
					<polygon fill-rule="evenodd" clip-rule="evenodd" fill="#3C4B52" points="196.1,324.1 190.4,324.1 190.4,199.9 190.9,199.9 
						196.1,235.6 					"/>
				</g>
			</g>
			<g>
				
					<radialGradient id="SVGID_37_" cx="-12.2002" cy="-80.25" r="18.363" gradientTransform="matrix(1.8839 -1.445380e-002 8.766760e-003 1.1427 228.0523 298.1837)" gradientUnits="userSpaceOnUse">
					<stop  offset="0" style="stop-color:#060608"/>
					<stop  offset="0.4902" style="stop-color:#080E10;stop-opacity:0.2314"/>
					<stop  offset="1" style="stop-color:#0C1719;stop-opacity:0"/>
				</radialGradient>
				<path fill-rule="evenodd" clip-rule="evenodd" fill="url(#SVGID_37_)" d="M255.5,199l0.4,0.9c-28.8,38.6-50.6,46.2-65.3,23
					c-0.1-1.1-0.2-2.2-0.4-3.2v-20.5L255.5,199z"/>
				
					<radialGradient id="SVGID_38_" cx="-12.2002" cy="-80.25" r="18.363" gradientTransform="matrix(1.8839 -1.445380e-002 8.766760e-003 1.1427 228.0523 298.1837)" gradientUnits="userSpaceOnUse">
					<stop  offset="0" style="stop-color:#060608"/>
					<stop  offset="0.4902" style="stop-color:#080E10;stop-opacity:0.2314"/>
					<stop  offset="1" style="stop-color:#0C1719;stop-opacity:0"/>
				</radialGradient>
				<path fill-rule="evenodd" clip-rule="evenodd" fill="url(#SVGID_38_)" d="M255.5,199l0.4,0.9c-28.8,38.6-50.6,46.2-65.3,23
					c-0.1-1.1-0.2-2.2-0.4-3.2v-20.5L255.5,199z"/>
			</g>
			<g>
				<rect x="167.8" y="154.3" fill-rule="evenodd" clip-rule="evenodd" fill="#7D8FA3" width="111.1" height="5.1"/>
				<rect x="167.8" y="154.3" fill-rule="evenodd" clip-rule="evenodd" fill="#7D8FA3" width="111.1" height="5.1"/>
			</g>
			<g>
				<g>
					<path fill-rule="evenodd" clip-rule="evenodd" fill-opacity="0.251" d="M237.8,289.4c-3.5,3.7-7.9,5.6-13.3,5.6
						c-5.1,0-9.4-1.9-13-5.6c-3.7-3.7-5.6-8.1-5.6-13.2c0-5.3,1.9-9.7,5.6-13.3c3.6-3.8,7.9-5.7,13-5.7c5.3,0,9.8,1.9,13.3,5.7
						c3.7,3.6,5.6,8,5.6,13.3C243.4,281.3,241.5,285.7,237.8,289.4z"/>
					<path fill-rule="evenodd" clip-rule="evenodd" fill-opacity="0.251" d="M237.8,289.4c-3.5,3.7-7.9,5.6-13.3,5.6
						c-5.1,0-9.4-1.9-13-5.6c-3.7-3.7-5.6-8.1-5.6-13.2c0-5.3,1.9-9.7,5.6-13.3c3.6-3.8,7.9-5.7,13-5.7c5.3,0,9.8,1.9,13.3,5.7
						c3.7,3.6,5.6,8,5.6,13.3C243.4,281.3,241.5,285.7,237.8,289.4z"/>
				</g>
				<g>
					
						<linearGradient id="SVGID_39_" gradientUnits="userSpaceOnUse" x1="-3.9468" y1="-42.3208" x2="3.0283" y2="-45.2955" gradientTransform="matrix(1.884 0 0 1.884 227.3495 357.8495)">
						<stop  offset="0.3098" style="stop-color:#003636;stop-opacity:0"/>
						<stop  offset="1" style="stop-color:#151E27"/>
						<stop  offset="1" style="stop-color:#25363A"/>
					</linearGradient>
					<path fill-rule="evenodd" clip-rule="evenodd" fill="url(#SVGID_39_)" d="M237.8,289.4c-3.5,3.7-7.9,5.6-13.3,5.6
						c-5.1,0-9.4-1.9-13-5.6c-3.7-3.7-5.6-8.1-5.6-13.2c0-5.3,1.9-9.7,5.6-13.3c3.6-3.8,7.9-5.7,13-5.7c5.3,0,9.8,1.9,13.3,5.7
						c3.7,3.6,5.6,8,5.6,13.3C243.4,281.3,241.5,285.7,237.8,289.4z"/>
					
						<linearGradient id="SVGID_40_" gradientUnits="userSpaceOnUse" x1="-3.9468" y1="-42.3208" x2="3.0283" y2="-45.2955" gradientTransform="matrix(1.884 0 0 1.884 227.3495 357.8495)">
						<stop  offset="0.3098" style="stop-color:#003636;stop-opacity:0"/>
						<stop  offset="1" style="stop-color:#151E27"/>
						<stop  offset="1" style="stop-color:#25363A"/>
					</linearGradient>
					<path fill-rule="evenodd" clip-rule="evenodd" fill="url(#SVGID_40_)" d="M237.8,289.4c-3.5,3.7-7.9,5.6-13.3,5.6
						c-5.1,0-9.4-1.9-13-5.6c-3.7-3.7-5.6-8.1-5.6-13.2c0-5.3,1.9-9.7,5.6-13.3c3.6-3.8,7.9-5.7,13-5.7c5.3,0,9.8,1.9,13.3,5.7
						c3.7,3.6,5.6,8,5.6,13.3C243.4,281.3,241.5,285.7,237.8,289.4z"/>
				</g>
				<g>
					<g>
						<path fill-rule="evenodd" clip-rule="evenodd" d="M233.2,280.8c2.4-2.4,3.7-5.3,3.7-8.6c0-3.5-1.2-6.3-3.7-8.6
							c-2.3-2.4-5.2-3.7-8.7-3.7c-3.3,0-6.1,1.2-8.4,3.7c-2.4,2.3-3.7,5.1-3.7,8.6c0,3.3,1.2,6.1,3.7,8.6c2.3,2.4,5.1,3.7,8.4,3.7
							C228,284.5,230.9,283.2,233.2,280.8z M236.8,284.1c-3.4,3.5-7.5,5.2-12.2,5.2c-4.6,0-8.6-1.7-11.9-5.2
							c-3.4-3.3-5.1-7.3-5.1-12c0-4.7,1.7-8.8,5.1-12.2c3.3-3.3,7.2-4.9,11.9-4.9c4.8,0,8.9,1.6,12.2,4.9c3.3,3.4,5,7.4,5,12.2
							C241.8,276.8,240.1,280.8,236.8,284.1z"/>
						<path fill-rule="evenodd" clip-rule="evenodd" d="M233.2,280.8c2.4-2.4,3.7-5.3,3.7-8.6c0-3.5-1.2-6.3-3.7-8.6
							c-2.3-2.4-5.2-3.7-8.7-3.7c-3.3,0-6.1,1.2-8.4,3.7c-2.4,2.3-3.7,5.1-3.7,8.6c0,3.3,1.2,6.1,3.7,8.6c2.3,2.4,5.1,3.7,8.4,3.7
							C228,284.5,230.9,283.2,233.2,280.8z M236.8,284.1c-3.4,3.5-7.5,5.2-12.2,5.2c-4.6,0-8.6-1.7-11.9-5.2
							c-3.4-3.3-5.1-7.3-5.1-12c0-4.7,1.7-8.8,5.1-12.2c3.3-3.3,7.2-4.9,11.9-4.9c4.8,0,8.9,1.6,12.2,4.9c3.3,3.4,5,7.4,5,12.2
							C241.8,276.8,240.1,280.8,236.8,284.1z"/>
						<path fill-rule="evenodd" clip-rule="evenodd" fill="#1B2733" d="M233.2,280.8c-2.3,2.4-5.2,3.7-8.7,3.7
							c-3.3,0-6.1-1.2-8.4-3.7c-2.4-2.4-3.7-5.3-3.7-8.6c0-3.5,1.2-6.3,3.7-8.6c2.3-2.4,5.1-3.7,8.4-3.7c3.5,0,6.3,1.2,8.7,3.7
							c2.4,2.3,3.7,5.1,3.7,8.6C236.9,275.5,235.6,278.3,233.2,280.8z"/>
						<path fill-rule="evenodd" clip-rule="evenodd" fill="#1B2733" d="M233.2,280.8c-2.3,2.4-5.2,3.7-8.7,3.7
							c-3.3,0-6.1-1.2-8.4-3.7c-2.4-2.4-3.7-5.3-3.7-8.6c0-3.5,1.2-6.3,3.7-8.6c2.3-2.4,5.1-3.7,8.4-3.7c3.5,0,6.3,1.2,8.7,3.7
							c2.4,2.3,3.7,5.1,3.7,8.6C236.9,275.5,235.6,278.3,233.2,280.8z"/>
					</g>
				</g>
				<g>
					
						<linearGradient id="SVGID_41_" gradientUnits="userSpaceOnUse" x1="-11.7998" y1="-46.3994" x2="8.9004" y2="-46.3994" gradientTransform="matrix(1.884 0 0 1.884 227.3495 357.8495)">
						<stop  offset="1.960784e-002" style="stop-color:#324E49"/>
						<stop  offset="0.1725" style="stop-color:#57696E"/>
						<stop  offset="0.4627" style="stop-color:#65737C"/>
						<stop  offset="0.8314" style="stop-color:#546069"/>
						<stop  offset="1" style="stop-color:#323943"/>
					</linearGradient>
					<path fill-rule="evenodd" clip-rule="evenodd" fill="url(#SVGID_41_)" d="M238.4,284.2c-3.8,3.8-8.4,5.7-13.8,5.7
						c-5.3,0-9.9-1.9-13.7-5.7c-3.8-3.8-5.7-8.4-5.7-13.8c0-5.3,1.9-10,5.7-13.8c3.8-3.8,8.3-5.7,13.7-5.7c5.4,0,10,1.9,13.8,5.7
						c3.8,3.9,5.7,8.5,5.7,13.8C244.1,275.8,242.2,280.4,238.4,284.2z M235.5,281.4c3-3.1,4.5-6.7,4.5-10.9c0-4.3-1.5-7.9-4.5-10.9
						c-3-3-6.7-4.5-11-4.5c-4.3,0-7.9,1.5-10.8,4.5c-3,3-4.5,6.7-4.5,10.9c0,4.2,1.5,7.8,4.5,10.9c3,3,6.6,4.5,10.8,4.5
						C228.9,285.9,232.5,284.4,235.5,281.4z"/>
					
						<linearGradient id="SVGID_42_" gradientUnits="userSpaceOnUse" x1="-11.7998" y1="-46.3994" x2="8.9004" y2="-46.3994" gradientTransform="matrix(1.884 0 0 1.884 227.3495 357.8495)">
						<stop  offset="1.960784e-002" style="stop-color:#324E49"/>
						<stop  offset="0.1725" style="stop-color:#57696E"/>
						<stop  offset="0.4627" style="stop-color:#65737C"/>
						<stop  offset="0.8314" style="stop-color:#546069"/>
						<stop  offset="1" style="stop-color:#323943"/>
					</linearGradient>
					<path fill-rule="evenodd" clip-rule="evenodd" fill="url(#SVGID_42_)" d="M238.4,284.2c-3.8,3.8-8.4,5.7-13.8,5.7
						c-5.3,0-9.9-1.9-13.7-5.7c-3.8-3.8-5.7-8.4-5.7-13.8c0-5.3,1.9-10,5.7-13.8c3.8-3.8,8.3-5.7,13.7-5.7c5.4,0,10,1.9,13.8,5.7
						c3.8,3.9,5.7,8.5,5.7,13.8C244.1,275.8,242.2,280.4,238.4,284.2z M235.5,281.4c3-3.1,4.5-6.7,4.5-10.9c0-4.3-1.5-7.9-4.5-10.9
						c-3-3-6.7-4.5-11-4.5c-4.3,0-7.9,1.5-10.8,4.5c-3,3-4.5,6.7-4.5,10.9c0,4.2,1.5,7.8,4.5,10.9c3,3,6.6,4.5,10.8,4.5
						C228.9,285.9,232.5,284.4,235.5,281.4z"/>
				</g>
			</g>
			
				<radialGradient id="SVGID_43_" cx="-105.5996" cy="-54.5488" r="12.6992" gradientTransform="matrix(0.7086 0 0 0.2235 299.3 263.45)" gradientUnits="userSpaceOnUse">
				<stop  offset="0" style="stop-color:#FFFFFF"/>
				<stop  offset="3.529412e-002" style="stop-color:#FFFFFF"/>
				<stop  offset="0.2039" style="stop-color:#FFFFFF;stop-opacity:0.4588"/>
				<stop  offset="0.3294" style="stop-color:#FFFFFF;stop-opacity:0.3098"/>
				<stop  offset="0.6627" style="stop-color:#FFFFFF;stop-opacity:5.490196e-002"/>
				<stop  offset="1" style="stop-color:#FFFFFF;stop-opacity:0"/>
			</radialGradient>
			<path fill-rule="evenodd" clip-rule="evenodd" fill="url(#SVGID_43_)" d="M218.3,249.3c1.7-0.5,3.7-0.8,6.1-0.8
				c2.4,0,4.5,0.3,6.1,0.8c1.7,0.5,2.6,1.2,2.6,1.9c0,0.8-0.9,1.4-2.6,1.9c-1.7,0.5-3.7,0.8-6.1,0.8c-2.4,0-4.4-0.3-6.1-0.8
				c-1.7-0.5-2.5-1.2-2.5-1.9C215.8,250.5,216.7,249.9,218.3,249.3z"/>
			
				<radialGradient id="SVGID_44_" cx="-105.5996" cy="-54.5488" r="12.6992" gradientTransform="matrix(0.7086 0 0 0.2235 299.3 263.45)" gradientUnits="userSpaceOnUse">
				<stop  offset="0" style="stop-color:#FFFFFF"/>
				<stop  offset="3.529412e-002" style="stop-color:#FFFFFF"/>
				<stop  offset="0.2039" style="stop-color:#FFFFFF;stop-opacity:0.4588"/>
				<stop  offset="0.3294" style="stop-color:#FFFFFF;stop-opacity:0.3098"/>
				<stop  offset="0.6627" style="stop-color:#FFFFFF;stop-opacity:5.490196e-002"/>
				<stop  offset="1" style="stop-color:#FFFFFF;stop-opacity:0"/>
			</radialGradient>
			<path fill-rule="evenodd" clip-rule="evenodd" fill="url(#SVGID_44_)" d="M218.3,249.3c1.7-0.5,3.7-0.8,6.1-0.8
				c2.4,0,4.5,0.3,6.1,0.8c1.7,0.5,2.6,1.2,2.6,1.9c0,0.8-0.9,1.4-2.6,1.9c-1.7,0.5-3.7,0.8-6.1,0.8c-2.4,0-4.4-0.3-6.1-0.8
				c-1.7-0.5-2.5-1.2-2.5-1.9C215.8,250.5,216.7,249.9,218.3,249.3z"/>
			
				<radialGradient id="SVGID_45_" cx="-1.2998" cy="-38.0996" r="4.7749" gradientTransform="matrix(1.884 0 0 0.5968 227.3495 308.8074)" gradientUnits="userSpaceOnUse">
				<stop  offset="0" style="stop-color:#FFFFFF"/>
				<stop  offset="3.529412e-002" style="stop-color:#FFFFFF"/>
				<stop  offset="0.2039" style="stop-color:#FFFFFF;stop-opacity:0.4588"/>
				<stop  offset="0.3294" style="stop-color:#FFFFFF;stop-opacity:0.3098"/>
				<stop  offset="0.6627" style="stop-color:#FFFFFF;stop-opacity:5.490196e-002"/>
				<stop  offset="1" style="stop-color:#FFFFFF;stop-opacity:0"/>
			</radialGradient>
			<path fill-rule="evenodd" clip-rule="evenodd" fill="url(#SVGID_45_)" d="M233.5,286.1c0,0.8-0.8,1.4-2.5,1.9
				c-1.6,0.6-3.7,0.8-6.1,0.8c-2.4,0-4.4-0.3-6-0.8c-1.7-0.5-2.5-1.1-2.5-1.9c0-0.8,0.8-1.5,2.5-2c1.6-0.5,3.6-0.8,6-0.8
				c2.4,0,4.5,0.3,6.1,0.8C232.6,284.6,233.5,285.3,233.5,286.1z"/>
			
				<radialGradient id="SVGID_46_" cx="-1.2998" cy="-38.0996" r="4.7749" gradientTransform="matrix(1.884 0 0 0.5968 227.3495 308.8074)" gradientUnits="userSpaceOnUse">
				<stop  offset="0" style="stop-color:#FFFFFF"/>
				<stop  offset="3.529412e-002" style="stop-color:#FFFFFF"/>
				<stop  offset="0.2039" style="stop-color:#FFFFFF;stop-opacity:0.4588"/>
				<stop  offset="0.3294" style="stop-color:#FFFFFF;stop-opacity:0.3098"/>
				<stop  offset="0.6627" style="stop-color:#FFFFFF;stop-opacity:5.490196e-002"/>
				<stop  offset="1" style="stop-color:#FFFFFF;stop-opacity:0"/>
			</radialGradient>
			<path fill-rule="evenodd" clip-rule="evenodd" fill="url(#SVGID_46_)" d="M233.5,286.1c0,0.8-0.8,1.4-2.5,1.9
				c-1.6,0.6-3.7,0.8-6.1,0.8c-2.4,0-4.4-0.3-6-0.8c-1.7-0.5-2.5-1.1-2.5-1.9c0-0.8,0.8-1.5,2.5-2c1.6-0.5,3.6-0.8,6-0.8
				c2.4,0,4.5,0.3,6.1,0.8C232.6,284.6,233.5,285.3,233.5,286.1z"/>
			
				<radialGradient id="SVGID_47_" cx="-105.5996" cy="-54.5498" r="12.6997" gradientTransform="matrix(0.7086 0 0 0.2235 298.55 146.2996)" gradientUnits="userSpaceOnUse">
				<stop  offset="0" style="stop-color:#FFFFFF"/>
				<stop  offset="3.529412e-002" style="stop-color:#FFFFFF"/>
				<stop  offset="0.2039" style="stop-color:#FFFFFF;stop-opacity:0.4588"/>
				<stop  offset="0.3294" style="stop-color:#FFFFFF;stop-opacity:0.3098"/>
				<stop  offset="0.6627" style="stop-color:#FFFFFF;stop-opacity:5.490196e-002"/>
				<stop  offset="1" style="stop-color:#FFFFFF;stop-opacity:0"/>
			</radialGradient>
			<path fill-rule="evenodd" clip-rule="evenodd" fill="url(#SVGID_47_)" d="M217.6,132.2c1.7-0.5,3.7-0.8,6.1-0.8
				c2.4,0,4.5,0.3,6.1,0.8c1.7,0.5,2.6,1.2,2.6,1.9c0,0.8-0.9,1.4-2.6,1.9c-1.7,0.5-3.7,0.8-6.1,0.8c-2.4,0-4.4-0.3-6.1-0.8
				c-1.7-0.5-2.5-1.2-2.5-1.9C215.1,133.3,215.9,132.7,217.6,132.2z"/>
			
				<radialGradient id="SVGID_48_" cx="-105.5996" cy="-54.5498" r="12.6997" gradientTransform="matrix(0.7086 0 0 0.2235 298.55 146.2996)" gradientUnits="userSpaceOnUse">
				<stop  offset="0" style="stop-color:#FFFFFF"/>
				<stop  offset="3.529412e-002" style="stop-color:#FFFFFF"/>
				<stop  offset="0.2039" style="stop-color:#FFFFFF;stop-opacity:0.4588"/>
				<stop  offset="0.3294" style="stop-color:#FFFFFF;stop-opacity:0.3098"/>
				<stop  offset="0.6627" style="stop-color:#FFFFFF;stop-opacity:5.490196e-002"/>
				<stop  offset="1" style="stop-color:#FFFFFF;stop-opacity:0"/>
			</radialGradient>
			<path fill-rule="evenodd" clip-rule="evenodd" fill="url(#SVGID_48_)" d="M217.6,132.2c1.7-0.5,3.7-0.8,6.1-0.8
				c2.4,0,4.5,0.3,6.1,0.8c1.7,0.5,2.6,1.2,2.6,1.9c0,0.8-0.9,1.4-2.6,1.9c-1.7,0.5-3.7,0.8-6.1,0.8c-2.4,0-4.4-0.3-6.1-0.8
				c-1.7-0.5-2.5-1.2-2.5-1.9C215.1,133.3,215.9,132.7,217.6,132.2z"/>
			
				<radialGradient id="SVGID_49_" cx="-105.5996" cy="-54.5488" r="12.6992" gradientTransform="matrix(0.7086 0 0 0.2235 298.2004 139.4998)" gradientUnits="userSpaceOnUse">
				<stop  offset="0" style="stop-color:#FFFFFF"/>
				<stop  offset="3.529412e-002" style="stop-color:#FFFFFF"/>
				<stop  offset="0.2039" style="stop-color:#FFFFFF;stop-opacity:0.4588"/>
				<stop  offset="0.3294" style="stop-color:#FFFFFF;stop-opacity:0.3098"/>
				<stop  offset="0.6627" style="stop-color:#FFFFFF;stop-opacity:5.490196e-002"/>
				<stop  offset="1" style="stop-color:#FFFFFF;stop-opacity:0"/>
			</radialGradient>
			<path fill-rule="evenodd" clip-rule="evenodd" fill="url(#SVGID_49_)" d="M217.2,125.4c1.7-0.5,3.7-0.8,6.1-0.8
				c2.4,0,4.5,0.3,6.1,0.8c1.7,0.5,2.6,1.2,2.6,1.9c0,0.8-0.9,1.4-2.6,1.9c-1.7,0.5-3.7,0.8-6.1,0.8c-2.4,0-4.4-0.3-6.1-0.8
				c-1.7-0.5-2.5-1.2-2.5-1.9C214.7,126.5,215.6,125.9,217.2,125.4z"/>
			
				<radialGradient id="SVGID_50_" cx="-105.5996" cy="-54.5488" r="12.6992" gradientTransform="matrix(0.7086 0 0 0.2235 298.2004 139.4998)" gradientUnits="userSpaceOnUse">
				<stop  offset="0" style="stop-color:#FFFFFF"/>
				<stop  offset="3.529412e-002" style="stop-color:#FFFFFF"/>
				<stop  offset="0.2039" style="stop-color:#FFFFFF;stop-opacity:0.4588"/>
				<stop  offset="0.3294" style="stop-color:#FFFFFF;stop-opacity:0.3098"/>
				<stop  offset="0.6627" style="stop-color:#FFFFFF;stop-opacity:5.490196e-002"/>
				<stop  offset="1" style="stop-color:#FFFFFF;stop-opacity:0"/>
			</radialGradient>
			<path fill-rule="evenodd" clip-rule="evenodd" fill="url(#SVGID_50_)" d="M217.2,125.4c1.7-0.5,3.7-0.8,6.1-0.8
				c2.4,0,4.5,0.3,6.1,0.8c1.7,0.5,2.6,1.2,2.6,1.9c0,0.8-0.9,1.4-2.6,1.9c-1.7,0.5-3.7,0.8-6.1,0.8c-2.4,0-4.4-0.3-6.1-0.8
				c-1.7-0.5-2.5-1.2-2.5-1.9C214.7,126.5,215.6,125.9,217.2,125.4z"/>
			<g>
				<polygon fill-rule="evenodd" clip-rule="evenodd" fill="#8AABB0" points="277.4,384.4 272.5,384.4 272.5,379.5 173.9,379.5 
					173.9,384.4 168.9,384.4 168.9,228.5 173.9,373.9 272.5,373.9 277.4,231.2 				"/>
				<polygon fill-rule="evenodd" clip-rule="evenodd" fill="#8AABB0" points="277.4,384.4 272.5,384.4 272.5,379.5 173.9,379.5 
					173.9,384.4 168.9,384.4 168.9,228.5 173.9,373.9 272.5,373.9 277.4,231.2 				"/>
			</g>
		</g>
	</g>
</g>
</svg>
