<?xml version="1.0" encoding="utf-8"?>
<!-- Generator: Adobe Illustrator 16.0.0, SVG Export Plug-In . SVG Version: 6.00 Build 0)  -->
<!DOCTYPE svg PUBLIC "-//W3C//DTD SVG 1.1//EN" "http://www.w3.org/Graphics/SVG/1.1/DTD/svg11.dtd">
<svg version="1.1" xmlns="http://www.w3.org/2000/svg" xmlns:xlink="http://www.w3.org/1999/xlink" x="0px" y="0px" width="72px"
	 height="28.5px" viewBox="0 0 72 28.5" enable-background="new 0 0 72 28.5" xml:space="preserve">
<g id="Layer_1">
	<g>
		<g>
			<path fill="#7C91B0" d="M69.9,16.3C70.1,19,67,21.2,60.5,22.9C54,24.6,46.2,25.2,37,24.7s-17.2-1.9-24-4.2
				c-6.6-2.4-10.1-4.9-10.3-7.7C2.5,10,5.6,7.8,12,6.2C18.5,4.5,26.4,4,35.5,4.5c9.3,0.4,17.3,1.7,24,4S69.6,13.4,69.9,16.3z"/>
		</g>
		<g>
			<path fill="#B9C4D6" d="M59.5,21.7c-6.1,1.5-13.5,2-22.3,1.5c-8.7-0.5-16.3-1.7-22.6-3.8C8.3,17.3,5,15.1,4.8,12.6
				c-0.2-2.4,2.7-4.4,8.8-5.8c6.1-1.4,13.5-1.9,22.3-1.4C44.6,5.8,52.2,7,58.5,9.1c6.4,2.1,9.7,4.3,9.9,6.8
				C68.7,18.4,65.7,20.3,59.5,21.7z"/>
		</g>
	</g>
</g>
<g id="Layer_2">
	<g>
		<path fill="#293445" d="M55.295,15.398l-2.255-0.04l2.359,5.218l-1.502-0.002l-2.506-5.135l-2.177,0.033l-0.58-1.099l6.005-0.07
			L55.295,15.398z M28.874,15.724c-0.158-0.143-0.387-0.207-0.536-0.199c-0.15,0.008-0.296,0.09-0.363,0.244
			c-0.075,0.003-0.143,0.156-0.128,0.456c0.09,0.296,0.265,0.813,0.676,1.544c0.337,0.734,0.587,1.248,0.827,1.537
			c0.161,0.217,0.397,0.431,0.626,0.495c0.153,0.066,0.306,0.135,0.531,0.123c0.149-0.007,0.299-0.015,0.367-0.168
			c0.071-0.078,0.139-0.232,0.128-0.457c-0.086-0.222-0.262-0.737-0.599-1.472c-0.336-0.735-0.666-1.32-0.83-1.612
			C29.263,16.005,29.102,15.787,28.874,15.724z M31.831,17.831c0.583,1.173,0.699,1.993,0.421,2.458
			c-0.207,0.386-0.646,0.632-1.398,0.595c-0.749,0.037-1.435-0.155-2.135-0.646c-0.625-0.496-1.265-1.29-1.852-2.538
			c-0.509-1.177-0.7-1.994-0.422-2.458c0.203-0.461,0.646-0.632,1.395-0.669c0.753,0.037,1.438,0.229,2.06,0.649
			C30.603,15.788,31.248,16.658,31.831,17.831z M24.699,20.961l-2.098-4.479c-0.281,0.39-0.791,0.716-1.383,0.896l-0.58-1.099
			c0.367-0.168,0.659-0.333,0.944-0.647c0.29-0.239,0.42-0.622,0.477-1l1.127,0.02l2.936,6.239L24.699,20.961L24.699,20.961z
			 M38.768,15.311c-0.072,0.079-0.058,0.379,0.114,0.822c0.243,0.363,0.404,0.58,0.636,0.719c0.154,0.067,0.233,0.139,0.383,0.131
			c0.149-0.007,0.296-0.09,0.367-0.167c0.068-0.154-0.018-0.375-0.262-0.738c-0.175-0.518-0.337-0.735-0.419-0.881
			c-0.157-0.143-0.311-0.211-0.536-0.199C38.905,15.079,38.834,15.158,38.768,15.311z M37.608,17.697
			c0.582,1.173,0.702,2.068,0.503,2.604c-0.206,0.386-0.648,0.558-1.401,0.52c-0.75,0.037-1.435-0.154-2.131-0.571
			c-0.625-0.495-1.19-1.293-1.853-2.536c-0.509-1.178-0.624-1.998-0.497-2.455c0.203-0.461,0.645-0.632,1.394-0.669
			c0.754,0.038,1.365,0.233,1.986,0.653C36.459,15.726,37.099,16.52,37.608,17.697z M38.797,14.409
			c0.525-0.026,0.982,0.102,1.371,0.382c0.39,0.282,0.786,0.713,1.04,1.301c0.251,0.514,0.345,0.885,0.135,1.196
			c-0.214,0.235-0.585,0.328-1.038,0.276c-0.521,0.1-0.902-0.031-1.292-0.313c-0.465-0.278-0.861-0.708-1.111-1.222
			c-0.255-0.589-0.277-1.039-0.066-1.349C37.831,14.606,38.198,14.438,38.797,14.409z M34.118,15.466
			c-0.15,0.007-0.301,0.015-0.367,0.167c-0.073,0.079-0.139,0.233-0.125,0.532c0.089,0.296,0.265,0.813,0.602,1.548
			c0.336,0.734,0.662,1.244,0.827,1.536c0.239,0.289,0.397,0.432,0.621,0.42c0.158,0.144,0.312,0.211,0.536,0.2
			c0.15-0.008,0.296-0.09,0.363-0.244c0.072-0.079,0.064-0.228,0.05-0.528c-0.011-0.225-0.262-0.738-0.523-1.477
			c-0.34-0.809-0.591-1.321-0.831-1.611c-0.239-0.288-0.472-0.427-0.625-0.495C34.5,15.597,34.342,15.454,34.118,15.466z
			 M41.822,20.943l0.953-6.581l0.979,0.027l-0.882,6.502L41.822,20.943z M45.306,18.444c-0.068,0.153-0.053,0.453,0.115,0.82
			c0.172,0.442,0.337,0.734,0.568,0.873c0.153,0.067,0.307,0.136,0.386,0.206c0.226-0.011,0.296-0.089,0.364-0.242
			c-0.008-0.15-0.095-0.371-0.341-0.81c-0.169-0.367-0.329-0.585-0.49-0.802c-0.153-0.068-0.307-0.136-0.457-0.129
			C45.373,18.29,45.302,18.369,45.306,18.444z M46.71,18c0.39,0.28,0.712,0.716,0.966,1.304s0.353,1.034,0.138,1.271
			c-0.136,0.306-0.428,0.471-0.952,0.497c-0.524,0.025-0.984-0.177-1.449-0.455c-0.389-0.28-0.786-0.712-1.115-1.296
			c-0.177-0.518-0.198-0.967-0.063-1.274c0.215-0.236,0.511-0.325,1.035-0.351C45.789,17.594,46.246,17.722,46.71,18z"/>
	</g>
</g>
<g id="Layer_3">
	<g>
		<g>
			<path fill="#293445" d="M25.532,10.145c0.767,1.655-0.279,2.377-1.583,2.377c-1.46,0-2.944-0.889-3.516-2.303
				c-0.604-1.497,0.159-2.377,1.572-2.377C23.472,7.842,24.897,8.775,25.532,10.145z M21.388,10.191
				c0.407,0.979,1.389,1.721,2.34,1.721c0.93,0,1.297-0.731,0.841-1.74c-0.343-0.759-1.213-1.719-2.318-1.719
				C21.144,8.453,21.035,9.341,21.388,10.191z"/>
			<path fill="#293445" d="M30.524,10.459l0.241,1.961h-1.003l-0.743-6.232h1.085l5.935,6.232h-1.034l-1.88-1.961H30.524z
				 M32.585,9.832l-1.681-1.796c-0.376-0.407-0.681-0.777-0.978-1.137h-0.021c0.093,0.37,0.179,0.748,0.242,1.127l0.245,1.806
				H32.585z"/>
			<path fill="#293445" d="M33.609,6.27c0.351-0.073,0.939-0.129,1.569-0.129c0.898,0,1.564,0.139,2.196,0.453
				c0.515,0.24,0.969,0.609,1.28,1.101c0.381,0.601,0.256,1.127-0.352,1.368l0.011,0.019c0.777,0.147,1.895,0.639,2.483,1.563
				c0.342,0.537,0.349,0.944,0.164,1.248c-0.271,0.397-1.002,0.583-2.227,0.583c-0.668,0-1.201-0.036-1.547-0.073L33.609,6.27z
				 M36.028,8.821h0.843c0.983,0,1.284-0.443,0.91-1.044c-0.455-0.73-1.26-1.019-2.178-1.019c-0.415,0-0.639,0.029-0.769,0.056
				L36.028,8.821z M37.806,11.81c0.204,0.026,0.486,0.037,0.828,0.037c0.996,0,1.723-0.306,1.156-1.211
				c-0.532-0.851-1.602-1.203-2.623-1.203h-0.775L37.806,11.81z"/>
			<path fill="#293445" d="M42.52,11.438c0.574,0.224,1.326,0.408,1.989,0.408c0.984,0,1.261-0.435,0.827-1.063
				c-0.401-0.583-1.019-0.916-2.221-1.239c-1.422-0.361-2.491-0.887-3.063-1.767c-0.632-0.972-0.203-1.692,1.149-1.692
				c0.713,0,1.333,0.148,1.753,0.306l0.206,0.656c-0.306-0.111-0.903-0.296-1.537-0.296c-0.958,0-0.987,0.508-0.705,0.935
				c0.385,0.582,1.011,0.869,2.226,1.201c1.499,0.407,2.478,0.916,3.118,1.831c0.673,0.962,0.399,1.795-1.372,1.795
				c-0.725,0-1.63-0.177-2.175-0.397L42.52,11.438z"/>
		</g>
	</g>
</g>
</svg>
