<?xml version="1.0" encoding="utf-8"?>
<!-- Generator: Adobe Illustrator 16.0.0, SVG Export Plug-In . SVG Version: 6.00 Build 0)  -->
<!DOCTYPE svg PUBLIC "-//W3C//DTD SVG 1.1//EN" "http://www.w3.org/Graphics/SVG/1.1/DTD/svg11.dtd">
<svg version="1.1" xmlns="http://www.w3.org/2000/svg" xmlns:xlink="http://www.w3.org/1999/xlink" x="0px" y="0px" width="700px"
	 height="700px" viewBox="0 0 700 700" enable-background="new 0 0 700 700" xml:space="preserve">
<g id="Layer_2">
	<g>
		<g>
			<path fill="#7C91B1" d="M577.8,440.3c0.2,2.7-2.899,5-9.399,6.7c-6.4,1.7-14.301,2.3-23.5,1.8c-9.2-0.5-17.2-1.899-24-4.3
				c-6.7-2.3-10.101-4.8-10.301-7.7c-0.199-2.8,2.9-5,9.301-6.7c6.5-1.6,14.3-2.1,23.5-1.6c9.3,0.4,17.3,1.8,24,4
				C574.2,434.9,577.6,437.5,577.8,440.3z"/>
		</g>
		<g>
			<path fill="#93A4BF" d="M567.5,446.5c-6.1,1.5-13.6,2-22.3,1.5s-16.3-1.7-22.7-3.8c-6.3-2-9.6-4.3-9.8-6.7s2.8-4.4,8.899-5.8
				c6.101-1.4,13.5-1.9,22.301-1.4c8.699,0.4,16.3,1.601,22.6,3.7c6.4,2.1,9.7,4.3,9.9,6.8C576.6,443.1,573.7,445.1,567.5,446.5z"/>
		</g>
		<g>
			<path fill="#293445" d="M564.386,441.519l-2.25-0.15l2.1,5.327l-1.5-0.076l-2.25-5.251l-2.176-0.074l-0.525-1.126l6.001,0.226
				L564.386,441.519z M537.98,440.544c-0.15-0.15-0.376-0.226-0.525-0.226c-0.15,0-0.301,0.075-0.375,0.226
				c-0.075,0-0.15,0.149-0.15,0.449c0.075,0.301,0.225,0.826,0.6,1.576c0.301,0.75,0.525,1.275,0.75,1.575
				c0.15,0.225,0.376,0.45,0.602,0.525c0.149,0.074,0.299,0.149,0.524,0.149c0.149,0,0.3,0,0.375-0.149
				c0.075-0.075,0.15-0.226,0.15-0.45c-0.075-0.226-0.226-0.75-0.525-1.5c-0.3-0.751-0.601-1.352-0.75-1.651
				C538.355,440.844,538.205,440.618,537.98,440.544z M540.831,442.794c0.524,1.2,0.6,2.025,0.3,2.476
				c-0.226,0.375-0.676,0.6-1.426,0.525c-0.75,0-1.426-0.226-2.101-0.75c-0.6-0.525-1.2-1.351-1.725-2.626
				c-0.45-1.2-0.601-2.025-0.301-2.476c0.226-0.45,0.676-0.6,1.426-0.6c0.75,0.074,1.425,0.3,2.025,0.75
				C539.705,440.693,540.306,441.594,540.831,442.794z M533.554,445.569l-1.875-4.576c-0.3,0.375-0.825,0.676-1.425,0.826
				l-0.525-1.126c0.375-0.149,0.675-0.3,0.975-0.6c0.301-0.226,0.45-0.601,0.525-0.976l1.125,0.075l2.626,6.376H533.554
				L533.554,445.569z M547.883,440.618c-0.076,0.075-0.076,0.375,0.074,0.826c0.225,0.375,0.375,0.6,0.6,0.75
				c0.15,0.074,0.226,0.149,0.376,0.149c0.149,0,0.3-0.075,0.375-0.149c0.075-0.15,0-0.375-0.226-0.75
				c-0.149-0.525-0.3-0.751-0.375-0.9c-0.15-0.15-0.3-0.226-0.525-0.226C548.032,440.394,547.957,440.469,547.883,440.618z
				 M546.607,442.944c0.524,1.2,0.6,2.101,0.375,2.625c-0.226,0.376-0.676,0.525-1.426,0.45c-0.75,0-1.425-0.225-2.101-0.675
				c-0.6-0.525-1.125-1.351-1.726-2.625c-0.45-1.201-0.524-2.026-0.375-2.477c0.226-0.45,0.675-0.6,1.425-0.6
				c0.751,0.075,1.352,0.3,1.951,0.75C545.557,440.919,546.156,441.743,546.607,442.944z M547.957,439.719
				c0.525,0,0.976,0.149,1.351,0.449c0.375,0.301,0.75,0.751,0.975,1.351c0.226,0.525,0.301,0.9,0.075,1.201
				c-0.225,0.225-0.6,0.299-1.05,0.225c-0.525,0.074-0.9-0.075-1.275-0.375c-0.45-0.301-0.825-0.75-1.05-1.275
				c-0.226-0.601-0.226-1.051,0-1.351C546.982,439.868,547.357,439.719,547.957,439.719z M543.231,440.544
				c-0.15,0-0.301,0-0.375,0.149c-0.076,0.075-0.15,0.226-0.15,0.525c0.074,0.3,0.225,0.825,0.525,1.575
				c0.3,0.75,0.6,1.275,0.75,1.575c0.225,0.301,0.375,0.45,0.6,0.45c0.15,0.15,0.301,0.226,0.525,0.226
				c0.15,0,0.3-0.075,0.375-0.226c0.075-0.075,0.075-0.225,0.075-0.525c0-0.225-0.226-0.75-0.45-1.5
				c-0.3-0.825-0.525-1.35-0.75-1.65c-0.225-0.3-0.45-0.45-0.6-0.525C543.606,440.693,543.456,440.544,543.231,440.544z
				 M550.657,446.395l1.275-6.526l0.976,0.075l-1.2,6.451H550.657z M554.259,444.069c-0.075,0.15-0.075,0.45,0.075,0.825
				c0.149,0.45,0.3,0.75,0.524,0.9c0.15,0.074,0.3,0.15,0.375,0.225c0.226,0,0.3-0.074,0.376-0.225c0-0.15-0.076-0.375-0.301-0.825
				c-0.15-0.375-0.3-0.601-0.45-0.825c-0.149-0.075-0.3-0.15-0.45-0.15C554.334,443.919,554.259,443.994,554.259,444.069z
				 M555.684,443.694c0.375,0.3,0.676,0.75,0.9,1.351c0.225,0.6,0.301,1.05,0.075,1.275c-0.15,0.299-0.45,0.449-0.976,0.449
				s-0.975-0.225-1.425-0.525c-0.375-0.299-0.75-0.75-1.051-1.35c-0.15-0.525-0.15-0.976,0-1.275c0.226-0.226,0.525-0.3,1.051-0.3
				C554.783,443.244,555.233,443.394,555.684,443.694z"/>
		</g>
	</g>
</g>
<g id="Layer_3">
	<g>
		<g>
			<path fill="#293445" d="M534.531,435.145c0.768,1.655-0.279,2.377-1.583,2.377c-1.46,0-2.944-0.889-3.516-2.303
				c-0.604-1.497,0.158-2.377,1.572-2.377C532.472,432.842,533.897,433.775,534.531,435.145z M530.388,435.191
				c0.406,0.979,1.389,1.721,2.34,1.721c0.93,0,1.297-0.731,0.841-1.74c-0.343-0.759-1.213-1.719-2.318-1.719
				C530.144,433.453,530.035,434.341,530.388,435.191z"/>
			<path fill="#293445" d="M539.524,435.459l0.24,1.961h-1.002l-0.744-6.232h1.086l5.935,6.232h-1.034l-1.88-1.961H539.524z
				 M541.586,434.832l-1.682-1.796c-0.377-0.407-0.681-0.777-0.978-1.137h-0.021c0.093,0.37,0.179,0.748,0.242,1.127l0.244,1.806
				H541.586z"/>
			<path fill="#293445" d="M542.609,431.27c0.351-0.073,0.939-0.129,1.569-0.129c0.898,0,1.564,0.139,2.196,0.453
				c0.515,0.24,0.969,0.609,1.28,1.101c0.381,0.601,0.256,1.127-0.352,1.368l0.011,0.019c0.777,0.147,1.895,0.639,2.483,1.563
				c0.342,0.537,0.349,0.944,0.164,1.248c-0.271,0.397-1.002,0.583-2.227,0.583c-0.668,0-1.201-0.036-1.547-0.073L542.609,431.27z
				 M545.028,433.821h0.843c0.983,0,1.284-0.443,0.91-1.044c-0.455-0.73-1.26-1.019-2.178-1.019c-0.415,0-0.639,0.029-0.769,0.056
				L545.028,433.821z M546.806,436.81c0.204,0.026,0.486,0.037,0.828,0.037c0.996,0,1.723-0.306,1.156-1.211
				c-0.532-0.851-1.602-1.203-2.623-1.203h-0.775L546.806,436.81z"/>
			<path fill="#293445" d="M551.52,436.438c0.574,0.224,1.326,0.408,1.989,0.408c0.984,0,1.261-0.435,0.827-1.063
				c-0.401-0.583-1.019-0.916-2.221-1.239c-1.422-0.361-2.491-0.887-3.063-1.767c-0.632-0.972-0.203-1.692,1.149-1.692
				c0.713,0,1.333,0.148,1.753,0.306l0.206,0.656c-0.306-0.111-0.903-0.296-1.537-0.296c-0.958,0-0.987,0.508-0.705,0.935
				c0.385,0.582,1.011,0.869,2.226,1.201c1.499,0.407,2.478,0.916,3.118,1.831c0.673,0.962,0.399,1.795-1.372,1.795
				c-0.725,0-1.63-0.177-2.175-0.397L551.52,436.438z"/>
		</g>
	</g>
</g>
</svg>
