<?xml version="1.0" encoding="utf-8"?>
<!-- Generator: Adobe Illustrator 16.0.0, SVG Export Plug-In . SVG Version: 6.00 Build 0)  -->
<!DOCTYPE svg PUBLIC "-//W3C//DTD SVG 1.1//EN" "http://www.w3.org/Graphics/SVG/1.1/DTD/svg11.dtd">
<svg version="1.1" xmlns="http://www.w3.org/2000/svg" xmlns:xlink="http://www.w3.org/1999/xlink" x="0px" y="0px" width="700px"
	 height="700px" viewBox="0 0 700 700" enable-background="new 0 0 700 700" xml:space="preserve">
<g id="Layer_2">
	<g>
		<g>
			<polygon fill="none" points="503.1,64 503.2,62 476.6,62 476.5,64 			"/>
			<polygon fill="none" points="596.7,64 596.6,62 567.2,62 567.2,64 			"/>
			<polygon fill="none" points="551.7,64 551.6,62 522.2,62 522.2,64 			"/>
			<polygon fill="#588A9E" points="596.7,64 567.2,64 567.2,62 551.6,62 551.7,64 522.2,64 522.2,62 503.2,62 503.1,64 476.5,64 
				476.6,62 447.7,62 447,65.5 447,65.5 515.5,65.5 519.7,65.5 523,65.5 551.6,65.5 557.3,65.5 560.5,65.5 616.2,65.5 615.1,62 
				596.6,62 			"/>
			<polygon fill="#365461" points="560.5,66 557.3,66 515.5,66 447,66 447,71.5 515.5,71.5 557.3,71.5 560.5,71.5 602.3,71.5 
				616.2,71.5 616.2,66 601.6,66 			"/>
			<linearGradient id="SVGID_1_" gradientUnits="userSpaceOnUse" x1="348.25" y1="65.75" x2="684.75" y2="65.75">
				<stop  offset="0" style="stop-color:#365461"/>
				<stop  offset="0.4745" style="stop-color:#ACC7D0"/>
				<stop  offset="1" style="stop-color:#365461"/>
			</linearGradient>
			<polygon fill="url(#SVGID_1_)" points="557.3,65.5 551.6,65.5 523,65.5 519.7,65.5 515.5,65.5 447,65.5 447,66 515.5,66 
				557.3,66 560.5,66 601.6,66 616.2,66 616.2,65.5 560.5,65.5 			"/>
		</g>
	</g>
</g>
<g id="Layer_3">
</g>
</svg>
