<?xml version="1.0" encoding="utf-8"?>
<!-- Generator: Adobe Illustrator 16.0.0, SVG Export Plug-In . SVG Version: 6.00 Build 0)  -->
<!DOCTYPE svg PUBLIC "-//W3C//DTD SVG 1.1//EN" "http://www.w3.org/Graphics/SVG/1.1/DTD/svg11.dtd">
<svg version="1.1" id="Layer_2" xmlns="http://www.w3.org/2000/svg" xmlns:xlink="http://www.w3.org/1999/xlink" x="0px" y="0px"
	 width="700px" height="700px" viewBox="0 0 700 700" enable-background="new 0 0 700 700" xml:space="preserve">
<g>
	<g>
		<path fill-rule="evenodd" clip-rule="evenodd" fill="#8497B7" d="M439.5,434c11,0.6,21.4,2,31,4.1c11.8,2.6,19,5.7,21.8,9.2
			s0,6.3-8.2,8.4c-8.2,2.3-19.4,3.3-33.5,3c-6.3-0.2-12.9-0.6-19.8-1.2l-5.2-23.7L439.5,434z"/>
	</g>
	<g>
		<path fill-rule="evenodd" clip-rule="evenodd" fill="#B8C3D5" d="M428.5,435.4c2.8,0,4.6,0,5.2,0c12.9,0.3,24.8,1.5,35.5,3.7
			c10.7,2.2,17.2,4.8,19.3,7.7c2.3,2.8-0.4,5.2-8,7c-7.6,1.9-17.8,2.7-30.8,2.4c-5.8-0.1-11.3-0.4-16.6-0.9L428.5,435.4z"/>
	</g>
	<g>
		<polygon fill-rule="evenodd" clip-rule="evenodd" fill="#806000" points="451,440 442,452.9 431.3,439 		"/>
	</g>
	<g>
		<polygon fill-rule="evenodd" clip-rule="evenodd" fill="#FFCC33" points="448.3,441.2 441.7,450.5 433.9,440.3 		"/>
	</g>
</g>
</svg>
