<?xml version="1.0" encoding="utf-8"?>
<!-- Generator: Adobe Illustrator 16.0.0, SVG Export Plug-In . SVG Version: 6.00 Build 0)  -->
<!DOCTYPE svg PUBLIC "-//W3C//DTD SVG 1.1//EN" "http://www.w3.org/Graphics/SVG/1.1/DTD/svg11.dtd">
<svg version="1.1" id="Layer_1" xmlns="http://www.w3.org/2000/svg" xmlns:xlink="http://www.w3.org/1999/xlink" x="0px" y="0px"
	 width="82.2px" height="28.5px" viewBox="0 0 82.2 28.5" enable-background="new 0 0 82.2 28.5" xml:space="preserve">
<g>
	<g>
		<path fill="#7C91B0" d="M70.3,23.4c-7.4,2.2-16.6,3.2-27.5,2.9C32,26,22.5,24.6,14.3,22.1c-8-2.4-12.2-5.3-12.7-8.6
			c-0.5-3.3,3-6,10.4-8.2c7.5-2.1,16.7-3,27.5-2.7C50.4,2.7,60,4,68,6.5c8.1,2.5,12.3,5.4,12.8,8.7C81.4,18.5,77.8,21.2,70.3,23.4z"
			/>
	</g>
	<g>
		<path fill="#B9C4D6" d="M69.3,22c-7.1,1.9-15.8,2.8-26.1,2.5c-10.3-0.3-19.3-1.5-27-3.7c-7.6-2.2-11.6-4.7-12-7.6
			C3.7,10.3,7,8,14.1,6.2c7.1-1.9,15.8-2.7,26.2-2.4C50.6,4,59.5,5.2,67.1,7.3c7.7,2.3,11.7,4.8,12.1,7.6
			C79.6,17.8,76.3,20.2,69.3,22z"/>
	</g>
	<g>
		<path fill="#293445" d="M51.3,19.9l-2.8-9.5l-3.7-0.2l-0.5-1.9l10,0.3l0.5,2l-3.7-0.1l2.8,9.4H51.3z M28.9,14.8l3.5,0.2l-3-4.3
			L28.9,14.8z M30,8l8.5,11.5h-2.8l-1.9-2.6l-5-0.1l-0.3,2.5l-2.7-0.1l1.6-11.1L30,8z M40.1,22V6.4L42,6.5v15.6L40.1,22z"/>
	</g>
</g>
</svg>
