<?xml version="1.0" encoding="utf-8"?>
<!-- Generator: Adobe Illustrator 16.0.0, SVG Export Plug-In . SVG Version: 6.00 Build 0)  -->
<!DOCTYPE svg PUBLIC "-//W3C//DTD SVG 1.1//EN" "http://www.w3.org/Graphics/SVG/1.1/DTD/svg11.dtd">
<svg version="1.1" xmlns="http://www.w3.org/2000/svg" xmlns:xlink="http://www.w3.org/1999/xlink" x="0px" y="0px" width="700px"
	 height="700px" viewBox="0 0 700 700" enable-background="new 0 0 700 700" xml:space="preserve">
<g id="Layer_1">
	<g id="Layer_10">
	</g>
	<g id="Layer_1_1_">
		<g>
			
				<radialGradient id="SVGID_1_" cx="440.5098" cy="-160.2974" r="458.5334" gradientTransform="matrix(1 0 0 -0.9302 -97.6602 485.9218)" gradientUnits="userSpaceOnUse">
				<stop  offset="0" style="stop-color:#FFFFFF"/>
				<stop  offset="0.6" style="stop-color:#FEFEFE;stop-opacity:0.7804"/>
				<stop  offset="0.7804" style="stop-color:#FCFCFC;stop-opacity:0.2706"/>
				<stop  offset="1" style="stop-color:#FAFAFA;stop-opacity:0"/>
			</radialGradient>
			<path fill="url(#SVGID_1_)" d="M773.5,635.7c-0.2,0.1-0.3,0.1-0.5,0.1H-87.3c-0.2,0-0.4,0-0.5-0.1c-0.2-0.2-0.3-0.4-0.3-0.601
				c0-0.199,0.1-0.3,0.3-0.5c0.1-0.199,0.3-0.3,0.5-0.3H773c0.2,0,0.3,0.101,0.5,0.3c0.2,0.2,0.3,0.301,0.3,0.5
				C773.8,635.3,773.7,635.5,773.5,635.7z"/>
			<g>
				
					<linearGradient id="SVGID_2_" gradientUnits="userSpaceOnUse" x1="439.9102" y1="-200.1104" x2="439.9102" y2="-348.1104" gradientTransform="matrix(1 0 0 -1 -97.6602 480.04)">
					<stop  offset="0" style="stop-color:#191410"/>
					<stop  offset="0.3176" style="stop-color:#342921"/>
					<stop  offset="1" style="stop-color:#342921"/>
				</linearGradient>
				<rect x="-87.9" y="609.8" fill="url(#SVGID_2_)" width="860.3" height="133"/>
			</g>
			<g>
				
					<radialGradient id="SVGID_3_" cx="434.6602" cy="76.2505" r="504.2872" gradientTransform="matrix(1 0 0 -1.1319 -97.6602 498.2905)" gradientUnits="userSpaceOnUse">
					<stop  offset="0" style="stop-color:#BEC8AE"/>
					<stop  offset="0.3961" style="stop-color:#95A393"/>
					<stop  offset="0.7137" style="stop-color:#5C716E"/>
					<stop  offset="0.7451" style="stop-color:#596E6C"/>
					<stop  offset="1" style="stop-color:#395257"/>
				</radialGradient>
				<rect x="-87.9" y="-102.1" fill="url(#SVGID_3_)" width="860.3" height="595.8"/>
			</g>
			<g>
				
					<linearGradient id="SVGID_4_" gradientUnits="userSpaceOnUse" x1="440.2314" y1="-28.9937" x2="440.2608" y2="-2.8185" gradientTransform="matrix(1 0 0 -1 -97.6602 480.04)">
					<stop  offset="0" style="stop-color:#000000"/>
					<stop  offset="0.1529" style="stop-color:#000000;stop-opacity:0.6588"/>
					<stop  offset="1" style="stop-color:#000000;stop-opacity:0"/>
				</linearGradient>
				<path fill="url(#SVGID_4_)" d="M772.5,520.3c0,4.9-0.9,7.3-2.8,7.3H-84.5c-1.8,0-2.8-2.399-2.8-7.3V448h859.8V520.3z"/>
			</g>
			<g>
				<g>
					<rect x="-89.1" y="666.8" fill="#493A25" width="860.6" height="20.601"/>
					
						<radialGradient id="SVGID_5_" cx="397.71" cy="-52.0596" r="490.25" gradientTransform="matrix(1 0 0 -1 -97.6602 480.04)" gradientUnits="userSpaceOnUse">
						<stop  offset="0" style="stop-color:#866140"/>
						<stop  offset="1" style="stop-color:#433821"/>
					</radialGradient>
					<rect x="-89.1" y="408.8" fill="url(#SVGID_5_)" width="860.6" height="258"/>
				</g>
			</g>
			<g>
				
					<radialGradient id="SVGID_6_" cx="190.6133" cy="2585.4219" r="473.0617" gradientTransform="matrix(1 0 0.0087 0.0261 126.8886 599.1168)" gradientUnits="userSpaceOnUse">
					<stop  offset="0" style="stop-color:#FFFFFF;stop-opacity:0.502"/>
					<stop  offset="0.749" style="stop-color:#FFFFFF;stop-opacity:0.251"/>
					<stop  offset="1" style="stop-color:#FFFFFF;stop-opacity:0"/>
				</radialGradient>
				<polygon fill="url(#SVGID_6_)" points="766.3,666.8 -85.9,666.8 -86,666.3 766.1,666.3 				"/>
			</g>
		</g>
		<g>
			
				<linearGradient id="SVGID_7_" gradientUnits="userSpaceOnUse" x1="696.5605" y1="349.9902" x2="696.5605" y2="313.9903" gradientTransform="matrix(1 0 0 -1 -97.6602 480.04)">
				<stop  offset="0" style="stop-color:#41403E"/>
				<stop  offset="0.9529" style="stop-color:#31302E;stop-opacity:0"/>
			</linearGradient>
			<polygon fill="url(#SVGID_7_)" points="715.2,-89.3 715.2,-89.1 772.7,-88.8 772.7,169.3 440.3,169.3 425.1,130.2 425.1,-90.2 
				473.5,-90 473.5,-89.9 554.2,-89.4 			"/>
		</g>
		<g>
			<g>
				<path fill="#AC6C4B" d="M419.1-85h1.301c-0.4,0.1-0.9,0.2-1.301,0.3V-85z M744.3,124V11h-9h-301v99.5V124H744.3z M424.5-85
					h329.8v222.5H424.8L424.5-85z"/>
				<polygon fill="#71452B" points="434.2,110.5 735.2,110.5 735.2,110.3 735.2,110.3 735.2,110.3 744.3,124 434.2,124 				"/>
				
					<linearGradient id="SVGID_8_" gradientUnits="userSpaceOnUse" x1="682.3604" y1="362.3896" x2="682.3604" y2="468.9897" gradientTransform="matrix(1 0 0 -1 -97.6602 480.04)">
					<stop  offset="0" style="stop-color:#AC6C4B"/>
					<stop  offset="1" style="stop-color:#693F27"/>
				</linearGradient>
				<polygon fill="url(#SVGID_8_)" points="735.2,11 735.2,110.3 735.2,110.3 735.2,110.3 735.2,110.5 434.2,110.5 434.2,11 				"/>
			</g>
		</g>
		<g>
			
				<linearGradient id="SVGID_9_" gradientUnits="userSpaceOnUse" x1="451.8105" y1="-2.1104" x2="451.8105" y2="-223.4103" gradientTransform="matrix(1 0 0 -1 -97.6602 480.04)">
				<stop  offset="0" style="stop-color:#000000"/>
				<stop  offset="1" style="stop-color:#000000;stop-opacity:0"/>
			</linearGradient>
			<polygon fill="url(#SVGID_9_)" points="48.6,666 97.1,519.6 597,519.6 659.7,666 			"/>
		</g>
		<g>
			
				<linearGradient id="SVGID_10_" gradientUnits="userSpaceOnUse" x1="449.1094" y1="-154.7598" x2="449.1094" y2="-170.7598" gradientTransform="matrix(1 0 0 -1 -97.6602 480.04)">
				<stop  offset="0" style="stop-color:#000000"/>
				<stop  offset="1" style="stop-color:#000000;stop-opacity:0"/>
			</linearGradient>
			<polygon fill="url(#SVGID_10_)" points="85.3,650 97,623.6 605.8,623.6 617.6,650 			"/>
		</g>
		<g>
			<g>
				<g>
					<path fill="#D2D6DF" d="M573.3,387.3c0.4,0.4,0.8,0.9,1.3,1.4c3.2,3.899,7.4,12.2,12.4,24.8c0.1,0.1,0.1,0.2,0.2,0.4
						c0.1,0.1,0.1,0.199,0.2,0.3c0,0.1,0.1,0.2,0.1,0.399c0.1,0.101,0.2,0.301,0.2,0.5c0.1,0.4,0.3,0.801,0.5,1.2
						c0.1,0.4,0.3,0.8,0.5,1.2c0.5,1.3,1,2.7,1.5,4c0.399,1,0.8,2.1,1.3,3.3c4,10.9,8.5,24,13.5,39.5c3.5,10.8,7.2,22.7,11.2,35.7
						c-4.3-13-8.3-24.8-12-35.7c-5.4-15.5-10.2-28.6-14.5-39.5c-0.4-1.1-0.8-2.2-1.3-3.3c-4.9-12.1-9.101-21.1-12.601-26.9l-7.3-12
						c1.2,0.2,2.6,1.601,4.4,4.301c0.1,0.1,0.1,0.1,0.1,0.1C573.1,387.2,573.2,387.3,573.3,387.3z"/>
					
						<linearGradient id="SVGID_11_" gradientUnits="userSpaceOnUse" x1="450.4102" y1="82.2529" x2="450.4102" y2="109.528" gradientTransform="matrix(1 0 0 -1 -97.6602 480.04)">
						<stop  offset="0" style="stop-color:#EDF1FC"/>
						<stop  offset="1" style="stop-color:#949AA8"/>
					</linearGradient>
					<path fill="url(#SVGID_11_)" d="M616.3,500c0.5,1.9,1.101,3.8,1.8,5.8c3.4,11.3,7,23.4,10.801,36.3H618H383.7h-49.9L315,542
						l3.4,0.1H315.8H308l6.9,0.2L113.1,542H113H76.6c1-5.3,2.1-10.5,3.3-15.6c1.4-6.5,2.9-12.801,4.4-19
						c10.4-35.7,22.7-68.7,37-98.801c1.2-2.399,2.9-5.699,5.2-9.8c0.5-1,1-2,1.6-2.899c1.6-2.9,3.3-5.601,4.9-8
						c1.2-1.7,2.6-3.5,4.5-5.4c0.3-0.4,0.7-0.8,1.1-1.2c0.1,0,0.1-0.1,0.1-0.2c0.1-0.1,0.2-0.1,0.3-0.3c0.1-0.1,0.1-0.2,0.3-0.3
						c0,0,0,0,0.1,0l0,0c0,0,0.1-0.1,0.2-0.1c0.2-0.4,0.4-0.801,0.6-1.2c0.6-0.9,1.5-1.7,2.7-2.3l0.3-0.101c1.2-0.1,2.7-0.2,4.6-0.2
						c2.7-0.1,6.2-0.1,10.5-0.1c2.7,0,5.3,0,8,0.1c4.1,0,8.3,0,12.4,0c1.3,0,2.7,0,4,0c0.3,0,0.7,0,1-0.1h374.6
						c6.5,1.8,11.5,5.3,15.2,10.4c-0.1,0.1-0.2,0.1-0.2,0.1c-0.2-0.1-0.3-0.2-0.3-0.3c0,0-0.1,0-0.1-0.101
						c-1.801-2.699-3.2-4.1-4.4-4.3l7.3,12c3.5,5.8,7.7,14.8,12.601,26.9c0.399,1,0.8,2.1,1.3,3.3c4.3,10.9,9.2,24,14.5,39.5
						C608,475.2,612,487,616.3,500z M238.4,379.3c-0.2,0-0.3,0-0.5,0.101c1.3,0,2.7,0,4.1,0C240.8,379.4,239.6,379.3,238.4,379.3z
						 M303.6,542.1c0,0,0,0,0.101,0H303.6L303.6,542.1z"/>
					
						<linearGradient id="SVGID_12_" gradientUnits="userSpaceOnUse" x1="230.9102" y1="97.8379" x2="419.9102" y2="97.8379" gradientTransform="matrix(1 0 0 -1 -97.6602 480.04)">
						<stop  offset="0" style="stop-color:#B8BECA"/>
						<stop  offset="1" style="stop-color:#343A43"/>
					</linearGradient>
					<path fill="url(#SVGID_12_)" d="M137.4,382.7c-1.3,0.3-1.6,0.3-0.8-0.2c0.8-0.5,1.4-0.8,1.9-1
						C138,381.8,137.7,382.2,137.4,382.7z"/>
					
						<linearGradient id="SVGID_13_" gradientUnits="userSpaceOnUse" x1="181.96" y1="37.79" x2="232.785" y2="37.79" gradientTransform="matrix(1 0 0 -1 -97.6602 480.04)">
						<stop  offset="0" style="stop-color:#EAEEF9"/>
						<stop  offset="1" style="stop-color:#B6BCC8"/>
					</linearGradient>
					<path fill="url(#SVGID_13_)" d="M84.3,507.5c10.3-42,23.1-77.4,38.6-106c1-1.8,2-3.7,3.1-5.5c1.5-2.8,3.1-5.5,4.8-8.2
						c1-1.7,2.8-3.899,5.3-6.7c0.6-0.699,1.3-1.199,1.9-1.699c1.4-1.101,2.8-1.801,4.2-2.2c0.3-0.101,0.6-0.101,1-0.2l-0.3,0.1
						c-1.2,0.601-2.1,1.301-2.7,2.301c-0.2,0.399-0.5,0.799-0.6,1.199c-0.1,0-0.1,0.101-0.2,0.101l0,0c-0.1,0-0.1,0-0.1,0
						c-0.1,0.1-0.2,0.2-0.3,0.3s-0.2,0.2-0.3,0.3c0,0.101-0.1,0.101-0.1,0.2c-0.5,0.2-1.1,0.6-1.9,1c-0.8,0.4-0.5,0.5,0.8,0.2
						c-1.8,1.899-3.3,3.7-4.5,5.399c-1.6,2.4-3.2,5-4.9,8c-0.6,0.9-1.1,1.9-1.6,2.9c-2.3,4.1-4,7.3-5.2,9.8
						C107,438.8,94.6,471.8,84.3,507.5z"/>
					<path fill="#FFFFFF" d="M238.4,379.3c1.2,0,2.5,0,3.7,0.101c-1.4,0-2.8,0-4.1,0C238,379.4,238.2,379.3,238.4,379.3z"/>
					<path fill="#C1C9D6" d="M628.8,542v5.6c-0.1,0.2-0.2,0.4-0.2,0.601L77.2,547.7c-0.2-0.2-0.3-0.5-0.4-0.8l0,0
						c-0.1-0.101-0.1-0.2-0.1-0.2V542h36.4h0.1l201.8,0.2l-6.9-0.2h7.801h2.6H315l18.8,0.1h49.9H618h10.8V542z"/>
					
						<linearGradient id="SVGID_14_" gradientUnits="userSpaceOnUse" x1="450.21" y1="-53.5723" x2="450.21" y2="-150.7473" gradientTransform="matrix(1 0 0 -1 -97.6602 480.04)">
						<stop  offset="0" style="stop-color:#707A7E"/>
						<stop  offset="0.0314" style="stop-color:#97A0A4"/>
						<stop  offset="0.102" style="stop-color:#9FA6AC"/>
						<stop  offset="1" style="stop-color:#C9D0DA"/>
					</linearGradient>
					<path fill="url(#SVGID_14_)" d="M628.5,548.3c-4.7,12.4-8.3,24.7-10.5,36.9c-2,10.5-3,20.899-3.3,31.3l0,0l-27.8,0.1
						c-3.301,0-6.5,0-9.801,0c-2.1,0-4.3,0-6.399,0c-3.4,0-6.7,0-10.101,0c-59-0.1-118-0.1-177-0.1c-20.899,0-41.699,0-62.6,0
						c-1.7,0-3.5,0-5.3,0c-76.2,0-152.4-0.1-228.6-0.2h-0.3c-0.1-2.3-0.3-4.7-0.4-7.1c-1.3-15.2-3.5-30.9-6.6-46.9
						c-0.9-4.8-1.9-9.6-2.9-14.399l-0.3-0.101H77c-0.1-0.3-0.2-0.5-0.2-0.8c0.1,0.4,0.2,0.7,0.4,0.8L628.5,548.3z"/>
					<path fill="#29363E" d="M94,630.8h38.8l1.5,3.4H94V630.8z M539.6,630.8l1.9,2.101L164.2,633.6l2.4-2.8H539.6z M607.6,631.2
						c0,0.5,0,1.1,0,1.8h-39.8c-0.2,0,0.2-0.7,1.2-2L607.6,631.2z"/>
					<path fill="#1C2A2D" d="M136.5,630.8c7.3,4,17.3,4,30.1,0l-2.4,2.8c-9.7,8.2-19.2,8.4-28.4,0.601h-1.5l-1.5-3.4H136.5
						L136.5,630.8z M542.6,630.8c5.2,3.2,11.2,4.101,18.101,2.7c2.6-0.5,5.399-1.4,8.3-2.6l-2.3,2.899H566.6c-2,1.601-4,2.8-6,3.601
						c-6.699,2.699-13.1,1.199-19.199-4.5l-1.9-2.101H542.6L542.6,630.8z"/>
					<path fill="#455258" d="M132.9,630.8H94c0.2-4.399,0.3-7.7,0.1-10h515.2c-1.1,3.101-1.7,6.5-1.8,10.3l-38.6-0.3l-26.4-0.1h-3
						h-373h-30.1h-3.5V630.8z"/>
					<path fill="#D5D9DD" d="M614.7,616.5v0.6v0.5c0,0.101,0,0.301,0,0.301h-5.4l-16.1-0.2c-2.101,0-4.3,0-6.3,0
						c-3.301,0-6.5,0-9.801,0c-2.1-0.101-4.3-0.101-6.399,0c-3.4,0-6.7,0-10.101,0c-59-0.101-118-0.101-177-0.101
						c-20.899,0-41.699,0-62.6,0c-1.7,0-3.5,0-5.3,0c-74.1,0-148.2-0.1-222.3-0.1H87c-0.1-0.4-0.1-0.9-0.1-1.3h0.3
						c76.2,0.1,152.4,0.1,228.6,0.2c1.8,0,3.5,0,5.3,0c20.9,0,41.7,0,62.601,0c59,0,118,0,177,0.1c3.399,0,6.7,0,10.1,0
						c2.101,0,4.2,0,6.4,0c3.2,0,6.5,0,9.8,0H614.7z"/>
					<path fill="#232D37" d="M609.3,618v2.8H94.1c-0.1-1.6-0.4-2.6-0.7-3.2c74.1,0,148.3,0.101,222.3,0.101c1.8,0,3.5,0,5.3,0
						c20.9,0,41.7,0,62.6,0c59,0,118,0,177,0.1c3.4,0,6.7,0,10.101,0c2.1-0.1,4.2-0.1,6.399,0c3.2,0,6.5,0,9.801,0
						c2.1,0,4.199,0,6.3,0L609.3,618z"/>
					<path fill="#416167" d="M166.6,630.8c-12.8,4-22.8,4-30.1,0H166.6z M569,630.9c-2.9,1.199-5.7,2.1-8.3,2.6
						c-6.9,1.4-12.9,0.5-18.101-2.7L569,630.9z"/>
					<path fill="#616C72" d="M614.8,616.5c0,0.2,0,0.4,0,0.6V616.5L614.8,616.5z"/>
				</g>
			</g>
			<g>
				<g>
					<g>
						<path fill="#627383" d="M384.2,501c10.399,2.4,17.5,4.6,21.5,6.4v-14.7v-1.5c-6.101,4.1-14.4,7-24.9,8.899
							C382,500.4,383.1,500.7,384.2,501z M470.2,506c-0.101,1.9-0.5,3.8-1.4,5.8c-1.8,4.3-5.2,7.8-10,10.5c-4.5,2.5-10,4.2-16.5,5
							c-13.8,1.5-26.899-1-39.3-7.5c-1.5-0.7-3-1.5-4.6-2.3c-4.7-2.4-8-4-9.9-4.8c-5-2.101-9.8-3.7-14.5-4.8
							c-5.2-1.2-11.3-2.101-18.4-2.7c-3.8-0.3-5.8-1.4-6-3.101c0.2-1.699,2.2-2.8,6-3.3c6.4-0.899,12.4-2,18.2-3.5
							c5.5-1.5,11.4-3.399,17.7-5.899c10.2-4.4,18-7.301,23.3-8.601c2.7-0.7,6-1.1,10-1.2c5.2-0.1,10.5,0.301,15.8,1.301
							c8.9,1.699,16.4,5.5,22.5,11.399C467.7,496.9,470.1,501.4,470.2,506z"/>
						<path fill="#68828F" d="M405.7,492.8c-5.4,3.601-12.601,6.3-21.5,8.3c-1.101-0.3-2.2-0.6-3.4-0.8
							c10.5-1.8,18.8-4.8,24.9-8.899V492.8z"/>
						<path fill="#495967" d="M470.2,506c0,2.2-0.4,4.4-1.4,6.7c-1.8,4.3-5.2,7.8-10,10.5c-4.5,2.6-10,4.2-16.5,4.899
							C428.5,529.7,415.4,527.2,403,520.7c-1.5-0.7-3-1.5-4.6-2.3c-4.7-2.4-8-4-9.9-4.9c-5-2-9.8-3.6-14.5-4.7
							c-5.2-1.3-11.3-2.1-18.4-2.6c-3.899-0.3-5.899-1.5-6-3.5c0-0.2,0-0.4,0.101-0.5c0.2,1.8,2.2,2.8,6,3.1
							c7.1,0.601,13.2,1.5,18.399,2.7c4.7,1.1,9.601,2.7,14.5,4.8c1.9,0.8,5.2,2.4,9.9,4.8c1.6,0.801,3.1,1.5,4.6,2.301
							c12.301,6.5,25.4,9,39.301,7.5c6.5-0.801,12-2.4,16.5-5c4.899-2.801,8.199-6.301,10-10.5C469.7,509.8,470.1,507.9,470.2,506z"
							/>
						<path fill="#15181D" d="M405.7,492.8v14.7c-3.9-1.8-11.101-4-21.5-6.4C393.1,499.1,400.3,496.3,405.7,492.8z"/>
					</g>
				</g>
				<g>
					
						<radialGradient id="SVGID_15_" cx="530.21" cy="-23.96" r="18.2321" gradientTransform="matrix(1 0 0 -1 -97.6602 480.04)" gradientUnits="userSpaceOnUse">
						<stop  offset="0" style="stop-color:#FFFFFF;stop-opacity:0.502"/>
						<stop  offset="1" style="stop-color:#FFFFFF;stop-opacity:0"/>
					</radialGradient>
					<path fill="url(#SVGID_15_)" d="M432.5,496c4.9,0,9,0.8,12.5,2.3c3.4,1.601,5.1,3.5,5.1,5.7s-1.699,4.1-5.1,5.7
						c-3.4,1.5-7.6,2.3-12.5,2.3c-4.8,0-9-0.8-12.3-2.3c-3.5-1.601-5.2-3.5-5.2-5.7s1.7-4.1,5.2-5.7
						C423.5,496.8,427.7,496,432.5,496z"/>
				</g>
				<g>
					<path d="M432.5,510.9c-4.8,0-9-0.801-12.3-2.4c-3.5-1.5-5.2-3.4-5.2-5.6c0-2.2,1.7-4.101,5.2-5.7c3.399-1.601,7.5-2.4,12.3-2.4
						c4.9,0,9,0.8,12.5,2.4c3.5,1.6,5.1,3.5,5.1,5.7c0,2.199-1.699,4.1-5.1,5.6C441.5,510.1,437.4,510.9,432.5,510.9z"/>
				</g>
				<g>
					<g>
						<g>
							
								<linearGradient id="SVGID_16_" gradientUnits="userSpaceOnUse" x1="513.3105" y1="-18.71" x2="547.0107" y2="-18.71" gradientTransform="matrix(1 0 0 -1 -97.6602 480.04)">
								<stop  offset="0" style="stop-color:#4C5E6C"/>
								<stop  offset="0.4745" style="stop-color:#697B87"/>
								<stop  offset="1" style="stop-color:#4C5E6C"/>
							</linearGradient>
							<path fill="url(#SVGID_16_)" d="M415.7,487.4c0,1.699,1.7,3.1,4.899,4.3c3.301,1.2,7.301,1.8,12,1.8
								c4.601,0,8.601-0.6,11.9-1.8c3.2-1.2,4.9-2.7,4.9-4.3v15.1c0,2.1-1.7,3.9-4.9,5.3c-3.3,1.5-7.3,2.3-11.9,2.3
								c-4.699,0-8.699-0.8-12-2.3c-3.199-1.399-4.899-3.1-4.899-5.3V487.4z"/>
							
								<linearGradient id="SVGID_17_" gradientUnits="userSpaceOnUse" x1="530.1094" y1="-6.3721" x2="530.1094" y2="7.0529" gradientTransform="matrix(1 0 0 -1 -97.6602 480.04)">
								<stop  offset="0" style="stop-color:#98A5AF"/>
								<stop  offset="1" style="stop-color:#485A68"/>
							</linearGradient>
							<path fill="url(#SVGID_17_)" d="M449.3,487.4c0,1.699-1.7,3.1-4.899,4.3c-3.301,1.2-7.301,1.8-11.9,1.8
								c-4.7,0-8.7-0.6-12-1.8c-3.2-1.2-4.9-2.7-4.9-4.3v-0.2c0-1.7,1.7-3.2,4.9-4.3c3.3-1.2,7.3-1.801,12-1.801
								c4.6,0,8.6,0.601,11.9,1.801c3.3,1.199,4.899,2.699,4.899,4.3V487.4z"/>
						</g>
					</g>
					<g>
						<g>
							<path fill="#3E4B55" d="M418.7,505.8c-0.4-0.3-0.7-0.5-1.101-0.8v-13.3c0.4,0.2,0.7,0.5,1.101,0.6V505.8z M425,508.3
								c-0.4-0.1-0.7-0.2-1.1-0.3v-13.8c0.399,0.1,0.699,0.2,1.1,0.3V508.3z M446,506c-0.3,0.2-0.7,0.3-1.2,0.5V493
								c0.4-0.2,0.8-0.4,1.2-0.5V506z M432.5,509L432.5,509c-0.4,0-0.8,0-1.1,0v-14c0.3,0,0.699,0,1,0l0,0v14H432.5z M439.5,494.5
								v13.8c-0.4,0-0.8,0.101-1.2,0.2v-13.8C438.7,494.6,439.1,494.5,439.5,494.5z"/>
							<path fill="#8E9DA8" fill-opacity="0.6" d="M418.7,492.3c0.399,0.2,0.8,0.4,1.3,0.601v13.5c-0.4-0.2-0.8-0.5-1.3-0.7V492.3z
								 M425,494.5c0.4,0,0.9,0.1,1.3,0.1v13.9c-0.399-0.1-0.8-0.2-1.3-0.2V494.5z M439.5,494.5c0.4,0,0.8-0.1,1.2-0.2V508
								c-0.4,0.1-0.8,0.2-1.2,0.3V494.5z M446,506v-13.5c0.5-0.2,0.9-0.5,1.3-0.7v13.3C446.8,505.4,446.4,505.7,446,506z M432.5,509
								v-14c0.4,0,0.9,0,1.3,0v14C433.4,509,433,509,432.5,509z"/>
						</g>
					</g>
					<polygon fill="#A9B4BC" points="446.4,487 420.9,488.9 419,487.2 444.5,485.4 					"/>
					
						<radialGradient id="SVGID_18_" cx="-10.4478" cy="371.0459" r="12.7023" gradientTransform="matrix(0.9547 0 0 -0.3011 441.0578 605.4459)" gradientUnits="userSpaceOnUse">
						<stop  offset="0" style="stop-color:#FFFFFF"/>
						<stop  offset="0.0353" style="stop-color:#FFFFFF"/>
						<stop  offset="0.2039" style="stop-color:#FFFFFF;stop-opacity:0.4588"/>
						<stop  offset="0.3294" style="stop-color:#FFFFFF;stop-opacity:0.3098"/>
						<stop  offset="0.6627" style="stop-color:#FFFFFF;stop-opacity:0.0549"/>
						<stop  offset="1" style="stop-color:#FFFFFF;stop-opacity:0"/>
					</radialGradient>
					<path fill="url(#SVGID_18_)" d="M422.8,491.1c2.3-0.699,5-1.1,8.2-1.1s6,0.4,8.3,1.1c2.3,0.7,3.4,1.601,3.4,2.601
						s-1.101,1.899-3.4,2.6s-5,1.101-8.3,1.101c-3.2,0-6-0.4-8.2-1.101s-3.399-1.6-3.399-2.6S420.6,491.8,422.8,491.1z"/>
					
						<radialGradient id="SVGID_19_" cx="63.4712" cy="-62.6133" r="28.9828" gradientTransform="matrix(0.9289 0.2203 0.0305 -0.1285 321.0742 486.2472)" gradientUnits="userSpaceOnUse">
						<stop  offset="0" style="stop-color:#FFFFFF"/>
						<stop  offset="0.0353" style="stop-color:#FFFFFF"/>
						<stop  offset="0.2039" style="stop-color:#FFFFFF;stop-opacity:0.4588"/>
						<stop  offset="0.3294" style="stop-color:#FFFFFF;stop-opacity:0.3098"/>
						<stop  offset="0.6627" style="stop-color:#FFFFFF;stop-opacity:0.0549"/>
						<stop  offset="1" style="stop-color:#FFFFFF;stop-opacity:0"/>
					</radialGradient>
					<path fill="url(#SVGID_19_)" d="M352.3,502.1c0.3-1,3-1.3,8.2-0.699c5.2,0.5,11.3,1.6,18.5,3.199c7.2,1.7,13.2,3.5,18,5.4
						c5,1.9,7.3,3.3,7.1,4.3c-0.199,1-3,1.2-8.3,0.8c-1.6-0.199-3.399-0.699-5.2-1.5c-5.8-2.699-11.199-4.5-16.3-5.5
						c-5.1-1-8.5-1.6-10.2-1.8c-3.3-0.1-6.1-0.6-8.5-1.5C353.1,504,352.1,503.1,352.3,502.1z"/>
				</g>
			</g>
			<g>
				
					<radialGradient id="SVGID_20_" cx="537.96" cy="-174.4048" r="244.3996" gradientTransform="matrix(1 0 0 -0.2059 -97.6602 346.8053)" gradientUnits="userSpaceOnUse">
					<stop  offset="0.2" style="stop-color:#000000"/>
					<stop  offset="1" style="stop-color:#FFFFFF;stop-opacity:0"/>
				</radialGradient>
				<path fill="url(#SVGID_20_)" d="M549.7,329.9c10.6,0,16,4.5,16,13.6v85.3c0,4.4-1.3,7.8-3.9,10.101c-2.399,2.1-6.5,3.6-12,4.6
					c-31.1,5.7-69.399,7.9-114.899,6.7c-34.4-1-67.101-3.601-98-7.8c-5.5-0.7-9.5-2-11.801-3.9c-2.699-2.1-4.1-5.3-4.1-9.7v-85.3
					c0-9.1,5.3-13.6,15.9-13.6H549.7z"/>
			</g>
			<g>
				
					<linearGradient id="SVGID_21_" gradientUnits="userSpaceOnUse" x1="541.2861" y1="163.4063" x2="540.6725" y2="59.3559" gradientTransform="matrix(1 0 0 -1 -97.6602 480.04)">
					<stop  offset="0" style="stop-color:#ADB5BD"/>
					<stop  offset="0.0549" style="stop-color:#F5EFE4"/>
					<stop  offset="0.1882" style="stop-color:#D1D5D9"/>
					<stop  offset="1" style="stop-color:#FFFFFF"/>
				</linearGradient>
				<path fill="url(#SVGID_21_)" d="M549.7,317.9c10.6,0,16,4.5,16,13.5v64.3c0,4.399-1.3,7.8-3.9,10c-2.399,2.1-6.5,3.7-12,4.6
					c-31.1,5.7-69.399,8-114.899,6.7c-34.4-1-67.101-3.6-98-7.8c-5.5-0.8-9.5-2.101-11.801-3.9c-2.699-2.1-4.1-5.3-4.1-9.7v-64.3
					c0-9,5.3-13.5,15.9-13.5h212.8V317.9z"/>
			</g>
			<g>
				<g>
					
						<radialGradient id="SVGID_22_" cx="550.3604" cy="-22.2754" r="242.3619" gradientTransform="matrix(1 0 0 -0.3005 -97.6602 331.595)" gradientUnits="userSpaceOnUse">
						<stop  offset="0" style="stop-color:#B8BECA"/>
						<stop  offset="0.8471" style="stop-color:#C4CCD9"/>
						<stop  offset="1" style="stop-color:#27313F"/>
					</radialGradient>
					<path fill="url(#SVGID_22_)" d="M334.5,324.7c0-7.8,4.6-11.8,13.7-11.8H538c9.2,0,13.8,3.9,13.8,11.8v62.8
						c0,3.8-1.1,6.7-3.399,8.7c-2.101,1.8-5.601,3.2-10.4,4c-26.9,4.899-60.9,6.8-102.1,5.8c-31.601-0.8-60.801-3.1-87.7-6.7
						c-4.7-0.6-8.101-1.7-10.101-3.3c-2.399-1.9-3.6-4.7-3.6-8.4V324.7L334.5,324.7z"/>
					
						<radialGradient id="SVGID_23_" cx="531.1602" cy="65.7402" r="122.4125" gradientTransform="matrix(1 0 0 -1 -97.6602 480.04)" gradientUnits="userSpaceOnUse">
						<stop  offset="0" style="stop-color:#FFFFFF"/>
						<stop  offset="1" style="stop-color:#D7DEE8"/>
					</radialGradient>
					<path fill="url(#SVGID_23_)" d="M328,321.5c0-8.5,5-12.8,15-12.8h200.5c10,0,15,4.3,15,12.8V390c0,4.1-1.3,7.3-3.8,9.5
						c-2.3,2-6,3.5-11.3,4.4c-29.2,5.399-65.301,7.5-108.2,6.3c-32.3-0.9-63.101-3.4-92.3-7.3c-5.2-0.7-8.9-1.9-11.2-3.7
						c-2.5-2-3.8-5.101-3.8-9.2v-68.5H328z M334.5,324.7v62.8c0,3.7,1.2,6.5,3.6,8.4c2,1.6,5.4,2.8,10.101,3.3
						c26.8,3.6,56,5.899,87.7,6.7C477.1,407,511.2,405.1,538,400.1c4.8-0.899,8.2-2.199,10.4-4c2.3-2,3.399-4.899,3.399-8.699v-62.8
						c0-7.8-4.6-11.8-13.8-11.8H348.3C339.1,313,334.5,316.9,334.5,324.7z"/>
				</g>
			</g>
			<g>
				<g>
					<polygon fill="#434B58" points="355.5,338.5 355.3,375.8 355.3,376 352.7,378.8 352.7,335.5 352.8,335.5 					"/>
					<polygon fill="#939FAB" points="352.8,335.5 480.6,335.6 480.6,335.8 477.7,338.5 355.5,338.3 355.5,338.5 					"/>
					
						<linearGradient id="SVGID_24_" gradientUnits="userSpaceOnUse" x1="514.1445" y1="151.5649" x2="514.1761" y2="94.2149" gradientTransform="matrix(1 0 0 -1 -97.6602 480.04)">
						<stop  offset="0" style="stop-color:#B2C29E"/>
						<stop  offset="1" style="stop-color:#B5C797"/>
					</linearGradient>
					<polygon fill="url(#SVGID_24_)" points="477.7,338.5 477.7,375.8 355.3,375.8 355.5,338.5 355.5,338.3 					"/>
					<polygon fill="#858492" points="355.3,375.8 477.7,375.8 480.5,378.7 480.5,378.8 352.7,378.8 355.3,376 					"/>
					<polygon fill="#3D4753" points="480.6,335.8 480.5,378.7 477.7,375.8 477.7,338.5 					"/>
				</g>
			</g>
			
				<radialGradient id="SVGID_25_" cx="174.4731" cy="-1260.9502" r="79.5059" gradientTransform="matrix(1.4062 0 0 -0.0374 193.9072 332.4416)" gradientUnits="userSpaceOnUse">
				<stop  offset="0" style="stop-color:#FFFFFF"/>
				<stop  offset="0.0353" style="stop-color:#FFFFFF"/>
				<stop  offset="0.2039" style="stop-color:#FFFFFF;stop-opacity:0.4588"/>
				<stop  offset="0.3294" style="stop-color:#FFFFFF;stop-opacity:0.3098"/>
				<stop  offset="0.6627" style="stop-color:#FFFFFF;stop-opacity:0.0549"/>
				<stop  offset="1" style="stop-color:#FFFFFF;stop-opacity:0"/>
			</radialGradient>
			<path fill="url(#SVGID_25_)" d="M438.8,376.7c15,0,28.8,0.1,41.601,0.2v5.3c-12.7,0.1-26.601,0.2-41.601,0.2
				c-29.6,0-54.8-0.301-75.7-0.801c-4-0.1-7.5-0.199-10.8-0.3V377.9c3.2-0.101,6.8-0.2,10.8-0.301C384,377,409.2,376.7,438.8,376.7z
				"/>
			
				<radialGradient id="SVGID_26_" cx="171.7217" cy="-2347.7705" r="242.9341" gradientTransform="matrix(1.4062 -0.0128 -2.103990e-004 -0.0232 194.0522 257.5737)" gradientUnits="userSpaceOnUse">
				<stop  offset="0" style="stop-color:#FFFFFF"/>
				<stop  offset="0.0353" style="stop-color:#FFFFFF"/>
				<stop  offset="0.2039" style="stop-color:#FFFFFF;stop-opacity:0.4588"/>
				<stop  offset="0.3294" style="stop-color:#FFFFFF;stop-opacity:0.3098"/>
				<stop  offset="0.6627" style="stop-color:#FFFFFF;stop-opacity:0.0549"/>
				<stop  offset="1" style="stop-color:#FFFFFF;stop-opacity:0"/>
			</radialGradient>
			<path fill="url(#SVGID_26_)" d="M542.4,308.8c6.1-0.1,10.8,1.7,13.899,5.6c-37.2,0.3-76.1,0.6-116.899,0.8
				c-41.101,0.3-78.2,0.5-111.4,0.6c3.6-4.3,10-6.5,19.3-6.6L542.4,308.8z"/>
			
				<radialGradient id="SVGID_27_" cx="289.1064" cy="-196.21" r="44.075" gradientTransform="matrix(-6.146781e-008 1.4062 0.063 2.754371e-009 489.5147 -51.8047)" gradientUnits="userSpaceOnUse">
				<stop  offset="0" style="stop-color:#FFFFFF"/>
				<stop  offset="0.0353" style="stop-color:#FFFFFF"/>
				<stop  offset="0.2039" style="stop-color:#FFFFFF;stop-opacity:0.4588"/>
				<stop  offset="0.3294" style="stop-color:#FFFFFF;stop-opacity:0.3098"/>
				<stop  offset="0.6627" style="stop-color:#FFFFFF;stop-opacity:0.0549"/>
				<stop  offset="1" style="stop-color:#FFFFFF;stop-opacity:0"/>
			</radialGradient>
			<path fill="url(#SVGID_27_)" d="M474.6,338h3.4v38h-3.3c-0.101-6.6-0.2-13.8-0.2-21.6C474.5,348.7,474.5,343.2,474.6,338z"/>
		</g>
		<g>
			<g>
				<g>
					<path fill="#FFFFFF" d="M293.9,394c-0.1-0.6-0.3-1.1-0.5-1.5c-0.4-0.6-1.2-1.2-2.4-1.8c-1.1-0.5-1.8-0.8-1.9-0.8H289
						c-0.1,0-0.2-0.101-0.3-0.101c-10.9-2.899-21.6-5-32.3-6.3c-9.2-1.2-18.3-1.9-27.2-2c-10.5-0.1-21,0.6-31.3,2
						c-0.1,0-0.2,0-0.2,0c-3.8,0.5-7.6,1.1-11.4,1.9c-6.8,1.199-13.5,2.8-20.3,4.8c-0.3,0-0.5,0.1-0.8,0.2
						c-2.7,0.199-4.2,1.399-4.3,3.699h-0.1c0-0.3,0-0.6,0.1-0.8c0-0.3,0-0.6,0-0.8c0.1-2.3,1.6-3.5,4.3-3.7c0.3-0.1,0.5-0.2,0.8-0.2
						c6.7-2,13.5-3.5,20.3-4.8c3.8-0.8,7.6-1.399,11.4-1.8c0-0.1,0.1-0.1,0.2-0.1c7.7-1,15.5-1.601,23.3-1.801h11.7
						c7.7,0.201,15.6,0.9,23.5,1.9c10.7,1.3,21.4,3.3,32.3,6.2c0.1,0.101,0.3,0.101,0.3,0.101h0.1c0.1,0,0.7,0.299,1.9,0.799
						s2,1.101,2.4,1.801c0.4,0.6,0.5,1.199,0.5,1.899c0,0.101,0,0.2,0,0.3c0,0,0,0.101,0,0.2C293.9,393.5,293.9,393.7,293.9,394z
						 M290.3,408c-9.4,39.9-8.1,83.3,3.8,130.2c-1.6-4.9-2.9-9.7-4-14.3c-9.9-38.7-10.3-75.7-1.2-111c0,0,0-0.2,0.1-0.4h0.1l1-3.7
						L290.3,408z M109.1,537.5c28.1-49.6,45-94.5,50.8-134.6l-0.2,7.399C154.8,449.1,138,491.5,109.1,537.5z"/>
					<path fill="#FFFFFF" d="M293.9,394c-0.1-0.6-0.3-1.1-0.5-1.5c-0.4-0.6-1.2-1.2-2.4-1.8c-1.1-0.5-1.8-0.8-1.9-0.8H289
						c-0.1,0-0.2-0.101-0.3-0.101c-10.9-2.899-21.6-5-32.3-6.3c-9.2-1.2-18.3-1.9-27.2-2c-10.5-0.1-21,0.6-31.3,2
						c-0.1,0-0.2,0-0.2,0c-3.8,0.5-7.6,1.1-11.4,1.9c-6.8,1.199-13.5,2.8-20.3,4.8c-0.3,0-0.5,0.1-0.8,0.2
						c-2.7,0.199-4.2,1.399-4.3,3.699h-0.1c0-0.3,0-0.6,0.1-0.8c0-0.3,0-0.6,0-0.8c0.1-2.3,1.6-3.5,4.3-3.7c0.3-0.1,0.5-0.2,0.8-0.2
						c6.7-2,13.5-3.5,20.3-4.8c3.8-0.8,7.6-1.399,11.4-1.8c0-0.1,0.1-0.1,0.2-0.1c7.7-1,15.5-1.601,23.3-1.801h11.7
						c7.7,0.201,15.6,0.9,23.5,1.9c10.7,1.3,21.4,3.3,32.3,6.2c0.1,0.101,0.3,0.101,0.3,0.101h0.1c0.1,0,0.7,0.299,1.9,0.799
						s2,1.101,2.4,1.801c0.4,0.6,0.5,1.199,0.5,1.899c0,0.101,0,0.2,0,0.3c0,0,0,0.101,0,0.2C293.9,393.5,293.9,393.7,293.9,394z
						 M290.3,408c-9.4,39.9-8.1,83.3,3.8,130.2c-1.6-4.9-2.9-9.7-4-14.3c-9.9-38.7-10.3-75.7-1.2-111c0,0,0-0.2,0.1-0.4h0.1l1-3.7
						L290.3,408z M109.1,537.5c28.1-49.6,45-94.5,50.8-134.6l-0.2,7.399C154.8,449.1,138,491.5,109.1,537.5z"/>
					<path d="M162,405.3l-0.3,2.2c-0.1,0.9-0.2,2-0.4,3.1l-1.7-0.3c0-0.5,0.1-1,0.1-1.5c0.1-0.5,0.2-1.1,0.3-1.6
						c0-0.3,0.1-0.8,0.1-1.5c0.1-0.9,0.2-2.101,0.3-3.5c0.1-1.3,0.2-2.9,0.3-4.601v-0.1c0-1.1,0.1-2.2,0.2-3.5
						c0.1-2.3,1.6-3.5,4.3-3.7c0.3-0.1,0.5-0.2,0.8-0.2c6.7-1.899,13.5-3.5,20.3-4.8c3.8-0.8,7.6-1.399,11.4-1.899c0,0,0.1,0,0.2,0
						c10.3-1.4,20.8-2,31.3-2c8.9,0.1,18,0.8,27.2,2c10.7,1.3,21.4,3.399,32.3,6.3c0.1,0,0.3,0.1,0.3,0.1h0.1c0.1,0,0.7,0.3,1.9,0.8
						s2,1.101,2.4,1.801c0.3,0.399,0.5,0.899,0.5,1.5c0,0.1,0,0.3,0,0.5c0,0,0,0.1,0,0.199c0,0,0,0.101,0,0.2c0,0.601-0.1,1.3-0.3,2
						c-0.4,1.3-0.9,2.601-1.3,3.9c-0.1,0.399-0.3,0.8-0.4,1.3c-0.1,0.4-0.2,0.7-0.4,1.1c-0.3,0.9-0.6,1.801-0.8,2.7
						c0,0.101,0,0.2,0,0.3c-0.1,0.2-0.1,0.301-0.1,0.5h-0.1c0,0.2,0,0.301,0,0.5l-0.1,0.101v0.3c-0.1,0-0.1,0.1-0.1,0.1
						c0,0.2,0,0.301,0,0.5L290,409c-0.1,0.2-0.2,0.4-0.2,0.6c-0.3,1-0.6,2-0.8,3h-0.1c-0.1,0.2-0.1,0.4-0.1,0.4
						c-9.1,35.3-8.7,72.3,1.2,111c1.1,4.6,2.5,9.3,4,14.3c0.1,0.4,0.2,0.7,0.4,1.101c0.2,0.399,0.3,0.899,0.5,1.399
						c0.6,1.3,0.5,2.4-0.1,3.2c0,0.1-0.6,0.7-1.6,1.9c-1.1,1.199-2.8,2.5-5.1,3.8l-0.4,0.2l0,0l-0.3,0.199c-0.1,0-0.2,0-0.3,0v0.101
						L282,553c-0.1,0-0.1,0-0.2,0.1h-0.1l0,0c-0.9,0.4-1.8,0.9-2.6,1.301c-6,3-10.9,5.899-14.8,8.6c-10.1,7.3-17,15.9-20.5,25.9
						l-0.6,2c-2.5,1-3.8,1.5-3.9,1.6c-0.1,0-0.1,0-0.1,0.1c-5.8,2.4-12.3,4.101-19.6,5.101c-6.5,0.8-11.6,1.199-15.3,1.3
						c-4.2,0.1-8.6-0.3-13.2-1.3c-8-1.601-15.2-3.801-21.4-6.4c-3.4-7.3-9.5-14.5-18.4-21.6c-8.5-6.7-19-13-31.5-18.9
						c0.3,0.1,1.3,0.5,2.9,1.1c1.6,0.7,2.5,0.801,2.9,0.5h0.1l0.3,0.2c5.5,2.4,10.6,5,15.3,7.8c0.1,0,0.1,0,0.2,0.101
						c0.1,0.1,0.3,0.2,0.5,0.3c0.4,0.2,0.7,0.5,1.1,0.8c0.4,0.2,0.9,0.5,1.3,0.8c2.1,1.301,4,2.7,5.9,4.2
						c8.9,6.7,15.6,14.3,20.1,22.9c10.9,4.8,21.8,7.5,32.7,7.899c0.3,0,0.7,0,1,0h0.1c17.5-1.3,30-3.899,37.6-7.8
						c0-0.1,0-0.1,0.1-0.1c3.3-10.7,10.4-19.9,21.1-27.601c0.1-0.1,0.2-0.199,0.4-0.199V561.6c3.9-2.8,8.8-5.6,14.9-8.5
						c0-0.1,0-0.1,0.1-0.1c1.1-0.6,2.2-1.1,3.4-1.6c0.4-0.2,0.9-0.4,1.3-0.601c0.2-0.1,0.5-0.2,0.9-0.5c0,0,0.1,0,0.2,0l0.2-0.2h0.1
						h0.1c0-0.1,0.1-0.1,0.2-0.1c0.1,0,0.2,0,0.3,0l-0.1-0.1c0.4-0.301,1.8-1.101,4.1-2.5c2.3-1.5,3.9-3.2,4.6-5.301
						c0-0.199-0.1-0.399-0.2-0.6c-1.1-3.5-2.2-6.9-3.1-10.2c-0.6-2.3-1.2-4.5-1.8-6.6c0-0.1,0-0.1,0-0.2
						c-10.1-38.9-10.5-76.1-1.2-111.6c0.3-1.301,0.7-2.601,1.1-4.101c0.1-0.6,0.3-1.2,0.5-1.8c0.1-0.5,0.3-1,0.4-1.5l-0.1,0.5
						c0.1-0.5,0.3-0.9,0.4-1.4c0.1-0.399,0.2-0.899,0.4-1.299c0.1-0.4,0.3-0.701,0.4-1.101c0.1-0.5,0.3-1,0.4-1.3
						c0.1-0.2,0.1-0.4,0.3-0.5c0.3-1.1,0.7-2.301,1-3.4c0.2-0.9,0.3-1.8,0.3-2.4c-0.1-0.899-0.4-1.6-1-2.1c-0.8-0.6-1.4-0.9-1.8-1.1
						c-0.2-0.1-0.4-0.2-0.6-0.2l0,0c-10.9-2.899-21.8-5-32.5-6.3l0,0c-9.1-1.2-18.1-1.801-27-1.9c-10.5-0.1-20.9,0.5-31.2,1.9h-0.1
						c-3.9,0.5-7.7,1.1-11.6,1.8c-6.7,1.2-13.3,2.8-19.9,4.7c-0.1,0.1-0.2,0.1-0.3,0.199c-0.3,0.101-0.5,0.101-0.8,0.201
						c-0.8,0.199-1.4,0.5-1.8,0.899c-0.5,0.5-0.8,1.3-0.8,2.101c0,0.299,0,0.6,0,0.899c0,1.899-0.1,4-0.4,6.3c0,0.1,0,0.301,0,0.5
						c0,0.2,0,0.5,0,0.801C162.1,404.4,162,405.2,162,405.3z"/>
					<path d="M162,405.3l-0.3,2.2c-0.1,0.9-0.2,2-0.4,3.1l-1.7-0.3c0-0.5,0.1-1,0.1-1.5c0.1-0.5,0.2-1.1,0.3-1.6
						c0-0.3,0.1-0.8,0.1-1.5c0.1-0.9,0.2-2.101,0.3-3.5c0.1-1.3,0.2-2.9,0.3-4.601v-0.1c0-1.1,0.1-2.2,0.2-3.5
						c0.1-2.3,1.6-3.5,4.3-3.7c0.3-0.1,0.5-0.2,0.8-0.2c6.7-1.899,13.5-3.5,20.3-4.8c3.8-0.8,7.6-1.399,11.4-1.899c0,0,0.1,0,0.2,0
						c10.3-1.4,20.8-2,31.3-2c8.9,0.1,18,0.8,27.2,2c10.7,1.3,21.4,3.399,32.3,6.3c0.1,0,0.3,0.1,0.3,0.1h0.1c0.1,0,0.7,0.3,1.9,0.8
						s2,1.101,2.4,1.801c0.3,0.399,0.5,0.899,0.5,1.5c0,0.1,0,0.3,0,0.5c0,0,0,0.1,0,0.199c0,0,0,0.101,0,0.2c0,0.601-0.1,1.3-0.3,2
						c-0.4,1.3-0.9,2.601-1.3,3.9c-0.1,0.399-0.3,0.8-0.4,1.3c-0.1,0.4-0.2,0.7-0.4,1.1c-0.3,0.9-0.6,1.801-0.8,2.7
						c0,0.101,0,0.2,0,0.3c-0.1,0.2-0.1,0.301-0.1,0.5h-0.1c0,0.2,0,0.301,0,0.5l-0.1,0.101v0.3c-0.1,0-0.1,0.1-0.1,0.1
						c0,0.2,0,0.301,0,0.5L290,409c-0.1,0.2-0.2,0.4-0.2,0.6c-0.3,1-0.6,2-0.8,3h-0.1c-0.1,0.2-0.1,0.4-0.1,0.4
						c-9.1,35.3-8.7,72.3,1.2,111c1.1,4.6,2.5,9.3,4,14.3c0.1,0.4,0.2,0.7,0.4,1.101c0.2,0.399,0.3,0.899,0.5,1.399
						c0.6,1.3,0.5,2.4-0.1,3.2c0,0.1-0.6,0.7-1.6,1.9c-1.1,1.199-2.8,2.5-5.1,3.8l-0.4,0.2l0,0l-0.3,0.199c-0.1,0-0.2,0-0.3,0v0.101
						L282,553c-0.1,0-0.1,0-0.2,0.1h-0.1l0,0c-0.9,0.4-1.8,0.9-2.6,1.301c-6,3-10.9,5.899-14.8,8.6c-10.1,7.3-17,15.9-20.5,25.9
						l-0.6,2c-2.5,1-3.8,1.5-3.9,1.6c-0.1,0-0.1,0-0.1,0.1c-5.8,2.4-12.3,4.101-19.6,5.101c-6.5,0.8-11.6,1.199-15.3,1.3
						c-4.2,0.1-8.6-0.3-13.2-1.3c-8-1.601-15.2-3.801-21.4-6.4c-3.4-7.3-9.5-14.5-18.4-21.6c-8.5-6.7-19-13-31.5-18.9
						c0.3,0.1,1.3,0.5,2.9,1.1c1.6,0.7,2.5,0.801,2.9,0.5h0.1l0.3,0.2c5.5,2.4,10.6,5,15.3,7.8c0.1,0,0.1,0,0.2,0.101
						c0.1,0.1,0.3,0.2,0.5,0.3c0.4,0.2,0.7,0.5,1.1,0.8c0.4,0.2,0.9,0.5,1.3,0.8c2.1,1.301,4,2.7,5.9,4.2
						c8.9,6.7,15.6,14.3,20.1,22.9c10.9,4.8,21.8,7.5,32.7,7.899c0.3,0,0.7,0,1,0h0.1c17.5-1.3,30-3.899,37.6-7.8
						c0-0.1,0-0.1,0.1-0.1c3.3-10.7,10.4-19.9,21.1-27.601c0.1-0.1,0.2-0.199,0.4-0.199V561.6c3.9-2.8,8.8-5.6,14.9-8.5
						c0-0.1,0-0.1,0.1-0.1c1.1-0.6,2.2-1.1,3.4-1.6c0.4-0.2,0.9-0.4,1.3-0.601c0.2-0.1,0.5-0.2,0.9-0.5c0,0,0.1,0,0.2,0l0.2-0.2h0.1
						h0.1c0-0.1,0.1-0.1,0.2-0.1c0.1,0,0.2,0,0.3,0l-0.1-0.1c0.4-0.301,1.8-1.101,4.1-2.5c2.3-1.5,3.9-3.2,4.6-5.301
						c0-0.199-0.1-0.399-0.2-0.6c-1.1-3.5-2.2-6.9-3.1-10.2c-0.6-2.3-1.2-4.5-1.8-6.6c0-0.1,0-0.1,0-0.2
						c-10.1-38.9-10.5-76.1-1.2-111.6c0.3-1.301,0.7-2.601,1.1-4.101c0.1-0.6,0.3-1.2,0.5-1.8c0.1-0.5,0.3-1,0.4-1.5l-0.1,0.5
						c0.1-0.5,0.3-0.9,0.4-1.4c0.1-0.399,0.2-0.899,0.4-1.299c0.1-0.4,0.3-0.701,0.4-1.101c0.1-0.5,0.3-1,0.4-1.3
						c0.1-0.2,0.1-0.4,0.3-0.5c0.3-1.1,0.7-2.301,1-3.4c0.2-0.9,0.3-1.8,0.3-2.4c-0.1-0.899-0.4-1.6-1-2.1c-0.8-0.6-1.4-0.9-1.8-1.1
						c-0.2-0.1-0.4-0.2-0.6-0.2l0,0c-10.9-2.899-21.8-5-32.5-6.3l0,0c-9.1-1.2-18.1-1.801-27-1.9c-10.5-0.1-20.9,0.5-31.2,1.9h-0.1
						c-3.9,0.5-7.7,1.1-11.6,1.8c-6.7,1.2-13.3,2.8-19.9,4.7c-0.1,0.1-0.2,0.1-0.3,0.199c-0.3,0.101-0.5,0.101-0.8,0.201
						c-0.8,0.199-1.4,0.5-1.8,0.899c-0.5,0.5-0.8,1.3-0.8,2.101c0,0.299,0,0.6,0,0.899c0,1.899-0.1,4-0.4,6.3c0,0.1,0,0.301,0,0.5
						c0,0.2,0,0.5,0,0.801C162.1,404.4,162,405.2,162,405.3z"/>
					<path fill="#425363" d="M289.8,403.2c-11.7-4.101-23.1-7.2-34.3-9.4l-1.8-5c-16.1-5.6-33.1-6-51.1-1.2l-2,0.601
						c-0.4,0.1-0.7,0.2-1.1,0.3l-0.8,1.9l-1.7,4.1c-3.3,0.4-6.5,0.9-9.5,1.4c-0.3,0.1-0.5,0.1-0.8,0.199l0.8-0.199
						c-7.1,1.399-13,2.899-17.9,4.5c-0.1,0-0.1,0-0.3,0.1c-1.8,0.6-3.6,1.2-5.2,1.9c-0.6,0.199-1.2,0.5-1.8,0.8c0-0.3,0-0.5,0-0.8
						c0-0.2,0-0.4,0-0.5c0.2-2.301,0.3-4.301,0.4-6.301c0-0.3,0-0.6,0-0.899c0-0.9,0.3-1.601,0.8-2.101c0.4-0.399,1-0.699,1.8-0.899
						c0.3-0.101,0.5-0.101,0.8-0.2c0.1,0,0.2-0.1,0.3-0.2c6.6-1.899,13.3-3.399,19.9-4.7c3.9-0.8,7.7-1.399,11.6-1.8
						c0.1,0,0.1,0,0.1,0c10.3-1.399,20.7-2,31.2-1.899c8.9,0.1,17.9,0.699,27,1.899l0,0c10.7,1.3,21.5,3.4,32.5,6.3l0,0
						c0.2,0,0.4,0.101,0.6,0.2c0.4,0.2,1,0.5,1.8,1.101c0.5,0.5,0.9,1.199,1,2.1c0,0.7-0.1,1.5-0.3,2.4c-0.4,1.1-0.7,2.199-1,3.399
						c-0.1,0.101-0.2,0.3-0.3,0.5c-0.1,0.4-0.3,0.8-0.4,1.3C290,402.4,289.9,402.8,289.8,403.2z"/>
					<path fill="#425363" d="M289.8,403.2c-11.7-4.101-23.1-7.2-34.3-9.4l-1.8-5c-16.1-5.6-33.1-6-51.1-1.2l-2,0.601
						c-0.4,0.1-0.7,0.2-1.1,0.3l-0.8,1.9l-1.7,4.1c-3.3,0.4-6.5,0.9-9.5,1.4c-0.3,0.1-0.5,0.1-0.8,0.199l0.8-0.199
						c-7.1,1.399-13,2.899-17.9,4.5c-0.1,0-0.1,0-0.3,0.1c-1.8,0.6-3.6,1.2-5.2,1.9c-0.6,0.199-1.2,0.5-1.8,0.8c0-0.3,0-0.5,0-0.8
						c0-0.2,0-0.4,0-0.5c0.2-2.301,0.3-4.301,0.4-6.301c0-0.3,0-0.6,0-0.899c0-0.9,0.3-1.601,0.8-2.101c0.4-0.399,1-0.699,1.8-0.899
						c0.3-0.101,0.5-0.101,0.8-0.2c0.1,0,0.2-0.1,0.3-0.2c6.6-1.899,13.3-3.399,19.9-4.7c3.9-0.8,7.7-1.399,11.6-1.8
						c0.1,0,0.1,0,0.1,0c10.3-1.399,20.7-2,31.2-1.899c8.9,0.1,17.9,0.699,27,1.899l0,0c10.7,1.3,21.5,3.4,32.5,6.3l0,0
						c0.2,0,0.4,0.101,0.6,0.2c0.4,0.2,1,0.5,1.8,1.101c0.5,0.5,0.9,1.199,1,2.1c0,0.7-0.1,1.5-0.3,2.4c-0.4,1.1-0.7,2.199-1,3.399
						c-0.1,0.101-0.2,0.3-0.3,0.5c-0.1,0.4-0.3,0.8-0.4,1.3C290,402.4,289.9,402.8,289.8,403.2z"/>
					<path fill="#36434E" d="M199.4,388.5l0.7,2v0.2l-0.1-0.2l-2.4,5.8l-0.8-1.899l1.7-4.101L199.4,388.5z M252.7,390.5l0.1-0.2
						l0.8-1.5l1.8,5l-0.9,1.8L252.7,390.5z"/>
					<path fill="#36434E" d="M199.4,388.5l0.7,2v0.2l-0.1-0.2l-2.4,5.8l-0.8-1.899l1.7-4.101L199.4,388.5z M252.7,390.5l0.1-0.2
						l0.8-1.5l1.8,5l-0.9,1.8L252.7,390.5z"/>
					
						<linearGradient id="SVGID_28_" gradientUnits="userSpaceOnUse" x1="279.2227" y1="92.6514" x2="367.9977" y2="92.6514" gradientTransform="matrix(1 0 0 -1 -97.6602 480.04)">
						<stop  offset="0.0039" style="stop-color:#465665"/>
						<stop  offset="0.4784" style="stop-color:#8396A9"/>
						<stop  offset="1" style="stop-color:#465665"/>
					</linearGradient>
					<path fill="url(#SVGID_28_)" d="M252.7,390.5c-17.6-5.7-35.1-5.7-52.6,0l-0.7-2c0.3-0.1,0.7-0.2,1.1-0.3l2-0.601
						c18-4.8,35-4.399,51.1,1.2l-0.8,1.5L252.7,390.5z"/>
					
						<linearGradient id="SVGID_29_" gradientUnits="userSpaceOnUse" x1="279.2227" y1="92.6514" x2="367.9977" y2="92.6514" gradientTransform="matrix(1 0 0 -1 -97.6602 480.04)">
						<stop  offset="0.0039" style="stop-color:#465665"/>
						<stop  offset="0.4784" style="stop-color:#8396A9"/>
						<stop  offset="1" style="stop-color:#465665"/>
					</linearGradient>
					<path fill="url(#SVGID_29_)" d="M252.7,390.5c-17.6-5.7-35.1-5.7-52.6,0l-0.7-2c0.3-0.1,0.7-0.2,1.1-0.3l2-0.601
						c18-4.8,35-4.399,51.1,1.2l-0.8,1.5L252.7,390.5z"/>
					
						<linearGradient id="SVGID_30_" gradientUnits="userSpaceOnUse" x1="332.6499" y1="64.5815" x2="290.9184" y2="-90.9667" gradientTransform="matrix(1 0 0 -1 -97.6602 480.04)">
						<stop  offset="0" style="stop-color:#465665"/>
						<stop  offset="1" style="stop-color:#636D79"/>
					</linearGradient>
					<path fill="url(#SVGID_30_)" d="M197.6,396.3l2.4-5.8l0.1,0.2v-0.2c17.5-5.7,35-5.7,52.6,0l1.8,5l0.2,0.1
						c11.5,2.5,19.9,4.7,25.2,6.601c4.9,1.8,8,2.8,9.1,3.1c-0.2,0.5-0.3,1-0.4,1.5c-0.2,0.601-0.4,1.2-0.5,1.8
						c-0.4,1.5-0.7,2.801-1.1,4.101l0,0c-12.5,40.1-11.5,79.6,3,118.399c1,3.301,2,6.7,3.1,10.2c-4.9-0.7-11.6-1.2-20.1-1.3
						c-8.6-0.1-16.6,1.1-24.1,3.5c-5.1,1.5-11.4,3.5-18.9,6.2c-2.2,0.7-4.5,1.5-6.8,2.3c-5.5,1.9-10.7,3-15.4,3.3
						c-3.5,0.2-5.9,0.2-7-0.1c-5.2-0.5-9.3-1-12.5-1.4c-2-0.3-4.1-0.7-6.1-1.2c-4.3-1-8.7-2.199-13.1-3.8c-0.9-0.3-1.8-0.7-2.8-1
						c-0.2-0.1-0.5-0.2-0.6-0.3c-4.2-1.4-8.2-2.6-12-3.7c-1.1-0.3-2.3-0.6-3.4-0.8l-0.1-0.1c-15.5-4-28.9-5.3-40.2-4
						c29.3-46.5,46.4-89.3,51.4-128.301c0.1-1.1,0.3-2.199,0.4-3.1l0.3-2.199c2.6-1.101,5.3-2.201,8.1-3.101
						c4.9-1.7,10.3-3,16.1-4.101l0,0C189.9,397.4,193.7,396.8,197.6,396.3z"/>
					
						<linearGradient id="SVGID_31_" gradientUnits="userSpaceOnUse" x1="332.6499" y1="64.5815" x2="290.9184" y2="-90.9667" gradientTransform="matrix(1 0 0 -1 -97.6602 480.04)">
						<stop  offset="0" style="stop-color:#465665"/>
						<stop  offset="1" style="stop-color:#636D79"/>
					</linearGradient>
					<path fill="url(#SVGID_31_)" d="M197.6,396.3l2.4-5.8l0.1,0.2v-0.2c17.5-5.7,35-5.7,52.6,0l1.8,5l0.2,0.1
						c11.5,2.5,19.9,4.7,25.2,6.601c4.9,1.8,8,2.8,9.1,3.1c-0.2,0.5-0.3,1-0.4,1.5c-0.2,0.601-0.4,1.2-0.5,1.8
						c-0.4,1.5-0.7,2.801-1.1,4.101l0,0c-12.5,40.1-11.5,79.6,3,118.399c1,3.301,2,6.7,3.1,10.2c-4.9-0.7-11.6-1.2-20.1-1.3
						c-8.6-0.1-16.6,1.1-24.1,3.5c-5.1,1.5-11.4,3.5-18.9,6.2c-2.2,0.7-4.5,1.5-6.8,2.3c-5.5,1.9-10.7,3-15.4,3.3
						c-3.5,0.2-5.9,0.2-7-0.1c-5.2-0.5-9.3-1-12.5-1.4c-2-0.3-4.1-0.7-6.1-1.2c-4.3-1-8.7-2.199-13.1-3.8c-0.9-0.3-1.8-0.7-2.8-1
						c-0.2-0.1-0.5-0.2-0.6-0.3c-4.2-1.4-8.2-2.6-12-3.7c-1.1-0.3-2.3-0.6-3.4-0.8l-0.1-0.1c-15.5-4-28.9-5.3-40.2-4
						c29.3-46.5,46.4-89.3,51.4-128.301c0.1-1.1,0.3-2.199,0.4-3.1l0.3-2.199c2.6-1.101,5.3-2.201,8.1-3.101
						c4.9-1.7,10.3-3,16.1-4.101l0,0C189.9,397.4,193.7,396.8,197.6,396.3z"/>
					
						<linearGradient id="SVGID_32_" gradientUnits="userSpaceOnUse" x1="265.2607" y1="76.731" x2="293.7892" y2="85.8172" gradientTransform="matrix(1 0 0 -1 -97.6602 480.04)">
						<stop  offset="0.0039" style="stop-color:#587085"/>
						<stop  offset="1" style="stop-color:#748BA3"/>
					</linearGradient>
					<path fill="url(#SVGID_32_)" d="M162,405.3c0-0.1,0.1-0.899,0.3-2.3c0.6-0.3,1.2-0.5,1.8-0.8c1.6-0.7,3.4-1.3,5.2-1.9
						c0.1-0.1,0.2-0.1,0.3-0.1c4.8-1.601,10.8-3.101,17.9-4.5l-0.8,0.2c0.2,0,0.5-0.101,0.8-0.2c3-0.601,6.2-1,9.5-1.4l0.8,1.9
						c-4,0.5-7.8,1.1-11.4,1.8l0,0v0.2c-5.9,1.1-11.3,2.399-16.1,4.1C167.3,403.2,164.6,404.2,162,405.3z"/>
					
						<linearGradient id="SVGID_33_" gradientUnits="userSpaceOnUse" x1="265.2607" y1="76.731" x2="293.7892" y2="85.8172" gradientTransform="matrix(1 0 0 -1 -97.6602 480.04)">
						<stop  offset="0.0039" style="stop-color:#587085"/>
						<stop  offset="1" style="stop-color:#748BA3"/>
					</linearGradient>
					<path fill="url(#SVGID_33_)" d="M162,405.3c0-0.1,0.1-0.899,0.3-2.3c0.6-0.3,1.2-0.5,1.8-0.8c1.6-0.7,3.4-1.3,5.2-1.9
						c0.1-0.1,0.2-0.1,0.3-0.1c4.8-1.601,10.8-3.101,17.9-4.5l-0.8,0.2c0.2,0,0.5-0.101,0.8-0.2c3-0.601,6.2-1,9.5-1.4l0.8,1.9
						c-4,0.5-7.8,1.1-11.4,1.8l0,0v0.2c-5.9,1.1-11.3,2.399-16.1,4.1C167.3,403.2,164.6,404.2,162,405.3z"/>
					
						<linearGradient id="SVGID_34_" gradientUnits="userSpaceOnUse" x1="381.6787" y1="77.3115" x2="358.5079" y2="83.5524" gradientTransform="matrix(1 0 0 -1 -97.6602 480.04)">
						<stop  offset="0.0039" style="stop-color:#587085"/>
						<stop  offset="1" style="stop-color:#748BA3"/>
					</linearGradient>
					<path fill="url(#SVGID_34_)" d="M255.5,393.8c11.2,2.2,22.6,5.3,34.3,9.4c-0.1,0.399-0.3,0.899-0.4,1.3
						c-0.2,0.5-0.4,0.9-0.4,1.4l0.1-0.5c-1.1-0.301-4.2-1.301-9.1-3.101c-5.3-1.899-13.7-4.1-25.2-6.6l-0.2-0.101L255.5,393.8z"/>
					
						<linearGradient id="SVGID_35_" gradientUnits="userSpaceOnUse" x1="381.6787" y1="77.3115" x2="358.5079" y2="83.5524" gradientTransform="matrix(1 0 0 -1 -97.6602 480.04)">
						<stop  offset="0.0039" style="stop-color:#587085"/>
						<stop  offset="1" style="stop-color:#748BA3"/>
					</linearGradient>
					<path fill="url(#SVGID_35_)" d="M255.5,393.8c11.2,2.2,22.6,5.3,34.3,9.4c-0.1,0.399-0.3,0.899-0.4,1.3
						c-0.2,0.5-0.4,0.9-0.4,1.4l0.1-0.5c-1.1-0.301-4.2-1.301-9.1-3.101c-5.3-1.899-13.7-4.1-25.2-6.6l-0.2-0.101L255.5,393.8z"/>
					
						<linearGradient id="SVGID_36_" gradientUnits="userSpaceOnUse" x1="387.1602" y1="81.4995" x2="387.1602" y2="108.9673" gradientTransform="matrix(1 0 0 -1 -97.6602 480.04)">
						<stop  offset="0" style="stop-color:#EDF1FC"/>
						<stop  offset="1" style="stop-color:#949AA8"/>
					</linearGradient>
					<path fill="url(#SVGID_36_)" d="M290,408.9l-1,3.699c0.2-1.1,0.5-2.1,0.8-3C289.8,409.3,289.9,409.1,290,408.9z"/>
					
						<linearGradient id="SVGID_37_" gradientUnits="userSpaceOnUse" x1="387.1602" y1="81.4995" x2="387.1602" y2="108.9673" gradientTransform="matrix(1 0 0 -1 -97.6602 480.04)">
						<stop  offset="0" style="stop-color:#EDF1FC"/>
						<stop  offset="1" style="stop-color:#949AA8"/>
					</linearGradient>
					<path fill="url(#SVGID_37_)" d="M290,408.9l-1,3.699c0.2-1.1,0.5-2.1,0.8-3C289.8,409.3,289.9,409.1,290,408.9z"/>
					<path fill="#66788A" d="M290,531c-14.5-38.8-15.5-78.3-3-118.4l0,0c-9.3,35.5-8.9,72.7,1.2,111.601c0,0,0,0.1,0,0.2
						C288.8,526.6,289.4,528.8,290,531z"/>
					<path fill="#66788A" d="M290,531c-14.5-38.8-15.5-78.3-3-118.4l0,0c-9.3,35.5-8.9,72.7,1.2,111.601c0,0,0,0.1,0,0.2
						C288.8,526.6,289.4,528.8,290,531z"/>
					<path fill="#597186" d="M186.3,398.2V398V398.2z"/>
					<path fill="#597186" d="M186.3,398.2V398V398.2z"/>
					<path fill="#405769" d="M201.1,564.5c-0.1,0-0.1,0-0.3,0c-0.5,0-1,0-1.6,0h-0.1c0,0-0.1,0-0.2,0h-0.1
						c-5.8-0.3-12.4-1.4-19.8-3.4l2-3.8c0.1,0,0.2,0,0.3,0c0.1,0,0.2,0,0.3,0c6,1,12,1.4,17.9,1.2c0.8,0,1.6-0.1,2.4-0.1
						c-0.2,0.1-0.5,0.3-0.7,0.399c-5,3-5.4,4.9-1.3,5.5c0.2,0,0.3,0,0.5,0C200.5,564.3,200.8,564.4,201.1,564.5z"/>
					<path fill="#405769" d="M201.1,564.5c-0.1,0-0.1,0-0.3,0c-0.5,0-1,0-1.6,0h-0.1c0,0-0.1,0-0.2,0h-0.1
						c-5.8-0.3-12.4-1.4-19.8-3.4l2-3.8c0.1,0,0.2,0,0.3,0c0.1,0,0.2,0,0.3,0c6,1,12,1.4,17.9,1.2c0.8,0,1.6-0.1,2.4-0.1
						c-0.2,0.1-0.5,0.3-0.7,0.399c-5,3-5.4,4.9-1.3,5.5c0.2,0,0.3,0,0.5,0C200.5,564.3,200.8,564.4,201.1,564.5z"/>
					
						<radialGradient id="SVGID_38_" cx="351.7129" cy="-356.5586" r="73.5179" gradientTransform="matrix(0.9901 -0.14 -0.0251 -0.1775 -93.7925 545.1109)" gradientUnits="userSpaceOnUse">
						<stop  offset="0" style="stop-color:#506070"/>
						<stop  offset="0.3922" style="stop-color:#182A36"/>
						<stop  offset="0.5882" style="stop-color:#1D2E3B"/>
						<stop  offset="1" style="stop-color:#405769"/>
					</radialGradient>
					<path fill="url(#SVGID_38_)" d="M201.8,558.5c2.1-0.2,4.2-0.5,6.4-0.8c0.1,0,0.1-0.101,0.2-0.101
						c8.2-1.8,15.4-4.399,21.8-7.899c7.5-2.601,13.8-4.7,18.9-6.2c7.5-2.5,15.5-3.7,24.1-3.5c8.5,0.1,15.2,0.5,20.1,1.3
						c0.1,0.3,0.2,0.5,0.2,0.601c-0.7,2-2.2,3.8-4.6,5.3c-2.3,1.399-3.7,2.2-4.1,2.5l0.1,0.1c-0.2,0-0.3,0-0.3,0
						c-0.1,0-0.1,0-0.2,0.1h-0.1h-0.1l0,0l0.3-0.1c-8.3-0.6-16.3-0.5-24,0.3c-3,0.3-5.7,0.7-8.1,1.2c-0.7,0.1-1.4,0.2-2,0.3
						c-3.1,0.601-5.7,1.2-7.8,1.9c-1.1,0.4-2.1,0.7-2.9,1c-16.8,6.8-29.4,10.2-37.8,10.1l0,0c-0.2,0-0.4,0-0.6,0
						c-0.3-0.1-0.6-0.1-0.9-0.1c-0.2,0-0.4,0-0.5,0c-4.1-0.6-3.6-2.4,1.3-5.5C201.3,558.7,201.5,558.6,201.8,558.5z M204,596.8h0.1
						H204L204,596.8z"/>
					
						<radialGradient id="SVGID_39_" cx="351.7129" cy="-356.5586" r="73.5179" gradientTransform="matrix(0.9901 -0.14 -0.0251 -0.1775 -93.7925 545.1109)" gradientUnits="userSpaceOnUse">
						<stop  offset="0" style="stop-color:#506070"/>
						<stop  offset="0.3922" style="stop-color:#182A36"/>
						<stop  offset="0.5882" style="stop-color:#1D2E3B"/>
						<stop  offset="1" style="stop-color:#405769"/>
					</radialGradient>
					<path fill="url(#SVGID_39_)" d="M201.8,558.5c2.1-0.2,4.2-0.5,6.4-0.8c0.1,0,0.1-0.101,0.2-0.101
						c8.2-1.8,15.4-4.399,21.8-7.899c7.5-2.601,13.8-4.7,18.9-6.2c7.5-2.5,15.5-3.7,24.1-3.5c8.5,0.1,15.2,0.5,20.1,1.3
						c0.1,0.3,0.2,0.5,0.2,0.601c-0.7,2-2.2,3.8-4.6,5.3c-2.3,1.399-3.7,2.2-4.1,2.5l0.1,0.1c-0.2,0-0.3,0-0.3,0
						c-0.1,0-0.1,0-0.2,0.1h-0.1h-0.1l0,0l0.3-0.1c-8.3-0.6-16.3-0.5-24,0.3c-3,0.3-5.7,0.7-8.1,1.2c-0.7,0.1-1.4,0.2-2,0.3
						c-3.1,0.601-5.7,1.2-7.8,1.9c-1.1,0.4-2.1,0.7-2.9,1c-16.8,6.8-29.4,10.2-37.8,10.1l0,0c-0.2,0-0.4,0-0.6,0
						c-0.3-0.1-0.6-0.1-0.9-0.1c-0.2,0-0.4,0-0.5,0c-4.1-0.6-3.6-2.4,1.3-5.5C201.3,558.7,201.5,558.6,201.8,558.5z M204,596.8h0.1
						H204L204,596.8z"/>
					<path fill="#49586B" d="M114.2,546.2c-1.2-0.9-2.2-1.7-3-2.4c-2-1.899-2.4-3.6-1.2-4.899c11.3-1.301,24.7,0,40.2,4l0.1,0.1
						c1.1,0.2,2.3,0.5,3.4,0.8c3.8,1.1,7.8,2.3,12,3.7c0.2,0.1,0.4,0.2,0.6,0.3c0.9,0.4,1.9,0.7,2.8,1c4.4,1.6,8.8,2.8,13.1,3.8
						c2,0.4,4.1,0.8,6.1,1.2c3.2,0.4,7.3,0.9,12.5,1.4c1.1,0.3,3.5,0.3,7,0.1l0.3,2.4c-2.1,0.3-4.3,0.6-6.4,0.8
						c-0.8,0-1.6,0.1-2.4,0.1c-5.9,0.2-11.9-0.2-17.9-1.2c-0.1,0-0.2,0-0.3,0s-0.1,0-0.3,0c-5.6-1-11.2-2.6-17-4.8
						c-3.8-1.399-7.4-2.7-10.9-3.7c-0.3-0.1-0.6-0.199-0.9-0.199c-0.1-0.101-0.1-0.101-0.1-0.101c-0.5-0.1-0.9-0.3-1.4-0.3
						c-0.5-0.2-1-0.3-1.5-0.4c-13.7-3.6-25.1-4.199-34.2-1.8C114.7,546,114.5,546.1,114.2,546.2z"/>
					<path fill="#49586B" d="M114.2,546.2c-1.2-0.9-2.2-1.7-3-2.4c-2-1.899-2.4-3.6-1.2-4.899c11.3-1.301,24.7,0,40.2,4l0.1,0.1
						c1.1,0.2,2.3,0.5,3.4,0.8c3.8,1.1,7.8,2.3,12,3.7c0.2,0.1,0.4,0.2,0.6,0.3c0.9,0.4,1.9,0.7,2.8,1c4.4,1.6,8.8,2.8,13.1,3.8
						c2,0.4,4.1,0.8,6.1,1.2c3.2,0.4,7.3,0.9,12.5,1.4c1.1,0.3,3.5,0.3,7,0.1l0.3,2.4c-2.1,0.3-4.3,0.6-6.4,0.8
						c-0.8,0-1.6,0.1-2.4,0.1c-5.9,0.2-11.9-0.2-17.9-1.2c-0.1,0-0.2,0-0.3,0s-0.1,0-0.3,0c-5.6-1-11.2-2.6-17-4.8
						c-3.8-1.399-7.4-2.7-10.9-3.7c-0.3-0.1-0.6-0.199-0.9-0.199c-0.1-0.101-0.1-0.101-0.1-0.101c-0.5-0.1-0.9-0.3-1.4-0.3
						c-0.5-0.2-1-0.3-1.5-0.4c-13.7-3.6-25.1-4.199-34.2-1.8C114.7,546,114.5,546.1,114.2,546.2z"/>
					<path fill="#636E74" d="M144.6,561.3c-0.6,0-1.1,0-1.6,0c-0.4-0.3-0.7-0.5-1.1-0.8c-0.2-0.1-0.4-0.1-0.5-0.3
						c-0.1-0.101-0.1-0.101-0.2-0.101c-4.6-2.8-9.7-5.399-15.3-7.8l-0.3-0.2h-0.1c-0.8-0.399-1.3-0.6-1.3-0.6
						c-0.1-0.1-0.3-0.1-0.4-0.2c-0.6-0.3-1.1-0.6-1.6-0.8c-0.4-0.1-0.8-0.3-1.1-0.5h0.1c9.2-1.4,18.3-1,27.3,1.2
						c0.4,0.1,0.9,0.2,1.3,0.3c0.4,0.1,0.9,0.2,1.4,0.3c2.7,0.7,5.3,1.601,7.9,2.7c3.6,1.4,7,2.6,10.4,3.7c3.3,1,6.5,2,9.5,2.8
						c7.4,1.9,14,3.1,19.8,3.4c0.1,0,0.1,0,0.1,0c0.1,0,0.2,0,0.2,0c0.1,0,0.1,0,0.1,0c0.6,0,1.2,0,1.6,0c0.1,0,0.2,0,0.3,0
						c0.2,0,0.4,0,0.6,0l0,0l0.4,6.8l0,0c0,0,0,0.1,0.1,0.2h-0.1c0,0,0,0,0,0.1c-6.3,0.5-15.2-1-26.7-4.4
						c-2.8-0.899-5.4-1.699-8-2.3c-4.3-1.2-8.3-2.1-12-2.7c-0.9-0.199-1.7-0.3-2.4-0.399c-0.6-0.101-1.1-0.2-1.7-0.2l-4.8-0.4
						C146,561.3,145.3,561.3,144.6,561.3L144.6,561.3L144.6,561.3z"/>
					<path fill="#636E74" d="M144.6,561.3c-0.6,0-1.1,0-1.6,0c-0.4-0.3-0.7-0.5-1.1-0.8c-0.2-0.1-0.4-0.1-0.5-0.3
						c-0.1-0.101-0.1-0.101-0.2-0.101c-4.6-2.8-9.7-5.399-15.3-7.8l-0.3-0.2h-0.1c-0.8-0.399-1.3-0.6-1.3-0.6
						c-0.1-0.1-0.3-0.1-0.4-0.2c-0.6-0.3-1.1-0.6-1.6-0.8c-0.4-0.1-0.8-0.3-1.1-0.5h0.1c9.2-1.4,18.3-1,27.3,1.2
						c0.4,0.1,0.9,0.2,1.3,0.3c0.4,0.1,0.9,0.2,1.4,0.3c2.7,0.7,5.3,1.601,7.9,2.7c3.6,1.4,7,2.6,10.4,3.7c3.3,1,6.5,2,9.5,2.8
						c7.4,1.9,14,3.1,19.8,3.4c0.1,0,0.1,0,0.1,0c0.1,0,0.2,0,0.2,0c0.1,0,0.1,0,0.1,0c0.6,0,1.2,0,1.6,0c0.1,0,0.2,0,0.3,0
						c0.2,0,0.4,0,0.6,0l0,0l0.4,6.8l0,0c0,0,0,0.1,0.1,0.2h-0.1c0,0,0,0,0,0.1c-6.3,0.5-15.2-1-26.7-4.4
						c-2.8-0.899-5.4-1.699-8-2.3c-4.3-1.2-8.3-2.1-12-2.7c-0.9-0.199-1.7-0.3-2.4-0.399c-0.6-0.101-1.1-0.2-1.7-0.2l-4.8-0.4
						C146,561.3,145.3,561.3,144.6,561.3L144.6,561.3L144.6,561.3z"/>
					
						<linearGradient id="SVGID_40_" gradientUnits="userSpaceOnUse" x1="223.8413" y1="-93.9863" x2="251.3864" y2="-66.4315" gradientTransform="matrix(1 0 0 -1 -97.6602 480.04)">
						<stop  offset="0" style="stop-color:#000000"/>
						<stop  offset="1" style="stop-color:#405769"/>
					</linearGradient>
					<path fill="url(#SVGID_40_)" d="M121.3,550.2l-7.3-3.9l0.3-0.1c0.3-0.101,0.5-0.2,0.8-0.3c9.1-2.4,20.5-1.801,34.2,1.8
						c0.5,0.1,1,0.2,1.5,0.399c0.5,0.101,0.9,0.2,1.4,0.301c0,0,0.1,0,0.1,0.1c0.3,0,0.5,0.1,0.9,0.2c3.5,1,7.1,2.3,10.9,3.7
						c5.7,2.199,11.4,3.8,17,4.8l-2,3.8c-3-0.8-6.2-1.7-9.5-2.8c-3.4-1.101-6.8-2.3-10.4-3.7c-2.6-1-5.3-1.9-7.9-2.7
						c-0.5-0.2-0.9-0.3-1.4-0.3c-0.4-0.1-0.8-0.2-1.3-0.3C139.5,549.2,130.5,548.8,121.3,550.2z"/>
					
						<linearGradient id="SVGID_41_" gradientUnits="userSpaceOnUse" x1="223.8413" y1="-93.9863" x2="251.3864" y2="-66.4315" gradientTransform="matrix(1 0 0 -1 -97.6602 480.04)">
						<stop  offset="0" style="stop-color:#000000"/>
						<stop  offset="1" style="stop-color:#405769"/>
					</linearGradient>
					<path fill="url(#SVGID_41_)" d="M121.3,550.2l-7.3-3.9l0.3-0.1c0.3-0.101,0.5-0.2,0.8-0.3c9.1-2.4,20.5-1.801,34.2,1.8
						c0.5,0.1,1,0.2,1.5,0.399c0.5,0.101,0.9,0.2,1.4,0.301c0,0,0.1,0,0.1,0.1c0.3,0,0.5,0.1,0.9,0.2c3.5,1,7.1,2.3,10.9,3.7
						c5.7,2.199,11.4,3.8,17,4.8l-2,3.8c-3-0.8-6.2-1.7-9.5-2.8c-3.4-1.101-6.8-2.3-10.4-3.7c-2.6-1-5.3-1.9-7.9-2.7
						c-0.5-0.2-0.9-0.3-1.4-0.3c-0.4-0.1-0.8-0.2-1.3-0.3C139.5,549.2,130.5,548.8,121.3,550.2z"/>
					<path fill="#252729" d="M175.5,567.2c11.5,3.399,20.4,4.899,26.7,4.399v0.101h0.1c0.1,0,0.3,0,0.5,0h0.1c0.1,0,0.2,0,0.3,0l0,0
						c0.5,0,0.9,0,1.4,0c4.4-0.2,8.2-0.7,11.5-1.5c0.1-0.101,0.3-0.101,0.4-0.101c0.4-0.1,0.8-0.199,1.2-0.3l0.9-0.3
						c2.7-0.7,4.5-1.2,5.5-1.5c1.3-0.5,5.7-1.8,13.1-4.1c7.4-2.4,16-3.101,25.7-2.3c-9,0.1-17.5,1.399-25.5,3.899
						c-0.2,0-0.4,0.101-0.5,0.101c-7.8,2.399-12.6,3.899-14.5,4.6c-0.7,0.3-1.6,0.5-2.5,0.8c-1.5,0.4-3.2,0.8-5.1,1.2
						c-1.6,0.3-3.1,0.6-4.5,0.8c-1.4,0.2-2.7,0.3-3.9,0.4c-1,0.1-2.1,0.2-3.3,0.3c-0.4,0-0.8,0.1-1.1,0.1c-1,0-2.1,0-3.2,0l0,0
						c-0.1,0-0.3,0-0.5,0c-1.2,0-2.6-0.2-4.2-0.399c-0.1,0-0.1,0-0.2,0c-3.9-0.2-9.5-1.4-16.8-3.7c-5.9-1.8-11.3-3.4-16.4-4.8
						c-1.1-0.301-2.3-0.601-3.4-0.9c-0.1-0.1-0.3-0.1-0.4-0.1c-5.6-1.5-9.5-2.301-11.7-2.5c-0.2-0.101-0.3-0.101-0.5-0.101
						c0.7,0,1.4,0,2.1,0.101l4.8,0.399c0.6,0,1.1,0.101,1.7,0.2c0.6,0.1,1.4,0.2,2.4,0.4c3.4,0.6,8.7,2,16,4l2.7,0.7L175.5,567.2z"
						/>
					<path fill="#252729" d="M175.5,567.2c11.5,3.399,20.4,4.899,26.7,4.399v0.101h0.1c0.1,0,0.3,0,0.5,0h0.1c0.1,0,0.2,0,0.3,0l0,0
						c0.5,0,0.9,0,1.4,0c4.4-0.2,8.2-0.7,11.5-1.5c0.1-0.101,0.3-0.101,0.4-0.101c0.4-0.1,0.8-0.199,1.2-0.3l0.9-0.3
						c2.7-0.7,4.5-1.2,5.5-1.5c1.3-0.5,5.7-1.8,13.1-4.1c7.4-2.4,16-3.101,25.7-2.3c-9,0.1-17.5,1.399-25.5,3.899
						c-0.2,0-0.4,0.101-0.5,0.101c-7.8,2.399-12.6,3.899-14.5,4.6c-0.7,0.3-1.6,0.5-2.5,0.8c-1.5,0.4-3.2,0.8-5.1,1.2
						c-1.6,0.3-3.1,0.6-4.5,0.8c-1.4,0.2-2.7,0.3-3.9,0.4c-1,0.1-2.1,0.2-3.3,0.3c-0.4,0-0.8,0.1-1.1,0.1c-1,0-2.1,0-3.2,0l0,0
						c-0.1,0-0.3,0-0.5,0c-1.2,0-2.6-0.2-4.2-0.399c-0.1,0-0.1,0-0.2,0c-3.9-0.2-9.5-1.4-16.8-3.7c-5.9-1.8-11.3-3.4-16.4-4.8
						c-1.1-0.301-2.3-0.601-3.4-0.9c-0.1-0.1-0.3-0.1-0.4-0.1c-5.6-1.5-9.5-2.301-11.7-2.5c-0.2-0.101-0.3-0.101-0.5-0.101
						c0.7,0,1.4,0,2.1,0.101l4.8,0.399c0.6,0,1.1,0.101,1.7,0.2c0.6,0.1,1.4,0.2,2.4,0.4c3.4,0.6,8.7,2,16,4l2.7,0.7L175.5,567.2z"
						/>
					<path fill="#616C72" d="M198.8,575.2V594.1c1,1.4,2.7,2.4,5.3,2.801v0.3H204c-0.3,0-0.7,0-1,0c-10.9-0.5-21.8-3.101-32.7-7.9
						c-4.5-8.5-11.2-16.2-20.1-22.899c-1.8-1.5-3.8-2.9-5.9-4.2c-0.4-0.3-0.9-0.5-1.3-0.8c0.5,0,1.1,0,1.6,0
						c0.9,0.399,2.2,0.899,3.8,1.5c2,0.699,4.7,1.5,8,2.399h0.1c0.1,0,0.2,0,0.4,0.101c6,1.6,12.6,3.5,19.8,5.699
						c0.1,0.101,0.3,0.101,0.4,0.101c2.2,0.7,4.3,1.3,6.3,1.899c2,0.601,4.8,1.101,8.3,1.5C195.1,574.9,197.5,575.1,198.8,575.2
						L198.8,575.2z M155.5,562.3c3.6,0.601,7.6,1.5,12,2.7c2.6,0.6,5.2,1.3,8,2.3l-1.3-0.2l-2.7-0.699
						C164.2,564.3,158.9,562.9,155.5,562.3z"/>
					<path fill="#616C72" d="M198.8,575.2V594.1c1,1.4,2.7,2.4,5.3,2.801v0.3H204c-0.3,0-0.7,0-1,0c-10.9-0.5-21.8-3.101-32.7-7.9
						c-4.5-8.5-11.2-16.2-20.1-22.899c-1.8-1.5-3.8-2.9-5.9-4.2c-0.4-0.3-0.9-0.5-1.3-0.8c0.5,0,1.1,0,1.6,0
						c0.9,0.399,2.2,0.899,3.8,1.5c2,0.699,4.7,1.5,8,2.399h0.1c0.1,0,0.2,0,0.4,0.101c6,1.6,12.6,3.5,19.8,5.699
						c0.1,0.101,0.3,0.101,0.4,0.101c2.2,0.7,4.3,1.3,6.3,1.899c2,0.601,4.8,1.101,8.3,1.5C195.1,574.9,197.5,575.1,198.8,575.2
						L198.8,575.2z M155.5,562.3c3.6,0.601,7.6,1.5,12,2.7c2.6,0.6,5.2,1.3,8,2.3l-1.3-0.2l-2.7-0.699
						C164.2,564.3,158.9,562.9,155.5,562.3z"/>
					
						<linearGradient id="SVGID_42_" gradientUnits="userSpaceOnUse" x1="242.2603" y1="-88.1729" x2="360.46" y2="-88.1729" gradientTransform="matrix(1 0 0 -1 -97.6602 480.04)">
						<stop  offset="0" style="stop-color:#97A0A4"/>
						<stop  offset="1" style="stop-color:#4C555A"/>
					</linearGradient>
					<path fill="url(#SVGID_42_)" d="M144.6,561.3L144.6,561.3L144.6,561.3c0.2-0.1,0.4-0.1,0.5,0c2.2,0.101,6.1,1,11.7,2.5
						c0.1,0,0.3,0,0.4,0.101c1.1,0.3,2.2,0.6,3.4,0.899c5.1,1.4,10.6,3,16.4,4.8c7.3,2.301,12.9,3.5,16.8,3.7c0.1,0,0.1,0,0.2,0
						c1.6,0.2,3,0.3,4.2,0.4c0.2,0,0.4,0,0.5,0l0,0c1.1,0,2.2,0,3.2,0c0.4,0,0.8,0,1.1-0.101c1.1-0.1,2.2-0.1,3.3-0.3
						c1.2-0.1,2.5-0.2,3.9-0.399c1.4-0.2,2.9-0.5,4.5-0.801c1.9-0.399,3.6-0.8,5.1-1.199c1-0.2,1.8-0.5,2.5-0.801
						c1.9-0.699,6.7-2.199,14.5-4.6c0.1-0.1,0.3-0.1,0.5-0.1c8-2.5,16.5-3.8,25.5-3.9c-9,1-17.5,2.8-25.5,5.3
						c-7.5,2.4-12.3,3.9-14.5,4.601h-0.1c-0.1,0-0.3,0-0.4,0.1c-0.5,0.2-1,0.3-1.5,0.5c-1.7,0.5-3.8,1-6.1,1.5
						c-0.8,0.1-1.5,0.3-2.3,0.4l-9.5,1.3l-4.1-0.101h-0.1l0,0c-1.3-0.1-3.6-0.3-7.1-0.699c-3.5-0.4-6.3-0.9-8.3-1.5
						c-2-0.601-4.1-1.2-6.3-1.9c-0.2,0-0.3-0.1-0.4-0.1c-7.1-2.2-13.7-4.101-19.8-5.7c-0.1-0.101-0.3-0.101-0.4-0.101h-0.1
						c-3.3-0.899-6-1.699-8-2.399C146.8,562.2,145.5,561.8,144.6,561.3z"/>
					
						<linearGradient id="SVGID_43_" gradientUnits="userSpaceOnUse" x1="242.2603" y1="-88.1729" x2="360.46" y2="-88.1729" gradientTransform="matrix(1 0 0 -1 -97.6602 480.04)">
						<stop  offset="0" style="stop-color:#97A0A4"/>
						<stop  offset="1" style="stop-color:#4C555A"/>
					</linearGradient>
					<path fill="url(#SVGID_43_)" d="M144.6,561.3L144.6,561.3L144.6,561.3c0.2-0.1,0.4-0.1,0.5,0c2.2,0.101,6.1,1,11.7,2.5
						c0.1,0,0.3,0,0.4,0.101c1.1,0.3,2.2,0.6,3.4,0.899c5.1,1.4,10.6,3,16.4,4.8c7.3,2.301,12.9,3.5,16.8,3.7c0.1,0,0.1,0,0.2,0
						c1.6,0.2,3,0.3,4.2,0.4c0.2,0,0.4,0,0.5,0l0,0c1.1,0,2.2,0,3.2,0c0.4,0,0.8,0,1.1-0.101c1.1-0.1,2.2-0.1,3.3-0.3
						c1.2-0.1,2.5-0.2,3.9-0.399c1.4-0.2,2.9-0.5,4.5-0.801c1.9-0.399,3.6-0.8,5.1-1.199c1-0.2,1.8-0.5,2.5-0.801
						c1.9-0.699,6.7-2.199,14.5-4.6c0.1-0.1,0.3-0.1,0.5-0.1c8-2.5,16.5-3.8,25.5-3.9c-9,1-17.5,2.8-25.5,5.3
						c-7.5,2.4-12.3,3.9-14.5,4.601h-0.1c-0.1,0-0.3,0-0.4,0.1c-0.5,0.2-1,0.3-1.5,0.5c-1.7,0.5-3.8,1-6.1,1.5
						c-0.8,0.1-1.5,0.3-2.3,0.4l-9.5,1.3l-4.1-0.101h-0.1l0,0c-1.3-0.1-3.6-0.3-7.1-0.699c-3.5-0.4-6.3-0.9-8.3-1.5
						c-2-0.601-4.1-1.2-6.3-1.9c-0.2,0-0.3-0.1-0.4-0.1c-7.1-2.2-13.7-4.101-19.8-5.7c-0.1-0.101-0.3-0.101-0.4-0.101h-0.1
						c-3.3-0.899-6-1.699-8-2.399C146.8,562.2,145.5,561.8,144.6,561.3z"/>
					<path fill="#4C555A" d="M204,596.8l-1-21.5l9.5-1.3c0.7-0.1,1.5-0.3,2.3-0.4c2.4-0.5,4.5-1,6.1-1.5c0.5-0.199,1-0.3,1.5-0.5
						c0.1,0,0.2-0.1,0.4-0.1h0.1c2.2-0.7,7-2.3,14.5-4.6c8-2.5,16.5-4.301,25.5-5.301c-9.7-0.8-18.3-0.1-25.7,2.301
						c-7.4,2.3-11.8,3.699-13.1,4.1c-1,0.4-2.9,0.9-5.5,1.5l-0.9,0.3c-0.4,0.101-0.8,0.2-1.2,0.3c-0.1,0-0.3,0-0.4,0.101
						c-3.3,0.8-7.1,1.3-11.5,1.5c-0.5,0-0.9,0-1.4,0l0,0c-0.1,0-0.1,0-0.3,0h-0.1c-0.2,0-0.3,0-0.5,0h-0.1V571.6c0-0.1,0-0.1,0-0.1
						h0.1c-0.1-0.1-0.1-0.2-0.1-0.2l0,0l-0.4-6.8c8.4,0.1,21-3.3,37.8-10.1c0.8-0.301,1.8-0.601,2.9-1c2.1-0.7,4.7-1.301,7.8-1.9
						c0.6-0.1,1.3-0.2,2-0.3c2.5-0.4,5.2-0.8,8.1-1.2c7.7-0.8,15.7-1,24-0.3l-0.3,0.1l0,0L284,550c-0.1,0-0.1,0-0.2,0
						c-0.4,0.3-0.8,0.4-0.9,0.5c-0.4,0.2-0.8,0.4-1.3,0.6c-1.2,0.5-2.3,1-3.4,1.601c0,0-0.1,0-0.1,0.1c-6.1,2.9-11,5.7-14.9,8.5v0.1
						c-0.1,0-0.3,0.101-0.4,0.2c-10.7,7.7-17.8,16.9-21.1,27.601c-0.1,0-0.1,0-0.1,0.1c-7.6,3.9-20.1,6.5-37.6,7.8V596.8h0.1H204z
						 M212.8,563.5c-0.5,0-1,0.1-1.4,0.2c-0.5,0.1-1,0.2-1.4,0.3C210.2,567.6,211.2,567.5,212.8,563.5L212.8,563.5z"/>
					<path fill="#4C555A" d="M204,596.8l-1-21.5l9.5-1.3c0.7-0.1,1.5-0.3,2.3-0.4c2.4-0.5,4.5-1,6.1-1.5c0.5-0.199,1-0.3,1.5-0.5
						c0.1,0,0.2-0.1,0.4-0.1h0.1c2.2-0.7,7-2.3,14.5-4.6c8-2.5,16.5-4.301,25.5-5.301c-9.7-0.8-18.3-0.1-25.7,2.301
						c-7.4,2.3-11.8,3.699-13.1,4.1c-1,0.4-2.9,0.9-5.5,1.5l-0.9,0.3c-0.4,0.101-0.8,0.2-1.2,0.3c-0.1,0-0.3,0-0.4,0.101
						c-3.3,0.8-7.1,1.3-11.5,1.5c-0.5,0-0.9,0-1.4,0l0,0c-0.1,0-0.1,0-0.3,0h-0.1c-0.2,0-0.3,0-0.5,0h-0.1V571.6c0-0.1,0-0.1,0-0.1
						h0.1c-0.1-0.1-0.1-0.2-0.1-0.2l0,0l-0.4-6.8c8.4,0.1,21-3.3,37.8-10.1c0.8-0.301,1.8-0.601,2.9-1c2.1-0.7,4.7-1.301,7.8-1.9
						c0.6-0.1,1.3-0.2,2-0.3c2.5-0.4,5.2-0.8,8.1-1.2c7.7-0.8,15.7-1,24-0.3l-0.3,0.1l0,0L284,550c-0.1,0-0.1,0-0.2,0
						c-0.4,0.3-0.8,0.4-0.9,0.5c-0.4,0.2-0.8,0.4-1.3,0.6c-1.2,0.5-2.3,1-3.4,1.601c0,0-0.1,0-0.1,0.1c-6.1,2.9-11,5.7-14.9,8.5v0.1
						c-0.1,0-0.3,0.101-0.4,0.2c-10.7,7.7-17.8,16.9-21.1,27.601c-0.1,0-0.1,0-0.1,0.1c-7.6,3.9-20.1,6.5-37.6,7.8V596.8h0.1H204z
						 M212.8,563.5c-0.5,0-1,0.1-1.4,0.2c-0.5,0.1-1,0.2-1.4,0.3C210.2,567.6,211.2,567.5,212.8,563.5L212.8,563.5z"/>
					
						<linearGradient id="SVGID_44_" gradientUnits="userSpaceOnUse" x1="299.0508" y1="-101.0103" x2="310.5497" y2="-99.4726" gradientTransform="matrix(1 0 0 -1 -97.6602 480.04)">
						<stop  offset="0.0157" style="stop-color:#616C72"/>
						<stop  offset="0.5059" style="stop-color:#424B4F"/>
						<stop  offset="1" style="stop-color:#4C555A"/>
					</linearGradient>
					<path fill="url(#SVGID_44_)" d="M203,575.3l1,21.5l0,0c-2.6-0.399-4.3-1.3-5.3-2.8v-18.9c0.1,0,0.1,0,0.1,0L203,575.3z
						 M212.8,563.5L212.8,563.5c-1.6,4-2.6,4.1-2.8,0.5c0.4-0.1,0.9-0.2,1.4-0.3C211.8,563.5,212.3,563.5,212.8,563.5z"/>
					
						<linearGradient id="SVGID_45_" gradientUnits="userSpaceOnUse" x1="299.0508" y1="-101.0103" x2="310.5497" y2="-99.4726" gradientTransform="matrix(1 0 0 -1 -97.6602 480.04)">
						<stop  offset="0.0157" style="stop-color:#616C72"/>
						<stop  offset="0.5059" style="stop-color:#424B4F"/>
						<stop  offset="1" style="stop-color:#4C555A"/>
					</linearGradient>
					<path fill="url(#SVGID_45_)" d="M203,575.3l1,21.5l0,0c-2.6-0.399-4.3-1.3-5.3-2.8v-18.9c0.1,0,0.1,0,0.1,0L203,575.3z
						 M212.8,563.5L212.8,563.5c-1.6,4-2.6,4.1-2.8,0.5c0.4-0.1,0.9-0.2,1.4-0.3C211.8,563.5,212.3,563.5,212.8,563.5z"/>
					
						<radialGradient id="SVGID_46_" cx="270.709" cy="-603.9175" r="29.1041" gradientTransform="matrix(0.964 0.266 0.036 -0.1303 -86.8414 397.2498)" gradientUnits="userSpaceOnUse">
						<stop  offset="0" style="stop-color:#90A2B0"/>
						<stop  offset="1" style="stop-color:#49586B"/>
					</radialGradient>
					<path fill="url(#SVGID_46_)" d="M208.1,557.7l-0.3-2.4c4.7-0.3,9.9-1.399,15.4-3.3c2.4-0.9,4.6-1.7,6.8-2.3
						c-6.3,3.5-13.6,6.2-21.8,7.899C208.2,557.6,208.2,557.6,208.1,557.7z"/>
					
						<radialGradient id="SVGID_47_" cx="270.709" cy="-603.9175" r="29.1041" gradientTransform="matrix(0.964 0.266 0.036 -0.1303 -86.8414 397.2498)" gradientUnits="userSpaceOnUse">
						<stop  offset="0" style="stop-color:#90A2B0"/>
						<stop  offset="1" style="stop-color:#49586B"/>
					</radialGradient>
					<path fill="url(#SVGID_47_)" d="M208.1,557.7l-0.3-2.4c4.7-0.3,9.9-1.399,15.4-3.3c2.4-0.9,4.6-1.7,6.8-2.3
						c-6.3,3.5-13.6,6.2-21.8,7.899C208.2,557.6,208.2,557.6,208.1,557.7z"/>
					
						<linearGradient id="SVGID_48_" gradientUnits="userSpaceOnUse" x1="378.96" y1="-69.5098" x2="378.96" y2="-139.6097" gradientTransform="matrix(1 0 0 -1 -97.6602 480.04)">
						<stop  offset="0" style="stop-color:#707A7E"/>
						<stop  offset="0.0314" style="stop-color:#97A0A4"/>
						<stop  offset="0.102" style="stop-color:#9FA6AC"/>
						<stop  offset="1" style="stop-color:#C9D0DA"/>
					</linearGradient>
					<path fill="url(#SVGID_48_)" d="M282,552.9l-1.4,1.399l1-1.3l0,0c0.1,0,0.1,0,0.1,0C281.9,552.9,281.9,552.9,282,552.9z"/>
					
						<linearGradient id="SVGID_49_" gradientUnits="userSpaceOnUse" x1="378.96" y1="-69.5098" x2="378.96" y2="-139.6097" gradientTransform="matrix(1 0 0 -1 -97.6602 480.04)">
						<stop  offset="0" style="stop-color:#707A7E"/>
						<stop  offset="0.0314" style="stop-color:#97A0A4"/>
						<stop  offset="0.102" style="stop-color:#9FA6AC"/>
						<stop  offset="1" style="stop-color:#C9D0DA"/>
					</linearGradient>
					<path fill="url(#SVGID_49_)" d="M282,552.9l-1.4,1.399l1-1.3l0,0c0.1,0,0.1,0,0.1,0C281.9,552.9,281.9,552.9,282,552.9z"/>
					
						<linearGradient id="SVGID_50_" gradientUnits="userSpaceOnUse" x1="385.8594" y1="-55.2852" x2="385.8594" y2="-153.1351" gradientTransform="matrix(1 0 0 -1 -97.6602 480.04)">
						<stop  offset="0" style="stop-color:#707A7E"/>
						<stop  offset="0.0314" style="stop-color:#97A0A4"/>
						<stop  offset="0.102" style="stop-color:#9FA6AC"/>
						<stop  offset="1" style="stop-color:#C9D0DA"/>
					</linearGradient>
					<path fill="url(#SVGID_50_)" d="M288,549.6l0.9-0.5c-0.4,0.2-0.7,0.4-1.1,0.601c-0.1,0-0.2,0.1-0.3,0.1L288,549.6z"/>
					
						<linearGradient id="SVGID_51_" gradientUnits="userSpaceOnUse" x1="385.8594" y1="-55.2852" x2="385.8594" y2="-153.1351" gradientTransform="matrix(1 0 0 -1 -97.6602 480.04)">
						<stop  offset="0" style="stop-color:#707A7E"/>
						<stop  offset="0.0314" style="stop-color:#97A0A4"/>
						<stop  offset="0.102" style="stop-color:#9FA6AC"/>
						<stop  offset="1" style="stop-color:#C9D0DA"/>
					</linearGradient>
					<path fill="url(#SVGID_51_)" d="M288,549.6l0.9-0.5c-0.4,0.2-0.7,0.4-1.1,0.601c-0.1,0-0.2,0.1-0.3,0.1L288,549.6z"/>
					<path fill="#1E2932" d="M110,538.9c-1.2,1.399-0.8,3,1.2,4.899c0.8,0.7,1.8,1.5,3,2.4l-0.3,0.1l7.3,3.9h-0.1
						c0.3,0.2,0.7,0.4,1.1,0.5c0.5,0.3,1,0.5,1.6,0.8c0.1,0,0.2,0.1,0.4,0.2c0.1,0,0.5,0.2,1.3,0.6c-0.4,0.3-1.3,0.2-2.9-0.5
						c-1.6-0.6-2.6-1-2.9-1.1c-0.9-0.4-1.7-0.7-2.5-1c-0.6-0.3-1.1-0.6-1.6-0.8c-0.7-0.3-1.3-0.601-1.8-0.9
						c-0.6-0.3-1.1-0.6-1.5-0.9c-0.4-0.199-0.8-0.5-1.1-0.699c-0.9-0.7-1.5-1.301-1.8-1.801c-0.5-0.699-0.8-1.1-0.9-1.199
						c-0.6-1.4-0.8-2.9-0.4-4.5c0-0.101,0.1-0.2,0.2-0.301c0.1-0.199,0.2-0.399,0.3-0.5c0.2-0.199,0.3-0.399,0.4-0.5
						c28.8-46.1,45.7-88.5,50.6-127.3l1.7,0.3C156.5,449.6,139.4,492.4,110,538.9z"/>
					<path fill="#1E2932" d="M110,538.9c-1.2,1.399-0.8,3,1.2,4.899c0.8,0.7,1.8,1.5,3,2.4l-0.3,0.1l7.3,3.9h-0.1
						c0.3,0.2,0.7,0.4,1.1,0.5c0.5,0.3,1,0.5,1.6,0.8c0.1,0,0.2,0.1,0.4,0.2c0.1,0,0.5,0.2,1.3,0.6c-0.4,0.3-1.3,0.2-2.9-0.5
						c-1.6-0.6-2.6-1-2.9-1.1c-0.9-0.4-1.7-0.7-2.5-1c-0.6-0.3-1.1-0.6-1.6-0.8c-0.7-0.3-1.3-0.601-1.8-0.9
						c-0.6-0.3-1.1-0.6-1.5-0.9c-0.4-0.199-0.8-0.5-1.1-0.699c-0.9-0.7-1.5-1.301-1.8-1.801c-0.5-0.699-0.8-1.1-0.9-1.199
						c-0.6-1.4-0.8-2.9-0.4-4.5c0-0.101,0.1-0.2,0.2-0.301c0.1-0.199,0.2-0.399,0.3-0.5c0.2-0.199,0.3-0.399,0.4-0.5
						c28.8-46.1,45.7-88.5,50.6-127.3l1.7,0.3C156.5,449.6,139.4,492.4,110,538.9z"/>
					
						<line fill="none" stroke="#0000FF" stroke-linecap="round" stroke-linejoin="round" stroke-miterlimit="3" x1="203.1" y1="571.7" x2="203.1" y2="571.7"/>
					
						<line fill="none" stroke="#0000FF" stroke-linecap="round" stroke-linejoin="round" stroke-miterlimit="3" x1="203.1" y1="571.7" x2="203.1" y2="571.7"/>
				</g>
			</g>
			<g>
				
					<radialGradient id="SVGID_52_" cx="327.0605" cy="-44.7598" r="39.875" gradientTransform="matrix(1 0 0 -1 -97.6602 480.04)" gradientUnits="userSpaceOnUse">
					<stop  offset="0" style="stop-color:#A08D7E"/>
					<stop  offset="1" style="stop-color:#586973;stop-opacity:0"/>
				</radialGradient>
				<path fill="url(#SVGID_52_)" d="M272.3,484.6c3.2,5,6.3,11.7,9.3,20.101c4.7,13.5,4.1,24.2-1.9,32.1c-3,1.4-5.7,2.4-8.1,3.101
					c-2.9,0.699-5.4,0.899-7.3,0.5c-0.3-0.101-0.7-0.101-1.1-0.101c-1.1,0.101-2.1,0.2-3.1,0.4c-5.6,0.899-15.6,3.899-30,8.899
					c-2.2,0.7-4.5,1.5-6.8,2.301c-5.5,1.899-10.7,3-15.4,3.3c-3.5,0.2-6.8,0-9.9-0.8c-10.8-2.601-19-10.7-24.6-24.301
					c0.3-0.899,0.7-1.8,1.1-2.699c6.1-12.7,8.4-24.7,7.1-36c-0.3-2.601,0-4.9,0.9-7c3.1-6.801,12.9-10.5,29.5-11.2
					c21.6-0.9,36.8-1,45.7-0.3C262.8,473.5,267.7,477.3,272.3,484.6z"/>
				
					<radialGradient id="SVGID_53_" cx="327.0605" cy="-44.7598" r="39.875" gradientTransform="matrix(1 0 0 -1 -97.6602 480.04)" gradientUnits="userSpaceOnUse">
					<stop  offset="0" style="stop-color:#A08D7E"/>
					<stop  offset="1" style="stop-color:#586973;stop-opacity:0"/>
				</radialGradient>
				<path fill="url(#SVGID_53_)" d="M272.3,484.6c3.2,5,6.3,11.7,9.3,20.101c4.7,13.5,4.1,24.2-1.9,32.1c-3,1.4-5.7,2.4-8.1,3.101
					c-2.9,0.699-5.4,0.899-7.3,0.5c-0.3-0.101-0.7-0.101-1.1-0.101c-1.1,0.101-2.1,0.2-3.1,0.4c-5.6,0.899-15.6,3.899-30,8.899
					c-2.2,0.7-4.5,1.5-6.8,2.301c-5.5,1.899-10.7,3-15.4,3.3c-3.5,0.2-6.8,0-9.9-0.8c-10.8-2.601-19-10.7-24.6-24.301
					c0.3-0.899,0.7-1.8,1.1-2.699c6.1-12.7,8.4-24.7,7.1-36c-0.3-2.601,0-4.9,0.9-7c3.1-6.801,12.9-10.5,29.5-11.2
					c21.6-0.9,36.8-1,45.7-0.3C262.8,473.5,267.7,477.3,272.3,484.6z"/>
			</g>
			<g>
				
					<radialGradient id="SVGID_54_" cx="317.71" cy="-105.3896" r="38.0952" gradientTransform="matrix(1 0 0 -0.344 -97.6602 414.7954)" gradientUnits="userSpaceOnUse">
					<stop  offset="0" style="stop-color:#000000;stop-opacity:0.9333"/>
					<stop  offset="0.6157" style="stop-color:#1B2025;stop-opacity:0.6588"/>
					<stop  offset="1" style="stop-color:#5F7080;stop-opacity:0"/>
				</radialGradient>
				<path fill="url(#SVGID_54_)" d="M246.9,460.3c-7.4,2.5-16.4,3.8-26.9,3.8c-10.4,0-19.3-1.3-26.8-3.8c-7.4-2.6-11.1-5.6-11.1-9.2
					c0-3.6,3.7-6.699,11.1-9.199c7.4-2.601,16.4-3.9,26.8-3.9c10.5,0,19.5,1.3,26.9,3.9c7.4,2.5,11.1,5.6,11.1,9.199
					C258,454.7,254.3,457.7,246.9,460.3z"/>
				
					<radialGradient id="SVGID_55_" cx="317.71" cy="-105.3896" r="38.0952" gradientTransform="matrix(1 0 0 -0.344 -97.6602 414.7954)" gradientUnits="userSpaceOnUse">
					<stop  offset="0" style="stop-color:#000000;stop-opacity:0.9333"/>
					<stop  offset="0.6157" style="stop-color:#1B2025;stop-opacity:0.6588"/>
					<stop  offset="1" style="stop-color:#5F7080;stop-opacity:0"/>
				</radialGradient>
				<path fill="url(#SVGID_55_)" d="M246.9,460.3c-7.4,2.5-16.4,3.8-26.9,3.8c-10.4,0-19.3-1.3-26.8-3.8c-7.4-2.6-11.1-5.6-11.1-9.2
					c0-3.6,3.7-6.699,11.1-9.199c7.4-2.601,16.4-3.9,26.8-3.9c10.5,0,19.5,1.3,26.9,3.9c7.4,2.5,11.1,5.6,11.1,9.199
					C258,454.7,254.3,457.7,246.9,460.3z"/>
			</g>
			<g>
				
					<radialGradient id="SVGID_56_" cx="311.71" cy="23.9771" r="26.35" gradientTransform="matrix(1 0 0 -0.8805 -97.6602 467.6314)" gradientUnits="userSpaceOnUse">
					<stop  offset="0.2275" style="stop-color:#FFFFFF"/>
					<stop  offset="0.6" style="stop-color:#ABB4BD;stop-opacity:0.4745"/>
					<stop  offset="1" style="stop-color:#5F7080;stop-opacity:0"/>
				</radialGradient>
				<path fill="url(#SVGID_56_)" d="M191.9,448.6l0.3-0.199c3.5,3.5,7.4,5.699,11.5,6.6c1.8,0.5,3.5,0.8,5.1,1.1
					c4.9,0.9,9.9,1,14.8,0.4c3.9-0.6,7-1.6,9.4-3c2.4-1.5,4-3,4.8-4.5l0.2,24.5l-45.7-1.2L191.9,448.6z"/>
				
					<radialGradient id="SVGID_57_" cx="311.71" cy="23.9771" r="26.35" gradientTransform="matrix(1 0 0 -0.8805 -97.6602 467.6314)" gradientUnits="userSpaceOnUse">
					<stop  offset="0.2275" style="stop-color:#FFFFFF"/>
					<stop  offset="0.6" style="stop-color:#ABB4BD;stop-opacity:0.4745"/>
					<stop  offset="1" style="stop-color:#5F7080;stop-opacity:0"/>
				</radialGradient>
				<path fill="url(#SVGID_57_)" d="M191.9,448.6l0.3-0.199c3.5,3.5,7.4,5.699,11.5,6.6c1.8,0.5,3.5,0.8,5.1,1.1
					c4.9,0.9,9.9,1,14.8,0.4c3.9-0.6,7-1.6,9.4-3c2.4-1.5,4-3,4.8-4.5l0.2,24.5l-45.7-1.2L191.9,448.6z"/>
			</g>
			<g>
				<path fill="#15282F" d="M231.7,431.2c1.5,0.5,2.8,1,3.8,1.6c2.1,1.2,3.1,2.5,3.2,4v12.7c-0.1,2.1-2.4,4-7,5.5
					c-4.5,1.6-10,2.3-16.5,2.3s-12-0.8-16.5-2.3c-4.6-1.5-6.9-3.4-7-5.5v-12.7c0-1.399,1-2.7,3-3.899c1-0.601,2.3-1.2,4-1.7
					c4.5-1.601,10-2.4,16.5-2.4S227.2,429.6,231.7,431.2z"/>
				<path fill="#15282F" d="M231.7,431.2c1.5,0.5,2.8,1,3.8,1.6c2.1,1.2,3.1,2.5,3.2,4v12.7c-0.1,2.1-2.4,4-7,5.5
					c-4.5,1.6-10,2.3-16.5,2.3s-12-0.8-16.5-2.3c-4.6-1.5-6.9-3.4-7-5.5v-12.7c0-1.399,1-2.7,3-3.899c1-0.601,2.3-1.2,4-1.7
					c4.5-1.601,10-2.4,16.5-2.4S227.2,429.6,231.7,431.2z"/>
			</g>
			<g>
				<g>
					
						<linearGradient id="SVGID_58_" gradientUnits="userSpaceOnUse" x1="290.1104" y1="32.4399" x2="335.6099" y2="32.4399" gradientTransform="matrix(1 0 0 -1 -97.6602 480.04)">
						<stop  offset="0.0039" style="stop-color:#374E5C"/>
						<stop  offset="0.5255" style="stop-color:#98A6B6"/>
						<stop  offset="0.9569" style="stop-color:#3A515F"/>
					</linearGradient>
					<path fill="url(#SVGID_58_)" d="M237.9,439v9.6c0,2.101-2.3,3.9-6.6,5.4c-4.3,1.5-9.7,2.3-16,2.3c-6.3,0-11.6-0.8-16-2.3
						c-4.4-1.5-6.7-3.3-6.8-5.4V438.9c0.1,2.1,2.3,3.899,6.8,5.399c0.6,0.2,1.1,0.4,1.6,0.5c4.1,1.2,8.9,1.8,14.5,1.8
						s10.3-0.6,14.4-1.8c0.6-0.1,1.1-0.3,1.6-0.5C235.6,442.8,237.8,441,237.9,439z"/>
					
						<linearGradient id="SVGID_59_" gradientUnits="userSpaceOnUse" x1="290.1104" y1="32.4399" x2="335.6099" y2="32.4399" gradientTransform="matrix(1 0 0 -1 -97.6602 480.04)">
						<stop  offset="0.0039" style="stop-color:#374E5C"/>
						<stop  offset="0.5255" style="stop-color:#98A6B6"/>
						<stop  offset="0.9569" style="stop-color:#3A515F"/>
					</linearGradient>
					<path fill="url(#SVGID_59_)" d="M237.9,439v9.6c0,2.101-2.3,3.9-6.6,5.4c-4.3,1.5-9.7,2.3-16,2.3c-6.3,0-11.6-0.8-16-2.3
						c-4.4-1.5-6.7-3.3-6.8-5.4V438.9c0.1,2.1,2.3,3.899,6.8,5.399c0.6,0.2,1.1,0.4,1.6,0.5c4.1,1.2,8.9,1.8,14.5,1.8
						s10.3-0.6,14.4-1.8c0.6-0.1,1.1-0.3,1.6-0.5C235.6,442.8,237.8,441,237.9,439z"/>
					
						<radialGradient id="SVGID_60_" cx="311.3604" cy="34.8398" r="25.775" gradientTransform="matrix(1 0 0 -1 -97.6602 480.04)" gradientUnits="userSpaceOnUse">
						<stop  offset="0" style="stop-color:#98A6B6"/>
						<stop  offset="1" style="stop-color:#5D6E7E"/>
					</radialGradient>
					<path fill="url(#SVGID_60_)" d="M192.5,438.9v-2.5c0.1,2.1,2.3,3.8,6.8,5.3c0.6,0.2,1.1,0.399,1.6,0.6
						c4.1,1.2,8.9,1.8,14.5,1.8s10.3-0.6,14.4-1.8c0.6-0.2,1.1-0.399,1.6-0.6c4.4-1.5,6.6-3.3,6.6-5.3v2.5
						c-0.1,2.1-2.3,3.899-6.6,5.3c-0.5,0.2-1,0.399-1.6,0.5c-4.1,1.2-8.9,1.8-14.4,1.8s-10.4-0.6-14.5-1.8c-0.5-0.101-1-0.3-1.6-0.5
						C194.8,442.8,192.5,441,192.5,438.9z"/>
					
						<radialGradient id="SVGID_61_" cx="311.3604" cy="34.8398" r="25.775" gradientTransform="matrix(1 0 0 -1 -97.6602 480.04)" gradientUnits="userSpaceOnUse">
						<stop  offset="0" style="stop-color:#98A6B6"/>
						<stop  offset="1" style="stop-color:#5D6E7E"/>
					</radialGradient>
					<path fill="url(#SVGID_61_)" d="M192.5,438.9v-2.5c0.1,2.1,2.3,3.8,6.8,5.3c0.6,0.2,1.1,0.399,1.6,0.6
						c4.1,1.2,8.9,1.8,14.5,1.8s10.3-0.6,14.4-1.8c0.6-0.2,1.1-0.399,1.6-0.6c4.4-1.5,6.6-3.3,6.6-5.3v2.5
						c-0.1,2.1-2.3,3.899-6.6,5.3c-0.5,0.2-1,0.399-1.6,0.5c-4.1,1.2-8.9,1.8-14.4,1.8s-10.4-0.6-14.5-1.8c-0.5-0.101-1-0.3-1.6-0.5
						C194.8,442.8,192.5,441,192.5,438.9z"/>
					<path fill="#3F4D58" d="M234.9,432.4c2,1.199,3,2.399,3,3.8v0.3c-0.1,2-2.3,3.8-6.6,5.3c-0.5,0.2-1,0.4-1.6,0.601
						c-4.1,1.199-8.9,1.8-14.4,1.8s-10.4-0.601-14.5-1.8c-0.5-0.2-1-0.4-1.6-0.601c-4.4-1.5-6.7-3.3-6.8-5.3v-0.3
						c0.1-1.4,1.1-2.601,3-3.8c-1,0.899-1.6,1.8-1.7,2.8c0.1,2,2.2,3.7,6.3,5.2c0.5,0.199,1,0.3,1.5,0.5
						c3.8,1.1,8.4,1.699,13.6,1.699c5.2,0,9.7-0.6,13.6-1.699c0.5-0.101,1-0.301,1.5-0.5c4.1-1.4,6.2-3.2,6.3-5.2
						C236.5,434.2,236,433.3,234.9,432.4z"/>
					<path fill="#3F4D58" d="M234.9,432.4c2,1.199,3,2.399,3,3.8v0.3c-0.1,2-2.3,3.8-6.6,5.3c-0.5,0.2-1,0.4-1.6,0.601
						c-4.1,1.199-8.9,1.8-14.4,1.8s-10.4-0.601-14.5-1.8c-0.5-0.2-1-0.4-1.6-0.601c-4.4-1.5-6.7-3.3-6.8-5.3v-0.3
						c0.1-1.4,1.1-2.601,3-3.8c-1,0.899-1.6,1.8-1.7,2.8c0.1,2,2.2,3.7,6.3,5.2c0.5,0.199,1,0.3,1.5,0.5
						c3.8,1.1,8.4,1.699,13.6,1.699c5.2,0,9.7-0.6,13.6-1.699c0.5-0.101,1-0.301,1.5-0.5c4.1-1.4,6.2-3.2,6.3-5.2
						C236.5,434.2,236,433.3,234.9,432.4z"/>
					<path fill="#4F616F" d="M195.5,432.5c1-0.6,2.2-1.2,3.8-1.7c4.4-1.5,9.8-2.3,16-2.3c6.2,0,11.6,0.8,16,2.3
						c1.5,0.5,2.7,1,3.6,1.7c1.1,0.9,1.7,1.8,1.8,2.9c-0.1,2-2.2,3.699-6.3,5.199c-0.5,0.2-1,0.301-1.5,0.5
						c-3.9,1.101-8.4,1.7-13.6,1.7c-5.2,0-9.8-0.6-13.6-1.7c-0.5-0.1-1-0.3-1.5-0.5c-4.1-1.399-6.2-3.199-6.3-5.199
						C193.9,434.3,194.4,433.3,195.5,432.5z"/>
					<path fill="#4F616F" d="M195.5,432.5c1-0.6,2.2-1.2,3.8-1.7c4.4-1.5,9.8-2.3,16-2.3c6.2,0,11.6,0.8,16,2.3
						c1.5,0.5,2.7,1,3.6,1.7c1.1,0.9,1.7,1.8,1.8,2.9c-0.1,2-2.2,3.699-6.3,5.199c-0.5,0.2-1,0.301-1.5,0.5
						c-3.9,1.101-8.4,1.7-13.6,1.7c-5.2,0-9.8-0.6-13.6-1.7c-0.5-0.1-1-0.3-1.5-0.5c-4.1-1.399-6.2-3.199-6.3-5.199
						C193.9,434.3,194.4,433.3,195.5,432.5z"/>
				</g>
			</g>
			
				<radialGradient id="SVGID_62_" cx="5.8149" cy="439.8057" r="12.6997" gradientTransform="matrix(1.3519 0 0 -0.4264 206.1786 631.1734)" gradientUnits="userSpaceOnUse">
				<stop  offset="0" style="stop-color:#FFFFFF"/>
				<stop  offset="0.0353" style="stop-color:#FFFFFF"/>
				<stop  offset="0.2039" style="stop-color:#FFFFFF;stop-opacity:0.4588"/>
				<stop  offset="0.3294" style="stop-color:#FFFFFF;stop-opacity:0.3098"/>
				<stop  offset="0.6627" style="stop-color:#FFFFFF;stop-opacity:0.0549"/>
				<stop  offset="1" style="stop-color:#FFFFFF;stop-opacity:0"/>
			</radialGradient>
			<path fill="url(#SVGID_62_)" d="M202.3,440c3.2-1,7.1-1.5,11.6-1.5c4.6,0,8.5,0.5,11.7,1.5c3.2,1,4.9,2.2,4.9,3.7
				c0,1.399-1.6,2.7-4.9,3.7c-3.2,1-7.1,1.5-11.7,1.5s-8.4-0.5-11.6-1.5c-3.2-1-4.8-2.2-4.8-3.7C197.6,442.2,199.1,441,202.3,440z"
				/>
			
				<radialGradient id="SVGID_63_" cx="5.8149" cy="439.8057" r="12.6997" gradientTransform="matrix(1.3519 0 0 -0.4264 206.1786 631.1734)" gradientUnits="userSpaceOnUse">
				<stop  offset="0" style="stop-color:#FFFFFF"/>
				<stop  offset="0.0353" style="stop-color:#FFFFFF"/>
				<stop  offset="0.2039" style="stop-color:#FFFFFF;stop-opacity:0.4588"/>
				<stop  offset="0.3294" style="stop-color:#FFFFFF;stop-opacity:0.3098"/>
				<stop  offset="0.6627" style="stop-color:#FFFFFF;stop-opacity:0.0549"/>
				<stop  offset="1" style="stop-color:#FFFFFF;stop-opacity:0"/>
			</radialGradient>
			<path fill="url(#SVGID_63_)" d="M202.3,440c3.2-1,7.1-1.5,11.6-1.5c4.6,0,8.5,0.5,11.7,1.5c3.2,1,4.9,2.2,4.9,3.7
				c0,1.399-1.6,2.7-4.9,3.7c-3.2,1-7.1,1.5-11.7,1.5s-8.4-0.5-11.6-1.5c-3.2-1-4.8-2.2-4.8-3.7C197.6,442.2,199.1,441,202.3,440z"
				/>
		</g>
	</g>
</g>
<g id="Layer_2">
	<g>
		<g>
			<polygon fill-rule="evenodd" clip-rule="evenodd" fill-opacity="0.251" points="616,111.5 619.75,124 444.4,124 450.325,111.5 
							"/>
		</g>
		<g>
			<g>
				<polygon fill-rule="evenodd" clip-rule="evenodd" fill="#405A72" points="616.95,116.5 611.45,116.5 604.85,116.5 604.6,116.5 
					578.95,116.5 547.4,116.5 507,116.5 478.45,116.5 459.4,116.5 447.4,116.5 447.4,115.95 451.85,106.7 614.6,106.7 614.6,106.75 
					616.95,116.05 				"/>
				<linearGradient id="SVGID_64_" gradientUnits="userSpaceOnUse" x1="325.125" y1="116.7998" x2="739.175" y2="116.7998">
					<stop  offset="0" style="stop-color:#405A72"/>
					<stop  offset="0.4745" style="stop-color:#ACC7D0"/>
					<stop  offset="1" style="stop-color:#405A72"/>
				</linearGradient>
				<polygon fill-rule="evenodd" clip-rule="evenodd" fill="url(#SVGID_64_)" points="616.95,117.1 447.4,117.1 447.4,116.5 
					459.4,116.5 478.45,116.5 507,116.5 547.4,116.5 578.95,116.5 604.6,116.5 604.85,116.5 611.45,116.5 616.95,116.5 				"/>
				<polygon fill-rule="evenodd" clip-rule="evenodd" fill="#4A7782" points="447.4,117.1 616.95,117.1 616.95,122.45 579.3,122.45 
					547.55,122.45 506.7,122.45 477.2,122.45 447.4,122.45 				"/>
			</g>
		</g>
		<g>
			<g>
				<path fill-rule="evenodd" clip-rule="evenodd" fill="#274247" d="M604.45,71.5v45h-0.25l-2.75-9.75V71.5H604.45z M457.9,116.5
					v-45h2.25v35.1l-1.851,9.9H457.9z"/>
				<path fill-rule="evenodd" clip-rule="evenodd" fill="#3E646F" d="M604.45,116.5v-45h6v31v3.8v0.45V114v2.5H604.45z M457.9,71.5
					v45h-6.75v-45H457.9z"/>
			</g>
		</g>
		<g>
			<g>
				<path fill-rule="evenodd" clip-rule="evenodd" fill="#79BCD9" d="M596.25,58.15h-29.1v-0.6h29.05L596.25,58.15z M522.15,58.15
					v-0.6h29.05l0.05,0.6H522.15z M503.25,58.15H476.9l0.05-0.6h26.3V58.15z"/>
				<path fill-rule="evenodd" clip-rule="evenodd" fill="#588A9E" d="M567.15,58.15v2.4l0.05,3.5h29.5l-0.25-3.5l-0.2-2.4l-0.05-0.6
					h-29.05V58.15z M616.2,65.5h-55.7h-3.25h-5.65H523h-3.3h-4.2h-68.45v-0.05l1.9-9.95h66.55h4.2h3.1H551h6.25h3.25h52.6
					L616.2,65.5z M522.15,60.55l0.05,3.5h29.5l-0.25-3.5l-0.2-2.4l-0.05-0.6h-29.05v0.6V60.55z M503.25,58.15v-0.6h-26.3l-0.05,0.6
					v0.05l-0.2,2.35l-0.25,3.5H503.1l0.101-3.5L503.25,58.15z"/>
				<path fill-rule="evenodd" clip-rule="evenodd" fill="#314D57" d="M567.15,60.55v-2.4h29.1l0.2,2.4H567.15z M522.15,58.15h29.1
					l0.2,2.4h-29.3V58.15z M476.9,58.15h26.35l-0.05,2.4h-26.5l0.2-2.35V58.15z"/>
				<polygon fill-rule="evenodd" clip-rule="evenodd" fill="#365461" points="447.05,66 515.5,66 557.25,66 560.5,66 601.6,66 
					616.2,66 616.2,71.5 602.25,71.5 560.5,71.5 557.25,71.5 515.5,71.5 447.05,71.5 				"/>
				<linearGradient id="SVGID_65_" gradientUnits="userSpaceOnUse" x1="348.25" y1="65.75" x2="684.75" y2="65.75">
					<stop  offset="0" style="stop-color:#365461"/>
					<stop  offset="0.4745" style="stop-color:#ACC7D0"/>
					<stop  offset="1" style="stop-color:#365461"/>
				</linearGradient>
				<polygon fill-rule="evenodd" clip-rule="evenodd" fill="url(#SVGID_65_)" points="447.05,65.5 515.5,65.5 519.7,65.5 523,65.5 
					551.6,65.5 557.25,65.5 560.5,65.5 616.2,65.5 616.2,66 601.6,66 560.5,66 557.25,66 515.5,66 447.05,66 				"/>
			</g>
		</g>
	</g>
</g>
<g id="Layer_3">
</g>
</svg>
