<?xml version="1.0" encoding="utf-8"?>
<!-- Generator: Adobe Illustrator 16.0.0, SVG Export Plug-In . SVG Version: 6.00 Build 0)  -->
<!DOCTYPE svg PUBLIC "-//W3C//DTD SVG 1.1//EN" "http://www.w3.org/Graphics/SVG/1.1/DTD/svg11.dtd">
<svg version="1.1" id="Layer_2" xmlns="http://www.w3.org/2000/svg" xmlns:xlink="http://www.w3.org/1999/xlink" x="0px" y="0px"
	 width="700px" height="700px" viewBox="0 0 700 700" enable-background="new 0 0 700 700" xml:space="preserve">
<g>
	<g>
		<g>
			<path fill="#FFFFFF" d="M293.9,394c-0.1-0.6-0.3-1.1-0.5-1.5c-0.4-0.6-1.2-1.2-2.4-1.8c-1.1-0.5-1.8-0.8-1.9-0.8H289
				c-0.1,0-0.2-0.1-0.3-0.1c-10.9-2.9-21.6-5-32.3-6.3c-9.2-1.2-18.3-1.9-27.2-2c-10.5-0.1-21,0.6-31.3,2c-0.1,0-0.2,0-0.2,0
				c-3.8,0.5-7.6,1.1-11.4,1.9c-6.8,1.2-13.5,2.8-20.3,4.8c-0.3,0-0.5,0.1-0.8,0.2c-2.7,0.2-4.2,1.4-4.3,3.7h-0.1
				c0-0.3,0-0.6,0.1-0.8c0-0.3,0-0.6,0-0.8c0.1-2.3,1.6-3.5,4.3-3.7c0.3-0.1,0.5-0.2,0.8-0.2c6.7-2,13.5-3.5,20.3-4.8
				c3.8-0.8,7.6-1.4,11.4-1.8c0-0.1,0.1-0.1,0.2-0.1c7.7-1,15.5-1.6,23.3-1.8h11.7c7.7,0.2,15.6,0.9,23.5,1.9
				c10.7,1.3,21.4,3.3,32.3,6.2c0.1,0.1,0.3,0.1,0.3,0.1h0.1c0.1,0,0.7,0.3,1.9,0.8s2,1.1,2.4,1.8c0.4,0.6,0.5,1.2,0.5,1.9
				c0,0.1,0,0.2,0,0.3c0,0,0,0.1,0,0.2C293.9,393.5,293.9,393.7,293.9,394z M290.3,408c-9.4,39.9-8.1,83.3,3.8,130.2
				c-1.6-4.9-2.9-9.7-4-14.3c-9.9-38.7-10.3-75.7-1.2-111c0,0,0-0.2,0.1-0.4h0.1l1-3.7L290.3,408z M109.1,537.5
				c28.1-49.6,45-94.5,50.8-134.6l-0.2,7.4C154.8,449.1,138,491.5,109.1,537.5z"/>
			<path fill="#FFFFFF" d="M293.9,394c-0.1-0.6-0.3-1.1-0.5-1.5c-0.4-0.6-1.2-1.2-2.4-1.8c-1.1-0.5-1.8-0.8-1.9-0.8H289
				c-0.1,0-0.2-0.1-0.3-0.1c-10.9-2.9-21.6-5-32.3-6.3c-9.2-1.2-18.3-1.9-27.2-2c-10.5-0.1-21,0.6-31.3,2c-0.1,0-0.2,0-0.2,0
				c-3.8,0.5-7.6,1.1-11.4,1.9c-6.8,1.2-13.5,2.8-20.3,4.8c-0.3,0-0.5,0.1-0.8,0.2c-2.7,0.2-4.2,1.4-4.3,3.7h-0.1
				c0-0.3,0-0.6,0.1-0.8c0-0.3,0-0.6,0-0.8c0.1-2.3,1.6-3.5,4.3-3.7c0.3-0.1,0.5-0.2,0.8-0.2c6.7-2,13.5-3.5,20.3-4.8
				c3.8-0.8,7.6-1.4,11.4-1.8c0-0.1,0.1-0.1,0.2-0.1c7.7-1,15.5-1.6,23.3-1.8h11.7c7.7,0.2,15.6,0.9,23.5,1.9
				c10.7,1.3,21.4,3.3,32.3,6.2c0.1,0.1,0.3,0.1,0.3,0.1h0.1c0.1,0,0.7,0.3,1.9,0.8s2,1.1,2.4,1.8c0.4,0.6,0.5,1.2,0.5,1.9
				c0,0.1,0,0.2,0,0.3c0,0,0,0.1,0,0.2C293.9,393.5,293.9,393.7,293.9,394z M290.3,408c-9.4,39.9-8.1,83.3,3.8,130.2
				c-1.6-4.9-2.9-9.7-4-14.3c-9.9-38.7-10.3-75.7-1.2-111c0,0,0-0.2,0.1-0.4h0.1l1-3.7L290.3,408z M109.1,537.5
				c28.1-49.6,45-94.5,50.8-134.6l-0.2,7.4C154.8,449.1,138,491.5,109.1,537.5z"/>
			<path d="M162,405.3l-0.3,2.2c-0.1,0.9-0.2,2-0.4,3.1l-1.7-0.3c0-0.5,0.1-1,0.1-1.5c0.1-0.5,0.2-1.1,0.3-1.6
				c0-0.3,0.1-0.8,0.1-1.5c0.1-0.9,0.2-2.1,0.3-3.5c0.1-1.3,0.2-2.9,0.3-4.6v-0.1c0-1.1,0.1-2.2,0.2-3.5c0.1-2.3,1.6-3.5,4.3-3.7
				c0.3-0.1,0.5-0.2,0.8-0.2c6.7-1.9,13.5-3.5,20.3-4.8c3.8-0.8,7.6-1.4,11.4-1.9c0,0,0.1,0,0.2,0c10.3-1.4,20.8-2,31.3-2
				c8.9,0.1,18,0.8,27.2,2c10.7,1.3,21.4,3.4,32.3,6.3c0.1,0,0.3,0.1,0.3,0.1h0.1c0.1,0,0.7,0.3,1.9,0.8s2,1.1,2.4,1.8
				c0.3,0.4,0.5,0.9,0.5,1.5c0,0.1,0,0.3,0,0.5c0,0,0,0.1,0,0.2c0,0,0,0.1,0,0.2c0,0.6-0.1,1.3-0.3,2c-0.4,1.3-0.9,2.6-1.3,3.9
				c-0.1,0.4-0.3,0.8-0.4,1.3c-0.1,0.4-0.2,0.7-0.4,1.1c-0.3,0.9-0.6,1.8-0.8,2.7c0,0.1,0,0.2,0,0.3c-0.1,0.2-0.1,0.3-0.1,0.5h-0.1
				c0,0.2,0,0.3,0,0.5l-0.1,0.1v0.3c-0.1,0-0.1,0.1-0.1,0.1c0,0.2,0,0.3,0,0.5L290,409c-0.1,0.2-0.2,0.4-0.2,0.6c-0.3,1-0.6,2-0.8,3
				h-0.1c-0.1,0.2-0.1,0.4-0.1,0.4c-9.1,35.3-8.7,72.3,1.2,111c1.1,4.6,2.5,9.3,4,14.3c0.1,0.4,0.2,0.7,0.4,1.1
				c0.2,0.4,0.3,0.9,0.5,1.4c0.6,1.3,0.5,2.4-0.1,3.2c0,0.1-0.6,0.7-1.6,1.9c-1.1,1.2-2.8,2.5-5.1,3.8l-0.4,0.2l0,0l-0.3,0.2
				c-0.1,0-0.2,0-0.3,0v0.1L282,553c-0.1,0-0.1,0-0.2,0.1h-0.1l0,0c-0.9,0.4-1.8,0.9-2.6,1.3c-6,3-10.9,5.9-14.8,8.6
				c-10.1,7.3-17,15.9-20.5,25.9l-0.6,2c-2.5,1-3.8,1.5-3.9,1.6c-0.1,0-0.1,0-0.1,0.1c-5.8,2.4-12.3,4.1-19.6,5.1
				c-6.5,0.8-11.6,1.2-15.3,1.3c-4.2,0.1-8.6-0.3-13.2-1.3c-8-1.6-15.2-3.8-21.4-6.4c-3.4-7.3-9.5-14.5-18.4-21.6
				c-8.5-6.7-19-13-31.5-18.9c0.3,0.1,1.3,0.5,2.9,1.1c1.6,0.7,2.5,0.8,2.9,0.5h0.1l0.3,0.2c5.5,2.4,10.6,5,15.3,7.8
				c0.1,0,0.1,0,0.2,0.1c0.1,0.1,0.3,0.2,0.5,0.3c0.4,0.2,0.7,0.5,1.1,0.8c0.4,0.2,0.9,0.5,1.3,0.8c2.1,1.3,4,2.7,5.9,4.2
				c8.9,6.7,15.6,14.3,20.1,22.9c10.9,4.8,21.8,7.5,32.7,7.9c0.3,0,0.7,0,1,0h0.1c17.5-1.3,30-3.9,37.6-7.8c0-0.1,0-0.1,0.1-0.1
				c3.3-10.7,10.4-19.9,21.1-27.6c0.1-0.1,0.2-0.2,0.4-0.2v-0.1c3.9-2.8,8.8-5.6,14.9-8.5c0-0.1,0-0.1,0.1-0.1
				c1.1-0.6,2.2-1.1,3.4-1.6c0.4-0.2,0.9-0.4,1.3-0.6c0.2-0.1,0.5-0.2,0.9-0.5c0,0,0.1,0,0.2,0l0.2-0.2h0.1h0.1
				c0-0.1,0.1-0.1,0.2-0.1c0.1,0,0.2,0,0.3,0l-0.1-0.1c0.4-0.3,1.8-1.1,4.1-2.5c2.3-1.5,3.9-3.2,4.6-5.3c0-0.2-0.1-0.4-0.2-0.6
				c-1.1-3.5-2.2-6.9-3.1-10.2c-0.6-2.3-1.2-4.5-1.8-6.6c0-0.1,0-0.1,0-0.2c-10.1-38.9-10.5-76.1-1.2-111.6c0.3-1.3,0.7-2.6,1.1-4.1
				c0.1-0.6,0.3-1.2,0.5-1.8c0.1-0.5,0.3-1,0.4-1.5l-0.1,0.5c0.1-0.5,0.3-0.9,0.4-1.4c0.1-0.4,0.2-0.9,0.4-1.3
				c0.1-0.4,0.3-0.7,0.4-1.1c0.1-0.5,0.3-1,0.4-1.3c0.1-0.2,0.1-0.4,0.3-0.5c0.3-1.1,0.7-2.3,1-3.4c0.2-0.9,0.3-1.8,0.3-2.4
				c-0.1-0.9-0.4-1.6-1-2.1c-0.8-0.6-1.4-0.9-1.8-1.1c-0.2-0.1-0.4-0.2-0.6-0.2l0,0c-10.9-2.9-21.8-5-32.5-6.3l0,0
				c-9.1-1.2-18.1-1.8-27-1.9c-10.5-0.1-20.9,0.5-31.2,1.9h-0.1c-3.9,0.5-7.7,1.1-11.6,1.8c-6.7,1.2-13.3,2.8-19.9,4.7
				c-0.1,0.1-0.2,0.1-0.3,0.2c-0.3,0.1-0.5,0.1-0.8,0.2c-0.8,0.2-1.4,0.5-1.8,0.9c-0.5,0.5-0.8,1.3-0.8,2.1c0,0.3,0,0.6,0,0.9
				c0,1.9-0.1,4-0.4,6.3c0,0.1,0,0.3,0,0.5s0,0.5,0,0.8C162.1,404.4,162,405.2,162,405.3z"/>
			<path d="M162,405.3l-0.3,2.2c-0.1,0.9-0.2,2-0.4,3.1l-1.7-0.3c0-0.5,0.1-1,0.1-1.5c0.1-0.5,0.2-1.1,0.3-1.6
				c0-0.3,0.1-0.8,0.1-1.5c0.1-0.9,0.2-2.1,0.3-3.5c0.1-1.3,0.2-2.9,0.3-4.6v-0.1c0-1.1,0.1-2.2,0.2-3.5c0.1-2.3,1.6-3.5,4.3-3.7
				c0.3-0.1,0.5-0.2,0.8-0.2c6.7-1.9,13.5-3.5,20.3-4.8c3.8-0.8,7.6-1.4,11.4-1.9c0,0,0.1,0,0.2,0c10.3-1.4,20.8-2,31.3-2
				c8.9,0.1,18,0.8,27.2,2c10.7,1.3,21.4,3.4,32.3,6.3c0.1,0,0.3,0.1,0.3,0.1h0.1c0.1,0,0.7,0.3,1.9,0.8s2,1.1,2.4,1.8
				c0.3,0.4,0.5,0.9,0.5,1.5c0,0.1,0,0.3,0,0.5c0,0,0,0.1,0,0.2c0,0,0,0.1,0,0.2c0,0.6-0.1,1.3-0.3,2c-0.4,1.3-0.9,2.6-1.3,3.9
				c-0.1,0.4-0.3,0.8-0.4,1.3c-0.1,0.4-0.2,0.7-0.4,1.1c-0.3,0.9-0.6,1.8-0.8,2.7c0,0.1,0,0.2,0,0.3c-0.1,0.2-0.1,0.3-0.1,0.5h-0.1
				c0,0.2,0,0.3,0,0.5l-0.1,0.1v0.3c-0.1,0-0.1,0.1-0.1,0.1c0,0.2,0,0.3,0,0.5L290,409c-0.1,0.2-0.2,0.4-0.2,0.6c-0.3,1-0.6,2-0.8,3
				h-0.1c-0.1,0.2-0.1,0.4-0.1,0.4c-9.1,35.3-8.7,72.3,1.2,111c1.1,4.6,2.5,9.3,4,14.3c0.1,0.4,0.2,0.7,0.4,1.1
				c0.2,0.4,0.3,0.9,0.5,1.4c0.6,1.3,0.5,2.4-0.1,3.2c0,0.1-0.6,0.7-1.6,1.9c-1.1,1.2-2.8,2.5-5.1,3.8l-0.4,0.2l0,0l-0.3,0.2
				c-0.1,0-0.2,0-0.3,0v0.1L282,553c-0.1,0-0.1,0-0.2,0.1h-0.1l0,0c-0.9,0.4-1.8,0.9-2.6,1.3c-6,3-10.9,5.9-14.8,8.6
				c-10.1,7.3-17,15.9-20.5,25.9l-0.6,2c-2.5,1-3.8,1.5-3.9,1.6c-0.1,0-0.1,0-0.1,0.1c-5.8,2.4-12.3,4.1-19.6,5.1
				c-6.5,0.8-11.6,1.2-15.3,1.3c-4.2,0.1-8.6-0.3-13.2-1.3c-8-1.6-15.2-3.8-21.4-6.4c-3.4-7.3-9.5-14.5-18.4-21.6
				c-8.5-6.7-19-13-31.5-18.9c0.3,0.1,1.3,0.5,2.9,1.1c1.6,0.7,2.5,0.8,2.9,0.5h0.1l0.3,0.2c5.5,2.4,10.6,5,15.3,7.8
				c0.1,0,0.1,0,0.2,0.1c0.1,0.1,0.3,0.2,0.5,0.3c0.4,0.2,0.7,0.5,1.1,0.8c0.4,0.2,0.9,0.5,1.3,0.8c2.1,1.3,4,2.7,5.9,4.2
				c8.9,6.7,15.6,14.3,20.1,22.9c10.9,4.8,21.8,7.5,32.7,7.9c0.3,0,0.7,0,1,0h0.1c17.5-1.3,30-3.9,37.6-7.8c0-0.1,0-0.1,0.1-0.1
				c3.3-10.7,10.4-19.9,21.1-27.6c0.1-0.1,0.2-0.2,0.4-0.2v-0.1c3.9-2.8,8.8-5.6,14.9-8.5c0-0.1,0-0.1,0.1-0.1
				c1.1-0.6,2.2-1.1,3.4-1.6c0.4-0.2,0.9-0.4,1.3-0.6c0.2-0.1,0.5-0.2,0.9-0.5c0,0,0.1,0,0.2,0l0.2-0.2h0.1h0.1
				c0-0.1,0.1-0.1,0.2-0.1c0.1,0,0.2,0,0.3,0l-0.1-0.1c0.4-0.3,1.8-1.1,4.1-2.5c2.3-1.5,3.9-3.2,4.6-5.3c0-0.2-0.1-0.4-0.2-0.6
				c-1.1-3.5-2.2-6.9-3.1-10.2c-0.6-2.3-1.2-4.5-1.8-6.6c0-0.1,0-0.1,0-0.2c-10.1-38.9-10.5-76.1-1.2-111.6c0.3-1.3,0.7-2.6,1.1-4.1
				c0.1-0.6,0.3-1.2,0.5-1.8c0.1-0.5,0.3-1,0.4-1.5l-0.1,0.5c0.1-0.5,0.3-0.9,0.4-1.4c0.1-0.4,0.2-0.9,0.4-1.3
				c0.1-0.4,0.3-0.7,0.4-1.1c0.1-0.5,0.3-1,0.4-1.3c0.1-0.2,0.1-0.4,0.3-0.5c0.3-1.1,0.7-2.3,1-3.4c0.2-0.9,0.3-1.8,0.3-2.4
				c-0.1-0.9-0.4-1.6-1-2.1c-0.8-0.6-1.4-0.9-1.8-1.1c-0.2-0.1-0.4-0.2-0.6-0.2l0,0c-10.9-2.9-21.8-5-32.5-6.3l0,0
				c-9.1-1.2-18.1-1.8-27-1.9c-10.5-0.1-20.9,0.5-31.2,1.9h-0.1c-3.9,0.5-7.7,1.1-11.6,1.8c-6.7,1.2-13.3,2.8-19.9,4.7
				c-0.1,0.1-0.2,0.1-0.3,0.2c-0.3,0.1-0.5,0.1-0.8,0.2c-0.8,0.2-1.4,0.5-1.8,0.9c-0.5,0.5-0.8,1.3-0.8,2.1c0,0.3,0,0.6,0,0.9
				c0,1.9-0.1,4-0.4,6.3c0,0.1,0,0.3,0,0.5s0,0.5,0,0.8C162.1,404.4,162,405.2,162,405.3z"/>
			<path fill="#425363" d="M289.8,403.2c-11.7-4.1-23.1-7.2-34.3-9.4l-1.8-5c-16.1-5.6-33.1-6-51.1-1.2l-2,0.6
				c-0.4,0.1-0.7,0.2-1.1,0.3l-0.8,1.9l-1.7,4.1c-3.3,0.4-6.5,0.9-9.5,1.4c-0.3,0.1-0.5,0.1-0.8,0.2l0.8-0.2
				c-7.1,1.4-13,2.9-17.9,4.5c-0.1,0-0.1,0-0.3,0.1c-1.8,0.6-3.6,1.2-5.2,1.9c-0.6,0.2-1.2,0.5-1.8,0.8c0-0.3,0-0.5,0-0.8
				c0-0.2,0-0.4,0-0.5c0.2-2.3,0.3-4.3,0.4-6.3c0-0.3,0-0.6,0-0.9c0-0.9,0.3-1.6,0.8-2.1c0.4-0.4,1-0.7,1.8-0.9
				c0.3-0.1,0.5-0.1,0.8-0.2c0.1,0,0.2-0.1,0.3-0.2c6.6-1.9,13.3-3.4,19.9-4.7c3.9-0.8,7.7-1.4,11.6-1.8c0.1,0,0.1,0,0.1,0
				c10.3-1.4,20.7-2,31.2-1.9c8.9,0.1,17.9,0.7,27,1.9l0,0c10.7,1.3,21.5,3.4,32.5,6.3l0,0c0.2,0,0.4,0.1,0.6,0.2
				c0.4,0.2,1,0.5,1.8,1.1c0.5,0.5,0.9,1.2,1,2.1c0,0.7-0.1,1.5-0.3,2.4c-0.4,1.1-0.7,2.2-1,3.4c-0.1,0.1-0.2,0.3-0.3,0.5
				c-0.1,0.4-0.3,0.8-0.4,1.3C290,402.4,289.9,402.8,289.8,403.2z"/>
			<path fill="#425363" d="M289.8,403.2c-11.7-4.1-23.1-7.2-34.3-9.4l-1.8-5c-16.1-5.6-33.1-6-51.1-1.2l-2,0.6
				c-0.4,0.1-0.7,0.2-1.1,0.3l-0.8,1.9l-1.7,4.1c-3.3,0.4-6.5,0.9-9.5,1.4c-0.3,0.1-0.5,0.1-0.8,0.2l0.8-0.2
				c-7.1,1.4-13,2.9-17.9,4.5c-0.1,0-0.1,0-0.3,0.1c-1.8,0.6-3.6,1.2-5.2,1.9c-0.6,0.2-1.2,0.5-1.8,0.8c0-0.3,0-0.5,0-0.8
				c0-0.2,0-0.4,0-0.5c0.2-2.3,0.3-4.3,0.4-6.3c0-0.3,0-0.6,0-0.9c0-0.9,0.3-1.6,0.8-2.1c0.4-0.4,1-0.7,1.8-0.9
				c0.3-0.1,0.5-0.1,0.8-0.2c0.1,0,0.2-0.1,0.3-0.2c6.6-1.9,13.3-3.4,19.9-4.7c3.9-0.8,7.7-1.4,11.6-1.8c0.1,0,0.1,0,0.1,0
				c10.3-1.4,20.7-2,31.2-1.9c8.9,0.1,17.9,0.7,27,1.9l0,0c10.7,1.3,21.5,3.4,32.5,6.3l0,0c0.2,0,0.4,0.1,0.6,0.2
				c0.4,0.2,1,0.5,1.8,1.1c0.5,0.5,0.9,1.2,1,2.1c0,0.7-0.1,1.5-0.3,2.4c-0.4,1.1-0.7,2.2-1,3.4c-0.1,0.1-0.2,0.3-0.3,0.5
				c-0.1,0.4-0.3,0.8-0.4,1.3C290,402.4,289.9,402.8,289.8,403.2z"/>
			<path fill="#36434E" d="M199.4,388.5l0.7,2v0.2l-0.1-0.2l-2.4,5.8l-0.8-1.9l1.7-4.1L199.4,388.5z M252.7,390.5l0.1-0.2l0.8-1.5
				l1.8,5l-0.9,1.8L252.7,390.5z"/>
			<path fill="#36434E" d="M199.4,388.5l0.7,2v0.2l-0.1-0.2l-2.4,5.8l-0.8-1.9l1.7-4.1L199.4,388.5z M252.7,390.5l0.1-0.2l0.8-1.5
				l1.8,5l-0.9,1.8L252.7,390.5z"/>
			
				<linearGradient id="SVGID_1_" gradientUnits="userSpaceOnUse" x1="376.8828" y1="528.3086" x2="465.6578" y2="528.3086" gradientTransform="matrix(1 0 0 1 -195.3203 -140.9199)">
				<stop  offset="3.900000e-003" style="stop-color:#465665"/>
				<stop  offset="0.4784" style="stop-color:#8396A9"/>
				<stop  offset="1" style="stop-color:#465665"/>
			</linearGradient>
			<path fill="url(#SVGID_1_)" d="M252.7,390.5c-17.6-5.7-35.1-5.7-52.6,0l-0.7-2c0.3-0.1,0.7-0.2,1.1-0.3l2-0.6
				c18-4.8,35-4.4,51.1,1.2l-0.8,1.5L252.7,390.5z"/>
			
				<linearGradient id="SVGID_2_" gradientUnits="userSpaceOnUse" x1="376.8828" y1="528.3086" x2="465.6578" y2="528.3086" gradientTransform="matrix(1 0 0 1 -195.3203 -140.9199)">
				<stop  offset="3.900000e-003" style="stop-color:#465665"/>
				<stop  offset="0.4784" style="stop-color:#8396A9"/>
				<stop  offset="1" style="stop-color:#465665"/>
			</linearGradient>
			<path fill="url(#SVGID_2_)" d="M252.7,390.5c-17.6-5.7-35.1-5.7-52.6,0l-0.7-2c0.3-0.1,0.7-0.2,1.1-0.3l2-0.6
				c18-4.8,35-4.4,51.1,1.2l-0.8,1.5L252.7,390.5z"/>
			
				<linearGradient id="SVGID_3_" gradientUnits="userSpaceOnUse" x1="430.3096" y1="556.3789" x2="388.5781" y2="711.9271" gradientTransform="matrix(1 0 0 1 -195.3203 -140.9199)">
				<stop  offset="0" style="stop-color:#465665"/>
				<stop  offset="1" style="stop-color:#636D79"/>
			</linearGradient>
			<path fill="url(#SVGID_3_)" d="M197.6,396.3l2.4-5.8l0.1,0.2v-0.2c17.5-5.7,35-5.7,52.6,0l1.8,5l0.2,0.1
				c11.5,2.5,19.9,4.7,25.2,6.6c4.9,1.8,8,2.8,9.1,3.1c-0.2,0.5-0.3,1-0.4,1.5c-0.2,0.6-0.4,1.2-0.5,1.8c-0.4,1.5-0.7,2.8-1.1,4.1
				l0,0c-12.5,40.1-11.5,79.6,3,118.4c1,3.3,2,6.7,3.1,10.2c-4.9-0.7-11.6-1.2-20.1-1.3c-8.6-0.1-16.6,1.1-24.1,3.5
				c-5.1,1.5-11.4,3.5-18.9,6.2c-2.2,0.7-4.5,1.5-6.8,2.3c-5.5,1.9-10.7,3-15.4,3.3c-3.5,0.2-5.9,0.2-7-0.1c-5.2-0.5-9.3-1-12.5-1.4
				c-2-0.3-4.1-0.7-6.1-1.2c-4.3-1-8.7-2.2-13.1-3.8c-0.9-0.3-1.8-0.7-2.8-1c-0.2-0.1-0.5-0.2-0.6-0.3c-4.2-1.4-8.2-2.6-12-3.7
				c-1.1-0.3-2.3-0.6-3.4-0.8l-0.1-0.1c-15.5-4-28.9-5.3-40.2-4c29.3-46.5,46.4-89.3,51.4-128.3c0.1-1.1,0.3-2.2,0.4-3.1l0.3-2.2
				c2.6-1.1,5.3-2.2,8.1-3.1c4.9-1.7,10.3-3,16.1-4.1l0,0C189.9,397.4,193.7,396.8,197.6,396.3z"/>
			
				<linearGradient id="SVGID_4_" gradientUnits="userSpaceOnUse" x1="430.3096" y1="556.3789" x2="388.5781" y2="711.9271" gradientTransform="matrix(1 0 0 1 -195.3203 -140.9199)">
				<stop  offset="0" style="stop-color:#465665"/>
				<stop  offset="1" style="stop-color:#636D79"/>
			</linearGradient>
			<path fill="url(#SVGID_4_)" d="M197.6,396.3l2.4-5.8l0.1,0.2v-0.2c17.5-5.7,35-5.7,52.6,0l1.8,5l0.2,0.1
				c11.5,2.5,19.9,4.7,25.2,6.6c4.9,1.8,8,2.8,9.1,3.1c-0.2,0.5-0.3,1-0.4,1.5c-0.2,0.6-0.4,1.2-0.5,1.8c-0.4,1.5-0.7,2.8-1.1,4.1
				l0,0c-12.5,40.1-11.5,79.6,3,118.4c1,3.3,2,6.7,3.1,10.2c-4.9-0.7-11.6-1.2-20.1-1.3c-8.6-0.1-16.6,1.1-24.1,3.5
				c-5.1,1.5-11.4,3.5-18.9,6.2c-2.2,0.7-4.5,1.5-6.8,2.3c-5.5,1.9-10.7,3-15.4,3.3c-3.5,0.2-5.9,0.2-7-0.1c-5.2-0.5-9.3-1-12.5-1.4
				c-2-0.3-4.1-0.7-6.1-1.2c-4.3-1-8.7-2.2-13.1-3.8c-0.9-0.3-1.8-0.7-2.8-1c-0.2-0.1-0.5-0.2-0.6-0.3c-4.2-1.4-8.2-2.6-12-3.7
				c-1.1-0.3-2.3-0.6-3.4-0.8l-0.1-0.1c-15.5-4-28.9-5.3-40.2-4c29.3-46.5,46.4-89.3,51.4-128.3c0.1-1.1,0.3-2.2,0.4-3.1l0.3-2.2
				c2.6-1.1,5.3-2.2,8.1-3.1c4.9-1.7,10.3-3,16.1-4.1l0,0C189.9,397.4,193.7,396.8,197.6,396.3z"/>
			
				<linearGradient id="SVGID_5_" gradientUnits="userSpaceOnUse" x1="362.9209" y1="544.2295" x2="391.4494" y2="535.1433" gradientTransform="matrix(1 0 0 1 -195.3203 -140.9199)">
				<stop  offset="3.900000e-003" style="stop-color:#587085"/>
				<stop  offset="1" style="stop-color:#748BA3"/>
			</linearGradient>
			<path fill="url(#SVGID_5_)" d="M162,405.3c0-0.1,0.1-0.9,0.3-2.3c0.6-0.3,1.2-0.5,1.8-0.8c1.6-0.7,3.4-1.3,5.2-1.9
				c0.1-0.1,0.2-0.1,0.3-0.1c4.8-1.6,10.8-3.1,17.9-4.5l-0.8,0.2c0.2,0,0.5-0.1,0.8-0.2c3-0.6,6.2-1,9.5-1.4l0.8,1.9
				c-4,0.5-7.8,1.1-11.4,1.8l0,0v0.2c-5.9,1.1-11.3,2.4-16.1,4.1C167.3,403.2,164.6,404.2,162,405.3z"/>
			
				<linearGradient id="SVGID_6_" gradientUnits="userSpaceOnUse" x1="362.9209" y1="544.2295" x2="391.4494" y2="535.1433" gradientTransform="matrix(1 0 0 1 -195.3203 -140.9199)">
				<stop  offset="3.900000e-003" style="stop-color:#587085"/>
				<stop  offset="1" style="stop-color:#748BA3"/>
			</linearGradient>
			<path fill="url(#SVGID_6_)" d="M162,405.3c0-0.1,0.1-0.9,0.3-2.3c0.6-0.3,1.2-0.5,1.8-0.8c1.6-0.7,3.4-1.3,5.2-1.9
				c0.1-0.1,0.2-0.1,0.3-0.1c4.8-1.6,10.8-3.1,17.9-4.5l-0.8,0.2c0.2,0,0.5-0.1,0.8-0.2c3-0.6,6.2-1,9.5-1.4l0.8,1.9
				c-4,0.5-7.8,1.1-11.4,1.8l0,0v0.2c-5.9,1.1-11.3,2.4-16.1,4.1C167.3,403.2,164.6,404.2,162,405.3z"/>
			
				<linearGradient id="SVGID_7_" gradientUnits="userSpaceOnUse" x1="479.3398" y1="543.6484" x2="456.169" y2="537.4075" gradientTransform="matrix(1 0 0 1 -195.3203 -140.9199)">
				<stop  offset="3.900000e-003" style="stop-color:#587085"/>
				<stop  offset="1" style="stop-color:#748BA3"/>
			</linearGradient>
			<path fill="url(#SVGID_7_)" d="M255.5,393.8c11.2,2.2,22.6,5.3,34.3,9.4c-0.1,0.4-0.3,0.9-0.4,1.3c-0.2,0.5-0.4,0.9-0.4,1.4
				l0.1-0.5c-1.1-0.3-4.2-1.3-9.1-3.1c-5.3-1.9-13.7-4.1-25.2-6.6l-0.2-0.1L255.5,393.8z"/>
			
				<linearGradient id="SVGID_8_" gradientUnits="userSpaceOnUse" x1="479.3398" y1="543.6484" x2="456.169" y2="537.4075" gradientTransform="matrix(1 0 0 1 -195.3203 -140.9199)">
				<stop  offset="3.900000e-003" style="stop-color:#587085"/>
				<stop  offset="1" style="stop-color:#748BA3"/>
			</linearGradient>
			<path fill="url(#SVGID_8_)" d="M255.5,393.8c11.2,2.2,22.6,5.3,34.3,9.4c-0.1,0.4-0.3,0.9-0.4,1.3c-0.2,0.5-0.4,0.9-0.4,1.4
				l0.1-0.5c-1.1-0.3-4.2-1.3-9.1-3.1c-5.3-1.9-13.7-4.1-25.2-6.6l-0.2-0.1L255.5,393.8z"/>
			
				<linearGradient id="SVGID_9_" gradientUnits="userSpaceOnUse" x1="484.8203" y1="539.4609" x2="484.8203" y2="511.9931" gradientTransform="matrix(1 0 0 1 -195.3203 -140.9199)">
				<stop  offset="0" style="stop-color:#EDF1FC"/>
				<stop  offset="1" style="stop-color:#949AA8"/>
			</linearGradient>
			<path fill="url(#SVGID_9_)" d="M290,408.9l-1,3.7c0.2-1.1,0.5-2.1,0.8-3C289.8,409.3,289.9,409.1,290,408.9z"/>
			
				<linearGradient id="SVGID_10_" gradientUnits="userSpaceOnUse" x1="484.8203" y1="539.4609" x2="484.8203" y2="511.9931" gradientTransform="matrix(1 0 0 1 -195.3203 -140.9199)">
				<stop  offset="0" style="stop-color:#EDF1FC"/>
				<stop  offset="1" style="stop-color:#949AA8"/>
			</linearGradient>
			<path fill="url(#SVGID_10_)" d="M290,408.9l-1,3.7c0.2-1.1,0.5-2.1,0.8-3C289.8,409.3,289.9,409.1,290,408.9z"/>
			<path fill="#66788A" d="M290,531c-14.5-38.8-15.5-78.3-3-118.4l0,0c-9.3,35.5-8.9,72.7,1.2,111.6c0,0,0,0.1,0,0.2
				C288.8,526.6,289.4,528.8,290,531z"/>
			<path fill="#66788A" d="M290,531c-14.5-38.8-15.5-78.3-3-118.4l0,0c-9.3,35.5-8.9,72.7,1.2,111.6c0,0,0,0.1,0,0.2
				C288.8,526.6,289.4,528.8,290,531z"/>
			<path fill="#597186" d="M186.3,398.2V398V398.2z"/>
			<path fill="#597186" d="M186.3,398.2V398V398.2z"/>
			<path fill="#405769" d="M201.1,564.5c-0.1,0-0.1,0-0.3,0c-0.5,0-1,0-1.6,0h-0.1c0,0-0.1,0-0.2,0h-0.1c-5.8-0.3-12.4-1.4-19.8-3.4
				l2-3.8c0.1,0,0.2,0,0.3,0c0.1,0,0.2,0,0.3,0c6,1,12,1.4,17.9,1.2c0.8,0,1.6-0.1,2.4-0.1c-0.2,0.1-0.5,0.3-0.7,0.4
				c-5,3-5.4,4.9-1.3,5.5c0.2,0,0.3,0,0.5,0C200.5,564.3,200.8,564.4,201.1,564.5z"/>
			<path fill="#405769" d="M201.1,564.5c-0.1,0-0.1,0-0.3,0c-0.5,0-1,0-1.6,0h-0.1c0,0-0.1,0-0.2,0h-0.1c-5.8-0.3-12.4-1.4-19.8-3.4
				l2-3.8c0.1,0,0.2,0,0.3,0c0.1,0,0.2,0,0.3,0c6,1,12,1.4,17.9,1.2c0.8,0,1.6-0.1,2.4-0.1c-0.2,0.1-0.5,0.3-0.7,0.4
				c-5,3-5.4,4.9-1.3,5.5c0.2,0,0.3,0,0.5,0C200.5,564.3,200.8,564.4,201.1,564.5z"/>
			
				<radialGradient id="SVGID_11_" cx="440.0244" cy="1254.9668" r="73.5179" gradientTransform="matrix(0.9901 -0.14 2.510000e-002 0.1775 -203.7807 398.0079)" gradientUnits="userSpaceOnUse">
				<stop  offset="0" style="stop-color:#506070"/>
				<stop  offset="0.3922" style="stop-color:#182A36"/>
				<stop  offset="0.5882" style="stop-color:#1D2E3B"/>
				<stop  offset="1" style="stop-color:#405769"/>
			</radialGradient>
			<path fill="url(#SVGID_11_)" d="M201.8,558.5c2.1-0.2,4.2-0.5,6.4-0.8c0.1,0,0.1-0.1,0.2-0.1c8.2-1.8,15.4-4.4,21.8-7.9
				c7.5-2.6,13.8-4.7,18.9-6.2c7.5-2.5,15.5-3.7,24.1-3.5c8.5,0.1,15.2,0.5,20.1,1.3c0.1,0.3,0.2,0.5,0.2,0.6
				c-0.7,2-2.2,3.8-4.6,5.3c-2.3,1.4-3.7,2.2-4.1,2.5l0.1,0.1c-0.2,0-0.3,0-0.3,0c-0.1,0-0.1,0-0.2,0.1h-0.1h-0.1l0,0l0.3-0.1
				c-8.3-0.6-16.3-0.5-24,0.3c-3,0.3-5.7,0.7-8.1,1.2c-0.7,0.1-1.4,0.2-2,0.3c-3.1,0.6-5.7,1.2-7.8,1.9c-1.1,0.4-2.1,0.7-2.9,1
				c-16.8,6.8-29.4,10.2-37.8,10.1l0,0c-0.2,0-0.4,0-0.6,0c-0.3-0.1-0.6-0.1-0.9-0.1c-0.2,0-0.4,0-0.5,0c-4.1-0.6-3.6-2.4,1.3-5.5
				C201.3,558.7,201.5,558.6,201.8,558.5z M204,596.8h0.1H204L204,596.8z"/>
			
				<radialGradient id="SVGID_12_" cx="440.0244" cy="1254.9668" r="73.5179" gradientTransform="matrix(0.9901 -0.14 2.510000e-002 0.1775 -203.7807 398.0079)" gradientUnits="userSpaceOnUse">
				<stop  offset="0" style="stop-color:#506070"/>
				<stop  offset="0.3922" style="stop-color:#182A36"/>
				<stop  offset="0.5882" style="stop-color:#1D2E3B"/>
				<stop  offset="1" style="stop-color:#405769"/>
			</radialGradient>
			<path fill="url(#SVGID_12_)" d="M201.8,558.5c2.1-0.2,4.2-0.5,6.4-0.8c0.1,0,0.1-0.1,0.2-0.1c8.2-1.8,15.4-4.4,21.8-7.9
				c7.5-2.6,13.8-4.7,18.9-6.2c7.5-2.5,15.5-3.7,24.1-3.5c8.5,0.1,15.2,0.5,20.1,1.3c0.1,0.3,0.2,0.5,0.2,0.6
				c-0.7,2-2.2,3.8-4.6,5.3c-2.3,1.4-3.7,2.2-4.1,2.5l0.1,0.1c-0.2,0-0.3,0-0.3,0c-0.1,0-0.1,0-0.2,0.1h-0.1h-0.1l0,0l0.3-0.1
				c-8.3-0.6-16.3-0.5-24,0.3c-3,0.3-5.7,0.7-8.1,1.2c-0.7,0.1-1.4,0.2-2,0.3c-3.1,0.6-5.7,1.2-7.8,1.9c-1.1,0.4-2.1,0.7-2.9,1
				c-16.8,6.8-29.4,10.2-37.8,10.1l0,0c-0.2,0-0.4,0-0.6,0c-0.3-0.1-0.6-0.1-0.9-0.1c-0.2,0-0.4,0-0.5,0c-4.1-0.6-3.6-2.4,1.3-5.5
				C201.3,558.7,201.5,558.6,201.8,558.5z M204,596.8h0.1H204L204,596.8z"/>
			<path fill="#49586B" d="M114.2,546.2c-1.2-0.9-2.2-1.7-3-2.4c-2-1.9-2.4-3.6-1.2-4.9c11.3-1.3,24.7,0,40.2,4l0.1,0.1
				c1.1,0.2,2.3,0.5,3.4,0.8c3.8,1.1,7.8,2.3,12,3.7c0.2,0.1,0.4,0.2,0.6,0.3c0.9,0.4,1.9,0.7,2.8,1c4.4,1.6,8.8,2.8,13.1,3.8
				c2,0.4,4.1,0.8,6.1,1.2c3.2,0.4,7.3,0.9,12.5,1.4c1.1,0.3,3.5,0.3,7,0.1l0.3,2.4c-2.1,0.3-4.3,0.6-6.4,0.8
				c-0.8,0-1.6,0.1-2.4,0.1c-5.9,0.2-11.9-0.2-17.9-1.2c-0.1,0-0.2,0-0.3,0s-0.1,0-0.3,0c-5.6-1-11.2-2.6-17-4.8
				c-3.8-1.4-7.4-2.7-10.9-3.7c-0.3-0.1-0.6-0.2-0.9-0.2c-0.1-0.1-0.1-0.1-0.1-0.1c-0.5-0.1-0.9-0.3-1.4-0.3c-0.5-0.2-1-0.3-1.5-0.4
				c-13.7-3.6-25.1-4.2-34.2-1.8C114.7,546,114.5,546.1,114.2,546.2z"/>
			<path fill="#49586B" d="M114.2,546.2c-1.2-0.9-2.2-1.7-3-2.4c-2-1.9-2.4-3.6-1.2-4.9c11.3-1.3,24.7,0,40.2,4l0.1,0.1
				c1.1,0.2,2.3,0.5,3.4,0.8c3.8,1.1,7.8,2.3,12,3.7c0.2,0.1,0.4,0.2,0.6,0.3c0.9,0.4,1.9,0.7,2.8,1c4.4,1.6,8.8,2.8,13.1,3.8
				c2,0.4,4.1,0.8,6.1,1.2c3.2,0.4,7.3,0.9,12.5,1.4c1.1,0.3,3.5,0.3,7,0.1l0.3,2.4c-2.1,0.3-4.3,0.6-6.4,0.8
				c-0.8,0-1.6,0.1-2.4,0.1c-5.9,0.2-11.9-0.2-17.9-1.2c-0.1,0-0.2,0-0.3,0s-0.1,0-0.3,0c-5.6-1-11.2-2.6-17-4.8
				c-3.8-1.4-7.4-2.7-10.9-3.7c-0.3-0.1-0.6-0.2-0.9-0.2c-0.1-0.1-0.1-0.1-0.1-0.1c-0.5-0.1-0.9-0.3-1.4-0.3c-0.5-0.2-1-0.3-1.5-0.4
				c-13.7-3.6-25.1-4.2-34.2-1.8C114.7,546,114.5,546.1,114.2,546.2z"/>
			<path fill="#636E74" d="M144.6,561.3c-0.6,0-1.1,0-1.6,0c-0.4-0.3-0.7-0.5-1.1-0.8c-0.2-0.1-0.4-0.1-0.5-0.3
				c-0.1-0.1-0.1-0.1-0.2-0.1c-4.6-2.8-9.7-5.4-15.3-7.8l-0.3-0.2h-0.1c-0.8-0.4-1.3-0.6-1.3-0.6c-0.1-0.1-0.3-0.1-0.4-0.2
				c-0.6-0.3-1.1-0.6-1.6-0.8c-0.4-0.1-0.8-0.3-1.1-0.5h0.1c9.2-1.4,18.3-1,27.3,1.2c0.4,0.1,0.9,0.2,1.3,0.3
				c0.4,0.1,0.9,0.2,1.4,0.3c2.7,0.7,5.3,1.6,7.9,2.7c3.6,1.4,7,2.6,10.4,3.7c3.3,1,6.5,2,9.5,2.8c7.4,1.9,14,3.1,19.8,3.4
				c0.1,0,0.1,0,0.1,0c0.1,0,0.2,0,0.2,0c0.1,0,0.1,0,0.1,0c0.6,0,1.2,0,1.6,0c0.1,0,0.2,0,0.3,0c0.2,0,0.4,0,0.6,0l0,0l0.4,6.8l0,0
				c0,0,0,0.1,0.1,0.2h-0.1c0,0,0,0,0,0.1c-6.3,0.5-15.2-1-26.7-4.4c-2.8-0.9-5.4-1.7-8-2.3c-4.3-1.2-8.3-2.1-12-2.7
				c-0.9-0.2-1.7-0.3-2.4-0.4c-0.6-0.1-1.1-0.2-1.7-0.2l-4.8-0.4C146,561.3,145.3,561.3,144.6,561.3L144.6,561.3L144.6,561.3z"/>
			<path fill="#636E74" d="M144.6,561.3c-0.6,0-1.1,0-1.6,0c-0.4-0.3-0.7-0.5-1.1-0.8c-0.2-0.1-0.4-0.1-0.5-0.3
				c-0.1-0.1-0.1-0.1-0.2-0.1c-4.6-2.8-9.7-5.4-15.3-7.8l-0.3-0.2h-0.1c-0.8-0.4-1.3-0.6-1.3-0.6c-0.1-0.1-0.3-0.1-0.4-0.2
				c-0.6-0.3-1.1-0.6-1.6-0.8c-0.4-0.1-0.8-0.3-1.1-0.5h0.1c9.2-1.4,18.3-1,27.3,1.2c0.4,0.1,0.9,0.2,1.3,0.3
				c0.4,0.1,0.9,0.2,1.4,0.3c2.7,0.7,5.3,1.6,7.9,2.7c3.6,1.4,7,2.6,10.4,3.7c3.3,1,6.5,2,9.5,2.8c7.4,1.9,14,3.1,19.8,3.4
				c0.1,0,0.1,0,0.1,0c0.1,0,0.2,0,0.2,0c0.1,0,0.1,0,0.1,0c0.6,0,1.2,0,1.6,0c0.1,0,0.2,0,0.3,0c0.2,0,0.4,0,0.6,0l0,0l0.4,6.8l0,0
				c0,0,0,0.1,0.1,0.2h-0.1c0,0,0,0,0,0.1c-6.3,0.5-15.2-1-26.7-4.4c-2.8-0.9-5.4-1.7-8-2.3c-4.3-1.2-8.3-2.1-12-2.7
				c-0.9-0.2-1.7-0.3-2.4-0.4c-0.6-0.1-1.1-0.2-1.7-0.2l-4.8-0.4C146,561.3,145.3,561.3,144.6,561.3L144.6,561.3L144.6,561.3z"/>
			
				<linearGradient id="SVGID_13_" gradientUnits="userSpaceOnUse" x1="321.501" y1="714.9463" x2="349.0461" y2="687.3915" gradientTransform="matrix(1 0 0 1 -195.3203 -140.9199)">
				<stop  offset="0" style="stop-color:#000000"/>
				<stop  offset="1" style="stop-color:#405769"/>
			</linearGradient>
			<path fill="url(#SVGID_13_)" d="M121.3,550.2l-7.3-3.9l0.3-0.1c0.3-0.1,0.5-0.2,0.8-0.3c9.1-2.4,20.5-1.8,34.2,1.8
				c0.5,0.1,1,0.2,1.5,0.4c0.5,0.1,0.9,0.2,1.4,0.3c0,0,0.1,0,0.1,0.1c0.3,0,0.5,0.1,0.9,0.2c3.5,1,7.1,2.3,10.9,3.7
				c5.7,2.2,11.4,3.8,17,4.8l-2,3.8c-3-0.8-6.2-1.7-9.5-2.8c-3.4-1.1-6.8-2.3-10.4-3.7c-2.6-1-5.3-1.9-7.9-2.7
				c-0.5-0.2-0.9-0.3-1.4-0.3c-0.4-0.1-0.8-0.2-1.3-0.3C139.5,549.2,130.5,548.8,121.3,550.2z"/>
			
				<linearGradient id="SVGID_14_" gradientUnits="userSpaceOnUse" x1="321.501" y1="714.9463" x2="349.0461" y2="687.3915" gradientTransform="matrix(1 0 0 1 -195.3203 -140.9199)">
				<stop  offset="0" style="stop-color:#000000"/>
				<stop  offset="1" style="stop-color:#405769"/>
			</linearGradient>
			<path fill="url(#SVGID_14_)" d="M121.3,550.2l-7.3-3.9l0.3-0.1c0.3-0.1,0.5-0.2,0.8-0.3c9.1-2.4,20.5-1.8,34.2,1.8
				c0.5,0.1,1,0.2,1.5,0.4c0.5,0.1,0.9,0.2,1.4,0.3c0,0,0.1,0,0.1,0.1c0.3,0,0.5,0.1,0.9,0.2c3.5,1,7.1,2.3,10.9,3.7
				c5.7,2.2,11.4,3.8,17,4.8l-2,3.8c-3-0.8-6.2-1.7-9.5-2.8c-3.4-1.1-6.8-2.3-10.4-3.7c-2.6-1-5.3-1.9-7.9-2.7
				c-0.5-0.2-0.9-0.3-1.4-0.3c-0.4-0.1-0.8-0.2-1.3-0.3C139.5,549.2,130.5,548.8,121.3,550.2z"/>
			<path fill="#252729" d="M175.5,567.2c11.5,3.4,20.4,4.9,26.7,4.4v0.1h0.1c0.1,0,0.3,0,0.5,0h0.1c0.1,0,0.2,0,0.3,0l0,0
				c0.5,0,0.9,0,1.4,0c4.4-0.2,8.2-0.7,11.5-1.5c0.1-0.1,0.3-0.1,0.4-0.1c0.4-0.1,0.8-0.2,1.2-0.3l0.9-0.3c2.7-0.7,4.5-1.2,5.5-1.5
				c1.3-0.5,5.7-1.8,13.1-4.1c7.4-2.4,16-3.1,25.7-2.3c-9,0.1-17.5,1.4-25.5,3.9c-0.2,0-0.4,0.1-0.5,0.1c-7.8,2.4-12.6,3.9-14.5,4.6
				c-0.7,0.3-1.6,0.5-2.5,0.8c-1.5,0.4-3.2,0.8-5.1,1.2c-1.6,0.3-3.1,0.6-4.5,0.8c-1.4,0.2-2.7,0.3-3.9,0.4c-1,0.1-2.1,0.2-3.3,0.3
				c-0.4,0-0.8,0.1-1.1,0.1c-1,0-2.1,0-3.2,0l0,0c-0.1,0-0.3,0-0.5,0c-1.2,0-2.6-0.2-4.2-0.4c-0.1,0-0.1,0-0.2,0
				c-3.9-0.2-9.5-1.4-16.8-3.7c-5.9-1.8-11.3-3.4-16.4-4.8c-1.1-0.3-2.3-0.6-3.4-0.9c-0.1-0.1-0.3-0.1-0.4-0.1
				c-5.6-1.5-9.5-2.3-11.7-2.5c-0.2-0.1-0.3-0.1-0.5-0.1c0.7,0,1.4,0,2.1,0.1l4.8,0.4c0.6,0,1.1,0.1,1.7,0.2
				c0.6,0.1,1.4,0.2,2.4,0.4c3.4,0.6,8.7,2,16,4l2.7,0.7L175.5,567.2z"/>
			<path fill="#252729" d="M175.5,567.2c11.5,3.4,20.4,4.9,26.7,4.4v0.1h0.1c0.1,0,0.3,0,0.5,0h0.1c0.1,0,0.2,0,0.3,0l0,0
				c0.5,0,0.9,0,1.4,0c4.4-0.2,8.2-0.7,11.5-1.5c0.1-0.1,0.3-0.1,0.4-0.1c0.4-0.1,0.8-0.2,1.2-0.3l0.9-0.3c2.7-0.7,4.5-1.2,5.5-1.5
				c1.3-0.5,5.7-1.8,13.1-4.1c7.4-2.4,16-3.1,25.7-2.3c-9,0.1-17.5,1.4-25.5,3.9c-0.2,0-0.4,0.1-0.5,0.1c-7.8,2.4-12.6,3.9-14.5,4.6
				c-0.7,0.3-1.6,0.5-2.5,0.8c-1.5,0.4-3.2,0.8-5.1,1.2c-1.6,0.3-3.1,0.6-4.5,0.8c-1.4,0.2-2.7,0.3-3.9,0.4c-1,0.1-2.1,0.2-3.3,0.3
				c-0.4,0-0.8,0.1-1.1,0.1c-1,0-2.1,0-3.2,0l0,0c-0.1,0-0.3,0-0.5,0c-1.2,0-2.6-0.2-4.2-0.4c-0.1,0-0.1,0-0.2,0
				c-3.9-0.2-9.5-1.4-16.8-3.7c-5.9-1.8-11.3-3.4-16.4-4.8c-1.1-0.3-2.3-0.6-3.4-0.9c-0.1-0.1-0.3-0.1-0.4-0.1
				c-5.6-1.5-9.5-2.3-11.7-2.5c-0.2-0.1-0.3-0.1-0.5-0.1c0.7,0,1.4,0,2.1,0.1l4.8,0.4c0.6,0,1.1,0.1,1.7,0.2
				c0.6,0.1,1.4,0.2,2.4,0.4c3.4,0.6,8.7,2,16,4l2.7,0.7L175.5,567.2z"/>
			<path fill="#616C72" d="M198.8,575.2v18.9c1,1.4,2.7,2.4,5.3,2.8v0.3H204c-0.3,0-0.7,0-1,0c-10.9-0.5-21.8-3.1-32.7-7.9
				c-4.5-8.5-11.2-16.2-20.1-22.9c-1.8-1.5-3.8-2.9-5.9-4.2c-0.4-0.3-0.9-0.5-1.3-0.8c0.5,0,1.1,0,1.6,0c0.9,0.4,2.2,0.9,3.8,1.5
				c2,0.7,4.7,1.5,8,2.4h0.1c0.1,0,0.2,0,0.4,0.1c6,1.6,12.6,3.5,19.8,5.7c0.1,0.1,0.3,0.1,0.4,0.1c2.2,0.7,4.3,1.3,6.3,1.9
				c2,0.6,4.8,1.1,8.3,1.5C195.1,574.9,197.5,575.1,198.8,575.2L198.8,575.2z M155.5,562.3c3.6,0.6,7.6,1.5,12,2.7
				c2.6,0.6,5.2,1.3,8,2.3l-1.3-0.2l-2.7-0.7C164.2,564.3,158.9,562.9,155.5,562.3z"/>
			<path fill="#616C72" d="M198.8,575.2v18.9c1,1.4,2.7,2.4,5.3,2.8v0.3H204c-0.3,0-0.7,0-1,0c-10.9-0.5-21.8-3.1-32.7-7.9
				c-4.5-8.5-11.2-16.2-20.1-22.9c-1.8-1.5-3.8-2.9-5.9-4.2c-0.4-0.3-0.9-0.5-1.3-0.8c0.5,0,1.1,0,1.6,0c0.9,0.4,2.2,0.9,3.8,1.5
				c2,0.7,4.7,1.5,8,2.4h0.1c0.1,0,0.2,0,0.4,0.1c6,1.6,12.6,3.5,19.8,5.7c0.1,0.1,0.3,0.1,0.4,0.1c2.2,0.7,4.3,1.3,6.3,1.9
				c2,0.6,4.8,1.1,8.3,1.5C195.1,574.9,197.5,575.1,198.8,575.2L198.8,575.2z M155.5,562.3c3.6,0.6,7.6,1.5,12,2.7
				c2.6,0.6,5.2,1.3,8,2.3l-1.3-0.2l-2.7-0.7C164.2,564.3,158.9,562.9,155.5,562.3z"/>
			
				<linearGradient id="SVGID_15_" gradientUnits="userSpaceOnUse" x1="339.9204" y1="709.1328" x2="458.1201" y2="709.1328" gradientTransform="matrix(1 0 0 1 -195.3203 -140.9199)">
				<stop  offset="0" style="stop-color:#97A0A4"/>
				<stop  offset="1" style="stop-color:#4C555A"/>
			</linearGradient>
			<path fill="url(#SVGID_15_)" d="M144.6,561.3L144.6,561.3L144.6,561.3c0.2-0.1,0.4-0.1,0.5,0c2.2,0.1,6.1,1,11.7,2.5
				c0.1,0,0.3,0,0.4,0.1c1.1,0.3,2.2,0.6,3.4,0.9c5.1,1.4,10.6,3,16.4,4.8c7.3,2.3,12.9,3.5,16.8,3.7c0.1,0,0.1,0,0.2,0
				c1.6,0.2,3,0.3,4.2,0.4c0.2,0,0.4,0,0.5,0l0,0c1.1,0,2.2,0,3.2,0c0.4,0,0.8,0,1.1-0.1c1.1-0.1,2.2-0.1,3.3-0.3
				c1.2-0.1,2.5-0.2,3.9-0.4c1.4-0.2,2.9-0.5,4.5-0.8c1.9-0.4,3.6-0.8,5.1-1.2c1-0.2,1.8-0.5,2.5-0.8c1.9-0.7,6.7-2.2,14.5-4.6
				c0.1-0.1,0.3-0.1,0.5-0.1c8-2.5,16.5-3.8,25.5-3.9c-9,1-17.5,2.8-25.5,5.3c-7.5,2.4-12.3,3.9-14.5,4.6h-0.1c-0.1,0-0.3,0-0.4,0.1
				c-0.5,0.2-1,0.3-1.5,0.5c-1.7,0.5-3.8,1-6.1,1.5c-0.8,0.1-1.5,0.3-2.3,0.4l-9.5,1.3l-4.1-0.1h-0.1l0,0c-1.3-0.1-3.6-0.3-7.1-0.7
				c-3.5-0.4-6.3-0.9-8.3-1.5c-2-0.6-4.1-1.2-6.3-1.9c-0.2,0-0.3-0.1-0.4-0.1c-7.1-2.2-13.7-4.1-19.8-5.7c-0.1-0.1-0.3-0.1-0.4-0.1
				h-0.1c-3.3-0.9-6-1.7-8-2.4C146.8,562.2,145.5,561.8,144.6,561.3z"/>
			
				<linearGradient id="SVGID_16_" gradientUnits="userSpaceOnUse" x1="339.9204" y1="709.1328" x2="458.1201" y2="709.1328" gradientTransform="matrix(1 0 0 1 -195.3203 -140.9199)">
				<stop  offset="0" style="stop-color:#97A0A4"/>
				<stop  offset="1" style="stop-color:#4C555A"/>
			</linearGradient>
			<path fill="url(#SVGID_16_)" d="M144.6,561.3L144.6,561.3L144.6,561.3c0.2-0.1,0.4-0.1,0.5,0c2.2,0.1,6.1,1,11.7,2.5
				c0.1,0,0.3,0,0.4,0.1c1.1,0.3,2.2,0.6,3.4,0.9c5.1,1.4,10.6,3,16.4,4.8c7.3,2.3,12.9,3.5,16.8,3.7c0.1,0,0.1,0,0.2,0
				c1.6,0.2,3,0.3,4.2,0.4c0.2,0,0.4,0,0.5,0l0,0c1.1,0,2.2,0,3.2,0c0.4,0,0.8,0,1.1-0.1c1.1-0.1,2.2-0.1,3.3-0.3
				c1.2-0.1,2.5-0.2,3.9-0.4c1.4-0.2,2.9-0.5,4.5-0.8c1.9-0.4,3.6-0.8,5.1-1.2c1-0.2,1.8-0.5,2.5-0.8c1.9-0.7,6.7-2.2,14.5-4.6
				c0.1-0.1,0.3-0.1,0.5-0.1c8-2.5,16.5-3.8,25.5-3.9c-9,1-17.5,2.8-25.5,5.3c-7.5,2.4-12.3,3.9-14.5,4.6h-0.1c-0.1,0-0.3,0-0.4,0.1
				c-0.5,0.2-1,0.3-1.5,0.5c-1.7,0.5-3.8,1-6.1,1.5c-0.8,0.1-1.5,0.3-2.3,0.4l-9.5,1.3l-4.1-0.1h-0.1l0,0c-1.3-0.1-3.6-0.3-7.1-0.7
				c-3.5-0.4-6.3-0.9-8.3-1.5c-2-0.6-4.1-1.2-6.3-1.9c-0.2,0-0.3-0.1-0.4-0.1c-7.1-2.2-13.7-4.1-19.8-5.7c-0.1-0.1-0.3-0.1-0.4-0.1
				h-0.1c-3.3-0.9-6-1.7-8-2.4C146.8,562.2,145.5,561.8,144.6,561.3z"/>
			<path fill="#4C555A" d="M204,596.8l-1-21.5l9.5-1.3c0.7-0.1,1.5-0.3,2.3-0.4c2.4-0.5,4.5-1,6.1-1.5c0.5-0.2,1-0.3,1.5-0.5
				c0.1,0,0.2-0.1,0.4-0.1h0.1c2.2-0.7,7-2.3,14.5-4.6c8-2.5,16.5-4.3,25.5-5.3c-9.7-0.8-18.3-0.1-25.7,2.3
				c-7.4,2.3-11.8,3.7-13.1,4.1c-1,0.4-2.9,0.9-5.5,1.5l-0.9,0.3c-0.4,0.1-0.8,0.2-1.2,0.3c-0.1,0-0.3,0-0.4,0.1
				c-3.3,0.8-7.1,1.3-11.5,1.5c-0.5,0-0.9,0-1.4,0l0,0c-0.1,0-0.1,0-0.3,0h-0.1c-0.2,0-0.3,0-0.5,0h-0.1v-0.1c0-0.1,0-0.1,0-0.1h0.1
				c-0.1-0.1-0.1-0.2-0.1-0.2l0,0l-0.4-6.8c8.4,0.1,21-3.3,37.8-10.1c0.8-0.3,1.8-0.6,2.9-1c2.1-0.7,4.7-1.3,7.8-1.9
				c0.6-0.1,1.3-0.2,2-0.3c2.5-0.4,5.2-0.8,8.1-1.2c7.7-0.8,15.7-1,24-0.3l-0.3,0.1l0,0L284,550c-0.1,0-0.1,0-0.2,0
				c-0.4,0.3-0.8,0.4-0.9,0.5c-0.4,0.2-0.8,0.4-1.3,0.6c-1.2,0.5-2.3,1-3.4,1.6c0,0-0.1,0-0.1,0.1c-6.1,2.9-11,5.7-14.9,8.5v0.1
				c-0.1,0-0.3,0.1-0.4,0.2c-10.7,7.7-17.8,16.9-21.1,27.6c-0.1,0-0.1,0-0.1,0.1c-7.6,3.9-20.1,6.5-37.6,7.8V596.8h0.1H204z
				 M212.8,563.5c-0.5,0-1,0.1-1.4,0.2c-0.5,0.1-1,0.2-1.4,0.3C210.2,567.6,211.2,567.5,212.8,563.5L212.8,563.5z"/>
			<path fill="#4C555A" d="M204,596.8l-1-21.5l9.5-1.3c0.7-0.1,1.5-0.3,2.3-0.4c2.4-0.5,4.5-1,6.1-1.5c0.5-0.2,1-0.3,1.5-0.5
				c0.1,0,0.2-0.1,0.4-0.1h0.1c2.2-0.7,7-2.3,14.5-4.6c8-2.5,16.5-4.3,25.5-5.3c-9.7-0.8-18.3-0.1-25.7,2.3
				c-7.4,2.3-11.8,3.7-13.1,4.1c-1,0.4-2.9,0.9-5.5,1.5l-0.9,0.3c-0.4,0.1-0.8,0.2-1.2,0.3c-0.1,0-0.3,0-0.4,0.1
				c-3.3,0.8-7.1,1.3-11.5,1.5c-0.5,0-0.9,0-1.4,0l0,0c-0.1,0-0.1,0-0.3,0h-0.1c-0.2,0-0.3,0-0.5,0h-0.1v-0.1c0-0.1,0-0.1,0-0.1h0.1
				c-0.1-0.1-0.1-0.2-0.1-0.2l0,0l-0.4-6.8c8.4,0.1,21-3.3,37.8-10.1c0.8-0.3,1.8-0.6,2.9-1c2.1-0.7,4.7-1.3,7.8-1.9
				c0.6-0.1,1.3-0.2,2-0.3c2.5-0.4,5.2-0.8,8.1-1.2c7.7-0.8,15.7-1,24-0.3l-0.3,0.1l0,0L284,550c-0.1,0-0.1,0-0.2,0
				c-0.4,0.3-0.8,0.4-0.9,0.5c-0.4,0.2-0.8,0.4-1.3,0.6c-1.2,0.5-2.3,1-3.4,1.6c0,0-0.1,0-0.1,0.1c-6.1,2.9-11,5.7-14.9,8.5v0.1
				c-0.1,0-0.3,0.1-0.4,0.2c-10.7,7.7-17.8,16.9-21.1,27.6c-0.1,0-0.1,0-0.1,0.1c-7.6,3.9-20.1,6.5-37.6,7.8V596.8h0.1H204z
				 M212.8,563.5c-0.5,0-1,0.1-1.4,0.2c-0.5,0.1-1,0.2-1.4,0.3C210.2,567.6,211.2,567.5,212.8,563.5L212.8,563.5z"/>
			
				<linearGradient id="SVGID_17_" gradientUnits="userSpaceOnUse" x1="396.7109" y1="721.9697" x2="408.2101" y2="720.432" gradientTransform="matrix(1 0 0 1 -195.3203 -140.9199)">
				<stop  offset="1.570000e-002" style="stop-color:#616C72"/>
				<stop  offset="0.5059" style="stop-color:#424B4F"/>
				<stop  offset="1" style="stop-color:#4C555A"/>
			</linearGradient>
			<path fill="url(#SVGID_17_)" d="M203,575.3l1,21.5l0,0c-2.6-0.4-4.3-1.3-5.3-2.8v-18.9c0.1,0,0.1,0,0.1,0L203,575.3z
				 M212.8,563.5L212.8,563.5c-1.6,4-2.6,4.1-2.8,0.5c0.4-0.1,0.9-0.2,1.4-0.3C211.8,563.5,212.3,563.5,212.8,563.5z"/>
			
				<linearGradient id="SVGID_18_" gradientUnits="userSpaceOnUse" x1="396.7109" y1="721.9697" x2="408.2101" y2="720.432" gradientTransform="matrix(1 0 0 1 -195.3203 -140.9199)">
				<stop  offset="1.570000e-002" style="stop-color:#616C72"/>
				<stop  offset="0.5059" style="stop-color:#424B4F"/>
				<stop  offset="1" style="stop-color:#4C555A"/>
			</linearGradient>
			<path fill="url(#SVGID_18_)" d="M203,575.3l1,21.5l0,0c-2.6-0.4-4.3-1.3-5.3-2.8v-18.9c0.1,0,0.1,0,0.1,0L203,575.3z
				 M212.8,563.5L212.8,563.5c-1.6,4-2.6,4.1-2.8,0.5c0.4-0.1,0.9-0.2,1.4-0.3C211.8,563.5,212.3,563.5,212.8,563.5z"/>
			
				<radialGradient id="SVGID_19_" cx="389.042" cy="1760.8379" r="29.1043" gradientTransform="matrix(0.964 0.266 -3.600000e-002 0.1303 -159.2654 215.0269)" gradientUnits="userSpaceOnUse">
				<stop  offset="0" style="stop-color:#90A2B0"/>
				<stop  offset="1" style="stop-color:#49586B"/>
			</radialGradient>
			<path fill="url(#SVGID_19_)" d="M208.1,557.7l-0.3-2.4c4.7-0.3,9.9-1.4,15.4-3.3c2.4-0.9,4.6-1.7,6.8-2.3
				c-6.3,3.5-13.6,6.2-21.8,7.9C208.2,557.6,208.2,557.6,208.1,557.7z"/>
			
				<radialGradient id="SVGID_20_" cx="389.042" cy="1760.8379" r="29.1043" gradientTransform="matrix(0.964 0.266 -3.600000e-002 0.1303 -159.2654 215.0269)" gradientUnits="userSpaceOnUse">
				<stop  offset="0" style="stop-color:#90A2B0"/>
				<stop  offset="1" style="stop-color:#49586B"/>
			</radialGradient>
			<path fill="url(#SVGID_20_)" d="M208.1,557.7l-0.3-2.4c4.7-0.3,9.9-1.4,15.4-3.3c2.4-0.9,4.6-1.7,6.8-2.3
				c-6.3,3.5-13.6,6.2-21.8,7.9C208.2,557.6,208.2,557.6,208.1,557.7z"/>
			
				<linearGradient id="SVGID_21_" gradientUnits="userSpaceOnUse" x1="476.6211" y1="690.4697" x2="476.6211" y2="760.5696" gradientTransform="matrix(1 0 0 1 -195.3203 -140.9199)">
				<stop  offset="0" style="stop-color:#707A7E"/>
				<stop  offset="3.140000e-002" style="stop-color:#97A0A4"/>
				<stop  offset="0.102" style="stop-color:#9FA6AC"/>
				<stop  offset="1" style="stop-color:#C9D0DA"/>
			</linearGradient>
			<path fill="url(#SVGID_21_)" d="M282,552.9l-1.4,1.4l1-1.3l0,0c0.1,0,0.1,0,0.1,0C281.9,552.9,281.9,552.9,282,552.9z"/>
			
				<linearGradient id="SVGID_22_" gradientUnits="userSpaceOnUse" x1="476.6211" y1="690.4697" x2="476.6211" y2="760.5696" gradientTransform="matrix(1 0 0 1 -195.3203 -140.9199)">
				<stop  offset="0" style="stop-color:#707A7E"/>
				<stop  offset="3.140000e-002" style="stop-color:#97A0A4"/>
				<stop  offset="0.102" style="stop-color:#9FA6AC"/>
				<stop  offset="1" style="stop-color:#C9D0DA"/>
			</linearGradient>
			<path fill="url(#SVGID_22_)" d="M282,552.9l-1.4,1.4l1-1.3l0,0c0.1,0,0.1,0,0.1,0C281.9,552.9,281.9,552.9,282,552.9z"/>
			
				<linearGradient id="SVGID_23_" gradientUnits="userSpaceOnUse" x1="483.5205" y1="676.2451" x2="483.5205" y2="774.095" gradientTransform="matrix(1 0 0 1 -195.3203 -140.9199)">
				<stop  offset="0" style="stop-color:#707A7E"/>
				<stop  offset="3.140000e-002" style="stop-color:#97A0A4"/>
				<stop  offset="0.102" style="stop-color:#9FA6AC"/>
				<stop  offset="1" style="stop-color:#C9D0DA"/>
			</linearGradient>
			<path fill="url(#SVGID_23_)" d="M288,549.6l0.9-0.5c-0.4,0.2-0.7,0.4-1.1,0.6c-0.1,0-0.2,0.1-0.3,0.1L288,549.6z"/>
			
				<linearGradient id="SVGID_24_" gradientUnits="userSpaceOnUse" x1="483.5205" y1="676.2451" x2="483.5205" y2="774.095" gradientTransform="matrix(1 0 0 1 -195.3203 -140.9199)">
				<stop  offset="0" style="stop-color:#707A7E"/>
				<stop  offset="3.140000e-002" style="stop-color:#97A0A4"/>
				<stop  offset="0.102" style="stop-color:#9FA6AC"/>
				<stop  offset="1" style="stop-color:#C9D0DA"/>
			</linearGradient>
			<path fill="url(#SVGID_24_)" d="M288,549.6l0.9-0.5c-0.4,0.2-0.7,0.4-1.1,0.6c-0.1,0-0.2,0.1-0.3,0.1L288,549.6z"/>
			<path fill="#1E2932" d="M110,538.9c-1.2,1.4-0.8,3,1.2,4.9c0.8,0.7,1.8,1.5,3,2.4l-0.3,0.1l7.3,3.9h-0.1c0.3,0.2,0.7,0.4,1.1,0.5
				c0.5,0.3,1,0.5,1.6,0.8c0.1,0,0.2,0.1,0.4,0.2c0.1,0,0.5,0.2,1.3,0.6c-0.4,0.3-1.3,0.2-2.9-0.5c-1.6-0.6-2.6-1-2.9-1.1
				c-0.9-0.4-1.7-0.7-2.5-1c-0.6-0.3-1.1-0.6-1.6-0.8c-0.7-0.3-1.3-0.6-1.8-0.9c-0.6-0.3-1.1-0.6-1.5-0.9c-0.4-0.2-0.8-0.5-1.1-0.7
				c-0.9-0.7-1.5-1.3-1.8-1.8c-0.5-0.7-0.8-1.1-0.9-1.2c-0.6-1.4-0.8-2.9-0.4-4.5c0-0.1,0.1-0.2,0.2-0.3c0.1-0.2,0.2-0.4,0.3-0.5
				c0.2-0.2,0.3-0.4,0.4-0.5c28.8-46.1,45.7-88.5,50.6-127.3l1.7,0.3C156.5,449.6,139.4,492.4,110,538.9z"/>
			<path fill="#1E2932" d="M110,538.9c-1.2,1.4-0.8,3,1.2,4.9c0.8,0.7,1.8,1.5,3,2.4l-0.3,0.1l7.3,3.9h-0.1c0.3,0.2,0.7,0.4,1.1,0.5
				c0.5,0.3,1,0.5,1.6,0.8c0.1,0,0.2,0.1,0.4,0.2c0.1,0,0.5,0.2,1.3,0.6c-0.4,0.3-1.3,0.2-2.9-0.5c-1.6-0.6-2.6-1-2.9-1.1
				c-0.9-0.4-1.7-0.7-2.5-1c-0.6-0.3-1.1-0.6-1.6-0.8c-0.7-0.3-1.3-0.6-1.8-0.9c-0.6-0.3-1.1-0.6-1.5-0.9c-0.4-0.2-0.8-0.5-1.1-0.7
				c-0.9-0.7-1.5-1.3-1.8-1.8c-0.5-0.7-0.8-1.1-0.9-1.2c-0.6-1.4-0.8-2.9-0.4-4.5c0-0.1,0.1-0.2,0.2-0.3c0.1-0.2,0.2-0.4,0.3-0.5
				c0.2-0.2,0.3-0.4,0.4-0.5c28.8-46.1,45.7-88.5,50.6-127.3l1.7,0.3C156.5,449.6,139.4,492.4,110,538.9z"/>
			
				<line fill="none" stroke="#0000FF" stroke-linecap="round" stroke-linejoin="round" stroke-miterlimit="3" x1="203.1" y1="571.7" x2="203.1" y2="571.7"/>
			
				<line fill="none" stroke="#0000FF" stroke-linecap="round" stroke-linejoin="round" stroke-miterlimit="3" x1="203.1" y1="571.7" x2="203.1" y2="571.7"/>
		</g>
	</g>
	<g>
		
			<radialGradient id="SVGID_25_" cx="424.7207" cy="665.7197" r="39.875" gradientTransform="matrix(1 0 0 1 -195.3203 -140.9199)" gradientUnits="userSpaceOnUse">
			<stop  offset="0" style="stop-color:#A08D7E"/>
			<stop  offset="1" style="stop-color:#586973;stop-opacity:0"/>
		</radialGradient>
		<path fill="url(#SVGID_25_)" d="M272.3,484.6c3.2,5,6.3,11.7,9.3,20.1c4.7,13.5,4.1,24.2-1.9,32.1c-3,1.4-5.7,2.4-8.1,3.1
			c-2.9,0.7-5.4,0.9-7.3,0.5c-0.3-0.1-0.7-0.1-1.1-0.1c-1.1,0.1-2.1,0.2-3.1,0.4c-5.6,0.9-15.6,3.9-30,8.9c-2.2,0.7-4.5,1.5-6.8,2.3
			c-5.5,1.9-10.7,3-15.4,3.3c-3.5,0.2-6.8,0-9.9-0.8c-10.8-2.6-19-10.7-24.6-24.3c0.3-0.9,0.7-1.8,1.1-2.7c6.1-12.7,8.4-24.7,7.1-36
			c-0.3-2.6,0-4.9,0.9-7c3.1-6.8,12.9-10.5,29.5-11.2c21.6-0.9,36.8-1,45.7-0.3C262.8,473.5,267.7,477.3,272.3,484.6z"/>
		
			<radialGradient id="SVGID_26_" cx="424.7207" cy="665.7197" r="39.875" gradientTransform="matrix(1 0 0 1 -195.3203 -140.9199)" gradientUnits="userSpaceOnUse">
			<stop  offset="0" style="stop-color:#A08D7E"/>
			<stop  offset="1" style="stop-color:#586973;stop-opacity:0"/>
		</radialGradient>
		<path fill="url(#SVGID_26_)" d="M272.3,484.6c3.2,5,6.3,11.7,9.3,20.1c4.7,13.5,4.1,24.2-1.9,32.1c-3,1.4-5.7,2.4-8.1,3.1
			c-2.9,0.7-5.4,0.9-7.3,0.5c-0.3-0.1-0.7-0.1-1.1-0.1c-1.1,0.1-2.1,0.2-3.1,0.4c-5.6,0.9-15.6,3.9-30,8.9c-2.2,0.7-4.5,1.5-6.8,2.3
			c-5.5,1.9-10.7,3-15.4,3.3c-3.5,0.2-6.8,0-9.9-0.8c-10.8-2.6-19-10.7-24.6-24.3c0.3-0.9,0.7-1.8,1.1-2.7c6.1-12.7,8.4-24.7,7.1-36
			c-0.3-2.6,0-4.9,0.9-7c3.1-6.8,12.9-10.5,29.5-11.2c21.6-0.9,36.8-1,45.7-0.3C262.8,473.5,267.7,477.3,272.3,484.6z"/>
	</g>
	<g>
		
			<radialGradient id="SVGID_27_" cx="415.3701" cy="860.7188" r="38.0932" gradientTransform="matrix(1 0 0 0.344 -195.3203 154.9634)" gradientUnits="userSpaceOnUse">
			<stop  offset="0" style="stop-color:#000000;stop-opacity:0.9333"/>
			<stop  offset="0.6157" style="stop-color:#1B2025;stop-opacity:0.6588"/>
			<stop  offset="1" style="stop-color:#5F7080;stop-opacity:0"/>
		</radialGradient>
		<path fill="url(#SVGID_27_)" d="M246.9,460.3c-7.4,2.5-16.4,3.8-26.9,3.8c-10.4,0-19.3-1.3-26.8-3.8c-7.4-2.6-11.1-5.6-11.1-9.2
			c0-3.6,3.7-6.7,11.1-9.2c7.4-2.6,16.4-3.9,26.8-3.9c10.5,0,19.5,1.3,26.9,3.9c7.4,2.5,11.1,5.6,11.1,9.2
			C258,454.7,254.3,457.7,246.9,460.3z"/>
		
			<radialGradient id="SVGID_28_" cx="415.3701" cy="860.7188" r="38.0932" gradientTransform="matrix(1 0 0 0.344 -195.3203 154.9634)" gradientUnits="userSpaceOnUse">
			<stop  offset="0" style="stop-color:#000000;stop-opacity:0.9333"/>
			<stop  offset="0.6157" style="stop-color:#1B2025;stop-opacity:0.6588"/>
			<stop  offset="1" style="stop-color:#5F7080;stop-opacity:0"/>
		</radialGradient>
		<path fill="url(#SVGID_28_)" d="M246.9,460.3c-7.4,2.5-16.4,3.8-26.9,3.8c-10.4,0-19.3-1.3-26.8-3.8c-7.4-2.6-11.1-5.6-11.1-9.2
			c0-3.6,3.7-6.7,11.1-9.2c7.4-2.6,16.4-3.9,26.8-3.9c10.5,0,19.5,1.3,26.9,3.9c7.4,2.5,11.1,5.6,11.1,9.2
			C258,454.7,254.3,457.7,246.9,460.3z"/>
	</g>
	<g>
		
			<radialGradient id="SVGID_29_" cx="409.3701" cy="606.5449" r="26.35" gradientTransform="matrix(1 0 0 0.8805 -195.3203 -87.5435)" gradientUnits="userSpaceOnUse">
			<stop  offset="0.2275" style="stop-color:#FFFFFF"/>
			<stop  offset="0.6" style="stop-color:#ABB4BD;stop-opacity:0.4745"/>
			<stop  offset="1" style="stop-color:#5F7080;stop-opacity:0"/>
		</radialGradient>
		<path fill="url(#SVGID_29_)" d="M191.9,448.6l0.3-0.2c3.5,3.5,7.4,5.7,11.5,6.6c1.8,0.5,3.5,0.8,5.1,1.1c4.9,0.9,9.9,1,14.8,0.4
			c3.9-0.6,7-1.6,9.4-3c2.4-1.5,4-3,4.8-4.5l0.2,24.5l-45.7-1.2L191.9,448.6z"/>
		
			<radialGradient id="SVGID_30_" cx="409.3701" cy="606.5449" r="26.35" gradientTransform="matrix(1 0 0 0.8805 -195.3203 -87.5435)" gradientUnits="userSpaceOnUse">
			<stop  offset="0.2275" style="stop-color:#FFFFFF"/>
			<stop  offset="0.6" style="stop-color:#ABB4BD;stop-opacity:0.4745"/>
			<stop  offset="1" style="stop-color:#5F7080;stop-opacity:0"/>
		</radialGradient>
		<path fill="url(#SVGID_30_)" d="M191.9,448.6l0.3-0.2c3.5,3.5,7.4,5.7,11.5,6.6c1.8,0.5,3.5,0.8,5.1,1.1c4.9,0.9,9.9,1,14.8,0.4
			c3.9-0.6,7-1.6,9.4-3c2.4-1.5,4-3,4.8-4.5l0.2,24.5l-45.7-1.2L191.9,448.6z"/>
	</g>
	<g>
		<path fill="#15282F" d="M231.7,431.2c1.5,0.5,2.8,1,3.8,1.6c2.1,1.2,3.1,2.5,3.2,4v12.7c-0.1,2.1-2.4,4-7,5.5
			c-4.5,1.6-10,2.3-16.5,2.3s-12-0.8-16.5-2.3c-4.6-1.5-6.9-3.4-7-5.5v-12.7c0-1.4,1-2.7,3-3.9c1-0.6,2.3-1.2,4-1.7
			c4.5-1.6,10-2.4,16.5-2.4S227.2,429.6,231.7,431.2z"/>
		<path fill="#15282F" d="M231.7,431.2c1.5,0.5,2.8,1,3.8,1.6c2.1,1.2,3.1,2.5,3.2,4v12.7c-0.1,2.1-2.4,4-7,5.5
			c-4.5,1.6-10,2.3-16.5,2.3s-12-0.8-16.5-2.3c-4.6-1.5-6.9-3.4-7-5.5v-12.7c0-1.4,1-2.7,3-3.9c1-0.6,2.3-1.2,4-1.7
			c4.5-1.6,10-2.4,16.5-2.4S227.2,429.6,231.7,431.2z"/>
	</g>
	<g>
		<g>
			
				<linearGradient id="SVGID_31_" gradientUnits="userSpaceOnUse" x1="387.7705" y1="588.5195" x2="433.27" y2="588.5195" gradientTransform="matrix(1 0 0 1 -195.3203 -140.9199)">
				<stop  offset="3.900000e-003" style="stop-color:#374E5C"/>
				<stop  offset="0.5255" style="stop-color:#98A6B6"/>
				<stop  offset="0.9569" style="stop-color:#3A515F"/>
			</linearGradient>
			<path fill="url(#SVGID_31_)" d="M237.9,439v9.6c0,2.1-2.3,3.9-6.6,5.4c-4.3,1.5-9.7,2.3-16,2.3c-6.3,0-11.6-0.8-16-2.3
				c-4.4-1.5-6.7-3.3-6.8-5.4v-9.7c0.1,2.1,2.3,3.9,6.8,5.4c0.6,0.2,1.1,0.4,1.6,0.5c4.1,1.2,8.9,1.8,14.5,1.8s10.3-0.6,14.4-1.8
				c0.6-0.1,1.1-0.3,1.6-0.5C235.6,442.8,237.8,441,237.9,439z"/>
			
				<linearGradient id="SVGID_32_" gradientUnits="userSpaceOnUse" x1="387.7705" y1="588.5195" x2="433.27" y2="588.5195" gradientTransform="matrix(1 0 0 1 -195.3203 -140.9199)">
				<stop  offset="3.900000e-003" style="stop-color:#374E5C"/>
				<stop  offset="0.5255" style="stop-color:#98A6B6"/>
				<stop  offset="0.9569" style="stop-color:#3A515F"/>
			</linearGradient>
			<path fill="url(#SVGID_32_)" d="M237.9,439v9.6c0,2.1-2.3,3.9-6.6,5.4c-4.3,1.5-9.7,2.3-16,2.3c-6.3,0-11.6-0.8-16-2.3
				c-4.4-1.5-6.7-3.3-6.8-5.4v-9.7c0.1,2.1,2.3,3.9,6.8,5.4c0.6,0.2,1.1,0.4,1.6,0.5c4.1,1.2,8.9,1.8,14.5,1.8s10.3-0.6,14.4-1.8
				c0.6-0.1,1.1-0.3,1.6-0.5C235.6,442.8,237.8,441,237.9,439z"/>
			
				<radialGradient id="SVGID_33_" cx="409.0205" cy="586.1201" r="25.775" gradientTransform="matrix(1 0 0 1 -195.3203 -140.9199)" gradientUnits="userSpaceOnUse">
				<stop  offset="0" style="stop-color:#98A6B6"/>
				<stop  offset="1" style="stop-color:#5D6E7E"/>
			</radialGradient>
			<path fill="url(#SVGID_33_)" d="M192.5,438.9v-2.5c0.1,2.1,2.3,3.8,6.8,5.3c0.6,0.2,1.1,0.4,1.6,0.6c4.1,1.2,8.9,1.8,14.5,1.8
				s10.3-0.6,14.4-1.8c0.6-0.2,1.1-0.4,1.6-0.6c4.4-1.5,6.6-3.3,6.6-5.3v2.5c-0.1,2.1-2.3,3.9-6.6,5.3c-0.5,0.2-1,0.4-1.6,0.5
				c-4.1,1.2-8.9,1.8-14.4,1.8s-10.4-0.6-14.5-1.8c-0.5-0.1-1-0.3-1.6-0.5C194.8,442.8,192.5,441,192.5,438.9z"/>
			
				<radialGradient id="SVGID_34_" cx="409.0205" cy="586.1201" r="25.775" gradientTransform="matrix(1 0 0 1 -195.3203 -140.9199)" gradientUnits="userSpaceOnUse">
				<stop  offset="0" style="stop-color:#98A6B6"/>
				<stop  offset="1" style="stop-color:#5D6E7E"/>
			</radialGradient>
			<path fill="url(#SVGID_34_)" d="M192.5,438.9v-2.5c0.1,2.1,2.3,3.8,6.8,5.3c0.6,0.2,1.1,0.4,1.6,0.6c4.1,1.2,8.9,1.8,14.5,1.8
				s10.3-0.6,14.4-1.8c0.6-0.2,1.1-0.4,1.6-0.6c4.4-1.5,6.6-3.3,6.6-5.3v2.5c-0.1,2.1-2.3,3.9-6.6,5.3c-0.5,0.2-1,0.4-1.6,0.5
				c-4.1,1.2-8.9,1.8-14.4,1.8s-10.4-0.6-14.5-1.8c-0.5-0.1-1-0.3-1.6-0.5C194.8,442.8,192.5,441,192.5,438.9z"/>
			<path fill="#3F4D58" d="M234.9,432.4c2,1.2,3,2.4,3,3.8v0.3c-0.1,2-2.3,3.8-6.6,5.3c-0.5,0.2-1,0.4-1.6,0.6
				c-4.1,1.2-8.9,1.8-14.4,1.8s-10.4-0.6-14.5-1.8c-0.5-0.2-1-0.4-1.6-0.6c-4.4-1.5-6.7-3.3-6.8-5.3v-0.3c0.1-1.4,1.1-2.6,3-3.8
				c-1,0.9-1.6,1.8-1.7,2.8c0.1,2,2.2,3.7,6.3,5.2c0.5,0.2,1,0.3,1.5,0.5c3.8,1.1,8.4,1.7,13.6,1.7c5.2,0,9.7-0.6,13.6-1.7
				c0.5-0.1,1-0.3,1.5-0.5c4.1-1.4,6.2-3.2,6.3-5.2C236.5,434.2,236,433.3,234.9,432.4z"/>
			<path fill="#3F4D58" d="M234.9,432.4c2,1.2,3,2.4,3,3.8v0.3c-0.1,2-2.3,3.8-6.6,5.3c-0.5,0.2-1,0.4-1.6,0.6
				c-4.1,1.2-8.9,1.8-14.4,1.8s-10.4-0.6-14.5-1.8c-0.5-0.2-1-0.4-1.6-0.6c-4.4-1.5-6.7-3.3-6.8-5.3v-0.3c0.1-1.4,1.1-2.6,3-3.8
				c-1,0.9-1.6,1.8-1.7,2.8c0.1,2,2.2,3.7,6.3,5.2c0.5,0.2,1,0.3,1.5,0.5c3.8,1.1,8.4,1.7,13.6,1.7c5.2,0,9.7-0.6,13.6-1.7
				c0.5-0.1,1-0.3,1.5-0.5c4.1-1.4,6.2-3.2,6.3-5.2C236.5,434.2,236,433.3,234.9,432.4z"/>
			<path fill="#4F616F" d="M195.5,432.5c1-0.6,2.2-1.2,3.8-1.7c4.4-1.5,9.8-2.3,16-2.3c6.2,0,11.6,0.8,16,2.3c1.5,0.5,2.7,1,3.6,1.7
				c1.1,0.9,1.7,1.8,1.8,2.9c-0.1,2-2.2,3.7-6.3,5.2c-0.5,0.2-1,0.3-1.5,0.5c-3.9,1.1-8.4,1.7-13.6,1.7c-5.2,0-9.8-0.6-13.6-1.7
				c-0.5-0.1-1-0.3-1.5-0.5c-4.1-1.4-6.2-3.2-6.3-5.2C193.9,434.3,194.4,433.3,195.5,432.5z"/>
			<path fill="#4F616F" d="M195.5,432.5c1-0.6,2.2-1.2,3.8-1.7c4.4-1.5,9.8-2.3,16-2.3c6.2,0,11.6,0.8,16,2.3c1.5,0.5,2.7,1,3.6,1.7
				c1.1,0.9,1.7,1.8,1.8,2.9c-0.1,2-2.2,3.7-6.3,5.2c-0.5,0.2-1,0.3-1.5,0.5c-3.9,1.1-8.4,1.7-13.6,1.7c-5.2,0-9.8-0.6-13.6-1.7
				c-0.5-0.1-1-0.3-1.5-0.5c-4.1-1.4-6.2-3.2-6.3-5.2C193.9,434.3,194.4,433.3,195.5,432.5z"/>
		</g>
	</g>
	
		<radialGradient id="SVGID_35_" cx="117.2295" cy="275.9375" r="12.7" gradientTransform="matrix(1.3519 0 0 0.4264 55.5575 325.9809)" gradientUnits="userSpaceOnUse">
		<stop  offset="0" style="stop-color:#FFFFFF"/>
		<stop  offset="3.530000e-002" style="stop-color:#FFFFFF"/>
		<stop  offset="0.2039" style="stop-color:#FFFFFF;stop-opacity:0.4588"/>
		<stop  offset="0.3294" style="stop-color:#FFFFFF;stop-opacity:0.3098"/>
		<stop  offset="0.6627" style="stop-color:#FFFFFF;stop-opacity:5.490000e-002"/>
		<stop  offset="1" style="stop-color:#FFFFFF;stop-opacity:0"/>
	</radialGradient>
	<path fill="url(#SVGID_35_)" d="M202.3,440c3.2-1,7.1-1.5,11.6-1.5c4.6,0,8.5,0.5,11.7,1.5c3.2,1,4.9,2.2,4.9,3.7
		c0,1.4-1.6,2.7-4.9,3.7c-3.2,1-7.1,1.5-11.7,1.5s-8.4-0.5-11.6-1.5c-3.2-1-4.8-2.2-4.8-3.7C197.6,442.2,199.1,441,202.3,440z"/>
	
		<radialGradient id="SVGID_36_" cx="117.2295" cy="275.9375" r="12.7" gradientTransform="matrix(1.3519 0 0 0.4264 55.5575 325.9809)" gradientUnits="userSpaceOnUse">
		<stop  offset="0" style="stop-color:#FFFFFF"/>
		<stop  offset="3.530000e-002" style="stop-color:#FFFFFF"/>
		<stop  offset="0.2039" style="stop-color:#FFFFFF;stop-opacity:0.4588"/>
		<stop  offset="0.3294" style="stop-color:#FFFFFF;stop-opacity:0.3098"/>
		<stop  offset="0.6627" style="stop-color:#FFFFFF;stop-opacity:5.490000e-002"/>
		<stop  offset="1" style="stop-color:#FFFFFF;stop-opacity:0"/>
	</radialGradient>
	<path fill="url(#SVGID_36_)" d="M202.3,440c3.2-1,7.1-1.5,11.6-1.5c4.6,0,8.5,0.5,11.7,1.5c3.2,1,4.9,2.2,4.9,3.7
		c0,1.4-1.6,2.7-4.9,3.7c-3.2,1-7.1,1.5-11.7,1.5s-8.4-0.5-11.6-1.5c-3.2-1-4.8-2.2-4.8-3.7C197.6,442.2,199.1,441,202.3,440z"/>
</g>
</svg>
