<?xml version="1.0" encoding="utf-8"?>
<!-- Generator: Adobe Illustrator 16.0.0, SVG Export Plug-In . SVG Version: 6.00 Build 0)  -->
<!DOCTYPE svg PUBLIC "-//W3C//DTD SVG 1.1//EN" "http://www.w3.org/Graphics/SVG/1.1/DTD/svg11.dtd">
<svg version="1.1" id="Layer_1" xmlns="http://www.w3.org/2000/svg" xmlns:xlink="http://www.w3.org/1999/xlink" x="0px" y="0px"
	 width="94.5px" height="30.5px" viewBox="0 0 94.5 30.5" enable-background="new 0 0 94.5 30.5" xml:space="preserve">
<g>
	<g>
		<path fill="#7C91B0" d="M1.9,14.5C1.6,10.7,5.8,7.6,14.4,5C23.1,2.6,33.7,1.5,46,1.7C58.5,1.8,69.3,3.3,78.4,6
			c8.9,2.8,13.6,6.1,13.9,9.9c0.3,3.7-3.9,6.9-12.6,9.4C71,27.9,60.5,29,48,28.8c-12.4-0.2-23.1-1.8-32.2-4.6
			C6.8,21.5,2.2,18.3,1.9,14.5z"/>
	</g>
	<g>
		<path fill="#B9C4D6" d="M4.8,14.2c-0.3-3.3,3.7-6,11.9-8.3c8.2-2.3,18.2-3.2,30-3c11.8,0.2,21.9,1.5,30.5,4s13,5.4,13.2,8.6
			c0.3,3.3-3.6,6-11.9,8.3c-8.2,2.2-18.2,3.2-30,3c-11.7-0.2-21.9-1.6-30.5-4.1C9.5,20.3,5.1,17.5,4.8,14.2z"/>
	</g>
	<g>
		<path fill="#293445" d="M26.9,13c0.1-0.2,0.1-0.5,0-0.8c-0.1-0.4-0.4-0.8-0.9-1.2c-0.4-0.2-0.8-0.4-1.3-0.4
			c-0.3-0.1-1-0.1-2.2-0.2l-1.4-0.1l1.1,3.1h1.7c1.2,0.1,1.9,0,2.3,0C26.5,13.4,26.7,13.3,26.9,13z M30.2,14c-0.2,0.4-0.5,0.8-0.9,1
			c-0.4,0.2-0.8,0.4-1.3,0.4c-0.6,0.1-1.6,0.1-3,0h-2l1.5,4.1l-3-0.1l-4-11l4.8,0.2c1.8,0.1,3,0.1,3.6,0.2c0.9,0.2,1.8,0.7,2.6,1.3
			c0.7,0.5,1.3,1.2,1.6,2.1C30.2,13,30.2,13.6,30.2,14z M38.2,13.8c1.4,0,2.3,0.1,2.6,0.2c0.3-0.1,0.5-0.2,0.7-0.5
			c0.1-0.2,0-0.4-0.1-0.8c-0.1-0.4-0.4-0.7-0.7-1s-0.8-0.5-1.3-0.5c-0.2,0-1,0-2.2-0.1L34.9,11l1,2.8H38.2L38.2,13.8z M43.2,10.9
			c0.6,0.6,1,1.2,1.3,1.8c0.3,0.8,0.2,1.5-0.2,2c-0.5,0.5-1.3,0.8-2.6,0.9c0.8,0.3,1.5,0.6,2,0.9c0.6,0.4,1.3,1,2.3,1.9l2.6,2.2
			L45,20.5L42,18c-1.1-0.9-1.8-1.5-2.1-1.8c-0.4-0.2-0.7-0.4-1.1-0.5c-0.4-0.1-0.9-0.2-1.5-0.2h-0.6l1.6,4.6l-3-0.1l-4-11l6.3,0.3
			c1.6,0,2.8,0.2,3.5,0.6C41.9,10.1,42.6,10.4,43.2,10.9z M65.8,10.6l11.8,0.5l0.7,1.9l-4.4-0.2l3.3,9l-3-0.1l-3.3-9l-4.5-0.2
			L65.8,10.6z M63.7,10.4l4,11l-3-0.2l-8.6-7.4l2.6,7.2l-2.8-0.1l-4-11l2.9,0.1l8.7,7.5l-2.6-7.2L63.7,10.4z M49.2,9.8l4,11l-3-0.1
			l-4-11L49.2,9.8z"/>
	</g>
</g>
</svg>
