<?xml version="1.0" encoding="utf-8"?>
<!-- Generator: Adobe Illustrator 16.0.0, SVG Export Plug-In . SVG Version: 6.00 Build 0)  -->
<!DOCTYPE svg PUBLIC "-//W3C//DTD SVG 1.1//EN" "http://www.w3.org/Graphics/SVG/1.1/DTD/svg11.dtd">
<svg version="1.1" id="Layer_2" xmlns="http://www.w3.org/2000/svg" xmlns:xlink="http://www.w3.org/1999/xlink" x="0px" y="0px"
	 width="700px" height="700px" viewBox="0 0 700 700" enable-background="new 0 0 700 700" xml:space="preserve">
<g>
	<g>
		<path fill-rule="evenodd" clip-rule="evenodd" fill="#7C91B1" d="M523.7,519.5c-0.3-3.7,3.9-6.9,12.5-9.5
			c8.7-2.4,19.3-3.5,31.6-3.3c12.5,0.1,23.3,1.6,32.4,4.3c8.9,2.9,13.6,6.2,13.9,9.9c0.3,3.7-3.9,6.8-12.6,9.4
			c-8.7,2.6-19.2,3.7-31.7,3.5c-12.4-0.2-23.1-1.7-32.2-4.6C528.6,526.5,524,523.2,523.7,519.5z"/>
	</g>
	<g>
		<path fill-rule="evenodd" clip-rule="evenodd" fill="#93A4BF" d="M526.5,520.3c-0.3-3.3,3.7-6,11.9-8.3c8.2-2.2,18.2-3.1,30-2.9
			c11.8,0.2,21.9,1.5,30.5,3.9c8.6,2.5,13,5.4,13.3,8.7c0.3,3.3-3.6,6-11.9,8.2c-8.2,2.3-18.2,3.3-30,3.1
			c-11.7-0.2-21.9-1.6-30.5-4.1C531.2,526.4,526.8,523.5,526.5,520.3z"/>
	</g>
	<g>
		<path fill-rule="evenodd" clip-rule="evenodd" fill="#293445" d="M550.1,516.6c0.8,0.5,1.3,1.3,1.7,2.2c0.2,0.7,0.3,1.2,0.2,1.7
			c-0.2,0.4-0.5,0.8-0.9,1c-0.4,0.2-0.8,0.3-1.3,0.3c-0.7,0.1-1.7,0.1-3,0.1l-2-0.1l1.5,4.1l-3-0.1l-4-10.9l4.8,0.1
			c1.8,0.1,3,0.2,3.6,0.3C548.5,515.5,549.3,516,550.1,516.6z M547.8,517.5c-0.4-0.2-0.9-0.4-1.3-0.5c-0.3,0-1-0.1-2.1-0.1l-1.4-0.1
			l1.1,3.1l1.6,0c1.2,0,2,0,2.4-0.1c0.3-0.1,0.6-0.3,0.7-0.5c0.1-0.2,0.1-0.5,0-0.8C548.5,518.2,548.2,517.8,547.8,517.5z
			 M561.3,517.7c-0.2,0-1,0-2.2-0.1l-2.3-0.1l1,2.8l2.3,0c1.4,0,2.3,0.1,2.6,0.1c0.3-0.1,0.5-0.2,0.7-0.5c0.1-0.2,0.1-0.4,0-0.8
			c-0.1-0.4-0.4-0.7-0.7-1S561.8,517.7,561.3,517.7z M566.3,519.1c0.3,0.8,0.2,1.5-0.2,2c-0.5,0.5-1.3,0.9-2.6,1
			c0.8,0.3,1.5,0.6,2,1c0.6,0.3,1.3,1,2.3,1.9l2.6,2.2l-3.5-0.1l-3-2.5c-1.1-0.9-1.8-1.5-2.1-1.8c-0.4-0.2-0.7-0.4-1.1-0.5
			c-0.4-0.1-0.9-0.2-1.5-0.2l-0.6,0l1.6,4.5l-3,0l-4-11l6.3,0.3c1.6,0,2.7,0.2,3.5,0.5c0.8,0.2,1.5,0.6,2.2,1.1
			C565.6,517.8,566,518.4,566.3,519.1z M600.1,519.4l-4.4-0.2l3.3,9l-3-0.1l-3.3-9.1l-4.5-0.2l-0.7-1.8l11.8,0.5L600.1,519.4z
			 M576.7,516.5l8.7,7.6l-2.6-7.3l2.8,0.1l4,11l-3-0.1l-8.5-7.4l2.6,7.2l-2.8-0.1l-4-11L576.7,516.5z M571,516.2l4,11l-3-0.1l-4-11
			L571,516.2z"/>
	</g>
</g>
</svg>
