<?xml version="1.0" encoding="utf-8"?>
<!-- Generator: Adobe Illustrator 16.0.0, SVG Export Plug-In . SVG Version: 6.00 Build 0)  -->
<!DOCTYPE svg PUBLIC "-//W3C//DTD SVG 1.1//EN" "http://www.w3.org/Graphics/SVG/1.1/DTD/svg11.dtd">
<svg version="1.1" id="Layer_2" xmlns="http://www.w3.org/2000/svg" xmlns:xlink="http://www.w3.org/1999/xlink" x="0px" y="0px"
	 width="700px" height="700px" viewBox="0 0 700 700" enable-background="new 0 0 700 700" xml:space="preserve">
<g>
	<g>
		<path fill-rule="evenodd" clip-rule="evenodd" fill="#8497B7" d="M417.3,433.4l4.3,24.2c-6.4,0.1-12.8,0-19-0.3
			c-14-0.8-25.4-2.8-34.4-5.8c-9-2.9-12.9-6.1-11.6-9.5c1.2-3.4,7.2-5.9,18-7.7c8.6-1.4,18.2-2,28.9-1.8L417.3,433.4z"/>
	</g>
	<g>
		<path fill-rule="evenodd" clip-rule="evenodd" fill="#B8C3D5" d="M414.8,434.9l3.6,20.4c-5.1,0.1-10.5,0-16.2-0.3
			c-12.7-0.8-23.2-2.4-31.5-5c-8.2-2.5-11.8-5.2-10.8-8c1.1-2.8,6.4-5,16.1-6.4c9.8-1.4,21.1-1.7,33.8-1
			C410.5,434.7,412.1,434.8,414.8,434.9z"/>
	</g>
	<g>
		<polygon fill-rule="evenodd" clip-rule="evenodd" fill="#806000" points="416.5,450.5 397,450.2 405,436.7 		"/>
	</g>
	<g>
		<polygon fill-rule="evenodd" clip-rule="evenodd" fill="#FFCC33" points="413.8,449.3 399.5,449.1 405.3,439.3 		"/>
	</g>
</g>
</svg>
