<?xml version="1.0" encoding="utf-8"?>
<!-- Generator: Adobe Illustrator 16.0.0, SVG Export Plug-In . SVG Version: 6.00 Build 0)  -->
<!DOCTYPE svg PUBLIC "-//W3C//DTD SVG 1.1//EN" "http://www.w3.org/Graphics/SVG/1.1/DTD/svg11.dtd">
<svg version="1.1" id="Layer_1" xmlns="http://www.w3.org/2000/svg" xmlns:xlink="http://www.w3.org/1999/xlink" x="0px" y="0px"
	 width="72px" height="28.5px" viewBox="0 0 72 28.5" enable-background="new 0 0 72 28.5" xml:space="preserve">
<g>
	<g>
		<path fill="#8598B8" d="M64.3,1.9l4.3,24.2c-6.5,0.1-12.8,0-19-0.3C35.7,25,24.2,23,15.1,20c-9-2.9-12.8-6-11.5-9.5
			c1.2-3.4,7.2-5.9,18-7.7c8.6-1.4,18.3-2,29-1.8L64.3,1.9z"/>
	</g>
	<g>
		<path fill="#B9C4D6" d="M62,3.4l3.5,20.4c-5.1,0.1-10.5,0-16.2-0.3c-12.7-0.8-23.2-2.4-31.5-5C9.6,16,6,13.3,7,10.5
			c1.1-2.8,6.5-4.9,16.1-6.4c9.8-1.4,21.1-1.7,33.8-1C57.5,3.2,59.2,3.3,62,3.4z"/>
	</g>
	<g>
		<polygon fill="#816114" points="63.5,19 44,18.7 52,5.2 		"/>
	</g>
	<g>
		<polygon fill="#8598B8" points="60.8,17.9 46.5,17.6 52.3,7.8 		"/>
	</g>
</g>
</svg>
