<?xml version="1.0" encoding="utf-8"?>
<!-- Generator: Adobe Illustrator 16.0.0, SVG Export Plug-In . SVG Version: 6.00 Build 0)  -->
<!DOCTYPE svg PUBLIC "-//W3C//DTD SVG 1.1//EN" "http://www.w3.org/Graphics/SVG/1.1/DTD/svg11.dtd">
<svg version="1.1" id="Layer_1" xmlns="http://www.w3.org/2000/svg" xmlns:xlink="http://www.w3.org/1999/xlink" x="0px" y="0px"
	 width="72px" height="28.5px" viewBox="0 0 72 28.5" enable-background="new 0 0 72 28.5" xml:space="preserve">
<g>
	<g>
		<path fill="#8598B8" d="M16.7,2.2c11,0.6,21.4,2,31,4c11.8,2.6,19.1,5.7,21.8,9.2s-0.1,6.3-8.3,8.5s-19.4,3.2-33.5,2.9
			c-6.3-0.1-12.9-0.5-19.8-1.2L2.7,1.9L16.7,2.2z"/>
	</g>
	<g>
		<path fill="#B9C4D6" d="M5.7,3.6c2.8,0,4.5,0,5.2,0c12.9,0.3,24.7,1.5,35.5,3.8s17.2,4.8,19.4,7.6c2.2,2.9-0.4,5.2-8,7.1
			C50.2,24,39.9,24.7,27,24.4c-5.8-0.1-11.3-0.4-16.6-0.9L5.7,3.6z"/>
	</g>
	<g>
		<polygon fill="#816114" points="19.2,21.1 8.5,7.2 28.2,8.2 		"/>
	</g>
	<g>
		<polygon fill="#8598B8" points="18.9,18.7 11.1,8.5 25.5,9.4 		"/>
	</g>
</g>
</svg>
