<?xml version="1.0" encoding="utf-8"?>
<!-- Generator: Adobe Illustrator 16.0.0, SVG Export Plug-In . SVG Version: 6.00 Build 0)  -->
<!DOCTYPE svg PUBLIC "-//W3C//DTD SVG 1.1//EN" "http://www.w3.org/Graphics/SVG/1.1/DTD/svg11.dtd">
<svg version="1.1" id="Layer_2" xmlns="http://www.w3.org/2000/svg" xmlns:xlink="http://www.w3.org/1999/xlink" x="0px" y="0px"
	 width="25.5px" height="74.6px" viewBox="0 0 25.5 74.6" enable-background="new 0 0 25.5 74.6" xml:space="preserve">
<g>
	<g>
		<path fill-rule="evenodd" clip-rule="evenodd" fill="#666666" d="M22,71.7v-7.1h1.9L22,71.7z M22,64V10.5L24,2.7V64H22z M4.5,64.6
			h16.9v8.8H2L4.5,64.6z M4.6,10.6h16.8V64H4.6V10.6z M4.6,10.1V1.2h19.2l-2.3,8.8H4.6z M1.5,10.6H4V64h0l-2.5,8.8V10.6z M1.7,10.1
			L4,2.5v7.6H1.7z M4.1,0.7L3.9,1l0,0L1,10.3c0,0,0,0.1,0,0.1V74h21l2.5-9.4h0.1v-64H4.1z"/>
	</g>
	<g>
		<g>
			
				<linearGradient id="SVGID_1_" gradientUnits="userSpaceOnUse" x1="-376.1187" y1="-452.7363" x2="-299.7211" y2="-452.7363" gradientTransform="matrix(0.1464 0.3575 0.3893 -6.856148e-002 235.5771 104.6368)">
				<stop  offset="0" style="stop-color:#FFFFFF"/>
				<stop  offset="1" style="stop-color:#FFFFFF;stop-opacity:0"/>
			</linearGradient>
			<path fill-rule="evenodd" clip-rule="evenodd" fill="url(#SVGID_1_)" d="M20.5,23.7V12.1H5.7H2.3v13L2.5,25
				c1.9-0.9,3.9-1.5,5.9-1.8L9.2,23c1.5-0.3,3.1-0.4,4.8-0.3c0.2,0,0.4,0,0.6,0C16.5,22.8,18.5,23.1,20.5,23.7z"/>
			
				<linearGradient id="SVGID_2_" gradientUnits="userSpaceOnUse" x1="-262.6426" y1="-441.5444" x2="-158.706" y2="-441.5444" gradientTransform="matrix(8.845173e-002 -0.376 -0.3953 -6.585293e-003 -148.6697 -6.0728)">
				<stop  offset="0" style="stop-color:#FFFFFF"/>
				<stop  offset="1" style="stop-color:#FFFFFF;stop-opacity:0"/>
			</linearGradient>
			<path fill-rule="evenodd" clip-rule="evenodd" fill="url(#SVGID_2_)" d="M2.3,44.2v28.5h18.2v-27c-2,0.6-3.9,0.9-5.9,1h-0.6
				c-1.6,0.1-3.2,0-4.8-0.3l-0.8-0.2c-2-0.3-3.9-1-5.9-1.8L2.3,44.2z"/>
			
				<linearGradient id="SVGID_3_" gradientUnits="userSpaceOnUse" x1="-259.9648" y1="-476.3433" x2="-158.7734" y2="-476.3433" gradientTransform="matrix(6.966538e-003 -0.3862 -0.3848 -8.399709e-002 -159.275 -44.8416)">
				<stop  offset="0" style="stop-color:#FFFFFF"/>
				<stop  offset="1" style="stop-color:#FFFFFF;stop-opacity:0"/>
			</linearGradient>
			<path fill-rule="evenodd" clip-rule="evenodd" fill="url(#SVGID_3_)" d="M22.3,44.2v25.6l1.4-5.2V45.6c-0.1,0.6-0.3,0.9-0.4,1
				h-0.1c-0.1,0.1-0.2,0-0.4-0.3l-0.1-0.2c-0.1-0.3-0.3-1-0.4-1.8L22.3,44.2z"/>
		</g>
	</g>
	<g>
		<g>
			
				<radialGradient id="SVGID_4_" cx="-169.9751" cy="-630.3003" r="30.2164" gradientTransform="matrix(-0.3863 0 0 0.3863 -51.4018 252.6476)" gradientUnits="userSpaceOnUse">
				<stop  offset="0" style="stop-color:#FFFFFF"/>
				<stop  offset="1" style="stop-color:#FFFFFF;stop-opacity:0"/>
			</radialGradient>
			<polygon fill-rule="evenodd" clip-rule="evenodd" fill="url(#SVGID_4_)" points="5.4,10.7 5.4,11.3 5.4,16.6 6,16.6 6,11.3 
				6,10.7 6,2.1 6,1.8 5.7,1.8 5.4,1.8 			"/>
			
				<radialGradient id="SVGID_5_" cx="-169.9995" cy="-630.2749" r="30.2196" gradientTransform="matrix(-0.3863 0 0 0.3863 -51.4018 252.6476)" gradientUnits="userSpaceOnUse">
				<stop  offset="0.502" style="stop-color:#FFFFFF"/>
				<stop  offset="1" style="stop-color:#FFFFFF;stop-opacity:0"/>
			</radialGradient>
			<polygon fill-rule="evenodd" clip-rule="evenodd" fill="url(#SVGID_5_)" points="6,2.1 22.9,2.1 22.9,1.5 5.7,1.5 5.7,1.8 6,1.8 
							"/>
			
				<radialGradient id="SVGID_6_" cx="-139.9751" cy="-635.625" r="5.55" gradientTransform="matrix(-0.3863 0 0 0.3863 -51.4018 252.6476)" gradientUnits="userSpaceOnUse">
				<stop  offset="0" style="stop-color:#FFFFFF"/>
				<stop  offset="1" style="stop-color:#FFFFFF;stop-opacity:0"/>
			</radialGradient>
			<polygon fill-rule="evenodd" clip-rule="evenodd" fill="url(#SVGID_6_)" points="3.9,5.1 3.4,4.9 2.1,9.2 2.7,9.4 			"/>
			
				<radialGradient id="SVGID_7_" cx="-163.2495" cy="-606.4248" r="30.2196" gradientTransform="matrix(-0.3863 0 0 0.3863 -51.4018 252.6476)" gradientUnits="userSpaceOnUse">
				<stop  offset="0.502" style="stop-color:#FFFFFF"/>
				<stop  offset="1" style="stop-color:#FFFFFF;stop-opacity:0"/>
			</radialGradient>
			<path fill-rule="evenodd" clip-rule="evenodd" fill="url(#SVGID_7_)" d="M6,10.7v0.6h14.3v-0.6H6z M5.4,10.7H3.1v0.6h2.3V10.7z"
				/>
			
				<radialGradient id="SVGID_8_" cx="-138.2246" cy="-548.7754" r="69.6005" gradientTransform="matrix(-0.3863 0 0 0.3863 -51.4018 252.6476)" gradientUnits="userSpaceOnUse">
				<stop  offset="0" style="stop-color:#FFFFFF"/>
				<stop  offset="1" style="stop-color:#FFFFFF;stop-opacity:0"/>
			</radialGradient>
			<rect x="1.7" y="14.1" fill-rule="evenodd" clip-rule="evenodd" fill="url(#SVGID_8_)" width="0.6" height="53.2"/>
			
				<radialGradient id="SVGID_9_" cx="-190.7236" cy="-556.7744" r="69.5995" gradientTransform="matrix(-0.3863 0 0 0.3863 -51.4018 252.6476)" gradientUnits="userSpaceOnUse">
				<stop  offset="0" style="stop-color:#FFFFFF"/>
				<stop  offset="1" style="stop-color:#FFFFFF;stop-opacity:0"/>
			</radialGradient>
			<rect x="22" y="11" fill-rule="evenodd" clip-rule="evenodd" fill="url(#SVGID_9_)" width="0.6" height="53.2"/>
			
				<radialGradient id="SVGID_10_" cx="-163.2744" cy="-464.625" r="22.9995" gradientTransform="matrix(-0.3863 0 0 0.3863 -51.4018 252.6476)" gradientUnits="userSpaceOnUse">
				<stop  offset="0" style="stop-color:#FFFFFF"/>
				<stop  offset="1" style="stop-color:#FFFFFF;stop-opacity:0"/>
			</radialGradient>
			<rect x="3.1" y="72.9" fill-rule="evenodd" clip-rule="evenodd" fill="url(#SVGID_10_)" width="17.2" height="0.6"/>
		</g>
	</g>
</g>
</svg>
