<svg id="Layer_1" data-name="Layer 1" xmlns="http://www.w3.org/2000/svg" width="635.12" height="537.77" viewBox="0 0 635.12 537.77"><defs><style>.cls-1{fill:#565656;}</style></defs><title>AluminumSulfide</title><path class="cls-1" d="M106.41,155.08h26v7.7H114.53V268.9h17.92v7.7h-26V155.08Z" transform="translate(-106.31 -33.03)"/><path class="cls-1" d="M205.53,243.28H159L150.79,264h-13.3L175,170.62h14.42L227.09,264h-13.3Zm-43.12-10.36H202l-19.74-50.26Z" transform="translate(-106.31 -33.03)"/><path class="cls-1" d="M240.25,170.62h10.5V264h-10.5V170.62Z" transform="translate(-106.31 -33.03)"/><path class="cls-1" d="M265,268.9h17.92V162.78H265v-7.7h26V276.6H265v-7.7Z" transform="translate(-106.31 -33.03)"/><path class="cls-1" d="M320.75,195.38H316.1V178H300.43v-4.24H316.1v-16.9h4.65v16.9h15.67V178H320.75v17.38Z" transform="translate(-106.31 -33.03)"/><path class="cls-1" d="M346,191.13a18.91,18.91,0,0,0,15.18,7.18c7.92,0,12.73-3.92,12.73-10.2,0-6.77-5.55-9.63-13.55-9.63-2.29,0-4.82,0-5.63.08v-6.2c0.9,0.08,3.43.08,5.63,0.08,6.86,0,12.65-2.69,12.65-9,0-6-5.55-9.3-12.16-9.3-6,0-10.37,2.29-14.36,6.61l-3.75-4.24a23.59,23.59,0,0,1,18.61-8.41c10.45,0,18.45,5.31,18.45,14.53,0,7.84-6.61,11.75-11.75,12.65,5,0.41,12.57,4.65,12.57,13.39,0,9.06-7.26,15.67-19.26,15.67-9.22,0-16-4.08-19.34-9Z" transform="translate(-106.31 -33.03)"/><path class="cls-1" d="M450.62,240h26v7.7H458.74V353.86h17.92v7.7h-26V240Z" transform="translate(-106.31 -33.03)"/><path class="cls-1" d="M530.14,327a39.47,39.47,0,0,0,29.4,13.3c16.66,0,22-9,22-16.1,0-11.2-11.34-14.28-23.66-17.64-15-3.92-31.64-8.12-31.64-26.46,0-15.4,13.72-25.9,32.06-25.9,14.28,0,25.34,4.76,33.18,13l-7,8.54c-7-7.7-16.8-11.2-27-11.2-11.2,0-19.18,6-19.18,14.84,0,9.38,10.78,12.18,22.68,15.4,15.26,4.06,32.62,8.82,32.62,28.42,0,13.58-9.24,27.44-34.44,27.44-16.24,0-28.14-6.16-35.84-14.84Z" transform="translate(-106.31 -33.03)"/><path class="cls-1" d="M641.3,353.86h17.92V247.74H641.3V240h26V361.56h-26v-7.7Z" transform="translate(-106.31 -33.03)"/><path class="cls-1" d="M676.79,265.9h19.59v5.39H676.79V265.9Z" transform="translate(-106.31 -33.03)"/><path class="cls-1" d="M704,283c19.59-15.43,30.2-24.49,30.2-33.87,0-6.94-5.71-10-11.34-10A18.2,18.2,0,0,0,708.13,246L704,241.65c4.16-5.47,11.26-8.57,18.94-8.57,9.06,0,18.28,5.14,18.28,16,0,11.1-11.26,21.22-26.44,33.22h26.69v6H704V283Z" transform="translate(-106.31 -33.03)"/><circle class="cls-1" cx="391.67" cy="286.06" r="12.8"/><circle class="cls-1" cx="391.67" cy="250.06" r="12.8"/><circle class="cls-1" cx="434.55" cy="198.44" r="12.8"/><circle class="cls-1" cx="470.55" cy="198.44" r="12.8"/><circle class="cls-1" cx="434.55" cy="338.48" r="12.8"/><circle class="cls-1" cx="470.55" cy="338.48" r="12.8"/><circle class="cls-1" cx="516.14" cy="286.06" r="12.8"/><circle class="cls-1" cx="516.14" cy="250.06" r="12.8"/><path class="cls-1" d="M106.31,316.73h26v7.7H114.43V430.55h17.92v7.7h-26V316.73Z" transform="translate(-106.31 -33.03)"/><path class="cls-1" d="M205.43,404.93H159l-8.26,20.72h-13.3l37.52-93.38h14.42L227,425.65h-13.3Zm-43.12-10.36h39.62l-19.74-50.26Z" transform="translate(-106.31 -33.03)"/><path class="cls-1" d="M240.15,332.27h10.5v93.38h-10.5V332.27Z" transform="translate(-106.31 -33.03)"/><path class="cls-1" d="M264.93,430.55h17.92V324.43H264.93v-7.7h26V438.25h-26v-7.7Z" transform="translate(-106.31 -33.03)"/><path class="cls-1" d="M320.66,357H316V339.65H300.33v-4.24H316V318.51h4.65v16.89h15.67v4.24H320.66V357Z" transform="translate(-106.31 -33.03)"/><path class="cls-1" d="M345.88,352.79A18.91,18.91,0,0,0,361.06,360c7.92,0,12.73-3.92,12.73-10.2,0-6.77-5.55-9.63-13.55-9.63-2.29,0-4.82,0-5.63.08V334c0.9,0.08,3.43.08,5.63,0.08,6.86,0,12.65-2.69,12.65-9,0-6-5.55-9.3-12.16-9.3-6,0-10.37,2.29-14.36,6.61l-3.75-4.24a23.59,23.59,0,0,1,18.61-8.41c10.45,0,18.45,5.3,18.45,14.53,0,7.83-6.61,11.75-11.75,12.65,5,0.41,12.57,4.65,12.57,13.39,0,9.06-7.26,15.67-19.26,15.67-9.22,0-16-4.08-19.34-9Z" transform="translate(-106.31 -33.03)"/><path class="cls-1" d="M450.28,54.4h26v7.7H458.4V168.22h17.92v7.7h-26V54.4Z" transform="translate(-106.31 -33.03)"/><path class="cls-1" d="M529.79,141.34a39.47,39.47,0,0,0,29.4,13.3c16.66,0,22-9,22-16.1,0-11.2-11.34-14.28-23.66-17.64-15-3.92-31.64-8.12-31.64-26.46,0-15.4,13.72-25.9,32.06-25.9,14.28,0,25.34,4.76,33.18,13l-7,8.54c-7-7.7-16.8-11.2-27-11.2-11.2,0-19.18,6-19.18,14.84,0,9.38,10.78,12.18,22.68,15.4,15.26,4.06,32.62,8.82,32.62,28.42,0,13.58-9.24,27.44-34.44,27.44-16.24,0-28.14-6.16-35.84-14.84Z" transform="translate(-106.31 -33.03)"/><path class="cls-1" d="M641,168.22h17.92V62.1H641V54.4h26V175.92H641v-7.7Z" transform="translate(-106.31 -33.03)"/><path class="cls-1" d="M676.44,80.26H696v5.39H676.44V80.26Z" transform="translate(-106.31 -33.03)"/><path class="cls-1" d="M703.7,97.31c19.59-15.43,30.2-24.49,30.2-33.87,0-6.94-5.71-10-11.34-10a18.2,18.2,0,0,0-14.77,6.86L703.62,56c4.16-5.47,11.26-8.57,18.94-8.57,9.06,0,18.28,5.14,18.28,16,0,11.1-11.26,21.22-26.44,33.22h26.69v6H703.7V97.31Z" transform="translate(-106.31 -33.03)"/><circle class="cls-1" cx="391.33" cy="100.43" r="12.8"/><circle class="cls-1" cx="391.33" cy="64.43" r="12.8"/><circle class="cls-1" cx="434.2" cy="12.8" r="12.8"/><circle class="cls-1" cx="470.2" cy="12.8" r="12.8"/><circle class="cls-1" cx="434.2" cy="152.84" r="12.8"/><circle class="cls-1" cx="470.2" cy="152.84" r="12.8"/><circle class="cls-1" cx="515.79" cy="100.43" r="12.8"/><circle class="cls-1" cx="515.79" cy="64.43" r="12.8"/><path class="cls-1" d="M450.28,426.53h26v7.7H458.4V540.35h17.92v7.7h-26V426.53Z" transform="translate(-106.31 -33.03)"/><path class="cls-1" d="M529.79,513.47a39.47,39.47,0,0,0,29.4,13.3c16.66,0,22-9,22-16.1,0-11.2-11.34-14.28-23.66-17.64-15-3.92-31.64-8.12-31.64-26.46,0-15.4,13.72-25.9,32.06-25.9,14.28,0,25.34,4.76,33.18,13l-7,8.54c-7-7.7-16.8-11.2-27-11.2-11.2,0-19.18,6-19.18,14.84,0,9.38,10.78,12.18,22.68,15.4,15.26,4.06,32.62,8.82,32.62,28.42,0,13.58-9.24,27.44-34.44,27.44-16.24,0-28.14-6.16-35.84-14.84Z" transform="translate(-106.31 -33.03)"/><path class="cls-1" d="M641,540.35h17.92V434.23H641v-7.7h26V548.05H641v-7.7Z" transform="translate(-106.31 -33.03)"/><path class="cls-1" d="M676.44,452.39H696v5.39H676.44v-5.39Z" transform="translate(-106.31 -33.03)"/><path class="cls-1" d="M703.7,469.45C723.29,454,733.9,445,733.9,435.57c0-6.94-5.71-10-11.34-10a18.2,18.2,0,0,0-14.77,6.86l-4.16-4.33c4.16-5.47,11.26-8.57,18.94-8.57,9.06,0,18.28,5.14,18.28,16,0,11.1-11.26,21.22-26.44,33.22h26.69v6H703.7v-5.39Z" transform="translate(-106.31 -33.03)"/><circle class="cls-1" cx="391.33" cy="472.56" r="12.8"/><circle class="cls-1" cx="391.33" cy="436.56" r="12.8"/><circle class="cls-1" cx="434.2" cy="384.93" r="12.8"/><circle class="cls-1" cx="470.2" cy="384.93" r="12.8"/><circle class="cls-1" cx="434.2" cy="524.97" r="12.8"/><circle class="cls-1" cx="470.2" cy="524.97" r="12.8"/><circle class="cls-1" cx="515.79" cy="472.56" r="12.8"/><circle class="cls-1" cx="515.79" cy="436.56" r="12.8"/></svg>