<svg id="Layer_1" data-name="Layer 1" xmlns="http://www.w3.org/2000/svg" width="568.39" height="544.88" viewBox="0 0 568.39 544.88"><defs><style>.cls-1{fill:#565656;}</style></defs><title>AluminumFluoride</title><path class="cls-1" d="M154.95,242.26h26V250H163.07V356.08H181v7.7h-26V242.26Z" transform="translate(-154.95 -31.44)"/><path class="cls-1" d="M254.07,330.46H207.59l-8.26,20.72H186l37.52-93.38H238l37.66,93.38h-13.3ZM210.95,320.1h39.62l-19.74-50.26Z" transform="translate(-154.95 -31.44)"/><path class="cls-1" d="M288.79,257.8h10.5v93.38h-10.5V257.8Z" transform="translate(-154.95 -31.44)"/><path class="cls-1" d="M313.57,356.08h17.92V250H313.57v-7.7h26V363.78h-26v-7.7Z" transform="translate(-154.95 -31.44)"/><path class="cls-1" d="M369.3,282.56h-4.65V265.17H349v-4.24h15.67V244h4.65v16.9H385v4.24H369.3v17.38Z" transform="translate(-154.95 -31.44)"/><path class="cls-1" d="M394.52,278.31a18.91,18.91,0,0,0,15.18,7.18c7.92,0,12.73-3.92,12.73-10.2,0-6.77-5.55-9.63-13.55-9.63-2.29,0-4.82,0-5.63.08v-6.2c0.9,0.08,3.43.08,5.63,0.08,6.86,0,12.65-2.69,12.65-9,0-6-5.55-9.3-12.16-9.3-6,0-10.37,2.29-14.36,6.61l-3.75-4.24a23.59,23.59,0,0,1,18.61-8.41c10.45,0,18.45,5.31,18.45,14.53,0,7.84-6.61,11.75-11.75,12.65,5,0.41,12.57,4.65,12.57,13.39,0,9.06-7.26,15.67-19.26,15.67-9.22,0-16-4.08-19.34-9Z" transform="translate(-154.95 -31.44)"/><path class="cls-1" d="M481.88,242.71h26v7.7H490V356.53h17.92v7.7h-26V242.71Z" transform="translate(-154.95 -31.44)"/><path class="cls-1" d="M560.14,258.25h61.18v10.36H571.76v30.1h48.58v10.36H571.76v42.56H560.14V258.25Z" transform="translate(-154.95 -31.44)"/><path class="cls-1" d="M667.52,356.53h17.92V250.41H667.52v-7.7h26V364.23h-26v-7.7Z" transform="translate(-154.95 -31.44)"/><path class="cls-1" d="M703,268.57H722.6V274H703v-5.39Z" transform="translate(-154.95 -31.44)"/><circle class="cls-1" cx="370.25" cy="290.33" r="12.8"/><circle class="cls-1" cx="370.25" cy="254.33" r="12.8"/><circle class="cls-1" cx="412.12" cy="202.7" r="12.8"/><circle class="cls-1" cx="448.12" cy="202.7" r="12.8"/><circle class="cls-1" cx="412.12" cy="342.74" r="12.8"/><circle class="cls-1" cx="448.12" cy="342.74" r="12.8"/><circle class="cls-1" cx="495.71" cy="290.33" r="12.8"/><circle class="cls-1" cx="495.71" cy="254.33" r="12.8"/><path class="cls-1" d="M482.62,432.06h26v7.7H490.74V545.88h17.92v7.7h-26V432.06Z" transform="translate(-154.95 -31.44)"/><path class="cls-1" d="M560.88,447.6h61.18V458H572.5v30.1h48.58v10.36H572.5V541H560.88V447.6Z" transform="translate(-154.95 -31.44)"/><path class="cls-1" d="M668.26,545.88h17.92V439.76H668.26v-7.7h26V553.58h-26v-7.7Z" transform="translate(-154.95 -31.44)"/><path class="cls-1" d="M703.75,457.91h19.59v5.39H703.75v-5.39Z" transform="translate(-154.95 -31.44)"/><circle class="cls-1" cx="370.98" cy="479.67" r="12.8"/><circle class="cls-1" cx="370.98" cy="443.67" r="12.8"/><circle class="cls-1" cx="412.86" cy="392.05" r="12.8"/><circle class="cls-1" cx="448.86" cy="392.05" r="12.8"/><circle class="cls-1" cx="412.86" cy="532.08" r="12.8"/><circle class="cls-1" cx="448.86" cy="532.08" r="12.8"/><circle class="cls-1" cx="496.45" cy="479.67" r="12.8"/><circle class="cls-1" cx="496.45" cy="443.67" r="12.8"/><path class="cls-1" d="M481.8,52.81h26v7.7H489.92V166.63h17.92v7.7h-26V52.81Z" transform="translate(-154.95 -31.44)"/><path class="cls-1" d="M560.06,68.35h61.18V78.71H571.68v30.1h48.58v10.36H571.68v42.56H560.06V68.35Z" transform="translate(-154.95 -31.44)"/><path class="cls-1" d="M667.44,166.63h17.92V60.51H667.44v-7.7h26V174.33h-26v-7.7Z" transform="translate(-154.95 -31.44)"/><path class="cls-1" d="M702.93,78.67h19.59v5.39H702.93V78.67Z" transform="translate(-154.95 -31.44)"/><circle class="cls-1" cx="370.16" cy="100.43" r="12.8"/><circle class="cls-1" cx="370.16" cy="64.43" r="12.8"/><circle class="cls-1" cx="412.04" cy="12.8" r="12.8"/><circle class="cls-1" cx="448.04" cy="12.8" r="12.8"/><circle class="cls-1" cx="412.04" cy="152.84" r="12.8"/><circle class="cls-1" cx="448.04" cy="152.84" r="12.8"/><circle class="cls-1" cx="495.63" cy="100.43" r="12.8"/><circle class="cls-1" cx="495.63" cy="64.43" r="12.8"/></svg>