<svg id="Layer_1" data-name="Layer 1" xmlns="http://www.w3.org/2000/svg" width="311.53" height="176.15" viewBox="0 0 311.53 176.15"><defs><style>.cls-1{fill:#565656;}</style></defs><title>Fluorine</title><path class="cls-1" d="M368.52,270.88H429.7v10.36H380.14v30.1h48.58V321.7H380.14v42.56H368.52V270.88Z" transform="translate(-172.38 -228.52)"/><circle class="cls-1" cx="154.26" cy="105.93" r="12.8"/><circle class="cls-1" cx="154.26" cy="69.93" r="12.8"/><circle class="cls-1" cx="207.13" cy="13.31" r="12.8"/><circle class="cls-1" cx="243.13" cy="13.31" r="12.8"/><circle class="cls-1" cx="207.13" cy="163.35" r="12.8"/><circle class="cls-1" cx="243.13" cy="163.35" r="12.8"/><circle class="cls-1" cx="298.73" cy="105.93" r="12.8"/><circle class="cls-1" cx="298.73" cy="69.93" r="12.8"/><path class="cls-1" d="M227.06,270.37h61.18v10.36H238.68v30.1h48.58v10.36H238.68v42.56H227.06V270.37Z" transform="translate(-172.38 -228.52)"/><circle class="cls-1" cx="12.8" cy="105.43" r="12.8"/><circle class="cls-1" cx="12.8" cy="69.43" r="12.8"/><circle class="cls-1" cx="65.68" cy="12.8" r="12.8"/><circle class="cls-1" cx="101.68" cy="12.8" r="12.8"/><circle class="cls-1" cx="65.68" cy="162.84" r="12.8"/><circle class="cls-1" cx="101.68" cy="162.84" r="12.8"/></svg>