<svg id="Layer_1" data-name="Layer 1" xmlns="http://www.w3.org/2000/svg" width="709.17" height="396.21" viewBox="0 0 709.17 396.21"><defs><style>.cls-1{fill:#565656;}</style></defs><title>MagnesiumNitride</title><path class="cls-1" d="M86,107.77h26v7.7H94.16V221.59h17.92v7.7H86V107.77Z" transform="translate(-85.7 -100.81)"/><path class="cls-1" d="M206.58,139.83L174.8,216.69H170L138.4,139.83v76.86H126.78V123.31h16.66l29,70.28,29.12-70.28H218.2v93.38H206.58V139.83Z" transform="translate(-85.7 -100.81)"/><path class="cls-1" d="M246.2,226.21c5.6,6.72,12.32,9.24,22,9.24,11.2,0,21.7-5.46,21.7-20.3v-9.66a28.24,28.24,0,0,1-22.68,12c-17.64,0-30.1-13.16-30.1-35s12.32-35.14,30.1-35.14c9.1,0,17.22,4.48,22.68,11.9V149.07h10.5v65.66c0,22.4-15.68,29.4-32.2,29.4-11.48,0-19.32-2.24-27.3-10.08Zm43.68-58.52c-3.64-5.88-11.76-10.92-20.16-10.92-13.58,0-21.7,10.78-21.7,25.76s8.12,25.76,21.7,25.76a25,25,0,0,0,20.16-11.06V167.69Z" transform="translate(-85.7 -100.81)"/><path class="cls-1" d="M314.66,221.59h17.92V115.47H314.66v-7.7h26V229.29h-26v-7.7Z" transform="translate(-85.7 -100.81)"/><path class="cls-1" d="M370.39,148.07h-4.65V130.68H350.07v-4.24h15.67v-16.9h4.65v16.9h15.67v4.24H370.39v17.38Z" transform="translate(-85.7 -100.81)"/><path class="cls-1" d="M393.65,150.68c19.59-15.43,30.2-24.49,30.2-33.87,0-6.94-5.71-10-11.34-10a18.2,18.2,0,0,0-14.77,6.86l-4.16-4.33c4.16-5.47,11.26-8.57,18.94-8.57,9.06,0,18.28,5.14,18.28,16,0,11.1-11.26,21.22-26.44,33.22H431v6H393.65v-5.39Z" transform="translate(-85.7 -100.81)"/><path class="cls-1" d="M487.07,145.75h26v7.7H495.19V259.57h17.92v7.7h-26V145.75Z" transform="translate(-85.7 -100.81)"/><path class="cls-1" d="M576.95,180.19v74.48H565.33V161.29h11.9L631,234.23V161.29H642.6v93.38h-11.2Z" transform="translate(-85.7 -100.81)"/><path class="cls-1" d="M694.82,259.57h17.92V153.45H694.82v-7.7h26V267.27h-26v-7.7Z" transform="translate(-85.7 -100.81)"/><path class="cls-1" d="M730.31,171.6H749.9V177H730.31V171.6Z" transform="translate(-85.7 -100.81)"/><path class="cls-1" d="M759.53,181.8A18.91,18.91,0,0,0,774.71,189c7.92,0,12.73-3.92,12.73-10.2,0-6.77-5.55-9.63-13.55-9.63-2.29,0-4.82,0-5.63.08V163c0.9,0.08,3.43.08,5.63,0.08,6.86,0,12.65-2.69,12.65-9,0-6-5.55-9.3-12.16-9.3-6,0-10.37,2.29-14.36,6.61l-3.75-4.24a23.59,23.59,0,0,1,18.61-8.41c10.45,0,18.45,5.31,18.45,14.53,0,7.84-6.61,11.75-11.75,12.65,5,0.41,12.57,4.65,12.57,13.39,0,9.06-7.26,15.67-19.26,15.67-9.22,0-16-4.08-19.34-9Z" transform="translate(-85.7 -100.81)"/><circle class="cls-1" cx="447" cy="123.99" r="12.8"/><circle class="cls-1" cx="447" cy="87.99" r="12.8"/><circle class="cls-1" cx="498.88" cy="36.36" r="12.8"/><circle class="cls-1" cx="534.88" cy="36.36" r="12.8"/><circle class="cls-1" cx="498.88" cy="176.4" r="12.8"/><circle class="cls-1" cx="534.88" cy="176.4" r="12.8"/><circle class="cls-1" cx="587.47" cy="123.99" r="12.8"/><circle class="cls-1" cx="587.47" cy="87.99" r="12.8"/><path class="cls-1" d="M85.7,234.31h26V242H93.82V348.13h17.92v7.7h-26V234.31Z" transform="translate(-85.7 -100.81)"/><path class="cls-1" d="M206.24,266.37l-31.78,76.86H169.7l-31.64-76.86v76.86H126.44V249.85H143.1l29,70.28,29.12-70.28h16.66v93.38H206.24V266.37Z" transform="translate(-85.7 -100.81)"/><path class="cls-1" d="M245.86,352.75c5.6,6.72,12.32,9.24,22,9.24,11.2,0,21.7-5.46,21.7-20.3V332a28.24,28.24,0,0,1-22.68,12c-17.64,0-30.1-13.16-30.1-35s12.32-35.14,30.1-35.14c9.1,0,17.22,4.48,22.68,11.9V275.61H300v65.66c0,22.4-15.68,29.4-32.2,29.4-11.48,0-19.32-2.24-27.3-10.08Zm43.68-58.52c-3.64-5.88-11.76-10.92-20.16-10.92-13.58,0-21.7,10.78-21.7,25.76s8.12,25.76,21.7,25.76a25,25,0,0,0,20.16-11.06V294.23Z" transform="translate(-85.7 -100.81)"/><path class="cls-1" d="M314.32,348.13h17.92V242H314.32v-7.7h26V355.83h-26v-7.7Z" transform="translate(-85.7 -100.81)"/><path class="cls-1" d="M370,274.61h-4.65V257.22H349.72V253h15.67v-16.9H370V253h15.67v4.24H370v17.38Z" transform="translate(-85.7 -100.81)"/><path class="cls-1" d="M393.31,277.22c19.59-15.43,30.2-24.49,30.2-33.87,0-6.94-5.71-10-11.34-10a18.2,18.2,0,0,0-14.77,6.86l-4.16-4.33c4.16-5.47,11.26-8.57,18.94-8.57,9.06,0,18.28,5.14,18.28,16,0,11.1-11.26,21.22-26.44,33.22h26.69v6H393.31v-5.39Z" transform="translate(-85.7 -100.81)"/><path class="cls-1" d="M85.7,360.66h26v7.7H93.82V474.48h17.92v7.7h-26V360.66Z" transform="translate(-85.7 -100.81)"/><path class="cls-1" d="M206.24,392.72l-31.78,76.86H169.7l-31.64-76.86v76.86H126.44V376.2H143.1l29,70.28L201.2,376.2h16.66v93.38H206.24V392.72Z" transform="translate(-85.7 -100.81)"/><path class="cls-1" d="M245.86,479.1c5.6,6.72,12.32,9.24,22,9.24,11.2,0,21.7-5.46,21.7-20.3v-9.66a28.24,28.24,0,0,1-22.68,12c-17.64,0-30.1-13.16-30.1-35s12.32-35.14,30.1-35.14c9.1,0,17.22,4.48,22.68,11.9V402H300v65.66c0,22.4-15.68,29.4-32.2,29.4-11.48,0-19.32-2.24-27.3-10.08Zm43.68-58.52c-3.64-5.88-11.76-10.92-20.16-10.92-13.58,0-21.7,10.78-21.7,25.76s8.12,25.76,21.7,25.76a25,25,0,0,0,20.16-11.06V420.58Z" transform="translate(-85.7 -100.81)"/><path class="cls-1" d="M314.32,474.48h17.92V368.36H314.32v-7.7h26V482.18h-26v-7.7Z" transform="translate(-85.7 -100.81)"/><path class="cls-1" d="M370,401h-4.65V383.58H349.72v-4.24h15.67V362.44H370v16.89h15.67v4.24H370V401Z" transform="translate(-85.7 -100.81)"/><path class="cls-1" d="M393.31,403.58c19.59-15.43,30.2-24.49,30.2-33.87,0-6.94-5.71-10-11.34-10a18.2,18.2,0,0,0-14.77,6.86l-4.16-4.33c4.16-5.47,11.26-8.57,18.94-8.57,9.06,0,18.28,5.14,18.28,16,0,11.1-11.26,21.22-26.44,33.22h26.69v6H393.31v-5.39Z" transform="translate(-85.7 -100.81)"/><path class="cls-1" d="M487.8,335.09h26v7.7H495.92V448.91h17.92v7.7h-26V335.09Z" transform="translate(-85.7 -100.81)"/><path class="cls-1" d="M577.68,369.53V444H566.06V350.63H578l53.76,72.94V350.63h11.62V444h-11.2Z" transform="translate(-85.7 -100.81)"/><path class="cls-1" d="M695.56,448.91h17.92V342.79H695.56v-7.7h26V456.61h-26v-7.7Z" transform="translate(-85.7 -100.81)"/><path class="cls-1" d="M731,360.94h19.59v5.39H731v-5.39Z" transform="translate(-85.7 -100.81)"/><path class="cls-1" d="M760.27,371.15a18.91,18.91,0,0,0,15.18,7.18c7.92,0,12.73-3.92,12.73-10.2,0-6.77-5.55-9.63-13.55-9.63-2.29,0-4.82,0-5.63.08v-6.2c0.9,0.08,3.43.08,5.63,0.08,6.86,0,12.65-2.69,12.65-9,0-6-5.55-9.3-12.16-9.3-6,0-10.37,2.29-14.36,6.61L757,336.54a23.59,23.59,0,0,1,18.61-8.41c10.45,0,18.45,5.3,18.45,14.53,0,7.83-6.61,11.75-11.75,12.65,5,0.41,12.57,4.65,12.57,13.39,0,9.06-7.26,15.67-19.26,15.67-9.22,0-16-4.08-19.34-9Z" transform="translate(-85.7 -100.81)"/><circle class="cls-1" cx="447.74" cy="313.33" r="12.8"/><circle class="cls-1" cx="447.74" cy="277.33" r="12.8"/><circle class="cls-1" cx="499.62" cy="225.71" r="12.8"/><circle class="cls-1" cx="535.62" cy="225.71" r="12.8"/><circle class="cls-1" cx="499.62" cy="365.75" r="12.8"/><circle class="cls-1" cx="535.62" cy="365.75" r="12.8"/><circle class="cls-1" cx="588.21" cy="313.33" r="12.8"/><circle class="cls-1" cx="588.21" cy="277.33" r="12.8"/></svg>