<svg id="Layer_1" data-name="Layer 1" xmlns="http://www.w3.org/2000/svg" width="661.89" height="354.98" viewBox="0 0 661.89 354.98"><defs><style>.cls-1{fill:#565656;}</style></defs><title>MagnesiumChloride</title><path class="cls-1" d="M71.14,242.26h26V250H79.26V356.08H97.18v7.7h-26V242.26Z" transform="translate(-71.14 -127.9)"/><path class="cls-1" d="M191.68,274.32L159.9,351.18h-4.76L123.5,274.32v76.86H111.88V257.8h16.66l29,70.28,29.12-70.28H203.3v93.38H191.68V274.32Z" transform="translate(-71.14 -127.9)"/><path class="cls-1" d="M231.3,360.7c5.6,6.72,12.32,9.24,22,9.24,11.2,0,21.7-5.46,21.7-20.3V340a28.24,28.24,0,0,1-22.68,12c-17.64,0-30.1-13.16-30.1-35s12.32-35.14,30.1-35.14c9.1,0,17.22,4.48,22.68,11.9V283.56h10.5v65.66c0,22.4-15.68,29.4-32.2,29.4-11.48,0-19.32-2.24-27.3-10.08ZM275,302.18c-3.64-5.88-11.76-10.92-20.16-10.92-13.58,0-21.7,10.78-21.7,25.76s8.12,25.76,21.7,25.76A25,25,0,0,0,275,331.72V302.18Z" transform="translate(-71.14 -127.9)"/><path class="cls-1" d="M299.76,356.08h17.92V250H299.76v-7.7h26V363.78h-26v-7.7Z" transform="translate(-71.14 -127.9)"/><path class="cls-1" d="M355.49,282.56h-4.65V265.17H335.17v-4.24h15.67V244h4.65v16.9h15.67v4.24H355.49v17.38Z" transform="translate(-71.14 -127.9)"/><path class="cls-1" d="M378.75,285.17c19.59-15.43,30.2-24.49,30.2-33.87,0-6.94-5.71-10-11.34-10a18.2,18.2,0,0,0-14.77,6.86l-4.16-4.33c4.16-5.47,11.26-8.57,18.94-8.57,9.06,0,18.28,5.14,18.28,16,0,11.1-11.26,21.22-26.44,33.22h26.69v6H378.75v-5.39Z" transform="translate(-71.14 -127.9)"/><path class="cls-1" d="M441,149.27h26V157H449.16V263.09h17.92v7.7H441V149.27Z" transform="translate(-71.14 -127.9)"/><path class="cls-1" d="M515.52,211.57c0-28.7,21.14-48.3,48-48.3,16.52,0,28,8,35.42,18.48l-9.8,5.46a31.5,31.5,0,0,0-25.62-13.58c-20.44,0-36,15.68-36,37.94s15.54,37.94,36,37.94a31.14,31.14,0,0,0,25.62-13.58l9.94,5.46c-7.84,10.64-19,18.48-35.56,18.48C536.66,259.87,515.52,240.27,515.52,211.57Z" transform="translate(-71.14 -127.9)"/><path class="cls-1" d="M614.92,164.81h10.5v93.38h-10.5V164.81Z" transform="translate(-71.14 -127.9)"/><path class="cls-1" d="M677.22,263.09h17.92V157H677.22v-7.7h26V270.79h-26v-7.7Z" transform="translate(-71.14 -127.9)"/><path class="cls-1" d="M712.7,175.13h19.59v5.39H712.7v-5.39Z" transform="translate(-71.14 -127.9)"/><circle class="cls-1" cx="418.48" cy="100.43" r="12.8"/><circle class="cls-1" cx="418.48" cy="64.43" r="12.8"/><circle class="cls-1" cx="480.35" cy="12.8" r="12.8"/><circle class="cls-1" cx="516.35" cy="12.8" r="12.8"/><circle class="cls-1" cx="480.35" cy="152.84" r="12.8"/><circle class="cls-1" cx="516.35" cy="152.84" r="12.8"/><circle class="cls-1" cx="578.95" cy="100.43" r="12.8"/><circle class="cls-1" cx="578.95" cy="64.43" r="12.8"/><path class="cls-1" d="M441.78,338.62h26v7.7H449.9V452.43h17.92v7.7h-26V338.62Z" transform="translate(-71.14 -127.9)"/><path class="cls-1" d="M516.26,400.91c0-28.7,21.14-48.3,48-48.3,16.52,0,28,8,35.42,18.48l-9.8,5.46A31.5,31.5,0,0,0,564.28,363c-20.44,0-36,15.68-36,37.94s15.54,37.94,36,37.94a31.14,31.14,0,0,0,25.62-13.58l9.94,5.46c-7.84,10.64-19,18.48-35.56,18.48C537.4,449.21,516.26,429.61,516.26,400.91Z" transform="translate(-71.14 -127.9)"/><path class="cls-1" d="M615.66,354.16h10.5v93.38h-10.5V354.16Z" transform="translate(-71.14 -127.9)"/><path class="cls-1" d="M678,452.43h17.92V346.31H678v-7.7h26V460.13H678v-7.7Z" transform="translate(-71.14 -127.9)"/><path class="cls-1" d="M713.44,364.47H733v5.39H713.44v-5.39Z" transform="translate(-71.14 -127.9)"/><circle class="cls-1" cx="419.22" cy="289.77" r="12.8"/><circle class="cls-1" cx="419.22" cy="253.77" r="12.8"/><circle class="cls-1" cx="481.09" cy="202.14" r="12.8"/><circle class="cls-1" cx="517.09" cy="202.14" r="12.8"/><circle class="cls-1" cx="481.09" cy="342.18" r="12.8"/><circle class="cls-1" cx="517.09" cy="342.18" r="12.8"/><circle class="cls-1" cx="579.68" cy="289.77" r="12.8"/><circle class="cls-1" cx="579.68" cy="253.77" r="12.8"/></svg>