<svg id="Layer_1" data-name="Layer 1" xmlns="http://www.w3.org/2000/svg" width="388.85" height="93.87" viewBox="0 0 388.85 93.87"><defs><style>.cls-1{fill:#565656;}</style></defs><title>Nitrogen</title><path class="cls-1" d="M359.69,280v74.48H348.07V261.07H360L413.73,334V261.07h11.62v93.38h-11.2Z" transform="translate(-82.86 -261.07)"/><circle class="cls-1" cx="376.05" cy="64.14" r="12.8"/><circle class="cls-1" cx="376.05" cy="28.14" r="12.8"/><circle class="cls-1" cx="233.13" cy="64.15" r="12.8"/><circle class="cls-1" cx="233.13" cy="28.15" r="12.8"/><circle class="cls-1" cx="193.14" cy="64.17" r="12.8"/><circle class="cls-1" cx="193.14" cy="28.17" r="12.8"/><path class="cls-1" d="M139.36,280.46v74.48H127.74V261.56h11.9L193.4,334.5V261.56H205v93.38h-11.2Z" transform="translate(-82.86 -261.07)"/><circle class="cls-1" cx="155.72" cy="64.63" r="12.8"/><circle class="cls-1" cx="155.72" cy="28.63" r="12.8"/><circle class="cls-1" cx="12.8" cy="64.64" r="12.8"/><circle class="cls-1" cx="12.8" cy="28.64" r="12.8"/></svg>