<svg id="Layer_1" data-name="Layer 1" xmlns="http://www.w3.org/2000/svg" width="531.23" height="326.77" viewBox="0 0 531.23 326.77"><defs><style>.cls-1{fill:#565656;}</style></defs><title>NitrogenTrichloride</title><path class="cls-1" d="M379.08,289.78v74.48H367.46V270.88h11.9l53.76,72.94V270.88h11.62v93.38h-11.2Z" transform="translate(-142.38 -228.52)"/><circle class="cls-1" cx="179.26" cy="105.93" r="12.8"/><circle class="cls-1" cx="179.26" cy="69.93" r="12.8"/><circle class="cls-1" cx="247.13" cy="13.31" r="12.8"/><circle class="cls-1" cx="283.13" cy="13.31" r="12.8"/><circle class="cls-1" cx="247.13" cy="163.35" r="12.8"/><circle class="cls-1" cx="283.13" cy="163.35" r="12.8"/><circle class="cls-1" cx="348.73" cy="105.93" r="12.8"/><circle class="cls-1" cx="348.73" cy="69.93" r="12.8"/><path class="cls-1" d="M178,317.13c0-28.7,21.14-48.3,48-48.3,16.52,0,28,8,35.42,18.48l-9.8,5.46A31.5,31.5,0,0,0,226,279.19c-20.44,0-36,15.68-36,37.94s15.54,37.94,36,37.94a31.14,31.14,0,0,0,25.62-13.58l9.94,5.46c-7.84,10.64-19,18.48-35.56,18.48C199.15,365.43,178,345.83,178,317.13Z" transform="translate(-142.38 -228.52)"/><path class="cls-1" d="M277.41,270.37h10.5v93.38h-10.5V270.37Z" transform="translate(-142.38 -228.52)"/><circle class="cls-1" cx="12.8" cy="105.43" r="12.8"/><circle class="cls-1" cx="12.8" cy="69.43" r="12.8"/><circle class="cls-1" cx="75.68" cy="12.8" r="12.8"/><circle class="cls-1" cx="111.68" cy="12.8" r="12.8"/><circle class="cls-1" cx="75.68" cy="162.84" r="12.8"/><circle class="cls-1" cx="111.68" cy="162.84" r="12.8"/><path class="cls-1" d="M519.18,317.75c0-28.7,21.14-48.3,48-48.3,16.52,0,28,8,35.42,18.48l-9.8,5.46a31.5,31.5,0,0,0-25.62-13.58c-20.44,0-36,15.68-36,37.94s15.54,37.94,36,37.94a31.14,31.14,0,0,0,25.62-13.58l9.94,5.46c-7.84,10.64-19,18.48-35.56,18.48C540.32,366.05,519.18,346.46,519.18,317.75Z" transform="translate(-142.38 -228.52)"/><path class="cls-1" d="M618.58,271h10.5v93.38h-10.5V271Z" transform="translate(-142.38 -228.52)"/><circle class="cls-1" cx="348.96" cy="106.05" r="12.8"/><circle class="cls-1" cx="348.96" cy="70.05" r="12.8"/><circle class="cls-1" cx="416.84" cy="13.43" r="12.8"/><circle class="cls-1" cx="452.84" cy="13.43" r="12.8"/><circle class="cls-1" cx="416.84" cy="163.47" r="12.8"/><circle class="cls-1" cx="452.84" cy="163.47" r="12.8"/><circle class="cls-1" cx="518.43" cy="106.05" r="12.8"/><circle class="cls-1" cx="518.43" cy="70.05" r="12.8"/><circle class="cls-1" cx="351.26" cy="257.06" r="12.8"/><circle class="cls-1" cx="351.26" cy="221.06" r="12.8"/><path class="cls-1" d="M350,468.26c0-28.7,21.14-48.3,48-48.3,16.52,0,28,8,35.42,18.48l-9.8,5.46A31.5,31.5,0,0,0,398,430.32c-20.44,0-36,15.68-36,37.94s15.54,37.94,36,37.94a31.14,31.14,0,0,0,25.62-13.58l9.94,5.46c-7.84,10.64-19,18.48-35.56,18.48C371.15,516.56,350,497,350,468.26Z" transform="translate(-142.38 -228.52)"/><path class="cls-1" d="M449.41,421.5h10.5v93.38h-10.5V421.5Z" transform="translate(-142.38 -228.52)"/><circle class="cls-1" cx="184.8" cy="256.56" r="12.8"/><circle class="cls-1" cx="184.8" cy="220.56" r="12.8"/><circle class="cls-1" cx="247.68" cy="313.97" r="12.8"/><circle class="cls-1" cx="283.68" cy="313.97" r="12.8"/></svg>