<svg id="Layer_1" data-name="Layer 1" xmlns="http://www.w3.org/2000/svg" width="368.29" height="160.55" viewBox="0 0 368.29 160.55"><defs><style>.cls-1{fill:#565656;}</style></defs><title>Oxygen</title><path class="cls-1" d="M386.64,259.53c27.58,0,46.34,20.72,46.34,48.3s-18.76,48.3-46.34,48.3-46.34-20.72-46.34-48.3S358.92,259.53,386.64,259.53Zm0,10.36c-21,0-34.3,16.1-34.3,37.94s13.3,37.94,34.3,37.94,34.3-16.24,34.3-37.94S407.5,269.89,386.64,269.89Z" transform="translate(-104.56 -227.11)"/><circle class="cls-1" cx="433.89" cy="374.85" r="12.8" transform="translate(-242.54 189.49) rotate(-45)"/><circle class="cls-1" cx="459.34" cy="349.4" r="12.8" transform="translate(-217.08 200.03) rotate(-45)"/><circle class="cls-1" cx="205.43" cy="98.12" r="12.8"/><circle class="cls-1" cx="205.43" cy="62.12" r="12.8"/><circle class="cls-1" cx="460.05" cy="266.69" r="12.8" transform="translate(-158.39 176.31) rotate(-45)"/><circle class="cls-1" cx="434.59" cy="241.23" r="12.8" transform="translate(-147.85 150.85) rotate(-45)"/><path class="cls-1" d="M189.31,260c27.58,0,46.34,20.72,46.34,48.3s-18.76,48.3-46.34,48.3S143,335.9,143,308.32,161.59,260,189.31,260Zm0,10.36c-21,0-34.3,16.1-34.3,37.94s13.3,37.94,34.3,37.94,34.3-16.24,34.3-37.94S210.17,270.38,189.31,270.38Z" transform="translate(-104.56 -227.11)"/><circle class="cls-1" cx="163.02" cy="98.59" r="12.8"/><circle class="cls-1" cx="163.02" cy="62.59" r="12.8"/><circle class="cls-1" cx="142.82" cy="374.54" r="12.8" transform="translate(-327.57 -16.42) rotate(-45)"/><circle class="cls-1" cx="117.36" cy="349.09" r="12.8" transform="translate(-317.03 -41.87) rotate(-45)"/><circle class="cls-1" cx="117.62" cy="265.36" r="12.8" transform="translate(-257.75 -66.21) rotate(-45)"/><circle class="cls-1" cx="143.08" cy="239.91" r="12.8" transform="translate(-232.29 -55.67) rotate(-45)"/></svg>