<svg id="Layer_1" data-name="Layer 1" xmlns="http://www.w3.org/2000/svg" width="537.56" height="248.06" viewBox="0 0 537.56 248.06"><defs><style>.cls-1{fill:#565656;}</style></defs><title>PotassiumSulfide</title><path class="cls-1" d="M181.64,188.77h26v7.7H189.76V302.59h17.92v7.7h-26V188.77Z" transform="translate(-181.3 -188.77)"/><path class="cls-1" d="M243.38,255.69L234,266.33v31.36H222.38V204.31H234v48.3l41.3-48.3h14.56l-38.92,44.38,42.28,49H278.8Z" transform="translate(-181.3 -188.77)"/><path class="cls-1" d="M299.38,302.59H317.3V196.47H299.38v-7.7h26V310.29h-26v-7.7Z" transform="translate(-181.3 -188.77)"/><path class="cls-1" d="M355.11,229.07h-4.65V211.68H334.79v-4.24h15.67v-16.9h4.65v16.9h15.67v4.24H355.11v17.38Z" transform="translate(-181.3 -188.77)"/><path class="cls-1" d="M181.3,315.31h26V323H189.42V429.13h17.92v7.7h-26V315.31Z" transform="translate(-181.3 -188.77)"/><path class="cls-1" d="M243,382.23l-9.38,10.64v31.36H222V330.85h11.62v48.3l41.3-48.3h14.56L250.6,375.23l42.28,49H278.46Z" transform="translate(-181.3 -188.77)"/><path class="cls-1" d="M299,429.13H317V323H299v-7.7h26V436.83H299v-7.7Z" transform="translate(-181.3 -188.77)"/><path class="cls-1" d="M354.77,355.61h-4.65V338.22H334.44V334h15.67v-16.9h4.65V334h15.67v4.24H354.77v17.38Z" transform="translate(-181.3 -188.77)"/><path class="cls-1" d="M428,257.73h26v7.7H436.17V371.55h17.92v7.7H428V257.73Z" transform="translate(-181.3 -188.77)"/><path class="cls-1" d="M507.56,344.67A39.47,39.47,0,0,0,537,358c16.66,0,22-9,22-16.1,0-11.2-11.34-14.28-23.66-17.64-15-3.92-31.64-8.12-31.64-26.46,0-15.4,13.72-25.9,32.06-25.9,14.28,0,25.34,4.76,33.18,13l-7,8.54c-7-7.7-16.8-11.2-27-11.2-11.2,0-19.18,6-19.18,14.84,0,9.38,10.78,12.18,22.68,15.4,15.26,4.06,32.62,8.82,32.62,28.42,0,13.58-9.24,27.44-34.44,27.44-16.24,0-28.14-6.16-35.84-14.84Z" transform="translate(-181.3 -188.77)"/><path class="cls-1" d="M618.72,371.55h17.92V265.43H618.72v-7.7h26V379.25h-26v-7.7Z" transform="translate(-181.3 -188.77)"/><path class="cls-1" d="M654.21,283.58H673.8V289H654.21v-5.39Z" transform="translate(-181.3 -188.77)"/><path class="cls-1" d="M681.47,300.64c19.59-15.43,30.2-24.49,30.2-33.87,0-6.94-5.71-10-11.34-10a18.2,18.2,0,0,0-14.77,6.86l-4.16-4.33c4.16-5.47,11.26-8.57,18.94-8.57,9.06,0,18.28,5.14,18.28,16,0,11.1-11.26,21.22-26.44,33.22h26.69v6H681.47v-5.39Z" transform="translate(-181.3 -188.77)"/><circle class="cls-1" cx="285.11" cy="148.01" r="12.8"/><circle class="cls-1" cx="285.11" cy="112.01" r="12.8"/><circle class="cls-1" cx="336.99" cy="60.39" r="12.8"/><circle class="cls-1" cx="372.99" cy="60.39" r="12.8"/><circle class="cls-1" cx="336.99" cy="200.43" r="12.8"/><circle class="cls-1" cx="372.99" cy="200.43" r="12.8"/><circle class="cls-1" cx="425.58" cy="148.01" r="12.8"/><circle class="cls-1" cx="425.58" cy="112.01" r="12.8"/></svg>