<svg id="Layer_1" data-name="Layer 1" xmlns="http://www.w3.org/2000/svg" width="517.78" height="165.64" viewBox="0 0 517.78 165.64"><defs><style>.cls-1{fill:#565656;}</style></defs><title>PotassiumChloride</title><path class="cls-1" d="M192,242.26h26V250H200.09V356.08H218v7.7H192V242.26Z" transform="translate(-191.97 -221.5)"/><path class="cls-1" d="M253.71,309.18l-9.38,10.64v31.36H232.71V257.8h11.62v48.3l41.3-48.3h14.56l-38.92,44.38,42.28,49H289.13Z" transform="translate(-191.97 -221.5)"/><path class="cls-1" d="M309.71,356.08h17.92V250H309.71v-7.7h26V363.78h-26v-7.7Z" transform="translate(-191.97 -221.5)"/><path class="cls-1" d="M365.44,282.56h-4.65V265.17H345.12v-4.24h15.67V244h4.65v16.9h15.67v4.24H365.44v17.38Z" transform="translate(-191.97 -221.5)"/><path class="cls-1" d="M418.5,242.88h26v7.7H426.62V356.7h17.92v7.7h-26V242.88Z" transform="translate(-191.97 -221.5)"/><path class="cls-1" d="M493,305.18c0-28.7,21.14-48.3,48-48.3,16.52,0,28,8,35.42,18.48l-9.8,5.46A31.5,31.5,0,0,0,541,267.24c-20.44,0-36,15.68-36,37.94s15.54,37.94,36,37.94a31.14,31.14,0,0,0,25.62-13.58l9.94,5.46c-7.84,10.64-19,18.48-35.56,18.48C514.12,353.48,493,333.88,493,305.18Z" transform="translate(-191.97 -221.5)"/><path class="cls-1" d="M592.38,258.42h10.5V351.8h-10.5V258.42Z" transform="translate(-191.97 -221.5)"/><path class="cls-1" d="M654.67,356.7h17.92V250.58H654.67v-7.7h26V364.4h-26v-7.7Z" transform="translate(-191.97 -221.5)"/><path class="cls-1" d="M690.16,268.73h19.59v5.39H690.16v-5.39Z" transform="translate(-191.97 -221.5)"/><circle class="cls-1" cx="275.11" cy="100.43" r="12.8"/><circle class="cls-1" cx="275.11" cy="64.43" r="12.8"/><circle class="cls-1" cx="336.99" cy="12.8" r="12.8"/><circle class="cls-1" cx="372.99" cy="12.8" r="12.8"/><circle class="cls-1" cx="336.99" cy="152.84" r="12.8"/><circle class="cls-1" cx="372.99" cy="152.84" r="12.8"/><circle class="cls-1" cx="440.58" cy="100.43" r="12.8"/><circle class="cls-1" cx="440.58" cy="64.43" r="12.8"/></svg>