<svg id="Layer_1" data-name="Layer 1" xmlns="http://www.w3.org/2000/svg" width="531.23" height="176.27" viewBox="0 0 531.23 176.27"><defs><style>.cls-1{fill:#565656;}</style></defs><title>SulfurDifluoride</title><path class="cls-1" d="M377.26,342.28a39.47,39.47,0,0,0,29.4,13.3c16.66,0,22-9,22-16.1,0-11.2-11.34-14.28-23.66-17.64-15-3.92-31.64-8.12-31.64-26.46,0-15.4,13.72-25.9,32.06-25.9,14.28,0,25.34,4.76,33.18,13l-7,8.54c-7-7.7-16.8-11.2-27-11.2-11.2,0-19.18,6-19.18,14.84,0,9.38,10.78,12.18,22.68,15.4,15.26,4.06,32.62,8.82,32.62,28.42,0,13.58-9.24,27.44-34.44,27.44-16.24,0-28.14-6.16-35.84-14.84Z" transform="translate(-142.38 -228.52)"/><circle class="cls-1" cx="179.26" cy="105.93" r="12.8"/><circle class="cls-1" cx="179.26" cy="69.93" r="12.8"/><circle class="cls-1" cx="247.13" cy="13.31" r="12.8"/><circle class="cls-1" cx="283.13" cy="13.31" r="12.8"/><circle class="cls-1" cx="247.13" cy="163.35" r="12.8"/><circle class="cls-1" cx="283.13" cy="163.35" r="12.8"/><circle class="cls-1" cx="348.73" cy="105.93" r="12.8"/><circle class="cls-1" cx="348.73" cy="69.93" r="12.8"/><path class="cls-1" d="M207.06,270.37h61.18v10.36H218.68v30.1h48.58v10.36H218.68v42.56H207.06V270.37Z" transform="translate(-142.38 -228.52)"/><circle class="cls-1" cx="12.8" cy="105.43" r="12.8"/><circle class="cls-1" cx="12.8" cy="69.43" r="12.8"/><circle class="cls-1" cx="75.68" cy="12.8" r="12.8"/><circle class="cls-1" cx="111.68" cy="12.8" r="12.8"/><circle class="cls-1" cx="75.68" cy="162.84" r="12.8"/><circle class="cls-1" cx="111.68" cy="162.84" r="12.8"/><path class="cls-1" d="M548.23,271h61.18v10.36H559.85v30.1h48.58v10.36H559.85v42.56H548.23V271Z" transform="translate(-142.38 -228.52)"/><circle class="cls-1" cx="348.96" cy="106.05" r="12.8"/><circle class="cls-1" cx="348.96" cy="70.05" r="12.8"/><circle class="cls-1" cx="416.84" cy="13.43" r="12.8"/><circle class="cls-1" cx="452.84" cy="13.43" r="12.8"/><circle class="cls-1" cx="416.84" cy="163.47" r="12.8"/><circle class="cls-1" cx="452.84" cy="163.47" r="12.8"/><circle class="cls-1" cx="518.43" cy="106.05" r="12.8"/><circle class="cls-1" cx="518.43" cy="70.05" r="12.8"/></svg>