<?xml version="1.0" encoding="utf-8"?>
<!-- Generator: Adobe Illustrator 16.0.0, SVG Export Plug-In . SVG Version: 6.00 Build 0)  -->
<!DOCTYPE svg PUBLIC "-//W3C//DTD SVG 1.1//EN" "http://www.w3.org/Graphics/SVG/1.1/DTD/svg11.dtd">
<svg version="1.1" id="Layer_1" xmlns="http://www.w3.org/2000/svg" xmlns:xlink="http://www.w3.org/1999/xlink" x="0px" y="0px"
	 width="700px" height="700px" viewBox="0 0 700 700" enable-background="new 0 0 700 700" xml:space="preserve">


<g id="Layer_45">
	<g>
		<g>
			
				<linearGradient id="SVGID_81_" gradientUnits="userSpaceOnUse" x1="694.9951" y1="-257.6875" x2="694.7577" y2="-230.8124" gradientTransform="matrix(1 0 0 -1 -292.9805 339.1201)">
				<stop  offset="0" style="stop-color:#201C1B"/>
				<stop  offset="0.3294" style="stop-color:#2A2621"/>
				<stop  offset="0.5098" style="stop-color:#5D5040"/>
				<stop  offset="0.651" style="stop-color:#796D5A"/>
				<stop  offset="0.7294" style="stop-color:#2F2A24"/>
				<stop  offset="0.8471" style="stop-color:#FFFCF8"/>
				<stop  offset="0.9294" style="stop-color:#BCB6A1"/>
				<stop  offset="0.9647" style="stop-color:#8C775C"/>
				<stop  offset="1" style="stop-color:#94825A"/>
			</linearGradient>
			<path fill="url(#SVGID_81_)" d="M404,589h-5.1c0.1-1.9,0.3-3.9,0.4-5.9c0.2-4.1,0.3-8.1,0.4-12h4.7c0.3,2.4,0.5,5.1,0.5,8
				c0,2.5-0.1,4.9-0.4,7C404.3,587.1,404.1,588.1,404,589z"/>
		</g>
		<g>
			<g>
				
					<linearGradient id="SVGID_82_" gradientUnits="userSpaceOnUse" x1="618.3809" y1="-201.0293" x2="618.3809" y2="-274.0303" gradientTransform="matrix(1 0 0 -1 -292.9805 339.1201)">
					<stop  offset="0" style="stop-color:#040404"/>
					<stop  offset="9.411765e-002" style="stop-color:#000000"/>
					<stop  offset="0.1608" style="stop-color:#262626"/>
					<stop  offset="0.2078" style="stop-color:#737373"/>
					<stop  offset="0.2588" style="stop-color:#010101"/>
					<stop  offset="1" style="stop-color:#000000"/>
				</linearGradient>
				<path fill="url(#SVGID_82_)" d="M372.8,539.7l1.2,18.1v56h-90.4c-4.5-0.5-6.8-2.8-6.8-6.8v-49.3c0-1.5,0.3-2.8,0.8-3.8
					c0-0.1,0.1-0.2,0.1-0.3l3-10.3c0.7-2.5,3.2-3.7,7.4-3.6h-0.2c0.4-0.1,0.9-0.1,1.3,0H372.8L372.8,539.7z"/>
				
					<linearGradient id="SVGID_83_" gradientUnits="userSpaceOnUse" x1="679.1309" y1="-200.5601" x2="679.1309" y2="-274.6797" gradientTransform="matrix(1 0 0 -1 -292.9805 339.1201)">
					<stop  offset="0" style="stop-color:#824C26"/>
					<stop  offset="0.1725" style="stop-color:#C87839"/>
					<stop  offset="0.2196" style="stop-color:#DEAE8F"/>
					<stop  offset="0.2667" style="stop-color:#B16634"/>
					<stop  offset="0.4078" style="stop-color:#BF7138"/>
					<stop  offset="1" style="stop-color:#422513"/>
				</linearGradient>
				<path fill="url(#SVGID_83_)" d="M372.8,539.7h17c4.2-0.2,6.9,1.1,7.9,3.9l1.7,12.2c0,0.2,0.1,0.4,0.1,0.7c0,0.4,0,0.8,0,1.2V607
					c0,3-1.3,5-4,6c-1,0.4-2.1,0.6-3.3,0.8h-12.9H374v-56L372.8,539.7z"/>
			</g>
		</g>
		<g>
			<path fill="#FFFFFF" d="M302.6,572.2v8.8h4.9v1.2h-6.3v-10H302.6z M295.2,573.3l-1.8,4.9h3.6L295.2,573.3z M296.1,572.2l3.6,10
				h-1.4l-1-2.8H293l-1,2.8h-1.3l3.6-10H296.1z M296.9,592.2v3h1.7c0.4,0,0.8,0,1-0.1c0.3-0.1,0.5-0.2,0.7-0.3
				c0.2-0.1,0.3-0.3,0.4-0.5c0.1-0.3,0.2-0.5,0.2-0.8c0-0.2,0-0.4-0.1-0.6c-0.1-0.2-0.2-0.3-0.4-0.5c-0.2-0.1-0.5-0.2-0.8-0.2
				c-0.3-0.1-0.7-0.1-1.1-0.1L296.9,592.2L296.9,592.2z M298.5,591c0.7,0,1.3,0,1.6,0.2c0.4,0,0.7,0.1,1.1,0.3
				c0.4,0.2,0.6,0.4,0.8,0.7c0.1,0.3,0.2,0.7,0.2,1.1c0,0.5-0.1,0.9-0.4,1.3c-0.2,0.3-0.6,0.5-1,0.8v0.1c0.7,0.1,1.2,0.4,1.6,0.9
				c0.3,0.4,0.5,1,0.5,1.7c0,0.5-0.1,1-0.2,1.3c-0.2,0.3-0.5,0.7-0.8,1c-0.4,0.3-0.8,0.5-1.2,0.6c-0.5,0.1-1.1,0.2-1.8,0.2h-3.6v-10
				h3.2V591L298.5,591z M321.8,573.3l-1.8,4.9h3.5L321.8,573.3z M316.8,572.2l-4.5,4.7l4.7,5.3h-1.8l-4-4.5l-1,1v3.4H309v-10h1.3
				v5.2l4.9-5.2h1.6V572.2z M319.6,579.4l-1,2.8h-1.3l3.7-10h1.8l3.6,10H325l-1-2.8H319.6z M312.3,591h16.5v1.3h-3.6v8.8h-1.3v-8.8
				h-6.6v8.8H316v-8.8h-3.6V591H312.3z M309.2,591l3.6,10h-1.4l-1-2.8H306l-1,2.8h-1.4l3.7-10H309.2z M310,597.2l-1.8-5l-1.8,5H310z
				 M300.1,596.3c-0.3,0-0.7,0-1.1,0h-2.1v3.7h1.8c0.6,0,1.1,0,1.5-0.1c0.4-0.1,0.7-0.2,0.9-0.3c0.2-0.1,0.4-0.4,0.5-0.6
				c0.1-0.2,0.2-0.5,0.2-0.9c0-0.4-0.1-0.7-0.2-1c-0.1-0.2-0.3-0.4-0.6-0.6C300.6,596.4,300.4,596.3,300.1,596.3z M343.4,572.2
				l4.3,8.2v-8.2h1.3v10h-1.7l-4.8-9v9h-1.3v-10H343.4z M335.1,572.2h3.9v1h-1.3v8h1.3v1h-3.9v-1h1.3v-8h-1.3V572.2z M329.2,572.2
				v8.8h4.9v1.2h-6.3v-10H329.2z M336.6,592.3h-5.3v2.7h5.3v1.2h-5.3v3.8h5.3v1.1H330v-10h6.6V592.3z M341.6,592.2H340v3.8h1.4
				c0.4,0,0.8,0,1.1-0.2c0.3,0,0.6-0.1,0.8-0.3s0.4-0.4,0.5-0.7c0.1-0.3,0.1-0.6,0.1-0.9c0-0.3,0-0.5-0.1-0.8
				c-0.1-0.2-0.3-0.4-0.5-0.6c-0.2-0.1-0.4-0.2-0.7-0.3C342.3,592.2,342,592.2,341.6,592.2z M344.1,591.6c0.3,0.3,0.6,0.6,0.9,0.9
				c0.2,0.4,0.3,0.8,0.3,1.3c0,0.7-0.2,1.3-0.5,1.8c-0.4,0.5-0.9,0.9-1.5,1.1l3.8,4.4h-1.7l-3.3-3.9H340v3.9h-1.3v-10h2.8
				c0.6,0,1.1,0,1.5,0.2C343.5,591.3,343.8,591.4,344.1,591.6z M358.2,573.4h-5.3v2.8h5.3v1.1h-5.3v3.8h5.3v1.2h-6.6v-10h6.6V573.4z
				 M348.3,591l2.8,4.5l2.8-4.5h1.5l-3.5,5.7v4.4h-1.3v-4.3L347,591H348.3L348.3,591z"/>
		</g>
	</g>
</g>
</svg>