<?xml version="1.0" encoding="utf-8"?>
<!-- Generator: Adobe Illustrator 16.0.0, SVG Export Plug-In . SVG Version: 6.00 Build 0)  -->
<!DOCTYPE svg PUBLIC "-//W3C//DTD SVG 1.1//EN" "http://www.w3.org/Graphics/SVG/1.1/DTD/svg11.dtd">
<svg version="1.1" id="Layer_1" xmlns="http://www.w3.org/2000/svg" xmlns:xlink="http://www.w3.org/1999/xlink" x="0px" y="0px"
	 width="700px" height="700px" viewBox="0 0 700 700" enable-background="new 0 0 700 700" xml:space="preserve">


<g id="Layer_52">
	<g>
		<g>
			<g>
				<polygon fill="#2E2818" points="459.2,612.5 450.7,599.2 450.7,586 456.4,586 459.1,608.5 				"/>
				
					<linearGradient id="SVGID_46_" gradientUnits="userSpaceOnUse" x1="753.4258" y1="-253.0503" x2="754.1542" y2="-276.9752" gradientTransform="matrix(1 0 0 -1 -292.9805 339.1201)">
					<stop  offset="0" style="stop-color:#231D0F"/>
					<stop  offset="0.4902" style="stop-color:#403931"/>
					<stop  offset="0.6157" style="stop-color:#201D16"/>
					<stop  offset="0.7569" style="stop-color:#423B29"/>
				</linearGradient>
				<path fill="url(#SVGID_46_)" d="M464.7,612.5h-5.5l-0.1-4l-2.7-22.5h6.1c0.2,2.4,0.5,5.3,0.8,8.8c0.1,1.6,0.2,3.2,0.4,5h-0.1
					l1.2,8.8L464.7,612.5z M459.1,612.4l0.1,0.1L459.1,612.4L459.1,612.4z"/>
				<polygon fill="#3C3522" points="459.1,612.4 443.4,605.3 441.5,599 450.6,599 450.7,599.2 459.2,612.5 				"/>
				<path fill="#58513C" d="M441.5,599l1.9,6.3l15.7,7.1v0.1c0,0.8,0,1.5,0.1,2.3l-8.5-3.8l-6.2-3.3l-1.3-0.7l-1.4-3.8L441.5,599z"
					/>
				<path fill="#4F4731" d="M459.2,614.8c0-0.7-0.1-1.5-0.1-2.3h0.1h5.5v2.3H459.2z"/>
			</g>
		</g>
		<g>
			<g>
				
					<linearGradient id="SVGID_47_" gradientUnits="userSpaceOnUse" x1="951.6475" y1="-179.7334" x2="951.7814" y2="-192.3334" gradientTransform="matrix(1 0 0 -1 -292.9805 339.1201)">
					<stop  offset="0" style="stop-color:#2A261B"/>
					<stop  offset="0.1176" style="stop-color:#9C958D"/>
					<stop  offset="1" style="stop-color:#2E281C"/>
				</linearGradient>
				<path fill="url(#SVGID_47_)" d="M657.2,532.8l0.4-11.3c0-0.7-0.1-1.3-0.1-1.9h2c0.4,0.6,0.7,1.7,0.8,3.3c0.1,1.7,0,4.1-0.3,7.1
					c-0.1,1.5-0.2,2.5-0.5,2.8H657.2L657.2,532.8z"/>
				
					<linearGradient id="SVGID_48_" gradientUnits="userSpaceOnUse" x1="946.1465" y1="-176.4175" x2="946.0831" y2="-192.7424" gradientTransform="matrix(1 0 0 -1 -292.9805 339.1201)">
					<stop  offset="0" style="stop-color:#2A261B"/>
					<stop  offset="0.1176" style="stop-color:#9C958D"/>
					<stop  offset="1" style="stop-color:#2E281C"/>
				</linearGradient>
				<path fill="url(#SVGID_48_)" d="M657.4,519.6c0.1,0.6,0.1,1.2,0.1,1.9l-0.4,11.3l-0.3,9.5l-1.1,0.1h-5.3v-3.5v-6.1v-9.5
					c-0.1-2.2-0.6-4-1.6-5.6l0,0c0-1.3,0.7-1.9,2.1-1.8h3.3C655.9,515.9,657,517.2,657.4,519.6z"/>
				
					<linearGradient id="SVGID_49_" gradientUnits="userSpaceOnUse" x1="940.5801" y1="-178.5801" x2="940.5801" y2="-192.8799" gradientTransform="matrix(1 0 0 -1 -292.9805 339.1201)">
					<stop  offset="0" style="stop-color:#2A261B"/>
					<stop  offset="0.1176" style="stop-color:#9C958D"/>
					<stop  offset="1" style="stop-color:#2E281C"/>
				</linearGradient>
				<path fill="url(#SVGID_49_)" d="M646.3,523.1c-0.1-3.8-0.6-5.5-1.5-5.1c0.1-0.2,0.3-0.3,0.3-0.3c0.1,0,0.2-0.1,0.3-0.1h3.4l0,0
					c1,1.5,1.5,3.4,1.6,5.6v9.5c-0.2,1.2-0.7,1.7-1.4,1.5h-2.5h-1.7c0.4-0.2,0.8-1.5,1.1-4c0-0.1,0-0.2,0-0.4
					c0.1-1.1,0.2-2.4,0.3-3.9C646.3,524.9,646.3,524,646.3,523.1z"/>
				
					<linearGradient id="SVGID_50_" gradientUnits="userSpaceOnUse" x1="954.9795" y1="-182.6069" x2="954.8572" y2="-191.3558" gradientTransform="matrix(1 0 0 -1 -292.9805 339.1201)">
					<stop  offset="0" style="stop-color:#C19D8F"/>
					<stop  offset="0.1608" style="stop-color:#593E37"/>
					<stop  offset="0.698" style="stop-color:#211714"/>
					<stop  offset="0.8353" style="stop-color:#533928"/>
					<stop  offset="1" style="stop-color:#000000"/>
				</linearGradient>
				<path fill="url(#SVGID_50_)" d="M660,529.9c0.2-3,0.3-5.4,0.3-7.1c0.1-1,0.5-1.4,1-1.1c0.2-0.4,0.5-0.6,0.9-0.5
					c0.3-0.4,0.6-0.6,1-0.5l0.1,0.1c0.7,3.2,0.7,6.7,0,10.5c0,0.1,0,0.2,0,0.3c-0.4,0.2-0.8,0.1-1.1-0.5c-0.6,0.1-0.9,0-1.1-0.5
					C660.4,530.6,660,530.4,660,529.9z"/>
				
					<linearGradient id="SVGID_51_" gradientUnits="userSpaceOnUse" x1="405.5811" y1="-196.6299" x2="1003.381" y2="-196.6299" gradientTransform="matrix(1 0 0 -1 -292.9805 339.1201)">
					<stop  offset="0" style="stop-color:#2A261B"/>
					<stop  offset="0.1176" style="stop-color:#9C958D"/>
					<stop  offset="1" style="stop-color:#2E281C"/>
				</linearGradient>
				<path fill="url(#SVGID_51_)" d="M650.4,538.8h-3.8l-0.1-4.6h2.5c0.7,0.1,1.1-0.4,1.4-1.5V538.8L650.4,538.8z"/>
				
					<linearGradient id="SVGID_52_" gradientUnits="userSpaceOnUse" x1="942.0107" y1="-201.0796" x2="942.6772" y2="-246.1806" gradientTransform="matrix(1 0 0 -1 -292.9805 339.1201)">
					<stop  offset="0" style="stop-color:#443B34"/>
					<stop  offset="8.627451e-002" style="stop-color:#726A67"/>
					<stop  offset="0.1882" style="stop-color:#5E5653"/>
					<stop  offset="0.2824" style="stop-color:#362F29"/>
					<stop  offset="0.5216" style="stop-color:#372F29"/>
					<stop  offset="0.6118" style="stop-color:#4A3F29"/>
					<stop  offset="0.7608" style="stop-color:#4A3F29"/>
					<stop  offset="1" style="stop-color:#000000"/>
				</linearGradient>
				<path fill="url(#SVGID_52_)" d="M646.7,538.8h3.8v3.5h5.3c0.1,0.1,0.2,0.3,0.3,0.4c0.9,1.3,1.5,3.3,1.9,5.8h-0.1
					c0.5,3.8,0.8,7.8,0.7,12.2c0,1.4-0.1,2.9-0.2,4.3c0,0.8-0.1,1.5-0.1,2.2c-0.1,0.6-0.1,1.2-0.1,1.8c-0.1,1.3-0.2,2.5-0.4,3.6
					c-0.4,4.8-1,8.4-1.8,10.8c-0.3,0.9-0.6,1.6-0.9,2.2c-0.3,0.4-0.5,0.8-0.8,1c0,0.1-0.1,0.1-0.2,0.2h-5.4h-6.2h-2.1
					c0.6-0.2,1.1-1.3,1.6-3.3c0.1-0.5,0.3-1.1,0.4-1.8c0.4-2.3,0.8-5.3,1.1-9c0.1-0.8,0.1-1.7,0.2-2.6c0-0.4,0-0.7,0.1-1
					c0.1-1.3,0.2-2.7,0.3-4.2c0-1.3,0-2.5,0-3.8c-0.1-1.9-0.1-3.7-0.1-5.3c-0.3-7.7-1-12.9-2-15.4c-0.2-0.6-0.5-1-0.8-1.3
					c0.1,0.1,0.2,0.1,0.3,0.2l-0.4-0.3L646.7,538.8z"/>
				
					<linearGradient id="SVGID_53_" gradientUnits="userSpaceOnUse" x1="953.1836" y1="-230.7549" x2="953.0962" y2="-221.1047" gradientTransform="matrix(1 0 0 -1 -292.9805 339.1201)">
					<stop  offset="0" style="stop-color:#201C1B"/>
					<stop  offset="0.3294" style="stop-color:#2A2621"/>
					<stop  offset="0.5098" style="stop-color:#5D5040"/>
					<stop  offset="0.651" style="stop-color:#796D5A"/>
					<stop  offset="0.7294" style="stop-color:#2F2A24"/>
					<stop  offset="0.8471" style="stop-color:#FFFCF8"/>
					<stop  offset="0.9294" style="stop-color:#BCB6A1"/>
					<stop  offset="0.9647" style="stop-color:#8C775C"/>
					<stop  offset="1" style="stop-color:#94825A"/>
				</linearGradient>
				<path fill="url(#SVGID_53_)" d="M658.3,567.2c0-0.7,0.1-1.4,0.1-2.2c0.1-1.4,0.2-2.9,0.2-4.3h2c1.9,1.9,1.9,4.1,0,6.5H658.3z"/>
				
					<linearGradient id="SVGID_54_" gradientUnits="userSpaceOnUse" x1="945.833" y1="-254.0508" x2="946.5614" y2="-277.9756" gradientTransform="matrix(1 0 0 -1 -292.9805 339.1201)">
					<stop  offset="0" style="stop-color:#231D0F"/>
					<stop  offset="0.4902" style="stop-color:#403931"/>
					<stop  offset="0.6157" style="stop-color:#201D16"/>
					<stop  offset="0.7569" style="stop-color:#423B29"/>
				</linearGradient>
				<path fill="url(#SVGID_54_)" d="M651.5,613.9v-4.6l-2.7-22.6h5.4c0.1,0,0.2-0.1,0.2-0.2l1.7,14l1.1,8.9l-0.1,4.4v0.1H651.5
					L651.5,613.9z"/>
				<polygon fill="#4F4731" points="651.5,613.9 657.1,613.9 657,616.2 651.5,616.1 				"/>
				<path fill="#2E2818" d="M642.5,586.8h6.2l2.7,22.6v4.6v2.2l-9.8-17.3C642,595.7,642.3,591.7,642.5,586.8z"/>
				<polygon fill="#58513C" points="657.3,613.7 668,607 668.2,607 668.2,608.6 657.1,616.2 657,616.2 657.1,613.9 				"/>
				<polygon fill="#7F6F4D" points="657.3,613.7 657.1,613.9 657.1,613.8 				"/>
				<path fill="#3C3522" d="M668,607l-10.7,6.7l-0.2,0.1l0.1-4.4l-1.1-8.9h8.3c1,1.7,2.3,3.9,3.9,6.4L668,607z"/>
				<polygon fill="#3A321D" points="668,607 668.2,607 668.2,607 				"/>
				
					<linearGradient id="SVGID_55_" gradientUnits="userSpaceOnUse" x1="771.2002" y1="-244.3672" x2="770.2536" y2="-202.3672" gradientTransform="matrix(1 0 0 -1 -292.9805 339.1201)">
					<stop  offset="0" style="stop-color:#554426"/>
					<stop  offset="0.1176" style="stop-color:#87764B"/>
					<stop  offset="0.1569" style="stop-color:#B09963"/>
					<stop  offset="0.3333" style="stop-color:#A89461"/>
					<stop  offset="0.3608" style="stop-color:#201C1B"/>
					<stop  offset="0.4314" style="stop-color:#2A2621"/>
					<stop  offset="0.5098" style="stop-color:#5D5040"/>
					<stop  offset="0.6118" style="stop-color:#786B5B"/>
					<stop  offset="0.7137" style="stop-color:#796F5A"/>
					<stop  offset="0.7686" style="stop-color:#796D5A"/>
					<stop  offset="0.7922" style="stop-color:#2F2A24"/>
					<stop  offset="0.8471" style="stop-color:#FFFCF8"/>
					<stop  offset="0.9294" style="stop-color:#BCB6A1"/>
					<stop  offset="0.9647" style="stop-color:#8C775C"/>
					<stop  offset="1" style="stop-color:#94825A"/>
				</linearGradient>
				<path fill="url(#SVGID_55_)" d="M470,583.5c0.8-0.1,1.5-2.2,2-6.1c0.5-4.1,0.8-9.1,0.8-15c0-1,0-2,0-3c-0.1-4.6-0.3-8.5-0.8-12
					c0-0.3-0.1-0.7-0.2-1c-0.5-3.2-1.1-4.9-1.8-5.1l-0.2,0.1v-0.1c0.1,0,0.2,0,0.2,0h14.3v0.1c0.3,2,0.6,4.1,0.8,6.3
					c0.2,2.1,0.4,4.4,0.6,6.9c0.2,3.8,0.3,8.1,0.3,12.8c0,3.6-0.1,7.3-0.2,11.3c-0.1,1.3-0.2,2.7-0.3,4l0.7-0.2l0,0l-0.5,0.3
					c0,0.2,0,0.3,0,0.4c0,0.1,0,0.2,0,0.2L470,583.5L470,583.5z M472.9,559.5h-0.7l0,0H472.9z"/>
				
					<linearGradient id="SVGID_56_" gradientUnits="userSpaceOnUse" x1="846.7744" y1="-201.3164" x2="846.8004" y2="-246.1413" gradientTransform="matrix(1 0 0 -1 -292.9805 339.1201)">
					<stop  offset="0" style="stop-color:#5E5A3D"/>
					<stop  offset="0.1608" style="stop-color:#90876A"/>
					<stop  offset="0.298" style="stop-color:#7B6A5A"/>
					<stop  offset="0.4863" style="stop-color:#2D2010"/>
					<stop  offset="0.6588" style="stop-color:#3A3412"/>
					<stop  offset="0.7686" style="stop-color:#4D482B"/>
					<stop  offset="0.9882" style="stop-color:#393615"/>
				</linearGradient>
				<path fill="url(#SVGID_56_)" d="M486.2,582.7l-0.7,0.2c0.1-1.4,0.2-2.7,0.3-4c0.1-4,0.2-7.8,0.2-11.3c0-4.7-0.1-8.9-0.3-12.8
					c-0.1-2.4-0.3-4.7-0.6-6.9c-0.2-2.3-0.4-4.4-0.8-6.3v-0.1c0-0.1,0-0.3,0-0.4H621c0.1,0.4,0.2,0.8,0.3,1.2c0,0.1,0.1,0.3,0.1,0.5
					c0.6,2.4,1,5.1,1.4,8.1c0.1,1.5,0.3,3.2,0.3,4.9c0.1,1.7,0.2,3.5,0.2,5.4c0,0.7,0,1.4,0,2.1v0.6c0,0.1,0,0.2,0,0.3
					c0,0.1,0,0.1,0,0.2c0,0.2,0,0.4,0,0.5l-0.2,4.5c0,0.2,0,0.3,0,0.5c-0.2,6-0.5,10.5-1,13.6c-0.1,0.3-0.1,0.6-0.2,0.8
					c0,0.1,0,0.2,0,0.4H485.5c0-0.3,0-0.7,0.1-1.1c0,0,0-0.1,0-0.2c0-0.1,0-0.2,0-0.4L486.2,582.7l0.1-0.1L486.2,582.7z"/>
				
					<linearGradient id="SVGID_57_" gradientUnits="userSpaceOnUse" x1="924.7305" y1="-248.2676" x2="924.7305" y2="-200.3926" gradientTransform="matrix(1 0 0 -1 -292.9805 339.1201)">
					<stop  offset="0" style="stop-color:#554426"/>
					<stop  offset="0.1176" style="stop-color:#87764B"/>
					<stop  offset="0.1569" style="stop-color:#B09963"/>
					<stop  offset="0.3333" style="stop-color:#A89461"/>
					<stop  offset="0.3608" style="stop-color:#201C1B"/>
					<stop  offset="0.4314" style="stop-color:#2A2621"/>
					<stop  offset="0.5098" style="stop-color:#5D5040"/>
					<stop  offset="0.6118" style="stop-color:#786B5B"/>
					<stop  offset="0.7137" style="stop-color:#796F5A"/>
					<stop  offset="0.7686" style="stop-color:#796D5A"/>
					<stop  offset="0.8471" style="stop-color:#FFFCF8"/>
					<stop  offset="0.9294" style="stop-color:#BCB6A1"/>
					<stop  offset="0.9647" style="stop-color:#8C775C"/>
					<stop  offset="1" style="stop-color:#94825A"/>
				</linearGradient>
				<path fill="url(#SVGID_57_)" d="M638.7,585.3h0.9c0.6,0,1.3-0.7,2-1.9c0.2-0.5,0.5-1.1,0.8-1.8c-0.1,0.7-0.3,1.3-0.4,1.8
					c-0.5,2-1,3.1-1.6,3.3c-0.1,0-0.2,0.1-0.2,0.2C639.7,586.9,639.2,586.4,638.7,585.3z M632.8,543.3c0.6,1.8,1.1,3.9,1.4,6.3
					c0.6,4.2,0.8,9.4,0.6,15.6c0,1.3-0.1,2.6-0.2,3.8c-0.3,4-0.7,7.3-1.3,9.8c-0.5,1.9-1,3.4-1.6,4.5c0,0,0,0.1,0,0.2H622
					c0.4-3.1,0.7-7.5,0.9-13.4c0-0.1,0-0.2,0-0.3c0-0.2,0-0.4,0-0.5l0.2-4.5c0-0.2,0-0.4,0-0.5c0,0,0-0.1,0-0.2c0-0.1,0-0.2,0-0.3
					v-0.6c0-0.7,0-1.4,0-2.1c0-1.9,0-3.7-0.2-5.4c-0.1-1.7-0.2-3.4-0.3-4.9c-0.3-3-0.8-5.7-1.4-8.1c0-0.2-0.1-0.4-0.1-0.5h11
					C632.5,542.5,632.6,542.9,632.8,543.3z"/>
				<polygon fill="#AC9A6C" points="643.5,522 643.7,522 645.3,523.1 643.7,523.1 635.8,523.1 606.8,523 581,523 576.3,523 
					477.2,523 459.7,523 459.7,522 477.2,522 576.3,522 581,522 606.8,522 635.8,522 				"/>
				
					<linearGradient id="SVGID_58_" gradientUnits="userSpaceOnUse" x1="405.5811" y1="-186.9512" x2="1003.381" y2="-186.9512" gradientTransform="matrix(1 0 0 -1 -292.9805 339.1201)">
					<stop  offset="0" style="stop-color:#7E5235"/>
					<stop  offset="1" style="stop-color:#624A2E"/>
				</linearGradient>
				<path fill="url(#SVGID_58_)" d="M646,529.8c0,0.2,0,0.3,0,0.4c-0.3,2.5-0.6,3.8-1.1,4c-0.9-0.1-1.4-1.6-1.5-4.4H646z M644.8,518
					c0.9-0.4,1.4,1.3,1.5,5.1h-0.9l-1.6-1.1h-0.2C643.7,519.8,644.1,518.5,644.8,518z"/>
				<path fill="#21170B" d="M646,529.8h-2.6H459.7V523h17.5h99.1h4.7h25.8h29h7.9h1.6h0.9c0,0.9,0,1.8,0,2.8
					C646.2,527.4,646.1,528.7,646,529.8z"/>
				
					<linearGradient id="SVGID_59_" gradientUnits="userSpaceOnUse" x1="928.9727" y1="-204.0962" x2="930.046" y2="-244.0962" gradientTransform="matrix(1 0 0 -1 -292.9805 339.1201)">
					<stop  offset="0" style="stop-color:#AA9A83"/>
					<stop  offset="7.058824e-002" style="stop-color:#DAD1C0"/>
					<stop  offset="0.1294" style="stop-color:#DDD1C3"/>
					<stop  offset="0.1647" style="stop-color:#B9AD9E"/>
					<stop  offset="0.3216" style="stop-color:#A2937E"/>
					<stop  offset="0.6118" style="stop-color:#8D7A59"/>
					<stop  offset="1" style="stop-color:#7D6B43"/>
				</linearGradient>
				<path fill="url(#SVGID_59_)" d="M631.8,583.3c0.6-1.1,1.1-2.6,1.6-4.5c0.6-2.6,1-5.9,1.3-9.8c0.1-1.2,0.2-2.4,0.2-3.8
					c0.2-6.2,0-11.4-0.6-15.6c-0.3-2.4-0.8-4.5-1.4-6.3h0.2h3.8h2c1.5,1.5,2.4,5.7,2.7,12.6c0,1.6,0,3.3,0,5.2c-0.1,3-0.2,5.6-0.4,8
					c0,0.3,0,0.5,0,0.8c-0.1,1-0.2,1.9-0.3,2.8c-0.7,6-1.6,9.6-2.8,10.7H637h-5L631.8,583.3z"/>
				
					<linearGradient id="SVGID_60_" gradientUnits="userSpaceOnUse" x1="405.5811" y1="-222.9346" x2="1003.381" y2="-222.9346" gradientTransform="matrix(1 0 0 -1 -292.9805 339.1201)">
					<stop  offset="0" style="stop-color:#605340"/>
					<stop  offset="0.1176" style="stop-color:#5B5145"/>
					<stop  offset="0.7608" style="stop-color:#7B7263"/>
					<stop  offset="1" style="stop-color:#A88E6B"/>
				</linearGradient>
				<path fill="url(#SVGID_60_)" d="M642.4,581.6c-0.3,0.7-0.6,1.3-0.8,1.8c-0.7,1.2-1.4,1.9-2,1.9h-0.9H638
					c-0.8-0.2-1.1-0.8-1.1-1.9v-0.1h1.1c1.2-1.1,2.1-4.7,2.8-10.7c0.1-0.9,0.2-1.8,0.3-2.8c0-0.3,0-0.6,0-0.8c0.2-2.3,0.3-5,0.4-8
					c0-1.9,0-3.6,0-5.2c-0.2-6.9-1.1-11.1-2.7-12.6h-2c0.7-2,1.5-2.6,2.3-1.7c0-0.5,0.1-0.9,0.2-1.2c0.4-1.3,1-1.8,1.9-1.3
					c0.3,0.3,0.6,0.8,0.8,1.3c1,2.5,1.7,7.6,2,15.4c0,1.6,0.1,3.4,0.1,5.3c0,1.2,0,2.5,0,3.8c-0.1,1.5-0.2,2.9-0.3,4.2
					c-0.1,0.3-0.1,0.7-0.1,1c0,0.9-0.1,1.8-0.2,2.6C643.2,576.3,642.8,579.3,642.4,581.6z"/>
				<path fill="#9D958A" d="M606.8,521.3L606.8,521.3c0,0.1,0,0.2,0,0.3C606.8,521.6,606.8,521.5,606.8,521.3z"/>
				<path fill="#40382E" d="M470.1,541.4c0.7,0.2,1.3,1.9,1.8,5.1c0.1,0.3,0.2,0.7,0.2,1c0.5,3.4,0.7,7.4,0.8,12c0,1,0,2,0,3
					c0,5.8-0.3,10.8-0.8,15c-0.6,4-1.3,6-2,6.1c-0.1,0-0.1,0-0.1,0c-0.1,0-0.2,0-0.3-0.1c-0.1,0-0.2-0.1-0.3-0.2
					c-0.6-0.7-1.1-2.7-1.5-5.8c-0.6-4.1-0.8-9.1-0.8-15c0-5.8,0.3-10.8,0.8-14.9C468.5,543.5,469.2,541.5,470.1,541.4l-0.1,0.2
					L470.1,541.4z M472.9,559.5h-0.7l0,0H472.9z"/>
				<polygon fill="#44361B" points="641.9,600.3 642,600.4 642,600.5 				"/>
			</g>
		</g>
		<g>
			<g>
				<rect x="472.6" y="583.2" fill="#503506" width="13" height="17.3"/>
			</g>
			<g>
				<g>
					
						<linearGradient id="SVGID_61_" gradientUnits="userSpaceOnUse" x1="556.0068" y1="-303.1855" x2="569.6692" y2="-303.1855" gradientTransform="matrix(0.9717 -0.2361 -0.2685 -0.9638 -132.3932 425.7907)">
						<stop  offset="0" style="stop-color:#070604"/>
						<stop  offset="0.4627" style="stop-color:#1A1112"/>
						<stop  offset="1" style="stop-color:#030202"/>
					</linearGradient>
					<path fill="url(#SVGID_61_)" d="M485.1,591.3c-0.3-0.6-0.7-1.1-1.1-1.5c-1.1-1.1-2.5-1.6-4.3-1.6c-1.7,0-3.2,0.5-4.4,1.6
						c-1,1.2-1.5,2.7-1.5,4.3c0,0.1,0,0.2,0,0.3c0-0.1,0-0.2,0-0.3l-0.5-4c0.2-1.2,0.7-2.2,1.5-3.1c1.2-1,2.7-1.5,4.4-1.5
						s3.1,0.5,4.3,1.5c0.3,0.3,0.5,0.6,0.7,1L485.1,591.3z"/>
					
						<linearGradient id="SVGID_62_" gradientUnits="userSpaceOnUse" x1="39.9722" y1="-235.7852" x2="59.2138" y2="-235.7852" gradientTransform="matrix(0.686 -0.7276 -0.7746 -0.6361 275.2086 467.3045)">
						<stop  offset="0" style="stop-color:#201A14"/>
						<stop  offset="1" style="stop-color:#756448"/>
					</linearGradient>
					<path fill="url(#SVGID_62_)" d="M485.1,591.3C485.1,591.3,485.2,591.3,485.1,591.3c0.5,0.9,0.7,1.8,0.7,2.8
						c0,1.7-0.6,3.2-1.8,4.3c-1.1,1.2-2.5,1.8-4.3,1.8c-1.7,0-3.2-0.6-4.4-1.8c-1-1-1.5-2.3-1.5-3.8c0-0.1,0-0.1,0-0.1
						c0-0.1,0-0.2,0-0.3c0-1.7,0.5-3.1,1.5-4.3c1.2-1.1,2.7-1.6,4.4-1.6s3.2,0.5,4.3,1.6C484.4,590.2,484.8,590.7,485.1,591.3z
						 M482.8,593.3c-0.6-0.6-1.4-0.9-2.4-0.9s-1.8,0.3-2.5,0.9c-0.6,0.7-0.9,1.5-0.9,2.5c0,0.5,0.1,1,0.3,1.5c0.2,0.4,0.4,0.7,0.7,1
						c0.7,0.7,1.5,1,2.5,1s1.8-0.3,2.4-1c0.7-0.6,1-1.5,1-2.5c0-0.2,0-0.3,0-0.5C483.8,594.5,483.4,593.9,482.8,593.3z"/>
					<path fill="#726656" d="M482.8,593.3c0.6,0.6,0.9,1.2,1,2c0,0.2,0,0.3,0,0.5c0,1-0.3,1.8-1,2.5c-0.6,0.7-1.4,1-2.4,1
						s-1.8-0.3-2.5-1c-0.3-0.3-0.5-0.6-0.7-1c-0.2-0.4-0.3-0.9-0.3-1.5c0-1,0.3-1.8,0.9-2.5c0.7-0.6,1.5-0.9,2.5-0.9
						C481.4,592.4,482.3,592.7,482.8,593.3z M482.5,595.8c0-0.6-0.2-1-0.6-1.5c-0.4-0.4-0.9-0.6-1.5-0.6c-0.6,0-1.1,0.2-1.5,0.6
						c-0.4,0.4-0.6,0.9-0.6,1.5c0,0.6,0.2,1.1,0.6,1.5c0.1,0.1,0.2,0.2,0.3,0.3c0.3,0.2,0.7,0.3,1.2,0.3c0.7,0,1.2-0.2,1.5-0.6
						c0.2-0.2,0.3-0.4,0.5-0.7C482.5,596.4,482.5,596.1,482.5,595.8z"/>
					<path fill="#150900" d="M482.5,595.8c0,0.3,0,0.6-0.1,0.8c-0.1,0.2-0.3,0.5-0.5,0.7c-0.4,0.4-0.9,0.6-1.5,0.6
						c-0.4,0-0.8-0.1-1.2-0.3c-0.1-0.1-0.2-0.2-0.3-0.3c-0.4-0.4-0.6-0.9-0.6-1.5c0-0.6,0.2-1,0.6-1.5c0.4-0.4,0.9-0.6,1.5-0.6
						c0.7,0,1.2,0.2,1.5,0.6C482.3,594.7,482.5,595.2,482.5,595.8z"/>
				</g>
			</g>
		</g>
		<g>
			<g>
				
					<linearGradient id="SVGID_63_" gradientUnits="userSpaceOnUse" x1="920.4717" y1="-235.1641" x2="922.0464" y2="-245.7391" gradientTransform="matrix(1 0 0 -1 -292.9805 339.1201)">
					<stop  offset="0" style="stop-color:#080808;stop-opacity:0"/>
					<stop  offset="1" style="stop-color:#000000"/>
				</linearGradient>
				<path fill="url(#SVGID_63_)" d="M631.7,583h-10c0.6-4.8,1-8.3,1.2-10.8l0,0l11.4,0.2C634.1,576.7,633.3,580.3,631.7,583z"/>
				
					<linearGradient id="SVGID_64_" gradientUnits="userSpaceOnUse" x1="1217.209" y1="911.1816" x2="1230.6522" y2="911.1816" gradientTransform="matrix(-5.200027e-002 0.9986 0.9986 5.200026e-002 -367.7313 -690.8733)">
					<stop  offset="0" style="stop-color:#080808;stop-opacity:0"/>
					<stop  offset="0.8078" style="stop-color:#010101;stop-opacity:0.898"/>
					<stop  offset="1" style="stop-color:#000000"/>
				</linearGradient>
				<path fill="url(#SVGID_64_)" d="M472.7,569.8l10.5,0.5c2.9-3.6,3.8,0.8,2.8,13.2h-15.5C472,578.1,472.7,573.5,472.7,569.8z"/>
			</g>
		</g>
		<g>
			
				<linearGradient id="SVGID_65_" gradientUnits="userSpaceOnUse" x1="759.5469" y1="-204.2358" x2="760.6088" y2="-244.2339" gradientTransform="matrix(1 0 0 -1 -292.9805 339.1201)">
				<stop  offset="0" style="stop-color:#AA9A83"/>
				<stop  offset="7.058824e-002" style="stop-color:#DAD1C0"/>
				<stop  offset="0.1294" style="stop-color:#DDD1C3"/>
				<stop  offset="0.1647" style="stop-color:#B9AD9E"/>
				<stop  offset="0.3216" style="stop-color:#A2937E"/>
				<stop  offset="0.6118" style="stop-color:#8D7A59"/>
				<stop  offset="1" style="stop-color:#7D6B43"/>
			</linearGradient>
			<path fill="url(#SVGID_65_)" d="M469.3,543.3c1.4,1.5,2.2,5.7,2.4,12.6c0.1,1.6,0.1,3.3,0.1,5.2c-0.1,2.9-0.2,5.6-0.4,7.9
				c0,0.2,0,0.5,0,0.9c-0.1,1-0.2,1.9-0.3,2.8c-0.5,6-1.3,9.5-2.5,10.7h-5.5l-0.3-0.1c0.5-1.1,1-2.6,1.4-4.5c0.6-2.5,1-5.8,1.2-9.8
				c0.1-1.2,0.2-2.5,0.3-3.8c0.2-6.2,0-11.4-0.6-15.6c-0.3-2.5-0.8-4.6-1.3-6.3l0.3-0.1L469.3,543.3L469.3,543.3z"/>
		</g>
		<g>
			<g>
				
					<linearGradient id="SVGID_66_" gradientUnits="userSpaceOnUse" x1="741.0801" y1="-177.9297" x2="741.0801" y2="-192.2297" gradientTransform="matrix(1 0 0 -1 -292.9805 339.1201)">
					<stop  offset="0" style="stop-color:#2A261B"/>
					<stop  offset="0.1176" style="stop-color:#9C958D"/>
					<stop  offset="1" style="stop-color:#2E281C"/>
				</linearGradient>
				<path fill="url(#SVGID_66_)" d="M450.9,532c-0.2,1.2-0.7,1.7-1.4,1.5h-2.4h-1.7c0.4,0,0.7-0.8,1-2.5c0.3-1.6,0.5-3.5,0.5-5.8
					c0,0,0-0.1,0-0.2s0-0.3,0-0.5c0-0.7,0-1.5-0.1-2.2v-0.1c0-0.3,0-0.6-0.1-0.9c0-0.2,0-0.4,0-0.7c-0.1-0.4-0.2-0.8-0.3-1.2
					c-0.3-1.6-0.6-2.5-1-2.5c-0.1,0-0.1,0-0.2,0c0.2-0.1,0.3-0.2,0.4-0.3c0.1,0,0.1,0,0.2-0.1h3.5h0.1c0.1,0.3,0.3,0.6,0.4,0.8
					c0.2,0.3,0.3,0.6,0.4,0.9c0.5,1.2,0.7,2.5,0.8,4L450.9,532L450.9,532z"/>
				
					<linearGradient id="SVGID_67_" gradientUnits="userSpaceOnUse" x1="746.6465" y1="-175.7695" x2="746.5832" y2="-192.0945" gradientTransform="matrix(1 0 0 -1 -292.9805 339.1201)">
					<stop  offset="0" style="stop-color:#2A261B"/>
					<stop  offset="0.1176" style="stop-color:#9C958D"/>
					<stop  offset="1" style="stop-color:#2E281C"/>
				</linearGradient>
				<path fill="url(#SVGID_67_)" d="M457.5,538.1l-0.2,3.4l-1,0.2l-5.4-0.2v-3.3l0.2,2.3l-0.2-8.5v-9.5c0-1.5-0.3-2.8-0.8-4
					c-0.1-0.3-0.2-0.6-0.4-0.9c-0.1-0.2-0.3-0.5-0.4-0.8h-0.1c0-1.1,0.4-1.7,1.3-1.8c0.2-0.1,0.5-0.1,0.8,0l3.4,0.1
					c1.7,0.1,2.8,1.3,3.3,3.7v0.1c0.1,0.6,0.1,1.2,0.1,1.9v0.1l-0.4,11.2L457.5,538.1z"/>
				
					<linearGradient id="SVGID_68_" gradientUnits="userSpaceOnUse" x1="752.1475" y1="-179.0342" x2="752.2813" y2="-191.6332" gradientTransform="matrix(1 0 0 -1 -292.9805 339.1201)">
					<stop  offset="0" style="stop-color:#2A261B"/>
					<stop  offset="0.1176" style="stop-color:#9C958D"/>
					<stop  offset="1" style="stop-color:#2E281C"/>
				</linearGradient>
				<path fill="url(#SVGID_68_)" d="M457.7,532.1l0.4-11.2v-0.1c0-0.7,0-1.3-0.1-1.9l2.1-0.1c0.4,0.5,0.6,1.6,0.7,3.3
					c0.1,1.7,0,4.1-0.3,7c-0.1,1.5-0.3,2.5-0.5,2.9L457.7,532.1L457.7,532.1z"/>
				
					<linearGradient id="SVGID_69_" gradientUnits="userSpaceOnUse" x1="206.0303" y1="-186.3799" x2="803.8301" y2="-186.3799" gradientTransform="matrix(1 0 0 -1 -292.9805 339.1201)">
					<stop  offset="0" style="stop-color:#7E5235"/>
					<stop  offset="1" style="stop-color:#624A2E"/>
				</linearGradient>
				<path fill="url(#SVGID_69_)" d="M445.5,517.2c0.4,0,0.8,0.8,1,2.5c0.1,0.4,0.2,0.8,0.3,1.2c0,0.3,0,0.5,0,0.7
					c0.1,0.2,0.1,0.5,0.1,0.9c0,0.1,0,0.1,0,0.1c0.1,0.7,0.1,1.4,0.1,2.2c0,0.2,0,0.3,0,0.5c0,0.1,0,0.2,0,0.2
					c0,2.3-0.2,4.2-0.5,5.8c-0.3,1.6-0.6,2.4-1,2.5h-0.2c-0.4-0.1-0.7-1-1-2.5c-0.3-1.6-0.4-3.5-0.4-5.8c0-2.2,0.1-4.1,0.4-5.7
					C444.6,518,445,517.2,445.5,517.2z"/>
				
					<linearGradient id="SVGID_70_" gradientUnits="userSpaceOnUse" x1="206.0303" y1="-197.6797" x2="803.8301" y2="-197.6797" gradientTransform="matrix(1 0 0 -1 -292.9805 339.1201)">
					<stop  offset="0" style="stop-color:#2A261B"/>
					<stop  offset="0.1176" style="stop-color:#9C958D"/>
					<stop  offset="1" style="stop-color:#2E281C"/>
				</linearGradient>
				<path fill="url(#SVGID_70_)" d="M447.2,533.5h2.4c0.7,0.1,1.2-0.4,1.4-1.5l0.2,8.5l-0.2-2.3h-1.6h-0.1c-0.1-0.1-0.2-0.1-0.2-0.1
					c-0.3,0-0.5,0.3-0.8,0.8c-0.2,0.4-0.4,1-0.6,1.7c-0.1,0.3-0.1,0.7-0.3,1c-0.1-0.5-0.1-1.7-0.1-3.6L447.2,533.5L447.2,533.5z"/>
				
					<linearGradient id="SVGID_71_" gradientUnits="userSpaceOnUse" x1="-313.145" y1="202.5088" x2="-258.6137" y2="202.5088" gradientTransform="matrix(7.564471e-002 -0.9971 -0.9952 -0.1018 672.2244 294.8506)">
					<stop  offset="0" style="stop-color:#2B2518"/>
					<stop  offset="0" style="stop-color:#5F5341"/>
					<stop  offset="0.1176" style="stop-color:#5B5145"/>
					<stop  offset="0.7608" style="stop-color:#7B7263"/>
					<stop  offset="1" style="stop-color:#A88E6B"/>
				</linearGradient>
				<path fill="url(#SVGID_71_)" d="M449.3,538.3c0.1,0,0.2,0,0.3,0.1c0.3,0.3,0.5,0.7,0.7,1.3c0,0.1,0,0.1,0,0.2
					c0.1,0.3,0.3,0.7,0.4,1.2c0.4,2,0.8,4.8,1,8.5c0,0.6,0.1,1.2,0.1,1.8c0.1,0.6,0.1,1.2,0.2,1.8v1.9c0,0.1,0,0.2,0,0.3l0.1,3.8
					c0,0.4,0,0.8,0,1.3c0,0.2,0,0.4,0,0.7v0.5c0,0.6,0.1,1.3,0.1,2c0,0.1,0,0.3,0,0.5s-0.1,0.4-0.1,0.5l-0.1,1.9c0,0.7,0,1.3,0,1.8
					c-0.1,0.4-0.1,0.7-0.1,1.1c-0.1,0.9-0.1,1.7-0.3,2.6c0,0.5-0.1,0.9-0.1,1.4l-0.3,3c-0.1,0.5-0.1,1.1-0.2,1.6
					c-0.2,1.1-0.3,2.1-0.4,3c-0.5,3.1-1.1,4.8-1.7,5.1c-0.6-0.3-1.1-1.1-1.4-2.4c-0.1-0.6-0.2-1.1-0.3-1.5c-0.2-0.9-0.4-2-0.5-3.2
					c-0.6-4.7-1-10.3-1-17c0-6.6,0.3-12.3,1-16.9c0.1-1,0.3-1.8,0.4-2.6v-0.1c0-0.2,0.1-0.5,0.1-0.7c0.1-0.4,0.2-0.7,0.3-1
					c0.2-0.7,0.4-1.3,0.6-1.7c0.3-0.5,0.6-0.8,0.8-0.8C449,538.2,449.1,538.2,449.3,538.3C449.2,538.3,449.3,538.3,449.3,538.3z"/>
				
					<linearGradient id="SVGID_72_" gradientUnits="userSpaceOnUse" x1="750.3145" y1="-200.3794" x2="750.9808" y2="-245.4808" gradientTransform="matrix(1 0 0 -1 -292.9805 339.1201)">
					<stop  offset="0" style="stop-color:#443B34"/>
					<stop  offset="8.627451e-002" style="stop-color:#726A67"/>
					<stop  offset="0.1882" style="stop-color:#5E5653"/>
					<stop  offset="0.2824" style="stop-color:#362F29"/>
					<stop  offset="0.5216" style="stop-color:#372F29"/>
					<stop  offset="0.6118" style="stop-color:#4A3F29"/>
					<stop  offset="0.7608" style="stop-color:#4A3F29"/>
					<stop  offset="1" style="stop-color:#000000"/>
				</linearGradient>
				<path fill="url(#SVGID_72_)" d="M450.9,538.3v3.3l5.4,0.2l1-0.2l0.2-3.4h3.3c2.3,1,4,4,5.1,9c0,0.1,0,0.6,0.1,1.4
					c0,0.1,0,0.1,0.1,0.3c0.4,3.5,0.6,7.3,0.5,11.3c0,1.4-0.1,2.8-0.1,4.3c0,0.8,0,1.5-0.2,2.1l0,0c0,0.6-0.1,1.2-0.1,1.8
					c-0.1,1.3-0.2,2.5-0.3,3.7c-0.7,6.5-1.5,10.8-2.6,12.8c-0.3,0.9-0.9,1.4-1.9,1.4H449c0,0,0,0,0-0.1c0.6-0.4,1.2-2.1,1.7-5.1
					c0.1-0.9,0.3-1.9,0.4-3c0-0.5,0.1-1.1,0.2-1.6l0.3-3c0-0.5,0.1-1,0.1-1.4c0.1-0.8,0.2-1.7,0.3-2.6c0-0.4,0-0.7,0.1-1.1
					c0-0.5,0-1.1,0-1.8l0.1-1.9c0-0.2,0-0.4,0.1-0.5c0-0.2,0-0.3,0-0.5c0-0.7,0-1.4-0.1-2V561c0-0.3,0-0.5,0-0.7c0-0.5,0-0.9,0-1.3
					l-0.1-3.8c0-0.1,0-0.2,0-0.3V553c0-0.6-0.1-1.2-0.2-1.8c0-0.6-0.1-1.2-0.1-1.8c-0.3-3.7-0.7-6.6-1-8.5c-0.1-0.4-0.2-0.8-0.4-1.2
					c0-0.1,0-0.1,0-0.2c-0.2-0.6-0.4-1-0.7-1.3c-0.1-0.1-0.2-0.1-0.3-0.1h1.5V538.3z"/>
				<path fill="none" d="M458.3,535c0,0.6,0,1.1,0,1.7"/>
			</g>
		</g>
		<g>
			<path d="M448.8,560c0.1,0,0.1,0,0.2,0c0.3,0,0.5,0.4,0.8,1.1c0.3,0.7,0.3,1.6,0.3,2.6s-0.1,1.8-0.3,2.6c-0.2,0.5-0.3,0.9-0.5,1
				l-0.3,0.1c-0.2-0.1-0.4-0.5-0.5-1.1c-0.2-0.7-0.3-1.6-0.3-2.6s0.1-1.9,0.3-2.6C448.5,560.4,448.7,560.1,448.8,560z"/>
		</g>
		<g>
			<g>
				
					<linearGradient id="SVGID_73_" gradientUnits="userSpaceOnUse" x1="740.5049" y1="-228.1167" x2="740.4729" y2="-221.0428" gradientTransform="matrix(1 0 0 -1 -292.9805 339.1201)">
					<stop  offset="0" style="stop-color:#201C1B"/>
					<stop  offset="0.3294" style="stop-color:#2A2621"/>
					<stop  offset="0.5098" style="stop-color:#5D5040"/>
					<stop  offset="0.651" style="stop-color:#796D5A"/>
					<stop  offset="0.7294" style="stop-color:#2F2A24"/>
					<stop  offset="0.8471" style="stop-color:#FFFCF8"/>
					<stop  offset="0.9294" style="stop-color:#BCB6A1"/>
					<stop  offset="0.9647" style="stop-color:#8C775C"/>
					<stop  offset="1" style="stop-color:#94825A"/>
				</linearGradient>
				<path fill="url(#SVGID_73_)" d="M445.3,567.2c0.2-0.2,0.3-0.5,0.4-1c0.2-0.7,0.3-1.5,0.3-2.5c0-0.9-0.1-1.8-0.3-2.5
					c-0.1-0.6-0.3-0.9-0.6-0.9v-0.1h3.8v0.1h0.1c0.3,0,0.5,0.3,0.6,0.9c0.2,0.7,0.3,1.5,0.3,2.5s-0.1,1.8-0.3,2.5
					c-0.1,0.5-0.2,0.8-0.3,1h-0.5H445.3z"/>
				<path fill="#655847" d="M445,560.4c0.3,0,0.5,0.3,0.6,0.9c0.2,0.7,0.3,1.5,0.3,2.5s-0.1,1.8-0.3,2.5c0,0.5-0.2,0.8-0.4,1
					l-0.3,0.1c-0.2-0.1-0.4-0.4-0.5-1c-0.1-0.7-0.2-1.5-0.2-2.5c0-0.9,0-1.8,0.2-2.5C444.6,560.8,444.8,560.5,445,560.4L445,560.4z"
					/>
				
					<linearGradient id="SVGID_74_" gradientUnits="userSpaceOnUse" x1="741.0303" y1="-228.1299" x2="742.7302" y2="-228.1299" gradientTransform="matrix(1 0 0 -1 -292.9805 339.1201)">
					<stop  offset="0" style="stop-color:#605340"/>
					<stop  offset="0.1176" style="stop-color:#5B5145"/>
					<stop  offset="0.7608" style="stop-color:#7B7263"/>
					<stop  offset="1" style="stop-color:#A88E6B"/>
				</linearGradient>
				<path fill="url(#SVGID_74_)" d="M448.7,567.2h0.5c-0.1,0.1-0.2,0.1-0.3,0.1C448.9,567.3,448.8,567.3,448.7,567.2z"/>
			</g>
		</g>
		<g>
			<path d="M446.1,528.7c-0.1,0.5-0.3,0.8-0.4,0.9l-0.3,0.1c-0.2-0.1-0.4-0.4-0.6-1c-0.2-0.7-0.3-1.6-0.3-2.7c0-1,0.1-1.9,0.3-2.6
				c0.2-0.6,0.3-0.9,0.5-1c0.1-0.1,0.1-0.1,0.2-0.1c0.3,0,0.5,0.4,0.6,1.1c0.2,0.7,0.3,1.6,0.3,2.6
				C446.3,527,446.3,527.9,446.1,528.7z"/>
		</g>
		<g>
			<g>
				
					<linearGradient id="SVGID_75_" gradientUnits="userSpaceOnUse" x1="736.8535" y1="-190.4175" x2="736.8216" y2="-183.3417" gradientTransform="matrix(1 0 0 -1 -292.9805 339.1201)">
					<stop  offset="0" style="stop-color:#201C1B"/>
					<stop  offset="0.3294" style="stop-color:#2A2621"/>
					<stop  offset="0.5098" style="stop-color:#5D5040"/>
					<stop  offset="0.651" style="stop-color:#796D5A"/>
					<stop  offset="0.7294" style="stop-color:#2F2A24"/>
					<stop  offset="0.8471" style="stop-color:#FFFCF8"/>
					<stop  offset="0.9294" style="stop-color:#BCB6A1"/>
					<stop  offset="0.9647" style="stop-color:#8C775C"/>
					<stop  offset="1" style="stop-color:#94825A"/>
				</linearGradient>
				<path fill="url(#SVGID_75_)" d="M445.5,529.5H445h-3.3c0.1-0.1,0.3-0.5,0.4-1c0.2-0.6,0.3-1.4,0.3-2.4c0-0.9-0.1-1.8-0.3-2.5
					c-0.1-0.7-0.3-1-0.6-1v-0.2h3.8v0.2l0,0c0.3,0,0.5,0.3,0.6,1c0.2,0.7,0.3,1.5,0.3,2.5s-0.1,1.8-0.3,2.4
					C445.7,529,445.6,529.4,445.5,529.5z"/>
				<path fill="#655847" d="M441.7,529.5l-0.3,0.1c-0.2-0.1-0.4-0.4-0.5-1c-0.2-0.6-0.3-1.4-0.3-2.4c0-0.9,0.1-1.8,0.3-2.5
					c0.2-0.5,0.3-0.8,0.5-1c0.1,0,0.1,0,0.2,0c0.3,0,0.5,0.3,0.6,1c0.2,0.7,0.3,1.5,0.3,2.5s-0.1,1.8-0.3,2.4
					C441.9,529,441.8,529.4,441.7,529.5z"/>
				
					<linearGradient id="SVGID_76_" gradientUnits="userSpaceOnUse" x1="737.3809" y1="-190.4297" x2="739.0809" y2="-190.4297" gradientTransform="matrix(1 0 0 -1 -292.9805 339.1201)">
					<stop  offset="0" style="stop-color:#605340"/>
					<stop  offset="0.1176" style="stop-color:#5B5145"/>
					<stop  offset="0.7608" style="stop-color:#7B7263"/>
					<stop  offset="1" style="stop-color:#A88E6B"/>
				</linearGradient>
				<path fill="url(#SVGID_76_)" d="M445.5,529.5c-0.1,0.1-0.2,0.1-0.3,0.1c-0.1,0-0.2,0-0.3-0.1H445.5z"/>
			</g>
		</g>
		<g>
			<g>
				<rect x="619.8" y="582.2" fill="#503506" width="13" height="17.3"/>
			</g>
			<g>
				<g>
					
						<linearGradient id="SVGID_77_" gradientUnits="userSpaceOnUse" x1="698.1533" y1="-336.9219" x2="711.8123" y2="-336.9219" gradientTransform="matrix(0.9717 -0.2361 -0.2685 -0.9638 -132.3932 425.7907)">
						<stop  offset="0" style="stop-color:#070604"/>
						<stop  offset="0.4627" style="stop-color:#1A1112"/>
						<stop  offset="1" style="stop-color:#030202"/>
					</linearGradient>
					<path fill="url(#SVGID_77_)" d="M621,593.4c0-0.1,0-0.2,0-0.3l-0.5-4c0.2-1.2,0.7-2.2,1.5-3.1c1.2-1.1,2.7-1.6,4.3-1.6
						c1.7,0,3.2,0.5,4.3,1.6c0.3,0.3,0.6,0.6,0.8,0.9l1,3.3c-0.3-0.6-0.6-1.1-1.1-1.6c-1.1-1.1-2.5-1.6-4.3-1.6
						c-1.7,0-3.2,0.5-4.4,1.6c-1.1,1.2-1.6,2.6-1.6,4.3C621,593.2,621,593.3,621,593.4z"/>
					
						<linearGradient id="SVGID_78_" gradientUnits="userSpaceOnUse" x1="134.4233" y1="-342.1719" x2="153.6649" y2="-342.1719" gradientTransform="matrix(0.686 -0.7276 -0.7746 -0.6361 275.2086 467.3045)">
						<stop  offset="0" style="stop-color:#201A14"/>
						<stop  offset="1" style="stop-color:#756448"/>
					</linearGradient>
					<path fill="url(#SVGID_78_)" d="M632.3,590.3L632.3,590.3c0.5,0.9,0.7,1.8,0.7,2.8c0,1.8-0.6,3.2-1.8,4.3
						c-1.1,1.2-2.5,1.8-4.3,1.8c-1.7,0-3.2-0.6-4.4-1.8c-1-1-1.5-2.3-1.6-3.8v-0.1c0-0.1,0-0.3,0-0.4c0-1.7,0.5-3.1,1.6-4.3
						c1.2-1.1,2.7-1.6,4.4-1.6c1.7,0,3.1,0.5,4.3,1.6C631.7,589.2,632,589.7,632.3,590.3z M627.7,591.3c-1,0-1.8,0.3-2.5,1
						c-0.6,0.7-1,1.5-1,2.5c0,0.5,0.1,1,0.3,1.5c0.2,0.4,0.4,0.7,0.7,1c0.7,0.7,1.5,1,2.5,1s1.8-0.3,2.4-1c0.7-0.6,1-1.4,1-2.5
						c0-0.1,0-0.3,0-0.5c-0.1-0.8-0.5-1.4-1-2C629.5,591.7,628.7,591.3,627.7,591.3z"/>
					<path fill="#726656" d="M627.7,592.7c-0.6,0-1.1,0.2-1.5,0.6c-0.4,0.4-0.6,0.9-0.6,1.5c0,0.7,0.2,1.2,0.6,1.5
						c0.1,0.1,0.2,0.1,0.3,0.2c0.3,0.3,0.7,0.4,1.2,0.4c0.6,0,1.1-0.2,1.5-0.6c0.2-0.2,0.4-0.4,0.5-0.7c0.1-0.2,0.1-0.5,0.1-0.8
						c0-0.6-0.2-1-0.6-1.5C628.8,592.8,628.3,592.7,627.7,592.7z M627.7,591.3c1,0,1.8,0.3,2.4,1c0.6,0.6,0.9,1.2,1,2
						c0,0.2,0,0.3,0,0.5c0,1-0.3,1.8-1,2.5c-0.6,0.7-1.4,1-2.4,1s-1.8-0.3-2.5-1c-0.3-0.3-0.5-0.6-0.7-1c-0.2-0.5-0.3-1-0.3-1.5
						c0-1,0.3-1.8,1-2.5C625.8,591.7,626.7,591.3,627.7,591.3z"/>
					<path fill="#150900" d="M627.7,592.7c0.6,0,1.1,0.2,1.5,0.6c0.4,0.4,0.6,0.9,0.6,1.5c0,0.3,0,0.6-0.1,0.8
						c-0.1,0.3-0.3,0.5-0.5,0.7c-0.4,0.4-0.9,0.6-1.5,0.6c-0.5,0-0.9-0.1-1.2-0.4c-0.1-0.1-0.2-0.1-0.3-0.2
						c-0.4-0.4-0.6-0.9-0.6-1.5s0.2-1,0.6-1.5C626.6,592.8,627.1,592.7,627.7,592.7z"/>
				</g>
			</g>
		</g>
	</g>
</g>
</svg>