<?xml version="1.0" encoding="utf-8"?>
<!-- Generator: Adobe Illustrator 16.0.0, SVG Export Plug-In . SVG Version: 6.00 Build 0)  -->
<!DOCTYPE svg PUBLIC "-//W3C//DTD SVG 1.1//EN" "http://www.w3.org/Graphics/SVG/1.1/DTD/svg11.dtd">
<svg version="1.1" id="Layer_1" xmlns="http://www.w3.org/2000/svg" xmlns:xlink="http://www.w3.org/1999/xlink" x="0px" y="0px"
	 width="700px" height="700px" viewBox="0 0 700 700" enable-background="new 0 0 700 700" xml:space="preserve">


<g id="Layer_44">
	<g>
		<g>
			<path fill="#4A4A4A" d="M538.9,415.9L538.9,415.9L538.9,415.9L538.9,415.9z M540.3,417.3L540.3,417.3L540.3,417.3L540.3,417.3z"
				/>
			<path d="M540.2,417.3v1.7h-0.1c-0.4-0.4-0.8-0.9-1.1-1.3l-0.2-0.3c0-0.5,0-1,0-1.5h0.1L540.2,417.3L540.2,417.3z"/>
		</g>
		<g>
			<g>
				
					<linearGradient id="SVGID_84_" gradientUnits="userSpaceOnUse" x1="883.2803" y1="-91.4551" x2="883.2803" y2="-59.2051" gradientTransform="matrix(1 0 0 -1 -292.9805 339.1201)">
					<stop  offset="0" style="stop-color:#222222"/>
					<stop  offset="7.843138e-002" style="stop-color:#2B2B2B"/>
					<stop  offset="0.1608" style="stop-color:#777777"/>
					<stop  offset="0.2196" style="stop-color:#4E4D4B"/>
					<stop  offset="1" style="stop-color:#413F3F"/>
				</linearGradient>
				<path fill="url(#SVGID_84_)" d="M541,436.2v-8c0,0,0-0.6-0.2-1.7c-0.1-1.1-0.7-2.3-1.6-3.6l-16.6-26.7l-0.8-1.2l0,0l-0.8-1
					c0.2-0.3,0.4-0.4,0.8-0.5h2.6h100.9l32.3,30.2c1,0.9,1.6,2.2,2,3.7v8.8H541L541,436.2z"/>
				<path fill="#1E1E1E" d="M541,436.2l-20.1-33.7v-6.2V395c0-0.5,0.1-0.8,0.3-1l0.8,1v0.1l0.8,1.2l16.6,26.7c1,1.3,1.5,2.5,1.6,3.6
					c0.1,1.1,0.2,1.6,0.2,1.7v7.9H541L541,436.2z"/>
			</g>
		</g>
		<g>
			<g>
				<path fill="#9C9C9C" d="M528.5,401L528.5,401v-11.3c0-1.9,0.8-3.5,2.3-4.9c1.5-1.3,3.3-2,5.4-2c1.1,0,2,0.1,2.8,0.4l0.3,0.1
					l0.5,0.3l1.4,0.8l0.2,0.1l0.2,0.2l0,0h0.2c0.5,0.5,0.9,1,1.3,1.5c0.7,1.1,1,2.3,1,3.5V401H528.5L528.5,401z"/>
				<path fill="#CCCCCC" d="M541.2,384.5l-1.4-0.8l-0.5-0.3v-0.1H539c-0.8-0.3-1.7-0.4-2.8-0.4c-2.1,0-3.9,0.7-5.4,2
					c-1.5,1.4-2.3,3-2.3,4.9V401l0,0c0,0.3-0.5-0.5-1.4-2.3V394v-5c0-1.9,0.8-3.5,2.3-4.8c0.9-0.9,2-1.4,3.1-1.7
					c0.6-0.2,1.4-0.3,2.4-0.3h1.1c0.4,0,1,0.1,1.8,0.3l1,0.4c0.8,0.3,1.4,0.6,1.6,0.8L541.2,384.5z"/>
			</g>
		</g>
		<g>
			<g>
				<path fill="#505050" d="M596.3,396.2l2.8,3.1v-2.1V395v-4v-10.2l2,0.6v15.8c0,2,0,4.2,0,6.8c0,0.1,0,0.1,0,0.2
					c0,0.1,0,0.2,0,0.5l0,0l-4.8-6V396.2z"/>
				<polygon fill="#9D9D9D" points="624.6,373.7 601.3,381.4 599.2,380.8 623.3,372.9 624.6,373.3 624.6,373.5 				"/>
				<path fill="#726E6E" d="M601.3,404.7c0-0.3,0-0.5,0-0.5s0-0.1,0-0.2c0-2.6,0-4.8,0-6.8v-15.8l23.3-7.8l-0.1,30.8v-0.2
					L601.3,404.7z"/>
				<path fill="#201F1F" d="M599.2,395v2.3v2.1l-2.8-3.1C596.3,395.6,597.3,395.2,599.2,395z"/>
			</g>
		</g>
		<g>
			<g>
				
					<linearGradient id="SVGID_85_" gradientUnits="userSpaceOnUse" x1="902.7695" y1="-89.6426" x2="925.5785" y2="-38.4606" gradientTransform="matrix(1 0 0 -1 -292.9805 339.1201)">
					<stop  offset="0" style="stop-color:#292929"/>
					<stop  offset="0.1882" style="stop-color:#525252"/>
					<stop  offset="0.3137" style="stop-color:#FFFFFF"/>
					<stop  offset="0.4549" style="stop-color:#777777"/>
					<stop  offset="0.6118" style="stop-color:#AAAAAA"/>
					<stop  offset="1" style="stop-color:#262626"/>
				</linearGradient>
				<path fill="url(#SVGID_85_)" d="M633.2,386.2L633.2,386.2L633.2,386.2L633.2,386.2z M610.5,417.2l1,1.1L610.5,417.2L610.5,417.2
					z"/>
				<path fill="#B7B7B7" d="M633.3,417.2h-22.8c0-0.1,0-0.1,0-0.2v-0.1c0-2.6,0-4.8,0-6.7v-16l22.8-8l0,0V417.2z"/>
				<polygon fill="#858585" points="608.3,393.7 630.7,385.8 633.2,386.2 610.5,394.3 				"/>
				<path fill="#565656" d="M610.5,394.3v16c0,1.9,0,4.1,0,6.7v0.1c0,0,0,0.1,0,0.2v0.1v-0.1v0.1c0,0.6,0.6,2,2,4.4
					c-0.1,0-0.1,0-0.2-0.1c-1.6-1.7-2.9-3-3.9-3.9v-7.5v-6.4v-10.1L610.5,394.3z"/>
				<path fill="#D9D9D9" d="M612.5,419.4c0,0.1,0.1,0.2,0.2,0.2c0.1,0.1,0.3,0.2,0.5,0.4l0.1,0.1c0.1,0,0.2,0.1,0.3,0.2
					c0.5,0.3,1.1,0.6,1.8,0.8c0.7,0.2,1.5,0.5,2.5,0.8c0.4,0,0.7,0.1,1.1,0.2c1.2,0.3,2.4,0.5,3.7,0.5h1c0.2,0.1,0.5,0.1,0.8,0.1
					c0.7,0,2.1,0,4.2-0.1c1.9,0,3.5-0.1,4.7-0.3v0.5h4.2v0.5c-0.3,0.2-0.5,0.4-0.8,0.4c-0.8,0.3-1.7,0.5-2.7,0.7
					c-5.8,0.7-10.6,0.7-14.5,0c-0.4,0-0.7-0.1-1-0.2c-1.8-0.3-3.5-0.9-5.1-1.7c-0.1-0.1-0.3-0.1-0.3-0.1c-0.1-0.1-0.3-0.2-0.5-0.3
					l0,0l0,0V422v-0.1v0.1v-0.2c-1.3-2.3-2-3.8-2-4.4l0,0l1,1L612.5,419.4L612.5,419.4L612.5,419.4z"/>
				<path fill="#7F7F7F" d="M610.5,417.2h22.8v5c-1.2,0.2-2.8,0.3-4.7,0.3c-2.1,0.1-3.5,0.1-4.2,0.1c-0.3,0-0.6,0-0.8-0.1h-1
					c-1.3-0.1-2.5-0.3-3.7-0.5c-0.3-0.1-0.7-0.1-1.1-0.2c-1-0.3-1.8-0.5-2.5-0.8c-0.7-0.2-1.3-0.5-1.8-0.8c-0.2-0.1-0.3-0.2-0.3-0.2
					l-0.1-0.1c-0.2-0.2-0.4-0.3-0.5-0.4c-0.1,0-0.1-0.1-0.2-0.2v-0.1l-1-1L610.5,417.2z"/>
			</g>
		</g>
		<g>
			<g>
				<path fill="#CCCCCC" d="M554.3,403.8c-0.7-0.5-1.2-0.7-1.3-0.8l-0.5-0.3h-0.1h-0.2l0,0c-0.9-0.3-1.8-0.5-2.8-0.5
					c-2.1,0-3.9,0.7-5.4,2c-1.6,1.4-2.4,3.1-2.4,4.9c0,0.1,0,1.9,0,5.3c0,1.3,0,2.8,0,4.5v0.1c0,0,0,0.1,0.1,0.1h-0.1h0.1l1.3,1.4
					l0,0v1.7c-0.1,0-0.1-0.1-0.2-0.1l-2.5-3.2v-4.7v-6.1c0-1.9,0.8-3.5,2.3-4.8c0.9-0.8,2-1.4,3.1-1.7c0.7-0.2,1.5-0.3,2.4-0.3
					c0.4,0,0.7,0,1.1,0c0.6,0,1.2,0.1,1.8,0.3c0.4,0.1,0.7,0.2,1.1,0.3c0.7,0.3,1.2,0.6,1.5,0.8L554.3,403.8z"/>
				<path fill="#9C9C9C" d="M557,419.3h-15.3c-0.1,0-0.1-0.1-0.1-0.1V419c0-1.7,0-3.3,0-4.5c0-3.4,0-5.2,0-5.3
					c0-1.8,0.8-3.5,2.4-4.9c1.5-1.3,3.3-2,5.4-2c1,0,1.9,0.2,2.8,0.5l0,0c0.1,0,0.2,0,0.3,0l0.5,0.3c0.1,0.1,0.6,0.3,1.3,0.8
					l0.2,0.1l0,0c0,0,0.1,0.1,0.2,0.2l0,0h0.1c0.4,0.4,0.8,0.9,1.3,1.5c0.7,1.1,1,2.2,1,3.5c0,0.1,0,0.3,0,0.3L557,419.3L557,419.3z
					"/>
				<polygon fill="#A8A8A8" points="541.7,419.3 557,419.3 557,419.3 558.7,420.7 543,420.7 543,420.7 				"/>
				
					<linearGradient id="SVGID_86_" gradientUnits="userSpaceOnUse" x1="832.3438" y1="-77.9429" x2="845.8688" y2="-91.4679" gradientTransform="matrix(1 0 0 -1 -292.9805 339.1201)">
					<stop  offset="0" style="stop-color:#292929"/>
					<stop  offset="0.1882" style="stop-color:#525252"/>
					<stop  offset="0.3137" style="stop-color:#FFFFFF"/>
					<stop  offset="0.4549" style="stop-color:#777777"/>
					<stop  offset="0.6118" style="stop-color:#AAAAAA"/>
					<stop  offset="1" style="stop-color:#262626"/>
				</linearGradient>
				<polygon fill="url(#SVGID_86_)" points="541.7,419.3 541.7,419.3 541.5,419.3 				"/>
				
					<linearGradient id="SVGID_87_" gradientUnits="userSpaceOnUse" x1="838.9453" y1="-62.0054" x2="835.7651" y2="-83.1835" gradientTransform="matrix(1 0 0 -1 -292.9805 339.1201)">
					<stop  offset="0" style="stop-color:#292929"/>
					<stop  offset="0.1882" style="stop-color:#525252"/>
					<stop  offset="0.3137" style="stop-color:#FFFFFF"/>
					<stop  offset="0.4549" style="stop-color:#777777"/>
					<stop  offset="0.6118" style="stop-color:#AAAAAA"/>
					<stop  offset="0.7255" style="stop-color:#848484"/>
					<stop  offset="0.8353" style="stop-color:#080808"/>
					<stop  offset="1" style="stop-color:#000000"/>
				</linearGradient>
				<path fill="url(#SVGID_87_)" d="M543,420.7L543,420.7C543.1,420.8,543,420.7,543,420.7L543,420.7z"/>
				<path fill="#636363" d="M543,420.7h15.7v1.7h-15.8L543,420.7L543,420.7C543,420.7,543.1,420.8,543,420.7L543,420.7z"/>
			</g>
		</g>
		<g>
			<path d="M668.8,429.5c-0.4,0.7-1,1.1-1.7,1.3c-0.8,0.2-1.5,0.1-2.2-0.3c-11.6-6.7-21.1-10.1-28.3-10.2
				c-6.2,1.8-12.8,1.5-19.8-0.8c-0.7-0.3-1.3-0.8-1.7-1.4c-0.4-0.7-0.4-1.4-0.1-2.1c0.2-0.7,0.7-1.3,1.4-1.7
				c0.7-0.4,1.4-0.4,2.1-0.1c5.9,2,11.4,2.2,16.5,0.8c0.4-0.2,0.8-0.3,1.3-0.3c8.1-0.1,18.5,3.5,31.4,10.9c0.7,0.4,1.1,1,1.3,1.8
				C669.2,428.1,669.1,428.8,668.8,429.5z"/>
		</g>
		<g>
			<g>
				<g>
					<path fill="#8E8E8E" d="M628.5,414.7c0.9-1.1,2.2-1.7,4.1-1.8c0.3-0.1,0.6-0.1,1-0.2v3.7c0,0.6-0.8,1-2.4,1.4
						c-0.9,0.2-1.8,0.4-2.8,0.5L628.5,414.7L628.5,414.7z M617.3,412.5c1.2,0.3,2.8,1,4.7,2.1v3.6c-0.8-0.1-1.6-0.2-2.3-0.4
						c-1.6-0.4-2.4-0.8-2.4-1.4v-3.7C617.3,412.7,617.3,412.6,617.3,412.5L617.3,412.5z"/>
					<path fill="#DBDBDB" d="M622,414.6c1-0.2,2.1-0.3,3.3-0.3s2.3,0.1,3.3,0.3v3.6c-0.9,0.1-2,0.1-3,0.1c-1.3,0-2.4-0.1-3.5-0.2
						L622,414.6L622,414.6z"/>
					<path fill="#FFFFFF" d="M622,414.6c-1.9-1.1-3.4-1.8-4.7-2.1c0.2-0.4,0.9-0.8,2.3-1.2c0.8-0.2,2.2-0.4,4.3-0.5
						c2.1-0.2,4.6,0,7.5,0.5c1.5,0.4,2.3,0.8,2.3,1.4c-0.4,0-0.8,0.1-1,0.2c-1.9,0-3.2,0.6-4.1,1.8c-1-0.2-2.1-0.3-3.3-0.3
						C624.1,414.3,623,414.4,622,414.6z"/>
				</g>
			</g>
		</g>
		<g>
			
				<radialGradient id="SVGID_88_" cx="914.4805" cy="-58.9297" r="3.6625" gradientTransform="matrix(1 0 0 -1 -292.9805 339.1201)" gradientUnits="userSpaceOnUse">
				<stop  offset="0" style="stop-color:#FFFFFF"/>
				<stop  offset="0.4549" style="stop-color:#888888"/>
				<stop  offset="1" style="stop-color:#343434"/>
			</radialGradient>
			<path fill="url(#SVGID_88_)" d="M623.7,396c0.1,0.1,0.2,0.1,0.3,0.1c0.3,0.2,0.5,0.4,0.8,0.7c0.8,0.8,1.2,1.7,1.2,2.7
				s-0.4,1.9-1.2,2.7c-0.7,0.8-1.6,1.1-2.6,1.1c-1.1,0-2-0.4-2.8-1.1c-0.7-0.8-1.1-1.7-1.1-2.8c0-1,0.4-1.8,1.1-2.6
				c0.8-0.7,1.7-1.1,2.8-1.1C622.7,395.7,623.2,395.8,623.7,396z"/>
		</g>
		<g>
			
				<radialGradient id="SVGID_89_" cx="841.3301" cy="-70.2813" r="2.4246" gradientTransform="matrix(1 0 0 -1 -292.9805 339.1201)" gradientUnits="userSpaceOnUse">
				<stop  offset="0" style="stop-color:#FFFFFF"/>
				<stop  offset="0.4549" style="stop-color:#888888"/>
				<stop  offset="1" style="stop-color:#343434"/>
			</radialGradient>
			<path fill="url(#SVGID_89_)" d="M548.8,413c-0.7,0-1.3-0.3-1.8-0.8s-0.8-1.1-0.8-1.8c0-0.7,0.3-1.3,0.8-1.9
				c0.5-0.5,1.1-0.7,1.8-0.7s1.3,0.2,1.8,0.7s0.8,1.2,0.8,1.9c0,0.7-0.3,1.3-0.8,1.8S549.5,413,548.8,413z"/>
		</g>
	</g>
</g>
</svg>