<?xml version="1.0" encoding="utf-8"?>
<!-- Generator: Adobe Illustrator 16.0.0, SVG Export Plug-In . SVG Version: 6.00 Build 0)  -->
<!DOCTYPE svg PUBLIC "-//W3C//DTD SVG 1.1//EN" "http://www.w3.org/Graphics/SVG/1.1/DTD/svg11.dtd">
<svg version="1.1" xmlns="http://www.w3.org/2000/svg" xmlns:xlink="http://www.w3.org/1999/xlink" x="0px" y="0px"
	 width="197.67px" height="224.33px" viewBox="0 0 197.67 224.33" enable-background="new 0 0 197.67 224.33" xml:space="preserve">
<g id="Layer_1">
	<g>
		<g>
			<path fill="#9BA89F" fill-opacity="0.298" d="M177.3,186.851l-16.9,3.399l-0.199,11.899c7.369-0.299,13.22-2.08,17.55-5.35
				L177.3,186.851z M160.899,3.35l-1.299,176.85c-0.801,4.43,1.42,5.67,6.649,3.699l11.5-2.549L176.8,49.65h-0.1V47.1
				c0-0.4,0-0.73,0-1c0-0.4,0-0.8,0-1.2V3.35h19.1c-3.27,1.97-5.199,4.2-5.8,6.7c-0.53,1.47-0.8,2.35-0.8,2.65v5.55v2.3v174.2
				c0.3,4.399-0.75,8.319-3.15,11.75c-2.27,3.399-8.22,6.431-17.85,9.101c-42.9,8.77-85.52,9.319-127.85,1.649
				c-2.67-0.431-5.43-0.979-8.3-1.649c-5.27-1.17-9.52-2.73-12.75-4.701c-1.53-1.1-2.75-2.229-3.65-3.399
				c-2.07-2.5-3.47-5.149-4.2-7.95c-0.57-1.67-0.85-3.4-0.85-5.199V49.65V48.3v-3.4v-6.1V20.55v-2.3v-6c-1.17-5.1-3.67-8.07-7.5-8.9
				h18.6L19.3,203.2c3.37,5,10.38,8.33,21.05,10h0.2c10.57,2.5,33.15,3.85,67.75,4.05C65.87,210.22,43.22,203.8,40.35,198L41.5,3.35
				H160.899z"/>
			<path fill="#5B685F" fill-opacity="0.298" d="M41.5,3.35L40.35,198c2.87,5.8,25.52,12.22,67.95,19.25
				c-34.6-0.2-57.18-1.55-67.75-4.05h-0.2c-10.67-1.67-17.68-5-21.05-10L21.7,3.35H41.5z"/>
			<path opacity="0.35" fill="#FFFFFF" fill-opacity="0.6941" enable-background="new    " d="M160.899,3.35H176.7V44.9
				c0,0.4,0,0.8,0,1.2c0,0.27,0,0.6,0,1v2.55h0.1l0.95,131.701l-11.5,2.549c-5.229,1.971-7.45,0.73-6.649-3.699L160.899,3.35z
				 M177.3,186.851l0.45,9.949c-4.33,3.27-10.181,5.051-17.55,5.35l0.199-11.899L177.3,186.851z"/>
			
				<path fill="none" stroke="#CCCCCC" stroke-width="0.75" stroke-linecap="round" stroke-linejoin="round" stroke-miterlimit="3" d="
				M176.7,3.35h19.1c-3.27,1.97-5.199,4.2-5.8,6.7c-0.53,1.47-0.8,2.35-0.8,2.65v5.55v2.3v174.2c0.3,4.399-0.75,8.319-3.15,11.75
				c-2.27,3.399-8.22,6.431-17.85,9.101c-42.9,8.77-85.52,9.319-127.85,1.649c-2.67-0.431-5.43-0.979-8.3-1.649
				c-5.27-1.17-9.52-2.73-12.75-4.701c-1.53-1.1-2.75-2.229-3.65-3.399c-2.07-2.5-3.47-5.149-4.2-7.95
				c-0.57-1.67-0.85-3.4-0.85-5.199V49.65V48.3v-3.4v-6.1V20.55v-2.3v-6c-1.17-5.1-3.67-8.07-7.5-8.9h18.6h19.8h119.399H176.7z"/>
		</g>
		<g>
			
				<path fill="none" stroke="#FFFFFF" stroke-width="0.75" stroke-linecap="round" stroke-linejoin="round" stroke-miterlimit="3" stroke-opacity="0.2471" d="
				M80.6,99.95c11.27,1.43,22.65,1.43,34.15,0 M80.6,85.3c11.27,1.43,22.65,1.43,34.15,0 M80.6,56.1c11.27,1.43,22.65,1.43,34.15,0
				 M80.6,70.75c11.27,1.4,22.65,1.4,34.15,0 M80.6,41.45c11.27,1.43,22.65,1.43,34.15,0 M80.6,143.851
				c11.27,1.43,22.65,1.43,34.15,0 M80.6,158.5c11.27,1.431,22.65,1.431,34.15,0 M80.6,173.149c11.27,1.431,22.65,1.431,34.15,0
				 M80.6,187.75c11.27,1.399,22.65,1.399,34.15,0 M80.6,114.601c11.27,1.43,22.65,1.43,34.15,0 M80.6,129.2
				c11.27,1.43,22.65,1.43,34.15,0"/>
		</g>
	</g>
</g>
<g id="Layer_3">
	<path fill="#FFFFFF" d="M170.668,181.332c0,0-73.667,9.333-139.667,1c-0.333-5.001,0-24,0-28.667c69,3.667,139.667-1,139.667-1
		V181.332z"/>
</g>
</svg>
