<?xml version="1.0" encoding="utf-8"?>
<!-- Generator: Adobe Illustrator 16.0.0, SVG Export Plug-In . SVG Version: 6.00 Build 0)  -->
<!DOCTYPE svg PUBLIC "-//W3C//DTD SVG 1.1//EN" "http://www.w3.org/Graphics/SVG/1.1/DTD/svg11.dtd">
<svg version="1.1" id="Layer_1" xmlns="http://www.w3.org/2000/svg" xmlns:xlink="http://www.w3.org/1999/xlink" x="0px" y="0px"
	 width="61.5px" height="38.75px" viewBox="0 0 61.5 38.75" enable-background="new 0 0 61.5 38.75" xml:space="preserve">
<g>
	<linearGradient id="SVGID_1_" gradientUnits="userSpaceOnUse" x1="23.2778" y1="26.2773" x2="32.4278" y2="7.0273">
		<stop  offset="0" style="stop-color:#000000"/>
		<stop  offset="0.3176" style="stop-color:#000000"/>
		<stop  offset="0.6431" style="stop-color:#737373"/>
		<stop  offset="0.8078" style="stop-color:#484848"/>
		<stop  offset="0.9333" style="stop-color:#000000"/>
		<stop  offset="1" style="stop-color:#000000"/>
	</linearGradient>
	<path fill-rule="evenodd" clip-rule="evenodd" fill="url(#SVGID_1_)" d="M13.45,21.5c0.23-3.97,1.05-7.52,2.45-10.65
		c1.3-2.9,3.52-5.67,6.65-8.3l0.05-0.2l0.15,0.1h0.05h0.1L44.4,12.8c-0.37-0.13-1.08,0.7-2.15,2.5c-1.13,1.7-2.3,3.78-3.5,6.25
		c-0.03,0.1-0.07,0.22-0.1,0.35c-0.97,1.93-1.75,3.72-2.35,5.35c-0.23,0.57-0.43,1.13-0.6,1.7c-0.6,1.63-0.85,2.63-0.75,3
		L13.8,21.85L13.45,21.5z"/>
	<path fill-rule="evenodd" clip-rule="evenodd" fill="#230003" d="M42.8,18.7c-0.5,1.3-1.13,2.73-1.9,4.3
		c-0.57,1.1-1.1,2.15-1.6,3.15c-0.53,0.97-1.02,1.88-1.45,2.75c-0.23,0.2-0.43,0.47-0.6,0.8c-1.13,1.77-1.85,2.55-2.15,2.35
		l-0.15-0.1c-0.1-0.37,0.15-1.37,0.75-3c0.17-0.57,0.37-1.13,0.6-1.7c0.6-1.63,1.38-3.42,2.35-5.35c0.03-0.13,0.07-0.25,0.1-0.35
		c1.2-2.47,2.37-4.55,3.5-6.25c1.07-1.8,1.78-2.63,2.15-2.5c0.33,0.2,0.17,1.17-0.5,2.9c0,0.07-0.02,0.17-0.05,0.3
		C43.55,16.83,43.2,17.73,42.8,18.7z"/>
	
		<linearGradient id="SVGID_2_" gradientUnits="userSpaceOnUse" x1="-486.4741" y1="149.0537" x2="-474.3865" y2="149.0537" gradientTransform="matrix(0.4327 -0.9015 0.9015 0.4327 117.0717 -475.4541)">
		<stop  offset="0.0471" style="stop-color:#6D6D6D"/>
		<stop  offset="0.1294" style="stop-color:#FFFFFF"/>
		<stop  offset="0.2235" style="stop-color:#757575"/>
		<stop  offset="0.3529" style="stop-color:#8C8C8C"/>
		<stop  offset="0.5647" style="stop-color:#999999"/>
		<stop  offset="0.6667" style="stop-color:#4A4A4A"/>
		<stop  offset="0.8392" style="stop-color:#242424"/>
		<stop  offset="0.949" style="stop-color:#6A6A6A"/>
		<stop  offset="1" style="stop-color:#000000"/>
	</linearGradient>
	<path fill-rule="evenodd" clip-rule="evenodd" fill="url(#SVGID_2_)" d="M47.05,20.7l-4.25-2c0.4-0.97,0.75-1.87,1.05-2.7
		c0.03-0.13,0.05-0.23,0.05-0.3l3.4,1.7L47.05,20.7z"/>
	<linearGradient id="SVGID_3_" gradientUnits="userSpaceOnUse" x1="45.373" y1="19.2598" x2="40.1031" y2="30.1494">
		<stop  offset="0.0471" style="stop-color:#6D6D6D"/>
		<stop  offset="0.1294" style="stop-color:#FFFFFF"/>
		<stop  offset="0.2235" style="stop-color:#757575"/>
		<stop  offset="0.3529" style="stop-color:#8C8C8C"/>
		<stop  offset="0.5647" style="stop-color:#999999"/>
		<stop  offset="0.6667" style="stop-color:#4A4A4A"/>
		<stop  offset="0.8392" style="stop-color:#242424"/>
		<stop  offset="0.949" style="stop-color:#6A6A6A"/>
		<stop  offset="1" style="stop-color:#000000"/>
	</linearGradient>
	<path fill-rule="evenodd" clip-rule="evenodd" fill="url(#SVGID_3_)" d="M47.3,20.8l-4.8,10.3l-4.65-2.2
		c0.43-0.87,0.92-1.78,1.45-2.75c0.5-1,1.03-2.05,1.6-3.15c0.77-1.57,1.4-3,1.9-4.3l4.25,2L47.3,20.8z"/>
	<linearGradient id="SVGID_4_" gradientUnits="userSpaceOnUse" x1="45.373" y1="19.2598" x2="40.1031" y2="30.1494">
		<stop  offset="0.0471" style="stop-color:#6D6D6D"/>
		<stop  offset="0.1294" style="stop-color:#FFFFFF"/>
		<stop  offset="0.2235" style="stop-color:#757575"/>
		<stop  offset="0.3529" style="stop-color:#8C8C8C"/>
		<stop  offset="0.5647" style="stop-color:#999999"/>
		<stop  offset="0.6667" style="stop-color:#4A4A4A"/>
		<stop  offset="0.8392" style="stop-color:#242424"/>
		<stop  offset="0.949" style="stop-color:#6A6A6A"/>
		<stop  offset="1" style="stop-color:#000000"/>
	</linearGradient>
	<path fill-rule="evenodd" clip-rule="evenodd" fill="url(#SVGID_4_)" d="M47.3,20.8l-4.8,10.3l-4.65-2.2
		c0.43-0.87,0.92-1.78,1.45-2.75c0.5-1,1.03-2.05,1.6-3.15c0.77-1.57,1.4-3,1.9-4.3l4.25,2L47.3,20.8z"/>
	<linearGradient id="SVGID_5_" gradientUnits="userSpaceOnUse" x1="58.9834" y1="25.9424" x2="53.7135" y2="36.832">
		<stop  offset="0.0471" style="stop-color:#6D6D6D"/>
		<stop  offset="0.1294" style="stop-color:#FFFFFF"/>
		<stop  offset="0.2235" style="stop-color:#757575"/>
		<stop  offset="0.3529" style="stop-color:#8C8C8C"/>
		<stop  offset="0.5647" style="stop-color:#999999"/>
		<stop  offset="0.6667" style="stop-color:#4A4A4A"/>
		<stop  offset="0.8392" style="stop-color:#242424"/>
		<stop  offset="0.949" style="stop-color:#6A6A6A"/>
		<stop  offset="1" style="stop-color:#000000"/>
	</linearGradient>
	<path fill-rule="evenodd" clip-rule="evenodd" fill="url(#SVGID_5_)" d="M50.85,35.25l4.9-10.35l4.1,1.95
		c1.27,3.93-0.33,7.38-4.8,10.35L50.85,35.25z"/>
	<linearGradient id="SVGID_6_" gradientUnits="userSpaceOnUse" x1="58.9834" y1="25.9424" x2="53.7135" y2="36.832">
		<stop  offset="0.0471" style="stop-color:#6D6D6D"/>
		<stop  offset="0.1294" style="stop-color:#FFFFFF"/>
		<stop  offset="0.2235" style="stop-color:#757575"/>
		<stop  offset="0.3529" style="stop-color:#8C8C8C"/>
		<stop  offset="0.5647" style="stop-color:#999999"/>
		<stop  offset="0.6667" style="stop-color:#4A4A4A"/>
		<stop  offset="0.8392" style="stop-color:#242424"/>
		<stop  offset="0.949" style="stop-color:#6A6A6A"/>
		<stop  offset="1" style="stop-color:#000000"/>
	</linearGradient>
	<path fill-rule="evenodd" clip-rule="evenodd" fill="url(#SVGID_6_)" d="M50.85,35.25l4.9-10.35l4.1,1.95
		c1.27,3.93-0.33,7.38-4.8,10.35L50.85,35.25z"/>
	
		<linearGradient id="SVGID_7_" gradientUnits="userSpaceOnUse" x1="-162.373" y1="-820.7822" x2="-150.2647" y2="-820.7822" gradientTransform="matrix(-0.448 0.894 -0.9008 -0.4344 -760.2363 -189.0264)">
		<stop  offset="0.0471" style="stop-color:#6D6D6D"/>
		<stop  offset="0.1294" style="stop-color:#FFFFFF"/>
		<stop  offset="0.2235" style="stop-color:#757575"/>
		<stop  offset="0.3529" style="stop-color:#8C8C8C"/>
		<stop  offset="0.5647" style="stop-color:#999999"/>
		<stop  offset="0.6667" style="stop-color:#4A4A4A"/>
		<stop  offset="0.8392" style="stop-color:#242424"/>
		<stop  offset="0.949" style="stop-color:#6A6A6A"/>
		<stop  offset="1" style="stop-color:#000000"/>
	</linearGradient>
	<polygon fill-rule="evenodd" clip-rule="evenodd" fill="url(#SVGID_7_)" points="42.5,31.1 47.3,20.8 55.75,24.9 50.85,35.25 	"/>
	
		<linearGradient id="SVGID_8_" gradientUnits="userSpaceOnUse" x1="-162.373" y1="-820.7822" x2="-150.2647" y2="-820.7822" gradientTransform="matrix(-0.448 0.894 -0.9008 -0.4344 -760.2363 -189.0264)">
		<stop  offset="0.0471" style="stop-color:#6D6D6D"/>
		<stop  offset="0.1294" style="stop-color:#FFFFFF"/>
		<stop  offset="0.2235" style="stop-color:#757575"/>
		<stop  offset="0.3529" style="stop-color:#8C8C8C"/>
		<stop  offset="0.5647" style="stop-color:#999999"/>
		<stop  offset="0.6667" style="stop-color:#4A4A4A"/>
		<stop  offset="0.8392" style="stop-color:#242424"/>
		<stop  offset="0.949" style="stop-color:#6A6A6A"/>
		<stop  offset="1" style="stop-color:#000000"/>
	</linearGradient>
	<polygon fill-rule="evenodd" clip-rule="evenodd" fill="url(#SVGID_8_)" points="42.5,31.1 47.3,20.8 55.75,24.9 50.85,35.25 	"/>
	<linearGradient id="SVGID_9_" gradientUnits="userSpaceOnUse" x1="13.3062" y1="2.8813" x2="10.0033" y2="16.0056">
		<stop  offset="0" style="stop-color:#000000"/>
		<stop  offset="0.1765" style="stop-color:#717171"/>
		<stop  offset="0.4784" style="stop-color:#808080"/>
		<stop  offset="0.6353" style="stop-color:#6F6F6F"/>
		<stop  offset="0.8706" style="stop-color:#6C6C6C"/>
		<stop  offset="1" style="stop-color:#6B6B6B"/>
	</linearGradient>
	<path fill-rule="evenodd" clip-rule="evenodd" fill="url(#SVGID_9_)" d="M15.9,10.85l-12.55-6c0.73-1.67,1.93-2.88,3.6-3.65
		L22.9,2.35l-0.15,0.1l-0.15-0.1l-0.05,0.2C19.42,5.18,17.2,7.95,15.9,10.85z"/>
	<linearGradient id="SVGID_10_" gradientUnits="userSpaceOnUse" x1="7.7144" y1="14.5166" x2="11.7926" y2="6.5432">
		<stop  offset="0" style="stop-color:#000000"/>
		<stop  offset="0.2706" style="stop-color:#000000"/>
		<stop  offset="0.7059" style="stop-color:#7D7D7D"/>
		<stop  offset="1" style="stop-color:#7E7E7E"/>
	</linearGradient>
	<path fill-rule="evenodd" clip-rule="evenodd" fill="url(#SVGID_10_)" d="M3.35,4.85l12.55,6c-1.4,3.13-2.22,6.68-2.45,10.65
		L2.15,11.05C2.12,8.58,2.52,6.52,3.35,4.85z"/>
</g>
</svg>
