<?xml version="1.0" encoding="utf-8"?>
<!-- Generator: Adobe Illustrator 16.0.0, SVG Export Plug-In . SVG Version: 6.00 Build 0)  -->
<!DOCTYPE svg PUBLIC "-//W3C//DTD SVG 1.1//EN" "http://www.w3.org/Graphics/SVG/1.1/DTD/svg11.dtd">
<svg version="1.1" id="Layer_1" xmlns="http://www.w3.org/2000/svg" xmlns:xlink="http://www.w3.org/1999/xlink" x="0px" y="0px"
	 width="62.75px" height="70.25px" viewBox="0 0 62.75 70.25" enable-background="new 0 0 62.75 70.25" xml:space="preserve">
<g>
	<g>
		<path fill-rule="evenodd" clip-rule="evenodd" d="M55.55,68.05c-0.67-0.63-1-1.4-1-2.3c0.07-3.63,0.13-12.1,0.2-25.4
			c0.1-11.23-4.52-17.37-13.85-18.4C29.1,20.85,16.67,16,3.6,7.4c-0.8-0.47-1.28-1.13-1.45-2C1.98,4.47,2.13,3.63,2.6,2.9
			c0.5-0.77,1.2-1.25,2.1-1.45c0.87-0.17,1.7,0,2.5,0.5C19.27,9.82,30.72,14.3,41.55,15.4c13.27,1.13,19.85,9.47,19.75,25
			c-0.1,13.33-0.17,21.82-0.2,25.45c0,0.87-0.33,1.62-1,2.25c-0.63,0.63-1.38,0.95-2.25,0.95C56.92,69.05,56.15,68.72,55.55,68.05z"
			/>
	</g>
	<g>
		<radialGradient id="SVGID_1_" cx="52.3496" cy="32.3999" r="14.5125" gradientUnits="userSpaceOnUse">
			<stop  offset="0" style="stop-color:#FFFFFF;stop-opacity:0.8235"/>
			<stop  offset="1" style="stop-color:#FFFFFF;stop-opacity:0"/>
		</radialGradient>
		<path fill-rule="evenodd" clip-rule="evenodd" fill="url(#SVGID_1_)" d="M47.45,19.4c-0.17-0.1-0.28-0.23-0.35-0.4
			c-0.07-0.2-0.07-0.35,0-0.45c0.1-0.2,0.23-0.32,0.4-0.35c0.17-0.1,0.35-0.1,0.55,0c8.97,4.63,12.73,14.52,11.3,29.65
			c0,0.2-0.07,0.35-0.2,0.45c-0.17,0.1-0.35,0.15-0.55,0.15c-0.17,0-0.28-0.07-0.35-0.2c-0.13-0.17-0.2-0.33-0.2-0.5
			C59.38,33.28,55.85,23.83,47.45,19.4z"/>
		<radialGradient id="SVGID_2_" cx="22.9502" cy="11.8501" r="15.1" gradientUnits="userSpaceOnUse">
			<stop  offset="0" style="stop-color:#FFFFFF;stop-opacity:0.8235"/>
			<stop  offset="1" style="stop-color:#FFFFFF;stop-opacity:0"/>
		</radialGradient>
		<path fill-rule="evenodd" clip-rule="evenodd" fill="url(#SVGID_2_)" d="M9.6,4.85c0.17,0,0.32,0.07,0.45,0.2
			c5.4,5.37,14.27,8.97,26.6,10.8c0.17,0.03,0.3,0.12,0.4,0.25c0.13,0.13,0.18,0.32,0.15,0.55c-0.07,0.17-0.17,0.28-0.3,0.35
			c-0.1,0.13-0.25,0.18-0.45,0.15C23.82,15.25,14.72,11.53,9.15,6c-0.13-0.13-0.2-0.3-0.2-0.5c0-0.17,0.07-0.32,0.2-0.45
			C9.28,4.92,9.43,4.85,9.6,4.85z"/>
	</g>
</g>
</svg>
