<?xml version="1.0" encoding="utf-8"?>
<!-- Generator: Adobe Illustrator 16.0.0, SVG Export Plug-In . SVG Version: 6.00 Build 0)  -->
<!DOCTYPE svg PUBLIC "-//W3C//DTD SVG 1.1//EN" "http://www.w3.org/Graphics/SVG/1.1/DTD/svg11.dtd">
<svg version="1.1" id="Layer_2" xmlns="http://www.w3.org/2000/svg" xmlns:xlink="http://www.w3.org/1999/xlink" x="0px" y="0px"
	 width="64px" height="325px" viewBox="-6 0 64 325" enable-background="new -6 0 64 325" xml:space="preserve">
<g>
	<g>
		<polygon fill-rule="evenodd" clip-rule="evenodd" fill="#F3B77A" points="31.25,22.35 20.75,22.35 19.65,21.35 30.6,21.35 		"/>
		<polygon fill-rule="evenodd" clip-rule="evenodd" fill="#DB7E57" points="20.75,22.35 20.75,277.15 19.65,277.15 19.65,21.35 		
			"/>
		<rect x="20.75" y="22.35" fill-rule="evenodd" clip-rule="evenodd" fill="#F7CCA2" width="10.5" height="254.8"/>
	</g>
	<g>
		<linearGradient id="SVGID_1_" gradientUnits="userSpaceOnUse" x1="7.7998" y1="160.9521" x2="44.2002" y2="160.9521">
			<stop  offset="0" style="stop-color:#999999;stop-opacity:0.5922"/>
			<stop  offset="0.0706" style="stop-color:#999999;stop-opacity:0.2627"/>
			<stop  offset="0.302" style="stop-color:#999999;stop-opacity:0.5216"/>
			<stop  offset="0.5647" style="stop-color:#BFBFBF;stop-opacity:0.251"/>
			<stop  offset="0.7412" style="stop-color:#B4B4B4;stop-opacity:0.4706"/>
			<stop  offset="1" style="stop-color:#747474;stop-opacity:0.3412"/>
		</linearGradient>
		<path fill-rule="evenodd" clip-rule="evenodd" fill="url(#SVGID_1_)" d="M19.25,43.4c5.3-1.67,10.38-1.52,15.25,0.45
			c4.93,1.97,8.17,6.68,9.7,14.15v194.3v10.35v17H7.8v-17V252.3V58.25C10.2,50.02,14.02,45.07,19.25,43.4z"/>
	</g>
	<g>
		<linearGradient id="SVGID_2_" gradientUnits="userSpaceOnUse" x1="-0.7002" y1="290.5742" x2="53.4004" y2="290.5742">
			<stop  offset="0" style="stop-color:#999999;stop-opacity:0.5922"/>
			<stop  offset="0.0706" style="stop-color:#999999;stop-opacity:0.2627"/>
			<stop  offset="0.302" style="stop-color:#999999;stop-opacity:0.5216"/>
			<stop  offset="0.5647" style="stop-color:#BFBFBF;stop-opacity:0.251"/>
			<stop  offset="0.7412" style="stop-color:#B4B4B4;stop-opacity:0.4706"/>
			<stop  offset="1" style="stop-color:#747474;stop-opacity:0.3412"/>
		</linearGradient>
		<path fill-rule="evenodd" clip-rule="evenodd" fill="url(#SVGID_2_)" d="M53.4,283.05v21.5H-0.7V284.9
			c0.2-4.67,2.82-7.43,7.85-8.3h37.7C49.75,276.77,52.6,278.92,53.4,283.05z"/>
	</g>
	<g>
		<radialGradient id="SVGID_3_" cx="49" cy="279.4502" r="7.8504" gradientUnits="userSpaceOnUse">
			<stop  offset="0" style="stop-color:#FFFFFF"/>
			<stop  offset="1" style="stop-color:#FDFDFD;stop-opacity:0"/>
		</radialGradient>
		<path fill-rule="evenodd" clip-rule="evenodd" fill="url(#SVGID_3_)" d="M51.85,288.15c-0.3-0.07-0.55-0.2-0.75-0.4
			c-0.23-0.23-0.32-0.5-0.25-0.8c0.3-2.83-0.42-4.9-2.15-6.2c-1.97-1.37-5.07-1.95-9.3-1.75c-0.37,0-0.62-0.07-0.75-0.2
			c-0.3-0.23-0.45-0.48-0.45-0.75c0-0.37,0.12-0.63,0.35-0.8c0.13-0.27,0.38-0.4,0.75-0.4c4.87-0.3,8.43,0.42,10.7,2.15
			c2.47,1.67,3.48,4.4,3.05,8.2c-0.07,0.27-0.22,0.52-0.45,0.75C52.4,288.18,52.15,288.25,51.85,288.15z"/>
		<radialGradient id="SVGID_4_" cx="22.3999" cy="277.5" r="14.0755" gradientUnits="userSpaceOnUse">
			<stop  offset="0" style="stop-color:#FFFFFF"/>
			<stop  offset="1" style="stop-color:#FDFDFD;stop-opacity:0"/>
		</radialGradient>
		<path fill-rule="evenodd" clip-rule="evenodd" fill="url(#SVGID_4_)" d="M8.65,276.7c0.23-0.2,0.48-0.3,0.75-0.3h26
			c0.27,0,0.52,0.1,0.75,0.3c0.2,0.23,0.3,0.5,0.3,0.8c0,0.27-0.1,0.52-0.3,0.75c-0.23,0.2-0.48,0.3-0.75,0.3h-26
			c-0.27,0-0.52-0.1-0.75-0.3c-0.2-0.23-0.3-0.48-0.3-0.75C8.35,277.2,8.45,276.93,8.65,276.7z"/>
	</g>
</g>
</svg>
