<?xml version="1.0" encoding="utf-8"?>
<!-- Generator: Adobe Illustrator 16.0.0, SVG Export Plug-In . SVG Version: 6.00 Build 0)  -->
<!DOCTYPE svg PUBLIC "-//W3C//DTD SVG 1.1//EN" "http://www.w3.org/Graphics/SVG/1.1/DTD/svg11.dtd">
<svg version="1.1" id="Layer_3" xmlns="http://www.w3.org/2000/svg" xmlns:xlink="http://www.w3.org/1999/xlink" x="0px" y="0px"
	 width="53px" height="325px" viewBox="0 0 53 325" enable-background="new 0 0 53 325" xml:space="preserve">
<g>
	<g>
		<g>
			
				<linearGradient id="SVGID_1_" gradientUnits="userSpaceOnUse" x1="-775.2954" y1="-249.98" x2="-678.822" y2="-249.98" gradientTransform="matrix(-0.928 -0.3726 0.3882 -0.9217 -547.2421 -479.1649)">
				<stop  offset="0" style="stop-color:#798585"/>
				<stop  offset="1" style="stop-color:#D5E0E0"/>
			</linearGradient>
			<polygon fill-rule="evenodd" clip-rule="evenodd" fill="url(#SVGID_1_)" points="50,22.1 3,22.1 3.4,18.85 3.4,18.8 49.2,18.8 
				49.2,18.85 			"/>
			<linearGradient id="SVGID_2_" gradientUnits="userSpaceOnUse" x1="18.8447" y1="336.4004" x2="34.2042" y2="8.3897">
				<stop  offset="0" style="stop-color:#7C8587"/>
				<stop  offset="1" style="stop-color:#D5E0E2"/>
			</linearGradient>
			<polygon fill-rule="evenodd" clip-rule="evenodd" fill="url(#SVGID_2_)" points="3,22.1 50,22.1 50.05,22.1 50.05,322.7 3,322.7 
							"/>
		</g>
		<g>
			<linearGradient id="SVGID_3_" gradientUnits="userSpaceOnUse" x1="38.5098" y1="23.2407" x2="16.3895" y2="2.1608">
				<stop  offset="0" style="stop-color:#7A8687"/>
				<stop  offset="1" style="stop-color:#D8E2E3"/>
			</linearGradient>
			<polygon fill-rule="evenodd" clip-rule="evenodd" fill="url(#SVGID_3_)" points="15.5,3.75 39.35,3.75 39.35,21.6 15.5,21.6 
				15.5,3.8 			"/>
			
				<linearGradient id="SVGID_4_" gradientUnits="userSpaceOnUse" x1="-685.8076" y1="-367.6685" x2="-654.4218" y2="-367.6685" gradientTransform="matrix(-0.9997 -0.0263 0.0154 -0.9999 -640.0123 -382.4395)">
				<stop  offset="0" style="stop-color:#7D8685"/>
				<stop  offset="1" style="stop-color:#DEE8E7"/>
			</linearGradient>
			<polygon fill-rule="evenodd" clip-rule="evenodd" fill="url(#SVGID_4_)" points="39.35,3.75 15.5,3.75 15.65,2.05 39,2.05 			"/>
		</g>
		<g>
			<radialGradient id="SVGID_5_" cx="26.874" cy="22.1001" r="21.2124" gradientUnits="userSpaceOnUse">
				<stop  offset="0" style="stop-color:#FFFFFF;stop-opacity:0.6"/>
				<stop  offset="1" style="stop-color:#EAEAEA;stop-opacity:0"/>
			</radialGradient>
			<path fill-rule="evenodd" clip-rule="evenodd" fill="url(#SVGID_5_)" d="M5.5,22c0.03-0.07,0.07-0.07,0.1,0h42.5
				c0.03-0.07,0.07-0.07,0.1,0c0.07,0.03,0.1,0.07,0.1,0.1c0,0.07-0.03,0.12-0.1,0.15c-0.03,0.03-0.07,0.05-0.1,0.05H5.6
				c-0.03,0-0.07-0.02-0.1-0.05c-0.07-0.03-0.07-0.08,0-0.15C5.43,22.07,5.43,22.03,5.5,22z"/>
			<radialGradient id="SVGID_6_" cx="40.6992" cy="101.8506" r="160.75" gradientUnits="userSpaceOnUse">
				<stop  offset="0" style="stop-color:#FFFFFF;stop-opacity:0.6"/>
				<stop  offset="1" style="stop-color:#EAEAEA;stop-opacity:0"/>
			</radialGradient>
			<path fill-rule="evenodd" clip-rule="evenodd" fill="url(#SVGID_6_)" d="M49,22.95c0.13,0.13,0.2,0.3,0.2,0.5V323.1h-1.3V23.45
				c0-0.2,0.07-0.37,0.2-0.5c0.13-0.13,0.28-0.2,0.45-0.2S48.87,22.82,49,22.95z"/>
		</g>
	</g>
</g>
</svg>
