<?xml version="1.0" encoding="utf-8"?>
<!-- Generator: Adobe Illustrator 16.0.0, SVG Export Plug-In . SVG Version: 6.00 Build 0)  -->
<!DOCTYPE svg PUBLIC "-//W3C//DTD SVG 1.1//EN" "http://www.w3.org/Graphics/SVG/1.1/DTD/svg11.dtd">
<svg version="1.1" id="Layer_1" xmlns="http://www.w3.org/2000/svg" xmlns:xlink="http://www.w3.org/1999/xlink" x="0px" y="0px"
	 width="216px" height="174px" viewBox="0 0 216 174" enable-background="new 0 0 216 174" xml:space="preserve">
<g>
	<g>
		<path fill-rule="evenodd" clip-rule="evenodd" fill="#A5ABAB" d="M11.5,153.5h-0.1c-0.6-0.2-1-0.5-1.2-0.8v-0.4V152V42.9V22.6
			c0-2.6,0.5-5,1.5-7.1c0.2-0.5,0.5-0.9,0.8-1.3c0.2-0.3,0.4-0.7,0.6-1c0.6-0.9,1.3-1.7,2.1-2.5c0.7-0.7,1.3-1.3,1.8-1.6H17
			c1.2-1.4,3.3-2.3,6.3-2.9C24.5,6,25.7,5.9,27,5.9h166c4.6,0,8.6,1.6,11.9,4.9c3.1,3.1,4.8,6.8,4.9,11.1v0.8v18.1v111.6h0.1
			c0,0,0,0.1-0.1,0.1c-1,1.8-5.7,2.5-14.3,2.3c-9.1,0-14.1-0.8-14.8-2.3l0-98.1v-4.6h0c0-4.9-0.4-8.4-1.3-10.4
			c-1.2-2.4-3.3-4.2-6.3-5.3l-0.3,0l0-0.1c-0.4-0.1-0.8-0.2-1.2-0.3c-0.9-0.2-1.9-0.4-2.9-0.4H51c-1.2,0-2.4,0.1-3.5,0.5
			c-1,0.3-1.9,0.7-2.8,1.3c-0.5,0.3-0.9,0.6-1.4,1c-0.3,0.2-0.5,0.4-0.8,0.7c-0.1,0.1-0.2,0.2-0.3,0.3v0c-0.4,0.4-0.8,0.8-1,1.3
			c-0.6,0.8-1.1,1.7-1.5,2.6c-0.5,1.2-0.7,2.6-0.7,4v10.2v96.3c0.1,0.5,0.1,1,0,1.3c-1.2,0.9-4.6,1.5-10.3,1.8l-6.6,0.1l0.4-0.1
			l-2,0C17.5,154.6,14.6,154.2,11.5,153.5z M180.7,152.6l0,0.1C180.7,152.8,180.7,152.7,180.7,152.6L180.7,152.6z"/>
		<path fill-rule="evenodd" clip-rule="evenodd" fill="none" d="M10.2,152v0.4 M11.4,153.5l-0.3,0.5"/>
		<path fill-rule="evenodd" clip-rule="evenodd" fill="none" d="M10.2,152.4v0.4c0.2,0.3,0.6,0.6,1.2,0.8h0.1"/>
	</g>
	<g>
		
			<radialGradient id="SVGID_1_" cx="-506.3105" cy="-55.2788" r="32.3303" gradientTransform="matrix(-0.8108 -0.5853 -0.4334 0.6004 -267.2273 -216.1639)" gradientUnits="userSpaceOnUse">
			<stop  offset="0" style="stop-color:#FFFFFF;stop-opacity:0"/>
			<stop  offset="0.5412" style="stop-color:#FFFFFF;stop-opacity:0"/>
			<stop  offset="0.7882" style="stop-color:#FFFFFF;stop-opacity:0.298"/>
			<stop  offset="1" style="stop-color:#FFFFFF"/>
		</radialGradient>
		<path fill-rule="evenodd" clip-rule="evenodd" fill="url(#SVGID_1_)" d="M159,47.5c-0.5-0.5-1.1-1-1.6-1.6
			c0.5-0.4,1.1-0.7,1.6-1.1V47.5z"/>
		<g>
			<g>
				<radialGradient id="SVGID_2_" cx="24.8252" cy="152.5" r="14.6499" gradientUnits="userSpaceOnUse">
					<stop  offset="0" style="stop-color:#FFFFFF"/>
					<stop  offset="1" style="stop-color:#FDFDFD;stop-opacity:0"/>
				</radialGradient>
				<path fill-rule="evenodd" clip-rule="evenodd" fill="url(#SVGID_2_)" d="M10.3,152.6c-0.1-0.1-0.1-0.2-0.1-0.3
					c0-0.7,1.4-1.2,4.3-1.6c0.2,0,0.5-0.1,0.8-0.1c6.1-0.6,12.5-0.6,19.1,0h0.1c0.1,0,0.1,0,0.2,0.1h0.1c0.2,0,0.3,0,0.4,0
					c2.9,0.4,4.3,1,4.3,1.6c0,0.1,0,0.1,0,0.2c0,0-0.1,0-0.1,0c0,0,0,0.1-0.1,0.1c0,0,0-0.1,0-0.1v-0.1c0,0,0-0.1,0-0.1
					c0-0.6-1.4-1-4.2-1.4c-0.1,0-0.3-0.1-0.5-0.1c-0.1,0-0.2,0-0.3,0c-6.7-0.6-13.1-0.6-19.1,0c-0.2,0-0.5,0-0.7,0.1
					c-2.8,0.4-4.1,0.9-4.1,1.4c0,0,0,0.1,0,0.1c0,0,0.1,0,0.1,0.1c0,0-0.1,0-0.1,0S10.4,152.7,10.3,152.6L10.3,152.6z"/>
				<radialGradient id="SVGID_3_" cx="195.375" cy="152.5" r="14.5997" gradientUnits="userSpaceOnUse">
					<stop  offset="0" style="stop-color:#FFFFFF"/>
					<stop  offset="1" style="stop-color:#FDFDFD;stop-opacity:0"/>
				</radialGradient>
				<path fill-rule="evenodd" clip-rule="evenodd" fill="url(#SVGID_3_)" d="M185,150.8c0.2,0,0.5-0.1,0.7-0.1
					c6.1-0.6,12.5-0.6,19.2,0h0c0.1,0,0.1,0,0.3,0.1h0c0.1,0,0.3,0,0.4,0c2.9,0.4,4.3,1,4.3,1.6c0,0.1,0,0.1,0,0.2c0,0,0,0,0,0
					l-0.1,0.1c0,0,0-0.1,0-0.1c0,0,0,0,0-0.1c0,0,0-0.1,0-0.1c0-0.6-1.4-1-4.2-1.4c-0.1,0-0.3-0.1-0.5-0.1c-0.1,0-0.2,0-0.3,0
					c-6.7-0.6-13.1-0.6-19.1,0c-0.3,0-0.5,0-0.7,0.1c-2.8,0.4-4.2,0.9-4.2,1.4c0,0,0,0.1,0,0.1c0,0,0,0,0,0.1c0,0,0,0,0,0l0,0.1
					c0,0-0.1-0.1-0.1-0.1c0-0.1,0-0.2,0-0.3C180.7,151.7,182.2,151.2,185,150.8z"/>
			</g>
			<g>
				<path fill-rule="evenodd" clip-rule="evenodd" fill="#AC797E" d="M193.2,138.2c0,0.1,0.1,0.2,0.1,0.3c0,0.4-0.2,0.8-0.5,1.3
					c-0.4,0.4-0.7,0.6-1,0.6c-0.1,0-0.2-0.1-0.3-0.3c-0.1-0.2-0.2-0.3-0.5-0.4c-0.2-0.1-0.5-0.1-0.7-0.3c-0.4-0.1-0.5-0.3-0.5-0.5
					c0-0.2,0-0.3,0.2-0.5c0.3-0.3,0.5-0.5,0.8-0.6c0.3-0.2,0.6-0.3,0.9-0.3c0.4,0,0.8,0.2,1.3,0.5C193,138.1,193,138.2,193.2,138.2z
					 M192.2,138h-0.8l-0.4,0.2c0,0.1,0,0.1,0,0.3c0,0.1,0.1,0.2,0.2,0.3c0.1,0.1,0.3,0.1,0.4,0.1c0.3,0,0.5-0.2,0.7-0.6V138z"/>
				<path fill-rule="evenodd" clip-rule="evenodd" fill="#B3898A" d="M192.2,138v0.3c-0.2,0.4-0.4,0.6-0.7,0.6c-0.1,0-0.2,0-0.4-0.1
					c-0.1-0.1-0.2-0.2-0.2-0.3c0-0.1,0-0.2,0-0.3l0.4-0.2H192.2z"/>
				<path fill-rule="evenodd" clip-rule="evenodd" fill="#A4787D" d="M193.7,139.7c0,0,0.1-0.1,0.2-0.1c0.4-0.1,0.6-0.1,0.8-0.1
					c0,0,0.1,0,0.1,0c0.8,0,1.2,0.3,1.2,0.9c0,0.3-0.4,0.5-1.1,0.6h-0.7c0-0.2,0.1-0.4,0.2-0.4v-0.3l-1-0.2
					C193.4,140,193.5,139.8,193.7,139.7z"/>
				<path fill-rule="evenodd" clip-rule="evenodd" fill="#AC888D" d="M190.5,140.8c-0.9-0.1-1.4-0.4-1.5-1v-0.4c0.3-0.4,0.6-0.7,1-1
					c-0.1,0.2-0.2,0.3-0.2,0.5c0,0.2,0.2,0.3,0.5,0.5c0.2,0.1,0.4,0.2,0.7,0.3c0.2,0.1,0.4,0.3,0.5,0.4c0,0.2,0.1,0.3,0.3,0.3
					c0.3,0,0.7-0.2,1-0.6c0.3-0.4,0.5-0.8,0.5-1.3c0-0.1-0.1-0.2-0.1-0.3c0.3,0.2,0.6,0.3,0.7,0.3c0.4,0,1-0.1,1.7-0.4
					c0.7-0.2,1.5-0.4,2.2-0.4c0.1,0,0.3,0,0.4,0c-0.1,0.2-0.1,0.5-0.1,0.9c0,0.5,0.1,1.1,0.4,1.8c0.3,0.7,0.4,1.1,0.4,1.2
					c0,0.3-0.5,0.6-1.6,0.9c-1.1,0.4-1.7,0.8-1.7,1.3c0,0.1,0.2,0.3,0.5,0.5c0.3,0.2,0.4,0.4,0.4,0.6c-0.4,0-0.8,0-1,0.1
					c-0.4,0.1-0.7,0.3-0.7,0.5c0,0.4,0.4,0.8,1.2,1.1c0.3,0.1,0.8,0.2,1.5,0.4c0.9,0.2,1.5,0.4,1.6,0.6c0.1,0.1,0.2,0.4,0.2,0.9
					c0,0.1-0.2,0.5-0.7,1c-0.5,0.5-0.8,1-0.8,1.5c0,0.2,0,0.5,0,0.7c-0.3-0.1-0.6-0.3-0.8-0.5c-0.3-0.3-0.5-0.6-0.5-1
					c0-0.2,0.1-0.5,0.2-0.7c0.1-0.3,0.1-0.5,0.1-0.8c0-0.8-0.9-1.7-2.6-2.6c-1.8-1-2.7-1.8-2.7-2.4c0-0.4,0.5-0.7,1.6-0.9
					c1.1-0.3,1.8-0.6,2-0.9l-1.3-0.7c-0.5-0.3-0.9-0.5-1.3-0.6c-0.4-0.1-0.6-0.1-0.6,0.1c-0.2,0-0.4,0-0.7,0
					c-0.3,0.1-0.5,0.1-0.6,0.1C190.7,140.8,190.6,140.8,190.5,140.8z M193.7,139.7c-0.2,0.1-0.3,0.3-0.2,0.4l1,0.2v0.3
					c-0.1,0-0.2,0.2-0.2,0.4h0.7c0.7-0.1,1.1-0.4,1.1-0.6c0-0.6-0.4-0.9-1.2-0.9c0,0-0.1,0-0.1,0c-0.2,0-0.5,0-0.8,0.1
					C193.8,139.6,193.7,139.7,193.7,139.7z M193.8,144.4c0.4,0,0.6-0.1,0.6-0.3c0-0.2-0.3-0.3-0.8-0.4s-0.9-0.2-1.1-0.1
					c0,0,0,0.1,0,0.1c0,0.2,0.1,0.4,0.5,0.5C193.2,144.3,193.5,144.4,193.8,144.4z M197.7,139.9c0-0.1-0.1-0.3-0.3-0.5
					c-0.1-0.2-0.3-0.4-0.5-0.4c-0.2,0.1-0.3,0.2-0.3,0.3c0,0.2,0.1,0.4,0.2,0.6c0.1,0.2,0.3,0.3,0.4,0.3
					C197.6,140.1,197.7,140,197.7,139.9z"/>
				<path fill-rule="evenodd" clip-rule="evenodd" fill="#BE8F9B" d="M198.2,153c-0.3,0.1-0.5,0.3-0.7,0.7c-0.2,0.4-0.4,0.9-0.4,1.5
					c0-0.1,0-0.1,0-0.2c0-0.2,0-0.4,0.1-0.6c0.1-0.2,0.1-0.4,0.1-0.6c0-0.2,0-0.3,0-0.4c-0.1-0.1-0.2-0.1-0.4-0.1
					c-0.3,0-0.6,0.2-1,0.6c-0.4,0.4-0.8,0.6-1.3,0.6c-0.4,0-0.9-0.3-1.5-0.9c-0.2-0.2-0.3-0.4-0.5-0.5c-0.3-0.4-0.4-0.8-0.4-1.2
					c0-0.1,0.1-0.4,0.3-0.9c0.2-0.5,0.3-1,0.3-1.5c0-0.9-0.5-1.6-1.4-2.3c-1-0.7-1.5-1.2-1.5-1.5c0-0.6,0.3-1.1,0.8-1.5
					c0.4-0.5,0.6-0.7,0.6-0.8c0-0.5-0.3-0.9-1-1.2c-0.7-0.4-1-0.6-1-0.6c0-0.2,0.2-0.4,0.6-0.6c0.3-0.1,0.5-0.3,0.6-0.5
					c0.1,0,0.2,0,0.3,0c0.1,0,0.3,0,0.6-0.1c0.3,0,0.5,0,0.7,0c0-0.2,0.2-0.2,0.6-0.1c0.4,0.1,0.8,0.3,1.3,0.6l1.3,0.7
					c-0.2,0.3-0.9,0.6-2,0.9c-1,0.2-1.6,0.5-1.6,0.9c0,0.6,0.9,1.4,2.7,2.4c1.7,0.9,2.6,1.8,2.6,2.6c0,0.3,0,0.5-0.1,0.8
					c-0.1,0.2-0.2,0.5-0.2,0.7c0,0.4,0.2,0.7,0.5,1c0.2,0.2,0.5,0.4,0.8,0.5C197.9,152.2,198,152.6,198.2,153z"/>
				<path fill-rule="evenodd" clip-rule="evenodd" fill="#C69BA7" d="M192.6,153.2c-0.3,0.4-0.6,0.6-0.9,0.8
					c-0.4,0.1-0.6,0.3-0.6,0.3l0.1,0.3c0,0.1-0.1,0.2-0.3,0.3c-0.2,0-0.4,0.1-0.6,0.1c-0.1,0-0.1,0-0.2,0c-1.4,0-2.2-0.3-2.2-1
					c0-0.2,0.4-0.8,1.1-1.9c0.7-1.1,1.1-2,1.1-2.8c0-0.6-0.6-1.2-1.8-1.8c-1.2-0.6-1.8-1.5-1.8-2.6c0-0.5,0.2-0.9,0.5-1.3
					c0.3-0.4,0.5-0.7,0.5-0.9c0-0.3-0.1-0.5-0.3-0.9v0c0.4-0.5,0.8-1.1,1.2-1.8c0.2-0.3,0.4-0.5,0.7-0.8v0.4c0.1,0.6,0.6,0.9,1.5,1
					c-0.1,0.2-0.3,0.3-0.6,0.5c-0.4,0.2-0.6,0.4-0.6,0.6c0,0,0.3,0.2,1,0.6c0.7,0.3,1,0.7,1,1.2c0,0-0.2,0.3-0.6,0.8
					c-0.5,0.4-0.8,0.9-0.8,1.5c0,0.3,0.5,0.8,1.5,1.5c0.9,0.7,1.4,1.4,1.4,2.3c0,0.4-0.1,0.9-0.3,1.5c-0.2,0.5-0.3,0.9-0.3,0.9
					C192.2,152.4,192.3,152.8,192.6,153.2z"/>
				<path fill-rule="evenodd" clip-rule="evenodd" fill="#CCA3B4" d="M197.1,155.3c0,0.1,0,0.1,0.1,0.2c0.1,0.2,0.4,0.4,0.8,0.6
					c0.2,0.1,0.5,0.2,0.8,0.4c0.5,0.2,1.1,0.3,1.7,0.4c0.1,0,1.3-0.1,3.5-0.3c0.7,0,1.4,0.4,2.2,1.3c0.9,1,1.7,1.7,2.5,2.2
					c-0.2,0.2-0.4,0.5-0.8,0.8c-0.4,0.3-0.6,0.6-0.8,0.9c-1.1-0.1-2-0.4-2.8-1c-0.3-0.3-0.6-0.6-0.9-0.9c-0.1-0.2-0.3-0.4-0.4-0.5
					c-0.9-1-2.2-1.5-3.8-1.5c0,0-1,0.1-2.9,0.5h0c-0.5,0-0.8,0-0.9-0.1c-0.1,0-0.2-0.2-0.3-0.4c-0.3-0.4-0.5-0.6-0.7-0.6
					c-0.7-0.2-1.6-0.3-2.9-0.3l-0.7,0.1c-1.9,0-2.8-0.5-2.8-1.4c0-0.3-0.2-0.5-0.5-0.8c-0.1,0-0.2-0.1-0.3-0.1
					c-0.1-0.1-0.2-0.1-0.3-0.1c-0.6-0.3-1-0.6-1-0.9c0-0.3,0.3-0.6,0.8-1c0.6-0.4,0.8-1,0.8-1.9c0-1-0.4-2.1-1.3-3.2
					c-0.8-1.1-1.2-2.1-1.2-2.8c0-0.2,0-0.4,0-0.6c0.4-0.6,1-1.3,1.7-2.3v0c0.2,0.3,0.3,0.6,0.3,0.9c0,0.2-0.2,0.5-0.5,0.9
					c-0.3,0.4-0.5,0.8-0.5,1.3c0,1.1,0.6,1.9,1.8,2.6c1.2,0.6,1.8,1.2,1.8,1.8c0,0.8-0.4,1.7-1.1,2.8c-0.7,1.1-1.1,1.7-1.1,1.9
					c0,0.7,0.7,1,2.2,1c0.1,0,0.1,0,0.2,0c0.2,0,0.4-0.1,0.6-0.1c0.2-0.1,0.3-0.2,0.3-0.3l-0.1-0.3c0-0.1,0.2-0.2,0.6-0.3
					c0.3-0.1,0.6-0.4,0.9-0.8c0.1,0.2,0.3,0.3,0.5,0.5c0.6,0.6,1.1,0.9,1.5,0.9c0.4,0,0.8-0.2,1.3-0.6c0.4-0.4,0.8-0.6,1-0.6
					c0.2,0,0.3,0.1,0.4,0.1c0,0,0,0.2,0,0.4c0,0.2,0,0.4-0.1,0.6c-0.1,0.2-0.1,0.4-0.1,0.6C197,155.1,197.1,155.2,197.1,155.3z"/>
				<path fill-rule="evenodd" clip-rule="evenodd" fill="#A97882" d="M209.2,154.3c-0.9,0.1-1.9,0.3-2.9,0.6c-2.2,0.6-3.3,1-3.5,1
					c-2.5,0-4-0.9-4.6-2.8c-0.2-0.4-0.3-0.9-0.3-1.4c0-0.2,0-0.5,0-0.7c0-0.5,0.3-1,0.8-1.5c0.5-0.5,0.7-0.8,0.7-1
					c0-0.5-0.1-0.8-0.2-0.9c-0.2-0.2-0.8-0.4-1.6-0.6c-0.7-0.2-1.2-0.3-1.5-0.4c-0.8-0.3-1.2-0.6-1.2-1.1c0-0.3,0.2-0.4,0.7-0.5
					c0.3-0.1,0.6-0.1,1-0.1c0-0.2-0.1-0.4-0.4-0.6c-0.3-0.2-0.5-0.4-0.5-0.5c0-0.5,0.6-0.9,1.7-1.3c1.1-0.3,1.6-0.6,1.6-0.9
					c0-0.1-0.1-0.5-0.4-1.2c-0.3-0.7-0.4-1.3-0.4-1.8c0-0.4,0-0.7,0.1-0.9c0,0,0.1,0,0.2,0c0.3,0,0.6,0.1,0.9,0.2
					c0,0-0.1,0.1-0.1,0.1c-0.1,0.1-0.1,0.3-0.1,0.5c0,0.8,0.2,1.6,0.7,2.4c0.5,0.8,0.7,1.2,0.7,1.3c0,0.1-0.4,0.4-1.1,0.8
					s-1.2,0.7-1.2,1c0,0.4,0.1,0.9,0.4,1.3c0.4,0.6,0.6,1,0.7,1.4c0,0.1,0.2,0.5,0.5,1.3c0.3,0.7,0.5,1.1,0.5,1.3l-0.3,1.6
					c0,0.7,0.1,1.3,0.3,1.8c0.3,1,0.9,1.5,1.8,1.5c0.9,0,1.9-0.2,3.1-0.5c1.2-0.4,2.2-0.5,3.1-0.5c0.1,0,0.5,0,1,0
					C209,153.3,209,153.7,209.2,154.3z M193.8,144.4c-0.3,0-0.5-0.1-0.8-0.2c-0.3-0.2-0.5-0.4-0.5-0.5c0,0,0-0.1,0-0.1
					c0.3-0.1,0.6,0,1.1,0.1s0.8,0.3,0.8,0.4C194.3,144.3,194.2,144.4,193.8,144.4z"/>
				<path fill-rule="evenodd" clip-rule="evenodd" fill="#E4C5D4" d="M203.2,159.2c-0.2,0.1-0.5,0.3-1,0.5c-0.8,0.4-1.2,0.8-1.2,1.2
					c0,0.4,0.3,0.5,0.8,0.5c0.5,0,1-0.1,1.5-0.5c0.3-0.2,0.7-0.4,1.1-0.4c0.8,0.6,1.7,1,2.8,1c-0.1,0.1-0.1,0.1-0.2,0.2
					c0,0.1-0.1,0.3-0.1,0.4c-0.6-0.1-1.2-0.2-1.8-0.3c-1.4-0.2-2.1-0.2-2.1,0c-1.2,0-2.2,0.2-3.2,0.5c-1,0.3-1.6,0.4-1.8,0.4
					c-0.6,0-1.1-0.3-1.5-0.9c-0.3-0.6-0.5-1.1-0.5-1.6l0.3-0.9c0-0.2-0.1-0.3-0.2-0.4c-0.1-0.2-0.3-0.3-0.5-0.3
					c-0.4,0-0.9,0.1-1.5,0.3c-0.6,0.2-1.2,0.3-2,0.3c-1.4,0-3.1-0.6-5-1.9c-1.9-1.3-3-1.9-3.1-1.9c-0.6,0-1.3,0.3-2.3,1
					c-0.6,0.4-1,0.7-1.3,0.9c0.1-0.3,0.3-0.7,0.6-1.1c0.5-0.8,0.8-1.3,0.8-1.4c0,0-0.1-0.7-0.5-1.9c0-0.4,0.1-0.8,0.3-1.1
					c0.1-0.2,0.2-0.4,0.2-0.5c0.1-0.1,0.1-0.3,0-0.5c-0.1-0.2,0.1-0.7,0.6-1.3c0.4-0.6,0.8-0.9,1.1-1.1c0.3-0.2,0.4-0.3,0.5-0.4
					c0-0.7,0.1-1.3,0.1-1.8c0-0.3,0.1-0.6,0.2-0.8c0.1,0.6,0.1,1.2,0,1.7c0,1,0.3,1.8,1,2.3c0.7,0.5,1,0.9,1,1.3
					c0,0.5-0.4,1-1.3,1.6c-0.9,0.6-1.3,1-1.3,1.4c0,0.3,0.4,0.5,1.1,0.5c1.1,0.1,1.9,0.2,2.3,0.3c0.1,0,0.2,0.1,0.3,0.1
					c0.3,0.3,0.5,0.5,0.5,0.8c0,0.9,0.9,1.4,2.8,1.4l0.7-0.1c1.3,0,2.2,0.1,2.9,0.3c0.2,0,0.4,0.2,0.7,0.6c0.1,0.3,0.3,0.4,0.3,0.4
					c0.1,0,0.4,0.1,0.9,0.1h0c1.9-0.3,2.9-0.5,2.9-0.5C201,157.8,202.3,158.2,203.2,159.2z M197.7,159.9c0,0.2,0.1,0.3,0.3,0.3
					c0.1,0,0.3,0,0.6,0c0.7,0,1.3-0.1,1.8-0.2c0.5-0.1,0.7-0.3,0.7-0.4c0-0.2-0.2-0.3-0.7-0.3v0.1c-0.2,0.2-0.7,0.3-1.3,0.3
					c-0.1,0-0.1,0-0.2,0C198.1,159.6,197.8,159.7,197.7,159.9z"/>
				<path fill-rule="evenodd" clip-rule="evenodd" fill="#D0B2BC" d="M185.5,144.1c0,0.2,0,0.4,0,0.6c0,0.8,0.4,1.7,1.2,2.8
					c0.8,1.1,1.3,2.2,1.3,3.2c0,0.9-0.3,1.5-0.8,1.9c-0.5,0.4-0.8,0.7-0.8,1c0,0.3,0.3,0.6,1,0.9c0.1,0,0.2,0,0.3,0.1
					c-0.4-0.1-1.2-0.2-2.3-0.3c-0.8-0.1-1.1-0.3-1.1-0.5c0-0.3,0.4-0.8,1.3-1.4c0.9-0.6,1.3-1.1,1.3-1.6c0-0.4-0.3-0.8-1-1.3
					c-0.7-0.5-1-1.3-1-2.3c0-0.5,0-1.1,0-1.7c0.1-0.4,0.3-0.7,0.5-1C185.1,144.4,185.3,144.3,185.5,144.1z"/>
				<path fill-rule="evenodd" clip-rule="evenodd" fill="#FDF6FC" d="M180.7,157.4c0.3-0.2,0.7-0.5,1.3-0.9c0,0,0,0.1-0.1,0.1
					c-0.1,0.2-0.1,0.3-0.1,0.4c0,0.5,0.3,1.1,0.8,2c0.5,0.8,0.9,1.3,1.2,1.5c0.2,0.1,0.8,0.3,1.8,0.6c1,0.2,1.6,0.4,1.8,0.4
					s0.6-0.1,1-0.2c0.5-0.1,0.9-0.2,1.3-0.2c0.8,0,1.4,0.2,1.8,0.6c0.1,0.1,0.3,0.5,0.8,1.3c0.7,1.3,2.3,1.9,4.7,1.9
					c1.5,0,3-0.4,4.5-1.1c1.5-0.7,2.3-1,2.3-1c0.3,0,0.8,0.3,1.4,0.9c0.3,0.3,0.5,0.5,0.7,0.7c-0.1,0.1-0.2,0.3-0.3,0.4
					c-0.6,0.6-1.4,0.9-2.3,0.9c-0.1,0-0.6,0-1.4-0.1c-0.8-0.1-1.7-0.2-2.6-0.2c-0.9,0-1.9,0.2-3.1,0.5c-1.1,0.3-2.1,0.5-3,0.5
					c-1.1,0-2.4-0.5-3.8-1.4c-1.8-1.1-3.1-1.8-4-2.1c-1.4-0.4-2.6-1-3.4-1.8c-0.9-0.8-1.4-1.8-1.4-2.9
					C180.5,157.9,180.5,157.6,180.7,157.4z"/>
				<path fill-rule="evenodd" clip-rule="evenodd" fill="#F2D8E8" d="M205.7,164.4c-0.2-0.2-0.4-0.4-0.7-0.7
					c-0.6-0.6-1.1-0.9-1.4-0.9c0,0-0.8,0.3-2.3,1c-1.5,0.7-3,1.1-4.5,1.1c-2.4,0-4-0.6-4.7-1.9c-0.5-0.8-0.7-1.2-0.8-1.3
					c-0.4-0.4-0.9-0.6-1.8-0.6c-0.4,0-0.8,0.1-1.3,0.2c-0.4,0.1-0.7,0.2-1,0.2s-0.8-0.1-1.8-0.4c-1-0.3-1.7-0.5-1.8-0.6
					c-0.3-0.2-0.7-0.8-1.2-1.5c-0.5-0.9-0.8-1.5-0.8-2c0-0.1,0-0.2,0.1-0.4c0,0,0.1-0.1,0.1-0.1c1-0.7,1.7-1,2.3-1
					c0.2,0,1.2,0.6,3.1,1.9c1.9,1.3,3.6,1.9,5,1.9c0.7,0,1.4-0.1,2-0.3c0.6-0.2,1.1-0.3,1.5-0.3c0.2,0,0.3,0.1,0.5,0.3
					c0.1,0.1,0.2,0.3,0.2,0.4l-0.3,0.9c0,0.5,0.2,1,0.5,1.6c0.4,0.6,0.9,0.9,1.5,0.9c0.2,0,0.8-0.1,1.8-0.4c1-0.3,2-0.5,3.2-0.5
					c0-0.2,0.7-0.1,2.1,0c0.5,0.1,1.1,0.2,1.8,0.3C206.5,163.1,206.1,163.8,205.7,164.4z"/>
				<path fill-rule="evenodd" clip-rule="evenodd" fill="#B0939A" d="M197.7,139.9c0,0.2-0.1,0.3-0.4,0.3c-0.2,0-0.3-0.1-0.4-0.3
					c-0.1-0.2-0.2-0.4-0.2-0.6c0-0.1,0.1-0.2,0.3-0.3c0.2,0,0.3,0.1,0.5,0.4C197.6,139.6,197.7,139.8,197.7,139.9z"/>
				<path fill-rule="evenodd" clip-rule="evenodd" fill="#936D74" d="M209,153c-0.5,0-0.8,0-1,0c-0.9,0-1.9,0.2-3.1,0.5
					c-1.2,0.4-2.2,0.5-3.1,0.5c-0.8,0-1.4-0.5-1.8-1.5c-0.2-0.5-0.3-1.1-0.3-1.8l0.3-1.6c0-0.1-0.2-0.5-0.5-1.3
					c-0.3-0.7-0.5-1.1-0.5-1.3c-0.1-0.3-0.3-0.8-0.7-1.4c-0.3-0.4-0.4-0.9-0.4-1.3c0-0.3,0.4-0.6,1.2-1s1.1-0.6,1.1-0.8
					c0-0.1-0.2-0.5-0.7-1.3c-0.5-0.8-0.7-1.6-0.7-2.4c0-0.2,0.1-0.4,0.1-0.5c0-0.1,0.1-0.1,0.1-0.1c0.8,0.2,1.3,0.7,1.6,1.3
					c0.8,1.7,1.7,2.9,2.5,3.6c1.7,1.3,3.3,2.6,4.9,3.8c0.7,0.7,1.1,2,1.1,3.6c0,0.5-0.1,1-0.2,1.6C209,152.4,209,152.8,209,153z
					 M201,145.2c0,0.5,0.2,0.7,0.5,0.8s0.5,0.2,0.5,0.4c0,0.2-0.2,0.4-0.6,0.8c-0.4,0.4-0.6,0.6-0.6,0.8c0,0.3,0.3,0.9,0.8,1.9
					c0.1,0.4,0.3,0.9,0.6,1.4c0.4,0.6,0.9,0.9,1.4,0.9c1.1,0,1.8-0.1,2.1-0.3c0.3-0.2,0.4-0.5,0.4-1c0-0.2-0.2-0.5-0.5-0.8
					c-0.3-0.2-0.4-0.6-0.4-1.1c0-0.5,0.3-0.9,0.8-1.2c0.5-0.3,0.8-0.5,0.8-0.6c0-0.3-0.2-0.4-0.5-0.5c-0.3,0-0.5-0.1-0.7-0.1
					c0.1-0.1,0.2-0.2,0.2-0.3c0-0.1,0-0.2-0.1-0.3s-0.1-0.2-0.2-0.2c-0.2,0-0.4,0-0.6,0c0-0.2,0-0.3-0.1-0.4c-1.4-1.3-2.3-2-2.7-2.1
					c0,0-0.1,0-0.1,0c-0.1,0-0.2,0-0.3,0c-0.1,0.8-0.3,1.2-0.5,1.4C201.1,144.5,201,144.8,201,145.2z"/>
				<path fill-rule="evenodd" clip-rule="evenodd" fill="#906068" d="M201,145.2c0-0.4,0.1-0.7,0.3-0.8c0.2-0.1,0.4-0.6,0.5-1.4
					c0.1,0,0.2,0,0.3,0c0,0,0.1,0,0.1,0c0.4,0.1,1.3,0.8,2.7,2.1c0.1,0.1,0.1,0.2,0.1,0.4c0.2,0,0.4,0,0.6,0c0.1,0,0.1,0.1,0.2,0.2
					s0.1,0.3,0.1,0.3c0,0.1-0.1,0.2-0.2,0.3c0.2,0.1,0.4,0.1,0.7,0.1c0.3,0.1,0.5,0.3,0.5,0.5c0,0.1-0.3,0.3-0.8,0.6
					c-0.5,0.3-0.8,0.7-0.8,1.2c0,0.5,0.1,0.9,0.4,1.1c0.3,0.3,0.5,0.5,0.5,0.8c0,0.5-0.1,0.8-0.4,1c-0.3,0.2-1,0.3-2.1,0.3
					c-0.5,0-0.9-0.3-1.4-0.9c-0.4-0.5-0.6-0.9-0.6-1.4c-0.5-1-0.8-1.6-0.8-1.9c0-0.1,0.2-0.4,0.6-0.8c0.4-0.3,0.6-0.6,0.6-0.8
					c0-0.2-0.2-0.3-0.5-0.4S201,145.7,201,145.2z M204.4,149.9c0-0.8-0.3-1.3-0.9-1.6c-0.3-0.1-0.5-0.2-0.6-0.3
					c-0.1-0.1-0.2-0.1-0.2-0.2c-0.1,0.1-0.2,0.1-0.2,0.2c-0.1,0.1-0.2,0.3-0.2,0.6c0,0.6,0.2,1,0.7,1.3c0.4,0.3,0.6,0.5,0.5,0.8
					c0.4-0.1,0.6-0.2,0.7-0.2C204.3,150.3,204.4,150.1,204.4,149.9z"/>
				<path fill-rule="evenodd" clip-rule="evenodd" fill="#995763" d="M204.4,149.9c0,0.3-0.1,0.4-0.2,0.5c-0.1,0-0.3,0.1-0.7,0.2
					c0.1-0.3-0.1-0.5-0.5-0.8c-0.5-0.3-0.7-0.7-0.7-1.3c0-0.3,0.1-0.5,0.2-0.6c0-0.1,0.1-0.1,0.2-0.2c0,0.1,0.1,0.1,0.2,0.2
					c0.1,0.1,0.3,0.1,0.6,0.3C204.1,148.5,204.4,149.1,204.4,149.9z"/>
				<path fill-rule="evenodd" clip-rule="evenodd" fill="#AC8792" d="M208.8,160c-0.8-0.5-1.7-1.2-2.5-2.2c-0.8-0.9-1.5-1.3-2.2-1.3
					c-2.2,0.2-3.4,0.3-3.5,0.3c-0.6-0.1-1.2-0.2-1.7-0.4c-0.3-0.1-0.6-0.3-0.8-0.4c-0.4-0.2-0.7-0.4-0.8-0.6
					c-0.1-0.1-0.1-0.1-0.1-0.2c0-0.6,0.1-1.1,0.4-1.5c0.2-0.4,0.4-0.6,0.7-0.7c0.6,1.9,2.1,2.8,4.6,2.8c0.2,0,1.4-0.3,3.5-1
					c1-0.3,2-0.5,2.9-0.6c0.1,0.2,0.1,0.4,0.1,0.6c0.3,0.9,0.4,1.6,0.4,2.1c0,0.5,0,0.9-0.2,1.2c-0.1,0.2-0.3,0.7-0.6,1.6
					C208.9,159.8,208.8,159.9,208.8,160z M208.5,156.1l-0.1-0.3l0.2-0.3c0-0.1-0.1-0.1-0.5-0.1c-0.1,0-0.1,0-0.2,0
					c0,0.2-0.2,0.6-0.4,1c-0.2,0.5-0.3,0.7-0.3,0.8c0,0.3,0.3,0.5,1,0.5c0.4,0,0.5-0.1,0.5-0.4l-0.5-0.6L208.5,156.1z"/>
				<path fill-rule="evenodd" clip-rule="evenodd" fill="#F0DCEA" d="M197.7,159.9c0.1-0.2,0.5-0.3,1.1-0.3c0.1,0,0.1,0,0.2,0
					c0.7,0,1.1-0.1,1.3-0.3v-0.1c0.5,0,0.7,0.1,0.7,0.3c0,0.1-0.2,0.3-0.7,0.4c-0.5,0.1-1.1,0.2-1.8,0.2c-0.4,0-0.6,0-0.6,0
					C197.8,160.1,197.7,160.1,197.7,159.9z"/>
				<path fill-rule="evenodd" clip-rule="evenodd" fill="#DBAFC2" d="M204.5,160.6c-0.4,0.1-0.8,0.2-1.1,0.4c-0.5,0.3-1,0.5-1.5,0.5
					c-0.5,0-0.8-0.2-0.8-0.5c0-0.4,0.4-0.8,1.2-1.2c0.5-0.2,0.8-0.4,1-0.5c0.2,0.1,0.3,0.3,0.4,0.5
					C203.9,160,204.2,160.3,204.5,160.6z"/>
				<path fill-rule="evenodd" clip-rule="evenodd" fill="#A77D88" d="M208.5,156.1l-0.2,0.5l0.5,0.6c0,0.2-0.2,0.4-0.5,0.4
					c-0.7,0-1-0.1-1-0.5c0,0,0.1-0.3,0.3-0.8c0.2-0.4,0.3-0.8,0.4-1c0.1,0,0.1,0,0.2,0c0.3,0,0.5,0.1,0.5,0.1l-0.2,0.3L208.5,156.1z
					"/>
			</g>
			<g>
				<path fill-rule="evenodd" clip-rule="evenodd" fill="#D0B2BC" d="M14.4,144.9c0,0.2-0.1,0.4-0.1,0.6c0,0.8,0.4,1.7,1.2,2.9
					c0.8,1.1,1.3,2.2,1.3,3.2c0,0.9-0.3,1.5-0.9,1.9c-0.5,0.4-0.8,0.7-0.8,1c0,0.3,0.3,0.6,0.9,0.9c0.1,0,0.2,0,0.3,0.1
					c-0.4-0.1-1.2-0.2-2.3-0.3c-0.8-0.1-1.1-0.3-1.1-0.6c0-0.3,0.4-0.8,1.3-1.3c0.9-0.6,1.3-1.1,1.3-1.6c0-0.4-0.3-0.9-1-1.4
					c-0.7-0.5-1-1.3-1-2.3c0-0.5,0-1.1-0.1-1.7c0.1-0.4,0.3-0.7,0.5-0.9C14,145.2,14.2,145.1,14.4,144.9z"/>
				<path fill-rule="evenodd" clip-rule="evenodd" fill="#E4C5D4" d="M32,160c-0.2,0.1-0.5,0.3-0.9,0.5c-0.8,0.4-1.1,0.8-1.1,1.2
					c0,0.4,0.3,0.5,0.8,0.5c0.5,0,1-0.1,1.5-0.4c0.3-0.2,0.7-0.4,1.1-0.5c0.8,0.6,1.7,1,2.8,1.1c-0.1,0.1-0.1,0.1-0.1,0.2
					c0,0.1-0.1,0.3-0.1,0.4c-0.6-0.1-1.2-0.2-1.8-0.3c-1.4-0.2-2.1-0.2-2.1-0.1c-1.2,0-2.2,0.2-3.2,0.5c-1,0.3-1.6,0.5-1.8,0.5
					c-0.6,0-1-0.3-1.4-1c-0.3-0.6-0.5-1.1-0.5-1.6l0.3-0.8c0-0.2-0.1-0.3-0.2-0.5c-0.1-0.2-0.3-0.3-0.4-0.3c-0.4,0-0.9,0.1-1.5,0.3
					c-0.6,0.2-1.2,0.3-2,0.3c-1.4,0-3.1-0.6-5-1.9c-1.9-1.3-3-1.9-3.1-1.9c-0.6,0-1.3,0.3-2.3,1c-0.6,0.4-1,0.7-1.3,0.9
					c0.1-0.3,0.3-0.7,0.6-1.1c0.5-0.8,0.8-1.3,0.8-1.4c0,0-0.2-0.7-0.5-2c0-0.4,0.1-0.8,0.3-1.1c0.1-0.2,0.2-0.4,0.2-0.5
					c0.1-0.1,0-0.3,0-0.5c-0.1-0.2,0.1-0.6,0.6-1.3c0.4-0.6,0.8-0.9,1.1-1c0.3-0.2,0.4-0.3,0.5-0.4c0-0.7,0.1-1.3,0.1-1.8
					c0-0.3,0-0.6,0.1-0.8c0.1,0.6,0.1,1.2,0.1,1.7c0,1,0.3,1.8,1,2.3c0.7,0.5,1,1,1,1.4c0,0.5-0.4,1-1.3,1.6c-0.9,0.6-1.3,1-1.3,1.3
					c0,0.3,0.4,0.5,1.1,0.6c1.1,0.1,1.9,0.2,2.3,0.3c0.1,0,0.2,0.1,0.3,0.1c0.3,0.3,0.4,0.5,0.4,0.8c0,0.9,1,1.4,2.9,1.4l0.6-0.1
					c1.3,0,2.2,0.1,2.9,0.3c0.2,0,0.4,0.2,0.7,0.6c0.1,0.3,0.3,0.4,0.4,0.5c0.1,0,0.4,0,0.9,0h0c1.9-0.3,2.9-0.5,2.9-0.5
					C29.9,158.5,31.1,159,32,160z M27.7,160.4c-0.7,0-1.1,0.1-1.2,0.3c0,0.2,0.1,0.3,0.3,0.3c0.1,0,0.3,0,0.7,0
					c0.7,0,1.3-0.1,1.8-0.2c0.5-0.1,0.7-0.3,0.7-0.4c0-0.2-0.2-0.4-0.7-0.4v0.1c-0.2,0.2-0.7,0.3-1.4,0.3
					C27.8,160.4,27.8,160.4,27.7,160.4z"/>
				<path fill-rule="evenodd" clip-rule="evenodd" fill="#FDF6FC" d="M9.5,158.1c0.3-0.2,0.7-0.4,1.3-0.9c0,0,0,0.1,0,0.1
					c-0.1,0.2-0.1,0.3-0.1,0.4c0,0.5,0.3,1.1,0.8,2c0.5,0.8,0.9,1.3,1.2,1.6c0.2,0.1,0.8,0.3,1.9,0.5c1,0.2,1.6,0.4,1.9,0.4
					s0.5-0.1,1-0.2c0.5-0.1,0.9-0.2,1.3-0.2c0.8,0,1.4,0.2,1.8,0.6c0.1,0.1,0.3,0.5,0.8,1.3c0.7,1.3,2.3,1.9,4.7,1.9
					c1.5,0,3-0.4,4.5-1.1c1.5-0.7,2.3-1,2.3-1c0.3,0,0.8,0.3,1.4,1c0.3,0.3,0.5,0.5,0.6,0.7c-0.1,0.1-0.2,0.3-0.3,0.3
					c-0.6,0.6-1.4,0.9-2.3,0.9c-0.1,0-0.6-0.1-1.4-0.2c-0.8-0.1-1.7-0.2-2.6-0.2c-0.9,0-1.9,0.2-3.1,0.5c-1.1,0.3-2.1,0.5-3,0.5
					c-1.1,0-2.4-0.5-3.8-1.3c-1.8-1.1-3.1-1.8-4-2.1c-1.4-0.4-2.6-1.1-3.4-1.9c-0.9-0.8-1.4-1.8-1.4-2.9
					C9.4,158.6,9.4,158.4,9.5,158.1z"/>
				<path fill-rule="evenodd" clip-rule="evenodd" fill="#F2D8E8" d="M10.8,157.3c1-0.7,1.7-1,2.3-1c0.2,0,1.2,0.6,3.1,1.9
					c1.9,1.3,3.6,1.9,5,1.9c0.7,0,1.4-0.1,2-0.3c0.6-0.2,1.1-0.3,1.5-0.3c0.2,0,0.3,0.1,0.4,0.3c0.1,0.1,0.2,0.3,0.2,0.5l-0.3,0.8
					c0,0.5,0.2,1,0.5,1.6c0.4,0.6,0.9,1,1.4,1c0.2,0,0.8-0.1,1.8-0.5c1-0.3,2-0.5,3.2-0.5c0-0.2,0.7-0.1,2.1,0.1
					c0.5,0.1,1.1,0.2,1.8,0.3c-0.4,0.9-0.9,1.6-1.3,2.2c-0.2-0.2-0.4-0.4-0.6-0.7c-0.6-0.6-1.1-1-1.4-1c0,0-0.8,0.4-2.3,1
					c-1.5,0.7-3,1.1-4.5,1.1c-2.4,0-4-0.6-4.7-1.9c-0.5-0.8-0.7-1.2-0.8-1.3c-0.4-0.4-1-0.6-1.8-0.6c-0.4,0-0.8,0.1-1.3,0.2
					c-0.4,0.1-0.7,0.2-1,0.2s-0.9-0.1-1.9-0.4c-1-0.3-1.6-0.4-1.9-0.5c-0.3-0.2-0.7-0.8-1.2-1.6c-0.5-0.9-0.8-1.5-0.8-2
					c0-0.1,0-0.2,0.1-0.4C10.8,157.4,10.8,157.3,10.8,157.3z"/>
				<path fill-rule="evenodd" clip-rule="evenodd" fill="#B0939A" d="M26.4,140.1c0.2,0.2,0.3,0.4,0.3,0.5c0,0.2-0.1,0.3-0.4,0.3
					c-0.2,0-0.3-0.1-0.5-0.3c-0.1-0.2-0.2-0.4-0.2-0.5c0-0.1,0.1-0.2,0.3-0.3C26.1,139.8,26.2,139.9,26.4,140.1z"/>
				<path fill-rule="evenodd" clip-rule="evenodd" fill="#AC888D" d="M19.4,141.5c-0.9-0.1-1.4-0.4-1.5-1v-0.4
					c0.3-0.4,0.6-0.7,1-0.9c-0.1,0.2-0.1,0.3-0.1,0.5c0,0.2,0.2,0.3,0.5,0.4c0.2,0.1,0.4,0.2,0.6,0.3c0.2,0.1,0.4,0.3,0.5,0.5
					c0,0.2,0.1,0.3,0.3,0.3c0.3,0,0.7-0.2,1-0.6c0.3-0.4,0.5-0.8,0.5-1.3c0-0.1-0.1-0.1-0.1-0.3c0.3,0.2,0.6,0.4,0.7,0.4
					c0.4,0,1-0.1,1.7-0.4c0.7-0.2,1.4-0.4,2.1-0.4c0.1,0,0.3,0,0.4,0c-0.1,0.2-0.1,0.5-0.1,0.9c0,0.5,0.1,1.1,0.4,1.8
					c0.3,0.7,0.5,1.1,0.5,1.2c0,0.3-0.5,0.6-1.6,0.9c-1.1,0.4-1.6,0.8-1.6,1.3c0,0.1,0.1,0.3,0.5,0.5c0.3,0.2,0.4,0.4,0.4,0.6
					c-0.4,0-0.8,0-1.1,0.1c-0.4,0.1-0.6,0.3-0.6,0.6c0,0.4,0.4,0.8,1.2,1c0.3,0.1,0.8,0.2,1.5,0.4c0.9,0.2,1.4,0.4,1.6,0.6
					c0.1,0.1,0.2,0.4,0.2,0.9c0,0.1-0.2,0.5-0.7,1c-0.5,0.5-0.8,1-0.8,1.5c0,0.2,0,0.5,0,0.7c-0.3-0.1-0.6-0.3-0.9-0.5
					c-0.3-0.3-0.5-0.6-0.5-1c0-0.2,0.1-0.5,0.2-0.7c0.1-0.3,0.1-0.5,0.1-0.8c0-0.8-0.9-1.7-2.6-2.7c-1.8-1-2.6-1.8-2.6-2.4
					c0-0.4,0.5-0.7,1.5-0.9c1.1-0.3,1.8-0.6,2.1-0.9l-1.3-0.7c-0.5-0.3-0.9-0.4-1.3-0.5c-0.4-0.1-0.6-0.1-0.6,0
					c-0.2,0-0.4,0-0.7,0.1c-0.3,0.1-0.5,0.1-0.6,0.1C19.6,141.5,19.5,141.5,19.4,141.5z M26.4,140.1c-0.1-0.2-0.3-0.4-0.5-0.4
					c-0.2,0.1-0.3,0.2-0.3,0.3c0,0.2,0.1,0.4,0.2,0.5c0.1,0.2,0.3,0.3,0.5,0.3c0.2,0,0.4-0.1,0.4-0.3
					C26.6,140.5,26.5,140.4,26.4,140.1z M23.4,141.1v0.3c-0.1,0-0.2,0.2-0.2,0.4h0.7c0.7-0.1,1.1-0.3,1.1-0.6c0-0.6-0.4-0.9-1.2-0.9
					c0,0-0.1,0-0.1,0c-0.2,0-0.5,0-0.9,0.1c-0.1,0-0.2,0.1-0.2,0.1c-0.2,0.1-0.3,0.3-0.2,0.5L23.4,141.1z M21.4,144.4
					c0,0.2,0.1,0.4,0.4,0.6c0.3,0.1,0.6,0.2,0.9,0.2c0.4,0,0.6-0.1,0.6-0.3c0-0.2-0.3-0.3-0.8-0.5s-0.9-0.2-1.1-0.1
					C21.4,144.3,21.4,144.4,21.4,144.4z"/>
				<path fill-rule="evenodd" clip-rule="evenodd" fill="#A97882" d="M27,153.9c-0.2-0.4-0.3-0.9-0.3-1.4c0-0.2,0-0.5,0-0.7
					c0-0.5,0.3-1,0.8-1.5c0.5-0.5,0.7-0.8,0.7-1c0-0.5-0.1-0.8-0.2-0.9c-0.2-0.2-0.8-0.4-1.6-0.6c-0.7-0.2-1.2-0.3-1.5-0.4
					c-0.8-0.3-1.2-0.6-1.2-1c0-0.3,0.2-0.5,0.6-0.6c0.3-0.1,0.7-0.1,1.1-0.1c0-0.2-0.1-0.4-0.4-0.6c-0.3-0.2-0.5-0.4-0.5-0.5
					c0-0.5,0.5-0.9,1.6-1.3c1.1-0.3,1.6-0.6,1.6-0.9c0-0.1-0.1-0.5-0.5-1.2c-0.3-0.7-0.4-1.3-0.4-1.8c0-0.4,0-0.7,0.1-0.9
					c0,0,0.1,0,0.1,0c0.3,0,0.6,0.1,0.9,0.2c0,0-0.1,0.1-0.1,0.2c-0.1,0.1-0.1,0.3-0.2,0.5c0,0.8,0.2,1.5,0.7,2.3
					c0.5,0.8,0.7,1.2,0.7,1.3c0,0.1-0.4,0.4-1.2,0.8s-1.1,0.7-1.1,0.9c0,0.4,0.1,0.9,0.4,1.3c0.4,0.6,0.6,1,0.7,1.4
					c0,0.1,0.2,0.5,0.5,1.3c0.3,0.7,0.5,1.1,0.5,1.3l-0.4,1.5c0,0.7,0.1,1.3,0.3,1.9c0.3,1,0.9,1.5,1.8,1.5c0.9,0,1.9-0.2,3.1-0.6
					c1.2-0.4,2.2-0.5,3.1-0.5c0.1,0,0.5,0,1,0c0,0.3,0.1,0.7,0.3,1.3c-0.9,0.1-1.9,0.3-2.9,0.6c-2.2,0.6-3.4,0.9-3.6,0.9
					C29.2,156.6,27.6,155.7,27,153.9z M21.4,144.4c0,0,0-0.1,0-0.1c0.3-0.1,0.6,0,1.1,0.1s0.8,0.3,0.8,0.5c0,0.2-0.2,0.3-0.6,0.3
					c-0.3,0-0.5-0.1-0.9-0.2C21.5,144.8,21.4,144.6,21.4,144.4z"/>
				<path fill-rule="evenodd" clip-rule="evenodd" fill="#936D74" d="M37.9,153.8c-0.5,0-0.8,0-1,0c-0.9,0-1.9,0.2-3.1,0.5
					c-1.2,0.4-2.2,0.6-3.1,0.6c-0.8,0-1.4-0.5-1.8-1.5c-0.2-0.5-0.3-1.1-0.3-1.9L29,150c0-0.1-0.2-0.6-0.5-1.3
					c-0.3-0.7-0.5-1.2-0.5-1.3c-0.1-0.3-0.3-0.8-0.7-1.4c-0.3-0.4-0.4-0.9-0.4-1.3c0-0.3,0.4-0.6,1.1-0.9s1.2-0.6,1.2-0.8
					c0-0.1-0.2-0.5-0.7-1.3c-0.5-0.8-0.7-1.6-0.7-2.3c0-0.2,0.1-0.4,0.2-0.5c0-0.1,0.1-0.1,0.1-0.2c0.8,0.2,1.3,0.7,1.7,1.3
					c0.8,1.7,1.6,2.9,2.5,3.5c1.7,1.3,3.3,2.6,4.9,3.8c0.7,0.7,1.1,1.9,1.1,3.6c0,0.5-0.1,1-0.2,1.6
					C37.9,153.2,37.9,153.6,37.9,153.8z M30.7,143.9c-0.1,0.8-0.3,1.2-0.5,1.4c-0.2,0.1-0.3,0.4-0.3,0.8c0,0.5,0.2,0.7,0.5,0.8
					c0.3,0.1,0.5,0.2,0.5,0.4c0,0.2-0.2,0.4-0.6,0.8c-0.4,0.4-0.5,0.6-0.5,0.8c0,0.3,0.3,0.9,0.8,1.9c0.1,0.4,0.3,0.9,0.7,1.4
					c0.4,0.6,0.9,0.9,1.3,0.9c1.1,0,1.8-0.1,2.2-0.3c0.3-0.2,0.4-0.5,0.4-1c0-0.2-0.1-0.5-0.5-0.8c-0.3-0.2-0.4-0.6-0.4-1.1
					c0-0.5,0.3-0.9,0.8-1.2c0.5-0.3,0.8-0.5,0.8-0.6c0-0.3-0.2-0.5-0.5-0.6c-0.3,0-0.5-0.1-0.7-0.1c0.1-0.1,0.1-0.2,0.1-0.3
					s0-0.2-0.1-0.4c-0.1-0.1-0.1-0.2-0.2-0.2c-0.2,0-0.4,0-0.6,0c0-0.2,0-0.3-0.1-0.4c-1.4-1.3-2.3-2-2.7-2c0,0-0.1-0.1-0.1-0.1
					C30.9,143.8,30.8,143.8,30.7,143.9z"/>
				<path fill-rule="evenodd" clip-rule="evenodd" fill="#906068" d="M30.7,143.9c0.1,0,0.2-0.1,0.3-0.1c0,0,0.1,0,0.1,0.1
					c0.4,0.1,1.3,0.8,2.7,2c0.1,0.1,0.1,0.2,0.1,0.4c0.2,0,0.4,0,0.6,0c0.1,0,0.1,0.1,0.2,0.2c0.1,0.1,0.1,0.3,0.1,0.4
					s0,0.2-0.1,0.3c0.2,0.1,0.4,0.1,0.7,0.1c0.3,0.1,0.5,0.3,0.5,0.6c0,0.1-0.3,0.3-0.8,0.6c-0.5,0.3-0.8,0.7-0.8,1.2
					c0,0.5,0.1,0.9,0.4,1.1c0.3,0.3,0.5,0.5,0.5,0.8c0,0.5-0.1,0.8-0.4,1c-0.3,0.2-1.1,0.3-2.2,0.3c-0.5,0-0.9-0.3-1.3-0.9
					c-0.4-0.5-0.6-1-0.7-1.4c-0.5-1-0.8-1.6-0.8-1.9c0-0.1,0.2-0.4,0.5-0.8c0.4-0.3,0.6-0.6,0.6-0.8c0-0.2-0.2-0.3-0.5-0.4
					c-0.3-0.1-0.5-0.3-0.5-0.8c0-0.4,0.1-0.7,0.3-0.8C30.4,145.1,30.6,144.6,30.7,143.9z M32.5,149c-0.3-0.1-0.5-0.2-0.7-0.3
					c-0.1-0.1-0.2-0.1-0.2-0.2c-0.1,0.1-0.2,0.1-0.2,0.2c-0.1,0.1-0.1,0.3-0.1,0.6c0,0.6,0.2,1,0.7,1.3c0.4,0.3,0.6,0.5,0.5,0.8
					c0.4-0.1,0.6-0.2,0.6-0.2c0.1-0.1,0.2-0.3,0.2-0.6C33.3,149.9,33,149.3,32.5,149z"/>
				<path fill-rule="evenodd" clip-rule="evenodd" fill="#B3898A" d="M21,138.8v0.3c-0.2,0.4-0.4,0.6-0.7,0.6c-0.1,0-0.2,0-0.4-0.1
					c-0.1-0.1-0.2-0.2-0.2-0.3c0-0.1,0-0.2,0.1-0.3l0.4-0.2H21z"/>
				<path fill-rule="evenodd" clip-rule="evenodd" fill="#AC797E" d="M22,139c0,0.1,0.1,0.2,0.1,0.3c0,0.4-0.2,0.9-0.5,1.3
					c-0.4,0.4-0.7,0.6-1,0.6c-0.1,0-0.2-0.1-0.3-0.3c-0.1-0.2-0.2-0.4-0.5-0.5c-0.2-0.1-0.4-0.1-0.6-0.3c-0.4-0.1-0.5-0.3-0.5-0.4
					c0-0.2,0-0.3,0.1-0.5c0.3-0.3,0.5-0.5,0.9-0.6c0.3-0.2,0.6-0.3,0.8-0.3c0.4,0,0.8,0.2,1.3,0.5C21.9,138.9,22,139,22,139z
					 M21,138.8h-0.8l-0.4,0.2c0,0.1-0.1,0.1-0.1,0.3c0,0.1,0.1,0.2,0.2,0.3c0.1,0.1,0.3,0.1,0.4,0.1c0.3,0,0.5-0.2,0.7-0.6V138.8z"
					/>
				<path fill-rule="evenodd" clip-rule="evenodd" fill="#BE8F9B" d="M26.8,152.5c0,0.5,0.1,1,0.3,1.4c-0.3,0.1-0.5,0.3-0.7,0.7
					c-0.2,0.4-0.4,0.9-0.4,1.5c0-0.1,0-0.1,0-0.2c0-0.2,0-0.4,0.1-0.6c0.1-0.2,0.1-0.4,0.1-0.5c0-0.2,0-0.3,0-0.4
					c-0.1-0.1-0.2-0.1-0.4-0.1c-0.3,0-0.6,0.2-1,0.6c-0.4,0.4-0.9,0.6-1.3,0.6c-0.4,0-0.9-0.3-1.5-0.9c-0.2-0.2-0.3-0.4-0.5-0.5
					c-0.3-0.4-0.5-0.8-0.5-1.1c0-0.1,0.1-0.4,0.3-1c0.2-0.5,0.4-1,0.4-1.4c0-0.9-0.5-1.6-1.4-2.3c-1-0.7-1.4-1.2-1.4-1.5
					c0-0.6,0.3-1.1,0.8-1.5c0.4-0.5,0.6-0.7,0.6-0.8c0-0.5-0.3-0.9-1-1.2c-0.7-0.4-1-0.6-1-0.6c0-0.2,0.2-0.4,0.5-0.6
					c0.3-0.1,0.5-0.3,0.6-0.5c0.1,0,0.2,0,0.3,0c0.1,0,0.3,0,0.6-0.1c0.3,0,0.5-0.1,0.7-0.1c0-0.2,0.2-0.2,0.6,0
					c0.4,0.1,0.8,0.3,1.3,0.5l1.3,0.7c-0.2,0.3-0.9,0.6-2.1,0.9c-1,0.2-1.5,0.5-1.5,0.9c0,0.6,0.9,1.4,2.6,2.4
					c1.7,0.9,2.6,1.8,2.6,2.7c0,0.3,0,0.5-0.1,0.8c-0.1,0.2-0.2,0.5-0.2,0.7c0,0.4,0.2,0.7,0.5,1C26.1,152.2,26.4,152.4,26.8,152.5z
					"/>
				<path fill-rule="evenodd" clip-rule="evenodd" fill="#A4787D" d="M23.4,141.1l-1-0.2c-0.1-0.2,0-0.3,0.2-0.5
					c0,0,0.1-0.1,0.2-0.1c0.4-0.1,0.7-0.1,0.9-0.1c0,0,0.1,0,0.1,0c0.8,0,1.2,0.3,1.2,0.9c0,0.3-0.4,0.5-1.1,0.6h-0.7
					c0-0.2,0.1-0.4,0.2-0.4V141.1z"/>
				<path fill-rule="evenodd" clip-rule="evenodd" fill="#C69BA7" d="M21.5,154c-0.3,0.4-0.6,0.6-1,0.8c-0.4,0.1-0.5,0.3-0.5,0.4
					l0.1,0.3c0,0.1-0.1,0.2-0.3,0.3c-0.2,0-0.3,0.1-0.5,0.1c-0.1,0-0.1,0-0.2,0c-1.4,0-2.1-0.3-2.1-1c0-0.2,0.4-0.8,1.1-1.9
					c0.7-1.1,1-2,1-2.8c0-0.6-0.6-1.2-1.8-1.8s-1.8-1.5-1.8-2.5c0-0.5,0.1-0.9,0.4-1.3c0.3-0.4,0.5-0.7,0.5-0.9
					c0-0.3-0.1-0.5-0.3-0.8v-0.1c0.4-0.5,0.8-1.1,1.2-1.8c0.2-0.3,0.4-0.5,0.6-0.8v0.4c0.1,0.6,0.6,0.9,1.5,1
					c-0.1,0.2-0.3,0.3-0.6,0.5c-0.4,0.2-0.5,0.4-0.5,0.6c0,0,0.3,0.2,1,0.6c0.7,0.3,1,0.7,1,1.2c0,0-0.2,0.3-0.6,0.8
					c-0.5,0.4-0.8,0.9-0.8,1.5c0,0.3,0.5,0.8,1.4,1.5c0.9,0.7,1.4,1.4,1.4,2.3c0,0.4-0.1,0.9-0.4,1.4c-0.2,0.5-0.3,0.9-0.3,1
					C21,153.2,21.2,153.6,21.5,154z"/>
				<path fill-rule="evenodd" clip-rule="evenodd" fill="#CCA3B4" d="M26,156c0,0.1,0,0.1,0.1,0.2c0.1,0.2,0.4,0.4,0.8,0.6
					c0.2,0.1,0.5,0.2,0.8,0.4c0.5,0.2,1.1,0.3,1.7,0.3c0.1,0,1.3-0.1,3.5-0.3c0.7,0,1.4,0.4,2.2,1.3c0.9,1,1.7,1.7,2.5,2.2
					c-0.2,0.2-0.4,0.5-0.8,0.8c-0.4,0.3-0.6,0.6-0.8,0.9c-1.1-0.1-2-0.4-2.8-1.1c-0.3-0.3-0.6-0.6-0.9-0.9c-0.1-0.2-0.3-0.4-0.5-0.5
					c-0.9-1-2.1-1.5-3.8-1.5c0,0-1,0.2-2.9,0.5h0c-0.5,0-0.8,0-0.9,0c-0.1,0-0.2-0.2-0.4-0.5c-0.3-0.4-0.5-0.6-0.7-0.6
					c-0.7-0.2-1.6-0.3-2.9-0.3l-0.6,0.1c-1.9,0-2.9-0.5-2.9-1.4c0-0.3-0.1-0.5-0.4-0.8c-0.1,0-0.2-0.1-0.3-0.1
					c-0.1-0.1-0.1-0.1-0.3-0.1c-0.6-0.3-0.9-0.6-0.9-0.9c0-0.3,0.3-0.6,0.8-1c0.6-0.4,0.9-1,0.9-1.9c0-1-0.4-2.1-1.3-3.2
					c-0.8-1.1-1.2-2.1-1.2-2.9c0-0.2,0-0.4,0.1-0.6c0.4-0.6,1-1.3,1.7-2.3v0.1c0.2,0.3,0.3,0.6,0.3,0.8c0,0.2-0.1,0.5-0.5,0.9
					c-0.3,0.4-0.4,0.8-0.4,1.3c0,1.1,0.6,1.9,1.8,2.5s1.8,1.2,1.8,1.8c0,0.8-0.3,1.7-1,2.8c-0.7,1.1-1.1,1.7-1.1,1.9
					c0,0.7,0.7,1,2.1,1c0.1,0,0.1,0,0.2,0c0.2,0,0.4-0.1,0.5-0.1c0.2-0.1,0.3-0.2,0.3-0.3l-0.1-0.3c0-0.1,0.2-0.2,0.5-0.4
					c0.3-0.1,0.7-0.4,1-0.8c0.1,0.2,0.3,0.4,0.5,0.5c0.6,0.6,1.1,0.9,1.5,0.9c0.4,0,0.8-0.2,1.3-0.6c0.4-0.4,0.8-0.6,1-0.6
					c0.2,0,0.3,0,0.4,0.1c0,0,0,0.1,0,0.4c0,0.2,0,0.3-0.1,0.5c-0.1,0.2-0.1,0.4-0.1,0.6C26,155.9,26,156,26,156z"/>
				<path fill-rule="evenodd" clip-rule="evenodd" fill="#995763" d="M32.5,149c0.6,0.3,0.8,0.9,0.8,1.6c0,0.3-0.1,0.5-0.2,0.6
					c-0.1,0-0.3,0.1-0.6,0.2c0.1-0.3-0.1-0.5-0.5-0.8c-0.5-0.3-0.7-0.7-0.7-1.3c0-0.3,0-0.5,0.1-0.6c0-0.1,0.1-0.1,0.2-0.2
					c0,0.1,0.1,0.1,0.2,0.2C31.9,148.8,32.1,148.9,32.5,149z"/>
				<path fill-rule="evenodd" clip-rule="evenodd" fill="#AC8792" d="M27,153.9c0.6,1.9,2.1,2.8,4.6,2.8c0.2,0,1.4-0.3,3.6-0.9
					c1-0.3,2-0.5,2.9-0.6c0.1,0.2,0.1,0.4,0.1,0.6c0.3,0.9,0.4,1.6,0.4,2c0,0.5,0,0.9-0.1,1.2c-0.1,0.2-0.3,0.7-0.6,1.6
					c-0.1,0.1-0.1,0.2-0.2,0.3c-0.8-0.5-1.7-1.2-2.5-2.2c-0.8-0.9-1.5-1.3-2.2-1.3c-2.2,0.2-3.4,0.3-3.5,0.3
					c-0.6-0.1-1.2-0.2-1.7-0.3c-0.3-0.1-0.6-0.3-0.8-0.4c-0.4-0.2-0.7-0.4-0.8-0.6c-0.1-0.1-0.1-0.1-0.1-0.2c0-0.6,0.1-1.1,0.4-1.5
					C26.5,154.2,26.8,154,27,153.9z M37.5,156.4c0-0.1-0.2-0.1-0.5-0.1c-0.1,0-0.1,0-0.2,0c0,0.2-0.1,0.6-0.3,1
					c-0.2,0.5-0.4,0.7-0.4,0.8c0,0.3,0.3,0.4,1,0.4c0.4,0,0.5-0.1,0.5-0.4l-0.4-0.6l0.1-0.5l-0.1-0.3L37.5,156.4z"/>
				<path fill-rule="evenodd" clip-rule="evenodd" fill="#A77D88" d="M37.5,156.4l-0.2,0.3l0.1,0.3l-0.1,0.5l0.4,0.6
					c0,0.2-0.2,0.4-0.5,0.4c-0.7,0-1-0.1-1-0.4c0,0,0.1-0.3,0.4-0.8c0.2-0.4,0.3-0.8,0.3-1c0.1,0,0.1,0,0.2,0
					C37.3,156.2,37.5,156.3,37.5,156.4z"/>
				<path fill-rule="evenodd" clip-rule="evenodd" fill="#DBAFC2" d="M33.4,161.4c-0.4,0.1-0.8,0.2-1.1,0.5c-0.5,0.3-1,0.4-1.5,0.4
					c-0.5,0-0.8-0.2-0.8-0.5c0-0.4,0.4-0.8,1.1-1.2c0.5-0.2,0.8-0.4,0.9-0.5c0.2,0.1,0.3,0.3,0.5,0.5
					C32.8,160.8,33,161.1,33.4,161.4z"/>
				<path fill-rule="evenodd" clip-rule="evenodd" fill="#F0DCEA" d="M27.7,160.4c0.1,0,0.1,0,0.2,0c0.7,0,1.1-0.1,1.4-0.3V160
					c0.5,0,0.7,0.1,0.7,0.4c0,0.1-0.2,0.3-0.7,0.4c-0.5,0.1-1.1,0.2-1.8,0.2c-0.4,0-0.6,0-0.7,0c-0.1,0-0.2-0.1-0.3-0.3
					C26.6,160.5,27,160.4,27.7,160.4z"/>
			</g>
			<g>
				<radialGradient id="SVGID_4_" cx="24.8496" cy="152.5" r="14.6255" gradientUnits="userSpaceOnUse">
					<stop  offset="0" style="stop-color:#FFFFFF"/>
					<stop  offset="1" style="stop-color:#FDFDFD;stop-opacity:0"/>
				</radialGradient>
				<path fill-rule="evenodd" clip-rule="evenodd" fill="url(#SVGID_4_)" d="M10.2,152.5C10.2,152.5,10.2,152.5,10.2,152.5
					c0.1-0.1,0.1-0.1,0.2-0.1c0.1,0,0.1,0.1,0.1,0.1c0.3,0.5,1.6,0.9,4,1.3c0.1,0,0.2,0,0.3,0c5.5,0.7,10.5,0.9,15,0.6
					c1.8-0.1,3.6-0.3,5.2-0.6v0.1c0.1-0.1,0.1-0.1,0.1-0.1c2.4-0.3,3.8-0.8,4.1-1.3c0,0,0.1-0.1,0.1-0.1c0,0,0.1,0,0.2,0.1
					c0,0,0,0.1,0,0.1c0,0,0,0.1,0,0.2c-0.3,0.5-1.8,1-4.4,1.4h0c0,0-0.1,0-0.1,0h0c-1.6,0.3-3.4,0.5-5.2,0.6
					c-4.5,0.3-9.5,0.1-15-0.6h0c-0.1,0-0.1,0-0.2,0c-2.6-0.4-4-0.8-4.3-1.4C10.2,152.6,10.2,152.6,10.2,152.5z"/>
				<radialGradient id="SVGID_5_" cx="195.3047" cy="152.5" r="14.6203" gradientUnits="userSpaceOnUse">
					<stop  offset="0" style="stop-color:#FFFFFF"/>
					<stop  offset="1" style="stop-color:#FDFDFD;stop-opacity:0"/>
				</radialGradient>
				<path fill-rule="evenodd" clip-rule="evenodd" fill="url(#SVGID_5_)" d="M185,153.8c0.1,0,0.2,0,0.3,0c2.3,0.3,4.5,0.5,6.5,0.6
					c5.1,0.3,9.6,0.1,13.6-0.6v0.1c0.1-0.1,0.1-0.1,0.1-0.1c2.5-0.3,3.8-0.8,4.1-1.3c0,0,0.1-0.1,0.1-0.1c0.1,0,0.1,0,0.2,0.1
					c0,0,0,0.1,0,0.1c0,0,0,0.1,0,0.2c-0.3,0.5-1.8,1-4.4,1.4h0l0,0h0c-4,0.7-8.6,0.9-13.7,0.6c-2.1-0.1-4.3-0.3-6.5-0.6
					c-0.1,0-0.1,0-0.2,0c-2.6-0.4-4-0.8-4.3-1.4c-0.1-0.1-0.1-0.1,0-0.2c0-0.1,0.1-0.1,0.1-0.1c0,0,0.1-0.1,0.2-0.1
					c0,0,0.1,0.1,0.1,0.1C181.3,153,182.6,153.4,185,153.8z"/>
			</g>
			<g>
				<linearGradient id="SVGID_6_" gradientUnits="userSpaceOnUse" x1="109.4287" y1="5.9131" x2="109.4038" y2="33.8881">
					<stop  offset="0" style="stop-color:#FFFFFF;stop-opacity:0.498"/>
					<stop  offset="0.1333" style="stop-color:#FFFFFE;stop-opacity:4.313726e-002"/>
					<stop  offset="0.2118" style="stop-color:#FBFBF7;stop-opacity:0.1373"/>
					<stop  offset="0.4078" style="stop-color:#FBFBF7;stop-opacity:0"/>
					<stop  offset="0.502" style="stop-color:#FCFCF9;stop-opacity:0"/>
					<stop  offset="0.8706" style="stop-color:#FDFDFB;stop-opacity:0.2235"/>
					<stop  offset="1" style="stop-color:#FFFFFF;stop-opacity:0.4431"/>
				</linearGradient>
				<path fill-rule="evenodd" clip-rule="evenodd" fill="url(#SVGID_6_)" d="M202,11.5c-2.7,4.4-5.4,7.4-8.3,9
					c-2.5,2.4-6.6,7.4-12.1,15.2c0,0.1-0.5,0.7-1.4,1.9l-0.9,0.7l0.2,0.9c0,0-0.1,0.1-0.1,0.3c-1.2-2.4-3.3-4.2-6.3-5.3l-0.3,0
					l0-0.1c-0.4-0.1-0.8-0.2-1.2-0.3c-0.9-0.2-1.9-0.4-2.9-0.4H51c-1.2,0-2.4,0.1-3.5,0.5c-1,0.3-1.9,0.7-2.8,1.3
					c-0.5,0.3-0.9,0.6-1.4,1c-0.3,0.2-0.5,0.4-0.8,0.7c-0.1,0.1-0.2,0.2-0.3,0.3c0.1-0.2,0.3-0.5,0.7-0.8l-3.1,1
					c0.3-0.9-1.8-3.8-6.1-8.5c-1.4-1.7-2.9-3.3-4.7-4.8c-5.4-3.8-9.4-8.7-12.1-14.8v0H17c1.2-1.4,3.3-2.3,6.3-2.9
					C24.5,6,25.7,5.9,27,5.9h162.5C194.7,7.8,198.8,9.6,202,11.5z"/>
				<linearGradient id="SVGID_7_" gradientUnits="userSpaceOnUse" x1="10.5625" y1="32.2002" x2="39.3375" y2="32.2002">
					<stop  offset="0" style="stop-color:#FFFFFF;stop-opacity:0.498"/>
					<stop  offset="0.1333" style="stop-color:#FFFFFE;stop-opacity:4.313726e-002"/>
					<stop  offset="0.2118" style="stop-color:#FBFBF7;stop-opacity:0.1373"/>
					<stop  offset="0.4078" style="stop-color:#FBFBF7;stop-opacity:0"/>
					<stop  offset="0.502" style="stop-color:#FCFCF9;stop-opacity:0"/>
					<stop  offset="0.8706" style="stop-color:#FDFDFB;stop-opacity:0.2235"/>
					<stop  offset="1" style="stop-color:#FFFFFF;stop-opacity:0.4431"/>
				</linearGradient>
				<path fill-rule="evenodd" clip-rule="evenodd" fill="url(#SVGID_7_)" d="M10.2,42.9V23c0.3-3.2,0.8-5.7,1.5-7.5
					c0.2-0.5,0.5-0.9,0.8-1.3c0.2-0.3,0.4-0.7,0.6-1c0.6-0.9,1.3-1.7,2.1-2.5c0.7-0.7,1.3-1.3,1.8-1.6v0c2.7,6.1,6.7,11,12.1,14.8
					c1.8,1.5,3.3,3.1,4.7,4.8c4.4,4.8,6.4,7.6,6.1,8.5l3.1-1c-0.4,0.3-0.6,0.6-0.7,0.8v0c-0.4,0.4-0.8,0.8-1,1.3
					c-0.6,0.8-1.1,1.7-1.5,2.6c-0.5,1.2-0.7,2.6-0.7,4v10.2L10.2,42.9z"/>
				<radialGradient id="SVGID_8_" cx="32.25" cy="27.7998" r="46.2" fx="32.7935" fy="27.7998" gradientUnits="userSpaceOnUse">
					<stop  offset="0" style="stop-color:#FFFFFF;stop-opacity:0"/>
					<stop  offset="0.6196" style="stop-color:#FFFFFF;stop-opacity:0.498"/>
					<stop  offset="0.7922" style="stop-color:#FFFFFF;stop-opacity:0.902"/>
					<stop  offset="0.9137" style="stop-color:#FFFFFF;stop-opacity:0.8745"/>
					<stop  offset="1" style="stop-color:#FFFFFF"/>
				</radialGradient>
				<path fill-rule="evenodd" clip-rule="evenodd" fill="url(#SVGID_8_)" d="M10.2,23v-0.4c0-2.6,0.5-5,1.5-7.1
					C11,17.3,10.5,19.8,10.2,23z"/>
				<linearGradient id="SVGID_9_" gradientUnits="userSpaceOnUse" x1="10.1626" y1="98.8501" x2="39.0625" y2="98.8501">
					<stop  offset="0" style="stop-color:#FFFFFF;stop-opacity:0.498"/>
					<stop  offset="0.1333" style="stop-color:#FFFFFE;stop-opacity:4.313726e-002"/>
					<stop  offset="0.2118" style="stop-color:#FBFBF7;stop-opacity:0.1373"/>
					<stop  offset="0.4078" style="stop-color:#FBFBF7;stop-opacity:0"/>
					<stop  offset="0.502" style="stop-color:#FCFCF9;stop-opacity:0"/>
					<stop  offset="0.8706" style="stop-color:#FDFDFB;stop-opacity:0.2235"/>
					<stop  offset="1" style="stop-color:#FFFFFF;stop-opacity:0.4431"/>
				</linearGradient>
				<path fill-rule="evenodd" clip-rule="evenodd" fill="url(#SVGID_9_)" d="M11.4,153.5c-0.6-0.2-1-0.5-1.2-0.8v-0.4V152V42.9
					L39,55.3v96.3c0.1,0.5,0.1,1,0,1.3c-1.2,0.9-4.6,1.5-10.3,1.8l-6.6,0.1l0.4-0.1l-2,0c-2.9-0.1-5.9-0.5-9-1.2H11.4z"/>
				<radialGradient id="SVGID_10_" cx="186.2998" cy="31.3501" r="40.225" gradientUnits="userSpaceOnUse">
					<stop  offset="0" style="stop-color:#FFFFFF;stop-opacity:0"/>
					<stop  offset="0.502" style="stop-color:#FFFFFF;stop-opacity:8.627451e-002"/>
					<stop  offset="0.7059" style="stop-color:#FFFFFF;stop-opacity:0.6392"/>
					<stop  offset="0.8" style="stop-color:#FFFFFF;stop-opacity:0"/>
					<stop  offset="0.8784" style="stop-color:#FFFFFF;stop-opacity:0.6392"/>
					<stop  offset="1" style="stop-color:#FFFFFF;stop-opacity:0.2706"/>
				</radialGradient>
				<path fill-rule="evenodd" clip-rule="evenodd" fill="url(#SVGID_10_)" d="M209.8,21.9c-2.2-4.6-4.8-8-7.9-10.4
					c-3.2-1.8-7.3-3.7-12.4-5.6h3.5c4.6,0,8.6,1.6,11.9,4.9C208,13.9,209.7,17.6,209.8,21.9z"/>
				<linearGradient id="SVGID_11_" gradientUnits="userSpaceOnUse" x1="180.4375" y1="83.1323" x2="209.8625" y2="83.1323">
					<stop  offset="0" style="stop-color:#FFFFFF;stop-opacity:0.498"/>
					<stop  offset="0.1333" style="stop-color:#FFFFFE;stop-opacity:4.313726e-002"/>
					<stop  offset="0.2118" style="stop-color:#FBFBF7;stop-opacity:0.1373"/>
					<stop  offset="0.4078" style="stop-color:#FBFBF7;stop-opacity:0"/>
					<stop  offset="0.502" style="stop-color:#FCFCF9;stop-opacity:0"/>
					<stop  offset="0.8706" style="stop-color:#FDFDFB;stop-opacity:0.2235"/>
					<stop  offset="1" style="stop-color:#FFFFFF;stop-opacity:0.4431"/>
				</linearGradient>
				<path fill-rule="evenodd" clip-rule="evenodd" fill="url(#SVGID_11_)" d="M202,11.5c3.1,2.4,5.7,5.9,7.9,10.4v0.8v18.1v111.6
					h0.1c0,0,0,0.1-0.1,0.1c-1,1.8-5.7,2.5-14.3,2.3c-9.1,0-14.1-0.8-14.8-2.3l0-98.1v-4.6h0c0-4.9-0.4-8.4-1.3-10.4
					c0-0.2,0.1-0.3,0.1-0.3l-0.2-0.9l0.9-0.7c0.9-1.2,1.4-1.8,1.4-1.9c5.5-7.8,9.6-12.8,12.1-15.2C196.5,18.9,199.3,15.9,202,11.5z"
					/>
				<linearGradient id="SVGID_12_" gradientUnits="userSpaceOnUse" x1="-18.5186" y1="152.6748" x2="379.9189" y2="152.6748">
					<stop  offset="0" style="stop-color:#FFFFFF;stop-opacity:0.498"/>
					<stop  offset="0.1333" style="stop-color:#FFFFFE;stop-opacity:4.313726e-002"/>
					<stop  offset="0.2118" style="stop-color:#FBFBF7;stop-opacity:0.1373"/>
					<stop  offset="0.4078" style="stop-color:#FBFBF7;stop-opacity:0"/>
					<stop  offset="0.502" style="stop-color:#FCFCF9;stop-opacity:0"/>
					<stop  offset="0.8706" style="stop-color:#FDFDFB;stop-opacity:0.2235"/>
					<stop  offset="1" style="stop-color:#FFFFFF;stop-opacity:0.4431"/>
				</linearGradient>
				<path fill-rule="evenodd" clip-rule="evenodd" fill="url(#SVGID_12_)" d="M180.7,152.6L180.7,152.6l0,0.1
					C180.7,152.8,180.7,152.7,180.7,152.6z"/>
				<path fill-rule="evenodd" clip-rule="evenodd" fill="none" d="M11.5,153.5h-0.1 M10.2,152.4v0.4c0.2,0.3,0.6,0.6,1.2,0.8"/>
				<path fill-rule="evenodd" clip-rule="evenodd" fill="none" d="M11.4,153.5l-0.3,0.5 M10.2,152.4V152"/>
			</g>
			<g>
				
					<radialGradient id="SVGID_13_" cx="108.0498" cy="35.0498" r="157.2375" gradientTransform="matrix(1 0 0 0.6224 0 13.2353)" gradientUnits="userSpaceOnUse">
					<stop  offset="0" style="stop-color:#FFFFFF"/>
					<stop  offset="0.6" style="stop-color:#FEFEFE;stop-opacity:0.7059"/>
					<stop  offset="1" style="stop-color:#FAFAFA;stop-opacity:0"/>
				</radialGradient>
				<path fill-rule="evenodd" clip-rule="evenodd" fill="url(#SVGID_13_)" d="M168.7,33.5c0-0.1,0-0.1,0-0.1s0-0.1,0-0.1
					c0,0,0.1,0,0.1,0c1,0,2,0.1,3,0.3c0.4,0.1,0.8,0.2,1.3,0.4h0l0.2,0l0,0c3,1,5.2,2.7,6.4,5c0.8,2.2,1.2,5.8,1.3,10.6
					c0,0,0,0.1,0,0.1v78c0,0.1,0,0.1,0,0.1s0,0.1,0,0.1c0.2,0.5,1.5,0.9,3.7,1.3c0.1,0,0.1,0,0.2,0c0.1,0,0.2,0,0.3,0.1
					c0.5,0.1,1,0.2,1.5,0.3c0.8,0.1,1.6,0.1,2.4,0.2c0.7,0,1.4,0.1,2.1,0.1c4.4,0.2,8.7,0.1,13-0.4h0.3c0.1,0,0.1,0,0.2,0v0
					c0.3,0,0.6-0.1,1-0.1c0,0,0.1,0,0.2,0c0.1,0,0.3-0.1,0.4-0.1c2.1-0.3,3.3-0.7,3.7-1.2c0-0.1,0-0.1,0-0.2c0-0.1,0-0.1,0-0.2
					c0,0,0-0.1,0-0.1V21.9c-0.2-4.3-1.8-7.9-4.9-11C201.6,7.6,197.7,6,193,6H27c-1.3,0-2.5,0.1-3.8,0.4c-2.9,0.5-5,1.5-6.1,2.9
					l-0.1,0H17c-0.5,0.3-1.1,0.9-1.7,1.6c-0.8,0.8-1.5,1.6-2,2.5c-0.2,0.3-0.4,0.6-0.6,0.9h-0.1c-0.3,0.4-0.5,0.8-0.7,1.3
					c-1,2.1-1.5,4.5-1.5,7v105.3c0,0,0,0.1,0,0.1c0.2,0.5,1.4,0.9,3.6,1.3c0,0,0.1,0,0.2,0c0.1,0,0.1,0,0.3,0.1
					c0.5,0.1,1,0.2,1.5,0.3c0.8,0.1,1.6,0.1,2.4,0.2c0.7,0,1.4,0.1,2.1,0.1c4.3,0.2,8.6,0.1,12.8-0.4h0.3c0,0,0.1,0,0.2,0v0
					c0.3,0,0.6-0.1,0.9-0.1c0,0,0.1,0,0.2,0c0.1,0,0.3-0.1,0.4-0.1c2.1-0.3,3.3-0.7,3.6-1.2c0,0,0-0.1,0.1-0.1c0-0.1,0-0.1,0-0.1
					s0-0.1,0-0.1c0,0-0.1,0-0.1-0.1V45.1c0-1.5,0.3-2.8,0.8-4.1c0.3-1,0.8-1.9,1.4-2.7l1.1-1.3c0,0,0-0.1,0-0.1
					c0.1-0.1,0.2-0.2,0.3-0.3c0.3-0.3,0.5-0.5,0.8-0.7c0.4-0.4,0.9-0.7,1.4-1c0.9-0.6,1.9-1,2.9-1.3c1.1-0.3,2.3-0.5,3.5-0.5
					c0,0,0.1,0,0.1,0c0,0,0,0.1,0,0.1s0,0.1,0,0.1c-0.1,0-0.1,0-0.1,0c-1.2,0-2.3,0.2-3.4,0.5c-1,0.3-1.9,0.7-2.8,1.3
					c-0.5,0.3-0.9,0.6-1.3,1c-0.3,0.2-0.5,0.4-0.8,0.7c-0.1,0.1-0.2,0.1-0.3,0.2c0,0.1,0,0.1-0.1,0.1l-1.1,1.3
					c-0.6,0.8-1,1.7-1.3,2.6c-0.5,1.2-0.7,2.6-0.7,4v82.5c0,0.1,0,0.1,0,0.3c0,0.1,0,0.1,0,0.3c0,0,0,0.1-0.1,0.1
					c-0.4,0.5-1.6,1-3.8,1.3c-0.2,0-0.3,0.1-0.5,0.1c-0.1,0-0.2,0-0.2,0h-0.1c-0.3,0-0.6,0.1-0.9,0.1c-0.1,0-0.1,0-0.3,0h-0.3
					c-4.3,0.4-8.5,0.6-12.8,0.4c-0.7,0-1.4-0.1-2.2-0.1c-0.8-0.1-1.5-0.1-2.3-0.2c-0.6-0.1-1.1-0.2-1.6-0.3c-0.1,0-0.1-0.1-0.2-0.1
					h-0.1c-0.1,0-0.1,0-0.1,0c-2.4-0.4-3.7-0.9-3.9-1.5C10,128,10,128,10,127.9V22.6c0-2.6,0.5-5,1.5-7.1c0.2-0.5,0.5-1,0.8-1.4
					c0.2-0.4,0.4-0.7,0.6-1c0.6-0.9,1.3-1.7,2.1-2.5c0.7-0.8,1.3-1.3,1.9-1.6c0,0,0,0,0,0c1.2-1.4,3.3-2.4,6.3-2.9
					c1.2-0.3,2.5-0.4,3.8-0.4h166c4.7,0,8.7,1.7,12,5c3.1,3.1,4.8,6.9,5,11.3v105.6c0.1,0.1,0.1,0.2,0.1,0.4c0,0.1,0,0.2-0.1,0.4h0
					c-0.4,0.5-1.7,0.9-3.8,1.3c-0.2,0-0.3,0.1-0.5,0.1c-0.1,0-0.2,0-0.2,0h0c-0.3,0-0.6,0.1-0.9,0.1c-0.1,0-0.2,0-0.3,0H204
					c-4.3,0.4-8.6,0.6-13,0.4c-0.7,0-1.4-0.1-2.1-0.1c-0.8-0.1-1.6-0.1-2.4-0.2c-0.6-0.1-1.1-0.2-1.6-0.3c-0.1,0-0.1-0.1-0.2-0.1h0
					l-0.1,0h0c-2.4-0.4-3.8-0.9-4-1.5c0-0.1,0-0.1,0-0.2c0-0.1,0-0.1,0-0.2V49.9c0,0,0,0,0-0.1c0-4.9-0.4-8.5-1.2-10.6v0
					c-1.2-2.2-3.3-3.8-6.2-4.8l-0.3-0.1h-0.1l0,0c-0.4-0.1-0.8-0.2-1.1-0.3C170.8,33.7,169.8,33.5,168.7,33.5L168.7,33.5z"/>
				
					<radialGradient id="SVGID_14_" cx="108.0498" cy="35.0498" r="157.2375" gradientTransform="matrix(1 0 0 0.6224 0 13.2353)" gradientUnits="userSpaceOnUse">
					<stop  offset="0" style="stop-color:#FFFFFF;stop-opacity:0.1176"/>
					<stop  offset="0.6" style="stop-color:#FEFEFE;stop-opacity:0.7059"/>
					<stop  offset="1" style="stop-color:#FAFAFA;stop-opacity:0"/>
				</radialGradient>
				<path fill-rule="evenodd" clip-rule="evenodd" fill="url(#SVGID_14_)" d="M51,33.3h117.8c0,0-0.1,0-0.1,0c0,0,0,0.1,0,0.1
					s0,0.1,0,0.1H51.1c0-0.1,0-0.1,0-0.1s0-0.1,0-0.1C51.1,33.3,51,33.3,51,33.3z"/>
			</g>
		</g>
		<g>
			
				<radialGradient id="SVGID_15_" cx="31.8501" cy="27.5" r="32.3303" gradientTransform="matrix(0.8108 -0.5853 0.4334 0.6004 -5.8938 29.631)" gradientUnits="userSpaceOnUse">
				<stop  offset="0" style="stop-color:#FFFFFF;stop-opacity:0"/>
				<stop  offset="0.5412" style="stop-color:#FFFFFF;stop-opacity:0"/>
				<stop  offset="0.7882" style="stop-color:#FFFFFF;stop-opacity:0.298"/>
				<stop  offset="1" style="stop-color:#FFFFFF"/>
			</radialGradient>
			<path fill-rule="evenodd" clip-rule="evenodd" fill="url(#SVGID_15_)" d="M42.6,6.8c-19.2,0.2-19.6,6.7-1,19.6
				c-1.2,1.3-2.4,2.4-3.6,3.5c-3,2.7-9.7,4.3-20.2,4.5c-2.5,0.1-4.5,3.1-6.3,9.2l-0.3-22.8c0.8-4.3,2.4-7.6,4.7-10
				c1.9-2,4.9-3.4,8.8-4.3L42.6,6.8z"/>
		</g>
		<g>
			
				<radialGradient id="SVGID_16_" cx="-512.6621" cy="-27.2598" r="32.3303" gradientTransform="matrix(-0.8108 -0.5853 -0.4334 0.6004 -238.6823 -255.705)" gradientUnits="userSpaceOnUse">
				<stop  offset="0" style="stop-color:#FFFFFF;stop-opacity:0"/>
				<stop  offset="0.5412" style="stop-color:#FFFFFF;stop-opacity:0"/>
				<stop  offset="0.7882" style="stop-color:#FFFFFF;stop-opacity:0.298"/>
				<stop  offset="1" style="stop-color:#FFFFFF"/>
			</radialGradient>
			<path fill-rule="evenodd" clip-rule="evenodd" fill="url(#SVGID_16_)" d="M196,7c3.9,0.9,6.8,2.3,8.8,4.3c2.3,2.4,3.9,5.7,4.8,10
				l-0.4,22.8c-1.7-6.1-3.8-9.1-6.3-9.2c-10.5-0.3-17.3-1.8-20.3-4.5c-1.2-1.1-2.4-2.2-3.6-3.5c18.6-12.9,18.3-19.4-1-19.6L196,7z"
				/>
		</g>
		<g>
			
				<linearGradient id="SVGID_17_" gradientUnits="userSpaceOnUse" x1="-34.1147" y1="-377.7988" x2="-27.6885" y2="-377.7988" gradientTransform="matrix(-1.945157e-002 0.9998 -1.0002 -1.984426e-003 -268.9934 39.7468)">
				<stop  offset="0" style="stop-color:#FFFFFF"/>
				<stop  offset="1" style="stop-color:#FFFFFF;stop-opacity:0"/>
			</linearGradient>
			<path fill-rule="evenodd" clip-rule="evenodd" fill="url(#SVGID_17_)" d="M29.5,7.3h159.1c8.9,0.7,13.5,2.3,13.6,4.8L16.6,12.3
				C16.3,10.1,20.6,8.4,29.5,7.3z"/>
			<line fill-rule="evenodd" clip-rule="evenodd" fill="none" x1="51.3" y1="32.5" x2="163.9" y2="32.5"/>
			<g>
				
					<radialGradient id="SVGID_18_" cx="-508.1313" cy="-41.8057" r="7.3614" gradientTransform="matrix(-0.8111 -0.5849 -0.4325 0.5998 -253.546 -235.1552)" gradientUnits="userSpaceOnUse">
					<stop  offset="0" style="stop-color:#FFFFFF"/>
					<stop  offset="0.2667" style="stop-color:#FFFFFF"/>
					<stop  offset="0.4" style="stop-color:#FFFFFF;stop-opacity:0.5922"/>
					<stop  offset="1" style="stop-color:#FFFFFF;stop-opacity:0"/>
				</radialGradient>
				<path fill-rule="evenodd" clip-rule="evenodd" fill="url(#SVGID_18_)" d="M170.5,31c0.7-0.1,1.3-0.2,2-0.4l3.4,0
					c4.1-0.7,6.6-0.4,7.4,1.1c0.9,1.4,0.9,3.7,0,6.9c0,0.7,0.2,1.9,0.5,3.4l-3,1c-0.9-6.4-4.3-9.6-10.3-9.5V31z"/>
			</g>
			<g>
				
					<radialGradient id="SVGID_19_" cx="61" cy="57.6499" r="35.8125" gradientTransform="matrix(1 0 0 0.8429 0 9.055)" gradientUnits="userSpaceOnUse">
					<stop  offset="0" style="stop-color:#FFFFFF"/>
					<stop  offset="0.2667" style="stop-color:#FFFFFF"/>
					<stop  offset="0.4" style="stop-color:#FFFFFF;stop-opacity:0.7059"/>
					<stop  offset="1" style="stop-color:#FFFFFF;stop-opacity:0"/>
				</radialGradient>
				<path fill-rule="evenodd" clip-rule="evenodd" fill="url(#SVGID_19_)" d="M46.9,32.2v0.4c-0.1,0-0.1-0.1-0.3-0.1
					C46.7,32.4,46.8,32.3,46.9,32.2z"/>
				<radialGradient id="SVGID_20_" cx="40.6001" cy="36.75" r="6.15" gradientUnits="userSpaceOnUse">
					<stop  offset="0" style="stop-color:#FFFFFF"/>
					<stop  offset="0.2667" style="stop-color:#FFFFFF"/>
					<stop  offset="0.4" style="stop-color:#FFFFFF;stop-opacity:0.7059"/>
					<stop  offset="1" style="stop-color:#FFFFFF;stop-opacity:0"/>
				</radialGradient>
				<path fill-rule="evenodd" clip-rule="evenodd" fill="url(#SVGID_20_)" d="M44,32c-0.2,0-0.4,0-0.4-0.1c0.1-0.1,0.1-0.1,0.2-0.1
					C43.9,31.8,44,31.9,44,32l0.3-0.1C44.1,31.9,44.1,32,44,32z"/>
				<radialGradient id="SVGID_21_" cx="177.4004" cy="35.7002" r="4.5" gradientUnits="userSpaceOnUse">
					<stop  offset="0" style="stop-color:#FFFFFF"/>
					<stop  offset="0.2667" style="stop-color:#FFFFFF"/>
					<stop  offset="0.4" style="stop-color:#FFFFFF;stop-opacity:0.7059"/>
					<stop  offset="1" style="stop-color:#FFFFFF;stop-opacity:0"/>
				</radialGradient>
				<path fill-rule="evenodd" clip-rule="evenodd" fill="url(#SVGID_21_)" d="M174.3,33.4c0-0.1,0-0.2,0-0.3c0-0.1,0-0.1,0-0.3
					s0-0.2,0.1-0.3c0-0.1,0.1-0.1,0.2-0.2v-0.1c1.1,0.4,2.1,0.9,3,1.5c0.9,0.7,1.7,1.5,2.5,2.5c0.1,0.1,0.2,0.3,0.3,0.5
					c0.4,0.7,0.5,1.4,0.3,2.1c-0.1,0-0.2,0-0.3,0c-0.1-0.1-0.3-0.2-0.4-0.4c-0.2-0.4-0.4-0.7-0.7-1c-0.3-0.4-0.5-0.7-0.8-1
					c-0.2-0.3-0.4-0.7-0.5-1.1c-0.3,0-0.6-0.1-0.9-0.3c-0.3-0.2-0.6-0.4-0.9-0.6c-0.5-0.4-1-0.6-1.5-0.8c-0.1-0.1-0.1-0.1-0.2-0.3
					C174.3,33.5,174.3,33.4,174.3,33.4z"/>
			</g>
			<g>
				
					<radialGradient id="SVGID_22_" cx="42.7002" cy="37.2998" r="7.3614" gradientTransform="matrix(0.8111 -0.5849 0.4325 0.5998 -8.0666 39.9008)" gradientUnits="userSpaceOnUse">
					<stop  offset="0" style="stop-color:#FFFFFF"/>
					<stop  offset="0.2667" style="stop-color:#FFFFFF"/>
					<stop  offset="0.4" style="stop-color:#FFFFFF;stop-opacity:0.5922"/>
					<stop  offset="1" style="stop-color:#FFFFFF;stop-opacity:0"/>
				</radialGradient>
				<path fill-rule="evenodd" clip-rule="evenodd" fill="url(#SVGID_22_)" d="M36,39c-0.9-3.2-0.9-5.6,0-7c0.9-1.4,3.3-1.8,7.4-1
					l3.4,0c0.7,0.1,1.4,0.2,2,0.3v2.6c-6-0.1-9.4,3-10.4,9.5l-2.9-1C35.9,40.8,36,39.7,36,39z"/>
			</g>
		</g>
		<g>
			
				<radialGradient id="SVGID_23_" cx="37.3501" cy="33.7998" r="8.6676" gradientTransform="matrix(0.8047 -0.5936 1.0056 1.3633 -26.6972 9.8945)" gradientUnits="userSpaceOnUse">
				<stop  offset="0" style="stop-color:#7B6D59;stop-opacity:0.498"/>
				<stop  offset="0.5686" style="stop-color:#544B3E;stop-opacity:0"/>
				<stop  offset="1" style="stop-color:#0A0A0A;stop-opacity:0"/>
			</radialGradient>
			<path fill-rule="evenodd" clip-rule="evenodd" fill="url(#SVGID_23_)" d="M26.6,24.8c22-7.2,29.8-4.3,23.3,8.7
				c-5.4,0.6-9,3.4-10.6,8.3L39,45.5C22.2,55,18.1,48,26.6,24.8z"/>
			<g>
				
					<radialGradient id="SVGID_24_" cx="-510.0068" cy="-31.6294" r="8.6676" gradientTransform="matrix(-0.8047 -0.5936 -1.0056 1.3633 -259.6281 -226.1884)" gradientUnits="userSpaceOnUse">
					<stop  offset="0" style="stop-color:#7B6D59;stop-opacity:0.498"/>
					<stop  offset="0.5686" style="stop-color:#544B3E;stop-opacity:0"/>
					<stop  offset="1" style="stop-color:#0A0A0A;stop-opacity:0"/>
				</radialGradient>
				<path fill-rule="evenodd" clip-rule="evenodd" fill="url(#SVGID_24_)" d="M193.3,24.4c8.6,23.3,4.5,30.3-12.3,20.8l-0.4-3.8
					c-1.6-4.9-5.2-7.7-10.6-8.3C163.5,20.1,171.3,17.2,193.3,24.4z"/>
			</g>
		</g>
	</g>
</g>
</svg>
