<svg id="Layer_1" data-name="Layer 1" xmlns="http://www.w3.org/2000/svg" width="672.42" height="165.64" viewBox="0 0 672.42 165.64"><defs><style>.cls-1{fill:#565656;}</style></defs><title>AluminumNitride</title><path class="cls-1" d="M106.41,254.26h26V262H114.53V368.08h17.92v7.7h-26V254.26Z" transform="translate(-106.41 -232.6)"/><path class="cls-1" d="M205.53,342.46H159l-8.26,20.72h-13.3L175,269.8h14.42l37.66,93.38h-13.3ZM162.41,332.1H202l-19.74-50.26Z" transform="translate(-106.41 -232.6)"/><path class="cls-1" d="M240.25,269.8h10.5v93.38h-10.5V269.8Z" transform="translate(-106.41 -232.6)"/><path class="cls-1" d="M265,368.08h17.92V262H265v-7.7h26V375.78H265v-7.7Z" transform="translate(-106.41 -232.6)"/><path class="cls-1" d="M320.75,294.56H316.1V277.17H300.43v-4.24H316.1V256h4.65v16.9h15.67v4.24H320.75v17.38Z" transform="translate(-106.41 -232.6)"/><path class="cls-1" d="M346,290.31a18.91,18.91,0,0,0,15.18,7.18c7.92,0,12.73-3.92,12.73-10.2,0-6.77-5.55-9.63-13.55-9.63-2.29,0-4.82,0-5.63.08v-6.2c0.9,0.08,3.43.08,5.63,0.08,6.86,0,12.65-2.69,12.65-9,0-6-5.55-9.3-12.16-9.3-6,0-10.37,2.29-14.36,6.61l-3.75-4.24a23.59,23.59,0,0,1,18.61-8.41c10.45,0,18.45,5.31,18.45,14.53,0,7.84-6.61,11.75-11.75,12.65,5,0.41,12.57,4.65,12.57,13.39,0,9.06-7.26,15.67-19.26,15.67-9.22,0-16-4.08-19.34-9Z" transform="translate(-106.41 -232.6)"/><path class="cls-1" d="M471.75,254h26v7.7H479.88V367.8h17.92v7.7h-26V254Z" transform="translate(-106.41 -232.6)"/><path class="cls-1" d="M561.63,288.42V362.9H550V269.52h11.9l53.76,72.94V269.52h11.62V362.9h-11.2Z" transform="translate(-106.41 -232.6)"/><path class="cls-1" d="M679.51,367.8h17.92V261.68H679.51V254h26V375.5h-26v-7.7Z" transform="translate(-106.41 -232.6)"/><path class="cls-1" d="M715,279.83h19.59v5.39H715v-5.39Z" transform="translate(-106.41 -232.6)"/><path class="cls-1" d="M744.22,290a18.91,18.91,0,0,0,15.18,7.18c7.92,0,12.73-3.92,12.73-10.2,0-6.77-5.55-9.63-13.55-9.63-2.29,0-4.82,0-5.63.08v-6.2c0.9,0.08,3.43.08,5.63,0.08,6.86,0,12.65-2.69,12.65-9,0-6-5.55-9.3-12.16-9.3-6,0-10.37,2.29-14.36,6.61L741,255.43A23.59,23.59,0,0,1,759.56,247C770,247,778,252.32,778,261.55c0,7.84-6.61,11.75-11.75,12.65,5,0.41,12.57,4.65,12.57,13.39,0,9.06-7.26,15.67-19.26,15.67-9.22,0-16-4.08-19.34-9Z" transform="translate(-106.41 -232.6)"/><circle class="cls-1" cx="409.98" cy="100.43" r="12.8"/><circle class="cls-1" cx="409.98" cy="64.43" r="12.8"/><circle class="cls-1" cx="462.86" cy="12.8" r="12.8"/><circle class="cls-1" cx="498.86" cy="12.8" r="12.8"/><circle class="cls-1" cx="462.86" cy="152.84" r="12.8"/><circle class="cls-1" cx="498.86" cy="152.84" r="12.8"/><circle class="cls-1" cx="553.45" cy="100.43" r="12.8"/><circle class="cls-1" cx="553.45" cy="64.43" r="12.8"/></svg>