<svg id="Layer_1" data-name="Layer 1" xmlns="http://www.w3.org/2000/svg" width="696.58" height="381.37" viewBox="0 0 696.58 381.37"><defs><style>.cls-1{fill:#565656;}</style></defs><title>CalciumNitride</title><path class="cls-1" d="M98.64,107.77h26v7.7H106.76V221.59h17.92v7.7h-26V107.77Z" transform="translate(-98.3 -100.81)"/><path class="cls-1" d="M135.6,170.07c0-28.7,21.14-48.3,48-48.3,16.52,0,28,8,35.42,18.48l-9.8,5.46a31.5,31.5,0,0,0-25.62-13.58c-20.44,0-36,15.68-36,37.94s15.54,37.94,36,37.94a31.14,31.14,0,0,0,25.62-13.58l9.94,5.46c-7.84,10.64-19,18.48-35.56,18.48C156.74,218.37,135.6,198.77,135.6,170.07Z" transform="translate(-98.3 -100.81)"/><path class="cls-1" d="M277.28,209c-5.6,6.16-13.3,9.38-22.4,9.38-11.48,0-23.66-7.7-23.66-22.4,0-15.12,12.18-22.26,23.66-22.26,9.24,0,16.94,2.94,22.4,9.24V170.77c0-9.1-7.28-14.28-17.08-14.28-8.12,0-14.7,2.94-20.72,9.38l-4.9-7.28c7.28-7.56,16-11.2,27-11.2,14.28,0,26.18,6.44,26.18,22.82v46.48h-10.5V209Zm0-19.32c-4.06-5.6-11.2-8.4-18.62-8.4-9.8,0-16.66,6.16-16.66,14.84s6.86,14.7,16.66,14.7c7.42,0,14.56-2.8,18.62-8.4V189.67Z" transform="translate(-98.3 -100.81)"/><path class="cls-1" d="M302.06,221.59H320V115.47H302.06v-7.7h26V229.29h-26v-7.7Z" transform="translate(-98.3 -100.81)"/><path class="cls-1" d="M357.79,148.07h-4.65V130.68H337.47v-4.24h15.67v-16.9h4.65v16.9h15.67v4.24H357.79v17.38Z" transform="translate(-98.3 -100.81)"/><path class="cls-1" d="M381.05,150.68c19.59-15.43,30.2-24.49,30.2-33.87,0-6.94-5.71-10-11.34-10a18.2,18.2,0,0,0-14.77,6.86L381,109.38c4.16-5.47,11.26-8.57,18.94-8.57,9.06,0,18.28,5.14,18.28,16,0,11.1-11.26,21.22-26.44,33.22h26.69v6H381.05v-5.39Z" transform="translate(-98.3 -100.81)"/><path class="cls-1" d="M487.07,145.75h26v7.7H495.19V259.57h17.92v7.7h-26V145.75Z" transform="translate(-98.3 -100.81)"/><path class="cls-1" d="M576.95,180.19v74.48H565.33V161.29h11.9L631,234.23V161.29H642.6v93.38h-11.2Z" transform="translate(-98.3 -100.81)"/><path class="cls-1" d="M694.82,259.57h17.92V153.45H694.82v-7.7h26V267.27h-26v-7.7Z" transform="translate(-98.3 -100.81)"/><path class="cls-1" d="M730.31,171.6H749.9V177H730.31V171.6Z" transform="translate(-98.3 -100.81)"/><path class="cls-1" d="M759.53,181.8A18.91,18.91,0,0,0,774.71,189c7.92,0,12.73-3.92,12.73-10.2,0-6.77-5.55-9.63-13.55-9.63-2.29,0-4.82,0-5.63.08V163c0.9,0.08,3.43.08,5.63,0.08,6.86,0,12.65-2.69,12.65-9,0-6-5.55-9.3-12.16-9.3-6,0-10.37,2.29-14.36,6.61l-3.75-4.24a23.59,23.59,0,0,1,18.61-8.41c10.45,0,18.45,5.31,18.45,14.53,0,7.84-6.61,11.75-11.75,12.65,5,0.41,12.57,4.65,12.57,13.39,0,9.06-7.26,15.67-19.26,15.67-9.22,0-16-4.08-19.34-9Z" transform="translate(-98.3 -100.81)"/><circle class="cls-1" cx="434.4" cy="123.99" r="12.8"/><circle class="cls-1" cx="434.4" cy="87.99" r="12.8"/><circle class="cls-1" cx="486.28" cy="36.36" r="12.8"/><circle class="cls-1" cx="522.28" cy="36.36" r="12.8"/><circle class="cls-1" cx="486.28" cy="176.4" r="12.8"/><circle class="cls-1" cx="522.28" cy="176.4" r="12.8"/><circle class="cls-1" cx="574.87" cy="123.99" r="12.8"/><circle class="cls-1" cx="574.87" cy="87.99" r="12.8"/><path class="cls-1" d="M98.3,234.31h26V242H106.42V348.13h17.92v7.7h-26V234.31Z" transform="translate(-98.3 -100.81)"/><path class="cls-1" d="M135.26,296.61c0-28.7,21.14-48.3,48-48.3,16.52,0,28,8,35.42,18.48l-9.8,5.46a31.5,31.5,0,0,0-25.62-13.58c-20.44,0-36,15.68-36,37.94s15.54,37.94,36,37.94A31.14,31.14,0,0,0,208.9,321l9.94,5.46c-7.84,10.64-19,18.48-35.56,18.48C156.4,344.91,135.26,325.31,135.26,296.61Z" transform="translate(-98.3 -100.81)"/><path class="cls-1" d="M276.94,335.53c-5.6,6.16-13.3,9.38-22.4,9.38-11.48,0-23.66-7.7-23.66-22.4,0-15.12,12.18-22.26,23.66-22.26,9.24,0,16.94,2.94,22.4,9.24V297.31c0-9.1-7.28-14.28-17.08-14.28-8.12,0-14.7,2.94-20.72,9.38l-4.9-7.28c7.28-7.56,16-11.2,27-11.2,14.28,0,26.18,6.44,26.18,22.82v46.48h-10.5v-7.7Zm0-19.32c-4.06-5.6-11.2-8.4-18.62-8.4-9.8,0-16.66,6.16-16.66,14.84s6.86,14.7,16.66,14.7c7.42,0,14.56-2.8,18.62-8.4V316.21Z" transform="translate(-98.3 -100.81)"/><path class="cls-1" d="M301.72,348.13h17.92V242H301.72v-7.7h26V355.83h-26v-7.7Z" transform="translate(-98.3 -100.81)"/><path class="cls-1" d="M357.45,274.61H352.8V257.22H337.13V253H352.8v-16.9h4.65V253h15.67v4.24H357.45v17.38Z" transform="translate(-98.3 -100.81)"/><path class="cls-1" d="M380.71,277.22c19.59-15.43,30.2-24.49,30.2-33.87,0-6.94-5.71-10-11.34-10a18.2,18.2,0,0,0-14.77,6.86l-4.16-4.33c4.16-5.47,11.26-8.57,18.94-8.57,9.06,0,18.28,5.14,18.28,16,0,11.1-11.26,21.22-26.44,33.22h26.69v6H380.71v-5.39Z" transform="translate(-98.3 -100.81)"/><path class="cls-1" d="M98.3,360.66h26v7.7H106.42V474.48h17.92v7.7h-26V360.66Z" transform="translate(-98.3 -100.81)"/><path class="cls-1" d="M135.26,423c0-28.7,21.14-48.3,48-48.3,16.52,0,28,8,35.42,18.48l-9.8,5.46A31.5,31.5,0,0,0,183.28,385c-20.44,0-36,15.68-36,37.94s15.54,37.94,36,37.94a31.14,31.14,0,0,0,25.62-13.58l9.94,5.46c-7.84,10.64-19,18.48-35.56,18.48C156.4,471.26,135.26,451.66,135.26,423Z" transform="translate(-98.3 -100.81)"/><path class="cls-1" d="M276.94,461.88c-5.6,6.16-13.3,9.38-22.4,9.38-11.48,0-23.66-7.7-23.66-22.4,0-15.12,12.18-22.26,23.66-22.26,9.24,0,16.94,2.94,22.4,9.24V423.66c0-9.1-7.28-14.28-17.08-14.28-8.12,0-14.7,2.94-20.72,9.38l-4.9-7.28c7.28-7.56,16-11.2,27-11.2,14.28,0,26.18,6.44,26.18,22.82v46.48h-10.5v-7.7Zm0-19.32c-4.06-5.6-11.2-8.4-18.62-8.4-9.8,0-16.66,6.16-16.66,14.84s6.86,14.7,16.66,14.7c7.42,0,14.56-2.8,18.62-8.4V442.56Z" transform="translate(-98.3 -100.81)"/><path class="cls-1" d="M301.72,474.48h17.92V368.36H301.72v-7.7h26V482.18h-26v-7.7Z" transform="translate(-98.3 -100.81)"/><path class="cls-1" d="M357.45,401H352.8V383.58H337.13v-4.24H352.8V362.44h4.65v16.89h15.67v4.24H357.45V401Z" transform="translate(-98.3 -100.81)"/><path class="cls-1" d="M380.71,403.58c19.59-15.43,30.2-24.49,30.2-33.87,0-6.94-5.71-10-11.34-10a18.2,18.2,0,0,0-14.77,6.86l-4.16-4.33c4.16-5.47,11.26-8.57,18.94-8.57,9.06,0,18.28,5.14,18.28,16,0,11.1-11.26,21.22-26.44,33.22h26.69v6H380.71v-5.39Z" transform="translate(-98.3 -100.81)"/><path class="cls-1" d="M487.8,335.09h26v7.7H495.92V448.91h17.92v7.7h-26V335.09Z" transform="translate(-98.3 -100.81)"/><path class="cls-1" d="M577.68,369.53V444H566.06V350.63H578l53.76,72.94V350.63h11.62V444h-11.2Z" transform="translate(-98.3 -100.81)"/><path class="cls-1" d="M695.56,448.91h17.92V342.79H695.56v-7.7h26V456.61h-26v-7.7Z" transform="translate(-98.3 -100.81)"/><path class="cls-1" d="M731,360.94h19.59v5.39H731v-5.39Z" transform="translate(-98.3 -100.81)"/><path class="cls-1" d="M760.27,371.15a18.91,18.91,0,0,0,15.18,7.18c7.92,0,12.73-3.92,12.73-10.2,0-6.77-5.55-9.63-13.55-9.63-2.29,0-4.82,0-5.63.08v-6.2c0.9,0.08,3.43.08,5.63,0.08,6.86,0,12.65-2.69,12.65-9,0-6-5.55-9.3-12.16-9.3-6,0-10.37,2.29-14.36,6.61L757,336.54a23.59,23.59,0,0,1,18.61-8.41c10.45,0,18.45,5.3,18.45,14.53,0,7.83-6.61,11.75-11.75,12.65,5,0.41,12.57,4.65,12.57,13.39,0,9.06-7.26,15.67-19.26,15.67-9.22,0-16-4.08-19.34-9Z" transform="translate(-98.3 -100.81)"/><circle class="cls-1" cx="435.14" cy="313.33" r="12.8"/><circle class="cls-1" cx="435.14" cy="277.33" r="12.8"/><circle class="cls-1" cx="487.02" cy="225.71" r="12.8"/><circle class="cls-1" cx="523.02" cy="225.71" r="12.8"/><circle class="cls-1" cx="487.02" cy="365.75" r="12.8"/><circle class="cls-1" cx="523.02" cy="365.75" r="12.8"/><circle class="cls-1" cx="575.61" cy="313.33" r="12.8"/><circle class="cls-1" cx="575.61" cy="277.33" r="12.8"/></svg>