<svg id="Layer_1" data-name="Layer 1" xmlns="http://www.w3.org/2000/svg" width="624.02" height="354.98" viewBox="0 0 624.02 354.98"><defs><style>.cls-1{fill:#565656;}</style></defs><title>CalciumFluoride</title><path class="cls-1" d="M83.74,242.26h26V250H91.86V356.08h17.92v7.7h-26V242.26Z" transform="translate(-83.74 -127.9)"/><path class="cls-1" d="M120.7,304.56c0-28.7,21.14-48.3,48-48.3,16.52,0,28,8,35.42,18.48l-9.8,5.46a31.5,31.5,0,0,0-25.62-13.58c-20.44,0-36,15.68-36,37.94s15.54,37.94,36,37.94a31.14,31.14,0,0,0,25.62-13.58l9.94,5.46c-7.84,10.64-19,18.48-35.56,18.48C141.84,352.86,120.7,333.26,120.7,304.56Z" transform="translate(-83.74 -127.9)"/><path class="cls-1" d="M262.38,343.48c-5.6,6.16-13.3,9.38-22.4,9.38-11.48,0-23.66-7.7-23.66-22.4,0-15.12,12.18-22.26,23.66-22.26,9.24,0,16.94,2.94,22.4,9.24V305.26c0-9.1-7.28-14.28-17.08-14.28-8.12,0-14.7,2.94-20.72,9.38l-4.9-7.28c7.28-7.56,16-11.2,27-11.2,14.28,0,26.18,6.44,26.18,22.82v46.48h-10.5v-7.7Zm0-19.32c-4.06-5.6-11.2-8.4-18.62-8.4-9.8,0-16.66,6.16-16.66,14.84s6.86,14.7,16.66,14.7c7.42,0,14.56-2.8,18.62-8.4V324.16Z" transform="translate(-83.74 -127.9)"/><path class="cls-1" d="M287.16,356.08h17.92V250H287.16v-7.7h26V363.78h-26v-7.7Z" transform="translate(-83.74 -127.9)"/><path class="cls-1" d="M342.89,282.56h-4.65V265.17H322.57v-4.24h15.67V244h4.65v16.9h15.67v4.24H342.89v17.38Z" transform="translate(-83.74 -127.9)"/><path class="cls-1" d="M366.15,285.17c19.59-15.43,30.2-24.49,30.2-33.87,0-6.94-5.71-10-11.34-10a18.2,18.2,0,0,0-14.77,6.86l-4.16-4.33c4.16-5.47,11.26-8.57,18.94-8.57,9.06,0,18.28,5.14,18.28,16,0,11.1-11.26,21.22-26.44,33.22h26.69v6H366.15v-5.39Z" transform="translate(-83.74 -127.9)"/><path class="cls-1" d="M466.31,149.27h26V157H474.43V263.09h17.92v7.7h-26V149.27Z" transform="translate(-83.74 -127.9)"/><path class="cls-1" d="M544.57,164.81h61.18v10.36H556.19v30.1h48.58v10.36H556.19v42.56H544.57V164.81Z" transform="translate(-83.74 -127.9)"/><path class="cls-1" d="M651.95,263.09h17.92V157H651.95v-7.7h26V270.79h-26v-7.7Z" transform="translate(-83.74 -127.9)"/><path class="cls-1" d="M687.43,175.13H707v5.39H687.43v-5.39Z" transform="translate(-83.74 -127.9)"/><circle class="cls-1" cx="425.88" cy="100.43" r="12.8"/><circle class="cls-1" cx="425.88" cy="64.43" r="12.8"/><circle class="cls-1" cx="467.75" cy="12.8" r="12.8"/><circle class="cls-1" cx="503.75" cy="12.8" r="12.8"/><circle class="cls-1" cx="467.75" cy="152.84" r="12.8"/><circle class="cls-1" cx="503.75" cy="152.84" r="12.8"/><circle class="cls-1" cx="551.35" cy="100.43" r="12.8"/><circle class="cls-1" cx="551.35" cy="64.43" r="12.8"/><path class="cls-1" d="M467,338.62h26v7.7H475.17V452.43h17.92v7.7H467V338.62Z" transform="translate(-83.74 -127.9)"/><path class="cls-1" d="M545.31,354.16h61.18v10.36H556.93v30.1h48.58V405H556.93v42.56H545.31V354.16Z" transform="translate(-83.74 -127.9)"/><path class="cls-1" d="M652.69,452.43h17.92V346.31H652.69v-7.7h26V460.13h-26v-7.7Z" transform="translate(-83.74 -127.9)"/><path class="cls-1" d="M688.17,364.47h19.59v5.39H688.17v-5.39Z" transform="translate(-83.74 -127.9)"/><circle class="cls-1" cx="426.62" cy="289.77" r="12.8"/><circle class="cls-1" cx="426.62" cy="253.77" r="12.8"/><circle class="cls-1" cx="468.49" cy="202.14" r="12.8"/><circle class="cls-1" cx="504.49" cy="202.14" r="12.8"/><circle class="cls-1" cx="468.49" cy="342.18" r="12.8"/><circle class="cls-1" cx="504.49" cy="342.18" r="12.8"/><circle class="cls-1" cx="552.08" cy="289.77" r="12.8"/><circle class="cls-1" cx="552.08" cy="253.77" r="12.8"/></svg>