<svg id="Layer_1" data-name="Layer 1" xmlns="http://www.w3.org/2000/svg" width="699.63" height="165.64" viewBox="0 0 699.63 165.64"><defs><style>.cls-1{fill:#565656;}</style></defs><title>CalciumOxide</title><path class="cls-1" d="M82.74,254.26h26V262H90.86V368.08h17.92v7.7h-26V254.26Z" transform="translate(-82.74 -232.6)"/><path class="cls-1" d="M119.7,316.56c0-28.7,21.14-48.3,48-48.3,16.52,0,28,8,35.42,18.48l-9.8,5.46a31.5,31.5,0,0,0-25.62-13.58c-20.44,0-36,15.68-36,37.94s15.54,37.94,36,37.94a31.14,31.14,0,0,0,25.62-13.58l9.94,5.46c-7.84,10.64-19,18.48-35.56,18.48C140.84,364.86,119.7,345.26,119.7,316.56Z" transform="translate(-82.74 -232.6)"/><path class="cls-1" d="M261.38,355.48c-5.6,6.16-13.3,9.38-22.4,9.38-11.48,0-23.66-7.7-23.66-22.4,0-15.12,12.18-22.26,23.66-22.26,9.24,0,16.94,2.94,22.4,9.24V317.26c0-9.1-7.28-14.28-17.08-14.28-8.12,0-14.7,2.94-20.72,9.38l-4.9-7.28c7.28-7.56,16-11.2,27-11.2,14.28,0,26.18,6.44,26.18,22.82v46.48h-10.5v-7.7Zm0-19.32c-4.06-5.6-11.2-8.4-18.62-8.4-9.8,0-16.66,6.16-16.66,14.84s6.86,14.7,16.66,14.7c7.42,0,14.56-2.8,18.62-8.4V336.16Z" transform="translate(-82.74 -232.6)"/><path class="cls-1" d="M286.16,368.08h17.92V262H286.16v-7.7h26V375.78h-26v-7.7Z" transform="translate(-82.74 -232.6)"/><path class="cls-1" d="M341.89,294.56h-4.65V277.17H321.57v-4.24h15.67V256h4.65v16.9h15.67v4.24H341.89v17.38Z" transform="translate(-82.74 -232.6)"/><path class="cls-1" d="M365.15,297.17c19.59-15.43,30.2-24.49,30.2-33.87,0-6.94-5.71-10-11.34-10a18.2,18.2,0,0,0-14.77,6.86l-4.16-4.33c4.16-5.47,11.26-8.57,18.94-8.57,9.06,0,18.28,5.14,18.28,16,0,11.1-11.26,21.22-26.44,33.22h26.69v6H365.15v-5.39Z" transform="translate(-82.74 -232.6)"/><path class="cls-1" d="M466.5,254h26v7.7H474.62V367.8h17.92v7.7h-26V254Z" transform="translate(-82.74 -232.6)"/><path class="cls-1" d="M587.32,268c27.58,0,46.34,20.72,46.34,48.3s-18.76,48.3-46.34,48.3S541,343.86,541,316.28,559.6,268,587.32,268Zm0,10.36c-21,0-34.3,16.1-34.3,37.94s13.3,37.94,34.3,37.94,34.3-16.24,34.3-37.94S608.18,278.34,587.32,278.34Z" transform="translate(-82.74 -232.6)"/><path class="cls-1" d="M682.24,367.8h17.92V261.68H682.24V254h26V375.5h-26v-7.7Z" transform="translate(-82.74 -232.6)"/><path class="cls-1" d="M717.72,279.83h19.59v5.39H717.72v-5.39Z" transform="translate(-82.74 -232.6)"/><path class="cls-1" d="M745,296.89c19.59-15.43,30.2-24.49,30.2-33.87,0-6.94-5.71-10-11.34-10a18.2,18.2,0,0,0-14.77,6.86l-4.16-4.33c4.16-5.47,11.26-8.57,18.94-8.57,9.06,0,18.28,5.14,18.28,16,0,11.1-11.26,21.22-26.44,33.22h26.69v6H745v-5.39Z" transform="translate(-82.74 -232.6)"/><circle class="cls-1" cx="430.65" cy="100.43" r="12.8"/><circle class="cls-1" cx="430.65" cy="64.43" r="12.8"/><circle class="cls-1" cx="486.53" cy="12.8" r="12.8"/><circle class="cls-1" cx="522.53" cy="12.8" r="12.8"/><circle class="cls-1" cx="486.53" cy="152.84" r="12.8"/><circle class="cls-1" cx="522.53" cy="152.84" r="12.8"/><circle class="cls-1" cx="580.12" cy="100.43" r="12.8"/><circle class="cls-1" cx="580.12" cy="64.43" r="12.8"/></svg>