<svg id="Layer_1" data-name="Layer 1" xmlns="http://www.w3.org/2000/svg" width="361.53" height="176.15" viewBox="0 0 361.53 176.15"><defs><style>.cls-1{fill:#565656;}</style></defs><title>Chlorine</title><path class="cls-1" d="M349.47,317.64c0-28.7,21.14-48.3,48-48.3,16.52,0,28,8,35.42,18.48l-9.8,5.46a31.5,31.5,0,0,0-25.62-13.58c-20.44,0-36,15.68-36,37.94s15.54,37.94,36,37.94A31.14,31.14,0,0,0,423.11,342l9.94,5.46c-7.84,10.64-19,18.48-35.56,18.48C370.61,365.94,349.47,346.34,349.47,317.64Z" transform="translate(-142.38 -228.52)"/><path class="cls-1" d="M448.87,270.88h10.5v93.38h-10.5V270.88Z" transform="translate(-142.38 -228.52)"/><circle class="cls-1" cx="179.26" cy="105.93" r="12.8"/><circle class="cls-1" cx="179.26" cy="69.93" r="12.8"/><circle class="cls-1" cx="247.13" cy="13.31" r="12.8"/><circle class="cls-1" cx="283.13" cy="13.31" r="12.8"/><circle class="cls-1" cx="247.13" cy="163.35" r="12.8"/><circle class="cls-1" cx="283.13" cy="163.35" r="12.8"/><circle class="cls-1" cx="348.73" cy="105.93" r="12.8"/><circle class="cls-1" cx="348.73" cy="69.93" r="12.8"/><path class="cls-1" d="M178,317.13c0-28.7,21.14-48.3,48-48.3,16.52,0,28,8,35.42,18.48l-9.8,5.46A31.5,31.5,0,0,0,226,279.19c-20.44,0-36,15.68-36,37.94s15.54,37.94,36,37.94a31.14,31.14,0,0,0,25.62-13.58l9.94,5.46c-7.84,10.64-19,18.48-35.56,18.48C199.15,365.43,178,345.83,178,317.13Z" transform="translate(-142.38 -228.52)"/><path class="cls-1" d="M277.41,270.37h10.5v93.38h-10.5V270.37Z" transform="translate(-142.38 -228.52)"/><circle class="cls-1" cx="12.8" cy="105.43" r="12.8"/><circle class="cls-1" cx="12.8" cy="69.43" r="12.8"/><circle class="cls-1" cx="75.68" cy="12.8" r="12.8"/><circle class="cls-1" cx="111.68" cy="12.8" r="12.8"/><circle class="cls-1" cx="75.68" cy="162.84" r="12.8"/><circle class="cls-1" cx="111.68" cy="162.84" r="12.8"/></svg>