<svg id="Layer_1" data-name="Layer 1" xmlns="http://www.w3.org/2000/svg" width="634.09" height="354.98" viewBox="0 0 634.09 354.98"><defs><style>.cls-1{fill:#565656;}</style></defs><title>MagnesiumFluoride</title><path class="cls-1" d="M0,114.36H26v7.74H8.12V228.18H26v7.7H0V114.36H0Z" transform="translate(0 0)"/><path class="cls-1" d="M120.54,146.42L88.76,223.28H84L52.36,146.42v76.86H40.74V129.9H57.4l29,70.28,29.12-70.28h16.64v93.38H120.54V146.42Z" transform="translate(0 0)"/><path class="cls-1" d="M160.16,232.8c5.6,6.72,12.32,9.24,22,9.24,11.2,0,21.7-5.46,21.7-20.3V212.1a28.24,28.24,0,0,1-22.68,12c-17.64,0-30.1-13.16-30.1-35S163.4,154,181.18,154c9.1,0,17.22,4.48,22.68,11.9v-10.2h10.5v65.66c0,22.4-15.68,29.4-32.2,29.4-11.48,0-19.32-2.24-27.3-10.08Zm43.7-58.52c-3.64-5.88-11.76-10.92-20.16-10.92-13.58,0-21.7,10.78-21.7,25.76s8.12,25.76,21.7,25.76a25,25,0,0,0,20.16-11.06V174.28Z" transform="translate(0 0)"/><path class="cls-1" d="M228.62,228.18h17.92V122.1H228.62v-7.7h26V235.88h-26v-7.7Z" transform="translate(0 0)"/><path class="cls-1" d="M284.35,154.66H279.7V137.27H264V133H279.7V116.1h4.65V133H300v4.24H284.35v17.42Z" transform="translate(0 0)"/><path class="cls-1" d="M307.61,157.27c19.59-15.43,30.2-24.49,30.2-33.87,0-6.94-5.71-10-11.34-10a18.2,18.2,0,0,0-14.77,6.86l-4.16-4.33c4.16-5.47,11.26-8.57,18.94-8.57,9.06,0,18.28,5.14,18.28,16,0,11.1-11.26,21.22-26.44,33.22H345v6h-37.4v-5.31Z" transform="translate(0 0)"/><path class="cls-1" d="M392.64,21.37h26V29.1H400.76V135.19h17.92v7.7h-26V21.37h0Z" transform="translate(0 0)"/><path class="cls-1" d="M470.86,36.91H532V47.27H482.52v30.1H531.1V87.73H482.52v42.56H470.86V36.91Z" transform="translate(0 0)"/><path class="cls-1" d="M578.28,135.19H596.2V29.1H578.28V21.4h26V142.89h-26v-7.7Z" transform="translate(0 0)"/><path class="cls-1" d="M613.76,47.23h19.59v5.39H613.76V47.23Z" transform="translate(0 0)"/><circle class="cls-1" cx="428.48" cy="100.43" r="12.8"/><circle class="cls-1" cx="428.48" cy="64.43" r="12.8"/><circle class="cls-1" cx="480.35" cy="12.8" r="12.8"/><circle class="cls-1" cx="516.35" cy="12.8" r="12.8"/><circle class="cls-1" cx="480.35" cy="152.84" r="12.8"/><circle class="cls-1" cx="516.35" cy="152.84" r="12.8"/><circle class="cls-1" cx="568.95" cy="100.43" r="12.8"/><circle class="cls-1" cx="568.95" cy="64.43" r="12.8"/><path class="cls-1" d="M393.38,210.72h26v7.7H401.5V324.53h17.92v7.7h-26V210.72h0Z" transform="translate(0 0)"/><path class="cls-1" d="M471.64,226.26h61.22v10.36h-49.6v30.1h48.6V277.1h-48.6v42.56H471.64v-93.4Z" transform="translate(0 0)"/><path class="cls-1" d="M579,324.53h17.92V218.41H579v-7.7h26V332.23H579v-7.7Z" transform="translate(0 0)"/><path class="cls-1" d="M614.5,236.57h19.59V242H614.5v-5.39Z" transform="translate(0 0)"/><circle class="cls-1" cx="429.22" cy="289.77" r="12.8"/><circle class="cls-1" cx="429.22" cy="253.77" r="12.8"/><circle class="cls-1" cx="481.09" cy="202.14" r="12.8"/><circle class="cls-1" cx="517.09" cy="202.14" r="12.8"/><circle class="cls-1" cx="481.09" cy="342.18" r="12.8"/><circle class="cls-1" cx="517.09" cy="342.18" r="12.8"/><circle class="cls-1" cx="569.68" cy="289.77" r="12.8"/><circle class="cls-1" cx="569.68" cy="253.77" r="12.8"/></svg>