<svg id="Layer_1" data-name="Layer 1" xmlns="http://www.w3.org/2000/svg" width="699.37" height="165.64" viewBox="0 0 699.37 165.64"><defs><style>.cls-1{fill:#565656;}</style></defs><title>MagnesiumOxide</title><path class="cls-1" d="M71.14,242.26h26V250H79.26V356.08H97.18v7.7h-26V242.26Z" transform="translate(-71.14 -221.5)"/><path class="cls-1" d="M191.68,274.32L159.9,351.18h-4.76L123.5,274.32v76.86H111.88V257.8h16.66l29,70.28,29.12-70.28H203.3v93.38H191.68V274.32Z" transform="translate(-71.14 -221.5)"/><path class="cls-1" d="M231.3,360.7c5.6,6.72,12.32,9.24,22,9.24,11.2,0,21.7-5.46,21.7-20.3V340a28.24,28.24,0,0,1-22.68,12c-17.64,0-30.1-13.16-30.1-35s12.32-35.14,30.1-35.14c9.1,0,17.22,4.48,22.68,11.9V283.56h10.5v65.66c0,22.4-15.68,29.4-32.2,29.4-11.48,0-19.32-2.24-27.3-10.08ZM275,302.18c-3.64-5.88-11.76-10.92-20.16-10.92-13.58,0-21.7,10.78-21.7,25.76s8.12,25.76,21.7,25.76A25,25,0,0,0,275,331.72V302.18Z" transform="translate(-71.14 -221.5)"/><path class="cls-1" d="M299.76,356.08h17.92V250H299.76v-7.7h26V363.78h-26v-7.7Z" transform="translate(-71.14 -221.5)"/><path class="cls-1" d="M355.49,282.56h-4.65V265.17H335.17v-4.24h15.67V244h4.65v16.9h15.67v4.24H355.49v17.38Z" transform="translate(-71.14 -221.5)"/><path class="cls-1" d="M378.75,285.17c19.59-15.43,30.2-24.49,30.2-33.87,0-6.94-5.71-10-11.34-10a18.2,18.2,0,0,0-14.77,6.86l-4.16-4.33c4.16-5.47,11.26-8.57,18.94-8.57,9.06,0,18.28,5.14,18.28,16,0,11.1-11.26,21.22-26.44,33.22h26.69v6H378.75v-5.39Z" transform="translate(-71.14 -221.5)"/><path class="cls-1" d="M454.64,242.88h26v7.7H462.76V356.7h17.92v7.7h-26V242.88Z" transform="translate(-71.14 -221.5)"/><path class="cls-1" d="M575.46,256.88c27.58,0,46.34,20.72,46.34,48.3s-18.76,48.3-46.34,48.3-46.34-20.72-46.34-48.3S547.74,256.88,575.46,256.88Zm0,10.36c-21,0-34.3,16.1-34.3,37.94s13.3,37.94,34.3,37.94,34.3-16.24,34.3-37.94S596.32,267.24,575.46,267.24Z" transform="translate(-71.14 -221.5)"/><path class="cls-1" d="M670.38,356.7H688.3V250.58H670.38v-7.7h26V364.4h-26v-7.7Z" transform="translate(-71.14 -221.5)"/><path class="cls-1" d="M705.87,268.73h19.59v5.39H705.87v-5.39Z" transform="translate(-71.14 -221.5)"/><path class="cls-1" d="M733.13,285.79c19.59-15.43,30.2-24.49,30.2-33.87,0-6.94-5.71-10-11.34-10a18.2,18.2,0,0,0-14.77,6.86L733,244.49c4.16-5.47,11.26-8.57,18.94-8.57,9.06,0,18.28,5.14,18.28,16,0,11.1-11.26,21.22-26.44,33.22h26.69v6H733.13v-5.39Z" transform="translate(-71.14 -221.5)"/><circle class="cls-1" cx="432.27" cy="100.43" r="12.8"/><circle class="cls-1" cx="432.27" cy="64.43" r="12.8"/><circle class="cls-1" cx="488.14" cy="12.8" r="12.8"/><circle class="cls-1" cx="524.14" cy="12.8" r="12.8"/><circle class="cls-1" cx="488.14" cy="152.84" r="12.8"/><circle class="cls-1" cx="524.14" cy="152.84" r="12.8"/><circle class="cls-1" cx="577.73" cy="100.43" r="12.8"/><circle class="cls-1" cx="577.73" cy="64.43" r="12.8"/></svg>