<svg id="Layer_1" data-name="Layer 1" xmlns="http://www.w3.org/2000/svg" width="699.69" height="165.64" viewBox="0 0 699.69 165.64"><defs><style>.cls-1{fill:#565656;}</style></defs><title>MagnesiumSulfide</title><path class="cls-1" d="M70.14,254.26h26V262H78.26V368.08H96.18v7.7h-26V254.26Z" transform="translate(-70.14 -232.6)"/><path class="cls-1" d="M190.68,286.32L158.9,363.18h-4.76L122.5,286.32v76.86H110.88V269.8h16.66l29,70.28,29.12-70.28H202.3v93.38H190.68V286.32Z" transform="translate(-70.14 -232.6)"/><path class="cls-1" d="M230.3,372.7c5.6,6.72,12.32,9.24,22,9.24,11.2,0,21.7-5.46,21.7-20.3V352a28.24,28.24,0,0,1-22.68,12c-17.64,0-30.1-13.16-30.1-35s12.32-35.14,30.1-35.14c9.1,0,17.22,4.48,22.68,11.9V295.56h10.5v65.66c0,22.4-15.68,29.4-32.2,29.4-11.48,0-19.32-2.24-27.3-10.08ZM274,314.18c-3.64-5.88-11.76-10.92-20.16-10.92-13.58,0-21.7,10.78-21.7,25.76s8.12,25.76,21.7,25.76A25,25,0,0,0,274,343.72V314.18Z" transform="translate(-70.14 -232.6)"/><path class="cls-1" d="M298.76,368.08h17.92V262H298.76v-7.7h26V375.78h-26v-7.7Z" transform="translate(-70.14 -232.6)"/><path class="cls-1" d="M354.49,294.56h-4.65V277.17H334.17v-4.24h15.67V256h4.65v16.9h15.67v4.24H354.49v17.38Z" transform="translate(-70.14 -232.6)"/><path class="cls-1" d="M377.75,297.17c19.59-15.43,30.2-24.49,30.2-33.87,0-6.94-5.71-10-11.34-10a18.2,18.2,0,0,0-14.77,6.86l-4.16-4.33c4.16-5.47,11.26-8.57,18.94-8.57,9.06,0,18.28,5.14,18.28,16,0,11.1-11.26,21.22-26.44,33.22h26.69v6H377.75v-5.39Z" transform="translate(-70.14 -232.6)"/><path class="cls-1" d="M479,254h26v7.7H487.15V367.8h17.92v7.7H479V254Z" transform="translate(-70.14 -232.6)"/><path class="cls-1" d="M558.55,340.92a39.47,39.47,0,0,0,29.4,13.3c16.66,0,22-9,22-16.1,0-11.2-11.34-14.28-23.66-17.64-15-3.92-31.64-8.12-31.64-26.46,0-15.4,13.72-25.9,32.06-25.9,14.28,0,25.34,4.76,33.18,13l-7,8.54c-7-7.7-16.8-11.2-27-11.2-11.2,0-19.18,6-19.18,14.84,0,9.38,10.78,12.18,22.68,15.4,15.26,4.06,32.62,8.82,32.62,28.42,0,13.58-9.24,27.44-34.44,27.44-16.24,0-28.14-6.16-35.84-14.84Z" transform="translate(-70.14 -232.6)"/><path class="cls-1" d="M669.71,367.8h17.92V261.68H669.71V254h26V375.5h-26v-7.7Z" transform="translate(-70.14 -232.6)"/><path class="cls-1" d="M705.2,279.83h19.59v5.39H705.2v-5.39Z" transform="translate(-70.14 -232.6)"/><path class="cls-1" d="M732.46,296.89c19.59-15.43,30.2-24.49,30.2-33.87,0-6.94-5.71-10-11.34-10a18.2,18.2,0,0,0-14.77,6.86l-4.16-4.33c4.16-5.47,11.26-8.57,18.94-8.57,9.06,0,18.28,5.14,18.28,16,0,11.1-11.26,21.22-26.44,33.22h26.69v6H732.46v-5.39Z" transform="translate(-70.14 -232.6)"/><circle class="cls-1" cx="452.25" cy="100.43" r="12.8"/><circle class="cls-1" cx="452.25" cy="64.43" r="12.8"/><circle class="cls-1" cx="499.12" cy="12.8" r="12.8"/><circle class="cls-1" cx="535.12" cy="12.8" r="12.8"/><circle class="cls-1" cx="499.12" cy="152.84" r="12.8"/><circle class="cls-1" cx="535.12" cy="152.84" r="12.8"/><circle class="cls-1" cx="582.72" cy="100.43" r="12.8"/><circle class="cls-1" cx="582.72" cy="64.43" r="12.8"/></svg>