<svg id="Layer_1" data-name="Layer 1" xmlns="http://www.w3.org/2000/svg" width="531.23" height="326.77" viewBox="0 0 531.23 326.77"><defs><style>.cls-1{fill:#565656;}</style></defs><title>NitrogenTrifluoride</title><path class="cls-1" d="M379.08,289.78v74.48H367.46V270.88h11.9l53.76,72.94V270.88h11.62v93.38h-11.2Z" transform="translate(-142.38 -228.52)"/><circle class="cls-1" cx="179.26" cy="105.93" r="12.8"/><circle class="cls-1" cx="179.26" cy="69.93" r="12.8"/><circle class="cls-1" cx="247.13" cy="13.31" r="12.8"/><circle class="cls-1" cx="283.13" cy="13.31" r="12.8"/><circle class="cls-1" cx="247.13" cy="163.35" r="12.8"/><circle class="cls-1" cx="283.13" cy="163.35" r="12.8"/><circle class="cls-1" cx="348.73" cy="105.93" r="12.8"/><circle class="cls-1" cx="348.73" cy="69.93" r="12.8"/><path class="cls-1" d="M207.06,270.37h61.18v10.36H218.68v30.1h48.58v10.36H218.68v42.56H207.06V270.37Z" transform="translate(-142.38 -228.52)"/><circle class="cls-1" cx="12.8" cy="105.43" r="12.8"/><circle class="cls-1" cx="12.8" cy="69.43" r="12.8"/><circle class="cls-1" cx="75.68" cy="12.8" r="12.8"/><circle class="cls-1" cx="111.68" cy="12.8" r="12.8"/><circle class="cls-1" cx="75.68" cy="162.84" r="12.8"/><circle class="cls-1" cx="111.68" cy="162.84" r="12.8"/><path class="cls-1" d="M548.23,271h61.18v10.36H559.85v30.1h48.58v10.36H559.85v42.56H548.23V271Z" transform="translate(-142.38 -228.52)"/><circle class="cls-1" cx="348.96" cy="106.05" r="12.8"/><circle class="cls-1" cx="348.96" cy="70.05" r="12.8"/><circle class="cls-1" cx="416.84" cy="13.43" r="12.8"/><circle class="cls-1" cx="452.84" cy="13.43" r="12.8"/><circle class="cls-1" cx="416.84" cy="163.47" r="12.8"/><circle class="cls-1" cx="452.84" cy="163.47" r="12.8"/><circle class="cls-1" cx="518.43" cy="106.05" r="12.8"/><circle class="cls-1" cx="518.43" cy="70.05" r="12.8"/><circle class="cls-1" cx="351.26" cy="257.06" r="12.8"/><circle class="cls-1" cx="351.26" cy="221.06" r="12.8"/><path class="cls-1" d="M379.06,421.5h61.18v10.36H390.68V462h48.58v10.36H390.68v42.56H379.06V421.5Z" transform="translate(-142.38 -228.52)"/><circle class="cls-1" cx="184.8" cy="256.56" r="12.8"/><circle class="cls-1" cx="184.8" cy="220.56" r="12.8"/><circle class="cls-1" cx="247.68" cy="313.97" r="12.8"/><circle class="cls-1" cx="283.68" cy="313.97" r="12.8"/></svg>