<svg id="Layer_1" data-name="Layer 1" xmlns="http://www.w3.org/2000/svg" width="531.23" height="176.27" viewBox="0 0 531.23 176.27"><defs><style>.cls-1{fill:#565656;}</style></defs><title>OxygenDifluoride</title><path class="cls-1" d="M406,269.34c27.58,0,46.34,20.72,46.34,48.3s-18.76,48.3-46.34,48.3-46.34-20.72-46.34-48.3S378.31,269.34,406,269.34Zm0,10.36c-21,0-34.3,16.1-34.3,37.94S385,355.58,406,355.58s34.3-16.24,34.3-37.94S426.89,279.7,406,279.7Z" transform="translate(-142.38 -228.52)"/><circle class="cls-1" cx="179.26" cy="105.93" r="12.8"/><circle class="cls-1" cx="179.26" cy="69.93" r="12.8"/><circle class="cls-1" cx="247.13" cy="13.31" r="12.8"/><circle class="cls-1" cx="283.13" cy="13.31" r="12.8"/><circle class="cls-1" cx="247.13" cy="163.35" r="12.8"/><circle class="cls-1" cx="283.13" cy="163.35" r="12.8"/><circle class="cls-1" cx="348.73" cy="105.93" r="12.8"/><circle class="cls-1" cx="348.73" cy="69.93" r="12.8"/><path class="cls-1" d="M207.06,270.37h61.18v10.36H218.68v30.1h48.58v10.36H218.68v42.56H207.06V270.37Z" transform="translate(-142.38 -228.52)"/><circle class="cls-1" cx="12.8" cy="105.43" r="12.8"/><circle class="cls-1" cx="12.8" cy="69.43" r="12.8"/><circle class="cls-1" cx="75.68" cy="12.8" r="12.8"/><circle class="cls-1" cx="111.68" cy="12.8" r="12.8"/><circle class="cls-1" cx="75.68" cy="162.84" r="12.8"/><circle class="cls-1" cx="111.68" cy="162.84" r="12.8"/><path class="cls-1" d="M548.23,271h61.18v10.36H559.85v30.1h48.58v10.36H559.85v42.56H548.23V271Z" transform="translate(-142.38 -228.52)"/><circle class="cls-1" cx="348.96" cy="106.05" r="12.8"/><circle class="cls-1" cx="348.96" cy="70.05" r="12.8"/><circle class="cls-1" cx="416.84" cy="13.43" r="12.8"/><circle class="cls-1" cx="452.84" cy="13.43" r="12.8"/><circle class="cls-1" cx="416.84" cy="163.47" r="12.8"/><circle class="cls-1" cx="452.84" cy="163.47" r="12.8"/><circle class="cls-1" cx="518.43" cy="106.05" r="12.8"/><circle class="cls-1" cx="518.43" cy="70.05" r="12.8"/></svg>