<svg id="Layer_1" data-name="Layer 1" xmlns="http://www.w3.org/2000/svg" width="550.09" height="248.06" viewBox="0 0 550.09 248.06"><defs><style>.cls-1{fill:#565656;}</style></defs><title>PotassiumOxide</title><path class="cls-1" d="M181.64,188.77h26v7.7H189.76V302.59h17.92v7.7h-26V188.77Z" transform="translate(-181.3 -188.77)"/><path class="cls-1" d="M243.38,255.69L234,266.33v31.36H222.38V204.31H234v48.3l41.3-48.3h14.56l-38.92,44.38,42.28,49H278.8Z" transform="translate(-181.3 -188.77)"/><path class="cls-1" d="M299.38,302.59H317.3V196.47H299.38v-7.7h26V310.29h-26v-7.7Z" transform="translate(-181.3 -188.77)"/><path class="cls-1" d="M355.11,229.07h-4.65V211.68H334.79v-4.24h15.67v-16.9h4.65v16.9h15.67v4.24H355.11v17.38Z" transform="translate(-181.3 -188.77)"/><path class="cls-1" d="M181.3,315.31h26V323H189.42V429.13h17.92v7.7h-26V315.31Z" transform="translate(-181.3 -188.77)"/><path class="cls-1" d="M243,382.23l-9.38,10.64v31.36H222V330.85h11.62v48.3l41.3-48.3h14.56L250.6,375.23l42.28,49H278.46Z" transform="translate(-181.3 -188.77)"/><path class="cls-1" d="M299,429.13H317V323H299v-7.7h26V436.83H299v-7.7Z" transform="translate(-181.3 -188.77)"/><path class="cls-1" d="M354.77,355.61h-4.65V338.22H334.44V334h15.67v-16.9h4.65V334h15.67v4.24H354.77v17.38Z" transform="translate(-181.3 -188.77)"/><path class="cls-1" d="M415.52,257.73h26v7.7H423.64V371.55h17.92v7.7h-26V257.73Z" transform="translate(-181.3 -188.77)"/><path class="cls-1" d="M536.33,271.73c27.58,0,46.34,20.72,46.34,48.3s-18.76,48.3-46.34,48.3S490,347.61,490,320,508.61,271.73,536.33,271.73Zm0,10.36c-21,0-34.3,16.1-34.3,37.94S515.33,358,536.33,358s34.3-16.24,34.3-37.94S557.19,282.09,536.33,282.09Z" transform="translate(-181.3 -188.77)"/><path class="cls-1" d="M631.25,371.55h17.92V265.43H631.25v-7.7h26V379.25h-26v-7.7Z" transform="translate(-181.3 -188.77)"/><path class="cls-1" d="M666.74,283.58h19.59V289H666.74v-5.39Z" transform="translate(-181.3 -188.77)"/><path class="cls-1" d="M694,300.64c19.59-15.43,30.2-24.49,30.2-33.87,0-6.94-5.71-10-11.34-10a18.2,18.2,0,0,0-14.77,6.86l-4.16-4.33c4.16-5.47,11.26-8.57,18.94-8.57,9.06,0,18.28,5.14,18.28,16,0,11.1-11.26,21.22-26.44,33.22h26.69v6H694v-5.39Z" transform="translate(-181.3 -188.77)"/><circle class="cls-1" cx="285.11" cy="148.01" r="12.8"/><circle class="cls-1" cx="285.11" cy="112.01" r="12.8"/><circle class="cls-1" cx="336.99" cy="60.39" r="12.8"/><circle class="cls-1" cx="372.99" cy="60.39" r="12.8"/><circle class="cls-1" cx="336.99" cy="200.43" r="12.8"/><circle class="cls-1" cx="372.99" cy="200.43" r="12.8"/><circle class="cls-1" cx="425.58" cy="148.01" r="12.8"/><circle class="cls-1" cx="425.58" cy="112.01" r="12.8"/></svg>