<svg id="Layer_1" data-name="Layer 1" xmlns="http://www.w3.org/2000/svg" width="546.54" height="374.42" viewBox="0 0 546.54 374.42"><defs><style>.cls-1{fill:#565656;}</style></defs><title>PotassiumNitride</title><path class="cls-1" d="M181.64,128.77h26v7.7H189.76V242.59h17.92v7.7h-26V128.77Z" transform="translate(-181.3 -128.77)"/><path class="cls-1" d="M243.38,195.69L234,206.33v31.36H222.38V144.31H234v48.3l41.3-48.3h14.56l-38.92,44.38,42.28,49H278.8Z" transform="translate(-181.3 -128.77)"/><path class="cls-1" d="M299.38,242.59H317.3V136.47H299.38v-7.7h26V250.29h-26v-7.7Z" transform="translate(-181.3 -128.77)"/><path class="cls-1" d="M355.11,169.07h-4.65V151.68H334.79v-4.24h15.67v-16.9h4.65v16.9h15.67v4.24H355.11v17.38Z" transform="translate(-181.3 -128.77)"/><path class="cls-1" d="M181.3,255.31h26V263H189.42V369.13h17.92v7.7h-26V255.31Z" transform="translate(-181.3 -128.77)"/><path class="cls-1" d="M243,322.23l-9.38,10.64v31.36H222V270.85h11.62v48.3l41.3-48.3h14.56L250.6,315.23l42.28,49H278.46Z" transform="translate(-181.3 -128.77)"/><path class="cls-1" d="M299,369.13H317V263H299v-7.7h26V376.83H299v-7.7Z" transform="translate(-181.3 -128.77)"/><path class="cls-1" d="M354.77,295.61h-4.65V278.22H334.44V274h15.67v-16.9h4.65V274h15.67v4.24H354.77v17.38Z" transform="translate(-181.3 -128.77)"/><path class="cls-1" d="M181.3,381.66h26v7.7H189.42V495.48h17.92v7.7h-26V381.66Z" transform="translate(-181.3 -128.77)"/><path class="cls-1" d="M243,448.58l-9.38,10.64v31.36H222V397.2h11.62v48.3L275,397.2h14.56L250.6,441.58l42.28,49H278.46Z" transform="translate(-181.3 -128.77)"/><path class="cls-1" d="M299,495.48H317V389.36H299v-7.7h26V503.18H299v-7.7Z" transform="translate(-181.3 -128.77)"/><path class="cls-1" d="M354.77,422h-4.65V404.58H334.44v-4.24h15.67V383.44h4.65v16.89h15.67v4.24H354.77V422Z" transform="translate(-181.3 -128.77)"/><path class="cls-1" d="M420.77,257.73h26v7.7H428.89V371.55h17.92v7.7h-26V257.73Z" transform="translate(-181.3 -128.77)"/><path class="cls-1" d="M510.65,292.17v74.48H499V273.27h11.9l53.76,72.94V273.27h11.62v93.38h-11.2Z" transform="translate(-181.3 -128.77)"/><path class="cls-1" d="M628.53,371.55h17.92V265.43H628.53v-7.7h26V379.25h-26v-7.7Z" transform="translate(-181.3 -128.77)"/><path class="cls-1" d="M664,283.58h19.59V289H664v-5.39Z" transform="translate(-181.3 -128.77)"/><path class="cls-1" d="M693.24,293.79A18.91,18.91,0,0,0,708.42,301c7.92,0,12.73-3.92,12.73-10.2,0-6.77-5.55-9.63-13.55-9.63-2.29,0-4.82,0-5.63.08V275c0.9,0.08,3.43.08,5.63,0.08,6.86,0,12.65-2.69,12.65-9,0-6-5.55-9.3-12.16-9.3-6,0-10.37,2.29-14.36,6.61L690,259.18a23.59,23.59,0,0,1,18.61-8.41c10.45,0,18.45,5.31,18.45,14.53,0,7.84-6.61,11.75-11.75,12.65,5,0.41,12.57,4.65,12.57,13.39,0,9.06-7.26,15.67-19.26,15.67-9.22,0-16-4.08-19.34-9Z" transform="translate(-181.3 -128.77)"/><circle class="cls-1" cx="285.11" cy="208.01" r="12.8"/><circle class="cls-1" cx="285.11" cy="172.01" r="12.8"/><circle class="cls-1" cx="336.99" cy="120.39" r="12.8"/><circle class="cls-1" cx="372.99" cy="120.39" r="12.8"/><circle class="cls-1" cx="336.99" cy="260.43" r="12.8"/><circle class="cls-1" cx="372.99" cy="260.43" r="12.8"/><circle class="cls-1" cx="425.58" cy="208.01" r="12.8"/><circle class="cls-1" cx="425.58" cy="172.01" r="12.8"/></svg>