<svg id="Layer_1" data-name="Layer 1" xmlns="http://www.w3.org/2000/svg" width="492.51" height="165.64" viewBox="0 0 492.51 165.64"><defs><style>.cls-1{fill:#565656;}</style></defs><title>PotassiumFluoride</title><path class="cls-1" d="M192,242.26h26V250H200.09V356.08H218v7.7H192V242.26Z" transform="translate(-191.97 -221.5)"/><path class="cls-1" d="M253.71,309.18l-9.38,10.64v31.36H232.71V257.8h11.62v48.3l41.3-48.3h14.56l-38.92,44.38,42.28,49H289.13Z" transform="translate(-191.97 -221.5)"/><path class="cls-1" d="M309.71,356.08h17.92V250H309.71v-7.7h26V363.78h-26v-7.7Z" transform="translate(-191.97 -221.5)"/><path class="cls-1" d="M365.44,282.56h-4.65V265.17H345.12v-4.24h15.67V244h4.65v16.9h15.67v4.24H365.44v17.38Z" transform="translate(-191.97 -221.5)"/><path class="cls-1" d="M443.77,242.88h26v7.7H451.89V356.7h17.92v7.7h-26V242.88Z" transform="translate(-191.97 -221.5)"/><path class="cls-1" d="M522,258.42h61.18v10.36H533.65v30.1h48.58v10.36H533.65V351.8H522V258.42Z" transform="translate(-191.97 -221.5)"/><path class="cls-1" d="M629.41,356.7h17.92V250.58H629.41v-7.7h26V364.4h-26v-7.7Z" transform="translate(-191.97 -221.5)"/><path class="cls-1" d="M664.89,268.73h19.59v5.39H664.89v-5.39Z" transform="translate(-191.97 -221.5)"/><circle class="cls-1" cx="285.11" cy="100.43" r="12.8"/><circle class="cls-1" cx="285.11" cy="64.43" r="12.8"/><circle class="cls-1" cx="336.99" cy="12.8" r="12.8"/><circle class="cls-1" cx="372.99" cy="12.8" r="12.8"/><circle class="cls-1" cx="336.99" cy="152.84" r="12.8"/><circle class="cls-1" cx="372.99" cy="152.84" r="12.8"/><circle class="cls-1" cx="425.58" cy="100.43" r="12.8"/><circle class="cls-1" cx="425.58" cy="64.43" r="12.8"/></svg>