<svg id="Layer_1" data-name="Layer 1" xmlns="http://www.w3.org/2000/svg" width="677.21" height="247.87" viewBox="0 0 677.21 247.87"><defs><style>.cls-1{fill:#565656;}</style></defs><title>SodiumOxide</title><path class="cls-1" d="M481.81,233.75h26v7.7H489.93V347.57h17.92v7.7h-26V233.75Z" transform="translate(-120.46 -163.82)"/><path class="cls-1" d="M602.63,247.75c27.58,0,46.34,20.72,46.34,48.3s-18.76,48.3-46.34,48.3-46.34-20.72-46.34-48.3S574.91,247.75,602.63,247.75Zm0,10.36c-21,0-34.3,16.1-34.3,37.94S581.63,334,602.63,334s34.3-16.24,34.3-37.94S623.49,258.11,602.63,258.11Z" transform="translate(-120.46 -163.82)"/><path class="cls-1" d="M697.55,347.57h17.92V241.45H697.55v-7.7h26V355.27h-26v-7.7Z" transform="translate(-120.46 -163.82)"/><path class="cls-1" d="M733,259.6h19.59V265H733V259.6Z" transform="translate(-120.46 -163.82)"/><path class="cls-1" d="M760.3,276.66c19.59-15.43,30.2-24.49,30.2-33.87,0-6.94-5.71-10-11.34-10a18.2,18.2,0,0,0-14.77,6.86l-4.16-4.33c4.16-5.47,11.26-8.57,18.94-8.57,9.06,0,18.28,5.14,18.28,16,0,11.1-11.26,21.22-26.44,33.22h26.69v6H760.3v-5.39Z" transform="translate(-120.46 -163.82)"/><circle class="cls-1" cx="412.24" cy="148.98" r="12.8"/><circle class="cls-1" cx="412.24" cy="112.98" r="12.8"/><circle class="cls-1" cx="464.12" cy="61.36" r="12.8"/><circle class="cls-1" cx="500.12" cy="61.36" r="12.8"/><circle class="cls-1" cx="464.12" cy="201.4" r="12.8"/><circle class="cls-1" cx="500.12" cy="201.4" r="12.8"/><circle class="cls-1" cx="552.71" cy="148.98" r="12.8"/><circle class="cls-1" cx="552.71" cy="112.98" r="12.8"/><path class="cls-1" d="M120.46,163.82h26v7.7H128.58V277.64H146.5v7.7h-26V163.82Z" transform="translate(-120.46 -163.82)"/><path class="cls-1" d="M172.82,198.26v74.48H161.2V179.36h11.9l53.76,72.94V179.36h11.62v93.38h-11.2Z" transform="translate(-120.46 -163.82)"/><path class="cls-1" d="M303.58,265c-5.6,6.16-13.3,9.38-22.4,9.38-11.48,0-23.66-7.7-23.66-22.4,0-15.12,12.18-22.26,23.66-22.26,9.24,0,16.94,2.94,22.4,9.24V226.82c0-9.1-7.28-14.28-17.08-14.28-8.12,0-14.7,2.94-20.72,9.38l-4.9-7.28c7.28-7.56,16-11.2,27-11.2,14.28,0,26.18,6.44,26.18,22.82v46.48h-10.5V265Zm0-19.32c-4.06-5.6-11.2-8.4-18.62-8.4-9.8,0-16.66,6.16-16.66,14.84s6.86,14.7,16.66,14.7c7.42,0,14.56-2.8,18.62-8.4V245.72Z" transform="translate(-120.46 -163.82)"/><path class="cls-1" d="M328.36,277.64h17.92V171.52H328.36v-7.7h26V285.33h-26v-7.7Z" transform="translate(-120.46 -163.82)"/><path class="cls-1" d="M384.09,204.12h-4.65V186.73H363.77v-4.24h15.67v-16.9h4.65v16.9h15.67v4.24H384.09v17.38Z" transform="translate(-120.46 -163.82)"/><path class="cls-1" d="M120.46,290.17h26v7.7H128.58V404H146.5v7.7h-26V290.17Z" transform="translate(-120.46 -163.82)"/><path class="cls-1" d="M172.82,324.61v74.48H161.2V305.71h11.9l53.76,72.94V305.71h11.62v93.38h-11.2Z" transform="translate(-120.46 -163.82)"/><path class="cls-1" d="M303.58,391.39c-5.6,6.16-13.3,9.38-22.4,9.38-11.48,0-23.66-7.7-23.66-22.4,0-15.12,12.18-22.26,23.66-22.26,9.24,0,16.94,2.94,22.4,9.24V353.17c0-9.1-7.28-14.28-17.08-14.28-8.12,0-14.7,2.94-20.72,9.38l-4.9-7.28c7.28-7.56,16-11.2,27-11.2,14.28,0,26.18,6.44,26.18,22.82v46.48h-10.5v-7.7Zm0-19.32c-4.06-5.6-11.2-8.4-18.62-8.4-9.8,0-16.66,6.16-16.66,14.84s6.86,14.7,16.66,14.7c7.42,0,14.56-2.8,18.62-8.4V372.07Z" transform="translate(-120.46 -163.82)"/><path class="cls-1" d="M328.36,404h17.92V297.87H328.36v-7.7h26V411.69h-26V404Z" transform="translate(-120.46 -163.82)"/><path class="cls-1" d="M384.09,330.47h-4.65V313.09H363.77v-4.24h15.67V291.95h4.65v16.89h15.67v4.24H384.09v17.38Z" transform="translate(-120.46 -163.82)"/></svg>