<svg id="Layer_1" data-name="Layer 1" xmlns="http://www.w3.org/2000/svg" width="617.64" height="248.06" viewBox="0 0 617.64 248.06"><defs><style>.cls-1{fill:#565656;}</style></defs><title>SodiumSulfide</title><path class="cls-1" d="M117.56,188.77h26v7.7H125.68V302.59H143.6v7.7h-26V188.77Z" transform="translate(-117.22 -188.77)"/><path class="cls-1" d="M169.92,223.21v74.48H158.3V204.31h11.9L224,277.25V204.31h11.62v93.38h-11.2Z" transform="translate(-117.22 -188.77)"/><path class="cls-1" d="M300.68,290c-5.6,6.16-13.3,9.38-22.4,9.38-11.48,0-23.66-7.7-23.66-22.4,0-15.12,12.18-22.26,23.66-22.26,9.24,0,16.94,2.94,22.4,9.24V251.77c0-9.1-7.28-14.28-17.08-14.28-8.12,0-14.7,2.94-20.72,9.38l-4.9-7.28c7.28-7.56,16-11.2,27-11.2,14.28,0,26.18,6.44,26.18,22.82v46.48h-10.5V290Zm0-19.32c-4.06-5.6-11.2-8.4-18.62-8.4-9.8,0-16.66,6.16-16.66,14.84s6.86,14.7,16.66,14.7c7.42,0,14.56-2.8,18.62-8.4V270.67Z" transform="translate(-117.22 -188.77)"/><path class="cls-1" d="M325.46,302.59h17.92V196.47H325.46v-7.7h26V310.29h-26v-7.7Z" transform="translate(-117.22 -188.77)"/><path class="cls-1" d="M381.19,229.07h-4.65V211.68H360.87v-4.24h15.67v-16.9h4.65v16.9h15.67v4.24H381.19v17.38Z" transform="translate(-117.22 -188.77)"/><path class="cls-1" d="M117.22,315.31h26V323H125.34V429.13h17.92v7.7h-26V315.31Z" transform="translate(-117.22 -188.77)"/><path class="cls-1" d="M169.58,349.75v74.48H158V330.85h11.9l53.76,72.94V330.85h11.62v93.38H224Z" transform="translate(-117.22 -188.77)"/><path class="cls-1" d="M300.34,416.53c-5.6,6.16-13.3,9.38-22.4,9.38-11.48,0-23.66-7.7-23.66-22.4,0-15.12,12.18-22.26,23.66-22.26,9.24,0,16.94,2.94,22.4,9.24V378.31c0-9.1-7.28-14.28-17.08-14.28-8.12,0-14.7,2.94-20.72,9.38l-4.9-7.28c7.28-7.56,16-11.2,27-11.2,14.28,0,26.18,6.44,26.18,22.82v46.48h-10.5v-7.7Zm0-19.32c-4.06-5.6-11.2-8.4-18.62-8.4-9.8,0-16.66,6.16-16.66,14.84s6.86,14.7,16.66,14.7c7.42,0,14.56-2.8,18.62-8.4V397.21Z" transform="translate(-117.22 -188.77)"/><path class="cls-1" d="M325.12,429.13H343V323H325.12v-7.7h26V436.83h-26v-7.7Z" transform="translate(-117.22 -188.77)"/><path class="cls-1" d="M380.85,355.61h-4.65V338.22H360.52V334h15.67v-16.9h4.65V334h15.67v4.24H380.85v17.38Z" transform="translate(-117.22 -188.77)"/><path class="cls-1" d="M444,257.73h26v7.7H452.17V371.55h17.92v7.7H444V257.73Z" transform="translate(-117.22 -188.77)"/><path class="cls-1" d="M523.56,344.67A39.47,39.47,0,0,0,553,358c16.66,0,22-9,22-16.1,0-11.2-11.34-14.28-23.66-17.64-15-3.92-31.64-8.12-31.64-26.46,0-15.4,13.72-25.9,32.06-25.9,14.28,0,25.34,4.76,33.18,13l-7,8.54c-7-7.7-16.8-11.2-27-11.2-11.2,0-19.18,6-19.18,14.84,0,9.38,10.78,12.18,22.68,15.4,15.26,4.06,32.62,8.82,32.62,28.42,0,13.58-9.24,27.44-34.44,27.44-16.24,0-28.14-6.16-35.84-14.84Z" transform="translate(-117.22 -188.77)"/><path class="cls-1" d="M634.72,371.55h17.92V265.43H634.72v-7.7h26V379.25h-26v-7.7Z" transform="translate(-117.22 -188.77)"/><path class="cls-1" d="M670.21,283.58H689.8V289H670.21v-5.39Z" transform="translate(-117.22 -188.77)"/><path class="cls-1" d="M697.47,300.64c19.59-15.43,30.2-24.49,30.2-33.87,0-6.94-5.71-10-11.34-10a18.2,18.2,0,0,0-14.77,6.86l-4.16-4.33c4.16-5.47,11.26-8.57,18.94-8.57,9.06,0,18.28,5.14,18.28,16,0,11.1-11.26,21.22-26.44,33.22h26.69v6H697.47v-5.39Z" transform="translate(-117.22 -188.77)"/><circle class="cls-1" cx="365.19" cy="148.01" r="12.8"/><circle class="cls-1" cx="365.19" cy="112.01" r="12.8"/><circle class="cls-1" cx="417.07" cy="60.39" r="12.8"/><circle class="cls-1" cx="453.07" cy="60.39" r="12.8"/><circle class="cls-1" cx="417.07" cy="200.43" r="12.8"/><circle class="cls-1" cx="453.07" cy="200.43" r="12.8"/><circle class="cls-1" cx="505.66" cy="148.01" r="12.8"/><circle class="cls-1" cx="505.66" cy="112.01" r="12.8"/></svg>