<svg id="Layer_1" data-name="Layer 1" xmlns="http://www.w3.org/2000/svg" width="673.67" height="374.42" viewBox="0 0 673.67 374.42"><defs><style>.cls-1{fill:#565656;}</style></defs><title>SodiumNitride</title><path class="cls-1" d="M120.81,107.77h26v7.7H128.93V221.59h17.92v7.7h-26V107.77Z" transform="translate(-120.46 -107.77)"/><path class="cls-1" d="M173.17,142.21v74.48H161.55V123.31h11.9l53.76,72.94V123.31h11.62v93.38h-11.2Z" transform="translate(-120.46 -107.77)"/><path class="cls-1" d="M303.93,209c-5.6,6.16-13.3,9.38-22.4,9.38-11.48,0-23.66-7.7-23.66-22.4,0-15.12,12.18-22.26,23.66-22.26,9.24,0,16.94,2.94,22.4,9.24V170.77c0-9.1-7.28-14.28-17.08-14.28-8.12,0-14.7,2.94-20.72,9.38l-4.9-7.28c7.28-7.56,16-11.2,27-11.2,14.28,0,26.18,6.44,26.18,22.82v46.48h-10.5V209Zm0-19.32c-4.06-5.6-11.2-8.4-18.62-8.4-9.8,0-16.66,6.16-16.66,14.84s6.86,14.7,16.66,14.7c7.42,0,14.56-2.8,18.62-8.4V189.67Z" transform="translate(-120.46 -107.77)"/><path class="cls-1" d="M328.71,221.59h17.92V115.47H328.71v-7.7h26V229.29h-26v-7.7Z" transform="translate(-120.46 -107.77)"/><path class="cls-1" d="M384.44,148.07h-4.65V130.68H364.11v-4.24h15.67v-16.9h4.65v16.9h15.67v4.24H384.44v17.38Z" transform="translate(-120.46 -107.77)"/><path class="cls-1" d="M120.81,234.12h26v7.7H128.93V347.94h17.92v7.7h-26V234.12Z" transform="translate(-120.46 -107.77)"/><path class="cls-1" d="M173.17,268.56V343H161.55V249.66h11.9l53.76,72.94V249.66h11.62V343h-11.2Z" transform="translate(-120.46 -107.77)"/><path class="cls-1" d="M303.93,335.34c-5.6,6.16-13.3,9.38-22.4,9.38-11.48,0-23.66-7.7-23.66-22.4,0-15.12,12.18-22.26,23.66-22.26,9.24,0,16.94,2.94,22.4,9.24V297.12c0-9.1-7.28-14.28-17.08-14.28-8.12,0-14.7,2.94-20.72,9.38l-4.9-7.28c7.28-7.56,16-11.2,27-11.2,14.28,0,26.18,6.44,26.18,22.82V343h-10.5v-7.7Zm0-19.32c-4.06-5.6-11.2-8.4-18.62-8.4-9.8,0-16.66,6.16-16.66,14.84s6.86,14.7,16.66,14.7c7.42,0,14.56-2.8,18.62-8.4V316Z" transform="translate(-120.46 -107.77)"/><path class="cls-1" d="M328.71,347.94h17.92V241.82H328.71v-7.7h26V355.64h-26v-7.7Z" transform="translate(-120.46 -107.77)"/><path class="cls-1" d="M384.44,274.42h-4.65V257H364.11v-4.24h15.67V235.9h4.65v16.9h15.67V257H384.44v17.38Z" transform="translate(-120.46 -107.77)"/><path class="cls-1" d="M487.07,233.75h26v7.7H495.19V347.57h17.92v7.7h-26V233.75Z" transform="translate(-120.46 -107.77)"/><path class="cls-1" d="M576.95,268.19v74.48H565.33V249.29h11.9L631,322.23V249.29H642.6v93.38h-11.2Z" transform="translate(-120.46 -107.77)"/><path class="cls-1" d="M694.82,347.57h17.92V241.45H694.82v-7.7h26V355.27h-26v-7.7Z" transform="translate(-120.46 -107.77)"/><path class="cls-1" d="M730.31,259.6H749.9V265H730.31V259.6Z" transform="translate(-120.46 -107.77)"/><path class="cls-1" d="M759.53,269.8A18.91,18.91,0,0,0,774.71,277c7.92,0,12.73-3.92,12.73-10.2,0-6.77-5.55-9.63-13.55-9.63-2.29,0-4.82,0-5.63.08V251c0.9,0.08,3.43.08,5.63,0.08,6.86,0,12.65-2.69,12.65-9,0-6-5.55-9.3-12.16-9.3-6,0-10.37,2.29-14.36,6.61l-3.75-4.24a23.59,23.59,0,0,1,18.61-8.41c10.45,0,18.45,5.31,18.45,14.53,0,7.84-6.61,11.75-11.75,12.65,5,0.41,12.57,4.65,12.57,13.39,0,9.06-7.26,15.67-19.26,15.67-9.22,0-16-4.08-19.34-9Z" transform="translate(-120.46 -107.77)"/><circle class="cls-1" cx="412.24" cy="205.03" r="12.8"/><circle class="cls-1" cx="412.24" cy="169.03" r="12.8"/><circle class="cls-1" cx="464.12" cy="117.41" r="12.8"/><circle class="cls-1" cx="500.12" cy="117.41" r="12.8"/><circle class="cls-1" cx="464.12" cy="257.44" r="12.8"/><circle class="cls-1" cx="500.12" cy="257.44" r="12.8"/><circle class="cls-1" cx="552.71" cy="205.03" r="12.8"/><circle class="cls-1" cx="552.71" cy="169.03" r="12.8"/><path class="cls-1" d="M120.46,234.31h26V242H128.58V348.13H146.5v7.7h-26V234.31Z" transform="translate(-120.46 -107.77)"/><path class="cls-1" d="M172.82,268.75v74.48H161.2V249.85h11.9l53.76,72.94V249.85h11.62v93.38h-11.2Z" transform="translate(-120.46 -107.77)"/><path class="cls-1" d="M303.58,335.53c-5.6,6.16-13.3,9.38-22.4,9.38-11.48,0-23.66-7.7-23.66-22.4,0-15.12,12.18-22.26,23.66-22.26,9.24,0,16.94,2.94,22.4,9.24V297.31c0-9.1-7.28-14.28-17.08-14.28-8.12,0-14.7,2.94-20.72,9.38l-4.9-7.28c7.28-7.56,16-11.2,27-11.2,14.28,0,26.18,6.44,26.18,22.82v46.48h-10.5v-7.7Zm0-19.32c-4.06-5.6-11.2-8.4-18.62-8.4-9.8,0-16.66,6.16-16.66,14.84s6.86,14.7,16.66,14.7c7.42,0,14.56-2.8,18.62-8.4V316.21Z" transform="translate(-120.46 -107.77)"/><path class="cls-1" d="M328.36,348.13h17.92V242H328.36v-7.7h26V355.83h-26v-7.7Z" transform="translate(-120.46 -107.77)"/><path class="cls-1" d="M384.09,274.61h-4.65V257.22H363.77V253h15.67v-16.9h4.65V253h15.67v4.24H384.09v17.38Z" transform="translate(-120.46 -107.77)"/><path class="cls-1" d="M120.46,360.66h26v7.7H128.58V474.48H146.5v7.7h-26V360.66Z" transform="translate(-120.46 -107.77)"/><path class="cls-1" d="M172.82,395.1v74.48H161.2V376.2h11.9l53.76,72.94V376.2h11.62v93.38h-11.2Z" transform="translate(-120.46 -107.77)"/><path class="cls-1" d="M303.58,461.88c-5.6,6.16-13.3,9.38-22.4,9.38-11.48,0-23.66-7.7-23.66-22.4,0-15.12,12.18-22.26,23.66-22.26,9.24,0,16.94,2.94,22.4,9.24V423.66c0-9.1-7.28-14.28-17.08-14.28-8.12,0-14.7,2.94-20.72,9.38l-4.9-7.28c7.28-7.56,16-11.2,27-11.2,14.28,0,26.18,6.44,26.18,22.82v46.48h-10.5v-7.7Zm0-19.32c-4.06-5.6-11.2-8.4-18.62-8.4-9.8,0-16.66,6.16-16.66,14.84s6.86,14.7,16.66,14.7c7.42,0,14.56-2.8,18.62-8.4V442.56Z" transform="translate(-120.46 -107.77)"/><path class="cls-1" d="M328.36,474.48h17.92V368.36H328.36v-7.7h26V482.18h-26v-7.7Z" transform="translate(-120.46 -107.77)"/><path class="cls-1" d="M384.09,401h-4.65V383.58H363.77v-4.24h15.67V362.44h4.65v16.89h15.67v4.24H384.09V401Z" transform="translate(-120.46 -107.77)"/></svg>