<svg id="Layer_1" data-name="Layer 1" xmlns="http://www.w3.org/2000/svg" width="644.91" height="165.64" viewBox="0 0 644.91 165.64"><defs><style>.cls-1{fill:#565656;}</style></defs><title>SodiumChloride</title><path class="cls-1" d="M474.12,233.75h26v7.7H482.24V347.57h17.92v7.7h-26V233.75Z" transform="translate(-120.46 -212.37)"/><path class="cls-1" d="M548.6,296c0-28.7,21.14-48.3,48-48.3,16.52,0,28,8,35.42,18.48l-9.8,5.46a31.5,31.5,0,0,0-25.62-13.58c-20.44,0-36,15.68-36,37.94s15.54,37.94,36,37.94a31.14,31.14,0,0,0,25.62-13.58l9.94,5.46c-7.84,10.64-19,18.48-35.56,18.48C569.74,344.35,548.6,324.75,548.6,296Z" transform="translate(-120.46 -212.37)"/><path class="cls-1" d="M648,249.29h10.5v93.38H648V249.29Z" transform="translate(-120.46 -212.37)"/><path class="cls-1" d="M710.3,347.57h17.92V241.45H710.3v-7.7h26V355.27h-26v-7.7Z" transform="translate(-120.46 -212.37)"/><path class="cls-1" d="M745.79,259.6h19.59V265H745.79V259.6Z" transform="translate(-120.46 -212.37)"/><circle class="cls-1" cx="407.24" cy="100.43" r="12.8"/><circle class="cls-1" cx="407.24" cy="64.43" r="12.8"/><circle class="cls-1" cx="464.12" cy="12.8" r="12.8"/><circle class="cls-1" cx="500.12" cy="12.8" r="12.8"/><circle class="cls-1" cx="464.12" cy="152.84" r="12.8"/><circle class="cls-1" cx="500.12" cy="152.84" r="12.8"/><circle class="cls-1" cx="562.71" cy="100.43" r="12.8"/><circle class="cls-1" cx="562.71" cy="64.43" r="12.8"/><path class="cls-1" d="M120.46,234.43h26v7.7H128.58V348.25H146.5V356h-26V234.43Z" transform="translate(-120.46 -212.37)"/><path class="cls-1" d="M172.82,268.87v74.48H161.2V250h11.9l53.76,72.94V250h11.62v93.38h-11.2Z" transform="translate(-120.46 -212.37)"/><path class="cls-1" d="M303.58,335.65c-5.6,6.16-13.3,9.38-22.4,9.38-11.48,0-23.66-7.7-23.66-22.4,0-15.12,12.18-22.26,23.66-22.26,9.24,0,16.94,2.94,22.4,9.24V297.43c0-9.1-7.28-14.28-17.08-14.28-8.12,0-14.7,2.94-20.72,9.38l-4.9-7.28c7.28-7.56,16-11.2,27-11.2,14.28,0,26.18,6.44,26.18,22.82v46.48h-10.5v-7.7Zm0-19.32c-4.06-5.6-11.2-8.4-18.62-8.4-9.8,0-16.66,6.16-16.66,14.84s6.86,14.7,16.66,14.7c7.42,0,14.56-2.8,18.62-8.4V316.33Z" transform="translate(-120.46 -212.37)"/><path class="cls-1" d="M328.36,348.25h17.92V242.13H328.36v-7.7h26V356h-26v-7.7Z" transform="translate(-120.46 -212.37)"/><path class="cls-1" d="M384.09,274.73h-4.65V257.35H363.77v-4.24h15.67v-16.9h4.65v16.9h15.67v4.24H384.09v17.38Z" transform="translate(-120.46 -212.37)"/></svg>