<svg id="Layer_1" data-name="Layer 1" xmlns="http://www.w3.org/2000/svg" width="368.29" height="160.55" viewBox="0 0 368.29 160.55"><defs><style>.cls-1{fill:#565656;}</style></defs><title>Sulfur</title><path class="cls-1" d="M357.87,332.47a39.47,39.47,0,0,0,29.4,13.3c16.66,0,22-9,22-16.1,0-11.2-11.34-14.28-23.66-17.64-15-3.92-31.64-8.12-31.64-26.46,0-15.4,13.72-25.9,32.06-25.9,14.28,0,25.34,4.76,33.18,13l-7,8.54c-7-7.7-16.8-11.2-27-11.2-11.2,0-19.18,6-19.18,14.84,0,9.38,10.78,12.18,22.68,15.4,15.26,4.06,32.62,8.82,32.62,28.42,0,13.58-9.24,27.44-34.44,27.44-16.24,0-28.14-6.16-35.84-14.84Z" transform="translate(-104.56 -227.11)"/><circle class="cls-1" cx="433.89" cy="374.85" r="12.8" transform="translate(-242.54 189.49) rotate(-45)"/><circle class="cls-1" cx="459.34" cy="349.4" r="12.8" transform="translate(-217.08 200.03) rotate(-45)"/><circle class="cls-1" cx="205.43" cy="98.12" r="12.8"/><circle class="cls-1" cx="205.43" cy="62.12" r="12.8"/><circle class="cls-1" cx="460.05" cy="266.69" r="12.8" transform="translate(-158.39 176.31) rotate(-45)"/><circle class="cls-1" cx="434.59" cy="241.23" r="12.8" transform="translate(-147.85 150.85) rotate(-45)"/><path class="cls-1" d="M160.54,333a39.47,39.47,0,0,0,29.4,13.3c16.66,0,22-9,22-16.1,0-11.2-11.34-14.28-23.66-17.64-15-3.92-31.64-8.12-31.64-26.46,0-15.4,13.72-25.9,32.06-25.9,14.28,0,25.34,4.76,33.18,13l-7,8.54c-7-7.7-16.8-11.2-27-11.2-11.2,0-19.18,6-19.18,14.84,0,9.38,10.78,12.18,22.68,15.4,15.26,4.06,32.62,8.82,32.62,28.42,0,13.58-9.24,27.44-34.44,27.44-16.24,0-28.14-6.16-35.84-14.84Z" transform="translate(-104.56 -227.11)"/><circle class="cls-1" cx="163.02" cy="98.59" r="12.8"/><circle class="cls-1" cx="163.02" cy="62.59" r="12.8"/><circle class="cls-1" cx="142.82" cy="374.54" r="12.8" transform="translate(-327.57 -16.42) rotate(-45)"/><circle class="cls-1" cx="117.36" cy="349.09" r="12.8" transform="translate(-317.03 -41.87) rotate(-45)"/><circle class="cls-1" cx="117.62" cy="265.36" r="12.8" transform="translate(-257.75 -66.21) rotate(-45)"/><circle class="cls-1" cx="143.08" cy="239.91" r="12.8" transform="translate(-232.29 -55.67) rotate(-45)"/></svg>