<?xml version="1.0" encoding="utf-8"?>
<!-- Generator: Adobe Illustrator 16.0.0, SVG Export Plug-In . SVG Version: 6.00 Build 0)  -->
<!DOCTYPE svg PUBLIC "-//W3C//DTD SVG 1.1//EN" "http://www.w3.org/Graphics/SVG/1.1/DTD/svg11.dtd">
<svg version="1.1" id="Layer_1" xmlns="http://www.w3.org/2000/svg" xmlns:xlink="http://www.w3.org/1999/xlink" x="0px" y="0px"
	 width="700px" height="700px" viewBox="0 0 700 700" enable-background="new 0 0 700 700" xml:space="preserve">
<g>
	<g>
		
			<linearGradient id="SVGID_1_" gradientUnits="userSpaceOnUse" x1="151.9238" y1="320.1616" x2="151.9238" y2="646.5626" gradientTransform="matrix(1.3069 0 0 -1.3069 149.4003 894.0607)">
			<stop  offset="0" style="stop-color:#6876A8"/>
			<stop  offset="0.4863" style="stop-color:#3C4C62"/>
			<stop  offset="1" style="stop-color:#2C294E"/>
		</linearGradient>
		<polygon fill="url(#SVGID_1_)" points="701.6,395.4 -5.7,395.3 -5.6,-2.4 701.6,-2.4 		"/>
	</g>
	<g>
		
			<linearGradient id="SVGID_2_" gradientUnits="userSpaceOnUse" x1="-798.6748" y1="128.71" x2="672.2389" y2="128.71" gradientTransform="matrix(1.2702 0.3073 0.1692 -1.3037 81.6529 801.7648)">
			<stop  offset="0" style="stop-color:#4A3932"/>
			<stop  offset="1" style="stop-color:#3C3D32"/>
		</linearGradient>
		<rect x="-6" y="684.7" fill="url(#SVGID_2_)" width="710.2" height="17.399"/>
		
			<linearGradient id="SVGID_3_" gradientUnits="userSpaceOnUse" x1="152.3799" y1="431.3701" x2="153.0648" y2="186.17" gradientTransform="matrix(1.3069 0 0 -1.3069 149.4003 894.0607)">
			<stop  offset="0" style="stop-color:#3A2D2C"/>
			<stop  offset="0.4235" style="stop-color:#685753"/>
			<stop  offset="1" style="stop-color:#7B6262"/>
		</linearGradient>
		<polygon fill="url(#SVGID_3_)" points="-6,684.7 -6,389.1 30.1,368.8 698.5,368.8 704.2,372.1 704.2,684.7 		"/>
	</g>
</g>
<g>
	
		<radialGradient id="SVGID_4_" cx="283.6572" cy="355.2949" r="85.1256" gradientTransform="matrix(1.3069 0 0 -0.7766 149.4003 673.9297)" gradientUnits="userSpaceOnUse">
		<stop  offset="0" style="stop-color:#FFFFFF;stop-opacity:0"/>
		<stop  offset="0.4157" style="stop-color:#FFFFFF;stop-opacity:0.2235"/>
		<stop  offset="1" style="stop-color:#FFFFFF;stop-opacity:0"/>
	</radialGradient>
	<path fill="url(#SVGID_4_)" d="M604.1,404c1.101-1.7,2-3.4,2.5-5.3v89.1h-180v-88.1c0.801,1.899,1.9,3.7,3.2,5.399
		c1,1.2,2.2,2.4,3.8,3.601c3.301,2.1,7.601,3.8,13,5c3,0.7,5.801,1.3,8.5,1.8c43.301,8.3,86.9,7.7,130.801-1.8
		C595.8,410.9,601.8,407.6,604.1,404z"/>
</g>
<g>
	
		<radialGradient id="SVGID_5_" cx="47.3569" cy="355.2949" r="85.1256" gradientTransform="matrix(1.3069 0 0 -0.7766 149.4003 673.9297)" gradientUnits="userSpaceOnUse">
		<stop  offset="0" style="stop-color:#FFFFFF;stop-opacity:0"/>
		<stop  offset="0.4157" style="stop-color:#FFFFFF;stop-opacity:0.2235"/>
		<stop  offset="1" style="stop-color:#FFFFFF;stop-opacity:0"/>
	</radialGradient>
	<path fill="url(#SVGID_5_)" d="M295.3,404c1.1-1.7,2-3.4,2.5-5.3v89.1h-180v-88.1c0.8,1.899,1.9,3.7,3.2,5.399
		c1,1.2,2.2,2.4,3.8,3.601c3.3,2.1,7.6,3.8,13,5c3,0.7,5.8,1.3,8.5,1.8c43.3,8.3,86.9,7.7,130.8-1.8
		C286.9,410.9,293,407.6,295.3,404z"/>
</g>
<g>
	
		<linearGradient id="SVGID_6_" gradientUnits="userSpaceOnUse" x1="239.9409" y1="300.0088" x2="239.943" y2="251.6088" gradientTransform="matrix(0.8773 0 0 -0.8773 147.498 905.5103)">
		<stop  offset="0" style="stop-color:#000000"/>
		<stop  offset="1" style="stop-color:#000000;stop-opacity:0"/>
	</linearGradient>
	<rect x="226.4" y="665.2" fill="url(#SVGID_6_)" width="263.2" height="19.3"/>
	<g>
		
			<linearGradient id="SVGID_7_" gradientUnits="userSpaceOnUse" x1="243.3066" y1="417.6113" x2="243.3211" y2="554.8113" gradientTransform="matrix(0.8773 0 0 -0.8773 147.498 905.5103)">
			<stop  offset="0" style="stop-color:#374451"/>
			<stop  offset="0.6627" style="stop-color:#202933"/>
			<stop  offset="0.8627" style="stop-color:#253446"/>
			<stop  offset="0.898" style="stop-color:#4E5864"/>
			<stop  offset="0.9294" style="stop-color:#353F4A"/>
			<stop  offset="1" style="stop-color:#414F5F"/>
		</linearGradient>
		<path fill="url(#SVGID_7_)" d="M471.5,549.9h-42.2H250.4l8-113.801h0.1l10-17.899h185.6l6.7,17.899L471.5,549.9z M438.2,538
			l-6.3-76.5H287.7L281,538H438.2z"/>
		
			<linearGradient id="SVGID_8_" gradientUnits="userSpaceOnUse" x1="241.7666" y1="405.6592" x2="241.7666" y2="526.7592" gradientTransform="matrix(0.8773 0 0 -0.8773 147.498 905.5103)">
			<stop  offset="0" style="stop-color:#A2A2A2"/>
			<stop  offset="1" style="stop-color:#FFFFFF"/>
		</linearGradient>
		<polygon fill="url(#SVGID_8_)" points="438.2,538 281,538 287.7,461.5 431.9,461.5 		"/>
		<polygon fill="#09080D" points="470.3,553.4 429.2,553.4 251,553.4 250.4,549.9 429.2,549.9 471.5,549.9 		"/>
		
			<linearGradient id="SVGID_9_" gradientUnits="userSpaceOnUse" x1="157.0972" y1="400.6455" x2="406.6078" y2="396.5175" gradientTransform="matrix(0.8773 0 0 -0.8773 147.498 905.5103)">
			<stop  offset="0" style="stop-color:#0E0F12"/>
			<stop  offset="1" style="stop-color:#2C3039"/>
		</linearGradient>
		<polygon fill="url(#SVGID_9_)" points="473,557 429.2,557 248.5,557.1 248.5,557.1 251,553.4 429.2,553.4 470.3,553.4 		"/>
		
			<linearGradient id="SVGID_10_" gradientUnits="userSpaceOnUse" x1="240.0537" y1="359.4775" x2="240.0064" y2="309.1525" gradientTransform="matrix(0.8773 0 0 -0.8773 147.498 905.5103)">
			<stop  offset="0" style="stop-color:#2D3641"/>
			<stop  offset="0.5412" style="stop-color:#545D69"/>
			<stop  offset="0.6039" style="stop-color:#818A95"/>
			<stop  offset="0.651" style="stop-color:#16212E"/>
			<stop  offset="1" style="stop-color:#223246"/>
		</linearGradient>
		<polygon fill="url(#SVGID_10_)" points="248.5,557.1 429.2,557 473,557 473.2,557.3 473.2,557 489.6,618.4 489.6,664.4 
			226.5,664.4 226.5,664.1 226.5,617.3 226.5,617.2 		"/>
	</g>
	<g>
		
			<radialGradient id="SVGID_11_" cx="251.7373" cy="392.1152" r="143.2125" gradientTransform="matrix(0.8773 0 0 -0.7955 147.498 868.6602)" gradientUnits="userSpaceOnUse">
			<stop  offset="0" style="stop-color:#FFFFFF;stop-opacity:0.1569"/>
			<stop  offset="1" style="stop-color:#E1E1E1;stop-opacity:0"/>
		</radialGradient>
		<path fill="url(#SVGID_11_)" d="M456.6,555.3C456.6,555.4,456.6,555.4,456.6,555.3c0,0.101-0.1,0.101-0.1,0.101H271.1H271V555.3
			v-0.1h0.1h185.4C456.5,555.2,456.5,555.2,456.6,555.3L456.6,555.3z"/>
		
			<radialGradient id="SVGID_12_" cx="253.3369" cy="401.915" r="116.8378" gradientTransform="matrix(0.8773 0 0 -0.7955 147.498 867.8584)" gradientUnits="userSpaceOnUse">
			<stop  offset="0" style="stop-color:#FFFFFF;stop-opacity:0.1569"/>
			<stop  offset="1" style="stop-color:#E1E1E1;stop-opacity:0"/>
		</radialGradient>
		<path fill="url(#SVGID_12_)" d="M451,548.1C451,548.2,451,548.2,451,548.1c0,0.101-0.1,0.101-0.1,0.101H288.6h-0.1V548.1V548h0.1
			h162.3C450.9,548,450.9,548,451,548.1L451,548.1z"/>
	</g>
	<path fill-opacity="0.251" d="M316.1,586.3c0,2.8-1.699,5.2-5.1,7.2s-7.6,2.9-12.4,2.9c-4.8,0-9-1-12.5-2.9c-3.4-2-5.1-4.3-5.1-7.2
		c0-2.8,1.7-5.2,5.1-7.1c3.5-2,7.6-2.9,12.5-2.9s9,1,12.4,2.9C314.4,581.2,316.1,583.6,316.1,586.3z"/>
	<path d="M313.6,583.4c0,2-1.5,3.699-4.399,5c-2.9,1.399-6.4,2.1-10.6,2.1c-4.2,0-7.7-0.7-10.6-2.1c-2.9-1.4-4.3-3.101-4.3-5
		c0-2,1.4-3.7,4.3-5.101c2.9-1.399,6.5-2.1,10.6-2.1s7.7,0.7,10.6,2.1C312.1,579.7,313.6,581.4,313.6,583.4z"/>
	<path fill-opacity="0.251" d="M443,585.9c0,2.8-1.7,5.199-5.1,7.1c-3.4,2-7.5,3-12.4,3s-9-1-12.4-3c-3.399-2-5.1-4.3-5.1-7.1
		c0-2.801,1.7-5.2,5.1-7.2c3.4-2,7.601-3,12.4-3c4.9,0,9,1,12.4,3C441.2,580.7,443,583.1,443,585.9z"/>
	<path d="M440.5,582.8c0,2-1.5,3.7-4.4,5c-2.899,1.4-6.399,2.101-10.6,2.101c-4.1,0-7.6-0.7-10.6-2.101
		c-2.9-1.399-4.301-3.1-4.301-5c0-2,1.4-3.7,4.301-5.1c2.899-1.4,6.399-2.101,10.6-2.101s7.7,0.7,10.6,2.101
		C439,579.2,440.5,580.9,440.5,582.8z"/>
	<g>
		<g>
			
				<linearGradient id="SVGID_13_" gradientUnits="userSpaceOnUse" x1="238.4546" y1="504.0752" x2="350.3965" y2="504.0752" gradientTransform="matrix(0.5727 -0.6646 -0.5159 -0.7453 477.1429 1040.5854)">
				<stop  offset="0" style="stop-color:#ACB693"/>
				<stop  offset="1" style="stop-color:#727953"/>
			</linearGradient>
			<polygon fill="url(#SVGID_13_)" points="424.8,525.1 424.7,525.3 296,525.3 296,472 424.8,471.9 			"/>
		</g>
		<g>
			<polygon fill="#161711" fill-opacity="0.498" points="424.8,520.6 424.8,525 424.7,525.1 296,525.1 296,472.1 299.2,472.1 
				299.2,520.6 			"/>
		</g>
	</g>
	<g>
		<g>
			<path fill="#212830" d="M282.2,540.8c0.2,0.101,0.5,0.3,0.7,0.4c0.6,0.6,1,1.2,1,2s-0.3,1.399-1,2c-0.7,0.6-1.5,0.8-2.4,0.8
				s-1.7-0.3-2.4-0.8c-0.6-0.5-1-1.2-1-2s0.3-1.4,1-2c0.2-0.2,0.4-0.3,0.7-0.4c0.5-0.3,1.1-0.399,1.8-0.399
				C281.3,540.4,281.7,540.5,282.2,540.8z"/>
		</g>
		<g>
			<path fill="#FFFFFF" fill-opacity="0.298" d="M282.2,539.8c0.2,0.101,0.5,0.2,0.7,0.4c0.6,0.6,1,1.2,1,2s-0.3,1.399-1,2
				c-0.7,0.6-1.5,0.8-2.4,0.8s-1.7-0.3-2.4-0.8c-0.6-0.5-1-1.2-1-2s0.3-1.4,1-2c0.2-0.2,0.4-0.3,0.7-0.4
				c0.5-0.3,1.1-0.399,1.8-0.399C281.3,539.4,281.7,539.6,282.2,539.8z"/>
		</g>
		<g>
			<path fill="#232E36" d="M282.2,540.3c0.2,0.101,0.5,0.2,0.7,0.4c0.6,0.6,1,1.2,1,2s-0.3,1.399-1,2c-0.7,0.6-1.5,0.8-2.4,0.8
				s-1.7-0.3-2.4-0.8c-0.6-0.5-1-1.2-1-2s0.3-1.5,1-2c0.2-0.101,0.4-0.3,0.7-0.4c0.5-0.3,1.1-0.399,1.8-0.399
				C281.3,539.9,281.7,540,282.2,540.3z"/>
		</g>
		<g>
			<polygon points="279.6,544.4 278.9,544 281.4,540.9 282.2,541.4 			"/>
		</g>
	</g>
	<g>
		<g>
			<path fill="#212830" d="M448.2,540.1c0.2,0.101,0.5,0.301,0.7,0.4c0.6,0.6,1,1.2,1,2s-0.301,1.4-1,2c-0.7,0.6-1.5,0.8-2.4,0.8
				s-1.7-0.3-2.4-0.8c-0.6-0.5-1-1.2-1-2s0.301-1.4,1-2c0.2-0.2,0.4-0.3,0.7-0.4c0.5-0.3,1.101-0.399,1.8-0.399
				C447.3,539.7,447.7,539.8,448.2,540.1z"/>
		</g>
		<g>
			<path fill="#FFFFFF" fill-opacity="0.298" d="M444.1,543.5c-0.6-0.5-1-1.2-1-2s0.301-1.4,1-2c0.2-0.2,0.4-0.3,0.7-0.4
				c0.5-0.3,1.101-0.399,1.8-0.399c0.7,0,1.2,0.1,1.801,0.399c0.199,0.101,0.5,0.2,0.699,0.4c0.601,0.6,1,1.2,1,2s-0.3,1.4-1,2
				c-0.699,0.6-1.5,0.8-2.399,0.8C445.8,544.3,444.7,544,444.1,543.5z"/>
		</g>
		<g>
			<path fill="#232E36" d="M448.2,539.6c0.2,0.101,0.5,0.2,0.7,0.4c0.6,0.6,1,1.2,1,2s-0.301,1.4-1,2c-0.7,0.6-1.5,0.8-2.4,0.8
				s-1.7-0.3-2.4-0.8c-0.6-0.5-1-1.2-1-2s0.301-1.5,1-2c0.2-0.1,0.4-0.3,0.7-0.4c0.5-0.3,1.101-0.399,1.8-0.399
				C447.3,539.2,447.7,539.3,448.2,539.6z"/>
		</g>
		<g>
			<polygon points="445.6,543.7 444.8,543.3 447.4,540.2 448.1,540.7 			"/>
		</g>
	</g>
	<g>
		<g>
			<path d="M313.2,575.2c-0.2,1.1-1,2.1-2.2,3.1c-0.5,0.4-1.1,0.7-1.9,1.101c-2.699,1.399-6.1,2.1-10.1,2.1c-3.9,0-7.3-0.7-10.1-2.1
				c-0.7-0.4-1.3-0.7-1.8-1.101c-1.5-1.1-2.3-2.3-2.3-3.7v-0.1c0-1.9,1.4-3.5,4.1-4.9c2.8-1.3,6.2-2,10.1-2c4,0,7.3,0.7,10.1,2
				c2.601,1.301,4,2.801,4.2,4.601L313.2,575.2z"/>
			
				<linearGradient id="SVGID_14_" gradientUnits="userSpaceOnUse" x1="156.4375" y1="369.0986" x2="188.8872" y2="369.0986" gradientTransform="matrix(0.8773 0 0 -0.8773 147.498 905.5103)">
				<stop  offset="0" style="stop-color:#060606"/>
				<stop  offset="0.1137" style="stop-color:#414141"/>
				<stop  offset="0.2431" style="stop-color:#1E1E1E"/>
				<stop  offset="0.4392" style="stop-color:#262626"/>
				<stop  offset="0.6549" style="stop-color:#3B3B3B"/>
				<stop  offset="0.8235" style="stop-color:#4A4A4A"/>
				<stop  offset="1" style="stop-color:#0B0B0B"/>
			</linearGradient>
			<path fill="url(#SVGID_14_)" d="M284.7,574.5c0,1.4,0.8,2.6,2.3,3.7c0.5,0.399,1.1,0.7,1.8,1.1c2.8,1.4,6.2,2.101,10.1,2.101
				c4,0,7.3-0.7,10.1-2.101c0.8-0.399,1.4-0.7,1.9-1.1c1.3-0.9,2-2,2.199-3.101v7.5c-0.3,1.601-1.699,3-4.1,4.2
				c-2.7,1.4-6.1,2.101-10.1,2.101c-3.9,0-7.3-0.7-10.1-2.101c-2.7-1.399-4.1-3-4.1-4.8V574.5L284.7,574.5z"/>
		</g>
		<g>
			<path fill="#333333" d="M309.4,551.6c0,1.4-1.101,2.601-3.101,3.601s-4.4,1.5-7.3,1.5s-5.3-0.5-7.4-1.5c-2-1-3.1-2.2-3.1-3.601
				c0,0,0-0.1,0-0.199V551.3c0.1-1.3,1.1-2.399,3-3.3c2-1,4.5-1.4,7.4-1.4s5.3,0.5,7.3,1.4s3,2,3.1,3.3
				C309.4,551.4,309.4,551.4,309.4,551.6L309.4,551.6z M304.7,550.5c0-0.7-0.6-1.3-1.7-1.8s-2.5-0.7-4.1-0.7s-3,0.2-4.1,0.7
				c-1.1,0.5-1.7,1.1-1.7,1.8s0.6,1.3,1.7,1.8c1.1,0.5,2.5,0.7,4.1,0.7s3-0.2,4.1-0.7S304.7,551.2,304.7,550.5z"/>
			<path d="M304.7,550.5c0,0.7-0.6,1.3-1.7,1.8s-2.5,0.7-4.1,0.7s-3-0.2-4.1-0.7c-1.1-0.5-1.7-1.1-1.7-1.8s0.6-1.3,1.7-1.8
				c1.1-0.5,2.5-0.7,4.1-0.7s3,0.2,4.1,0.7S304.7,549.8,304.7,550.5z"/>
			
				<radialGradient id="SVGID_15_" cx="173.2686" cy="418.1455" r="14.6018" gradientTransform="matrix(0.8772 0.0121 0.0284 -2.0677 134.986 1427.6667)" gradientUnits="userSpaceOnUse">
				<stop  offset="0.4196" style="stop-color:#363636"/>
				<stop  offset="1" style="stop-color:#1A1A1A"/>
			</radialGradient>
			<path fill="url(#SVGID_15_)" d="M288.6,551.6c0,1.4,1,2.601,3.1,3.601c2,1,4.5,1.5,7.4,1.5s5.3-0.5,7.3-1.5
				c2-1,3.1-2.2,3.1-3.601l2.1,20.301v0.199c0,0.101,0,0.101,0,0.2c0,1.7-1.199,3.101-3.6,4.3c-2.5,1.2-5.4,1.801-8.9,1.801
				s-6.4-0.601-8.9-1.801c-2.4-1.199-3.6-2.6-3.6-4.3c0-0.1,0-0.3,0-0.399L288.6,551.6z"/>
		</g>
		<g>
			<path d="M305.8,559.2l1.101,13.7c0.399-0.101,0.699-0.301,1.1-0.5c0.6-0.301,1-0.601,1.4-1l-1.5-13.2
				c-0.101,0.1-0.301,0.3-0.5,0.399C306.8,558.9,306.3,559.1,305.8,559.2z M307.3,557.6c0.3-0.1,0.601-0.3,0.8-0.399L310,572.1
				c-0.6,0.5-1.3,0.9-2.1,1.301c-0.601,0.3-1.2,0.6-1.801,0.8l-1.3-15.7C305.7,558.3,306.5,558,307.3,557.6z M299.1,560.6
				c-0.7,0-1.3,0-2-0.1l-0.8,13.3c0.9,0.101,1.8,0.2,2.8,0.2c1.1,0,2-0.1,2.9-0.2l-0.7-13.3C300.6,560.6,299.8,560.6,299.1,560.6z
				 M293.4,558.7l-1.4,15.6c-0.7-0.2-1.4-0.5-2-0.8c-0.4-0.2-0.7-0.4-1-0.6c-0.4-0.2-0.8-0.5-1.2-0.801l1.6-15.1
				c0.2,0.2,0.5,0.4,0.8,0.4c0.1,0.1,0.3,0.199,0.4,0.3C291.5,558,292.4,558.4,293.4,558.7z M296.3,559.3c0.9,0.101,1.8,0.2,2.7,0.2
				c1,0,2-0.1,3-0.2l1,15.8c-1.2,0.2-2.6,0.301-4,0.301s-2.7-0.101-3.9-0.301L296.3,559.3z M292.7,559.5c-0.7-0.2-1.3-0.5-1.9-0.9
				c-0.3-0.199-0.6-0.399-0.8-0.6l-1.5,13.2c0.2,0.2,0.4,0.399,0.6,0.6c0.3,0.2,0.6,0.4,1,0.601c0.4,0.3,0.9,0.5,1.4,0.699
				L292.7,559.5z"/>
			<path fill="#272727" d="M305.8,559.2c0.601-0.101,1.101-0.4,1.601-0.7c0.199-0.1,0.3-0.2,0.5-0.4l1.5,13.2
				c-0.4,0.4-0.801,0.7-1.4,1c-0.4,0.2-0.7,0.4-1.1,0.5L305.8,559.2z M299.1,560.6c0.8,0,1.5,0,2.2-0.1l0.7,13.3
				c-0.9,0.101-1.9,0.2-2.9,0.2s-1.9-0.1-2.8-0.2l0.8-13.3C297.8,560.6,298.4,560.6,299.1,560.6z M292.7,559.5l-1.3,13.6
				c-0.5-0.199-1-0.5-1.4-0.699c-0.4-0.2-0.7-0.4-1-0.601c-0.2-0.2-0.4-0.399-0.6-0.6L290,558c0.2,0.2,0.5,0.4,0.8,0.6
				C291.4,559,292,559.3,292.7,559.5z"/>
		</g>
		
			<radialGradient id="SVGID_16_" cx="423.0977" cy="203.9155" r="8.8494" gradientTransform="matrix(0.6665 0 0 -0.1833 17.0392 594.0475)" gradientUnits="userSpaceOnUse">
			<stop  offset="0" style="stop-color:#FFFFFF"/>
			<stop  offset="0.0902" style="stop-color:#FFFFFF"/>
			<stop  offset="0.2627" style="stop-color:#FFFFFF;stop-opacity:0.5765"/>
			<stop  offset="0.4392" style="stop-color:#FFFFFF;stop-opacity:0.451"/>
			<stop  offset="0.5725" style="stop-color:#FFFFFF;stop-opacity:0.298"/>
			<stop  offset="0.8314" style="stop-color:#FFFFFF;stop-opacity:0.0471"/>
			<stop  offset="1" style="stop-color:#FFFFFF;stop-opacity:0"/>
		</radialGradient>
		<path fill="url(#SVGID_16_)" d="M299,558.1c-1.5,0-2.7-0.1-3.8-0.399c-1-0.3-1.6-0.601-1.6-1c0-0.4,0.5-0.7,1.6-1
			c1-0.3,2.3-0.4,3.8-0.4s2.8,0.101,3.8,0.4s1.6,0.6,1.6,1c0,0.399-0.5,0.8-1.6,1C301.8,558,300.5,558.1,299,558.1z"/>
		
			<radialGradient id="SVGID_17_" cx="423.0977" cy="203.9209" r="8.8535" gradientTransform="matrix(0.6665 0 0 -0.1833 17.7394 619.3483)" gradientUnits="userSpaceOnUse">
			<stop  offset="0" style="stop-color:#FFFFFF"/>
			<stop  offset="0.0902" style="stop-color:#FFFFFF"/>
			<stop  offset="0.2627" style="stop-color:#FFFFFF;stop-opacity:0.5765"/>
			<stop  offset="0.4392" style="stop-color:#FFFFFF;stop-opacity:0.451"/>
			<stop  offset="0.5725" style="stop-color:#FFFFFF;stop-opacity:0.298"/>
			<stop  offset="0.8314" style="stop-color:#FFFFFF;stop-opacity:0.0471"/>
			<stop  offset="1" style="stop-color:#FFFFFF;stop-opacity:0"/>
		</radialGradient>
		<path fill="url(#SVGID_17_)" d="M299.7,583.4c-1.5,0-2.7-0.101-3.8-0.4c-1-0.3-1.6-0.6-1.6-1s0.5-0.7,1.6-1c1-0.3,2.3-0.4,3.8-0.4
			s2.8,0.101,3.8,0.4s1.6,0.6,1.6,1s-0.5,0.8-1.6,1C302.5,583.3,301.2,583.4,299.7,583.4z"/>
		
			<radialGradient id="SVGID_18_" cx="395.3301" cy="98.6504" r="8.8513" gradientTransform="matrix(0.4707 0 0 -0.1295 112.9984 561.0072)" gradientUnits="userSpaceOnUse">
			<stop  offset="0" style="stop-color:#FFFFFF"/>
			<stop  offset="0.0902" style="stop-color:#FFFFFF"/>
			<stop  offset="0.2627" style="stop-color:#FFFFFF;stop-opacity:0.5765"/>
			<stop  offset="0.4392" style="stop-color:#FFFFFF;stop-opacity:0.451"/>
			<stop  offset="0.5725" style="stop-color:#FFFFFF;stop-opacity:0.298"/>
			<stop  offset="0.8314" style="stop-color:#FFFFFF;stop-opacity:0.0471"/>
			<stop  offset="1" style="stop-color:#FFFFFF;stop-opacity:0"/>
		</radialGradient>
		<path fill="url(#SVGID_18_)" d="M299.1,549.3c-1,0-1.9-0.1-2.7-0.3c-0.7-0.2-1.1-0.4-1.1-0.7s0.4-0.5,1.1-0.7
			c0.7-0.199,1.6-0.3,2.7-0.3s1.9,0.101,2.7,0.3c0.7,0.2,1.1,0.4,1.1,0.7s-0.4,0.5-1.1,0.7C301,549.2,300.1,549.3,299.1,549.3z"/>
	</g>
	<g>
		<g>
			
				<linearGradient id="SVGID_19_" gradientUnits="userSpaceOnUse" x1="300.6372" y1="368.8711" x2="333.1382" y2="368.8711" gradientTransform="matrix(0.8773 0 0 -0.8773 147.498 905.5103)">
				<stop  offset="0" style="stop-color:#8F0817"/>
				<stop  offset="0.1137" style="stop-color:#C3031C"/>
				<stop  offset="0.2431" style="stop-color:#C31E25"/>
				<stop  offset="0.4392" style="stop-color:#D91D24"/>
				<stop  offset="0.6549" style="stop-color:#DD626E"/>
				<stop  offset="1" style="stop-color:#9B0618"/>
			</linearGradient>
			<path fill="url(#SVGID_19_)" d="M439.8,575.2v7.6c-0.3,1.601-1.7,3-4.2,4.2c-2.699,1.4-6.1,2.1-10.1,2.1
				c-3.9,0-7.3-0.699-10.1-2.1c-2.7-1.3-4.101-3-4.2-4.8v-7.5c0.1,1.3,0.8,2.6,2.3,3.6c0.5,0.4,1.1,0.8,1.8,1.101
				c2.8,1.3,6.101,2,10.101,2s7.3-0.7,10.1-2c0.8-0.4,1.4-0.801,1.9-1.101C438.8,577.3,439.5,576.3,439.8,575.2z"/>
			<path fill="#990917" d="M411.2,574.6V574.4c0.1-1.9,1.399-3.5,4.2-4.801c2.8-1.399,6.1-2.1,10.1-2.1s7.3,0.7,10.1,2.1
				c2.601,1.301,4,2.801,4.2,4.601v1c-0.2,1.1-1,2.1-2.3,3.1c-0.5,0.4-1.1,0.8-1.9,1.101c-2.699,1.3-6.1,2-10.1,2
				c-3.9,0-7.3-0.7-10.1-2c-0.7-0.4-1.301-0.801-1.801-1.101C412.1,577.1,411.3,575.9,411.2,574.6z"/>
		</g>
		<g>
			<path fill="#EA2F42" d="M436,551.6c0,1.4-1.1,2.601-3.1,3.601s-4.5,1.5-7.4,1.5s-5.3-0.5-7.4-1.5c-2-1-3.1-2.2-3.1-3.601v-0.1
				c0,0,0-0.1,0.1-0.1c0.101-1.301,1.101-2.4,3-3.301c2-1,4.5-1.399,7.4-1.399s5.4,0.5,7.4,1.399c1.899,0.9,3,2,3.1,3.301
				C436,551.4,436,551.5,436,551.6L436,551.6z M429.5,552.3c1.1-0.5,1.7-1.1,1.7-1.8s-0.601-1.3-1.7-1.8s-2.5-0.7-4.1-0.7
				c-1.601,0-3,0.2-4.2,0.7c-1.101,0.5-1.7,1.1-1.7,1.8s0.6,1.3,1.7,1.8c1.1,0.5,2.5,0.7,4.2,0.7C427.1,553,428.4,552.8,429.5,552.3
				z"/>
			
				<radialGradient id="SVGID_20_" cx="317.5195" cy="418.1455" r="14.601" gradientTransform="matrix(0.8772 0.0121 0.0284 -2.0677 134.9977 1425.9265)" gradientUnits="userSpaceOnUse">
				<stop  offset="0.4196" style="stop-color:#DD0005"/>
				<stop  offset="1" style="stop-color:#AE0107"/>
			</radialGradient>
			<path fill="url(#SVGID_20_)" d="M415.1,551.6c0,1.4,1,2.601,3.101,3.601c2,1,4.5,1.5,7.399,1.5c2.9,0,5.4-0.5,7.4-1.5
				s3.1-2.2,3.1-3.601l2,20.4v0.1c0,0.101,0,0.2,0,0.2c0,1.7-1.199,3.101-3.6,4.3c-2.4,1.2-5.4,1.801-8.9,1.801
				S419.2,577.8,416.7,576.6c-2.4-1.199-3.601-2.6-3.601-4.3c0-0.1,0-0.3,0-0.399L415.1,551.6z"/>
			<path fill="#640610" d="M429.5,552.3c-1.1,0.5-2.5,0.7-4.1,0.7c-1.601,0-3-0.2-4.2-0.7c-1.101-0.5-1.7-1.1-1.7-1.8
				s0.6-1.3,1.7-1.8c1.1-0.5,2.5-0.7,4.2-0.7c1.699,0,3,0.2,4.1,0.7s1.7,1.1,1.7,1.8S430.7,551.8,429.5,552.3z"/>
		</g>
		<g>
			<path fill="#92010C" d="M434.6,557.2l1.9,14.899c-0.6,0.5-1.3,0.9-2.1,1.301c-0.601,0.3-1.101,0.6-1.801,0.8l-1.3-15.601
				c0.8-0.3,1.7-0.6,2.5-1C434.1,557.5,434.4,557.4,434.6,557.2z M434.4,558.2c-0.101,0.1-0.301,0.3-0.5,0.399
				c-0.5,0.301-1,0.5-1.601,0.601l1.101,13.7c0.399-0.101,0.699-0.301,1.1-0.5c0.5-0.301,1-0.601,1.3-1.101L434.4,558.2z
				 M416.8,557.4c0.101,0.1,0.2,0.199,0.4,0.3c0.8,0.399,1.8,0.7,2.7,1l-1.4,15.6c-0.7-0.2-1.4-0.5-2-0.8c-0.4-0.2-0.7-0.4-1.1-0.5
				c-0.4-0.3-0.801-0.6-1.2-0.9L416,557C416.2,557.1,416.5,557.3,416.8,557.4z M416.5,558l-1.5,13.2c0.2,0.2,0.4,0.399,0.6,0.6
				c0.301,0.2,0.601,0.4,1,0.7c0.4,0.3,0.9,0.5,1.4,0.7l1.4-13.601c-0.7-0.3-1.4-0.6-1.9-0.899S416.7,558.2,416.5,558z M425.5,559.5
				c1.1,0,2.1,0,3.1-0.1l1,15.8c-1.3,0.2-2.6,0.3-4,0.3c-1.399,0-2.699-0.1-3.899-0.3l1.2-15.8C423.7,559.4,424.6,559.5,425.5,559.5
				z M425.6,560.6c-0.699,0-1.3,0-2-0.1l-0.8,13.3c0.9,0.101,1.8,0.2,2.8,0.2c1.101,0,2-0.1,3-0.2l-0.699-13.3
				C427.1,560.6,426.4,560.6,425.6,560.6z"/>
			<path fill="#B00004" d="M434.4,558.2l1.5,13.2c-0.4,0.399-0.801,0.8-1.301,1.1c-0.399,0.2-0.8,0.4-1.1,0.5l-1.1-13.7
				c0.6-0.1,1.1-0.399,1.6-0.6C434.1,558.5,434.2,558.4,434.4,558.2z"/>
			<path fill="#BB0004" d="M416.5,558c0.3,0.2,0.6,0.4,0.9,0.7c0.6,0.399,1.199,0.7,1.899,0.899L417.9,573.2c-0.5-0.2-1-0.5-1.4-0.7
				s-0.7-0.5-1-0.7c-0.2-0.2-0.4-0.399-0.6-0.6L416.5,558z"/>
			<path fill="#B90004" d="M425.6,560.6c0.801,0,1.5,0,2.2-0.1l0.7,13.3c-0.9,0.101-1.9,0.2-3,0.2c-1,0-1.9-0.1-2.8-0.2l0.8-13.3
				C424.3,560.6,424.9,560.6,425.6,560.6z"/>
		</g>
		
			<radialGradient id="SVGID_21_" cx="423.0967" cy="203.9155" r="8.8494" gradientTransform="matrix(0.6665 0 0 -0.1833 143.589 594.0475)" gradientUnits="userSpaceOnUse">
			<stop  offset="0" style="stop-color:#FFFFFF"/>
			<stop  offset="0.0902" style="stop-color:#FFFFFF"/>
			<stop  offset="0.2627" style="stop-color:#FFFFFF;stop-opacity:0.5765"/>
			<stop  offset="0.4392" style="stop-color:#FFFFFF;stop-opacity:0.451"/>
			<stop  offset="0.5725" style="stop-color:#FFFFFF;stop-opacity:0.298"/>
			<stop  offset="0.8314" style="stop-color:#FFFFFF;stop-opacity:0.0471"/>
			<stop  offset="1" style="stop-color:#FFFFFF;stop-opacity:0"/>
		</radialGradient>
		<path fill="url(#SVGID_21_)" d="M425.6,558.1c-1.5,0-2.699-0.1-3.8-0.399c-1-0.3-1.6-0.601-1.6-1c0-0.4,0.5-0.7,1.6-1
			c1.101-0.3,2.3-0.4,3.8-0.4s2.801,0.101,3.801,0.4s1.6,0.6,1.6,1c0,0.399-0.5,0.8-1.6,1C428.3,558,427.1,558.1,425.6,558.1z"/>
		
			<radialGradient id="SVGID_22_" cx="423.0977" cy="203.918" r="8.8519" gradientTransform="matrix(0.6665 0 0 -0.1833 144.4396 619.0983)" gradientUnits="userSpaceOnUse">
			<stop  offset="0" style="stop-color:#FFFFFF"/>
			<stop  offset="0.0902" style="stop-color:#FFFFFF"/>
			<stop  offset="0.2627" style="stop-color:#FFFFFF;stop-opacity:0.5765"/>
			<stop  offset="0.4392" style="stop-color:#FFFFFF;stop-opacity:0.451"/>
			<stop  offset="0.5725" style="stop-color:#FFFFFF;stop-opacity:0.298"/>
			<stop  offset="0.8314" style="stop-color:#FFFFFF;stop-opacity:0.0471"/>
			<stop  offset="1" style="stop-color:#FFFFFF;stop-opacity:0"/>
		</radialGradient>
		<path fill="url(#SVGID_22_)" d="M426.4,583.2c-1.5,0-2.7-0.101-3.801-0.4c-1-0.3-1.6-0.6-1.6-1c0-0.399,0.5-0.7,1.6-1
			c1-0.3,2.301-0.399,3.801-0.399s2.8,0.1,3.8,0.399s1.6,0.601,1.6,1c0,0.4-0.5,0.8-1.6,1C429.2,583,427.9,583.2,426.4,583.2z"/>
		
			<radialGradient id="SVGID_23_" cx="395.3311" cy="98.6553" r="8.8541" gradientTransform="matrix(0.4707 0 0 -0.1295 239.4481 561.1078)" gradientUnits="userSpaceOnUse">
			<stop  offset="0" style="stop-color:#FFFFFF"/>
			<stop  offset="0.0902" style="stop-color:#FFFFFF"/>
			<stop  offset="0.2627" style="stop-color:#FFFFFF;stop-opacity:0.5765"/>
			<stop  offset="0.4392" style="stop-color:#FFFFFF;stop-opacity:0.451"/>
			<stop  offset="0.5725" style="stop-color:#FFFFFF;stop-opacity:0.298"/>
			<stop  offset="0.8314" style="stop-color:#FFFFFF;stop-opacity:0.0471"/>
			<stop  offset="1" style="stop-color:#FFFFFF;stop-opacity:0"/>
		</radialGradient>
		<path fill="url(#SVGID_23_)" d="M425.5,549.4c-1,0-1.9-0.101-2.7-0.301c-0.7-0.199-1.1-0.399-1.1-0.699c0-0.301,0.399-0.5,1.1-0.7
			s1.601-0.3,2.7-0.3s1.9,0.1,2.7,0.3s1.1,0.399,1.1,0.7c0,0.3-0.399,0.5-1.1,0.699C427.5,549.3,426.6,549.4,425.5,549.4z"/>
	</g>
</g>
<g>
	<g>
		<path fill="#3D5470" d="M276.1,633.7l5,12.899l4.8-12.899h4.2l-7.1,17.5h-4.2l-7.1-17.5H276.1z M438.9,641.9
			c-0.9,0.8-2.2,1.399-3.9,1.6c0.9,0.4,1.6,0.9,2.2,1.4c0.5,0.5,1.3,1.5,2.2,2.899l2.399,3.4H437l-2.9-3.8
			c-1-1.4-1.699-2.301-2.1-2.601s-0.8-0.6-1.2-0.7c-0.399-0.1-1-0.199-2-0.199H428v7.3h-4v-17.5h8.4c2.1,0,3.6,0.2,4.6,0.5
			s1.7,0.899,2.4,1.7c0.6,0.8,0.8,1.699,0.8,2.699C440.2,639.9,439.8,641,438.9,641.9z M409.4,640.6h9.899v2.9H409.4v4.8h11v2.9h-15
			v-17.5H420v2.899h-10.7v4H409.4z M402.6,636.6H396.7V651.2h-4V636.6h-5.9V633.7h15.7v2.899H402.6z M428,636.6v4.4h2.9
			c1.899,0,3.1-0.1,3.6-0.2c0.5-0.1,0.9-0.399,1.2-0.7c0.3-0.399,0.399-0.899,0.399-1.399c0-0.601-0.199-1-0.5-1.4
			c-0.399-0.399-0.899-0.6-1.5-0.7c-0.3,0-1.3-0.1-2.899-0.1H428V636.6z M352.3,633.7l3.5,12l3.601-12h6v17.5h-3.7v-13.8l-3.9,13.8
			H353.9l-3.9-13.8v13.8h-3.7v-17.5H352.3z M337.7,636.6V651.2h-4V636.6h-5.9V633.7h15.7v2.899H337.7z M373.6,636.6v3.9h9.9v2.9
			h-9.9v4.8h11v2.899h-15v-17.5H384.2v2.9H373.6V636.6z M297.3,638c-1,1-1.6,2.5-1.6,4.5s0.5,3.5,1.6,4.5c1,1,2.4,1.5,4,1.5
			c1.6,0,2.9-0.5,3.9-1.5s1.5-2.5,1.5-4.6c0-2-0.5-3.5-1.5-4.5s-2.3-1.5-3.9-1.5C299.6,636.4,298.3,636.9,297.3,638z M301.2,633.4
			c2.9,0,5.2,0.8,7,2.399c1.7,1.601,2.6,3.8,2.6,6.7s-0.899,5.1-2.6,6.7c-1.7,1.6-4.1,2.399-6.9,2.399c-3,0-5.3-0.8-7.1-2.399
			c-1.7-1.601-2.6-3.7-2.6-6.5c0-1.8,0.3-3.3,0.9-4.5c0.5-0.9,1.1-1.7,1.9-2.4c0.7-0.7,1.6-1.2,2.5-1.6
			C298.2,633.6,299.6,633.4,301.2,633.4z M318.3,633.8v14.4h9.9v2.899h-14V633.7h4.1V633.8z"/>
	</g>
	<g>
		<path d="M276.5,632.2l5,12.899l4.8-12.899h4.2l-7.1,17.5h-4.2l-7.1-17.5H276.5z M439.3,640.4c-0.899,0.8-2.2,1.399-3.899,1.6
			c0.899,0.4,1.6,0.9,2.199,1.4c0.5,0.5,1.301,1.5,2.2,2.899l2.4,3.4h-4.8l-2.9-3.8c-1-1.4-1.7-2.301-2.1-2.601
			c-0.4-0.3-0.801-0.6-1.2-0.7c-0.4-0.1-1-0.199-2-0.199h-0.8v7.3h-4v-17.5h8.399c2.101,0,3.601,0.2,4.601,0.5
			s1.699,0.899,2.399,1.7c0.601,0.8,0.8,1.699,0.8,2.699C440.6,638.4,440.2,639.5,439.3,640.4z M409.7,639.1h9.899v2.9H409.7v4.8h11
			v2.9h-15v-17.5h14.6v2.899h-10.7v4H409.7z M403,635.1h-5.9V649.7h-4V635.1H387.2V632.2H403V635.1z M431.3,639.6
			c1.9,0,3.101-0.1,3.601-0.199c0.5-0.101,0.899-0.4,1.199-0.7c0.301-0.4,0.4-0.8,0.4-1.4c0-0.6-0.2-1-0.5-1.399
			c-0.4-0.4-0.9-0.601-1.5-0.7c-0.3,0-1.3-0.101-2.9-0.101h-3.1v4.4h2.8V639.6z M352.7,632.2l3.5,12l3.6-12h6v17.5h-3.7v-13.8
			l-3.899,13.8h-3.9l-3.899-13.8v13.8h-3.7v-17.5H352.7z M338.1,635.1V649.7h-4V635.1H328.2V632.2h15.7v2.899H338.1z M374,635.1v3.9
			h9.9v2.9H374v4.8h11v2.899h-15v-17.5h14.6v2.9H374V635.1z M297.7,636.5c-1,1-1.6,2.5-1.6,4.5s0.5,3.5,1.6,4.5c1,1,2.4,1.5,4,1.5
			c1.6,0,2.9-0.5,3.9-1.5c1-1,1.5-2.5,1.5-4.6c0-2-0.5-3.5-1.5-4.5c-1-1-2.3-1.5-3.9-1.5C300,634.9,298.7,635.4,297.7,636.5z
			 M301.6,631.9c2.9,0,5.2,0.8,7,2.399c1.7,1.601,2.601,3.8,2.601,6.7c0,2.8-0.9,5.1-2.601,6.7c-1.699,1.6-4.1,2.399-6.899,2.399
			c-3,0-5.3-0.8-7.1-2.399c-1.7-1.601-2.6-3.7-2.6-6.5c0-1.8,0.3-3.3,0.9-4.5c0.5-0.9,1.1-1.7,1.9-2.4c0.7-0.7,1.6-1.2,2.5-1.6
			C298.6,632.1,300,631.9,301.6,631.9z M318.7,632.3v14.4h9.899v2.899h-14V632.2h4.101V632.3z"/>
	</g>
</g>
<g>
	<g>
		
			<linearGradient id="SVGID_24_" gradientUnits="userSpaceOnUse" x1="346.2266" y1="295.1938" x2="345.1857" y2="163.1337" gradientTransform="matrix(1.3069 0 0 -1.3069 149.4003 894.0607)">
			<stop  offset="0" style="stop-color:#000000"/>
			<stop  offset="0.6941" style="stop-color:#540209;stop-opacity:0.5765"/>
			<stop  offset="1" style="stop-color:#C80716;stop-opacity:0"/>
		</linearGradient>
		<path fill="url(#SVGID_24_)" d="M567.5,644.4l7.8,0.899c-32.6-5.399-62.2-3.899-85.6,4.7v-4.4c20.2-11,48.3-13.699,81.5-8.1
			c58.1,9.3,104.8,33.2,140.2,71.7H702.8C668.1,674.3,623.1,652.7,567.5,644.4z"/>
	</g>
	<g>
		<path fill="#C80010" d="M643.1,110L643.1,110c-3.899-13.1-9.3-21.9-16-26.3c-3.199-2-7.5-2.8-13-2.5
			c-5.3,0.3-10.399,1.5-15.199,3.7c-0.801,0.3-1.7,0.4-2.5,0.1c-0.801-0.3-1.4-0.9-1.801-1.7c-0.3-0.9-0.399-1.7-0.1-2.5
			c0.4-0.9,1-1.5,1.7-1.8c6-2.7,12.2-4.2,18.5-4.4c6.5-0.2,11.7,1,15.7,3.6c8.1,4.9,14.3,14.8,18.8,29.8v0.1
			c0.1,0.3,0.2,0.5,0.3,0.9c58.1,178.1,48.9,321.1-27.5,429c-28.8,42-59.3,60.2-91.4,54.7c-0.1,0-0.199,0-0.3-0.101
			c-28.1-7.199-48.5-20.6-61.3-40.3v0.101c-13.7-21-24-31.601-30.8-31.7c-5.4,0.7-8.601,10.3-9.5,28.8c0,0.5,0,1.1-0.101,1.7
			c0,0.1,0,0.3,0,0.399c-2.1,0.9-4.3,0.9-6.5,0c0-0.199,0-0.3,0-0.399c0-0.601,0-1.101,0-1.7c1.301-23.6,6.5-35.3,15.801-35.2
			c8.6-0.899,20.8,10.601,36.5,34.4c11.899,18.3,31,30.8,57.199,37.5c0,0,0.101,0,0.101,0.1c0,0,0,0,0.1,0
			c29.7,4.4,57.9-12.899,84.8-52v-0.1c75.101-106.5,84-247.6,26.7-423.3C643.3,110.6,643.2,110.3,643.1,110z"/>
	</g>
	<g>
		
			<radialGradient id="SVGID_25_" cx="184.4229" cy="402.3984" r="67.5111" gradientTransform="matrix(-1.2443 0.3994 -0.3994 -1.2443 1057.9734 650.9265)" gradientUnits="userSpaceOnUse">
			<stop  offset="0" style="stop-color:#FFFFFF"/>
			<stop  offset="1" style="stop-color:#FFFFFF;stop-opacity:0"/>
		</radialGradient>
		<path fill="url(#SVGID_25_)" d="M653.7,136.9c0.1,0.1,0.2,0.2,0.3,0.4c17.4,53.9,26.9,111.5,28.7,172.8c0,0.2,0,0.4-0.101,0.5
			c-0.1,0.2-0.3,0.3-0.399,0.3c-0.2,0-0.4-0.1-0.5-0.2c-0.101-0.2-0.2-0.3-0.2-0.5c-1.8-61.2-11.3-118.6-28.7-172.4
			c-0.1-0.2-0.1-0.3,0.101-0.5c0.1-0.2,0.199-0.3,0.3-0.3C653.3,136.8,653.5,136.8,653.7,136.9z"/>
		
			<radialGradient id="SVGID_26_" cx="177.4194" cy="292.7881" r="12.251" gradientTransform="matrix(-1.2442 0.3998 -0.4469 -1.3908 983.1729 417.6438)" gradientUnits="userSpaceOnUse">
			<stop  offset="0" style="stop-color:#FFFFFF"/>
			<stop  offset="1" style="stop-color:#FFFFFF;stop-opacity:0"/>
		</radialGradient>
		<path fill="url(#SVGID_26_)" d="M643.2,97.8c-0.2,0-0.3,0-0.5,0s-0.3-0.2-0.3-0.3C636,80.6,624.8,74,608.7,77.6
			c-0.2,0.1-0.3,0.1-0.5,0c-0.101-0.2-0.2-0.3-0.3-0.5c0-0.2,0-0.3,0.1-0.5c0.1-0.1,0.3-0.2,0.4-0.3c16.8-3.9,28.5,2.9,35.199,20.6
			c0,0.2,0,0.3-0.1,0.5C643.4,97.6,643.3,97.7,643.2,97.8z"/>
		
			<radialGradient id="SVGID_27_" cx="242.5166" cy="545.0703" r="83.2761" gradientTransform="matrix(-1.2444 0.3994 -0.3994 -1.2444 1171.8628 1005.7174)" gradientUnits="userSpaceOnUse">
			<stop  offset="0" style="stop-color:#FFFFFF"/>
			<stop  offset="1" style="stop-color:#FFFFFF;stop-opacity:0"/>
		</radialGradient>
		<path fill="url(#SVGID_27_)" d="M685.2,320.6c0.1,0.2,0.2,0.3,0.2,0.5C681,415.5,659.3,484.5,620.6,528
			c-0.199,0.1-0.3,0.2-0.5,0.2c-0.1,0-0.199,0-0.5-0.101c-0.1-0.1-0.199-0.3-0.199-0.399c0-0.2,0.1-0.4,0.199-0.5
			C658.2,483.7,679.6,415,684,321c0-0.2,0.1-0.3,0.3-0.5c0.101-0.1,0.3-0.1,0.5-0.1C684.9,320.4,685,320.5,685.2,320.6z"/>
		
			<radialGradient id="SVGID_28_" cx="346.9766" cy="632.0322" r="31.9" gradientTransform="matrix(-1.2443 0.3996 -0.3996 -1.2443 1241.5125 1222.1208)" gradientUnits="userSpaceOnUse">
			<stop  offset="0" style="stop-color:#FFFFFF"/>
			<stop  offset="1" style="stop-color:#FFFFFF;stop-opacity:0"/>
		</radialGradient>
		<path fill="url(#SVGID_28_)" d="M517,585.4c0-0.101,0.1-0.2,0.3-0.301c0.2-0.1,0.4-0.199,0.601-0.1
			c26.5,9.3,52.699,1.9,78.399-22.3c0.101-0.101,0.3-0.2,0.5-0.2s0.3,0,0.5,0.2c0.101,0.1,0.101,0.3,0.101,0.5
			c0,0.1,0,0.3-0.101,0.399c-26.3,24.7-52.899,32.2-79.8,22.7c-0.2,0-0.3-0.2-0.4-0.3C517,585.7,517,585.5,517,585.4z"/>
		
			<radialGradient id="SVGID_29_" cx="412.8418" cy="572.1592" r="16.8327" gradientTransform="matrix(-1.2442 0.3999 -0.3999 -1.2442 1193.8311 1072.942)" gradientUnits="userSpaceOnUse">
			<stop  offset="0" style="stop-color:#FFFFFF"/>
			<stop  offset="1" style="stop-color:#FFFFFF;stop-opacity:0"/>
		</radialGradient>
		<path fill="url(#SVGID_29_)" d="M429.9,523.9c-0.2,0-0.301,0-0.5-0.101c-0.101-0.1-0.2-0.3-0.301-0.5c0-0.2,0-0.3,0.101-0.399
			c3.8-7,9-9,15.399-5.9c6.2,2.9,13.601,10.6,22.2,23.3c0.2,0.101,0.2,0.3,0.2,0.5s-0.2,0.3-0.3,0.5
			c-0.101,0.101-0.2,0.101-0.5,0.101c-0.2,0-0.3-0.101-0.5-0.2c-8.4-12.3-15.601-19.9-21.601-22.8c-5.8-2.7-10.3-1-13.699,5.199
			C430.3,523.7,430.1,523.8,429.9,523.9z"/>
		
			<radialGradient id="SVGID_30_" cx="437.1455" cy="578.9482" r="4.5425" gradientTransform="matrix(-1.2444 0.3992 -0.3992 -1.2444 1198.8354 1090.2498)" gradientUnits="userSpaceOnUse">
			<stop  offset="0" style="stop-color:#FFFFFF"/>
			<stop  offset="1" style="stop-color:#FFFFFF;stop-opacity:0"/>
		</radialGradient>
		<path fill="url(#SVGID_30_)" d="M424.8,538.8c0.101,0,0.2,0.2,0.101,0.4l-1,10.5c0,0.2-0.101,0.399-0.301,0.5
			c-0.1,0.1-0.3,0.1-0.5,0.1c-0.199,0-0.3-0.1-0.5-0.2c-0.1-0.1-0.1-0.3-0.1-0.5l1-10.5c0-0.199,0-0.3,0.1-0.399
			c0.101-0.101,0.301-0.2,0.5-0.2C424.5,538.5,424.7,538.6,424.8,538.8z"/>
	</g>
</g>
<g>
	<g>
		
			<linearGradient id="SVGID_31_" gradientUnits="userSpaceOnUse" x1="513.5732" y1="146.7998" x2="611.1002" y2="146.7998" gradientTransform="matrix(-0.0519 1.3059 1.3059 0.0519 -55.6538 -123.0125)">
			<stop  offset="0" style="stop-color:#000000;stop-opacity:0.4431"/>
			<stop  offset="1" style="stop-color:#000000;stop-opacity:0"/>
		</linearGradient>
		<path fill="url(#SVGID_31_)" d="M218.7,686l-6.5,0.1c-0.2-16.199-6.4-26.3-18.7-30.3c-13.7-4.2-34.4-1.6-62.1,7.9
			c-20.6,7.5-50.2,2.7-88.5-14.4l-0.3-0.1C20,641.3,2.8,645.9-9,663.1V652.4C4.2,638.1,22.2,635,45.1,643.2c0,0,0.1,0.1,0.2,0.1
			c36.4,16.3,64.4,21,83.9,14.2h0.1c29.5-10.2,51.6-12.8,66.2-8C210.8,654.2,218.6,666.4,218.7,686z"/>
	</g>
	<g>
		<path d="M136.3,78.1c0.1,0.8-0.1,1.6-0.6,2.4c-0.5,0.7-1.2,1.2-2.1,1.4c-0.9,0.1-1.7-0.1-2.4-0.5c-16.9-11.8-29.5-15.1-37.8-10
			C85.2,77.2,81,91.9,81,115.2c-0.1,50.3-3.7,86.3-10.9,107.9c-7.1,21.4-20,61.6-38.9,120.6C13,400.5,18.4,435.9,47.3,450.1
			c49.1,14.601,76.5,41.7,82.3,81.301c8.5,52.1,20.2,82.699,35.2,91.5c14.2,7.5,32.1-5.601,53.6-39.301c8.7-13.6,16.7-25.1,24-34.3
			c12.1-15.3,22.3-24.5,30.7-27.6c8.1-3.101,14.6-1.5,19.7,4.8c4,4.8,7,12.9,8.9,24.2c-1.9,1-4.1,1.2-6.4,0.7
			c-1.8-9.801-4.3-16.7-7.5-20.7c-3.2-3.8-7.3-4.8-12.3-2.8c-8.7,3.5-19.7,14.199-33.1,32.1c-5.8,7.7-11.9,16.7-18.6,27.1
			c-24.2,37.9-45,51.801-62.3,41.5c-16.6-9-29.4-41.1-38.4-96.199V532.3c-5.8-36.899-31.8-62.3-78-76.1c-0.2,0-0.3-0.101-0.5-0.2
			C12,441.1,5.3,403,24.9,341.8c18.9-59,32-99.3,39-120.7c6.9-21.3,10.4-56.5,10.5-105.8c0-26.6,5.1-43,15.4-49.3
			c10.1-7.2,25.1-3.9,45.1,9.9C135.6,76.5,136.1,77.2,136.3,78.1z"/>
	</g>
	<g>
		
			<radialGradient id="SVGID_32_" cx="-62.1929" cy="534.4121" r="41.3014" gradientTransform="matrix(1.3069 0 0 -1.3069 149.4003 894.0607)" gradientUnits="userSpaceOnUse">
			<stop  offset="0" style="stop-color:#FFFFFF;stop-opacity:0.4824"/>
			<stop  offset="1" style="stop-color:#FFFFFF;stop-opacity:0"/>
		</radialGradient>
		<path fill="url(#SVGID_32_)" d="M57.7,248.5c-0.2,0-0.3-0.2-0.3-0.4c-0.1-0.1-0.1-0.3,0-0.5c12.7-34.2,18.7-68.7,18.2-103.8
			c0-0.2,0-0.4,0.2-0.5c0.1-0.2,0.2-0.2,0.3-0.2c0.2,0,0.4,0,0.5,0.2c0.2,0.1,0.3,0.2,0.3,0.5c0.6,35.2-5.5,70-18.3,104.3
			c-0.1,0.2-0.2,0.3-0.3,0.3C58.1,248.6,57.9,248.6,57.7,248.5z"/>
		
			<radialGradient id="SVGID_33_" cx="-88.4922" cy="436.1328" r="29.5058" gradientTransform="matrix(1.3069 0 0 -1.3069 149.4003 894.0607)" gradientUnits="userSpaceOnUse">
			<stop  offset="0" style="stop-color:#FFFFFF;stop-opacity:0.7059"/>
			<stop  offset="1" style="stop-color:#FFFFFF;stop-opacity:0"/>
		</radialGradient>
		<path fill="url(#SVGID_33_)" d="M44.6,287.3c0.1-0.1,0.3-0.2,0.4-0.1c0.2,0,0.3,0.2,0.5,0.4c0.1,0.1,0.1,0.3,0.1,0.4l-22.3,72.5
			c0,0.2-0.2,0.3-0.3,0.5c-0.1,0-0.3,0-0.5,0c-0.2-0.1-0.3-0.2-0.4-0.3c-0.1-0.2-0.1-0.3-0.1-0.5l22.2-72.5
			C44.3,287.5,44.4,287.4,44.6,287.3z"/>
		
			<radialGradient id="SVGID_34_" cx="-45.2427" cy="622.7119" r="19.4723" gradientTransform="matrix(1.3069 0 0 -1.3069 149.4003 894.0607)" gradientUnits="userSpaceOnUse">
			<stop  offset="0" style="stop-color:#FFFFFF"/>
			<stop  offset="1" style="stop-color:#FFFFFF;stop-opacity:0"/>
		</radialGradient>
		<path fill="url(#SVGID_34_)" d="M106.2,63.8c0.1,0.1,0.1,0.3,0.1,0.5c0,0.2-0.1,0.4-0.2,0.5c-0.2,0.1-0.3,0.2-0.5,0.2
			C90.2,64.3,81.3,74.4,79,95.4c0,0.1-0.1,0.3-0.2,0.4c-0.2,0.1-0.4,0.2-0.5,0.2c-0.2,0-0.3-0.1-0.5-0.3c-0.1-0.2-0.2-0.4-0.1-0.5
			c2.4-21.8,11.7-32.4,27.8-31.6C105.8,63.5,106,63.6,106.2,63.8z"/>
		
			<radialGradient id="SVGID_35_" cx="92.6392" cy="275.5112" r="16.1054" gradientTransform="matrix(1.3069 0 0 -1.3069 149.4003 894.0607)" gradientUnits="userSpaceOnUse">
			<stop  offset="0" style="stop-color:#FFFFFF"/>
			<stop  offset="1" style="stop-color:#FFFFFF;stop-opacity:0"/>
		</radialGradient>
		<path fill="url(#SVGID_35_)" d="M289.9,526.9c-0.1,0-0.3,0.1-0.4,0.1c-0.2,0-0.4,0-0.5-0.1c-8.9-7.601-21.2-2.601-36.9,15
			c-0.1,0.1-0.3,0.1-0.5,0.1c-0.2,0-0.3,0-0.5-0.1c-0.1-0.2-0.2-0.301-0.2-0.5c0-0.2,0.1-0.301,0.2-0.4
			c16.4-18.4,29.4-23.4,38.8-15.2c0,0.101,0.1,0.2,0.1,0.5C290.1,526.5,290,526.7,289.9,526.9z"/>
		
			<radialGradient id="SVGID_36_" cx="182.522" cy="213.1563" r="3.2979" gradientTransform="matrix(1.2151 0.4811 0.3968 -1.2498 -7.7076 725.1268)" gradientUnits="userSpaceOnUse">
			<stop  offset="0" style="stop-color:#FFFFFF"/>
			<stop  offset="1" style="stop-color:#FFFFFF;stop-opacity:0"/>
		</radialGradient>
		<path fill="url(#SVGID_36_)" d="M298.2,542.4c0.1,0,0.2,0.199,0.3,0.399l1.7,7.3c0,0.2,0,0.4-0.1,0.5c0,0.101-0.2,0.2-0.4,0.301
			c-0.2,0-0.4,0-0.5-0.101c-0.1-0.1-0.2-0.2-0.2-0.5l-1.7-7.3c0-0.2,0-0.3,0.1-0.4c0-0.199,0.2-0.3,0.3-0.3
			C297.9,542.1,298.1,542.2,298.2,542.4z"/>
		
			<radialGradient id="SVGID_37_" cx="-43.1177" cy="311.0771" r="32.818" gradientTransform="matrix(1.3069 0 0 -1.3069 149.4003 894.0607)" gradientUnits="userSpaceOnUse">
			<stop  offset="0" style="stop-color:#FFFFFF"/>
			<stop  offset="1" style="stop-color:#FFFFFF;stop-opacity:0"/>
		</radialGradient>
		<path fill="url(#SVGID_37_)" d="M124.3,516.9c-0.2,0-0.3,0-0.5-0.101c-0.2-0.1-0.3-0.2-0.3-0.3c-10.8-28.1-31.3-47.2-61.6-57.2
			c-0.2,0-0.3-0.1-0.4-0.3s-0.1-0.4-0.1-0.6c0.1-0.2,0.2-0.301,0.3-0.301c0.1-0.199,0.3-0.199,0.5-0.1
			c30.6,10.1,51.5,29.4,62.5,57.9c0,0.1,0,0.3-0.1,0.5C124.5,516.7,124.4,516.8,124.3,516.9z"/>
	</g>
</g>
<g>
	<g>
		<g>
			
				<linearGradient id="SVGID_38_" gradientUnits="userSpaceOnUse" x1="285.1821" y1="322.4883" x2="347.1324" y2="322.4883" gradientTransform="matrix(1.3069 0 0 -1.3069 149.4003 894.0607)">
				<stop  offset="0" style="stop-color:#000000"/>
				<stop  offset="1" style="stop-color:#090909;stop-opacity:0"/>
			</linearGradient>
			<polygon fill="url(#SVGID_38_)" points="606.9,474.2 477,474.2 479.6,471 606.9,471 			"/>
		</g>
		<g>
			<polygon fill="#F4F4F4" points="588,439.3 589.9,473.8 477.2,473.8 479.2,439.3 580.6,439.3 			"/>
		</g>
	</g>
</g>
<g>
	<g>
		<g>
			
				<linearGradient id="SVGID_39_" gradientUnits="userSpaceOnUse" x1="15.1323" y1="323.0244" x2="77.0823" y2="323.0244" gradientTransform="matrix(1.3069 0 0 -1.3069 149.4003 894.0607)">
				<stop  offset="0" style="stop-color:#000000"/>
				<stop  offset="1" style="stop-color:#090909;stop-opacity:0"/>
			</linearGradient>
			<polygon fill="url(#SVGID_39_)" points="126.7,470.3 254,470.3 254,473.5 124.1,473.5 			"/>
		</g>
		<g>
			<polygon fill="#F4F4F4" points="235.1,438.7 237,473.2 124.3,473.2 126.3,438.7 227.7,438.7 			"/>
		</g>
	</g>
</g>
</svg>
