<?xml version="1.0" encoding="utf-8"?>
<!-- Generator: Adobe Illustrator 16.0.0, SVG Export Plug-In . SVG Version: 6.00 Build 0)  -->
<!DOCTYPE svg PUBLIC "-//W3C//DTD SVG 1.1//EN" "http://www.w3.org/Graphics/SVG/1.1/DTD/svg11.dtd">
<svg version="1.1" id="Layer_2" xmlns="http://www.w3.org/2000/svg" xmlns:xlink="http://www.w3.org/1999/xlink" x="0px" y="0px"
	 width="53px" height="325px" viewBox="0 0 53 325" enable-background="new 0 0 53 325" xml:space="preserve">
<g>
	<path fill-rule="evenodd" clip-rule="evenodd" fill="#373737" d="M17.9,102.85c-2.53-0.2-3.8-0.38-3.8-0.55
		c0-0.17,1.27-0.33,3.8-0.5c2.53-0.13,5.6-0.2,9.2-0.2c3.57,0,6.63,0.07,9.2,0.2c2.53,0.17,3.8,0.33,3.8,0.5
		c0,0.17-1.27,0.35-3.8,0.55c-2.57,0.1-5.63,0.15-9.2,0.15C23.5,103,20.43,102.95,17.9,102.85z"/>
	<g>
		<linearGradient id="SVGID_1_" gradientUnits="userSpaceOnUse" x1="14.1001" y1="202.9248" x2="40.0996" y2="202.9248">
			<stop  offset="0" style="stop-color:#565C59"/>
			<stop  offset="0.0471" style="stop-color:#A4A9A7"/>
			<stop  offset="0.1333" style="stop-color:#FFFFFF"/>
			<stop  offset="0.298" style="stop-color:#425357"/>
			<stop  offset="0.4706" style="stop-color:#91A3AA"/>
			<stop  offset="0.5882" style="stop-color:#FFFFFF"/>
			<stop  offset="0.7137" style="stop-color:#A2B2B7"/>
			<stop  offset="0.8471" style="stop-color:#A4B5B9"/>
			<stop  offset="0.9333" style="stop-color:#899897"/>
			<stop  offset="1" style="stop-color:#515955"/>
		</linearGradient>
		<path fill-rule="evenodd" clip-rule="evenodd" fill="url(#SVGID_1_)" d="M17.9,102.7c2.53,0.13,5.6,0.2,9.2,0.2
			c3.57,0,6.63-0.07,9.2-0.2c2.53-0.13,3.8-0.27,3.8-0.4v199.35c0,0.5-1.28,0.95-3.85,1.35c-2.47,0.37-5.52,0.55-9.15,0.55
			c-3.57,0-6.63-0.18-9.2-0.55c-2.53-0.4-3.8-0.85-3.8-1.35V102.3C14.1,102.43,15.37,102.57,17.9,102.7z"/>
	</g>
	<g>
		
			<radialGradient id="SVGID_2_" cx="24.7993" cy="143.8501" r="28.0375" gradientTransform="matrix(1 0 0 0.4561 0 78.2422)" gradientUnits="userSpaceOnUse">
			<stop  offset="0" style="stop-color:#000000;stop-opacity:0"/>
			<stop  offset="0.5059" style="stop-color:#020202"/>
			<stop  offset="0.5804" style="stop-color:#020202"/>
			<stop  offset="0.651" style="stop-color:#020202;stop-opacity:0.7255"/>
			<stop  offset="1" style="stop-color:#020202;stop-opacity:0"/>
		</radialGradient>
		<path fill-rule="evenodd" clip-rule="evenodd" fill="url(#SVGID_2_)" d="M17.9,102.85c2.53,0.1,5.6,0.15,9.2,0.15
			c3.57,0,6.63-0.05,9.2-0.15c2.53-0.2,3.8-0.38,3.8-0.55v128.4h-26V102.3C14.1,102.47,15.37,102.65,17.9,102.85z"/>
	</g>
	<g>
		<linearGradient id="SVGID_3_" gradientUnits="userSpaceOnUse" x1="11.5" y1="86.3501" x2="41.7998" y2="86.3501">
			<stop  offset="0" style="stop-color:#383838"/>
			<stop  offset="1" style="stop-color:#000000"/>
		</linearGradient>
		<path fill-rule="evenodd" clip-rule="evenodd" fill="url(#SVGID_3_)" d="M33,21.85V57.7c-0.1,2.17,0.43,4.02,1.6,5.55
			c0.63,0.87,1.53,1.72,2.7,2.55c2.97,2.07,4.47,5.23,4.5,9.5v74.2v0.1l-0.05,0.15c0.13,0.3-1.33,0.53-4.4,0.7l-2.75,0.2
			c-1.87,0.13-4.35,0.2-7.45,0.2c-0.1,0-0.22,0-0.35,0c-0.07,0-0.12,0-0.15,0s-0.08,0-0.15,0c-0.13,0-0.25,0-0.35,0
			c-3.1,0-5.58-0.07-7.45-0.2l-2.75-0.2c-3.07-0.17-4.53-0.4-4.4-0.7l-0.05-0.15v-0.1V75.3c0.03-4.27,1.53-7.43,4.5-9.5
			c1.17-0.83,2.07-1.68,2.7-2.55c1.17-1.53,1.7-3.38,1.6-5.55V21.85c0,0.23,0.62,0.42,1.85,0.55c1.27,0.13,2.77,0.2,4.5,0.2
			c1.73,0,3.22-0.07,4.45-0.2C32.36,22.27,33,22.08,33,21.85z"/>
		<path fill-rule="evenodd" clip-rule="evenodd" fill="#404040" d="M20.3,21.85c0-0.2,0.62-0.37,1.85-0.5
			c1.27-0.13,2.77-0.2,4.5-0.2c1.73,0,3.22,0.07,4.45,0.2c1.27,0.13,1.9,0.3,1.9,0.5c0,0.23-0.64,0.42-1.9,0.55
			c-1.23,0.13-2.72,0.2-4.45,0.2c-1.73,0-3.23-0.07-4.5-0.2C20.92,22.27,20.3,22.08,20.3,21.85z"/>
	</g>
	<g>
		
			<radialGradient id="SVGID_4_" cx="24.7002" cy="43.1001" r="2.1625" gradientTransform="matrix(1 0 0 6.2081 0 -224.4694)" gradientUnits="userSpaceOnUse">
			<stop  offset="0" style="stop-color:#FBFBFB;stop-opacity:0.2627"/>
			<stop  offset="1" style="stop-color:#FFFFFF;stop-opacity:0"/>
		</radialGradient>
		<path fill-rule="evenodd" clip-rule="evenodd" fill="url(#SVGID_4_)" d="M25.15,56.35c-0.97,0-1.82-1.28-2.55-3.85
			c-0.7-2.57-1.05-5.65-1.05-9.25c0-3.67,0.35-6.78,1.05-9.35c0.73-2.57,1.58-3.85,2.55-3.85c1.03,0,1.88,1.28,2.55,3.85
			c0.73,2.57,1.1,5.68,1.1,9.35c0,3.6-0.37,6.68-1.1,9.25C27.03,55.07,26.18,56.35,25.15,56.35z"/>
		
			<radialGradient id="SVGID_5_" cx="24.0498" cy="106.25" r="5.6375" gradientTransform="matrix(1 0 0 7.3725 0 -677.0787)" gradientUnits="userSpaceOnUse">
			<stop  offset="0" style="stop-color:#FBFBFB;stop-opacity:0.2627"/>
			<stop  offset="1" style="stop-color:#FFFFFF;stop-opacity:0"/>
		</radialGradient>
		<path fill-rule="evenodd" clip-rule="evenodd" fill="url(#SVGID_5_)" d="M32.15,77.75c1.87,7.97,2.8,17.57,2.8,28.8
			c0,11.23-0.93,20.83-2.8,28.8c-1.83,8-4.08,12-6.75,12s-4.93-4-6.8-12c-1.77-7.97-2.65-17.57-2.65-28.8
			c0-11.23,0.88-20.83,2.65-28.8c1.87-7.93,4.13-11.9,6.8-11.9S30.32,69.82,32.15,77.75z"/>
	</g>
	<g>
		
			<radialGradient id="SVGID_6_" cx="15.8501" cy="69.7002" r="5.0205" fx="15.9485" fy="69.7002" gradientTransform="matrix(0.7071 0.7071 -1.0731 1.0731 79.4383 -16.3035)" gradientUnits="userSpaceOnUse">
			<stop  offset="0" style="stop-color:#FFFFFF;stop-opacity:0.1216"/>
			<stop  offset="1" style="stop-color:#FEFEFE;stop-opacity:0"/>
		</radialGradient>
		<path fill-rule="evenodd" clip-rule="evenodd" fill="url(#SVGID_6_)" d="M22.65,63.7c0.67,1.73,1,3.78,1,6.15
			c-0.03,2.3-1.68,4.02-4.95,5.15c-3.27,1.13-4.95,1.87-5.05,2.2c-0.13,0.37-0.32,1-0.55,1.9c-0.23,0.93-0.35,0.5-0.35-1.3
			c0-1.8,0.18-3.88,0.55-6.25c0.4-2.4,1.58-4.22,3.55-5.45c1.97-1.2,3.53-2.43,4.7-3.7C21.58,61.5,21.95,61.93,22.65,63.7z"/>
	</g>
	<g>
		
			<radialGradient id="SVGID_7_" cx="32.2002" cy="150.3999" r="15.225" fx="34.0511" fy="150.3999" gradientTransform="matrix(1 0 0 0.5452 0 68.4085)" gradientUnits="userSpaceOnUse">
			<stop  offset="0" style="stop-color:#FFFFFF;stop-opacity:0.2627"/>
			<stop  offset="1" style="stop-color:#FEFEFE;stop-opacity:0"/>
		</radialGradient>
		<path fill-rule="evenodd" clip-rule="evenodd" fill="url(#SVGID_7_)" d="M11.6,149.55c1.4,0.27,2.92,0.47,4.55,0.6
			c2.9,0.2,6.4,0.3,10.5,0.3s7.57-0.1,10.4-0.3c1.9-0.13,3.47-0.42,4.7-0.85c0.03,0,0.1,0.02,0.2,0.05c0.03,0,0.05,0.02,0.05,0.05
			c0,0.07,0,0.13,0,0.2c-0.03,0.07-0.07,0.1-0.1,0.1c-1.23,0.43-2.85,0.72-4.85,0.85c-2.83,0.2-6.3,0.3-10.4,0.3s-7.6-0.1-10.5-0.3
			c-1.63-0.13-3.17-0.33-4.6-0.6c-0.1,0-0.15-0.02-0.15-0.05c-0.03-0.07-0.05-0.12-0.05-0.15c0-0.1,0.05-0.15,0.15-0.15
			C11.5,149.57,11.53,149.55,11.6,149.55z"/>
	</g>
	<g>
		
			<radialGradient id="SVGID_8_" cx="14.1001" cy="149.9502" r="2.575" fx="14.4131" fy="149.9502" gradientTransform="matrix(1 0 0 0.5437 0 68.4239)" gradientUnits="userSpaceOnUse">
			<stop  offset="0" style="stop-color:#FFFFFF;stop-opacity:0.2627"/>
			<stop  offset="1" style="stop-color:#FEFEFE;stop-opacity:0"/>
		</radialGradient>
		<path fill-rule="evenodd" clip-rule="evenodd" fill="url(#SVGID_8_)" d="M11.6,149.4c1.47,0.27,3,0.47,4.6,0.6
			c2.87,0.23,6.35,0.35,10.45,0.35s7.57-0.12,10.4-0.35c1.9-0.13,3.47-0.4,4.7-0.8c0.03-0.03,0.1-0.03,0.2,0
			c0.07,0,0.13,0.07,0.2,0.2c0,0.07,0,0.13,0,0.2c-0.07,0.1-0.13,0.17-0.2,0.2c-1.27,0.43-2.88,0.72-4.85,0.85
			c-2.87,0.23-6.35,0.35-10.45,0.35s-7.6-0.12-10.5-0.35c-1.67-0.13-3.22-0.33-4.65-0.6c-0.1,0-0.17-0.03-0.2-0.1
			c-0.03-0.1-0.05-0.18-0.05-0.25c0-0.1,0.03-0.17,0.1-0.2C11.45,149.43,11.53,149.4,11.6,149.4z"/>
	</g>
	<g>
		<path fill-rule="evenodd" clip-rule="evenodd" fill="#3C3C3C" d="M41.6,160.35c-0.47,0.17-1.88,0.33-4.25,0.5
			c-2.9,0.23-6.45,0.35-10.65,0.35c-4.17,0-7.72-0.12-10.65-0.35c-2.17-0.13-3.53-0.3-4.1-0.5v-0.4c0.4-0.13,1.13-0.25,2.2-0.35v0.2
			c7.8,0.67,16.38,0.67,25.75,0v-0.1c0.87,0.07,1.43,0.17,1.7,0.3V160.35z"/>
		<linearGradient id="SVGID_9_" gradientUnits="userSpaceOnUse" x1="11.9502" y1="183.875" x2="41.5996" y2="183.875">
			<stop  offset="0" style="stop-color:#050505"/>
			<stop  offset="0.0706" style="stop-color:#050505"/>
			<stop  offset="0.302" style="stop-color:#999999"/>
			<stop  offset="0.5647" style="stop-color:#050505"/>
			<stop  offset="0.7255" style="stop-color:#000000"/>
			<stop  offset="1" style="stop-color:#444444"/>
		</linearGradient>
		<path fill-rule="evenodd" clip-rule="evenodd" fill="url(#SVGID_9_)" d="M41.6,160.35v44.35c-0.13,1.1-0.78,1.8-1.95,2.1
			c-0.83,0.07-2.03,0.17-3.6,0.3c-2.03,0.2-5.15,0.3-9.35,0.3c-4.17,0-7.72-0.12-10.65-0.35c-0.6,0-1.13-0.05-1.6-0.15
			c-1.4-0.07-2.23-0.37-2.5-0.9v-45.65c0.57,0.2,1.93,0.37,4.1,0.5c2.93,0.23,6.48,0.35,10.65,0.35c4.2,0,7.75-0.12,10.65-0.35
			C39.72,160.68,41.13,160.52,41.6,160.35z"/>
	</g>
	<g>
		<path fill-rule="evenodd" clip-rule="evenodd" fill="#3C3C3C" d="M12.1,276.1v-0.35c0.37-0.13,1.1-0.25,2.2-0.35v0.2
			c7.8,0.67,16.38,0.67,25.75,0v-0.15c0.87,0.1,1.43,0.22,1.7,0.35v0.3c-0.47,0.2-1.88,0.38-4.25,0.55c-2.93,0.2-6.48,0.3-10.65,0.3
			c-4.2,0-7.75-0.1-10.65-0.3C14.03,276.52,12.67,276.33,12.1,276.1z"/>
		<linearGradient id="SVGID_10_" gradientUnits="userSpaceOnUse" x1="12.0625" y1="286.5742" x2="41.7124" y2="286.5742">
			<stop  offset="0" style="stop-color:#050505"/>
			<stop  offset="0.0706" style="stop-color:#050505"/>
			<stop  offset="0.302" style="stop-color:#999999"/>
			<stop  offset="0.5647" style="stop-color:#050505"/>
			<stop  offset="0.7255" style="stop-color:#000000"/>
			<stop  offset="1" style="stop-color:#444444"/>
		</linearGradient>
		<path fill-rule="evenodd" clip-rule="evenodd" fill="url(#SVGID_10_)" d="M41.75,276.1v18.25c-0.13,1.03-0.78,1.73-1.95,2.1
			l-3.6,0.3c-1.8,0.2-4.92,0.3-9.35,0.3c-3.83,0-7.38-0.12-10.65-0.35l-1.65-0.15c-1.4-0.03-2.22-0.33-2.45-0.9V276.1
			c0.57,0.23,1.93,0.42,4.1,0.55c2.9,0.2,6.45,0.3,10.65,0.3c4.17,0,7.72-0.1,10.65-0.3C39.87,276.48,41.28,276.3,41.75,276.1z"/>
	</g>
</g>
</svg>
