<?xml version="1.0" encoding="utf-8"?>
<!-- Generator: Adobe Illustrator 16.0.0, SVG Export Plug-In . SVG Version: 6.00 Build 0)  -->
<!DOCTYPE svg PUBLIC "-//W3C//DTD SVG 1.1//EN" "http://www.w3.org/Graphics/SVG/1.1/DTD/svg11.dtd">
<svg version="1.1" id="Layer_2" xmlns="http://www.w3.org/2000/svg" xmlns:xlink="http://www.w3.org/1999/xlink" x="0px" y="0px"
	 width="53px" height="325px" viewBox="0 0 53 325" enable-background="new 0 0 53 325" xml:space="preserve">
<g>
	<g>
		<linearGradient id="SVGID_1_" gradientUnits="userSpaceOnUse" x1="14.5498" y1="203.1563" x2="40.5498" y2="203.1563">
			<stop  offset="0" style="stop-color:#3E4241"/>
			<stop  offset="0.1725" style="stop-color:#9DA2A2"/>
			<stop  offset="0.3373" style="stop-color:#475A60"/>
			<stop  offset="0.4431" style="stop-color:#21282C"/>
			<stop  offset="0.6118" style="stop-color:#54676D"/>
			<stop  offset="0.7529" style="stop-color:#5C6767"/>
			<stop  offset="1" style="stop-color:#343A39"/>
		</linearGradient>
		<path fill-rule="evenodd" clip-rule="evenodd" fill="url(#SVGID_1_)" d="M18.3,102.73c2.53,0.13,5.62,0.2,9.25,0.2
			c3.57,0,6.63-0.07,9.2-0.2c2.53-0.13,3.8-0.27,3.8-0.4v199.8c0,0.47-1.28,0.9-3.85,1.3c-2.5,0.37-5.55,0.55-9.15,0.55
			c-3.57,0-6.65-0.18-9.25-0.55c-2.5-0.4-3.75-0.83-3.75-1.3v-199.8C14.55,102.46,15.8,102.6,18.3,102.73z"/>
	</g>
	<g>
		
			<radialGradient id="SVGID_2_" cx="25.25" cy="143.9312" r="28.0375" gradientTransform="matrix(1 0 0 0.4561 0 78.2862)" gradientUnits="userSpaceOnUse">
			<stop  offset="0" style="stop-color:#000000;stop-opacity:0"/>
			<stop  offset="0.5059" style="stop-color:#020202"/>
			<stop  offset="0.5804" style="stop-color:#020202"/>
			<stop  offset="0.651" style="stop-color:#020202;stop-opacity:0.7255"/>
			<stop  offset="1" style="stop-color:#020202;stop-opacity:0"/>
		</radialGradient>
		<path fill-rule="evenodd" clip-rule="evenodd" fill="url(#SVGID_2_)" d="M18.3,102.88c2.53,0.13,5.62,0.2,9.25,0.2
			c3.57,0,6.63-0.07,9.2-0.2c2.53-0.17,3.8-0.35,3.8-0.55v128.4h-26v-128.4C14.55,102.53,15.8,102.71,18.3,102.88z"/>
	</g>
	<g>
		<path fill-rule="evenodd" clip-rule="evenodd" fill="#94A3A8" d="M36.05,184.03v1.25h-1.6l1.6,1.8v1.35h-1.4l1.4,0.7v1.35
			l-1.35,1.25l0.4,0.6h0.95v1.25l-0.85,0.5l0.75,0.8c0.37,0,0.63,0.02,0.8,0.05c0.13,0.1,0.23,0.28,0.3,0.55
			c0.1,0.2,0.15,0.48,0.15,0.85c0,0.13,0,0.27,0,0.4c0,0.17-0.02,0.33-0.05,0.5l-0.65-0.25c0-0.03,0-0.1,0-0.2c0-0.03,0-0.08,0-0.15
			c0-0.13-0.03-0.23-0.1-0.3c0-0.1-0.02-0.15-0.05-0.15c-0.07-0.03-0.22-0.05-0.45-0.05l-0.6,1.3h0.75v1.25h-1.6
			c-0.3,0-0.5,0.02-0.6,0.05c-0.07,0.03-0.12,0.12-0.15,0.25c-0.07,0.13-0.1,0.28-0.1,0.45c0,0.23,0.03,0.43,0.1,0.6
			c0.07,0.17,0.17,0.28,0.3,0.35s0.32,0.1,0.55,0.1h1.5v1.35l-0.35,0.35c0.37,0.57,0.63,0.9,0.8,1c0.17,0.1,0.32,0.23,0.45,0.4
			c0.07,0.17,0.13,0.4,0.2,0.7c0.03,0.27,0.05,0.62,0.05,1.05c0,0.83-0.08,1.42-0.25,1.75c-0.17,0.37-0.38,0.55-0.65,0.55h-0.05
			l0.1-1.5c0.1,0,0.17-0.05,0.2-0.15c0.03-0.13,0.05-0.33,0.05-0.6c0-0.33-0.02-0.58-0.05-0.75c-0.03-0.1-0.1-0.17-0.2-0.2
			c-0.07-0.07-0.2-0.1-0.4-0.1h-0.4c0.33,0.37,0.5,0.85,0.5,1.45c0,0.67-0.18,1.5-0.55,2.5c-0.27-0.37-0.58-0.55-0.95-0.55
			c-0.5,0-0.88-0.18-1.15-0.55c-0.27-0.4-0.4-0.88-0.4-1.45c0-0.6,0.17-1.1,0.5-1.5h-0.4l-0.85-1.2h2.65l-2.9-1.2v-1.35h1.5
			c-0.33-0.37-0.5-0.83-0.5-1.4c0-0.33,0.03-0.6,0.1-0.8c0.07-0.27,0.15-0.47,0.25-0.6c0.13-0.07,0.27-0.13,0.4-0.2
			c0.03,0,0.12-0.45,0.25-1.35h-0.9v-1.25l0.65-0.35L32,193.58v-1.25h2.15l-1.05-1.5v-1.55l1.05,1.6l0.5-2.45H32v-1.35h1.5
			c-0.33-0.37-0.5-0.83-0.5-1.4c0-0.3,0.03-0.57,0.1-0.8c0.07-0.27,0.15-0.47,0.25-0.6c0.13-0.07,0.27-0.13,0.4-0.2
			c0.07-0.03,0.27-0.05,0.6-0.05H36.05z M33.85,185.33c-0.07,0.03-0.12,0.12-0.15,0.25c-0.07,0.13-0.1,0.3-0.1,0.5
			s0.03,0.38,0.1,0.55c0.07,0.2,0.17,0.32,0.3,0.35c0.13,0.07,0.28-0.5,0.45-1.7C34.15,185.28,33.95,185.3,33.85,185.33z
			 M32.7,194.88v1.25H32v-1.25H32.7z M35,197.43l-1-1.3c0.03,0.87,0.15,1.3,0.35,1.3H35z M33.6,205.38c0,0.33,0.07,0.6,0.2,0.8
			c0.17,0.17,0.38,0.25,0.65,0.25c-0.27-1.4-0.48-2-0.65-1.8C33.67,204.83,33.6,205.08,33.6,205.38z M35.2,204.63
			c-0.2-0.2-0.38,0.4-0.55,1.8c0.23-0.03,0.42-0.12,0.55-0.25c0.13-0.2,0.2-0.47,0.2-0.8C35.4,205.08,35.33,204.83,35.2,204.63z
			 M36.05,215.28c-0.4,0.13-0.85,0.45-1.35,0.95c-0.33-0.57-0.67-0.88-1-0.95v1.6h2.35v1.25H33.7v1.5h2.25c0.37,0,0.63,0.03,0.8,0.1
			c0.13,0.07,0.23,0.23,0.3,0.5c0.1,0.23,0.15,0.52,0.15,0.85c0,0.13,0,0.27,0,0.4c0,0.17-0.02,0.33-0.05,0.5l-0.65-0.25
			c0-0.03,0-0.1,0-0.2c0-0.03,0-0.07,0-0.1c0-0.13-0.03-0.25-0.1-0.35c0-0.1-0.02-0.15-0.05-0.15c-0.07-0.03-0.22-0.05-0.45-0.05H32
			v-1.25h0.7l0.4,0.8v-0.8h0.3l-0.3-0.75v-0.75h-0.25c-0.23,0-0.42-0.03-0.55-0.1s-0.23-0.23-0.3-0.5c-0.07-0.2-0.1-0.48-0.1-0.85
			c0-0.37,0.03-0.73,0.1-1.1l0.5,0.2c0,0.23,0,0.43,0,0.6c0,0.17,0.02,0.3,0.05,0.4c0.07,0.07,0.18,0.1,0.35,0.1h0.2v-0.95l0.3-0.65
			H32v-1.25h2.15l-1.05-1.5v-1.6l1.05,1.65l1.9-1.75v1.35l-1.35,1.25l0.4,0.6h0.95V215.28z M36.05,223.38h-0.5
			c0.2,0.17,0.33,0.4,0.4,0.7c0.1,0.27,0.15,0.57,0.15,0.9s-0.05,0.62-0.15,0.85c-0.07,0.27-0.2,0.47-0.4,0.6
			c-0.1,0.1-0.32,0.15-0.65,0.15H34c-0.17,0.87-0.25,1.38-0.25,1.55c0,0.17,0.02,0.32,0.05,0.45c0.03,0.13,0.15,0.23,0.35,0.3
			c0.17,0.07,0.48-0.22,0.95-0.85l0.95,0.95v1.3l-0.75,0.85c0.27,0.13,0.52,0.25,0.75,0.35v1.25h-1.6c-0.3,0-0.5,0.02-0.6,0.05
			c-0.07,0.03-0.12,0.12-0.15,0.25c-0.07,0.13-0.1,0.28-0.1,0.45c0,0.23,0.03,0.43,0.1,0.6c0.07,0.17,0.17,0.28,0.3,0.35
			s0.32,0.1,0.55,0.1h1.5v1.3H32l-0.6-0.75l0.6-0.55h1.5c-0.33-0.37-0.5-0.83-0.5-1.4c0-0.33,0.03-0.6,0.1-0.8
			c0.07-0.27,0.15-0.47,0.25-0.6c0.13-0.1,0.27-0.17,0.4-0.2c0.03-0.03,0.13-0.13,0.3-0.3l-0.95-0.95v-1.25h0.4
			c-0.2-0.17-0.33-0.33-0.4-0.5s-0.1-0.33-0.1-0.5c0-0.33,0.05-0.62,0.15-0.85l0.85-0.6h-0.9v-1.25l1.05-1.5l0.3,1.5
			c0.4,0,0.65-0.02,0.75-0.05c0.07-0.1,0.15-0.2,0.25-0.3c0.03-0.1,0.05-0.27,0.05-0.5s-0.03-0.43-0.1-0.6
			c-0.07-0.17-0.17-0.27-0.3-0.3c-0.07-0.07-0.32-0.1-0.75-0.1H33.1c-0.93-0.43-0.93-0.87,0-1.3h2.95V223.38z M36.75,239.83
			c0.13,0.1,0.23,0.28,0.3,0.55c0.1,0.2,0.15,0.48,0.15,0.85c0,0.1,0,0.22,0,0.35c0,0.2-0.02,0.38-0.05,0.55l-0.65-0.25
			c0-0.07,0-0.13,0-0.2s0-0.12,0-0.15c0-0.13-0.03-0.23-0.1-0.3c0-0.1-0.02-0.15-0.05-0.15c-0.07-0.03-0.22-0.05-0.45-0.05h-2.8
			v-0.3l-0.4,0.3H32v-1.25l1.1,0.2v-0.2h2.85C36.32,239.78,36.58,239.8,36.75,239.83z M33.35,242.58c0.13-0.1,0.27-0.17,0.4-0.2
			c0.03-0.03,0.13-0.37,0.3-1c0.07,0.63,0.17,0.95,0.3,0.95h1.7v1.25h-1.6c-0.3,0-0.5,0.02-0.6,0.05c-0.07,0.03-0.12,0.12-0.15,0.25
			c-0.07,0.13-0.1,0.28-0.1,0.45c0,0.23,0.03,0.43,0.1,0.6c0.07,0.17,0.17,0.28,0.3,0.35s0.32,0.1,0.55,0.1h1.5v1.3l-1.15,1.3h1.15
			v1.25h-1.6c-0.3,0-0.5,0.03-0.6,0.1c-0.07,0.03-0.12,0.12-0.15,0.25c-0.07,0.13-0.1,0.28-0.1,0.45c0,0.23,0.03,0.43,0.1,0.6
			c0.07,0.17,0.17,0.27,0.3,0.3c0.13,0.1,0.32,0.15,0.55,0.15l0.25-0.7l1.25,0.7v1.3H32v-1.3h1.5c-0.33-0.4-0.5-0.88-0.5-1.45
			c0-0.3,0.03-0.57,0.1-0.8s0.15-0.42,0.25-0.55c0.13-0.1,0.27-0.17,0.4-0.2c0.03,0,0.1,0,0.2,0l-1.95-1.4v-1.3h1.5
			c-0.2-0.2-0.52-0.43-0.95-0.7c0.3-0.23,0.45-0.48,0.45-0.75c0-0.3,0.03-0.55,0.1-0.75C33.17,242.91,33.25,242.71,33.35,242.58z
			 M33.7,253.03v1l0.75-1.1l1.6,1.1v1.25l-1.5,1l-0.85-1v0.7l-0.3,1.05c0.1-0.1,0.22-0.17,0.35-0.2c0.07-0.03,0.27-0.05,0.6-0.05
			h1.7v1.2h-1.6c-0.3,0-0.5,0.03-0.6,0.1c-0.07,0.03-0.12,0.12-0.15,0.25c-0.07,0.13-0.1,0.28-0.1,0.45c0,0.23,0.03,0.43,0.1,0.6
			c0.07,0.17,0.17,0.27,0.3,0.3c0.13,0.1,0.32,0.15,0.55,0.15h1.5v1.3h-2.2l-0.15,1.65h2.35v1.25l-0.6,1.15l-1.75-1.15v0.7
			l-0.15,0.35l0.25,0.1c-0.03,0.23-0.05,0.43-0.05,0.6s0.02,0.32,0.05,0.45c0.03,0.13,0.15,0.22,0.35,0.25
			c0.17,0.1,0.48,0.15,0.95,0.15h0.95v1.3L35,268.98c0.03,0,0.07,0,0.1,0c0.27,0,0.52,0.17,0.75,0.5c0.17,0.4,0.25,0.95,0.25,1.65
			c0,0.67-0.08,1.18-0.25,1.55c-0.1,0.23-0.2,0.77-0.3,1.6c0-0.03,0.03-0.05,0.1-0.05c0.13-0.07,0.27-0.13,0.4-0.2v1.2
			c-0.07,0.07-0.17,0.12-0.3,0.15H35.7c0.13,0.23,0.25,0.47,0.35,0.7c0.03,0.27,0.05,0.53,0.05,0.8c0,0.53-0.08,0.93-0.25,1.2
			c-0.2,0.3-0.4,0.45-0.6,0.45c-0.17,0-0.32-0.07-0.45-0.2l-0.95,0.05c-0.3-0.13-0.52-0.35-0.65-0.65c-0.13-0.33-0.2-0.82-0.2-1.45
			c0-0.57,0.05-1,0.15-1.3c0.1-0.27,0.22-0.47,0.35-0.6c0.07-0.07,0.22-0.1,0.45-0.1c0.03,0,0.1,0,0.2,0h0.4c-0.2-0.67-0.4-1-0.6-1
			c-0.27,0-0.48-0.17-0.65-0.5c-0.2-0.3-0.3-0.8-0.3-1.5c0-0.67,0.07-1.17,0.2-1.5c0.1-0.27,0.22-0.8,0.35-1.6l-0.45-0.25v-1.25h0.4
			c-0.2-0.17-0.33-0.33-0.4-0.5c-0.07-0.17-0.1-0.35-0.1-0.55c0-0.2,0.03-0.38,0.1-0.55v-1.05h-0.25c-0.23,0-0.42-0.05-0.55-0.15
			c-0.13-0.03-0.23-0.18-0.3-0.45c-0.07-0.23-0.1-0.52-0.1-0.85c0-0.4,0.03-0.77,0.1-1.1l0.5,0.2c0,0.2,0,0.38,0,0.55
			c0,0.2,0.02,0.33,0.05,0.4c0.07,0.1,0.18,0.15,0.35,0.15h0.2v-1l0.5-0.65H32v-1.3h1.5c-0.33-0.4-0.5-0.88-0.5-1.45
			c0-0.07,0-0.13,0-0.2l-0.05,0.2l0.15-3.1h-0.25c-0.23,0-0.42-0.05-0.55-0.15c-0.13-0.03-0.23-0.18-0.3-0.45
			c-0.07-0.23-0.1-0.52-0.1-0.85c0-0.4,0.03-0.77,0.1-1.1l0.5,0.2c0,0.2,0,0.38,0,0.55s0.02,0.3,0.05,0.4
			c0.07,0.1,0.18,0.15,0.35,0.15h0.2v-1H33.7z M34.9,269.03l-1.15-0.7l0.2,2c-0.13,0.07-0.22,0.17-0.25,0.3
			c-0.1,0.13-0.15,0.35-0.15,0.65s0.05,0.53,0.15,0.7c0.03,0.1,0.07,0.15,0.1,0.15c0.03,0,0.08-0.05,0.15-0.15
			c0.07-0.13,0.15-0.52,0.25-1.15c0.1-0.7,0.22-1.18,0.35-1.45C34.62,269.21,34.73,269.1,34.9,269.03z M35.45,270.43
			c-0.1-0.13-0.18-0.2-0.25-0.2c-0.07,0-0.12,0.03-0.15,0.1c-0.03,0.07-0.05,0.2-0.05,0.4c-0.2,0.97-0.32,2.15-0.35,3.55h0.4
			c0.17,0,0.3,0,0.4,0c-0.1-0.57-0.18-0.83-0.25-0.8l-0.15-1.3c0.17-0.03,0.3-0.15,0.4-0.35c0.03-0.17,0.05-0.4,0.05-0.7
			C35.5,270.83,35.48,270.6,35.45,270.43z M34.8,275.53c0.43,0.3,0.63,0.4,0.6,0.3c-0.07-0.13-0.13-0.22-0.2-0.25
			C35.1,275.55,34.97,275.53,34.8,275.53z M34.6,275.53c0.03,0.17,0.07,0.42,0.1,0.75c0.07,0.37,0.12,0.62,0.15,0.75
			c0.1,0.13,0.18,0.2,0.25,0.2c0.13,0,0.25-0.07,0.35-0.2c0.07-0.13,0.1-0.28,0.1-0.45c0-0.13-0.28-0.48-0.85-1.05H34.6z M34,275.53
			c-0.13,0-0.23,0.07-0.3,0.2c-0.07,0.13-0.1,0.35-0.1,0.65c0,0.27,0.03,0.43,0.1,0.5c0.03,0.13,0.13,0.25,0.3,0.35l0.4,0.25
			c-0.03-0.23-0.08-0.47-0.15-0.7c-0.03-0.63-0.07-1.05-0.1-1.25H34z"/>
	</g>
	<g>
		<linearGradient id="SVGID_3_" gradientUnits="userSpaceOnUse" x1="11.9375" y1="86.4063" x2="42.2876" y2="86.4063">
			<stop  offset="0" style="stop-color:#383838"/>
			<stop  offset="1" style="stop-color:#000000"/>
		</linearGradient>
		<path fill-rule="evenodd" clip-rule="evenodd" fill="url(#SVGID_3_)" d="M20.75,21.93c0,0.2,0.6,0.37,1.8,0.5
			c1.27,0.13,2.78,0.2,4.55,0.2c1.73,0,3.2-0.07,4.4-0.2c1.26-0.13,1.89-0.3,1.9-0.5v35.8c-0.07,2.17,0.48,4.02,1.65,5.55
			c0.6,0.87,1.5,1.72,2.7,2.55c2.93,2.1,4.43,5.28,4.5,9.55v74.15v0.15l-0.1,0.1c0.13,0.3-1.32,0.55-4.35,0.75l-2.75,0.2
			c-1.87,0.1-4.35,0.15-7.45,0.15c-0.13,0-0.27,0-0.4,0c-0.03,0-0.07,0-0.1,0c-0.07,0-0.12,0-0.15,0c-0.13,0-0.27,0-0.4,0
			c-3.1,0-5.58-0.05-7.45-0.15l-2.75-0.2c-3.03-0.2-4.48-0.45-4.35-0.75l-0.1-0.1v-0.15V75.38c0.07-4.27,1.58-7.45,4.55-9.55
			c1.17-0.83,2.05-1.68,2.65-2.55c1.17-1.53,1.72-3.38,1.65-5.55V21.93z"/>
		<path fill-rule="evenodd" clip-rule="evenodd" fill="#404040" d="M33.4,21.93c-0.01,0.2-0.64,0.37-1.9,0.5
			c-1.2,0.13-2.67,0.2-4.4,0.2c-1.77,0-3.28-0.07-4.55-0.2c-1.2-0.13-1.79-0.3-1.8-0.5c0-0.23,0.6-0.42,1.8-0.55
			c1.27-0.13,2.78-0.2,4.55-0.2c1.73,0,3.2,0.07,4.4,0.2C32.77,21.51,33.4,21.7,33.4,21.93z"/>
	</g>
	<g>
		
			<radialGradient id="SVGID_4_" cx="25.1001" cy="43.1313" r="2.1625" gradientTransform="matrix(1 0 0 6.2081 0 -224.632)" gradientUnits="userSpaceOnUse">
			<stop  offset="0" style="stop-color:#FBFBFB;stop-opacity:0.2627"/>
			<stop  offset="1" style="stop-color:#FFFFFF;stop-opacity:0"/>
		</radialGradient>
		<path fill-rule="evenodd" clip-rule="evenodd" fill="url(#SVGID_4_)" d="M25.55,56.43c-0.93,0-1.77-1.28-2.5-3.85
			c-0.7-2.6-1.05-5.7-1.05-9.3c0-3.67,0.35-6.78,1.05-9.35c0.73-2.57,1.57-3.85,2.5-3.85c1.07,0,1.92,1.28,2.55,3.85
			c0.77,2.57,1.15,5.68,1.15,9.35c0,3.6-0.38,6.7-1.15,9.3C27.47,55.15,26.62,56.43,25.55,56.43z"/>
		
			<radialGradient id="SVGID_5_" cx="24.4502" cy="106.2813" r="5.6375" gradientTransform="matrix(1 0 0 7.3725 0 -677.278)" gradientUnits="userSpaceOnUse">
			<stop  offset="0" style="stop-color:#FBFBFB;stop-opacity:0.2627"/>
			<stop  offset="1" style="stop-color:#FFFFFF;stop-opacity:0"/>
		</radialGradient>
		<path fill-rule="evenodd" clip-rule="evenodd" fill="url(#SVGID_5_)" d="M19.05,77.78c1.87-7.93,4.13-11.9,6.8-11.9
			c2.63,0,4.87,3.97,6.7,11.9c1.9,7.97,2.85,17.57,2.85,28.8c0,11.27-0.95,20.88-2.85,28.85c-1.83,7.97-4.07,11.95-6.7,11.95
			c-2.67,0-4.93-3.98-6.8-11.95c-1.8-7.97-2.7-17.58-2.7-28.85C16.35,95.35,17.25,85.75,19.05,77.78z"/>
	</g>
	<g>
		
			<radialGradient id="SVGID_6_" cx="16.2998" cy="69.7314" r="5.0205" fx="16.3982" fy="69.7314" gradientTransform="matrix(0.7071 0.7071 -1.0731 1.0731 79.6035 -16.6237)" gradientUnits="userSpaceOnUse">
			<stop  offset="0" style="stop-color:#FFFFFF;stop-opacity:0.1216"/>
			<stop  offset="1" style="stop-color:#FEFEFE;stop-opacity:0"/>
		</radialGradient>
		<path fill-rule="evenodd" clip-rule="evenodd" fill="url(#SVGID_6_)" d="M23.1,63.73c0.63,1.73,0.95,3.78,0.95,6.15
			c-0.03,2.3-1.68,4.02-4.95,5.15s-4.95,1.88-5.05,2.25c-0.1,0.33-0.27,0.95-0.5,1.85c-0.27,0.93-0.4,0.5-0.4-1.3
			c0-1.77,0.2-3.85,0.6-6.25c0.4-2.4,1.58-4.22,3.55-5.45c1.93-1.2,3.5-2.43,4.7-3.7C22.03,61.56,22.4,62,23.1,63.73z"/>
	</g>
	<g>
		
			<radialGradient id="SVGID_7_" cx="32.6504" cy="150.4312" r="15.2242" fx="34.5012" fy="150.4312" gradientTransform="matrix(1 0 0 0.5452 0 68.4227)" gradientUnits="userSpaceOnUse">
			<stop  offset="0" style="stop-color:#FFFFFF;stop-opacity:0.2627"/>
			<stop  offset="1" style="stop-color:#FEFEFE;stop-opacity:0"/>
		</radialGradient>
		<path fill-rule="evenodd" clip-rule="evenodd" fill="url(#SVGID_7_)" d="M42.45,149.68c-0.07,0.03-0.12,0.05-0.15,0.05
			c-1.23,0.43-2.85,0.72-4.85,0.85c-2.83,0.2-6.28,0.3-10.35,0.3c-4.1,0-7.62-0.1-10.55-0.3c-1.6-0.13-3.12-0.33-4.55-0.6
			c-0.1,0-0.15-0.02-0.15-0.05c-0.03-0.03-0.05-0.08-0.05-0.15s0.03-0.1,0.1-0.1c0-0.07,0.05-0.1,0.15-0.1
			c1.4,0.27,2.9,0.47,4.5,0.6c2.93,0.23,6.45,0.35,10.55,0.35c4.07,0,7.52-0.12,10.35-0.35c1.93-0.13,3.5-0.42,4.7-0.85
			c0.07,0,0.13,0.02,0.2,0.05c0.07,0,0.1,0.03,0.1,0.1C42.45,149.51,42.45,149.58,42.45,149.68z"/>
	</g>
	<g>
		
			<radialGradient id="SVGID_8_" cx="14.5498" cy="149.9814" r="2.575" fx="14.8628" fy="149.9814" gradientTransform="matrix(1 0 0 0.5437 0 68.4381)" gradientUnits="userSpaceOnUse">
			<stop  offset="0" style="stop-color:#FFFFFF;stop-opacity:0.2627"/>
			<stop  offset="1" style="stop-color:#FEFEFE;stop-opacity:0"/>
		</radialGradient>
		<path fill-rule="evenodd" clip-rule="evenodd" fill="url(#SVGID_8_)" d="M42.45,149.68c-0.07,0.03-0.12,0.05-0.15,0.05
			c-1.23,0.43-2.85,0.72-4.85,0.85c-2.83,0.2-6.28,0.3-10.35,0.3c-4.1,0-7.62-0.1-10.55-0.3c-1.6-0.13-3.12-0.33-4.55-0.6
			c-0.1,0-0.15-0.02-0.15-0.05c-0.03-0.03-0.05-0.08-0.05-0.15s0.03-0.1,0.1-0.1c0-0.07,0.05-0.1,0.15-0.1
			c1.4,0.27,2.9,0.47,4.5,0.6c2.93,0.23,6.45,0.35,10.55,0.35c4.07,0,7.52-0.12,10.35-0.35c1.93-0.13,3.5-0.42,4.7-0.85
			c0.07,0,0.13,0.02,0.2,0.05c0.07,0,0.1,0.03,0.1,0.1C42.45,149.51,42.45,149.58,42.45,149.68z"/>
	</g>
	<g>
		
			<radialGradient id="SVGID_9_" cx="27.5498" cy="301.1807" r="13.775" gradientTransform="matrix(1 0 0 0.1779 0 247.6131)" gradientUnits="userSpaceOnUse">
			<stop  offset="0" style="stop-color:#FBFBFB;stop-opacity:0.2824"/>
			<stop  offset="1" style="stop-color:#FFFFFF;stop-opacity:0"/>
		</radialGradient>
		<path fill-rule="evenodd" clip-rule="evenodd" fill="url(#SVGID_9_)" d="M18.45,300.23c2.3,0.3,4.73,0.47,7.3,0.5
			c2.63,0,4.95-0.07,6.95-0.2s3.72-0.3,5.15-0.5c1.3-0.23,2.17-0.48,2.6-0.75l-0.05,0.8c-0.2,0.23-0.97,0.47-2.3,0.7
			c-1.3,0.27-3.33,0.45-6.1,0.55c-2.8,0.1-5.2,0.12-7.2,0.05c-2-0.03-4.12-0.18-6.35-0.45c-2.3-0.3-3.6-0.67-3.9-1.1v-0.15
			c0-0.03,0-0.07,0-0.1c0-0.07,0-0.12,0-0.15s0.08,0.02,0.25,0.15C14.97,299.65,16.18,299.87,18.45,300.23z"/>
	</g>
</g>
</svg>
