<?xml version="1.0" encoding="utf-8"?>
<!-- Generator: Adobe Illustrator 16.0.0, SVG Export Plug-In . SVG Version: 6.00 Build 0)  -->
<!DOCTYPE svg PUBLIC "-//W3C//DTD SVG 1.1//EN" "http://www.w3.org/Graphics/SVG/1.1/DTD/svg11.dtd">
<svg version="1.1" id="Layer_2" xmlns="http://www.w3.org/2000/svg" xmlns:xlink="http://www.w3.org/1999/xlink" x="0px" y="0px"
	 width="53px" height="325px" viewBox="0 0 53 325" enable-background="new 0 0 53 325" xml:space="preserve">
<g>
	<g>
		<linearGradient id="SVGID_1_" gradientUnits="userSpaceOnUse" x1="11.2002" y1="172.9004" x2="40.7998" y2="172.9004">
			<stop  offset="0" style="stop-color:#050505"/>
			<stop  offset="0.0706" style="stop-color:#050505"/>
			<stop  offset="0.302" style="stop-color:#999999"/>
			<stop  offset="0.5647" style="stop-color:#050505"/>
			<stop  offset="0.7255" style="stop-color:#000000"/>
			<stop  offset="1" style="stop-color:#444444"/>
		</linearGradient>
		<path fill-rule="evenodd" clip-rule="evenodd" fill="url(#SVGID_1_)" d="M15.5,48.55c2.93,0.1,6.43,0.15,10.5,0.15
			s7.57-0.05,10.5-0.15c2.87-0.1,4.3-0.23,4.3-0.4v247.7c0,0.5-1.45,0.92-4.35,1.25c-3.03,0.37-6.52,0.55-10.45,0.55
			s-7.43-0.18-10.5-0.55c-2.87-0.37-4.3-0.78-4.3-1.25V48.15C11.2,48.32,12.63,48.45,15.5,48.55z"/>
	</g>
	<g>
		
			<radialGradient id="SVGID_2_" cx="23.4502" cy="91.4502" r="31.9125" gradientTransform="matrix(1 0 0 0.3079 0 63.2951)" gradientUnits="userSpaceOnUse">
			<stop  offset="0" style="stop-color:#000000;stop-opacity:0"/>
			<stop  offset="0.5059" style="stop-color:#020202"/>
			<stop  offset="0.5804" style="stop-color:#020202"/>
			<stop  offset="0.651" style="stop-color:#020202;stop-opacity:0.7255"/>
			<stop  offset="1" style="stop-color:#020202;stop-opacity:0"/>
		</radialGradient>
		<path fill-rule="evenodd" clip-rule="evenodd" fill="url(#SVGID_2_)" d="M15.5,59.95c2.93,0.1,6.43,0.15,10.5,0.15
			s7.57-0.05,10.5-0.15c2.87-0.13,4.3-0.27,4.3-0.4v98.6H11.2v-98.6C11.2,59.68,12.63,59.82,15.5,59.95z"/>
	</g>
	<g>
		<linearGradient id="SVGID_3_" gradientUnits="userSpaceOnUse" x1="11.2002" y1="208.2754" x2="40.7998" y2="208.2754">
			<stop  offset="0" style="stop-color:#E1D5A5"/>
			<stop  offset="0.5176" style="stop-color:#ECDFBC"/>
			<stop  offset="1" style="stop-color:#A3A274"/>
		</linearGradient>
		<path fill-rule="evenodd" clip-rule="evenodd" fill="url(#SVGID_3_)" d="M40.8,209.75c0,0.57-1.45,1.05-4.35,1.45
			c-2.9,0.37-6.38,0.55-10.45,0.55s-7.57-0.18-10.5-0.55c-2.87-0.4-4.3-0.88-4.3-1.45v-4.95c0.33,0.5,0.82,0.8,1.45,0.9
			c0.1,0.03,0.17,0.05,0.2,0.05l2.65,0.5c2.7,0.37,6.2,0.55,10.5,0.55c1.43,0,2.78-0.02,4.05-0.05c5.9-0.27,9.48-0.73,10.75-1.4
			V209.75z"/>
	</g>
	<g>
		<linearGradient id="SVGID_4_" gradientUnits="userSpaceOnUse" x1="7.3496" y1="65.75" x2="44.3496" y2="65.75">
			<stop  offset="0" style="stop-color:#050505"/>
			<stop  offset="0.0706" style="stop-color:#050505"/>
			<stop  offset="0.302" style="stop-color:#999999"/>
			<stop  offset="0.5647" style="stop-color:#050505"/>
			<stop  offset="0.7255" style="stop-color:#000000"/>
			<stop  offset="1" style="stop-color:#444444"/>
		</linearGradient>
		<path fill-rule="evenodd" clip-rule="evenodd" fill="url(#SVGID_4_)" d="M7.35,36.45c0.7,0.23,2.4,0.43,5.1,0.6
			c3.67,0.27,8.12,0.4,13.35,0.4c5.2,0,9.63-0.13,13.3-0.4c2.9-0.2,4.65-0.42,5.25-0.65v55.4c-0.17,1.33-0.97,2.18-2.4,2.55
			c-1.03,0.13-2.53,0.28-4.5,0.45C34.88,95,31,95.1,25.8,95.1c-5.23,0-9.68-0.13-13.35-0.4c-0.77-0.03-1.45-0.08-2.05-0.15
			c-1.73-0.1-2.75-0.48-3.05-1.15V36.45z"/>
		<path fill-rule="evenodd" clip-rule="evenodd" fill="#3C3C3C" d="M44.35,36.4c-0.6,0.23-2.35,0.45-5.25,0.65
			c-3.67,0.27-8.1,0.4-13.3,0.4c-5.23,0-9.68-0.13-13.35-0.4c-2.7-0.17-4.4-0.37-5.1-0.6v-0.5c0.7-0.27,2.4-0.5,5.1-0.7
			c3.67-0.23,8.12-0.35,13.35-0.35c5.2,0,9.63,0.12,13.3,0.35c2.9,0.2,4.65,0.45,5.25,0.75V36.4z"/>
	</g>
	<g>
		<path fill-rule="evenodd" clip-rule="evenodd" fill="#3C3C3C" d="M33.55,14.6c-0.3,0.1-1.1,0.2-2.4,0.3c-1.67,0.13-3.67,0.2-6,0.2
			c-2.33,0-4.33-0.07-6-0.2c-1.23-0.1-2.02-0.2-2.35-0.3c0.03-0.27,0.87-0.45,2.5-0.55c1.57-0.1,3.52-0.15,5.85-0.15
			c2.33,0,4.33,0.05,6,0.15c1.3,0.1,2.1,0.22,2.4,0.35V14.6z"/>
		<linearGradient id="SVGID_5_" gradientUnits="userSpaceOnUse" x1="16.8623" y1="25.7813" x2="33.5373" y2="25.7813">
			<stop  offset="0" style="stop-color:#050505"/>
			<stop  offset="0.0706" style="stop-color:#050505"/>
			<stop  offset="0.302" style="stop-color:#999999"/>
			<stop  offset="0.5647" style="stop-color:#050505"/>
			<stop  offset="0.7255" style="stop-color:#000000"/>
			<stop  offset="1" style="stop-color:#444444"/>
		</linearGradient>
		<path fill-rule="evenodd" clip-rule="evenodd" fill="url(#SVGID_5_)" d="M16.8,14.6c0.33,0.1,1.12,0.2,2.35,0.3
			c1.67,0.13,3.67,0.2,6,0.2c2.33,0,4.33-0.07,6-0.2c1.3-0.1,2.1-0.2,2.4-0.3v21.5c-0.27,0.2-1.05,0.38-2.35,0.55
			c-1.33,0.17-3.05,0.27-5.15,0.3c-2.13,0.03-4.05,0-5.75-0.1c-1.73-0.13-2.9-0.4-3.5-0.8V14.6z"/>
	</g>
	<g>
		
			<radialGradient id="SVGID_6_" cx="25.1621" cy="14.6499" r="8.1886" gradientTransform="matrix(1 0 0 0.9954 0 0.067)" gradientUnits="userSpaceOnUse">
			<stop  offset="0" style="stop-color:#FBFBFB;stop-opacity:0.3608"/>
			<stop  offset="1" style="stop-color:#FFFFFF;stop-opacity:0"/>
		</radialGradient>
		<path fill-rule="evenodd" clip-rule="evenodd" fill="url(#SVGID_6_)" d="M25.15,15.05c2.27-0.03,4.22-0.08,5.85-0.15
			c1.47-0.1,2.22-0.18,2.25-0.25c-0.03-0.03-0.03-0.07,0-0.1c0.03-0.03,0.07-0.03,0.1,0c0.03-0.03,0.08-0.03,0.15,0
			c0.03,0.03,0.05,0.07,0.05,0.1c0,0.2-0.85,0.37-2.55,0.5c-1.63,0.1-3.58,0.15-5.85,0.15s-4.22-0.05-5.85-0.15
			c-1.7-0.13-2.53-0.3-2.5-0.5c-0.03-0.03-0.03-0.07,0-0.1c0.03-0.03,0.07-0.03,0.1,0c0.03-0.03,0.07-0.03,0.1,0
			c0.03,0.03,0.05,0.07,0.05,0.1c0,0.07,0.75,0.15,2.25,0.25C20.93,14.97,22.88,15.02,25.15,15.05z"/>
		
			<radialGradient id="SVGID_7_" cx="25.4004" cy="37.5498" r="18.95" gradientTransform="matrix(1 0 0 0.1003 0 33.7849)" gradientUnits="userSpaceOnUse">
			<stop  offset="0" style="stop-color:#FBFBFB;stop-opacity:0.6706"/>
			<stop  offset="1" style="stop-color:#FFFFFF;stop-opacity:0"/>
		</radialGradient>
		<path fill-rule="evenodd" clip-rule="evenodd" fill="url(#SVGID_7_)" d="M7.35,36.65c0-0.03,0.02-0.07,0.05-0.1
			c0-0.03,0.03-0.03,0.1,0c0.87,0.13,2.83,0.33,5.9,0.6c3.07,0.2,6.45,0.32,10.15,0.35c3.67,0,6.05-0.02,7.15-0.05
			c1.07-0.07,2.1-0.12,3.1-0.15c0.93-0.03,2.17-0.08,3.7-0.15c3.2-0.3,5.02-0.52,5.45-0.65c0.03-0.03,0.07-0.03,0.1,0
			c0.03,0,0.07,0.02,0.1,0.05c0,0.03,0,0.07,0,0.1c-0.03,0.03-0.07,0.07-0.1,0.1c-0.43,0.17-2.28,0.38-5.55,0.65
			c-1.53,0.1-3.25,0.18-5.15,0.25c-0.33,0-0.65,0.02-0.95,0.05h-0.05c-1.83,0.03-3.83,0.05-6,0.05c-4.9,0-8.88-0.12-11.95-0.35
			c-3.07-0.23-5.05-0.43-5.95-0.6c-0.03-0.03-0.07-0.05-0.1-0.05C7.32,36.72,7.32,36.68,7.35,36.65z"/>
		
			<radialGradient id="SVGID_8_" cx="25.7007" cy="94.5" r="18.9495" gradientTransform="matrix(1 0 0 0.1003 0 85.0251)" gradientUnits="userSpaceOnUse">
			<stop  offset="0" style="stop-color:#FBFBFB;stop-opacity:0.6902"/>
			<stop  offset="0.4627" style="stop-color:#FCFCFC;stop-opacity:0.2353"/>
			<stop  offset="1" style="stop-color:#FFFFFF;stop-opacity:0"/>
		</radialGradient>
		<path fill-rule="evenodd" clip-rule="evenodd" fill="url(#SVGID_8_)" d="M7.8,93.5c0.87,0.13,2.83,0.33,5.9,0.6
			c3.07,0.2,7.05,0.32,11.95,0.35c2.17,0,4.17-0.02,6-0.05c0.33-0.07,0.67-0.08,1-0.05c1.9-0.1,3.62-0.18,5.15-0.25
			c3.23-0.27,5.07-0.43,5.5-0.5c0.03-0.03,0.07-0.03,0.1,0c0,0.03,0.02,0.07,0.05,0.1c0,0.03-0.02,0.07-0.05,0.1
			c-0.03,0-0.05,0.02-0.05,0.05c-0.47,0.03-2.32,0.2-5.55,0.5c-1.53,0.1-3.25,0.18-5.15,0.25c-0.33,0-0.65,0.02-0.95,0.05h-0.05
			c-1.83,0.03-3.83,0.05-6,0.05c-4.9,0-8.88-0.12-11.95-0.35s-5.05-0.43-5.95-0.6c-0.03-0.03-0.07-0.05-0.1-0.05
			c-0.03-0.03-0.03-0.07,0-0.1c0-0.03,0.02-0.07,0.05-0.1C7.7,93.47,7.73,93.47,7.8,93.5z"/>
	</g>
</g>
</svg>
