<?xml version="1.0" encoding="utf-8"?>
<!-- Generator: Adobe Illustrator 16.0.0, SVG Export Plug-In . SVG Version: 6.00 Build 0)  -->
<!DOCTYPE svg PUBLIC "-//W3C//DTD SVG 1.1//EN" "http://www.w3.org/Graphics/SVG/1.1/DTD/svg11.dtd">
<svg version="1.1" id="Layer_1" xmlns="http://www.w3.org/2000/svg" xmlns:xlink="http://www.w3.org/1999/xlink" x="0px" y="0px"
	 width="71.5px" height="58px" viewBox="0 0 71.5 58" enable-background="new 0 0 71.5 58" xml:space="preserve">
<g>
	<g>
		<path fill-rule="evenodd" clip-rule="evenodd" fill="#C80010" d="M69.25,5.45c-0.33,0.87-0.88,1.52-1.65,1.95
			C54.23,14.37,40.73,17.9,27.1,18H27c-11,0.03-16.92,4.43-17.75,13.2c-0.83,10.63-1.23,17.73-1.2,21.3c0,0.87-0.3,1.63-0.9,2.3
			c-0.67,0.63-1.43,0.95-2.3,0.95c-0.9,0-1.68-0.3-2.35-0.9c-0.63-0.67-0.95-1.43-0.95-2.3c-0.07-3.7,0.32-11,1.15-21.9
			c0.8-12.77,8.9-19.17,24.3-19.2c12.7-0.13,25.23-3.42,37.6-9.85c0.77-0.43,1.58-0.5,2.45-0.2c0.9,0.27,1.57,0.78,2,1.55
			C69.42,3.75,69.48,4.58,69.25,5.45z"/>
	</g>
	<g>
		<radialGradient id="SVGID_1_" cx="12.75" cy="21.8999" r="15.8125" gradientUnits="userSpaceOnUse">
			<stop  offset="0" style="stop-color:#FFFFFF"/>
			<stop  offset="1" style="stop-color:#FFFFFF;stop-opacity:0"/>
		</radialGradient>
		<path fill-rule="evenodd" clip-rule="evenodd" fill="url(#SVGID_1_)" d="M21,12.9c0.17-0.03,0.33,0,0.5,0.1
			c0.13,0.1,0.23,0.23,0.3,0.4c0.03,0.2,0,0.38-0.1,0.55c-0.13,0.13-0.28,0.22-0.45,0.25c-10.7,2.03-16.1,8.78-16.2,20.25
			c0,0.17-0.07,0.32-0.2,0.45c-0.13,0.13-0.28,0.2-0.45,0.2s-0.32-0.07-0.45-0.2c-0.13-0.13-0.2-0.28-0.2-0.45
			C3.85,22.32,9.6,15.13,21,12.9z"/>
		<radialGradient id="SVGID_2_" cx="47.7998" cy="7.7998" r="17.1875" gradientUnits="userSpaceOnUse">
			<stop  offset="0" style="stop-color:#FFFFFF"/>
			<stop  offset="1" style="stop-color:#FFFFFF;stop-opacity:0"/>
		</radialGradient>
		<path fill-rule="evenodd" clip-rule="evenodd" fill="url(#SVGID_2_)" d="M27.75,13.15c0.07-0.17,0.22-0.25,0.45-0.25
			c17.63-1.07,30.4-4.77,38.3-11.1c0.13-0.13,0.28-0.18,0.45-0.15c0.17,0,0.32,0.08,0.45,0.25c0.1,0.13,0.15,0.28,0.15,0.45
			c0,0.2-0.07,0.37-0.2,0.5c-8.03,6.53-21.07,10.32-39.1,11.35c-0.2,0-0.35-0.05-0.45-0.15c-0.17-0.13-0.25-0.28-0.25-0.45
			C27.55,13.4,27.62,13.25,27.75,13.15z"/>
	</g>
</g>
</svg>
