<?xml version="1.0" encoding="utf-8"?>
<!-- Generator: Adobe Illustrator 16.0.0, SVG Export Plug-In . SVG Version: 6.00 Build 0)  -->
<!DOCTYPE svg PUBLIC "-//W3C//DTD SVG 1.1//EN" "http://www.w3.org/Graphics/SVG/1.1/DTD/svg11.dtd">
<svg version="1.1" id="Layer_2" xmlns="http://www.w3.org/2000/svg" xmlns:xlink="http://www.w3.org/1999/xlink" x="0px" y="0px"
	 width="53px" height="325px" viewBox="0 0 53 325" enable-background="new 0 0 53 325" xml:space="preserve">
<g>
	<g>
		<g>
			
				<linearGradient id="SVGID_1_" gradientUnits="userSpaceOnUse" x1="-775.2759" y1="-249.9805" x2="-678.8024" y2="-249.9805" gradientTransform="matrix(-0.928 -0.3726 0.3882 -0.9217 -547.2421 -479.1649)">
				<stop  offset="0" style="stop-color:#45637B"/>
				<stop  offset="1" style="stop-color:#9EB8D3"/>
			</linearGradient>
			<polygon fill-rule="evenodd" clip-rule="evenodd" fill="url(#SVGID_1_)" points="50,22.1 3,22.1 3.4,18.85 3.4,18.8 49.2,18.8 
				49.2,18.85 			"/>
			<linearGradient id="SVGID_2_" gradientUnits="userSpaceOnUse" x1="18.8447" y1="336.3984" x2="34.2041" y2="8.3888">
				<stop  offset="0" style="stop-color:#485F81"/>
				<stop  offset="1" style="stop-color:#A4B6CD"/>
			</linearGradient>
			<polygon fill-rule="evenodd" clip-rule="evenodd" fill="url(#SVGID_2_)" points="3,22.1 50,22.1 50.05,22.1 50.05,322.7 3,322.7 
							"/>
		</g>
		<g>
			
				<linearGradient id="SVGID_3_" gradientUnits="userSpaceOnUse" x1="-685.8076" y1="-367.668" x2="-654.4218" y2="-367.668" gradientTransform="matrix(-0.9997 -0.0263 0.0154 -0.9999 -640.0123 -382.4395)">
				<stop  offset="0" style="stop-color:#476579"/>
				<stop  offset="1" style="stop-color:#A5BCD6"/>
			</linearGradient>
			<polygon fill-rule="evenodd" clip-rule="evenodd" fill="url(#SVGID_3_)" points="39.35,3.75 15.5,3.75 15.7,2.05 39,2.05 			"/>
			<linearGradient id="SVGID_4_" gradientUnits="userSpaceOnUse" x1="38.5098" y1="23.2397" x2="16.3895" y2="2.1598">
				<stop  offset="0" style="stop-color:#48647A"/>
				<stop  offset="1" style="stop-color:#A7B6CF"/>
			</linearGradient>
			<polygon fill-rule="evenodd" clip-rule="evenodd" fill="url(#SVGID_4_)" points="15.5,3.75 39.35,3.75 39.35,21.6 15.5,21.6 
				15.5,3.8 			"/>
		</g>
		<g>
			<radialGradient id="SVGID_5_" cx="40.6992" cy="101.8506" r="160.75" gradientUnits="userSpaceOnUse">
				<stop  offset="0" style="stop-color:#FFFFFF;stop-opacity:0.6"/>
				<stop  offset="1" style="stop-color:#EAEAEA;stop-opacity:0"/>
			</radialGradient>
			<path fill-rule="evenodd" clip-rule="evenodd" fill="url(#SVGID_5_)" d="M47.9,23.45c0-0.2,0.07-0.37,0.2-0.5
				c0.13-0.1,0.28-0.15,0.45-0.15c0.17,0,0.32,0.05,0.45,0.15c0.13,0.13,0.2,0.3,0.2,0.5V323.1h-1.3V23.45z"/>
			<radialGradient id="SVGID_6_" cx="26.8735" cy="22.1006" r="21.2128" gradientUnits="userSpaceOnUse">
				<stop  offset="0" style="stop-color:#FFFFFF;stop-opacity:0.6"/>
				<stop  offset="1" style="stop-color:#EAEAEA;stop-opacity:0"/>
			</radialGradient>
			<path fill-rule="evenodd" clip-rule="evenodd" fill="url(#SVGID_6_)" d="M48.1,22c0.03-0.03,0.07-0.03,0.1,0
				c0.07,0.03,0.1,0.07,0.1,0.1c0,0.07-0.03,0.12-0.1,0.15c-0.03,0.03-0.07,0.05-0.1,0.05H5.6c-0.03,0-0.07-0.02-0.1-0.05
				c-0.07-0.03-0.07-0.08,0-0.15c-0.07-0.03-0.07-0.07,0-0.1c0.03-0.03,0.07-0.03,0.1,0H48.1z"/>
		</g>
	</g>
</g>
</svg>
